<?xml version="1.0" standalone="no"?>
<!DOCTYPE svg PUBLIC "-//W3C//DTD SVG 1.1//EN" "http://www.w3.org/Graphics/SVG/1.1/DTD/svg11.dtd" >
<svg>
<metadata>
Created by FontForge 20090914 at Wed Jan 26 14:47:09 2022
 By www-data
&#194;&#169; TIGHTYPE 2019
</metadata>
<defs>
<font id="Moderat-Regular" horiz-adv-x="554" >
  <font-face 
    font-family="Moderat"
    font-weight="400"
    font-stretch="normal"
    units-per-em="1000"
    panose-1="0 0 5 0 0 0 0 0 0 0"
    ascent="800"
    descent="-200"
    x-height="500"
    cap-height="700"
    bbox="-133 -291.003 1133 931"
    underline-thickness="50"
    underline-position="-150"
    unicode-range="U+0020-U+2793"
  />
<missing-glyph horiz-adv-x="852" 
d="M786 350c0 -100 -35 -185.001 -105 -255.001s-155 -105 -255 -105s-185 35.333 -255 106s-105 155.334 -105 254.001c0 99.333 35.167 184.166 105.5 254.499s155.166 105.5 254.499 105.5c100.667 0 185.834 -35.167 255.501 -105.5s104.5 -155.166 104.5 -254.499z
M238 532.999v-45h44v-128h46v128h44v45h-134zM480 532.999v-45h45v-128h45v128h45v45h-135zM426 80.999c72.667 0 134.999 25.333 186.999 76s79 111.667 81 183l-46 8c0 -61.333 -21.667 -113.5 -65 -156.5s-95.666 -64.5 -156.999 -64.5s-113.5 21.5 -156.5 64.5
s-64.5 95.167 -64.5 156.5l-46 -8c2 -71.333 29 -132.333 81 -183s114 -76 186 -76z" />
    <glyph glyph-name="arrowleft" unicode="&#x3c;&#x2d;" horiz-adv-x="806" 
d="M766 389v-78h-604l212 -211l-55 -55l-293 301v8l293 301l55 -55l-212 -211h604z" />
    <glyph glyph-name="arrowright" unicode="&#x2d;&#x3e;" horiz-adv-x="806" 
d="M487 655l293 -301v-8l-293 -301l-55 55l212 211h-604v78h604l-212 211z" />
    <glyph glyph-name="f_f" unicode="ff" horiz-adv-x="666" 
d="M520 574l0.000976562 -74h118v-71h-118v-429h-87v429h-223v-429h-88v429h-102v71h102v82c0 40.667 12.167 72.167 36.5 94.5s57.5 33.5 99.5 33.5c23.333 0 45.333 -3.66699 66 -11l-15 -68c-10.667 4 -22.667 6 -36 6c-42 0 -63 -21 -63 -63v-74h223v82
c0 40.667 12.167 72.167 36.5 94.5s57.5 33.5 99.5 33.5c28 0 54 -5 78 -15l-17 -65c-14.667 4.66699 -30.334 7 -47.001 7c-42 0 -63 -21 -63 -63z" />
    <glyph glyph-name="f_f_i" unicode="ffi" horiz-adv-x="901" 
d="M831 500v-500h-88v429h-219v-429h-88v429h-226v-429h-88v429h-102v71h102v82c0 40.667 12.167 72.167 36.5 94.5s57.5 33.5 99.5 33.5c23.333 0 45.333 -3.66699 66 -11l-15 -68c-10.667 4 -22.667 6 -36 6c-42 0 -63 -21 -63 -63v-74h226v82
c0 40.667 12.167 72.167 36.5 94.5s57.5 33.5 99.5 33.5c23.333 0 45.333 -3.66699 66 -11l-15 -68c-9.33301 4 -21.333 6 -36 6c-42 0 -63 -21 -63 -63v-74h307zM787 580c-16 0 -29.833 5.66699 -41.5 17s-17.5 25 -17.5 41s5.83301 29.5 17.5 40.5s25.5 16.5 41.5 16.5
s29.5 -5.5 40.5 -16.5s16.5 -24.5 16.5 -40.5s-5.5 -29.667 -16.5 -41s-24.5 -17 -40.5 -17z" />
    <glyph glyph-name="f_f_j" unicode="ffj" horiz-adv-x="897" 
d="M838 500v-586.999c0 -34.667 -9.66699 -63.834 -29 -87.501s-52.666 -35.5 -99.999 -35.5c-22 0 -46.333 3.66699 -73 11v67c17.333 -4.66699 33.666 -7 48.999 -7c43.333 0 65 21 65 63v505h-230v-429h-87v429h-223v-429h-88v429h-102v71h102v82
c0 40.667 12.167 72.167 36.5 94.5s57.5 33.5 99.5 33.5c23.333 0 45.333 -3.66699 66 -11l-15 -68c-10.667 4 -22.667 6 -36 6c-42 0 -63 -21 -63 -63v-74h223v82c0 40.667 12.167 72.167 36.5 94.5s57.5 33.5 99.5 33.5c24 0 45.667 -3.66699 65 -11l-14 -68
c-10.667 4 -22.667 6 -36 6c-42.667 0 -64 -21 -64 -63v-74h318zM794 580.001c-16 0 -29.833 5.66699 -41.5 17s-17.5 25 -17.5 41s5.83301 29.5 17.5 40.5s25.5 16.5 41.5 16.5s29.5 -5.5 40.5 -16.5s16.5 -24.5 16.5 -40.5s-5.5 -29.667 -16.5 -41s-24.5 -17 -40.5 -17z
" />
    <glyph glyph-name="f_i" unicode="fi" horiz-adv-x="586" 
d="M517 500v-500h-88v429h-219v-429h-88v429h-102v71h102v82c0 40.667 12.167 72.167 36.5 94.5s57.5 33.5 99.5 33.5c23.333 0 45.333 -3.66699 66 -11l-15 -68c-10.667 4 -22.667 6 -36 6c-42 0 -63 -21 -63 -63v-74h307zM473 580c-16 0 -29.833 5.66699 -41.5 17
s-17.5 25 -17.5 41s5.83301 29.5 17.5 40.5s25.5 16.5 41.5 16.5c15.333 0 28.666 -5.5 39.999 -16.5s17 -24.5 17 -40.5s-5.66699 -29.667 -17 -41s-24.666 -17 -39.999 -17z" />
    <glyph glyph-name="f_j" unicode="fj" horiz-adv-x="586" 
d="M210 429v-429h-88v429h-102v71h102v82c0 40.667 12.167 72.167 36.5 94.5s57.5 33.5 99.5 33.5c23.333 0 45.333 -3.66699 66 -11l-15 -68c-10.667 4 -22.667 6 -36 6c-42 0 -63 -21 -63 -63v-74h229v-71h-229zM483 580c-16 0 -29.667 5.66699 -41 17s-17 25 -17 41
s5.66699 29.5 17 40.5s25 16.5 41 16.5s29.667 -5.5 41 -16.5s17 -24.5 17 -40.5s-5.66699 -29.667 -17 -41s-25 -17 -41 -17zM440 -76l-0.00195312 576.001h87v-587c0 -34.667 -9.66699 -63.834 -29 -87.501s-52.666 -35.5 -99.999 -35.5c-22 0 -46.333 3.66699 -73 11v67
c18.667 -4.66699 35.334 -7 50.001 -7c43.333 0 65 21 65 63z" />
    <glyph glyph-name=".notdef" horiz-adv-x="852" 
d="M786 350c0 -100 -35 -185.001 -105 -255.001s-155 -105 -255 -105s-185 35.333 -255 106s-105 155.334 -105 254.001c0 99.333 35.167 184.166 105.5 254.499s155.166 105.5 254.499 105.5c100.667 0 185.834 -35.167 255.501 -105.5s104.5 -155.166 104.5 -254.499z
M238 532.999v-45h44v-128h46v128h44v45h-134zM480 532.999v-45h45v-128h45v128h45v45h-135zM426 80.999c72.667 0 134.999 25.333 186.999 76s79 111.667 81 183l-46 8c0 -61.333 -21.667 -113.5 -65 -156.5s-95.666 -64.5 -156.999 -64.5s-113.5 21.5 -156.5 64.5
s-64.5 95.167 -64.5 156.5l-46 -8c2 -71.333 29 -132.333 81 -183s114 -76 186 -76z" />
    <glyph glyph-name="space" unicode=" " horiz-adv-x="270" 
 />
    <glyph glyph-name="exclam" unicode="!" horiz-adv-x="266" 
d="M87 700h92l-14 -506h-62zM134 -5c-16.667 0 -30.834 5.83301 -42.501 17.5s-17.5 25.5 -17.5 41.5c0 16.667 5.83301 30.834 17.5 42.501s25.834 17.5 42.501 17.5s30.667 -5.83301 42 -17.5s17 -25.834 17 -42.501c0 -16 -5.66699 -29.833 -17 -41.5
s-25.333 -17.5 -42 -17.5z" />
    <glyph glyph-name="quotedbl" unicode="&#x22;" horiz-adv-x="355" 
d="M134 587l-16 -142h-42l-17 142c-4.66699 34 -7 56.667 -7 68c0 15.333 4 27.5 12 36.5s18.667 13.5 32 13.5c14 0 25 -4.5 33 -13.5s12 -21.167 12 -36.5c0 -11.333 -2.33301 -34 -7 -68zM296 587l-15.999 -142h-43l-16 142c-4.66699 34 -7 56.667 -7 68
c0 15.333 4 27.5 12 36.5s18.667 13.5 32 13.5s24.166 -4.5 32.499 -13.5s12.5 -21.167 12.5 -36.5c0 -11.333 -2.33301 -34 -7 -68z" />
    <glyph glyph-name="numbersign" unicode="#" horiz-adv-x="696" 
d="M656 402h-111l-36 -165h93v-71h-109l-36 -166h-80l36 166h-199l-36 -166h-79l36 166h-95v71h111l36 165h-93v71h108l37 167h79l-37 -167h199l37 167h80l-37 -167h96v-71zM429 237l36 165h-199l-36 -165h199z" />
    <glyph glyph-name="dollar" unicode="$" horiz-adv-x="577" 
d="M508 161c0 -49.333 -16.6689 -88.501 -50.002 -117.501s-76.333 -46.167 -129 -51.5v-82h-73v82c-57.333 6 -102.5 25.667 -135.5 59s-51.167 78 -54.5 134h91c7.33301 -66 40.333 -104.667 99 -116v229l-22 8c-48 17.333 -84.833 39 -110.5 65s-38.5 61 -38.5 105
c0 46.667 15.833 85.167 47.5 115.5s72.834 48.833 123.501 55.5v83h73v-82c52.667 -6 94.834 -25.167 126.501 -57.5s48.834 -73.166 51.501 -122.499h-86c-6.66699 58 -37.334 92.333 -92.001 103v-213l20 -7c54 -19.333 94 -44 120 -74s39 -68.667 39 -116z
M175.998 480.999c0 -22 6.5 -40.5 19.5 -55.5s33.167 -28.5 60.5 -40.5v185c-24 -6 -43.333 -17 -58 -33s-22 -34.667 -22 -56zM328.998 67.999c25.333 4.66699 46.167 14.833 62.5 30.5s24.5 35.834 24.5 60.501c0 49.333 -29 86.666 -87 111.999v-203z" />
    <glyph glyph-name="percent" unicode="%" horiz-adv-x="788" 
d="M218 347c-41.333 0 -77 14.833 -107 44.5s-45 65.167 -45 106.5s15 77 45 107s65.667 45 107 45s76.833 -15 106.5 -45s44.5 -65.667 44.5 -107s-14.833 -76.833 -44.5 -106.5s-65.167 -44.5 -106.5 -44.5zM658 640l-435 -640h-98l435 640h98zM217 419
c23.333 0 42.5 7.33301 57.5 22s22.5 33.667 22.5 57s-7.5 42.5 -22.5 57.5s-34.167 22.5 -57.5 22.5c-22.667 0 -41.334 -7.5 -56.001 -22.5s-22 -34.167 -22 -57.5c0 -22.667 7.33301 -41.5 22 -56.5s33.334 -22.5 56.001 -22.5zM571 -10c-41.333 0 -77 15 -107 45
s-45 65.667 -45 107s15 76.833 45 106.5s65.667 44.5 107 44.5s77 -14.833 107 -44.5s45 -65.167 45 -106.5s-15 -77 -45 -107s-65.667 -45 -107 -45zM570 62c23.333 0 42.5 7.5 57.5 22.5s22.5 34.167 22.5 57.5s-7.5 42.333 -22.5 57s-34.167 22 -57.5 22
c-22 0 -40.5 -7.5 -55.5 -22.5s-22.5 -33.833 -22.5 -56.5s7.5 -41.667 22.5 -57s33.5 -23 55.5 -23z" />
    <glyph glyph-name="ampersand" unicode="&#x26;" horiz-adv-x="689" 
d="M658 0l-97 0.00292969l-96 102c-60.667 -74.667 -131 -112 -211 -112c-54 0 -98.833 15.167 -134.5 45.5s-53.5 69.5 -53.5 117.5c0 44.667 11 81.167 33 109.5s52.667 56.166 92 83.499l27 19l-38.5 40.5c-7.66699 8.33301 -18 21.166 -31 38.499
s-22.167 34.5 -27.5 51.5s-8 34.833 -8 53.5c0 44 17.333 81.833 52 113.5s79 47.5 133 47.5s98.333 -14.5 133 -43.5s52 -66.5 52 -112.5c0 -35.333 -10.333 -66.333 -31 -93s-50.667 -54.334 -90 -83.001l-33 -24l126 -136l85 119h91l-123 -176zM278 408.003
l1.00098 -1.00098l31 22c28.667 20 51 39.5 67 58.5s24 40.167 24 63.5c0 26.667 -9.83301 48 -29.5 64s-43.834 24 -72.501 24c-30.667 0 -55.5 -8.66699 -74.5 -26s-28.5 -39.333 -28.5 -66c0 -23.333 6 -44.666 18 -63.999s33.333 -44.333 64 -75zM258.001 64.002
c56 0 107.667 31.332 155 93.999l-144 153l-28 -21c-29.333 -22 -51.5 -42.667 -66.5 -62s-22.5 -42 -22.5 -68c0 -27.333 10 -50.166 30 -68.499s45.333 -27.5 76 -27.5z" />
    <glyph glyph-name="quotesingle" unicode="'" horiz-adv-x="193" 
d="M134 587l-16 -142h-42l-17 142c-4.66699 34 -7 56.667 -7 68c0 15.333 4 27.5 12 36.5s18.667 13.5 32 13.5c14 0 25 -4.5 33 -13.5s12 -21.167 12 -36.5c0 -11.333 -2.33301 -34 -7 -68z" />
    <glyph glyph-name="parenleft" unicode="(" horiz-adv-x="307" 
d="M280 -130l-54 -39c-47.333 56.667 -85.833 125.834 -115.5 207.501s-44.5 172.167 -44.5 271.5s14.833 190 44.5 272s68.167 151.333 115.5 208l54 -40c-92 -120.667 -138 -267.334 -138 -440.001c0 -171.333 46 -318 138 -440z" />
    <glyph glyph-name="parenright" unicode=")" horiz-adv-x="307" 
d="M26 -130c92.667 122 139 268.666 139 439.999c0 172.667 -46.333 319.334 -139 440.001l54 40c47.333 -56 86 -125.167 116 -207.5s45 -173.166 45 -272.499s-15 -189.833 -45 -271.5s-68.667 -150.834 -116 -207.501z" />
    <glyph glyph-name="asterisk" unicode="*" horiz-adv-x="421" 
d="M368 592l-105 -57l105 -57l-29 -51l-103 63l4 -120h-59l4 120l-103 -63l-30 51l106 57l-106 57l30 51l103 -63l-4 120h59l-4 -120l103 63z" />
    <glyph glyph-name="plus" unicode="+" 
d="M499 316v-72h-183v-184h-78v184h-184v72h184v184h78v-184h183z" />
    <glyph glyph-name="comma" unicode="," horiz-adv-x="249" 
d="M125 112c20 0 35.501 -7.33398 46.501 -22.001s16.5 -33.667 16.5 -57c0 -67.333 -33 -121.666 -99 -162.999l-25 31c37.333 30.667 56.333 62 57 94c-14.667 -1.33301 -27.667 3.16699 -39 13.5s-17 24.5 -17 42.5s5.66699 32.667 17 44s25.666 17 42.999 17z" />
    <glyph glyph-name="hyphen" unicode="-" horiz-adv-x="446" 
d="M40 349h367v-76h-367v76z" />
    <glyph glyph-name="period" unicode="." horiz-adv-x="241" 
d="M121 -5c-16.667 0 -30.834 5.83301 -42.501 17.5s-17.5 25.5 -17.5 41.5c0 16.667 5.83301 30.834 17.5 42.501s25.834 17.5 42.501 17.5s30.667 -5.83301 42 -17.5s17 -25.834 17 -42.501c0 -16 -5.66699 -29.833 -17 -41.5s-25.333 -17.5 -42 -17.5z" />
    <glyph glyph-name="slash" unicode="/" horiz-adv-x="496" 
d="M470 750l-358 -800h-86l359 800h85z" />
    <glyph glyph-name="zero" unicode="0" horiz-adv-x="604" 
d="M303 -10c-72 0 -129.5 27.833 -172.5 83.5s-64.5 138.167 -64.5 247.5c0 108 21.5 190 64.5 246s100.5 84 172.5 84s129.167 -28.167 171.5 -84.5s63.5 -138.833 63.5 -247.5s-21.333 -190.667 -64 -246s-99.667 -83 -171 -83zM303 67
c42.667 0 77.1689 21.167 103.502 63.5s39.5 105.5 39.5 189.5s-13.333 147.333 -40 190s-61.334 64 -104.001 64s-77.167 -21.167 -103.5 -63.5s-39.5 -105.833 -39.5 -190.5s13.167 -148 39.5 -190s61.166 -63 104.499 -63z" />
    <glyph glyph-name="one" unicode="1" horiz-adv-x="369" 
d="M192 0v456.001h-126v72h59c26 0 45.167 7.16699 57.5 21.5s18.5 33.166 18.5 56.499v34h81v-640h-90z" />
    <glyph glyph-name="two" unicode="2" horiz-adv-x="551" 
d="M264 216c-58.667 -41.333 -90.666 -87.999 -95.999 -139.999h314v-76h-416v35c0 49.333 12.5 94.166 37.5 134.499s57.5 74.5 97.5 102.5l97 67c21.333 15.333 37.166 27.333 47.499 36s21.166 22 32.499 40s17 37 17 57c0 30 -10 54.5 -30 73.5s-46 28.5 -78 28.5
c-39.333 0 -70.166 -12.833 -92.499 -38.5s-34.5 -54.5 -36.5 -86.5h-91c3.33301 54.667 24.666 102 63.999 142s92.333 60 159 60c58.667 0 105.834 -16 141.501 -48s53.5 -74.667 53.5 -128c0 -70.667 -37.333 -131.667 -112 -183z" />
    <glyph glyph-name="three" unicode="3" horiz-adv-x="571" 
d="M395 330c33.333 -10.667 59.999 -29.3311 79.999 -55.998s30 -59.334 30 -98.001c0 -54 -20.667 -98.5 -62 -133.5s-95 -52.5 -161 -52.5c-64 0 -114.833 16.5 -152.5 49.5s-58.834 78.833 -63.501 137.5h88c4.66699 -32.667 17.334 -59.5 38.001 -80.5
s50.334 -31.5 89.001 -31.5c39.333 0 71.333 10.667 96 32s37 48.666 37 81.999s-11.5 60.5 -34.5 81.5s-54.167 31.5 -93.5 31.5h-58v71h54c34 0 61.167 9.83301 81.5 29.5s30.5 45.834 30.5 78.501c0 32 -10.333 57.833 -31 77.5s-47.667 29.5 -81 29.5
c-30.667 0 -57 -8.66699 -79 -26s-36 -42 -42 -74h-87c3.33301 52 25.5 93.833 66.5 125.5s89.167 47.5 144.5 47.5c56 0 103 -16.333 141 -49s57 -75.334 57 -128.001c0 -62.667 -29.333 -109 -88 -139v-5z" />
    <glyph glyph-name="four" unicode="4" horiz-adv-x="571" 
d="M532 215v-69h-111v-146h-84v146h-297v44l288 450h93v-425h111zM143 215h194v305h-7z" />
    <glyph glyph-name="five" unicode="5" horiz-adv-x="566" 
d="M299 410c60 0 108.669 -19.667 146.002 -59s56 -89.333 56 -150c0 -64 -21 -115.167 -63 -153.5s-95.667 -57.5 -161 -57.5c-62 0 -111.833 17.333 -149.5 52s-58.167 81 -61.5 139h85c3.33301 -37.333 16.333 -66.5 39 -87.5s52 -31.5 88 -31.5
c40 0 72.333 12.333 97 37s37 58 37 100c0 41.333 -11.833 75.5 -35.5 102.5s-54.834 40.5 -93.501 40.5c-56.667 0 -98.334 -23.333 -125.001 -70l-78 17l34 351h358v-75h-281l-22 -200c34 30 77.333 45 130 45z" />
    <glyph glyph-name="six" unicode="6" horiz-adv-x="539" 
d="M288 404c57.333 0 104.668 -19 142.001 -57s56 -86.667 56 -146c0 -62 -20.167 -112.667 -60.5 -152s-92.5 -59 -156.5 -59c-64.667 0 -117 20 -157 60s-60 92.667 -60 158c0 28 4.33301 55.833 13 83.5s17.5 50.167 26.5 67.5s21.5 38.333 37.5 63l140 218h109
l-172 -252c23.333 10.667 50.666 16 81.999 16zM270.002 64c39.333 0 70.666 13.333 93.999 40s35 59.667 35 99c0 38 -11.5 69.667 -34.5 95s-54.167 38 -93.5 38s-70.666 -12.667 -93.999 -38s-35 -57 -35 -95c0 -39.333 11.667 -72.333 35 -99s54.333 -40 93 -40z" />
    <glyph glyph-name="seven" unicode="7" horiz-adv-x="533" 
d="M66 640l427.001 -0.000976562v-51c-74 -85.333 -130.667 -172.666 -170 -261.999s-63.333 -198.333 -72 -327h-91c8.66699 126 30.167 232 64.5 318s81.166 166.667 140.499 242v4h-299v76z" />
    <glyph glyph-name="eight" unicode="8" horiz-adv-x="572" 
d="M392 339c31.333 -12 58.1689 -32.333 80.502 -61s33.5 -63.667 33.5 -105c0 -54 -20 -98 -60 -132s-93 -51 -159 -51c-66.667 0 -120.167 17.167 -160.5 51.5s-60.5 78.5 -60.5 132.5c0 41.333 11.167 76.333 33.5 105s49.166 48.667 80.499 60v5
c-60.667 26 -91 71.667 -91 137c0 51.333 18.667 92.5 56 123.5s84.666 46.5 141.999 46.5c56.667 0 103.5 -15.333 140.5 -46s55.5 -71.667 55.5 -123c0 -34.667 -8.66699 -63.5 -26 -86.5s-39 -40.167 -65 -51.5v-5zM287.003 585c-32 0 -58.334 -9.5 -79.001 -28.5
s-31 -44.833 -31 -77.5c0 -32 10.667 -57.333 32 -76s47.333 -28 78 -28c30 0 55.5 9.33301 76.5 28s31.5 44 31.5 76c0 32.667 -10.167 58.5 -30.5 77.5s-46.166 28.5 -77.499 28.5zM287.002 59c36 0 66.167 10.833 90.5 32.5s36.5 50.167 36.5 85.5
c0 36 -11.5 65.667 -34.5 89s-54.5 35 -94.5 35s-71.333 -11.667 -94 -35s-34 -52 -34 -86c0 -36.667 12.5 -66 37.5 -88s55.833 -33 92.5 -33z" />
    <glyph glyph-name="nine" unicode="9" horiz-adv-x="539" 
d="M270 650c64.667 0 116.832 -20 156.499 -60s59.5 -92.667 59.5 -158c0 -40 -6.66699 -76.333 -20 -109s-32 -67.667 -56 -105l-140 -218h-109l172 252c-23.333 -10.667 -50.666 -16 -81.999 -16c-58 0 -105.667 19 -143 57s-56 86.667 -56 146
c0 62 20.333 112.667 61 152s93 59 157 59zM267.998 304c39.333 0 70.666 12.667 93.999 38s35 57 35 95c0 39.333 -11.667 72.333 -35 99s-54.333 40 -93 40c-39.333 0 -70.666 -13.333 -93.999 -40s-35 -59.667 -35 -99c0 -38 11.5 -69.667 34.5 -95s54.167 -38 93.5 -38z
" />
    <glyph glyph-name="colon" unicode=":" horiz-adv-x="241" 
d="M121 386c-16.667 0 -30.834 5.83301 -42.501 17.5s-17.5 25.5 -17.5 41.5c0 16.667 5.83301 30.834 17.5 42.501s25.834 17.5 42.501 17.5s30.667 -5.83301 42 -17.5s17 -25.834 17 -42.501c0 -16 -5.66699 -29.833 -17 -41.5s-25.333 -17.5 -42 -17.5zM121 -5
c-16.667 0 -30.834 5.83301 -42.501 17.5s-17.5 25.5 -17.5 41.5c0 16.667 5.83301 30.834 17.5 42.501s25.834 17.5 42.501 17.5s30.667 -5.83301 42 -17.5s17 -25.834 17 -42.501c0 -16 -5.66699 -29.833 -17 -41.5s-25.333 -17.5 -42 -17.5z" />
    <glyph glyph-name="semicolon" unicode=";" horiz-adv-x="249" 
d="M128 386c-16.667 0 -31 5.83301 -43 17.5s-18 25.5 -18 41.5c0 16.667 6 30.834 18 42.501s26.333 17.5 43 17.5c16 0 29.833 -5.83301 41.5 -17.5s17.5 -25.834 17.5 -42.501c0 -16 -5.83301 -29.833 -17.5 -41.5s-25.5 -17.5 -41.5 -17.5zM125 112
c20 0 35.501 -7.33398 46.501 -22.001s16.5 -33.667 16.5 -57c0 -67.333 -33 -121.666 -99 -162.999l-25 31c37.333 30.667 56.333 62 57 94c-14.667 -1.33301 -27.667 3.16699 -39 13.5s-17 24.5 -17 42.5s5.66699 32.667 17 44s25.666 17 42.999 17z" />
    <glyph glyph-name="less" unicode="&#x3c;" horiz-adv-x="555" 
d="M470 557v-92l-296 -175v-5l296 -177v-92l-385 225v91z" />
    <glyph glyph-name="equal" unicode="=" 
d="M57 428h440v-75h-440v75zM57 207h440v-74h-440v74z" />
    <glyph glyph-name="greater" unicode="&#x3e;" 
d="M85 557l385 -225v-91l-385 -225v92l295 177v5l-295 175v92z" />
    <glyph glyph-name="question" unicode="?" horiz-adv-x="456" 
d="M157 243c0 40 5.83105 73.834 17.498 101.501s34.167 54.5 67.5 80.5c31.333 24.667 52.5 44.667 63.5 60s16.5 34.666 16.5 57.999c0 27.333 -8.16699 49.333 -24.5 66s-40.166 25 -71.499 25c-33.333 0 -58.5 -10.167 -75.5 -30.5s-26.833 -44.5 -29.5 -72.5h-81
c1.33301 46.667 17 88.167 47 124.5s76.333 54.5 139 54.5c56 0 99.667 -14.667 131 -44s47 -69.333 47 -120c0 -36 -7.66699 -65.5 -23 -88.5s-40.666 -48.167 -75.999 -75.5c-24.667 -19.333 -42 -40.333 -52 -63s-15 -50 -15 -82v-43h-81v49zM199.998 -4.99902
c-16.667 0 -30.834 5.83301 -42.501 17.5s-17.5 25.5 -17.5 41.5c0 16.667 5.83301 30.834 17.5 42.501s25.834 17.5 42.501 17.5s30.667 -5.83301 42 -17.5s17 -25.834 17 -42.501c0 -16 -5.66699 -29.833 -17 -41.5s-25.333 -17.5 -42 -17.5z" />
    <glyph glyph-name="at" unicode="@" horiz-adv-x="1007" 
d="M501 710c126 0 230.832 -40.167 314.499 -120.5s125.5 -185.833 125.5 -316.5c0 -178 -60.333 -267 -181 -267c-33.333 0 -62 7.5 -86 22.5s-39.333 35.833 -46 62.5c-12 -22.667 -31.167 -42.5 -57.5 -59.5s-58.833 -25.5 -97.5 -25.5c-56 0 -103.833 21.667 -143.5 65
s-59.5 100 -59.5 170c0 72 19.5 130.833 58.5 176.5s87.167 68.5 144.5 68.5c65.333 0 111 -25 137 -75h7l9 68h68v-323c0 -26.667 6.66699 -46.667 20 -60s31.333 -20 54 -20c64.667 0 97 63.333 97 190c0 114.667 -34 205.5 -102 272.5s-156.333 100.5 -265 100.5
c-100 0 -184.5 -37.333 -253.5 -112s-103.5 -170.334 -103.5 -287.001c0 -112.667 36.667 -204 110 -274s161.666 -105 264.999 -105c77.333 0 145.333 19 204 57l33 -60c-67.333 -45.333 -148 -68 -242 -68c-80 0 -153.5 17.667 -220.5 53s-121.167 87.666 -162.5 156.999
s-62 149.333 -62 240c0 71.333 11.833 136.833 35.5 196.5s55.334 109.334 95.001 149.001s85.834 70.334 138.501 92.001s108 32.5 166 32.5zM484.999 82c37.333 0 68.833 15 94.5 45s38.5 69.667 38.5 119c0 48.667 -12.833 88 -38.5 118s-57.167 45 -94.5 45
c-38 0 -69.833 -15 -95.5 -45s-38.5 -69.333 -38.5 -118c0 -49.333 12.833 -89 38.5 -119s57.5 -45 95.5 -45z" />
    <glyph glyph-name="A" unicode="A" horiz-adv-x="652" 
d="M529 0l-64 191h-278l-64 -191h-97l244 700h112l244 -700h-97zM213 269h225l-109 324h-7z" />
    <glyph glyph-name="B" unicode="B" horiz-adv-x="610" 
d="M440 365c78 -29.333 117.001 -87.333 117.001 -174c0 -60 -18.833 -106.833 -56.5 -140.5s-89.834 -50.5 -156.501 -50.5h-257v700h255c64.667 0 113.667 -15.5 147 -46.5s50 -73.5 50 -127.5c0 -73.333 -33 -125.333 -99 -156v-5zM176.001 625v-227.001h155
c37.333 0 66.333 10.5 87 31.5s31 49.167 31 84.5c0 34.667 -10.5 61.834 -31.5 81.501s-48.833 29.5 -83.5 29.5h-158zM337.001 74.999c40 0 71.332 11 93.999 33s34 51.333 34 88c0 37.333 -11.667 67.833 -35 91.5s-54.666 35.5 -93.999 35.5h-160v-248h161z" />
    <glyph glyph-name="C" unicode="C" horiz-adv-x="752" 
d="M700 213c-12.667 -67.333 -46.668 -121.333 -102.001 -162s-122 -61 -200 -61c-99.333 0 -179.5 33.333 -240.5 100s-91.5 152.334 -91.5 257.001c0 105.333 30.667 192.166 92 260.499s141.333 102.5 240 102.5c76 0 140.5 -20.333 193.5 -61s85.5 -96.667 97.5 -168
h-96c-12 44.667 -35 80 -69 106s-75.667 39 -125 39c-72 0 -130.167 -26.833 -174.5 -80.5s-66.5 -119.834 -66.5 -198.501c0 -79.333 22.333 -144.666 67 -195.999s102.334 -77 173.001 -77c51.333 0 95 12.667 131 38s61 59 75 101h96z" />
    <glyph glyph-name="D" unicode="D" horiz-adv-x="704" 
d="M303 700c108.667 0 191.667 -31.5 249 -94.5s86 -148.167 86 -255.5c0 -106 -28.5 -190.833 -85.5 -254.5s-140.167 -95.5 -249.5 -95.5h-216v700h216zM298 82c85.333 0 147.833 24.5 187.5 73.5s59.5 114.5 59.5 196.5c0 81.333 -19.833 146 -59.5 194
s-102.167 72 -187.5 72h-120v-536h120z" />
    <glyph glyph-name="E" unicode="E" horiz-adv-x="586" 
d="M176 81h363v-81h-452v700h442v-81h-353v-224h311v-79h-311v-235z" />
    <glyph glyph-name="F" unicode="F" horiz-adv-x="555" 
d="M516 616h-338v-231h295v-80h-295v-305h-91v700h429v-84z" />
    <glyph glyph-name="G" unicode="G" horiz-adv-x="785" 
d="M400 364l298.001 -0.00195312v-364h-72l-11 81h-7c-54.667 -60.667 -128.334 -91 -221.001 -91c-97.333 0 -175.166 32.667 -233.499 98s-87.5 149.333 -87.5 252c0 106 31.833 194.167 95.5 264.5s146.167 105.5 247.5 105.5c77.333 0 141.166 -19.333 191.499 -58
s81.5 -89 93.5 -151h-98c-12 38 -34.167 68.333 -66.5 91s-72.5 34 -120.5 34c-75.333 0 -136 -26.667 -182 -80s-69 -121.666 -69 -204.999c0 -78.667 21.5 -143.167 64.5 -193.5s101.167 -75.5 174.5 -75.5c59.333 0 109.333 14.833 150 44.5s61 71.834 61 126.501v48
h-208v73z" />
    <glyph glyph-name="H" unicode="H" horiz-adv-x="697" 
d="M520 700h90v-700h-90v313h-342v-313h-91v700h91v-305h342v305z" />
    <glyph glyph-name="I" unicode="I" horiz-adv-x="265" 
d="M178 700v-700h-91v700h91z" />
    <glyph glyph-name="J" unicode="J" horiz-adv-x="538" 
d="M134 201c2 -36.667 12.832 -67 32.499 -91s46.834 -36 81.501 -36s62 11.5 82 34.5s30 57.833 30 104.5v487h91v-492c0 -70.667 -18.5 -124.667 -55.5 -162s-86.167 -56 -147.5 -56c-64.667 0 -115 19.167 -151 57.5s-55 89.5 -57 153.5h94z" />
    <glyph glyph-name="K" unicode="K" horiz-adv-x="623" 
d="M491 0l-259 318h-54v-318h-91v700h91v-300h54l233 300h105l-261 -336v-5l287 -359h-105z" />
    <glyph glyph-name="L" unicode="L" horiz-adv-x="576" 
d="M176 82h360v-82h-449v700h89v-618z" />
    <glyph glyph-name="M" unicode="M" horiz-adv-x="878" 
d="M790 700v-700h-89v538h-6l-206 -458h-98l-207 458h-8v-538h-89v700h116l233 -525h7l232 525h115z" />
    <glyph glyph-name="N" unicode="N" horiz-adv-x="738" 
d="M562 700h89v-700h-98l-370 546h-7v-546h-89v700h99l369 -546h7v546z" />
    <glyph glyph-name="O" unicode="O" horiz-adv-x="823" 
d="M412 -10c-98.667 0 -180.999 34.168 -246.999 102.501s-99 154.166 -99 257.499c0 102.667 33 188.334 99 257.001s148.333 103 247 103c98 0 180 -34.333 246 -103s99 -154.334 99 -257.001c0 -102 -32.833 -187.5 -98.5 -256.5s-147.834 -103.5 -246.501 -103.5z
M412.001 74.001c72 0 132.167 26.5 180.5 79.5s72.5 118.5 72.5 196.5s-24.167 143.5 -72.5 196.5s-108.5 79.5 -180.5 79.5s-132.333 -26.5 -181 -79.5s-73 -118.5 -73 -196.5s24.333 -143.5 73 -196.5s109 -79.5 181 -79.5z" />
    <glyph glyph-name="P" unicode="P" horiz-adv-x="630" 
d="M344 700c66.667 0 120 -19.333 160 -58s60 -89.334 60 -152.001c0 -65.333 -20.5 -117.166 -61.5 -155.499s-96.167 -57.5 -165.5 -57.5h-162v-277h-88v700h257zM329 358c45.333 0 80.334 11.667 105.001 35s37 55.333 37 96s-12.333 72.5 -37 95.5
s-57.334 34.5 -98.001 34.5h-161v-261h154z" />
    <glyph glyph-name="Q" unicode="Q" horiz-adv-x="823" 
d="M508 3c19.333 -35.333 56.335 -52.999 111.002 -52.999c21.333 0 46.666 2.66699 75.999 8v-69c-31.333 -6.66699 -62 -10 -92 -10c-90.667 0 -150.667 37 -180 111h-11c-98.667 0 -181 34.167 -247 102.5s-99 154.166 -99 257.499c0 102.667 33 188.334 99 257.001
s148.333 103 247 103c98 0 180 -34.333 246 -103s99 -154.334 99 -257.001c0 -84 -22.833 -157.667 -68.5 -221s-105.834 -105.333 -180.501 -126zM158.002 350.001c0 -78 24.333 -143.5 73 -196.5s109 -79.5 181 -79.5s132.167 26.5 180.5 79.5s72.5 118.5 72.5 196.5
s-24.167 143.5 -72.5 196.5s-108.5 79.5 -180.5 79.5s-132.333 -26.5 -181 -79.5s-73 -118.5 -73 -196.5z" />
    <glyph glyph-name="R" unicode="R" horiz-adv-x="623" 
d="M584 0l-100 -0.000976562l-172 294h-136v-294h-89v700h247c67.333 0 120.5 -18 159.5 -54s58.5 -84 58.5 -144c0 -49.333 -13.333 -90.666 -40 -123.999s-63.667 -56.333 -111 -69zM176 620.999v-247.999h146c43.333 0 77.5 11.5 102.5 34.5s37.5 53.167 37.5 90.5
c0 39.333 -12.5 69.666 -37.5 90.999s-59.167 32 -102.5 32h-146z" />
    <glyph glyph-name="S" unicode="S" horiz-adv-x="607" 
d="M537 183c0 -62.667 -21.5029 -110.499 -64.5029 -143.499s-97.167 -49.5 -162.5 -49.5c-73.333 0 -131.166 18.5 -173.499 55.5s-65.833 88.5 -70.5 154.5h89c5.33301 -42 21.333 -74.333 48 -97s62.334 -34 107.001 -34c39.333 0 71.666 9.33301 96.999 28
s38 46.667 38 84c0 21.333 -4.16699 39.833 -12.5 55.5s-20.666 28.834 -36.999 39.501s-31.166 18.667 -44.499 24s-30.666 11.333 -51.999 18l-35 10c-23.333 7.33301 -43.5 15 -60.5 23s-35.167 19.167 -54.5 33.5s-34.333 32.666 -45 54.999s-16 47.833 -16 76.5
c0 58.667 21 105.667 63 141s95.333 53 160 53c65.333 0 118.5 -18.5 159.5 -55.5s63.167 -84.5 66.5 -142.5h-90c-4 35.333 -17.5 64 -40.5 86s-54.833 33 -95.5 33c-38.667 0 -70.5 -10.333 -95.5 -31s-37.5 -47.334 -37.5 -80.001c0 -12.667 1.83301 -24.167 5.5 -34.5
s9.66699 -19.5 18 -27.5s15.833 -14.667 22.5 -20s17 -10.666 31 -15.999l30 -11.5c6 -2.33301 16.667 -5.83301 32 -10.5l31 -10c17.333 -5.33301 31.833 -10.333 43.5 -15s27.667 -12.834 48 -24.501s36.666 -24.167 48.999 -37.5s23.5 -31.5 33.5 -54.5
s15 -48.167 15 -75.5z" />
    <glyph glyph-name="T" unicode="T" horiz-adv-x="575" 
d="M535 700v-82h-202v-618h-91v618h-202v82h495z" />
    <glyph glyph-name="U" unicode="U" horiz-adv-x="717" 
d="M630 700l-0.000976562 -436c0 -88 -24.667 -155.667 -74 -203s-114.666 -71 -195.999 -71c-82 0 -148 23.667 -198 71s-75 115 -75 203v436h91v-430c0 -63.333 16.833 -111.833 50.5 -145.5s77.5 -50.5 131.5 -50.5s97.333 16.833 130 50.5s49 82.167 49 145.5v430h91z
" />
    <glyph glyph-name="V" unicode="V" horiz-adv-x="659" 
d="M535 700h97l-247 -700h-112l-247 700h98l202 -581h7z" />
    <glyph glyph-name="W" unicode="W" horiz-adv-x="895" 
d="M781 700h87l-156 -700h-105l-156 535h-7l-156 -535h-105l-157 700h89l122 -572h7l153 522h101l152 -522h7z" />
    <glyph glyph-name="X" unicode="X" horiz-adv-x="619" 
d="M487 0l-173 284h-6l-173 -284h-109l223 361l-212 339h108l163 -264h6l164 264h104l-212 -339l223 -361h-106z" />
    <glyph glyph-name="Y" unicode="Y" horiz-adv-x="648" 
d="M512 700h110l-252 -369v-331h-91v331l-253 369h110l185 -270h6z" />
    <glyph glyph-name="Z" unicode="Z" horiz-adv-x="617" 
d="M199 82h348v-82h-481v51l352 562v5h-331v82h458v-51l-346 -562v-5z" />
    <glyph glyph-name="bracketleft" unicode="[" horiz-adv-x="294" 
d="M87 773h181v-65h-105v-812h105v-65h-181v942z" />
    <glyph glyph-name="backslash" unicode="\" horiz-adv-x="496" 
d="M26 750h85l359 -800h-86z" />
    <glyph glyph-name="bracketright" unicode="]" horiz-adv-x="294" 
d="M207 773v-942h-181v65h105v812h-105v65h181z" />
    <glyph glyph-name="asciicircum" unicode="^" 
d="M407 360l-126 252h-6l-127 -252h-92l169 340h105l169 -340h-92z" />
    <glyph glyph-name="underscore" unicode="_" horiz-adv-x="514" 
d="M40 0h435v-75h-435v75z" />
    <glyph glyph-name="grave" unicode="`" horiz-adv-x="322" 
d="M165 700l70 -145h-71l-77 145h78z" />
    <glyph glyph-name="a" unicode="a" horiz-adv-x="529" 
d="M488 68h13v-68h-40c-49.333 -0 -79 21.333 -89 64c-38.667 -49.333 -93.667 -74 -165 -74c-49.333 0 -89.166 12.167 -119.499 36.5s-45.5 59.833 -45.5 106.5c0 45.333 15.5 80.833 46.5 106.5s72.167 41.167 123.5 46.5l149 14v28c0 34.667 -9 61.667 -27 81
s-43.667 29 -77 29c-60 0 -96 -31.667 -108 -95h-87c5.33301 49.333 25.166 89.5 59.499 120.5s79.5 46.5 135.5 46.5c58 0 104.5 -16 139.5 -48s52.5 -77.333 52.5 -136v-217c0 -27.333 13 -41 39 -41zM361 192v43.999l-121 -12c-34 -3.33301 -60.833 -12.333 -80.5 -27
s-29.5 -35 -29.5 -61s8.33301 -45.167 25 -57.5s38 -18.5 64 -18.5c38 0 71.167 10.833 99.5 32.5s42.5 54.834 42.5 99.501z" />
    <glyph glyph-name="b" unicode="b" horiz-adv-x="600" 
d="M317 510c67.333 0 122.501 -23.668 165.501 -71.001s64.5 -110 64.5 -188c0 -77.333 -21.5 -140.166 -64.5 -188.499s-98.167 -72.5 -165.5 -72.5c-68.667 0 -122.334 27 -161.001 81h-6l-8 -71h-72v710h87v-276c36 50.667 89.333 76 160 76zM306.001 66.999
c45.333 0 82.333 17 111 51s43 78.333 43 133c0 54 -14.333 97.833 -43 131.5s-65.667 50.5 -111 50.5c-44.667 0 -80.667 -16.833 -108 -50.5s-41 -77.5 -41 -131.5c0 -55.333 13.667 -99.833 41 -133.5s63.333 -50.5 108 -50.5z" />
    <glyph glyph-name="c" unicode="c" horiz-adv-x="570" 
d="M301 -10c-74.667 0 -134.831 24.333 -180.498 73s-68.5 110 -68.5 184c0 76 23.333 138.833 70 188.5s106 74.5 178 74.5c57.333 0 107.166 -15.833 149.499 -47.5s67.833 -75.5 76.5 -131.5h-88c-6.66699 29.333 -22.334 53.666 -47.001 72.999s-55 29 -91 29
c-46.667 0 -85 -17.667 -115 -53s-45 -79.666 -45 -132.999c0 -52 14.667 -95 44 -129s68.333 -51 117 -51c72 0 118.333 32 139 96h88c-9.33301 -52.667 -34.5 -94.667 -75.5 -126s-91.5 -47 -151.5 -47z" />
    <glyph glyph-name="d" unicode="d" horiz-adv-x="600" 
d="M443 710l87.001 0.000976562v-710h-72l-8 71h-6c-38.667 -54 -92.334 -81 -161.001 -81c-67.333 0 -122.5 24.167 -165.5 72.5s-64.5 111.166 -64.5 188.499c0 78 21.5 140.667 64.5 188s98.167 71 165.5 71c70.667 0 124 -25.333 160 -76v276zM294.001 67.001
c44.667 0 80.667 16.833 108 50.5s41 78.167 41 133.5c0 54 -13.667 97.833 -41 131.5s-63.333 50.5 -108 50.5c-45.333 0 -82.333 -16.833 -111 -50.5s-43 -77.5 -43 -131.5c0 -54.667 14.333 -99 43 -133s65.667 -51 111 -51z" />
    <glyph glyph-name="e" unicode="e" horiz-adv-x="568" 
d="M514 260c0 -4.66699 -0.667969 -15.001 -2.00098 -31.001h-373c2.66699 -50 17.834 -90.333 45.501 -121s64.5 -46 110.5 -46c32.667 0 60.5 7.16699 83.5 21.5s38.833 35.166 47.5 62.499h85c-10.667 -49.333 -35.334 -87.666 -74.001 -114.999s-86 -41 -142 -41
c-71.333 0 -129.666 23.333 -174.999 70s-68 108.334 -68 185.001c0 79.333 22.667 143.333 68 192s102.333 73 171 73c64 0 117.167 -21.667 159.5 -65s63.5 -105 63.5 -185zM290.999 437.999c-40.667 0 -74.832 -13.833 -102.499 -41.5s-43.834 -62.167 -48.501 -103.5
h289c-0.666992 43.333 -13.667 78.333 -39 105s-58.333 40 -99 40z" />
    <glyph glyph-name="f" unicode="f" horiz-adv-x="356" 
d="M210 574l0.000976562 -74h117v-71h-117v-429h-88v429h-102v71h102v82c0 40.667 12.167 72.167 36.5 94.5s57.5 33.5 99.5 33.5c28 0 54 -5 78 -15l-16 -65c-14.667 4.66699 -30.334 7 -47.001 7c-42 0 -63 -21 -63 -63z" />
    <glyph glyph-name="g" unicode="g" horiz-adv-x="536" 
d="M515 496c-22.667 -23.333 -50.666 -43.3311 -83.999 -59.998c20.667 -28.667 31 -61.334 31 -98.001c0 -51.333 -17.667 -92.5 -53 -123.5s-80.333 -46.5 -135 -46.5c-32 0 -62 5.66699 -90 17c-22 -11.333 -33 -26.333 -33 -45c0 -30.667 24 -46 72 -46h98
c55.333 0 98.166 -12.333 128.499 -37s45.5 -59.334 45.5 -104.001c0 -52 -19.833 -92.167 -59.5 -120.5s-92.167 -42.5 -157.5 -42.5c-69.333 0 -123 16 -161 48s-59.667 73 -65 123l84 71c-20 7.33301 -35.833 19 -47.5 35s-17.5 34.667 -17.5 56
c0 39.333 21.333 70.333 64 93c-34.667 31.333 -52 72 -52 122s17.333 91.167 52 123.5s80 48.5 136 48.5c44 0 82 -10.333 114 -31c30.667 15.333 57.667 38.333 81 69zM274.001 235.002c31.333 0 56.5 9.83301 75.5 29.5s28.5 44.167 28.5 73.5
c0 31.333 -9.33301 56.666 -28 75.999s-44 29 -76 29s-57.833 -9.66699 -77.5 -29s-29.5 -44.666 -29.5 -75.999c0 -29.333 10 -53.833 30 -73.5s45.667 -29.5 77 -29.5zM411.001 -50.998c0 26 -10 44.834 -30 56.501s-43 17.5 -69 17.5h-88l-85 -71
c16 -62 62.333 -93 139 -93c37.333 0 68.833 7.66699 94.5 23s38.5 37.666 38.5 66.999z" />
    <glyph glyph-name="h" unicode="h" horiz-adv-x="561" 
d="M309 510c54.667 0 98.668 -17 132.001 -51s50 -82.333 50 -145v-314h-87v295c0 46 -10.833 80.5 -32.5 103.5s-49.834 34.5 -84.501 34.5c-36.667 0 -67.5 -12.5 -92.5 -37.5s-37.5 -61.833 -37.5 -110.5v-285h-87v710h87v-270h7c34 46.667 82.333 70 145 70z" />
    <glyph glyph-name="i" unicode="i" horiz-adv-x="227" 
d="M114 580c-16 0 -29.833 5.66699 -41.5 17s-17.5 25 -17.5 41s5.83301 29.5 17.5 40.5s25.5 16.5 41.5 16.5c15.333 0 28.666 -5.5 39.999 -16.5s17 -24.5 17 -40.5s-5.66699 -29.667 -17 -41s-24.666 -17 -39.999 -17zM70 0v500h87v-500h-87z" />
    <glyph glyph-name="j" unicode="j" horiz-adv-x="227" 
d="M114 580c-16 0 -29.833 5.66699 -41.5 17s-17.5 25 -17.5 41s5.83301 29.5 17.5 40.5s25.5 16.5 41.5 16.5c15.333 0 28.666 -5.5 39.999 -16.5s17 -24.5 17 -40.5s-5.66699 -29.667 -17 -41s-24.666 -17 -39.999 -17zM29 -210c-24 0 -48.332 3.66797 -72.999 11.001v67
c17.333 -4.66699 33.666 -7 48.999 -7c43.333 0 65 21 65 63v576h87v-587c0 -34.667 -9.5 -63.834 -28.5 -87.501s-52.167 -35.5 -99.5 -35.5z" />
    <glyph glyph-name="k" unicode="k" horiz-adv-x="511" 
d="M490 500l-205 -202l205 -298h-98l-167 239l-68 -67v-172h-87v710h87v-425h7l219 215h107z" />
    <glyph glyph-name="l" unicode="l" horiz-adv-x="227" 
d="M70 0v710h87v-710h-87z" />
    <glyph glyph-name="m" unicode="m" horiz-adv-x="829" 
d="M70 0v500.001h79l8 -60h7c32 46.667 77 70 135 70c66 0 111.333 -29.333 136 -88h6c32.667 58.667 84 88 154 88c49.333 0 89 -15 119 -45s45 -73.333 45 -130v-335h-88v318c0 37.333 -9.66699 65.833 -29 85.5s-43.333 29.5 -72 29.5
c-33.333 0 -60.333 -11.833 -81 -35.5s-31 -54.5 -31 -92.5v-305h-88v311c0 39.333 -9.5 69.5 -28.5 90.5s-43.167 31.5 -72.5 31.5s-55.333 -10.833 -78 -32.5s-34 -52.834 -34 -93.501v-307h-87z" />
    <glyph glyph-name="n" unicode="n" horiz-adv-x="561" 
d="M70 0l0.000976562 500h79l8 -60h7c34 46.667 82.333 70 145 70c54.667 0 98.667 -17 132 -51s50 -82.333 50 -145v-314h-87v295c0 46 -10.833 80.5 -32.5 103.5s-49.834 34.5 -84.501 34.5c-36.667 0 -67.5 -12.5 -92.5 -37.5s-37.5 -61.833 -37.5 -110.5v-285h-87z" />
    <glyph glyph-name="o" unicode="o" horiz-adv-x="607" 
d="M303 -10c-72 0 -131.832 24.833 -179.499 74.5s-71.5 111.5 -71.5 185.5c0 75.333 23.667 137.5 71 186.5s107.333 73.5 180 73.5c72 0 132 -24.667 180 -74s72 -111.333 72 -186s-23.833 -136.667 -71.5 -186s-107.834 -74 -180.501 -74zM303.001 67
c48 0 87.5 17.833 118.5 53.5s46.5 78.834 46.5 129.501c0 51.333 -15.5 94.666 -46.5 129.999s-70.5 53 -118.5 53c-48.667 0 -88 -17.667 -118 -53s-45 -78.666 -45 -129.999c0 -50.667 15.167 -93.834 45.5 -129.501s69.5 -53.5 117.5 -53.5z" />
    <glyph glyph-name="p" unicode="p" horiz-adv-x="600" 
d="M317 510c67.333 0 122.499 -24.168 165.499 -72.501s64.5 -111.166 64.5 -188.499c0 -78 -21.5 -140.667 -64.5 -188s-98.167 -71 -165.5 -71c-70.667 0 -124 25.333 -160 76v-266h-87v700h72l8 -71h6c38.667 54 92.334 81 161.001 81zM305.999 66.999
c45.333 0 82.333 16.833 111 50.5s43 77.5 43 131.5c0 54.667 -14.333 99 -43 133s-65.667 51 -111 51c-44.667 0 -80.667 -16.833 -108 -50.5s-41 -78.167 -41 -133.5c0 -54 13.667 -97.833 41 -131.5s63.333 -50.5 108 -50.5z" />
    <glyph glyph-name="q" unicode="q" horiz-adv-x="600" 
d="M458 500l71.999 0.000976562v-700h-87v266c-36 -50.667 -89.333 -76 -160 -76c-67.333 0 -122.5 23.667 -165.5 71s-64.5 110 -64.5 188c0 77.333 21.5 140.166 64.5 188.499s98.167 72.5 165.5 72.5c68.667 0 122.334 -27 161.001 -81h6zM293.999 67.001
c44.667 0 80.667 16.833 108 50.5s41 77.5 41 131.5c0 55.333 -13.667 99.833 -41 133.5s-63.333 50.5 -108 50.5c-45.333 0 -82.333 -17 -111 -51s-43 -78.333 -43 -133c0 -54 14.333 -97.833 43 -131.5s65.667 -50.5 111 -50.5z" />
    <glyph glyph-name="r" unicode="r" horiz-adv-x="356" 
d="M70 0v500.001h79l8 -69h7c14.667 25.333 32.667 44.833 54 58.5s51 20.5 89 20.5h29v-88c-10 1.33301 -25 2 -45 2c-42.667 0 -75.667 -14.833 -99 -44.5s-35 -68.834 -35 -117.501v-262h-87z" />
    <glyph glyph-name="s" unicode="s" horiz-adv-x="477" 
d="M248 -10c-62 0 -109.499 14.6709 -142.499 44.0039s-50.833 68.666 -53.5 117.999h85c6 -62 43 -93 111 -93c26.667 0 48.834 5.83301 66.501 17.5s26.5 29.167 26.5 52.5c0 24.667 -9.16699 43.667 -27.5 57s-43.5 24.666 -75.5 33.999l-34 9
c-18.667 5.33301 -34.334 10.666 -47.001 15.999s-26.667 13.166 -42 23.499s-27 23.833 -35 40.5s-12 36 -12 58c0 43.333 16.5 78 49.5 104s72.833 39 119.5 39c56 0 99.333 -14 130 -42s47 -61.667 49 -101h-85c-2 22 -11.333 39.833 -28 53.5s-38.334 20.5 -65.001 20.5
c-24.667 0 -45.167 -6 -61.5 -18s-24.5 -29.333 -24.5 -52c0 -11.333 2.33301 -21.166 7 -29.499s12.167 -15.5 22.5 -21.5s19.666 -10.667 27.999 -14s20.5 -7.33301 36.5 -12l32 -10c44 -12 79.5 -29.5 106.5 -52.5s40.5 -56.5 40.5 -100.5
c0 -46.667 -16.667 -81.834 -50 -105.501s-75.666 -35.5 -126.999 -35.5z" />
    <glyph glyph-name="t" unicode="t" horiz-adv-x="358" 
d="M254 -10c-47.333 0 -80.5 11.832 -99.5 35.499s-28.5 52.834 -28.5 87.501v316h-106v71h34c29.333 0 50 5.5 62 16.5s18 30.167 18 57.5v62h80v-136h125v-71h-125v-304c0 -42 21 -63 63 -63c16 0 32.667 2.66699 50 8v-69c-26.667 -7.33301 -51 -11 -73 -11z" />
    <glyph glyph-name="u" unicode="u" horiz-adv-x="561" 
d="M491 500l-0.000976562 -500h-79l-8 60h-7c-34 -46.667 -82.333 -70 -145 -70c-54.667 0 -98.667 17 -132 51s-50 82.333 -50 145v314h87v-295c0 -46 10.833 -80.5 32.5 -103.5s49.834 -34.5 84.501 -34.5c37.333 0 68.333 12.5 93 37.5s37 61.833 37 110.5v285h87z" />
    <glyph glyph-name="v" unicode="v" horiz-adv-x="531" 
d="M211 0l-190 500h91l150 -409h7l150 409h91l-190 -500h-109z" />
    <glyph glyph-name="w" unicode="w" horiz-adv-x="720" 
d="M147 0l-126 500h83l93 -399h7l108 363h97l107 -363h7l94 399h83l-128 -500h-102l-106 367h-7l-109 -367h-101z" />
    <glyph glyph-name="x" unicode="x" horiz-adv-x="499" 
d="M21 0l173 259l-159 241h100l112 -172h6l110 172h99l-156 -241l172 -259h-101l-124 191h-6l-126 -191h-100z" />
    <glyph glyph-name="y" unicode="y" horiz-adv-x="531" 
d="M127 -210c-20.667 0 -44.334 3.66699 -71.001 11v67c21.333 -4.66699 39.333 -7 54 -7c51.333 0 87 24.667 107 74l26 65h-30l-192 500h91l154 -409h7l146 409h91l-210 -578c-4 -12 -7.83301 -21.833 -11.5 -29.5s-10.167 -18.667 -19.5 -33s-19.666 -26 -30.999 -35
s-26.833 -17 -46.5 -24s-41.167 -10.5 -64.5 -10.5z" />
    <glyph glyph-name="z" unicode="z" horiz-adv-x="481" 
d="M52 0v44l252 381v5h-236v70h356v-44l-251 -381v-5h254v-70h-375z" />
    <glyph glyph-name="braceleft" unicode="{" horiz-adv-x="281" 
d="M175 413c0 -51.333 -22 -87.333 -66 -108v-6c44 -19.333 66 -55.333 66 -108v-232c0 -42 19 -63 57 -63h23v-65h-38c-78 0 -117 40 -117 120v233c0 54 -24.667 83.333 -74 88v60c49.333 4.66699 74 34 74 88v233c0 80 39 120 117 120h38v-65h-23
c-38 0 -57 -21.333 -57 -64v-231z" />
    <glyph glyph-name="bar" unicode="|" horiz-adv-x="256" 
d="M169 770v-910h-82v910h82z" />
    <glyph glyph-name="braceright" unicode="}" horiz-adv-x="281" 
d="M106 413v231c0 42.667 -18.667 64 -56 64h-24v65h38c78 0 117 -40 117 -120v-233c0 -54 24.667 -83.333 74 -88v-60c-49.333 -4.66699 -74 -34 -74 -88v-233c0 -80 -39 -120 -117 -120h-38v65h24c37.333 0 56 21 56 63v232c0 52.667 22 88.667 66 108v6
c-44 20.667 -66 56.667 -66 108z" />
    <glyph glyph-name="asciitilde" unicode="~" 
d="M531 357c-4 -46.667 -18.332 -85.8311 -42.999 -117.498s-58.667 -47.5 -102 -47.5c-26.667 0 -50.667 5.5 -72 16.5s-37.833 23 -49.5 36s-25.334 25 -41.001 36s-31.834 16.5 -48.501 16.5c-45.333 0 -71.666 -31 -78.999 -93h-72
c4.66699 47.333 19.334 86.666 44.001 117.999s58.667 47 102 47c26.667 0 50.667 -5.5 72 -16.5s37.666 -23 48.999 -36s25 -25 41 -36s32.333 -16.5 49 -16.5c23.333 0 41.5 8.66699 54.5 26s21.167 39.666 24.5 66.999h71z" />
    <glyph glyph-name="uni00A0" unicode="&#xa0;" horiz-adv-x="250" 
 />
    <glyph glyph-name="exclamdown" unicode="&#xa1;" horiz-adv-x="266" 
d="M133 505c16.667 0 31 -5.83301 43 -17.5s18 -25.5 18 -41.5c0 -16.667 -6 -30.834 -18 -42.501s-26.333 -17.5 -43 -17.5c-16 0 -29.833 5.83301 -41.5 17.5s-17.5 25.834 -17.5 42.501c0 16 5.83301 29.833 17.5 41.5s25.5 17.5 41.5 17.5zM180 -200h-92l15 506h61z" />
    <glyph glyph-name="cent" unicode="&#xa2;" horiz-adv-x="533" 
d="M499 240c-9.33301 -46 -30.834 -83.5 -64.501 -112.5s-75.5 -45.833 -125.5 -50.5v-76h-73v79c-58 10 -104 37 -138 81s-51 97 -51 159c0 63.333 17.5 117.5 52.5 162.5s80.5 72.833 136.5 83.5v75h73v-72c48.667 -5.33301 90.167 -22.833 124.5 -52.5
s55.5 -68.834 63.5 -117.501h-84c-5.33301 23.333 -17.166 43.833 -35.499 61.5s-41.166 28.834 -68.499 33.501v-343c53.333 8 88.666 37.667 105.999 89h84zM129.999 320c0 -40 9.33301 -74.8311 28 -104.498s44.667 -49.5 78 -59.5v333
c-32 -10.667 -57.667 -31.334 -77 -62.001s-29 -66.334 -29 -107.001z" />
    <glyph glyph-name="sterling" unicode="&#xa3;" horiz-adv-x="608" 
d="M214 73l324.001 0.00195312v-73h-472v55c38.667 13.333 72 34.333 100 63s42 61.667 42 99c0 18 -3.33301 36 -10 54h-132v66h93c-12 17.333 -20.833 30.666 -26.5 39.999s-11.5 22.666 -17.5 39.999s-9 35 -9 53c0 56.667 21.333 100.834 64 132.501
s95.667 47.5 159 47.5c49.333 0 92 -10.5 128 -31.5s62.333 -47.5 79 -79.5l-62 -48c-33.333 54 -80.333 81 -141 81c-40.667 0 -72.834 -9.83301 -96.501 -29.5s-35.5 -46.167 -35.5 -79.5c0 -12 2.33301 -24.167 7 -36.5s9.16699 -21.833 13.5 -28.5
s11.833 -17.334 22.5 -32.001l21 -29h204v-66h-172c4 -14 6 -29 6 -45c0 -58.667 -29.667 -108 -89 -148v-5z" />
    <glyph glyph-name="currency" unicode="&#xa4;" horiz-adv-x="621" 
d="M528 250c0 -46.667 -13.001 -88.332 -39.001 -124.999l79 -78l-56 -54l-78 78c-36.667 -25.333 -78 -38 -124 -38s-87.333 12.667 -124 38l-80 -78l-54 54l79 79c-25.333 38 -38 79.333 -38 124c0 46 12.667 87.333 38 124l-79 79l54 54l80 -78
c36.667 25.333 78.334 38 125.001 38c46 0 87 -12.667 123 -38l78 78l56 -54l-79 -78c26 -36.667 39 -78.334 39 -125.001zM310.999 113.002c37.333 0 69.166 13.667 95.499 41s39.5 59.333 39.5 96s-13.167 68.667 -39.5 96s-58.166 41 -95.499 41
c-38 0 -70.5 -13.667 -97.5 -41s-40.5 -59.333 -40.5 -96s13.5 -68.667 40.5 -96s59.5 -41 97.5 -41z" />
    <glyph glyph-name="yen" unicode="&#xa5;" horiz-adv-x="591" 
d="M564 640l-171 -242h134v-71h-184v-104h184v-71h-184v-152h-95v152h-184v71h184v104h-184v71h134l-172 242h104l162 -227h7l161 227h104z" />
    <glyph glyph-name="brokenbar" unicode="&#xa6;" horiz-adv-x="256" 
d="M87 770h82v-355h-82v355zM87 -140v355h82v-355h-82z" />
    <glyph glyph-name="section" unicode="&#xa7;" horiz-adv-x="605" 
d="M421 96c69.333 -26 104 -70.334 104 -133.001c0 -54 -21.5 -96.333 -64.5 -127s-97.167 -46 -162.5 -46c-72.667 0 -129.334 18.667 -170.001 56s-60.334 82.333 -59.001 135h85c1.33301 -32 14.666 -59.167 39.999 -81.5s60.666 -33.5 105.999 -33.5
c40.667 0 73.667 8.5 99 25.5s38 40.5 38 70.5c0 14.667 -3.66699 27.834 -11 39.501s-15.5 20.667 -24.5 27s-22 12.166 -39 17.499s-30.667 9 -41 11s-24.833 4.33301 -43.5 7c-66 10 -117.833 30.5 -155.5 61.5s-56.5 71.833 -56.5 122.5
c0 38.667 11.5 70.834 34.5 96.501s50.833 44.167 83.5 55.5v4c-69.333 26 -104 70.667 -104 134c0 54 21.5 96.167 64.5 126.5s97.167 45.5 162.5 45.5c72.667 0 129.334 -18.667 170.001 -56s60.334 -82.333 59.001 -135h-85c-1.33301 32 -14.666 59.167 -39.999 81.5
s-60.666 33.5 -105.999 33.5c-40.667 0 -73.667 -8.5 -99 -25.5s-38 -40.5 -38 -70.5c0 -14.667 3.66699 -27.667 11 -39s15.5 -20.333 24.5 -27s22 -12.5 39 -17.5s30.667 -8.5 41 -10.5s24.833 -4.33301 43.5 -7c66.667 -10.667 118.667 -31.5 156 -62.5
s56 -71.833 56 -122.5c0 -38 -11.5 -69.833 -34.5 -95.5s-50.833 -44.167 -83.5 -55.5v-5zM312 134.999c39.333 0 72.333 10.333 99 31s40 48 40 82c0 34.667 -16 62.834 -48 84.501s-68.667 32.5 -110 32.5c-39.333 0 -72.333 -10.333 -99 -31s-40 -48 -40 -82
c0 -34.667 16 -62.834 48 -84.501s68.667 -32.5 110 -32.5z" />
    <glyph glyph-name="dieresis" unicode="&#xa8;" horiz-adv-x="466" 
d="M142 558c-14.667 0 -27.5 5.33301 -38.5 16s-16.5 23.667 -16.5 39s5.33301 28.333 16 39s23.667 16 39 16s28.333 -5.33301 39 -16s16 -23.667 16 -39s-5.5 -28.333 -16.5 -39s-23.833 -16 -38.5 -16zM325 558c-14.667 0 -27.3301 5.33301 -37.9971 16
s-16 23.667 -16 39s5.16699 28.333 15.5 39s23.166 16 38.499 16s28.166 -5.33301 38.499 -16s15.5 -23.667 15.5 -39s-5.33301 -28.333 -16 -39s-23.334 -16 -38.001 -16z" />
    <glyph glyph-name="copyright" unicode="&#xa9;" horiz-adv-x="852" 
d="M426 -10c-99.333 0 -184.166 35 -254.499 105s-105.5 155 -105.5 255s35.167 185 105.5 255s155.166 105 254.499 105c98.667 0 183.334 -35 254.001 -105s106 -155 106 -255s-35.333 -185 -106 -255s-155.334 -105 -254.001 -105zM425 48
c82.667 0 153.5 29.667 212.5 89s88.5 130.333 88.5 213s-29.5 153.667 -88.5 213s-129.833 89 -212.5 89c-82 0 -152.333 -29.667 -211 -89s-88 -130.333 -88 -213s29.333 -153.667 88 -213s129 -89 211 -89zM576 286c-4 -36.667 -20.166 -65.334 -48.499 -86.001
s-61.5 -31 -99.5 -31c-50.667 0 -90.834 16.333 -120.501 49s-44.5 76.334 -44.5 131.001c0 53.333 15.167 96.666 45.5 129.999s69.166 50 116.499 50c38.667 0 71.167 -10 97.5 -30s42.5 -50 48.5 -90h-69c-10.667 39.333 -36 59 -76 59
c-27.333 0 -49.333 -11.167 -66 -33.5s-25 -51.166 -25 -86.499c0 -36.667 8.33301 -65.5 25 -86.5s39.667 -31.5 69 -31.5c20 0 36.833 5.16699 50.5 15.5s22.834 23.833 27.501 40.5h69z" />
    <glyph glyph-name="guillemotleft" unicode="&#xab;" horiz-adv-x="535" 
d="M157 500h99l-133 -202l133 -202h-99l-131 202zM384 500h99l-133 -202l133 -202h-99l-131 202z" />
    <glyph glyph-name="logicalnot" unicode="&#xac;" horiz-adv-x="555" 
d="M489 145h-76v194h-359v70h435v-264z" />
    <glyph glyph-name="uni00AD" unicode="&#xad;" horiz-adv-x="446" 
d="M40 349h367v-76h-367v76z" />
    <glyph glyph-name="registered" unicode="&#xae;" horiz-adv-x="852" 
d="M426 710c98.667 0 183.334 -35 254.001 -105s106 -155 106 -255s-35.333 -185 -106 -255s-155.334 -105 -254.001 -105c-99.333 0 -184.166 35 -254.499 105s-105.5 155 -105.5 255s35.167 185 105.5 255s155.166 105 254.499 105zM425 48
c82.667 0 153.5 29.667 212.5 89s88.5 130.333 88.5 213s-29.5 153.667 -88.5 213s-129.833 89 -212.5 89c-82 0 -152.333 -29.667 -211 -89s-88 -130.333 -88 -213s29.333 -153.667 88 -213s129 -89 211 -89zM550 420c0 -46.667 -21.667 -78.667 -65 -96l83 -149h-69
l-75 136h-52v-136h-63v350h132c34 0 60.667 -9.5 80 -28.5s29 -44.5 29 -76.5zM372 470v-104h58c17.333 0 31 4.83301 41 14.5s15 22.5 15 38.5s-4.83301 28.5 -14.5 37.5s-23.5 13.5 -41.5 13.5h-58z" />
    <glyph glyph-name="macron" unicode="&#xaf;" horiz-adv-x="476" 
d="M87 645h301v-64h-301v64z" />
    <glyph glyph-name="degree" unicode="&#xb0;" horiz-adv-x="424" 
d="M212 393c-44 0 -81.667 15.333 -113 46s-47 68 -47 112s15.667 81.5 47 112.5s69 46.5 113 46.5c43.333 0 80.666 -15.5 111.999 -46.5s47 -68.5 47 -112.5s-15.667 -81.333 -47 -112s-68.666 -46 -111.999 -46zM212 460c26.667 0 48.5 8.66699 65.5 26s25.5 39 25.5 65
c0 26.667 -8.5 48.5 -25.5 65.5s-38.833 25.5 -65.5 25.5c-26 0 -47.667 -8.5 -65 -25.5s-26 -38.833 -26 -65.5c0 -26 8.66699 -47.667 26 -65s39 -26 65 -26z" />
    <glyph glyph-name="plusminus" unicode="&#xb1;" 
d="M317 384h179v-69h-179v-175h-79v175h-179v69h179v174h79v-174zM59 0v73h437v-73h-437z" />
    <glyph glyph-name="uni00B2" unicode="&#xb2;" horiz-adv-x="340" 
d="M167 471c-35.333 -22.667 -54.3301 -48.666 -56.9971 -77.999h192v-52h-265v23c0 60.667 28.333 109 85 145l61 38c12 7.33301 21.167 13.5 27.5 18.5s12.666 12.5 18.999 22.5s9.5 20.667 9.5 32c0 17.333 -5.83301 31.333 -17.5 42s-26.834 16 -45.501 16
c-22 0 -39.5 -7.16699 -52.5 -21.5s-20.167 -30.5 -21.5 -48.5h-64c2 32 15.167 60.5 39.5 85.5s58.166 37.5 101.499 37.5c37.333 0 67.333 -9.83301 90 -29.5s34 -45.834 34 -78.501c0 -20 -4.83301 -38.167 -14.5 -54.5s-18.167 -27.5 -25.5 -33.5s-17.333 -13 -30 -21z
" />
    <glyph glyph-name="uni00B3" unicode="&#xb3;" horiz-adv-x="357" 
d="M253 538c20.667 -6.66699 37.002 -18.002 49.002 -34.002s18 -35 18 -57c0 -32 -13.5 -58.667 -40.5 -80s-61.833 -32 -104.5 -32c-41.333 0 -73.833 10.167 -97.5 30.5s-37.167 48.5 -40.5 84.5h62c6.66699 -41.333 32 -62 76 -62c23.333 0 42.5 5.66699 57.5 17
s22.5 26.333 22.5 45s-6.83301 33.834 -20.5 45.501s-31.834 17.5 -54.501 17.5h-39v48h36c20 0 36.167 5.33301 48.5 16s18.5 25 18.5 43s-6.33301 32.333 -19 43s-29 16 -49 16c-18.667 0 -34.5 -4.83301 -47.5 -14.5s-21.5 -23.167 -25.5 -40.5h-61
c2.66699 31.333 17.167 56.833 43.5 76.5s57.166 29.5 92.499 29.5c36 0 66.333 -9.83301 91 -29.5s37 -45.5 37 -77.5c0 -35.333 -17.667 -62.666 -53 -81.999v-3z" />
    <glyph glyph-name="acute" unicode="&#xb4;" horiz-adv-x="322" 
d="M157 700h78l-77 -145h-71z" />
    <glyph glyph-name="uni00B5" unicode="&#xb5;" horiz-adv-x="561" 
d="M404 500h87v-500h-79l-8 60h-7c-34 -46.667 -82.333 -70 -145 -70c-38.667 0 -71.334 10.333 -98.001 31v-221h-84v700h87v-295c0 -46 10.833 -80.5 32.5 -103.5s49.834 -34.5 84.501 -34.5c37.333 0 68.333 12.5 93 37.5s37 61.833 37 110.5v285z" />
    <glyph glyph-name="paragraph" unicode="&#xb6;" horiz-adv-x="674" 
d="M52 512c0 55.333 19.668 100.5 59.001 135.5s88.666 52.5 147.999 52.5h375v-78h-91v-622h-83v622h-116v-622h-85v323c-58 0 -107 17.5 -147 52.5s-60 80.5 -60 136.5z" />
    <glyph glyph-name="periodcentered" unicode="&#xb7;" horiz-adv-x="198" 
d="M100 251c-16.667 0 -30.834 5.83301 -42.501 17.5s-17.5 25.5 -17.5 41.5c0 16.667 5.83301 31 17.5 43s25.834 18 42.501 18c16 0 29.833 -6 41.5 -18s17.5 -26.333 17.5 -43c0 -16 -5.83301 -29.833 -17.5 -41.5s-25.5 -17.5 -41.5 -17.5z" />
    <glyph glyph-name="cedilla" unicode="&#xb8;" horiz-adv-x="348" 
d="M105 -149c20 -10.667 37.332 -16 51.999 -16c16 0 28.5 3.83301 37.5 11.5s13.5 17.5 13.5 29.5c0 28 -17.667 42 -53 42c-9.33301 0 -20.666 -2.66699 -33.999 -8l-30 25l52 75h50v-10l-31 -44c25.333 2 48.166 -4.5 68.499 -19.5s30.5 -36.167 30.5 -63.5
c0 -25.333 -9 -45.5 -27 -60.5s-42.667 -22.5 -74 -22.5c-29.333 0 -53.666 7 -72.999 21z" />
    <glyph glyph-name="uni00B9" unicode="&#xb9;" horiz-adv-x="237" 
d="M118 340v266h-81v50h38c33.333 0 50 16.333 50 49v20h56v-385h-63z" />
    <glyph glyph-name="guillemotright" unicode="&#xbb;" horiz-adv-x="535" 
d="M151 96h-99l133 202l-133 202h99l131 -202zM378 96h-99l133 202l-133 202h99l131 -202z" />
    <glyph glyph-name="onequarter" unicode="&#xbc;" horiz-adv-x="844" 
d="M169 315v266h-82v50h38c33.333 0 50 16.333 50 49v20h57v-385h-63zM696 700l-498 -700h-75l498 700h75zM756 134v-48h-71v-86h-59v86h-185v31l180 268h64v-251h71zM513 134h113v169h-5z" />
    <glyph glyph-name="onehalf" unicode="&#xbd;" horiz-adv-x="881" 
d="M169 315v266h-82v50h38c33.333 0 50 16.333 50 49v20h57v-385h-63zM696 700l-498 -700h-74l498 700h74zM656 130c-34.667 -22.667 -53.3311 -48.666 -55.998 -77.999h192v-52h-265v23c0 60 28 108.333 84 145l62 38c12 7.33301 21.167 13.5 27.5 18.5
s12.666 12.5 18.999 22.5s9.5 20.667 9.5 32c0 17.333 -6 31.333 -18 42s-27.333 16 -46 16c-22 0 -39.333 -7.16699 -52 -21.5s-19.667 -30.5 -21 -48.5h-64c1.33301 32 14.166 60.5 38.499 85.5s58.5 37.5 102.5 37.5c37.333 0 67.333 -9.83301 90 -29.5
s34 -45.834 34 -78.501c0 -20 -5 -38.333 -15 -55s-18.333 -27.5 -25 -32.5l-30 -21.5z" />
    <glyph glyph-name="threequarters" unicode="&#xbe;" horiz-adv-x="918" 
d="M303 513c20.667 -6.66699 36.999 -18.002 48.999 -34.002s18 -35 18 -57c0 -32.667 -13.333 -59.5 -40 -80.5s-61.334 -31.5 -104.001 -31.5c-40.667 0 -73.167 10.167 -97.5 30.5s-38.166 48.5 -41.499 84.5h62c6.66699 -41.333 32.334 -62 77.001 -62
c23.333 0 42.5 5.66699 57.5 17s22.5 26.333 22.5 45s-6.83301 33.834 -20.5 45.501s-32.167 17.5 -55.5 17.5h-38v48h35c20 0 36.167 5.33301 48.5 16s18.5 25 18.5 43s-6.33301 32.333 -19 43s-29 16 -49 16c-18 0 -33.667 -4.83301 -47 -14.5s-22 -23.167 -26 -40.5h-60
c2 31.333 16.167 56.833 42.5 76.5s57.5 29.5 93.5 29.5s66.333 -9.83301 91 -29.5s37 -45.5 37 -77.5c0 -35.333 -18 -62.666 -54 -81.999v-3zM770.999 699.998l-498 -700h-75l498 700h75zM829.999 133.998v-48h-71v-86h-59v86h-185v31l180 268h64v-251h71z
M586.999 133.998h113v169h-4z" />
    <glyph glyph-name="questiondown" unicode="&#xbf;" horiz-adv-x="456" 
d="M243 505c16.667 0 31 -5.83301 43 -17.5s18 -25.5 18 -41.5c0 -16.667 -6 -30.834 -18 -42.501s-26.333 -17.5 -43 -17.5c-16 0 -29.667 5.83301 -41 17.5s-17 25.834 -17 42.501c0 16 5.66699 29.833 17 41.5s25 17.5 41 17.5zM286 257
c0 -40.667 -5.66895 -74.667 -17.002 -102s-33.666 -54 -66.999 -80c-31.333 -24.667 -52.666 -44.667 -63.999 -60s-17 -34.666 -17 -57.999c0 -27.333 8.33301 -49.333 25 -66s40.667 -25 72 -25c33.333 0 58.5 10.167 75.5 30.5s26.833 44.5 29.5 72.5h81
c-2 -46.667 -18 -88.167 -48 -124.5s-76 -54.5 -138 -54.5c-56 0 -99.667 14.667 -131 44s-47 69.333 -47 120c0 36 7.66699 65.5 23 88.5s40.333 48.167 75 75.5c24.667 19.333 42 40.166 52 62.499s15 49.833 15 82.5v43h81v-49z" />
    <glyph glyph-name="Agrave" unicode="&#xc0;" horiz-adv-x="652" 
d="M362 755h-70l-77 145h78zM529 0l-64 191h-278l-64 -191h-97l244 700h112l244 -700h-97zM213 269h225l-109 324h-7z" />
    <glyph glyph-name="Aacute" unicode="&#xc1;" horiz-adv-x="652" 
d="M439 900l-77 -145h-71l70 145h78zM529 0l-64 191h-278l-64 -191h-97l244 700h112l244 -700h-97zM213 269h225l-109 324h-7z" />
    <glyph glyph-name="Acircumflex" unicode="&#xc2;" horiz-adv-x="652" 
d="M323 845l-58 -86h-79l101 141h78l102 -141h-79l-59 86h-6zM529 0l-64 191h-278l-64 -191h-97l244 700h112l244 -700h-97zM213 269h225l-109 324h-7z" />
    <glyph glyph-name="Atilde" unicode="&#xc3;" horiz-adv-x="652" 
d="M263 812c-26.667 0 -42 -18.335 -46 -55.002h-63c3.33301 34.667 13.5 63.167 30.5 85.5s40.5 33.5 70.5 33.5c17.333 0 33 -3.33301 47 -10s24.667 -14 32 -22s15.833 -15.333 25.5 -22s19.5 -10 29.5 -10c27.333 0 43 18.333 47 55h62
c-2 -32.667 -11.667 -60.5 -29 -83.5s-41 -34.5 -71 -34.5c-16.667 0 -32 3.33301 -46 10s-24.833 13.834 -32.5 21.501s-16.5 14.834 -26.5 21.501s-20 10 -30 10zM529 -0.00195312l-64 191h-278l-64 -191h-97l244 700h112l244 -700h-97zM213 268.998h225l-109 324h-7z" />
    <glyph glyph-name="Adieresis" unicode="&#xc4;" horiz-adv-x="652" 
d="M212 766c-16.667 0 -31 5.83301 -43 17.5s-18 25.834 -18 42.501s6 30.834 18 42.501s26.333 17.5 43 17.5s30.834 -5.83301 42.501 -17.5s17.5 -25.834 17.5 -42.501s-5.83301 -30.834 -17.5 -42.501s-25.834 -17.5 -42.501 -17.5zM441 766
c-16 0 -29.833 5.83301 -41.5 17.5s-17.5 25.834 -17.5 42.501s5.83301 30.834 17.5 42.501s25.5 17.5 41.5 17.5c16.667 0 31 -5.83301 43 -17.5s18 -25.834 18 -42.501s-6 -30.834 -18 -42.501s-26.333 -17.5 -43 -17.5zM529 0l-64 191h-278l-64 -191h-97l244 700h112
l244 -700h-97zM213 269h225l-109 324h-7z" />
    <glyph glyph-name="Aring" unicode="&#xc5;" horiz-adv-x="652" 
d="M327 741c-26 0 -48.5 9.5 -67.5 28.5s-28.5 41.167 -28.5 66.5c0 26 9.5 48.333 28.5 67s41.5 28 67.5 28s48.5 -9.33301 67.5 -28s28.5 -41 28.5 -67c0 -25.333 -9.5 -47.5 -28.5 -66.5s-41.5 -28.5 -67.5 -28.5zM328 879c-12 0 -22.167 -4.16699 -30.5 -12.5
s-12.5 -18.5 -12.5 -30.5s4.16699 -22.333 12.5 -31s18.5 -13 30.5 -13c11.333 0 21 4.33301 29 13s12 19 12 31c0 11.333 -4.16699 21.333 -12.5 30s-17.833 13 -28.5 13zM529 0l-64 191h-278l-64 -191h-97l244 700h112l244 -700h-97zM213 269h225l-109 324h-7z" />
    <glyph glyph-name="AE" unicode="&#xc6;" horiz-adv-x="1009" 
d="M613 81h348v-81h-436v191h-268l-124 -191h-107l451 700h474v-81h-338v-224h297v-79h-297v-235zM308 269h217v324h-7z" />
    <glyph glyph-name="Ccedilla" unicode="&#xc7;" horiz-adv-x="752" 
d="M700 213c-12.667 -64 -44.334 -115.998 -95.001 -155.998s-112.334 -62 -185.001 -66l-24 -35c24.667 1.33301 47.167 -5.33398 67.5 -20.001s30.5 -35.667 30.5 -63c0 -25.333 -8.83301 -45.5 -26.5 -60.5s-42.167 -22.5 -73.5 -22.5c-29.333 0 -53.666 7 -72.999 21
l18 40c18.667 -10.667 36 -16 52 -16s28.5 3.83301 37.5 11.5s13.5 17.5 13.5 29.5s-4.5 22 -13.5 30s-22.167 12 -39.5 12c-10.667 0 -22 -2.66699 -34 -8l-30 25l39 56c-90 8 -162.167 44.833 -216.5 110.5s-81.5 147.5 -81.5 245.5c0 105.333 30.667 192.166 92 260.499
s141.333 102.5 240 102.5c76 0 140.5 -20.333 193.5 -61s85.5 -96.667 97.5 -168h-96c-12 44.667 -35 80 -69 106s-75.667 39 -125 39c-72 0 -130.167 -26.833 -174.5 -80.5s-66.5 -119.834 -66.5 -198.501c0 -79.333 22.333 -144.666 67 -195.999s102.334 -77 173.001 -77
c51.333 0 95 12.667 131 38s61 59 75 101h96z" />
    <glyph glyph-name="Egrave" unicode="&#xc8;" horiz-adv-x="586" 
d="M275 900l69 -145h-70l-77 145h78zM176 81h363v-81h-452v700h442v-81h-353v-224h311v-79h-311v-235z" />
    <glyph glyph-name="Eacute" unicode="&#xc9;" horiz-adv-x="586" 
d="M343 900h78l-77 -145h-71zM176 81h363v-81h-452v700h442v-81h-353v-224h311v-79h-311v-235z" />
    <glyph glyph-name="Ecircumflex" unicode="&#xca;" horiz-adv-x="586" 
d="M247 759h-79l101 141h78l102 -141h-79l-59 86h-6zM176 81h363v-81h-452v700h442v-81h-353v-224h311v-79h-311v-235z" />
    <glyph glyph-name="Edieresis" unicode="&#xcb;" horiz-adv-x="586" 
d="M194 766c-16.667 0 -31 5.83301 -43 17.5s-18 25.834 -18 42.501s6 30.834 18 42.501s26.333 17.5 43 17.5s30.834 -5.83301 42.501 -17.5s17.5 -25.834 17.5 -42.501s-5.83301 -30.834 -17.5 -42.501s-25.834 -17.5 -42.501 -17.5zM423 766
c-16 0 -29.833 5.83301 -41.5 17.5s-17.5 25.834 -17.5 42.501s5.83301 30.834 17.5 42.501s25.5 17.5 41.5 17.5c16.667 0 31 -5.83301 43 -17.5s18 -25.834 18 -42.501s-6 -30.834 -18 -42.501s-26.333 -17.5 -43 -17.5zM176 81h363v-81h-452v700h442v-81h-353v-224h311
v-79h-311v-235z" />
    <glyph glyph-name="Igrave" unicode="&#xcc;" horiz-adv-x="265" 
d="M99 900l69 -145h-70l-77 145h78zM178 700v-700h-91v700h91z" />
    <glyph glyph-name="Iacute" unicode="&#xcd;" horiz-adv-x="265" 
d="M167 900h78l-77 -145h-71zM178 700v-700h-91v700h91z" />
    <glyph glyph-name="Icircumflex" unicode="&#xce;" horiz-adv-x="265" 
d="M71 759h-79l101 141h78l102 -141h-79l-59 86h-6zM178 700v-700h-91v700h91z" />
    <glyph glyph-name="Idieresis" unicode="&#xcf;" horiz-adv-x="265" 
d="M19 766c-16.667 0 -31 5.83301 -43 17.5s-18 25.834 -18 42.501s6 30.834 18 42.501s26.333 17.5 43 17.5s30.834 -5.83301 42.501 -17.5s17.5 -25.834 17.5 -42.501s-5.83301 -30.834 -17.5 -42.501s-25.834 -17.5 -42.501 -17.5zM248 766
c-16 0 -29.833 5.83301 -41.5 17.5s-17.5 25.834 -17.5 42.501s5.83301 30.834 17.5 42.501s25.5 17.5 41.5 17.5c16.667 0 31 -5.83301 43 -17.5s18 -25.834 18 -42.501s-6 -30.834 -18 -42.501s-26.333 -17.5 -43 -17.5zM178 700v-700h-91v700h91z" />
    <glyph glyph-name="Eth" unicode="&#xd0;" horiz-adv-x="704" 
d="M303 700c108.667 0 191.667 -31.5 249 -94.5s86 -148.167 86 -255.5c0 -106 -28.5 -190.833 -85.5 -254.5s-140.167 -95.5 -249.5 -95.5h-216v315h-116v69h116v316h216zM298 82c85.333 0 147.833 24.5 187.5 73.5s59.5 114.5 59.5 196.5c0 81.333 -19.833 146 -59.5 194
s-102.167 72 -187.5 72h-120v-234h177v-69h-177v-233h120z" />
    <glyph glyph-name="Ntilde" unicode="&#xd1;" horiz-adv-x="738" 
d="M541 867c-2 -32.667 -11.667 -60.502 -29 -83.502s-41 -34.5 -71 -34.5c-16.667 0 -32 3.33301 -46 10s-24.833 13.834 -32.5 21.501s-16.5 14.834 -26.5 21.501s-20 10 -30 10c-26.667 0 -42 -18.333 -46 -55h-63c3.33301 34.667 13.5 63.167 30.5 85.5
s40.5 33.5 70.5 33.5c17.333 0 33 -3.33301 47 -10s24.667 -14 32 -22s15.833 -15.333 25.5 -22s19.5 -10 29.5 -10c27.333 0 43 18.333 47 55h62zM562 699.998h89v-700h-98l-370 546h-7v-546h-89v700h99l369 -546h7v546z" />
    <glyph glyph-name="Ograve" unicode="&#xd2;" horiz-adv-x="823" 
d="M378 900l69 -145h-70l-77 145h78zM412 -10c-98.667 0 -180.999 34.168 -246.999 102.501s-99 154.166 -99 257.499c0 102.667 33 188.334 99 257.001s148.333 103 247 103c98 0 180 -34.333 246 -103s99 -154.334 99 -257.001c0 -102 -32.833 -187.5 -98.5 -256.5
s-147.834 -103.5 -246.501 -103.5zM412.001 74.001c72 0 132.167 26.5 180.5 79.5s72.5 118.5 72.5 196.5s-24.167 143.5 -72.5 196.5s-108.5 79.5 -180.5 79.5s-132.333 -26.5 -181 -79.5s-73 -118.5 -73 -196.5s24.333 -143.5 73 -196.5s109 -79.5 181 -79.5z" />
    <glyph glyph-name="Oacute" unicode="&#xd3;" horiz-adv-x="823" 
d="M446 900h78l-77 -145h-71zM412 -10c-98.667 0 -180.999 34.168 -246.999 102.501s-99 154.166 -99 257.499c0 102.667 33 188.334 99 257.001s148.333 103 247 103c98 0 180 -34.333 246 -103s99 -154.334 99 -257.001c0 -102 -32.833 -187.5 -98.5 -256.5
s-147.834 -103.5 -246.501 -103.5zM412.001 74.001c72 0 132.167 26.5 180.5 79.5s72.5 118.5 72.5 196.5s-24.167 143.5 -72.5 196.5s-108.5 79.5 -180.5 79.5s-132.333 -26.5 -181 -79.5s-73 -118.5 -73 -196.5s24.333 -143.5 73 -196.5s109 -79.5 181 -79.5z" />
    <glyph glyph-name="Ocircumflex" unicode="&#xd4;" horiz-adv-x="823" 
d="M350 759h-79l101 141h78l102 -141h-79l-59 86h-6zM412 -10c-98.667 0 -180.999 34.168 -246.999 102.501s-99 154.166 -99 257.499c0 102.667 33 188.334 99 257.001s148.333 103 247 103c98 0 180 -34.333 246 -103s99 -154.334 99 -257.001
c0 -102 -32.833 -187.5 -98.5 -256.5s-147.834 -103.5 -246.501 -103.5zM412.001 74.001c72 0 132.167 26.5 180.5 79.5s72.5 118.5 72.5 196.5s-24.167 143.5 -72.5 196.5s-108.5 79.5 -180.5 79.5s-132.333 -26.5 -181 -79.5s-73 -118.5 -73 -196.5
s24.333 -143.5 73 -196.5s109 -79.5 181 -79.5z" />
    <glyph glyph-name="Otilde" unicode="&#xd5;" horiz-adv-x="823" 
d="M584 867c-2 -32.667 -11.667 -60.502 -29 -83.502s-41 -34.5 -71 -34.5c-16.667 0 -32 3.33301 -46 10s-24.833 13.834 -32.5 21.501s-16.5 14.834 -26.5 21.501s-20 10 -30 10c-26.667 0 -42 -18.333 -46 -55h-63c3.33301 34.667 13.5 63.167 30.5 85.5
s40.5 33.5 70.5 33.5c17.333 0 33 -3.33301 47 -10s24.667 -14 32 -22s15.833 -15.333 25.5 -22s19.5 -10 29.5 -10c27.333 0 43 18.333 47 55h62zM412 -10.002c-98.667 0 -180.999 34.168 -246.999 102.501s-99 154.166 -99 257.499c0 102.667 33 188.334 99 257.001
s148.333 103 247 103c98 0 180 -34.333 246 -103s99 -154.334 99 -257.001c0 -102 -32.833 -187.5 -98.5 -256.5s-147.834 -103.5 -246.501 -103.5zM412.001 73.999c72 0 132.167 26.5 180.5 79.5s72.5 118.5 72.5 196.5s-24.167 143.5 -72.5 196.5s-108.5 79.5 -180.5 79.5
s-132.333 -26.5 -181 -79.5s-73 -118.5 -73 -196.5s24.333 -143.5 73 -196.5s109 -79.5 181 -79.5z" />
    <glyph glyph-name="Odieresis" unicode="&#xd6;" horiz-adv-x="823" 
d="M298 766c-16.667 0 -31 5.83301 -43 17.5s-18 25.834 -18 42.501s6 30.834 18 42.501s26.333 17.5 43 17.5s30.834 -5.83301 42.501 -17.5s17.5 -25.834 17.5 -42.501s-5.83301 -30.834 -17.5 -42.501s-25.834 -17.5 -42.501 -17.5zM527 766
c-16 0 -29.833 5.83301 -41.5 17.5s-17.5 25.834 -17.5 42.501s5.83301 30.834 17.5 42.501s25.5 17.5 41.5 17.5c16.667 0 31 -5.83301 43 -17.5s18 -25.834 18 -42.501s-6 -30.834 -18 -42.501s-26.333 -17.5 -43 -17.5zM412 -10
c-98.667 0 -180.999 34.168 -246.999 102.501s-99 154.166 -99 257.499c0 102.667 33 188.334 99 257.001s148.333 103 247 103c98 0 180 -34.333 246 -103s99 -154.334 99 -257.001c0 -102 -32.833 -187.5 -98.5 -256.5s-147.834 -103.5 -246.501 -103.5zM412.001 74.001
c72 0 132.167 26.5 180.5 79.5s72.5 118.5 72.5 196.5s-24.167 143.5 -72.5 196.5s-108.5 79.5 -180.5 79.5s-132.333 -26.5 -181 -79.5s-73 -118.5 -73 -196.5s24.333 -143.5 73 -196.5s109 -79.5 181 -79.5z" />
    <glyph glyph-name="multiply" unicode="&#xd7;" 
d="M494 440l-163 -160l163 -160l-53 -53l-163 160l-163 -160l-54 53l163 160l-163 160l52 54l165 -161l164 161z" />
    <glyph glyph-name="Oslash" unicode="&#xd8;" horiz-adv-x="823" 
d="M649 616c72 -70 108 -158.669 108 -266.002c0 -102 -32.833 -187.5 -98.5 -256.5s-147.834 -103.5 -246.501 -103.5c-67.333 0 -128 16.667 -182 50l-62 -86l-58 41l64 89c-72 68.667 -108 157.334 -108 266.001c0 102.667 33 188.334 99 257.001s148.333 103 247 103
c64.667 0 124.334 -16.333 179.001 -49l62 86l60 -42zM155 349.998c0 -78 23.332 -143.001 69.999 -195.001l317 438c-39.333 24 -82.666 36 -129.999 36c-73.333 0 -134.5 -26.667 -183.5 -80s-73.5 -119.666 -73.5 -198.999zM411.999 70.9971
c73.333 0 134.5 26.668 183.5 80.001s73.5 119.666 73.5 198.999c0 76.667 -23.667 142 -71 196l-318 -438c39.333 -24.667 83.333 -37 132 -37z" />
    <glyph glyph-name="Ugrave" unicode="&#xd9;" horiz-adv-x="717" 
d="M325 900l69 -145h-70l-77 145h78zM630 700l-0.000976562 -436c0 -88 -24.667 -155.667 -74 -203s-114.666 -71 -195.999 -71c-82 0 -148 23.667 -198 71s-75 115 -75 203v436h91v-430c0 -63.333 16.833 -111.833 50.5 -145.5s77.5 -50.5 131.5 -50.5
s97.333 16.833 130 50.5s49 82.167 49 145.5v430h91z" />
    <glyph glyph-name="Uacute" unicode="&#xda;" horiz-adv-x="717" 
d="M393 900h78l-77 -145h-71zM630 700l-0.000976562 -436c0 -88 -24.667 -155.667 -74 -203s-114.666 -71 -195.999 -71c-82 0 -148 23.667 -198 71s-75 115 -75 203v436h91v-430c0 -63.333 16.833 -111.833 50.5 -145.5s77.5 -50.5 131.5 -50.5s97.333 16.833 130 50.5
s49 82.167 49 145.5v430h91z" />
    <glyph glyph-name="Ucircumflex" unicode="&#xdb;" horiz-adv-x="717" 
d="M297 759h-79l101 141h78l102 -141h-79l-59 86h-6zM630 700l-0.000976562 -436c0 -88 -24.667 -155.667 -74 -203s-114.666 -71 -195.999 -71c-82 0 -148 23.667 -198 71s-75 115 -75 203v436h91v-430c0 -63.333 16.833 -111.833 50.5 -145.5s77.5 -50.5 131.5 -50.5
s97.333 16.833 130 50.5s49 82.167 49 145.5v430h91z" />
    <glyph glyph-name="Udieresis" unicode="&#xdc;" horiz-adv-x="717" 
d="M245 766c-16.667 0 -31 5.83301 -43 17.5s-18 25.834 -18 42.501s6 30.834 18 42.501s26.333 17.5 43 17.5s30.834 -5.83301 42.501 -17.5s17.5 -25.834 17.5 -42.501s-5.83301 -30.834 -17.5 -42.501s-25.834 -17.5 -42.501 -17.5zM474 766
c-16 0 -29.833 5.83301 -41.5 17.5s-17.5 25.834 -17.5 42.501s5.83301 30.834 17.5 42.501s25.5 17.5 41.5 17.5c16.667 0 31 -5.83301 43 -17.5s18 -25.834 18 -42.501s-6 -30.834 -18 -42.501s-26.333 -17.5 -43 -17.5zM630 700l-0.000976562 -436
c0 -88 -24.667 -155.667 -74 -203s-114.666 -71 -195.999 -71c-82 0 -148 23.667 -198 71s-75 115 -75 203v436h91v-430c0 -63.333 16.833 -111.833 50.5 -145.5s77.5 -50.5 131.5 -50.5s97.333 16.833 130 50.5s49 82.167 49 145.5v430h91z" />
    <glyph glyph-name="Yacute" unicode="&#xdd;" horiz-adv-x="648" 
d="M358 900h78l-77 -145h-71zM512 700h110l-252 -369v-331h-91v331l-253 369h110l185 -270h6z" />
    <glyph glyph-name="Thorn" unicode="&#xde;" horiz-adv-x="617" 
d="M331 561c66.667 0 120 -19.333 160 -58s60 -89.334 60 -152.001c0 -65.333 -20.5 -117.166 -61.5 -155.499s-96.167 -57.5 -165.5 -57.5h-149v-138h-88v700h88v-139h156zM316 219c45.333 0 80.5 11.667 105.5 35s37.5 55.333 37.5 96s-12.5 72.5 -37.5 95.5
s-57.833 34.5 -98.5 34.5h-148v-261h141z" />
    <glyph glyph-name="germandbls" unicode="&#xdf;" horiz-adv-x="553" 
d="M370 370c86.667 -26 129.998 -87 129.998 -183c0 -62.667 -16.667 -111.167 -50 -145.5s-79.666 -51.5 -138.999 -51.5c-30 0 -60.667 5 -92 15v68c27.333 -8 53.666 -12 78.999 -12c36.667 0 65.834 11.167 87.501 33.5s32.5 54.5 32.5 96.5
c0 91.333 -51.667 137 -155 137h-44v71h38c40.667 0 72.834 10.5 96.501 31.5s35.5 50.5 35.5 88.5c0 35.333 -10 63.833 -30 85.5s-48 32.5 -84 32.5c-34.667 0 -63.167 -10.833 -85.5 -32.5s-33.5 -54.167 -33.5 -97.5v-507h-86v504c0 64.667 18 115.167 54 151.5
s86 54.5 150 54.5c60.667 0 109 -16 145 -48s54 -75 54 -129c0 -74 -34.333 -126.667 -103 -158v-5z" />
    <glyph glyph-name="agrave" unicode="&#xe0;" horiz-adv-x="529" 
d="M288 555h-70l-77 145h78zM488 68h13v-68h-40c-49.333 -0 -79 21.333 -89 64c-38.667 -49.333 -93.667 -74 -165 -74c-49.333 0 -89.166 12.167 -119.499 36.5s-45.5 59.833 -45.5 106.5c0 45.333 15.5 80.833 46.5 106.5s72.167 41.167 123.5 46.5l149 14v28
c0 34.667 -9 61.667 -27 81s-43.667 29 -77 29c-60 0 -96 -31.667 -108 -95h-87c5.33301 49.333 25.166 89.5 59.499 120.5s79.5 46.5 135.5 46.5c58 0 104.5 -16 139.5 -48s52.5 -77.333 52.5 -136v-217c0 -27.333 13 -41 39 -41zM361 192v43.999l-121 -12
c-34 -3.33301 -60.833 -12.333 -80.5 -27s-29.5 -35 -29.5 -61s8.33301 -45.167 25 -57.5s38 -18.5 64 -18.5c38 0 71.167 10.833 99.5 32.5s42.5 54.834 42.5 99.501z" />
    <glyph glyph-name="aacute" unicode="&#xe1;" horiz-adv-x="529" 
d="M365 700l-77 -145h-71l70 145h78zM488 68h13v-68h-40c-49.333 -0 -79 21.333 -89 64c-38.667 -49.333 -93.667 -74 -165 -74c-49.333 0 -89.166 12.167 -119.499 36.5s-45.5 59.833 -45.5 106.5c0 45.333 15.5 80.833 46.5 106.5s72.167 41.167 123.5 46.5l149 14v28
c0 34.667 -9 61.667 -27 81s-43.667 29 -77 29c-60 0 -96 -31.667 -108 -95h-87c5.33301 49.333 25.166 89.5 59.499 120.5s79.5 46.5 135.5 46.5c58 0 104.5 -16 139.5 -48s52.5 -77.333 52.5 -136v-217c0 -27.333 13 -41 39 -41zM361 192v43.999l-121 -12
c-34 -3.33301 -60.833 -12.333 -80.5 -27s-29.5 -35 -29.5 -61s8.33301 -45.167 25 -57.5s38 -18.5 64 -18.5c38 0 71.167 10.833 99.5 32.5s42.5 54.834 42.5 99.501z" />
    <glyph glyph-name="acircumflex" unicode="&#xe2;" horiz-adv-x="529" 
d="M249 645l-58 -86h-79l101 141h78l102 -141h-79l-59 86h-6zM488 68h13v-68h-40c-49.333 -0 -79 21.333 -89 64c-38.667 -49.333 -93.667 -74 -165 -74c-49.333 0 -89.166 12.167 -119.499 36.5s-45.5 59.833 -45.5 106.5c0 45.333 15.5 80.833 46.5 106.5
s72.167 41.167 123.5 46.5l149 14v28c0 34.667 -9 61.667 -27 81s-43.667 29 -77 29c-60 0 -96 -31.667 -108 -95h-87c5.33301 49.333 25.166 89.5 59.499 120.5s79.5 46.5 135.5 46.5c58 0 104.5 -16 139.5 -48s52.5 -77.333 52.5 -136v-217c0 -27.333 13 -41 39 -41z
M361 192v43.999l-121 -12c-34 -3.33301 -60.833 -12.333 -80.5 -27s-29.5 -35 -29.5 -61s8.33301 -45.167 25 -57.5s38 -18.5 64 -18.5c38 0 71.167 10.833 99.5 32.5s42.5 54.834 42.5 99.501z" />
    <glyph glyph-name="atilde" unicode="&#xe3;" horiz-adv-x="529" 
d="M189 612c-26.667 0 -42 -18.335 -46 -55.002h-63c3.33301 34.667 13.5 63.167 30.5 85.5s40.5 33.5 70.5 33.5c17.333 0 33 -3.33301 47 -10s24.667 -14 32 -22s15.833 -15.333 25.5 -22s19.5 -10 29.5 -10c27.333 0 43 18.333 47 55h62
c-2 -32.667 -11.667 -60.5 -29 -83.5s-41 -34.5 -71 -34.5c-16.667 0 -32 3.33301 -46 10s-24.833 13.834 -32.5 21.501s-16.5 14.834 -26.5 21.501s-20 10 -30 10zM488 67.998h13v-68h-40c-49.333 0 -79 21.333 -89 64c-38.667 -49.333 -93.667 -74 -165 -74
c-49.333 0 -89.166 12.167 -119.499 36.5s-45.5 59.833 -45.5 106.5c0 45.333 15.5 80.833 46.5 106.5s72.167 41.167 123.5 46.5l149 14v28c0 34.667 -9 61.667 -27 81s-43.667 29 -77 29c-60 0 -96 -31.667 -108 -95h-87c5.33301 49.333 25.166 89.5 59.499 120.5
s79.5 46.5 135.5 46.5c58 0 104.5 -16 139.5 -48s52.5 -77.333 52.5 -136v-217c0 -27.333 13 -41 39 -41zM361 191.998v43.999l-121 -12c-34 -3.33301 -60.833 -12.333 -80.5 -27s-29.5 -35 -29.5 -61s8.33301 -45.167 25 -57.5s38 -18.5 64 -18.5
c38 0 71.167 10.833 99.5 32.5s42.5 54.834 42.5 99.501z" />
    <glyph glyph-name="adieresis" unicode="&#xe4;" horiz-adv-x="529" 
d="M162 558c-14.667 0 -27.5 5.33301 -38.5 16s-16.5 23.667 -16.5 39s5.33301 28.333 16 39s23.667 16 39 16s28.333 -5.33301 39 -16s16 -23.667 16 -39s-5.5 -28.333 -16.5 -39s-23.833 -16 -38.5 -16zM345 558c-14.667 0 -27.332 5.5 -37.999 16.5s-16 23.833 -16 38.5
c0 15.333 5.33301 28.333 16 39s23.334 16 38.001 16c15.333 0 28.166 -5.33301 38.499 -16s15.5 -23.667 15.5 -39s-5.33301 -28.333 -16 -39s-23.334 -16 -38.001 -16zM488.002 68h13v-68h-40c-49.333 -0 -79 21.333 -89 64c-38.667 -49.333 -93.667 -74 -165 -74
c-49.333 0 -89.166 12.167 -119.499 36.5s-45.5 59.833 -45.5 106.5c0 45.333 15.5 80.833 46.5 106.5s72.167 41.167 123.5 46.5l149 14v28c0 34.667 -9 61.667 -27 81s-43.667 29 -77 29c-60 0 -96 -31.667 -108 -95h-87c5.33301 49.333 25.166 89.5 59.499 120.5
s79.5 46.5 135.5 46.5c58 0 104.5 -16 139.5 -48s52.5 -77.333 52.5 -136v-217c0 -27.333 13 -41 39 -41zM361.002 192v43.999l-121 -12c-34 -3.33301 -60.833 -12.333 -80.5 -27s-29.5 -35 -29.5 -61s8.33301 -45.167 25 -57.5s38 -18.5 64 -18.5
c38 0 71.167 10.833 99.5 32.5s42.5 54.834 42.5 99.501z" />
    <glyph glyph-name="aring" unicode="&#xe5;" horiz-adv-x="529" 
d="M253 541c-26 0 -48.5 9.5 -67.5 28.5s-28.5 41.167 -28.5 66.5c0 26 9.5 48.333 28.5 67s41.5 28 67.5 28s48.5 -9.33301 67.5 -28s28.5 -41 28.5 -67c0 -25.333 -9.5 -47.5 -28.5 -66.5s-41.5 -28.5 -67.5 -28.5zM254 679c-12 0 -22.167 -4.16699 -30.5 -12.5
s-12.5 -18.5 -12.5 -30.5s4.16699 -22.333 12.5 -31s18.5 -13 30.5 -13c11.333 0 21 4.33301 29 13s12 19 12 31c0 11.333 -4.16699 21.333 -12.5 30s-17.833 13 -28.5 13zM488 68h13v-68h-40c-49.333 -0 -79 21.333 -89 64c-38.667 -49.333 -93.667 -74 -165 -74
c-49.333 0 -89.166 12.167 -119.499 36.5s-45.5 59.833 -45.5 106.5c0 45.333 15.5 80.833 46.5 106.5s72.167 41.167 123.5 46.5l149 14v28c0 34.667 -9 61.667 -27 81s-43.667 29 -77 29c-60 0 -96 -31.667 -108 -95h-87c5.33301 49.333 25.166 89.5 59.499 120.5
s79.5 46.5 135.5 46.5c58 0 104.5 -16 139.5 -48s52.5 -77.333 52.5 -136v-217c0 -27.333 13 -41 39 -41zM361 192v43.999l-121 -12c-34 -3.33301 -60.833 -12.333 -80.5 -27s-29.5 -35 -29.5 -61s8.33301 -45.167 25 -57.5s38 -18.5 64 -18.5c38 0 71.167 10.833 99.5 32.5
s42.5 54.834 42.5 99.501z" />
    <glyph glyph-name="ae" unicode="&#xe6;" horiz-adv-x="720" 
d="M666 261c0 -14 -0.336914 -25.332 -1.00391 -33.999h-272c2 -112 35 -168 99 -168c22.667 0 42.834 6.66699 60.501 20s28.167 35.333 31.5 66h81c-5.33301 -52.667 -23.833 -91.667 -55.5 -117s-70.5 -38 -116.5 -38c-68.667 0 -116.667 26.667 -144 80
c-26 -53.333 -77.667 -80 -155 -80c-46.667 0 -83.667 11.667 -111 35s-41 57.333 -41 102c0 56 19.833 97.5 59.5 124.5s92.834 40.5 159.501 40.5h44v49c0 65.333 -27.333 98 -82 98c-57.333 0 -87.666 -28.333 -90.999 -85l-84 2
c2.66699 48.667 19.334 86.5 50.001 113.5s71.334 40.5 122.001 40.5c63.333 0 109 -24.333 137 -73c29.333 48.667 74.666 73 135.999 73c50.667 0 92.167 -19.333 124.5 -58s48.5 -102.334 48.5 -191.001zM491.996 441.001c-28.667 0 -51.833 -12.167 -69.5 -36.5
s-27.5 -61.833 -29.5 -112.5h191c0 52.667 -8.5 90.667 -25.5 114s-39.167 35 -66.5 35zM205.997 59.001c26.667 0 49.832 8.16797 69.499 24.501s29.5 42.833 29.5 79.5v64h-39c-94 0 -141 -31 -141 -93c0 -24.667 7.33301 -43.334 22 -56.001s34.334 -19 59.001 -19z" />
    <glyph glyph-name="ccedilla" unicode="&#xe7;" horiz-adv-x="570" 
d="M528 163c-9.33301 -49.333 -32.499 -89.499 -69.499 -120.499s-82.833 -48.167 -137.5 -51.5l-24 -35c24.667 1.33301 47.167 -5.33398 67.5 -20.001s30.5 -35.667 30.5 -63c0 -25.333 -8.83301 -45.5 -26.5 -60.5s-42.167 -22.5 -73.5 -22.5
c-29.333 0 -53.666 7 -72.999 21l18 40c18.667 -10.667 36 -16 52 -16s28.5 3.83301 37.5 11.5s13.5 17.5 13.5 29.5s-4.5 22 -13.5 30s-22.167 12 -39.5 12c-10.667 0 -22 -2.66699 -34 -8l-30 25l40 57c-65.333 8 -117.333 35.5 -156 82.5s-58 104.5 -58 172.5
c0 76 23.333 138.833 70 188.5s106 74.5 178 74.5c57.333 0 107.166 -15.833 149.499 -47.5s67.833 -75.5 76.5 -131.5h-88c-6.66699 29.333 -22.334 53.666 -47.001 72.999s-55 29 -91 29c-46.667 0 -85 -17.667 -115 -53s-45 -79.666 -45 -132.999
c0 -52 14.667 -95 44 -129s68.333 -51 117 -51c72 0 118.333 32 139 96h88z" />
    <glyph glyph-name="egrave" unicode="&#xe8;" horiz-adv-x="568" 
d="M326 555h-70l-77 145h78zM514 260c0 -4.66699 -0.667969 -15.001 -2.00098 -31.001h-373c2.66699 -50 17.834 -90.333 45.501 -121s64.5 -46 110.5 -46c32.667 0 60.5 7.16699 83.5 21.5s38.833 35.166 47.5 62.499h85c-10.667 -49.333 -35.334 -87.666 -74.001 -114.999
s-86 -41 -142 -41c-71.333 0 -129.666 23.333 -174.999 70s-68 108.334 -68 185.001c0 79.333 22.667 143.333 68 192s102.333 73 171 73c64 0 117.167 -21.667 159.5 -65s63.5 -105 63.5 -185zM290.999 437.999c-40.667 0 -74.832 -13.833 -102.499 -41.5
s-43.834 -62.167 -48.501 -103.5h289c-0.666992 43.333 -13.667 78.333 -39 105s-58.333 40 -99 40z" />
    <glyph glyph-name="eacute" unicode="&#xe9;" horiz-adv-x="568" 
d="M403 700l-77 -145h-71l70 145h78zM514 260c0 -4.66699 -0.667969 -15.001 -2.00098 -31.001h-373c2.66699 -50 17.834 -90.333 45.501 -121s64.5 -46 110.5 -46c32.667 0 60.5 7.16699 83.5 21.5s38.833 35.166 47.5 62.499h85
c-10.667 -49.333 -35.334 -87.666 -74.001 -114.999s-86 -41 -142 -41c-71.333 0 -129.666 23.333 -174.999 70s-68 108.334 -68 185.001c0 79.333 22.667 143.333 68 192s102.333 73 171 73c64 0 117.167 -21.667 159.5 -65s63.5 -105 63.5 -185zM290.999 437.999
c-40.667 0 -74.832 -13.833 -102.499 -41.5s-43.834 -62.167 -48.501 -103.5h289c-0.666992 43.333 -13.667 78.333 -39 105s-58.333 40 -99 40z" />
    <glyph glyph-name="ecircumflex" unicode="&#xea;" horiz-adv-x="568" 
d="M287 645l-58 -86h-79l101 141h78l102 -141h-79l-59 86h-6zM514 260c0 -4.66699 -0.667969 -15.001 -2.00098 -31.001h-373c2.66699 -50 17.834 -90.333 45.501 -121s64.5 -46 110.5 -46c32.667 0 60.5 7.16699 83.5 21.5s38.833 35.166 47.5 62.499h85
c-10.667 -49.333 -35.334 -87.666 -74.001 -114.999s-86 -41 -142 -41c-71.333 0 -129.666 23.333 -174.999 70s-68 108.334 -68 185.001c0 79.333 22.667 143.333 68 192s102.333 73 171 73c64 0 117.167 -21.667 159.5 -65s63.5 -105 63.5 -185zM290.999 437.999
c-40.667 0 -74.832 -13.833 -102.499 -41.5s-43.834 -62.167 -48.501 -103.5h289c-0.666992 43.333 -13.667 78.333 -39 105s-58.333 40 -99 40z" />
    <glyph glyph-name="edieresis" unicode="&#xeb;" horiz-adv-x="568" 
d="M200 558c-14.667 0 -27.5 5.33301 -38.5 16s-16.5 23.667 -16.5 39s5.33301 28.333 16 39s23.667 16 39 16s28.333 -5.33301 39 -16s16 -23.667 16 -39s-5.5 -28.333 -16.5 -39s-23.833 -16 -38.5 -16zM383 558c-14.667 0 -27.332 5.5 -37.999 16.5s-16 23.833 -16 38.5
c0 15.333 5.33301 28.333 16 39s23.334 16 38.001 16c15.333 0 28.166 -5.33301 38.499 -16s15.5 -23.667 15.5 -39s-5.33301 -28.333 -16 -39s-23.334 -16 -38.001 -16zM514.002 260c0 -4.66699 -0.667969 -15.001 -2.00098 -31.001h-373
c2.66699 -50 17.834 -90.333 45.501 -121s64.5 -46 110.5 -46c32.667 0 60.5 7.16699 83.5 21.5s38.833 35.166 47.5 62.499h85c-10.667 -49.333 -35.334 -87.666 -74.001 -114.999s-86 -41 -142 -41c-71.333 0 -129.666 23.333 -174.999 70s-68 108.334 -68 185.001
c0 79.333 22.667 143.333 68 192s102.333 73 171 73c64 0 117.167 -21.667 159.5 -65s63.5 -105 63.5 -185zM291.001 437.999c-40.667 0 -74.832 -13.833 -102.499 -41.5s-43.834 -62.167 -48.501 -103.5h289c-0.666992 43.333 -13.667 78.333 -39 105s-58.333 40 -99 40z
" />
    <glyph glyph-name="igrave" unicode="&#xec;" horiz-adv-x="227" 
d="M80 700l69 -145h-70l-77 145h78zM70 0v500h87v-500h-87z" />
    <glyph glyph-name="iacute" unicode="&#xed;" horiz-adv-x="227" 
d="M148 700h78l-77 -145h-71zM70 0v500h87v-500h-87z" />
    <glyph glyph-name="icircumflex" unicode="&#xee;" horiz-adv-x="227" 
d="M52 559h-79l101 141h78l102 -141h-79l-59 86h-6zM70 0v500h87v-500h-87z" />
    <glyph glyph-name="idieresis" unicode="&#xef;" horiz-adv-x="227" 
d="M23 558c-15.333 0 -28.333 5.33301 -39 16s-16 23.667 -16 39s5.33301 28.333 16 39s23.667 16 39 16s28.333 -5.33301 39 -16s16 -23.667 16 -39s-5.33301 -28.333 -16 -39s-23.667 -16 -39 -16zM206 558c-14.667 0 -27.332 5.5 -37.999 16.5s-16 23.833 -16 38.5
c0 15.333 5.33301 28.333 16 39s23.334 16 38.001 16c15.333 0 28.166 -5.33301 38.499 -16s15.5 -23.667 15.5 -39s-5.33301 -28.333 -16 -39s-23.334 -16 -38.001 -16zM70.002 0v500h87v-500h-87z" />
    <glyph glyph-name="eth" unicode="&#xf0;" horiz-adv-x="596" 
d="M408 583c81.333 -96.667 122.001 -203.998 122.001 -321.998c0 -84 -21.667 -150.167 -65 -198.5s-102.333 -72.5 -177 -72.5c-65.333 0 -121 21.667 -167 65s-69 99.333 -69 168s21.333 124.167 64 166.5s97 63.5 163 63.5c32 0 61.333 -6.33301 88 -19
s47 -28.334 61 -47.001h7c-18.667 61.333 -51.334 119 -98.001 173l-158 -50l-16 50l134 43c-36.667 35.333 -75.667 67.666 -117 96.999h102c34.667 -26 63.667 -50.667 87 -74l101 32l17 -50zM290.001 64.002c45.333 0 82.333 15.667 111 47s43 70 43 116
c0 44.667 -15 81.167 -45 109.5s-67.667 42.5 -113 42.5c-46 0 -83 -14.667 -111 -44s-42 -67 -42 -113s15 -83.833 45 -113.5s67.333 -44.5 112 -44.5z" />
    <glyph glyph-name="ntilde" unicode="&#xf1;" horiz-adv-x="561" 
d="M452 667c-2 -32.667 -11.667 -60.502 -29 -83.502s-41 -34.5 -71 -34.5c-16.667 0 -32 3.33301 -46 10s-24.833 13.834 -32.5 21.501s-16.5 14.834 -26.5 21.501s-20 10 -30 10c-26.667 0 -42 -18.333 -46 -55h-63c3.33301 34.667 13.5 63.167 30.5 85.5
s40.5 33.5 70.5 33.5c17.333 0 33 -3.33301 47 -10s24.667 -14 32 -22s15.833 -15.333 25.5 -22s19.5 -10 29.5 -10c27.333 0 43 18.333 47 55h62zM70 -0.00195312l0.000976562 500h79l8 -60h7c34 46.667 82.333 70 145 70c54.667 0 98.667 -17 132 -51s50 -82.333 50 -145
v-314h-87v295c0 46 -10.833 80.5 -32.5 103.5s-49.834 34.5 -84.501 34.5c-36.667 0 -67.5 -12.5 -92.5 -37.5s-37.5 -61.833 -37.5 -110.5v-285h-87z" />
    <glyph glyph-name="ograve" unicode="&#xf2;" horiz-adv-x="607" 
d="M270 700l69 -145h-70l-77 145h78zM303 -10c-72 0 -131.832 24.833 -179.499 74.5s-71.5 111.5 -71.5 185.5c0 75.333 23.667 137.5 71 186.5s107.333 73.5 180 73.5c72 0 132 -24.667 180 -74s72 -111.333 72 -186s-23.833 -136.667 -71.5 -186
s-107.834 -74 -180.501 -74zM303.001 67c48 0 87.5 17.833 118.5 53.5s46.5 78.834 46.5 129.501c0 51.333 -15.5 94.666 -46.5 129.999s-70.5 53 -118.5 53c-48.667 0 -88 -17.667 -118 -53s-45 -78.666 -45 -129.999c0 -50.667 15.167 -93.834 45.5 -129.501
s69.5 -53.5 117.5 -53.5z" />
    <glyph glyph-name="oacute" unicode="&#xf3;" horiz-adv-x="607" 
d="M338 700h78l-77 -145h-71zM303 -10c-72 0 -131.832 24.833 -179.499 74.5s-71.5 111.5 -71.5 185.5c0 75.333 23.667 137.5 71 186.5s107.333 73.5 180 73.5c72 0 132 -24.667 180 -74s72 -111.333 72 -186s-23.833 -136.667 -71.5 -186s-107.834 -74 -180.501 -74z
M303.001 67c48 0 87.5 17.833 118.5 53.5s46.5 78.834 46.5 129.501c0 51.333 -15.5 94.666 -46.5 129.999s-70.5 53 -118.5 53c-48.667 0 -88 -17.667 -118 -53s-45 -78.666 -45 -129.999c0 -50.667 15.167 -93.834 45.5 -129.501s69.5 -53.5 117.5 -53.5z" />
    <glyph glyph-name="ocircumflex" unicode="&#xf4;" horiz-adv-x="607" 
d="M242 559h-79l101 141h78l102 -141h-79l-59 86h-6zM303 -10c-72 0 -131.832 24.833 -179.499 74.5s-71.5 111.5 -71.5 185.5c0 75.333 23.667 137.5 71 186.5s107.333 73.5 180 73.5c72 0 132 -24.667 180 -74s72 -111.333 72 -186s-23.833 -136.667 -71.5 -186
s-107.834 -74 -180.501 -74zM303.001 67c48 0 87.5 17.833 118.5 53.5s46.5 78.834 46.5 129.501c0 51.333 -15.5 94.666 -46.5 129.999s-70.5 53 -118.5 53c-48.667 0 -88 -17.667 -118 -53s-45 -78.666 -45 -129.999c0 -50.667 15.167 -93.834 45.5 -129.501
s69.5 -53.5 117.5 -53.5z" />
    <glyph glyph-name="otilde" unicode="&#xf5;" horiz-adv-x="607" 
d="M476 667c-2 -32.667 -11.667 -60.502 -29 -83.502s-41 -34.5 -71 -34.5c-16.667 0 -32 3.33301 -46 10s-24.833 13.834 -32.5 21.501s-16.5 14.834 -26.5 21.501s-20 10 -30 10c-26.667 0 -42 -18.333 -46 -55h-63c3.33301 34.667 13.5 63.167 30.5 85.5
s40.5 33.5 70.5 33.5c17.333 0 33 -3.33301 47 -10s24.667 -14 32 -22s15.833 -15.333 25.5 -22s19.5 -10 29.5 -10c27.333 0 43 18.333 47 55h62zM303 -10.002c-72 0 -131.832 24.833 -179.499 74.5s-71.5 111.5 -71.5 185.5c0 75.333 23.667 137.5 71 186.5
s107.333 73.5 180 73.5c72 0 132 -24.667 180 -74s72 -111.333 72 -186s-23.833 -136.667 -71.5 -186s-107.834 -74 -180.501 -74zM303.001 66.998c48 0 87.5 17.833 118.5 53.5s46.5 78.834 46.5 129.501c0 51.333 -15.5 94.666 -46.5 129.999s-70.5 53 -118.5 53
c-48.667 0 -88 -17.667 -118 -53s-45 -78.666 -45 -129.999c0 -50.667 15.167 -93.834 45.5 -129.501s69.5 -53.5 117.5 -53.5z" />
    <glyph glyph-name="odieresis" unicode="&#xf6;" horiz-adv-x="607" 
d="M213 558c-15.333 0 -28.333 5.33301 -39 16s-16 23.667 -16 39s5.33301 28.333 16 39s23.667 16 39 16s28.333 -5.33301 39 -16s16 -23.667 16 -39s-5.33301 -28.333 -16 -39s-23.667 -16 -39 -16zM396 558c-14.667 0 -27.332 5.5 -37.999 16.5s-16 23.833 -16 38.5
c0 15.333 5.33301 28.333 16 39s23.334 16 38.001 16c15.333 0 28.166 -5.33301 38.499 -16s15.5 -23.667 15.5 -39s-5.33301 -28.333 -16 -39s-23.334 -16 -38.001 -16zM303.002 -10c-72 0 -131.832 24.833 -179.499 74.5s-71.5 111.5 -71.5 185.5
c0 75.333 23.667 137.5 71 186.5s107.333 73.5 180 73.5c72 0 132 -24.667 180 -74s72 -111.333 72 -186s-23.833 -136.667 -71.5 -186s-107.834 -74 -180.501 -74zM303.003 67c48 0 87.5 17.833 118.5 53.5s46.5 78.834 46.5 129.501c0 51.333 -15.5 94.666 -46.5 129.999
s-70.5 53 -118.5 53c-48.667 0 -88 -17.667 -118 -53s-45 -78.666 -45 -129.999c0 -50.667 15.167 -93.834 45.5 -129.501s69.5 -53.5 117.5 -53.5z" />
    <glyph glyph-name="divide" unicode="&#xf7;" 
d="M278 397c-16 0 -30.001 5.83301 -42.001 17.5s-18 25.5 -18 41.5c0 16.667 5.83301 31 17.5 43s25.834 18 42.501 18c16 0 29.833 -6 41.5 -18s17.5 -26.333 17.5 -43c0 -15.333 -5.83301 -29 -17.5 -41s-25.5 -18 -41.5 -18zM44.999 317h465v-74h-465v74zM277.999 39
c-16.667 0 -30.834 5.83301 -42.501 17.5s-17.5 25.5 -17.5 41.5c0 16.667 5.83301 30.834 17.5 42.501s25.834 17.5 42.501 17.5c16 0 29.833 -5.83301 41.5 -17.5s17.5 -25.834 17.5 -42.501c0 -16 -5.83301 -29.833 -17.5 -41.5s-25.5 -17.5 -41.5 -17.5z" />
    <glyph glyph-name="oslash" unicode="&#xf8;" horiz-adv-x="607" 
d="M483 435c48 -49.333 72.002 -111 72.002 -185c0 -74.667 -23.833 -136.667 -71.5 -186s-107.834 -74 -180.501 -74c-48 0 -91 11.333 -129 34l-52 -69l-52 36l54 73c-48 49.333 -72 111.333 -72 186c0 75.333 23.667 137.5 71 186.5s107.333 73.5 180 73.5
c47.333 0 90.666 -11.667 129.999 -35l52 69l53 -36zM136.002 250c0 -46 12.667 -86.333 38 -121l213 284c-24.667 15.333 -52.667 23 -84 23c-49.333 0 -89.5 -18 -120.5 -54s-46.5 -80 -46.5 -132zM303.002 64c49.333 0 89.667 18 121 54s47 80 47 132
c0 46 -12.333 86 -37 120l-213 -284c24 -14.667 51.333 -22 82 -22z" />
    <glyph glyph-name="ugrave" unicode="&#xf9;" horiz-adv-x="561" 
d="M247 700l69 -145h-70l-77 145h78zM491 500l-0.000976562 -500h-79l-8 60h-7c-34 -46.667 -82.333 -70 -145 -70c-54.667 0 -98.667 17 -132 51s-50 82.333 -50 145v314h87v-295c0 -46 10.833 -80.5 32.5 -103.5s49.834 -34.5 84.501 -34.5c37.333 0 68.333 12.5 93 37.5
s37 61.833 37 110.5v285h87z" />
    <glyph glyph-name="uacute" unicode="&#xfa;" horiz-adv-x="561" 
d="M315 700h78l-77 -145h-71zM491 500l-0.000976562 -500h-79l-8 60h-7c-34 -46.667 -82.333 -70 -145 -70c-54.667 0 -98.667 17 -132 51s-50 82.333 -50 145v314h87v-295c0 -46 10.833 -80.5 32.5 -103.5s49.834 -34.5 84.501 -34.5c37.333 0 68.333 12.5 93 37.5
s37 61.833 37 110.5v285h87z" />
    <glyph glyph-name="ucircumflex" unicode="&#xfb;" horiz-adv-x="561" 
d="M219 559h-79l101 141h78l102 -141h-79l-59 86h-6zM491 500l-0.000976562 -500h-79l-8 60h-7c-34 -46.667 -82.333 -70 -145 -70c-54.667 0 -98.667 17 -132 51s-50 82.333 -50 145v314h87v-295c0 -46 10.833 -80.5 32.5 -103.5s49.834 -34.5 84.501 -34.5
c37.333 0 68.333 12.5 93 37.5s37 61.833 37 110.5v285h87z" />
    <glyph glyph-name="udieresis" unicode="&#xfc;" horiz-adv-x="561" 
d="M190 558c-14.667 0 -27.5 5.33301 -38.5 16s-16.5 23.667 -16.5 39s5.33301 28.333 16 39s23.667 16 39 16s28.333 -5.33301 39 -16s16 -23.667 16 -39s-5.5 -28.333 -16.5 -39s-23.833 -16 -38.5 -16zM373 558c-14.667 0 -27.332 5.5 -37.999 16.5s-16 23.833 -16 38.5
c0 15.333 5.33301 28.333 16 39s23.334 16 38.001 16c15.333 0 28.166 -5.33301 38.499 -16s15.5 -23.667 15.5 -39s-5.33301 -28.333 -16 -39s-23.334 -16 -38.001 -16zM491.002 500l-0.000976562 -500h-79l-8 60h-7c-34 -46.667 -82.333 -70 -145 -70
c-54.667 0 -98.667 17 -132 51s-50 82.333 -50 145v314h87v-295c0 -46 10.833 -80.5 32.5 -103.5s49.834 -34.5 84.501 -34.5c37.333 0 68.333 12.5 93 37.5s37 61.833 37 110.5v285h87z" />
    <glyph glyph-name="yacute" unicode="&#xfd;" horiz-adv-x="531" 
d="M300 700h78l-77 -145h-71zM127 -210c-20.667 0 -44.334 3.66699 -71.001 11v67c21.333 -4.66699 39.333 -7 54 -7c51.333 0 87 24.667 107 74l26 65h-30l-192 500h91l154 -409h7l146 409h91l-210 -578c-4 -12 -7.83301 -21.833 -11.5 -29.5s-10.167 -18.667 -19.5 -33
s-19.666 -26 -30.999 -35s-26.833 -17 -46.5 -24s-41.167 -10.5 -64.5 -10.5z" />
    <glyph glyph-name="thorn" unicode="&#xfe;" horiz-adv-x="600" 
d="M317 510c67.333 0 122.498 -24.168 165.498 -72.501s64.5 -111.166 64.5 -188.499c0 -78 -21.5 -140.667 -64.5 -188s-98.167 -71 -165.5 -71c-69.333 0 -122.666 27 -159.999 81v-271h-87v910h80v-281h6c38.667 54 92.334 81 161.001 81zM305.998 66.999
c45.333 0 82.333 16.833 111 50.5s43 77.5 43 131.5c0 54.667 -14.333 99 -43 133s-65.667 51 -111 51c-44.667 0 -80.667 -16.833 -108 -50.5s-41 -78.167 -41 -133.5c0 -54 13.667 -97.833 41 -131.5s63.333 -50.5 108 -50.5z" />
    <glyph glyph-name="ydieresis" unicode="&#xff;" horiz-adv-x="531" 
d="M175 558c-15.333 0 -28.333 5.33301 -39 16s-16 23.667 -16 39s5.33301 28.333 16 39s23.667 16 39 16s28.333 -5.33301 39 -16s16 -23.667 16 -39s-5.33301 -28.333 -16 -39s-23.667 -16 -39 -16zM358 558c-14.667 0 -27.332 5.5 -37.999 16.5s-16 23.833 -16 38.5
c0 15.333 5.33301 28.333 16 39s23.334 16 38.001 16c15.333 0 28.166 -5.33301 38.499 -16s15.5 -23.667 15.5 -39s-5.33301 -28.333 -16 -39s-23.334 -16 -38.001 -16zM127.002 -210c-20.667 0 -44.334 3.66699 -71.001 11v67c21.333 -4.66699 39.333 -7 54 -7
c51.333 0 87 24.667 107 74l26 65h-30l-192 500h91l154 -409h7l146 409h91l-210 -578c-4 -12 -7.83301 -21.833 -11.5 -29.5s-10.167 -18.667 -19.5 -33s-19.666 -26 -30.999 -35s-26.833 -17 -46.5 -24s-41.167 -10.5 -64.5 -10.5z" />
    <glyph glyph-name="Amacron" unicode="&#x100;" horiz-adv-x="652" 
d="M478 845v-64h-301v64h301zM529 0l-64 191h-278l-64 -191h-97l244 700h112l244 -700h-97zM213 269h225l-109 324h-7z" />
    <glyph glyph-name="amacron" unicode="&#x101;" horiz-adv-x="529" 
d="M404 645v-64h-301v64h301zM488 68h13v-68h-40c-49.333 -0 -79 21.333 -89 64c-38.667 -49.333 -93.667 -74 -165 -74c-49.333 0 -89.166 12.167 -119.499 36.5s-45.5 59.833 -45.5 106.5c0 45.333 15.5 80.833 46.5 106.5s72.167 41.167 123.5 46.5l149 14v28
c0 34.667 -9 61.667 -27 81s-43.667 29 -77 29c-60 0 -96 -31.667 -108 -95h-87c5.33301 49.333 25.166 89.5 59.499 120.5s79.5 46.5 135.5 46.5c58 0 104.5 -16 139.5 -48s52.5 -77.333 52.5 -136v-217c0 -27.333 13 -41 39 -41zM361 192v43.999l-121 -12
c-34 -3.33301 -60.833 -12.333 -80.5 -27s-29.5 -35 -29.5 -61s8.33301 -45.167 25 -57.5s38 -18.5 64 -18.5c38 0 71.167 10.833 99.5 32.5s42.5 54.834 42.5 99.501z" />
    <glyph glyph-name="Abreve" unicode="&#x102;" horiz-adv-x="652" 
d="M326 771c-38.667 0 -70.501 13 -95.501 39s-37.5 56 -37.5 90h70c0 -20.667 5.83301 -37.667 17.5 -51s26.834 -20 45.501 -20s33.5 6.66699 44.5 20s16.5 30.333 16.5 51h70c0 -34 -12.167 -64 -36.5 -90s-55.833 -39 -94.5 -39zM528.999 0l-64 191h-278l-64 -191h-97
l244 700h112l244 -700h-97zM212.999 269h225l-109 324h-7z" />
    <glyph glyph-name="abreve" unicode="&#x103;" horiz-adv-x="529" 
d="M252 571c-38.667 0 -70.501 13 -95.501 39s-37.5 56 -37.5 90h70c0 -20.667 5.83301 -37.667 17.5 -51s26.834 -20 45.501 -20s33.5 6.66699 44.5 20s16.5 30.333 16.5 51h70c0 -34 -12.167 -64 -36.5 -90s-55.833 -39 -94.5 -39zM487.999 68h13v-68h-40
c-49.333 -0 -79 21.333 -89 64c-38.667 -49.333 -93.667 -74 -165 -74c-49.333 0 -89.166 12.167 -119.499 36.5s-45.5 59.833 -45.5 106.5c0 45.333 15.5 80.833 46.5 106.5s72.167 41.167 123.5 46.5l149 14v28c0 34.667 -9 61.667 -27 81s-43.667 29 -77 29
c-60 0 -96 -31.667 -108 -95h-87c5.33301 49.333 25.166 89.5 59.499 120.5s79.5 46.5 135.5 46.5c58 0 104.5 -16 139.5 -48s52.5 -77.333 52.5 -136v-217c0 -27.333 13 -41 39 -41zM360.999 192v43.999l-121 -12c-34 -3.33301 -60.833 -12.333 -80.5 -27
s-29.5 -35 -29.5 -61s8.33301 -45.167 25 -57.5s38 -18.5 64 -18.5c38 0 71.167 10.833 99.5 32.5s42.5 54.834 42.5 99.501z" />
    <glyph glyph-name="Aogonek" unicode="&#x104;" horiz-adv-x="652" 
d="M613 -117c15.333 0 30.333 2 45 6v-55c-12 -4.66699 -29.333 -7 -52 -7c-33.333 0 -60.333 7.5 -81 22.5s-31 37.167 -31 66.5c0 34 20 62 60 84h-25l-64 191h-278l-64 -191h-97l244 700h112l244 -700c-46.667 -16 -70 -40.667 -70 -74c0 -28.667 19 -43 57 -43zM213 269
h225l-109 324h-7z" />
    <glyph glyph-name="aogonek" unicode="&#x105;" horiz-adv-x="529" 
d="M488 -117c14.667 0 29.667 1.99902 45 5.99902v-55c-12 -4.66699 -29.333 -7 -52 -7c-33.333 0 -60.333 7.5 -81 22.5s-31 37.167 -31 66.5c0 36.667 21.333 65.334 64 86.001c-32.667 6 -53 26.667 -61 62c-38.667 -49.333 -93.667 -74 -165 -74
c-49.333 0 -89.166 12.167 -119.499 36.5s-45.5 59.833 -45.5 106.5c0 45.333 15.5 80.833 46.5 106.5s72.167 41.167 123.5 46.5l149 14v28c0 34.667 -9 61.667 -27 81s-43.667 29 -77 29c-60 0 -96 -31.667 -108 -95h-87c5.33301 49.333 25.166 89.5 59.499 120.5
s79.5 46.5 135.5 46.5c58 0 104.5 -16 139.5 -48s52.5 -77.333 52.5 -136v-217c0 -27.333 13 -41 39 -41h13v-68c-46.667 -16 -70 -40.667 -70 -74c0 -28.667 19 -43 57 -43zM361 191.999v43.999l-121 -12c-34 -3.33301 -60.833 -12.333 -80.5 -27s-29.5 -35 -29.5 -61
s8.33301 -45.167 25 -57.5s38 -18.5 64 -18.5c38 0 71.167 10.833 99.5 32.5s42.5 54.834 42.5 99.501z" />
    <glyph glyph-name="Cacute" unicode="&#x106;" horiz-adv-x="752" 
d="M433 900h78l-77 -145h-71zM700 213c-12.667 -67.333 -46.668 -121.333 -102.001 -162s-122 -61 -200 -61c-99.333 0 -179.5 33.333 -240.5 100s-91.5 152.334 -91.5 257.001c0 105.333 30.667 192.166 92 260.499s141.333 102.5 240 102.5c76 0 140.5 -20.333 193.5 -61
s85.5 -96.667 97.5 -168h-96c-12 44.667 -35 80 -69 106s-75.667 39 -125 39c-72 0 -130.167 -26.833 -174.5 -80.5s-66.5 -119.834 -66.5 -198.501c0 -79.333 22.333 -144.666 67 -195.999s102.334 -77 173.001 -77c51.333 0 95 12.667 131 38s61 59 75 101h96z" />
    <glyph glyph-name="cacute" unicode="&#x107;" horiz-adv-x="570" 
d="M333 700h78l-77 -145h-71zM301 -10c-74.667 0 -134.831 24.333 -180.498 73s-68.5 110 -68.5 184c0 76 23.333 138.833 70 188.5s106 74.5 178 74.5c57.333 0 107.166 -15.833 149.499 -47.5s67.833 -75.5 76.5 -131.5h-88
c-6.66699 29.333 -22.334 53.666 -47.001 72.999s-55 29 -91 29c-46.667 0 -85 -17.667 -115 -53s-45 -79.666 -45 -132.999c0 -52 14.667 -95 44 -129s68.333 -51 117 -51c72 0 118.333 32 139 96h88c-9.33301 -52.667 -34.5 -94.667 -75.5 -126s-91.5 -47 -151.5 -47z" />
    <glyph glyph-name="Ccircumflex" unicode="&#x108;" horiz-adv-x="752" 
d="M337 759h-79l101 141h78l102 -141h-79l-59 86h-6zM700 213c-12.667 -67.333 -46.668 -121.333 -102.001 -162s-122 -61 -200 -61c-99.333 0 -179.5 33.333 -240.5 100s-91.5 152.334 -91.5 257.001c0 105.333 30.667 192.166 92 260.499s141.333 102.5 240 102.5
c76 0 140.5 -20.333 193.5 -61s85.5 -96.667 97.5 -168h-96c-12 44.667 -35 80 -69 106s-75.667 39 -125 39c-72 0 -130.167 -26.833 -174.5 -80.5s-66.5 -119.834 -66.5 -198.501c0 -79.333 22.333 -144.666 67 -195.999s102.334 -77 173.001 -77
c51.333 0 95 12.667 131 38s61 59 75 101h96z" />
    <glyph glyph-name="ccircumflex" unicode="&#x109;" horiz-adv-x="570" 
d="M237 559h-79l101 141h78l102 -141h-79l-59 86h-6zM301 -10c-74.667 0 -134.831 24.333 -180.498 73s-68.5 110 -68.5 184c0 76 23.333 138.833 70 188.5s106 74.5 178 74.5c57.333 0 107.166 -15.833 149.499 -47.5s67.833 -75.5 76.5 -131.5h-88
c-6.66699 29.333 -22.334 53.666 -47.001 72.999s-55 29 -91 29c-46.667 0 -85 -17.667 -115 -53s-45 -79.666 -45 -132.999c0 -52 14.667 -95 44 -129s68.333 -51 117 -51c72 0 118.333 32 139 96h88c-9.33301 -52.667 -34.5 -94.667 -75.5 -126s-91.5 -47 -151.5 -47z" />
    <glyph glyph-name="Cdotaccent" unicode="&#x10a;" horiz-adv-x="752" 
d="M399 780c-16 0 -29.833 5.66699 -41.5 17s-17.5 25 -17.5 41s5.83301 29.5 17.5 40.5s25.5 16.5 41.5 16.5c15.333 0 28.666 -5.5 39.999 -16.5s17 -24.5 17 -40.5s-5.66699 -29.667 -17 -41s-24.666 -17 -39.999 -17zM700 213
c-12.667 -67.333 -46.668 -121.333 -102.001 -162s-122 -61 -200 -61c-99.333 0 -179.5 33.333 -240.5 100s-91.5 152.334 -91.5 257.001c0 105.333 30.667 192.166 92 260.499s141.333 102.5 240 102.5c76 0 140.5 -20.333 193.5 -61s85.5 -96.667 97.5 -168h-96
c-12 44.667 -35 80 -69 106s-75.667 39 -125 39c-72 0 -130.167 -26.833 -174.5 -80.5s-66.5 -119.834 -66.5 -198.501c0 -79.333 22.333 -144.666 67 -195.999s102.334 -77 173.001 -77c51.333 0 95 12.667 131 38s61 59 75 101h96z" />
    <glyph glyph-name="cdotaccent" unicode="&#x10b;" horiz-adv-x="570" 
d="M299 580c-16 0 -29.833 5.66699 -41.5 17s-17.5 25 -17.5 41s5.83301 29.5 17.5 40.5s25.5 16.5 41.5 16.5c15.333 0 28.666 -5.5 39.999 -16.5s17 -24.5 17 -40.5s-5.66699 -29.667 -17 -41s-24.666 -17 -39.999 -17zM301 -10c-74.667 0 -134.831 24.333 -180.498 73
s-68.5 110 -68.5 184c0 76 23.333 138.833 70 188.5s106 74.5 178 74.5c57.333 0 107.166 -15.833 149.499 -47.5s67.833 -75.5 76.5 -131.5h-88c-6.66699 29.333 -22.334 53.666 -47.001 72.999s-55 29 -91 29c-46.667 0 -85 -17.667 -115 -53s-45 -79.666 -45 -132.999
c0 -52 14.667 -95 44 -129s68.333 -51 117 -51c72 0 118.333 32 139 96h88c-9.33301 -52.667 -34.5 -94.667 -75.5 -126s-91.5 -47 -151.5 -47z" />
    <glyph glyph-name="Ccaron" unicode="&#x10c;" horiz-adv-x="752" 
d="M459 900h79l-101 -141h-78l-102 141h79l60 -86h5zM700 213c-12.667 -67.333 -46.668 -121.333 -102.001 -162s-122 -61 -200 -61c-99.333 0 -179.5 33.333 -240.5 100s-91.5 152.334 -91.5 257.001c0 105.333 30.667 192.166 92 260.499s141.333 102.5 240 102.5
c76 0 140.5 -20.333 193.5 -61s85.5 -96.667 97.5 -168h-96c-12 44.667 -35 80 -69 106s-75.667 39 -125 39c-72 0 -130.167 -26.833 -174.5 -80.5s-66.5 -119.834 -66.5 -198.501c0 -79.333 22.333 -144.666 67 -195.999s102.334 -77 173.001 -77
c51.333 0 95 12.667 131 38s61 59 75 101h96z" />
    <glyph glyph-name="ccaron" unicode="&#x10d;" horiz-adv-x="570" 
d="M359 700h79l-101 -141h-78l-102 141h79l60 -86h5zM301 -10c-74.667 0 -134.831 24.333 -180.498 73s-68.5 110 -68.5 184c0 76 23.333 138.833 70 188.5s106 74.5 178 74.5c57.333 0 107.166 -15.833 149.499 -47.5s67.833 -75.5 76.5 -131.5h-88
c-6.66699 29.333 -22.334 53.666 -47.001 72.999s-55 29 -91 29c-46.667 0 -85 -17.667 -115 -53s-45 -79.666 -45 -132.999c0 -52 14.667 -95 44 -129s68.333 -51 117 -51c72 0 118.333 32 139 96h88c-9.33301 -52.667 -34.5 -94.667 -75.5 -126s-91.5 -47 -151.5 -47z" />
    <glyph glyph-name="Dcaron" unicode="&#x10e;" horiz-adv-x="704" 
d="M409 900h79l-101 -141h-78l-102 141h79l60 -86h5zM303 700c108.667 0 191.667 -31.5 249 -94.5s86 -148.167 86 -255.5c0 -106 -28.5 -190.833 -85.5 -254.5s-140.167 -95.5 -249.5 -95.5h-216v700h216zM298 82c85.333 0 147.833 24.5 187.5 73.5s59.5 114.5 59.5 196.5
c0 81.333 -19.833 146 -59.5 194s-102.167 72 -187.5 72h-120v-536h120z" />
    <glyph glyph-name="dcaron" unicode="&#x10f;" horiz-adv-x="600" 
d="M443 434l0.000976562 276.001h87v-710h-72l-8 71h-6c-38.667 -54 -92.334 -81 -161.001 -81c-67.333 0 -122.5 24.167 -165.5 72.5s-64.5 111.166 -64.5 188.499c0 78 21.5 140.667 64.5 188s98.167 71 165.5 71c70.667 0 124 -25.333 160 -76zM692.001 708.001
c18.667 0 33.332 -7.16699 43.999 -21.5s16 -32.833 16 -55.5c0 -65.333 -31.667 -118 -95 -158l-24 30c36 29.333 54.333 60 55 92c-14 -1.33301 -26.333 3 -37 13s-16 23.667 -16 41c0 18 5.33301 32.333 16 43s24.334 16 41.001 16zM293.999 67.001
c44.667 0 80.667 16.833 108 50.5s41 78.167 41 133.5c0 54 -13.667 97.833 -41 131.5s-63.333 50.5 -108 50.5c-45.333 0 -82.333 -16.833 -111 -50.5s-43 -77.5 -43 -131.5c0 -54.667 14.333 -99 43 -133s65.667 -51 111 -51z" />
    <glyph glyph-name="Dcroat" unicode="&#x110;" horiz-adv-x="704" 
d="M303 700c108.667 0 191.667 -31.5 249 -94.5s86 -148.167 86 -255.5c0 -106 -28.5 -190.833 -85.5 -254.5s-140.167 -95.5 -249.5 -95.5h-216v315h-116v69h116v316h216zM298 82c85.333 0 147.833 24.5 187.5 73.5s59.5 114.5 59.5 196.5c0 81.333 -19.833 146 -59.5 194
s-102.167 72 -187.5 72h-120v-234h177v-69h-177v-233h120z" />
    <glyph glyph-name="dcroat" unicode="&#x111;" horiz-adv-x="600" 
d="M633 634l0.000976562 -65.999h-103v-568h-72l-8 71h-6c-38.667 -54 -92.334 -81 -161.001 -81c-67.333 0 -122.5 24.167 -165.5 72.5s-64.5 111.166 -64.5 188.499c0 78 21.5 140.667 64.5 188s98.167 71 165.5 71c70.667 0 124 -25.333 160 -76v134h-118v66h118v76h87
v-76h103zM294.001 67.001c44.667 0 80.667 16.833 108 50.5s41 78.167 41 133.5c0 54 -13.667 97.833 -41 131.5s-63.333 50.5 -108 50.5c-45.333 0 -82.333 -16.833 -111 -50.5s-43 -77.5 -43 -131.5c0 -54.667 14.333 -99 43 -133s65.667 -51 111 -51z" />
    <glyph glyph-name="Emacron" unicode="&#x112;" horiz-adv-x="586" 
d="M159 845h301v-64h-301v64zM176 81h363v-81h-452v700h442v-81h-353v-224h311v-79h-311v-235z" />
    <glyph glyph-name="emacron" unicode="&#x113;" horiz-adv-x="568" 
d="M442 645v-64h-301v64h301zM514 260c0 -4.66699 -0.667969 -15.001 -2.00098 -31.001h-373c2.66699 -50 17.834 -90.333 45.501 -121s64.5 -46 110.5 -46c32.667 0 60.5 7.16699 83.5 21.5s38.833 35.166 47.5 62.499h85
c-10.667 -49.333 -35.334 -87.666 -74.001 -114.999s-86 -41 -142 -41c-71.333 0 -129.666 23.333 -174.999 70s-68 108.334 -68 185.001c0 79.333 22.667 143.333 68 192s102.333 73 171 73c64 0 117.167 -21.667 159.5 -65s63.5 -105 63.5 -185zM290.999 437.999
c-40.667 0 -74.832 -13.833 -102.499 -41.5s-43.834 -62.167 -48.501 -103.5h289c-0.666992 43.333 -13.667 78.333 -39 105s-58.333 40 -99 40z" />
    <glyph glyph-name="Ebreve" unicode="&#x114;" horiz-adv-x="586" 
d="M439 900c0 -34 -12.168 -64 -36.501 -90s-55.833 -39 -94.5 -39s-70.5 13 -95.5 39s-37.5 56 -37.5 90h70c0 -20.667 5.83301 -37.667 17.5 -51s26.834 -20 45.501 -20s33.5 6.66699 44.5 20s16.5 30.333 16.5 51h70zM175.999 81h363v-81h-452v700h442v-81h-353v-224h311
v-79h-311v-235z" />
    <glyph glyph-name="ebreve" unicode="&#x115;" horiz-adv-x="568" 
d="M290 571c-38.667 0 -70.501 13 -95.501 39s-37.5 56 -37.5 90h70c0 -20.667 5.83301 -37.667 17.5 -51s26.834 -20 45.501 -20s33.5 6.66699 44.5 20s16.5 30.333 16.5 51h70c0 -34 -12.167 -64 -36.5 -90s-55.833 -39 -94.5 -39zM513.999 260
c0 -4.66699 -0.667969 -15.001 -2.00098 -31.001h-373c2.66699 -50 17.834 -90.333 45.501 -121s64.5 -46 110.5 -46c32.667 0 60.5 7.16699 83.5 21.5s38.833 35.166 47.5 62.499h85c-10.667 -49.333 -35.334 -87.666 -74.001 -114.999s-86 -41 -142 -41
c-71.333 0 -129.666 23.333 -174.999 70s-68 108.334 -68 185.001c0 79.333 22.667 143.333 68 192s102.333 73 171 73c64 0 117.167 -21.667 159.5 -65s63.5 -105 63.5 -185zM290.998 437.999c-40.667 0 -74.832 -13.833 -102.499 -41.5s-43.834 -62.167 -48.501 -103.5
h289c-0.666992 43.333 -13.667 78.333 -39 105s-58.333 40 -99 40z" />
    <glyph glyph-name="Edotaccent" unicode="&#x116;" horiz-adv-x="586" 
d="M309 780c-16 0 -29.833 5.66699 -41.5 17s-17.5 25 -17.5 41s5.83301 29.5 17.5 40.5s25.5 16.5 41.5 16.5c15.333 0 28.666 -5.5 39.999 -16.5s17 -24.5 17 -40.5s-5.66699 -29.667 -17 -41s-24.666 -17 -39.999 -17zM176 81h363v-81h-452v700h442v-81h-353v-224h311
v-79h-311v-235z" />
    <glyph glyph-name="edotaccent" unicode="&#x117;" horiz-adv-x="568" 
d="M291 580c-16 0 -29.833 5.66699 -41.5 17s-17.5 25 -17.5 41s5.83301 29.5 17.5 40.5s25.5 16.5 41.5 16.5c15.333 0 28.666 -5.5 39.999 -16.5s17 -24.5 17 -40.5s-5.66699 -29.667 -17 -41s-24.666 -17 -39.999 -17zM514 260
c0 -4.66699 -0.667969 -15.001 -2.00098 -31.001h-373c2.66699 -50 17.834 -90.333 45.501 -121s64.5 -46 110.5 -46c32.667 0 60.5 7.16699 83.5 21.5s38.833 35.166 47.5 62.499h85c-10.667 -49.333 -35.334 -87.666 -74.001 -114.999s-86 -41 -142 -41
c-71.333 0 -129.666 23.333 -174.999 70s-68 108.334 -68 185.001c0 79.333 22.667 143.333 68 192s102.333 73 171 73c64 0 117.167 -21.667 159.5 -65s63.5 -105 63.5 -185zM290.999 437.999c-40.667 0 -74.832 -13.833 -102.499 -41.5s-43.834 -62.167 -48.501 -103.5
h289c-0.666992 43.333 -13.667 78.333 -39 105s-58.333 40 -99 40z" />
    <glyph glyph-name="Eogonek" unicode="&#x118;" horiz-adv-x="586" 
d="M526 -117c14.667 0 29.667 2 45 6v-55c-12 -4.66699 -29.333 -7 -52 -7c-33.333 0 -60.333 7.5 -81 22.5s-31 37.167 -31 66.5c0 34 20 62 60 84h-380v700h442v-81h-353v-224h311v-79h-311v-235h363v-81c-46.667 -16 -70 -40.667 -70 -74c0 -28.667 19 -43 57 -43z" />
    <glyph glyph-name="eogonek" unicode="&#x119;" horiz-adv-x="568" 
d="M514 260c0 -4.66699 -0.667969 -14.998 -2.00098 -30.998h-373c2.66699 -50 17.834 -90.333 45.501 -121s64.5 -46 110.5 -46c32.667 0 60.5 7.16699 83.5 21.5s38.833 35.166 47.5 62.499h85c-8.66699 -38 -25.667 -69.833 -51 -95.5s-57.333 -43.167 -96 -52.5
c-43.333 -16 -65 -40 -65 -72c0 -28.667 19 -43 57 -43c14.667 0 29.667 2 45 6v-55c-12 -4.66699 -29.333 -7 -52 -7c-33.333 0 -60.333 7.5 -81 22.5s-31 37.167 -31 66.5s14.667 54 44 74c-68 3.33301 -123.167 28.166 -165.5 74.499s-63.5 106.5 -63.5 180.5
c0 79.333 22.667 143.333 68 192s102.333 73 171 73c64 0 117.167 -21.667 159.5 -65s63.5 -105 63.5 -185zM290.999 438.002c-40.667 0 -74.832 -13.833 -102.499 -41.5s-43.834 -62.167 -48.501 -103.5h289c-0.666992 43.333 -13.667 78.333 -39 105s-58.333 40 -99 40z
" />
    <glyph glyph-name="Ecaron" unicode="&#x11a;" horiz-adv-x="586" 
d="M369 900h79l-101 -141h-78l-102 141h79l60 -86h5zM176 81h363v-81h-452v700h442v-81h-353v-224h311v-79h-311v-235z" />
    <glyph glyph-name="ecaron" unicode="&#x11b;" horiz-adv-x="568" 
d="M330 559h-78l-102 141h79l60 -86h5l58 86h79zM514 260c0 -4.66699 -0.667969 -15.001 -2.00098 -31.001h-373c2.66699 -50 17.834 -90.333 45.501 -121s64.5 -46 110.5 -46c32.667 0 60.5 7.16699 83.5 21.5s38.833 35.166 47.5 62.499h85
c-10.667 -49.333 -35.334 -87.666 -74.001 -114.999s-86 -41 -142 -41c-71.333 0 -129.666 23.333 -174.999 70s-68 108.334 -68 185.001c0 79.333 22.667 143.333 68 192s102.333 73 171 73c64 0 117.167 -21.667 159.5 -65s63.5 -105 63.5 -185zM290.999 437.999
c-40.667 0 -74.832 -13.833 -102.499 -41.5s-43.834 -62.167 -48.501 -103.5h289c-0.666992 43.333 -13.667 78.333 -39 105s-58.333 40 -99 40z" />
    <glyph glyph-name="Gcircumflex" unicode="&#x11c;" horiz-adv-x="785" 
d="M335 759h-79l101 141h78l102 -141h-79l-59 86h-6zM400 364l298.001 -0.00195312v-364h-72l-11 81h-7c-54.667 -60.667 -128.334 -91 -221.001 -91c-97.333 0 -175.166 32.667 -233.499 98s-87.5 149.333 -87.5 252c0 106 31.833 194.167 95.5 264.5
s146.167 105.5 247.5 105.5c77.333 0 141.166 -19.333 191.499 -58s81.5 -89 93.5 -151h-98c-12 38 -34.167 68.333 -66.5 91s-72.5 34 -120.5 34c-75.333 0 -136 -26.667 -182 -80s-69 -121.666 -69 -204.999c0 -78.667 21.5 -143.167 64.5 -193.5
s101.167 -75.5 174.5 -75.5c59.333 0 109.333 14.833 150 44.5s61 71.834 61 126.501v48h-208v73z" />
    <glyph glyph-name="gcircumflex" unicode="&#x11d;" horiz-adv-x="536" 
d="M269 645l-58 -86h-79l101 141h78l102 -141h-79l-59 86h-6zM515 496c-22.667 -23.333 -50.666 -43.3311 -83.999 -59.998c20.667 -28.667 31 -61.334 31 -98.001c0 -51.333 -17.667 -92.5 -53 -123.5s-80.333 -46.5 -135 -46.5c-32 0 -62 5.66699 -90 17
c-22 -11.333 -33 -26.333 -33 -45c0 -30.667 24 -46 72 -46h98c55.333 0 98.166 -12.333 128.499 -37s45.5 -59.334 45.5 -104.001c0 -52 -19.833 -92.167 -59.5 -120.5s-92.167 -42.5 -157.5 -42.5c-69.333 0 -123 16 -161 48s-59.667 73 -65 123l84 71
c-20 7.33301 -35.833 19 -47.5 35s-17.5 34.667 -17.5 56c0 39.333 21.333 70.333 64 93c-34.667 31.333 -52 72 -52 122s17.333 91.167 52 123.5s80 48.5 136 48.5c44 0 82 -10.333 114 -31c30.667 15.333 57.667 38.333 81 69zM274.001 235.002
c31.333 0 56.5 9.83301 75.5 29.5s28.5 44.167 28.5 73.5c0 31.333 -9.33301 56.666 -28 75.999s-44 29 -76 29s-57.833 -9.66699 -77.5 -29s-29.5 -44.666 -29.5 -75.999c0 -29.333 10 -53.833 30 -73.5s45.667 -29.5 77 -29.5zM411.001 -50.998
c0 26 -10 44.834 -30 56.501s-43 17.5 -69 17.5h-88l-85 -71c16 -62 62.333 -93 139 -93c37.333 0 68.833 7.66699 94.5 23s38.5 37.666 38.5 66.999z" />
    <glyph glyph-name="Gbreve" unicode="&#x11e;" horiz-adv-x="785" 
d="M527 900c0 -34 -12.168 -64 -36.501 -90s-55.833 -39 -94.5 -39s-70.5 13 -95.5 39s-37.5 56 -37.5 90h70c0 -20.667 5.83301 -37.667 17.5 -51s26.834 -20 45.501 -20s33.5 6.66699 44.5 20s16.5 30.333 16.5 51h70zM399.999 364l298.001 -0.00195312v-364h-72l-11 81
h-7c-54.667 -60.667 -128.334 -91 -221.001 -91c-97.333 0 -175.166 32.667 -233.499 98s-87.5 149.333 -87.5 252c0 106 31.833 194.167 95.5 264.5s146.167 105.5 247.5 105.5c77.333 0 141.166 -19.333 191.499 -58s81.5 -89 93.5 -151h-98
c-12 38 -34.167 68.333 -66.5 91s-72.5 34 -120.5 34c-75.333 0 -136 -26.667 -182 -80s-69 -121.666 -69 -204.999c0 -78.667 21.5 -143.167 64.5 -193.5s101.167 -75.5 174.5 -75.5c59.333 0 109.333 14.833 150 44.5s61 71.834 61 126.501v48h-208v73z" />
    <glyph glyph-name="gbreve" unicode="&#x11f;" horiz-adv-x="536" 
d="M272 571c-38.667 0 -70.501 13 -95.501 39s-37.5 56 -37.5 90h70c0 -20.667 5.83301 -37.667 17.5 -51s26.834 -20 45.501 -20s33.5 6.66699 44.5 20s16.5 30.333 16.5 51h70c0 -34 -12.167 -64 -36.5 -90s-55.833 -39 -94.5 -39zM514.999 496
c-22.667 -23.333 -50.666 -43.3311 -83.999 -59.998c20.667 -28.667 31 -61.334 31 -98.001c0 -51.333 -17.667 -92.5 -53 -123.5s-80.333 -46.5 -135 -46.5c-32 0 -62 5.66699 -90 17c-22 -11.333 -33 -26.333 -33 -45c0 -30.667 24 -46 72 -46h98
c55.333 0 98.166 -12.333 128.499 -37s45.5 -59.334 45.5 -104.001c0 -52 -19.833 -92.167 -59.5 -120.5s-92.167 -42.5 -157.5 -42.5c-69.333 0 -123 16 -161 48s-59.667 73 -65 123l84 71c-20 7.33301 -35.833 19 -47.5 35s-17.5 34.667 -17.5 56
c0 39.333 21.333 70.333 64 93c-34.667 31.333 -52 72 -52 122s17.333 91.167 52 123.5s80 48.5 136 48.5c44 0 82 -10.333 114 -31c30.667 15.333 57.667 38.333 81 69zM274 235.002c31.333 0 56.5 9.83301 75.5 29.5s28.5 44.167 28.5 73.5
c0 31.333 -9.33301 56.666 -28 75.999s-44 29 -76 29s-57.833 -9.66699 -77.5 -29s-29.5 -44.666 -29.5 -75.999c0 -29.333 10 -53.833 30 -73.5s45.667 -29.5 77 -29.5zM411 -50.998c0 26 -10 44.834 -30 56.501s-43 17.5 -69 17.5h-88l-85 -71c16 -62 62.333 -93 139 -93
c37.333 0 68.833 7.66699 94.5 23s38.5 37.666 38.5 66.999z" />
    <glyph glyph-name="Gdotaccent" unicode="&#x120;" horiz-adv-x="785" 
d="M397 780c-16 0 -29.833 5.66699 -41.5 17s-17.5 25 -17.5 41s5.83301 29.5 17.5 40.5s25.5 16.5 41.5 16.5c15.333 0 28.666 -5.5 39.999 -16.5s17 -24.5 17 -40.5s-5.66699 -29.667 -17 -41s-24.666 -17 -39.999 -17zM400 364l298.001 -0.00195312v-364h-72l-11 81h-7
c-54.667 -60.667 -128.334 -91 -221.001 -91c-97.333 0 -175.166 32.667 -233.499 98s-87.5 149.333 -87.5 252c0 106 31.833 194.167 95.5 264.5s146.167 105.5 247.5 105.5c77.333 0 141.166 -19.333 191.499 -58s81.5 -89 93.5 -151h-98c-12 38 -34.167 68.333 -66.5 91
s-72.5 34 -120.5 34c-75.333 0 -136 -26.667 -182 -80s-69 -121.666 -69 -204.999c0 -78.667 21.5 -143.167 64.5 -193.5s101.167 -75.5 174.5 -75.5c59.333 0 109.333 14.833 150 44.5s61 71.834 61 126.501v48h-208v73z" />
    <glyph glyph-name="gdotaccent" unicode="&#x121;" horiz-adv-x="536" 
d="M273 580c-16 0 -29.833 5.66699 -41.5 17s-17.5 25 -17.5 41s5.83301 29.5 17.5 40.5s25.5 16.5 41.5 16.5c15.333 0 28.666 -5.5 39.999 -16.5s17 -24.5 17 -40.5s-5.66699 -29.667 -17 -41s-24.666 -17 -39.999 -17zM515 496
c-22.667 -23.333 -50.666 -43.3311 -83.999 -59.998c20.667 -28.667 31 -61.334 31 -98.001c0 -51.333 -17.667 -92.5 -53 -123.5s-80.333 -46.5 -135 -46.5c-32 0 -62 5.66699 -90 17c-22 -11.333 -33 -26.333 -33 -45c0 -30.667 24 -46 72 -46h98
c55.333 0 98.166 -12.333 128.499 -37s45.5 -59.334 45.5 -104.001c0 -52 -19.833 -92.167 -59.5 -120.5s-92.167 -42.5 -157.5 -42.5c-69.333 0 -123 16 -161 48s-59.667 73 -65 123l84 71c-20 7.33301 -35.833 19 -47.5 35s-17.5 34.667 -17.5 56
c0 39.333 21.333 70.333 64 93c-34.667 31.333 -52 72 -52 122s17.333 91.167 52 123.5s80 48.5 136 48.5c44 0 82 -10.333 114 -31c30.667 15.333 57.667 38.333 81 69zM274.001 235.002c31.333 0 56.5 9.83301 75.5 29.5s28.5 44.167 28.5 73.5
c0 31.333 -9.33301 56.666 -28 75.999s-44 29 -76 29s-57.833 -9.66699 -77.5 -29s-29.5 -44.666 -29.5 -75.999c0 -29.333 10 -53.833 30 -73.5s45.667 -29.5 77 -29.5zM411.001 -50.998c0 26 -10 44.834 -30 56.501s-43 17.5 -69 17.5h-88l-85 -71
c16 -62 62.333 -93 139 -93c37.333 0 68.833 7.66699 94.5 23s38.5 37.666 38.5 66.999z" />
    <glyph glyph-name="uni0122" unicode="&#x122;" horiz-adv-x="785" 
d="M400 364l298.001 -0.00195312v-364h-72l-11 81h-7c-54.667 -60.667 -128.334 -91 -221.001 -91c-97.333 0 -175.166 32.667 -233.499 98s-87.5 149.333 -87.5 252c0 106 31.833 194.167 95.5 264.5s146.167 105.5 247.5 105.5c77.333 0 141.166 -19.333 191.499 -58
s81.5 -89 93.5 -151h-98c-12 38 -34.167 68.333 -66.5 91s-72.5 34 -120.5 34c-75.333 0 -136 -26.667 -182 -80s-69 -121.666 -69 -204.999c0 -78.667 21.5 -143.167 64.5 -193.5s101.167 -75.5 174.5 -75.5c59.333 0 109.333 14.833 150 44.5s61 71.834 61 126.501v48
h-208v73zM394.001 -60.002c20.667 0 36.667 -7.16992 48 -21.5029s17 -32.5 17 -54.5c0 -35.333 -10 -66.166 -30 -92.499s-43.667 -47.166 -71 -62.499l-26 27c38 32 57.333 61.333 58 88c-16.667 -1.33301 -30.5 3.33398 -41.5 14.001s-16.5 24.667 -16.5 42
c0 18 5.83301 32.5 17.5 43.5s26.5 16.5 44.5 16.5z" />
    <glyph glyph-name="uni0123" unicode="&#x123;" horiz-adv-x="536" 
d="M274 560c-20.667 0 -36.667 7.16992 -48 21.5029s-17 32.5 -17 54.5c0 35.333 10 66.166 30 92.499s43.667 47.166 71 62.499l26 -27c-38 -32 -57.333 -61.333 -58 -88c16.667 1.33301 30.5 -3.33398 41.5 -14.001s16.5 -24.667 16.5 -42
c0 -18 -5.83301 -32.5 -17.5 -43.5s-26.5 -16.5 -44.5 -16.5zM515 496.003c-22.667 -23.333 -50.666 -43.3311 -83.999 -59.998c20.667 -28.667 31 -61.334 31 -98.001c0 -51.333 -17.667 -92.5 -53 -123.5s-80.333 -46.5 -135 -46.5c-32 0 -62 5.66699 -90 17
c-22 -11.333 -33 -26.333 -33 -45c0 -30.667 24 -46 72 -46h98c55.333 0 98.166 -12.333 128.499 -37s45.5 -59.334 45.5 -104.001c0 -52 -19.833 -92.167 -59.5 -120.5s-92.167 -42.5 -157.5 -42.5c-69.333 0 -123 16 -161 48s-59.667 73 -65 123l84 71
c-20 7.33301 -35.833 19 -47.5 35s-17.5 34.667 -17.5 56c0 39.333 21.333 70.333 64 93c-34.667 31.333 -52 72 -52 122s17.333 91.167 52 123.5s80 48.5 136 48.5c44 0 82 -10.333 114 -31c30.667 15.333 57.667 38.333 81 69zM274.001 235.005
c31.333 0 56.5 9.83301 75.5 29.5s28.5 44.167 28.5 73.5c0 31.333 -9.33301 56.666 -28 75.999s-44 29 -76 29s-57.833 -9.66699 -77.5 -29s-29.5 -44.666 -29.5 -75.999c0 -29.333 10 -53.833 30 -73.5s45.667 -29.5 77 -29.5zM411.001 -50.9951
c0 26 -10 44.834 -30 56.501s-43 17.5 -69 17.5h-88l-85 -71c16 -62 62.333 -93 139 -93c37.333 0 68.833 7.66699 94.5 23s38.5 37.666 38.5 66.999z" />
    <glyph glyph-name="Hcircumflex" unicode="&#x124;" horiz-adv-x="697" 
d="M285 759h-79l101 141h78l102 -141h-79l-59 86h-6zM520 700h90v-700h-90v313h-342v-313h-91v700h91v-305h342v305z" />
    <glyph glyph-name="hcircumflex" unicode="&#x125;" horiz-adv-x="561" 
d="M53 759h-79l101 141h78l102 -141h-79l-59 86h-6zM309 510c54.667 0 98.668 -17 132.001 -51s50 -82.333 50 -145v-314h-87v295c0 46 -10.833 80.5 -32.5 103.5s-49.834 34.5 -84.501 34.5c-36.667 0 -67.5 -12.5 -92.5 -37.5s-37.5 -61.833 -37.5 -110.5v-285h-87v710h87
v-270h7c34 46.667 82.333 70 145 70z" />
    <glyph glyph-name="Hbar" unicode="&#x126;" horiz-adv-x="697" 
d="M520 700h90v-700h-90v313h-342v-313h-91v700h91v-119h342v119zM178 395h342v116h-342v-116z" />
    <glyph glyph-name="hbar" unicode="&#x127;" horiz-adv-x="561" 
d="M309 510c54.667 0 98.668 -17 132.001 -51s50 -82.333 50 -145v-314h-87v295c0 46 -10.833 80.5 -32.5 103.5s-49.834 34.5 -84.501 34.5c-36.667 0 -67.5 -12.5 -92.5 -37.5s-37.5 -61.833 -37.5 -110.5v-285h-87v567h-101v66h101v77h87v-77h120v-66h-120v-127h7
c34 46.667 82.333 70 145 70z" />
    <glyph glyph-name="Itilde" unicode="&#x128;" horiz-adv-x="265" 
d="M305 867c-2 -32.667 -11.667 -60.502 -29 -83.502s-41 -34.5 -71 -34.5c-16.667 0 -32 3.33301 -46 10s-24.833 13.834 -32.5 21.501s-16.5 14.834 -26.5 21.501s-20 10 -30 10c-26.667 0 -42 -18.333 -46 -55h-63c3.33301 34.667 13.5 63.167 30.5 85.5
s40.5 33.5 70.5 33.5c17.333 0 33 -3.33301 47 -10s24.667 -14 32 -22s15.833 -15.333 25.5 -22s19.5 -10 29.5 -10c27.333 0 43 18.333 47 55h62zM178 699.998v-700h-91v700h91z" />
    <glyph glyph-name="itilde" unicode="&#x129;" horiz-adv-x="227" 
d="M285 667c-2 -32.667 -11.667 -60.502 -29 -83.502s-41 -34.5 -71 -34.5c-16.667 0 -32 3.33301 -46 10s-24.833 13.834 -32.5 21.501s-16.5 14.834 -26.5 21.501s-20 10 -30 10c-26.667 0 -42 -18.333 -46 -55h-63c3.33301 34.667 13.5 63.167 30.5 85.5
s40.5 33.5 70.5 33.5c17.333 0 33 -3.33301 47 -10s24.667 -14 32 -22s15.833 -15.333 25.5 -22s19.5 -10 29.5 -10c27.333 0 43 18.333 47 55h62zM70 -0.00195312v500h87v-500h-87z" />
    <glyph glyph-name="Imacron" unicode="&#x12a;" horiz-adv-x="265" 
d="M-17 845h301v-64h-301v64zM178 700v-700h-91v700h91z" />
    <glyph glyph-name="imacron" unicode="&#x12b;" horiz-adv-x="227" 
d="M-36 645h301v-64h-301v64zM70 0v500h87v-500h-87z" />
    <glyph glyph-name="Ibreve" unicode="&#x12c;" horiz-adv-x="265" 
d="M263 900c0 -34 -12.168 -64 -36.501 -90s-55.833 -39 -94.5 -39s-70.5 13 -95.5 39s-37.5 56 -37.5 90h70c0 -20.667 5.83301 -37.667 17.5 -51s26.834 -20 45.501 -20s33.5 6.66699 44.5 20s16.5 30.333 16.5 51h70zM177.999 700v-700h-91v700h91z" />
    <glyph glyph-name="ibreve" unicode="&#x12d;" horiz-adv-x="227" 
d="M244 700c0 -34 -12.168 -64 -36.501 -90s-55.833 -39 -94.5 -39s-70.5 13 -95.5 39s-37.5 56 -37.5 90h70c0 -20.667 5.83301 -37.667 17.5 -51s26.834 -20 45.501 -20s33.5 6.66699 44.5 20s16.5 30.333 16.5 51h70zM69.999 0v500h87v-500h-87z" />
    <glyph glyph-name="Iogonek" unicode="&#x12e;" horiz-adv-x="265" 
d="M165 -117c15.333 0 30.333 2 45 6v-55c-12 -4.66699 -29.333 -7 -52 -7c-33.333 0 -60.333 7.5 -81 22.5s-31 37.167 -31 66.5c0 34 20 62 60 84h-19v700h91v-700c-46.667 -16 -70 -40.667 -70 -74c0 -28.667 19 -43 57 -43z" />
    <glyph glyph-name="iogonek" unicode="&#x12f;" horiz-adv-x="227" 
d="M114 580c-16 0 -29.833 5.66699 -41.5 17s-17.5 25 -17.5 41s5.83301 29.5 17.5 40.5s25.5 16.5 41.5 16.5c15.333 0 28.666 -5.5 39.999 -16.5s17 -24.5 17 -40.5s-5.66699 -29.667 -17 -41s-24.666 -17 -39.999 -17zM144 -117c14.667 0 29.667 2 45 6v-55
c-12 -4.66699 -29.333 -7 -52 -7c-33.333 0 -60.333 7.5 -81 22.5s-31 37.167 -31 66.5c0 34 20 62 60 84h-15v500h87v-500c-46.667 -16 -70 -40.667 -70 -74c0 -28.667 19 -43 57 -43z" />
    <glyph glyph-name="Idotaccent" unicode="&#x130;" horiz-adv-x="265" 
d="M133 780c-16 0 -29.833 5.66699 -41.5 17s-17.5 25 -17.5 41s5.83301 29.5 17.5 40.5s25.5 16.5 41.5 16.5c15.333 0 28.666 -5.5 39.999 -16.5s17 -24.5 17 -40.5s-5.66699 -29.667 -17 -41s-24.666 -17 -39.999 -17zM178 700v-700h-91v700h91z" />
    <glyph glyph-name="dotlessi" unicode="&#x131;" horiz-adv-x="227" 
d="M70 0v500h87v-500h-87z" />
    <glyph glyph-name="IJ" unicode="&#x132;" horiz-adv-x="792" 
d="M178 700v-700h-91v700h91zM388 201c2 -36.667 12.832 -67 32.499 -91s46.834 -36 81.501 -36s62 11.5 82 34.5s30 57.833 30 104.5v487h91v-492c0 -70.667 -18.5 -124.667 -55.5 -162s-86.167 -56 -147.5 -56c-64.667 0 -115 19.167 -151 57.5s-55 89.5 -57 153.5h94z
" />
    <glyph glyph-name="ij" unicode="&#x133;" horiz-adv-x="463" 
d="M114 580c-16 0 -29.833 5.66699 -41.5 17s-17.5 25 -17.5 41s5.83301 29.5 17.5 40.5s25.5 16.5 41.5 16.5c15.333 0 28.666 -5.5 39.999 -16.5s17 -24.5 17 -40.5s-5.66699 -29.667 -17 -41s-24.666 -17 -39.999 -17zM336 580c-15.333 0 -28.833 5.66699 -40.5 17
s-17.5 25 -17.5 41s5.66699 29.5 17 40.5s25 16.5 41 16.5s29.667 -5.5 41 -16.5s17 -24.5 17 -40.5s-5.66699 -29.667 -17 -41s-25 -17 -41 -17zM70 0v500h87v-500h-87zM251 -210c-22 0 -46.335 3.66797 -73.002 11.001v67c18.667 -4.66699 35.334 -7 50.001 -7
c42.667 0 64 21 64 63v576h88v-587c0 -34.667 -9.66699 -63.834 -29 -87.501s-52.666 -35.5 -99.999 -35.5z" />
    <glyph glyph-name="Jcircumflex" unicode="&#x134;" horiz-adv-x="538" 
d="M344 759h-79l101 141h78l102 -141h-79l-59 86h-6zM134 201c2 -36.667 12.832 -67 32.499 -91s46.834 -36 81.501 -36s62 11.5 82 34.5s30 57.833 30 104.5v487h91v-492c0 -70.667 -18.5 -124.667 -55.5 -162s-86.167 -56 -147.5 -56c-64.667 0 -115 19.167 -151 57.5
s-55 89.5 -57 153.5h94z" />
    <glyph glyph-name="jcircumflex" unicode="&#x135;" horiz-adv-x="227" 
d="M52 559h-79l101 141h78l102 -141h-79l-59 86h-6zM29 -210c-24 0 -48.332 3.66797 -72.999 11.001v67c17.333 -4.66699 33.666 -7 48.999 -7c43.333 0 65 21 65 63v576h87v-587c0 -34.667 -9.5 -63.834 -28.5 -87.501s-52.167 -35.5 -99.5 -35.5z" />
    <glyph glyph-name="uni0136" unicode="&#x136;" horiz-adv-x="623" 
d="M491 0l-259 318h-54v-318h-91v700h91v-300h54l233 300h105l-261 -336v-5l287 -359h-105zM332 -60c20.667 0 36.667 -7.16992 48 -21.5029s17 -32.5 17 -54.5c0 -35.333 -10 -66.166 -30 -92.499s-43.667 -47.166 -71 -62.499l-26 27c38 32 57.333 61.333 58 88
c-16.667 -1.33301 -30.5 3.33398 -41.5 14.001s-16.5 24.667 -16.5 42c0 18 5.83301 32.5 17.5 43.5s26.5 16.5 44.5 16.5z" />
    <glyph glyph-name="uni0137" unicode="&#x137;" horiz-adv-x="511" 
d="M490 500l-205 -202l205 -298h-98l-167 239l-68 -67v-172h-87v710h87v-425h7l219 215h107zM272 -60c20.667 0 36.667 -7.16992 48 -21.5029s17 -32.5 17 -54.5c0 -35.333 -10 -66.166 -30 -92.499s-43.667 -47.166 -71 -62.499l-26 27c38 32 57.333 61.333 58 88
c-16.667 -1.33301 -30.5 3.33398 -41.5 14.001s-16.5 24.667 -16.5 42c0 18 5.83301 32.5 17.5 43.5s26.5 16.5 44.5 16.5z" />
    <glyph glyph-name="Lacute" unicode="&#x139;" horiz-adv-x="576" 
d="M163 900h78l-77 -145h-71zM176 82h360v-82h-449v700h89v-618z" />
    <glyph glyph-name="lacute" unicode="&#x13a;" horiz-adv-x="227" 
d="M148 900h78l-77 -145h-71zM70 0v710h87v-710h-87z" />
    <glyph glyph-name="uni013B" unicode="&#x13b;" horiz-adv-x="576" 
d="M176 82h360v-82h-449v700h89v-618zM307 -60c20.667 0 36.667 -7.16992 48 -21.5029s17 -32.5 17 -54.5c0 -35.333 -10 -66.166 -30 -92.499s-43.667 -47.166 -71 -62.499l-26 27c38 32 57.333 61.333 58 88c-16.667 -1.33301 -30.5 3.33398 -41.5 14.001
s-16.5 24.667 -16.5 42c0 18 5.83301 32.5 17.5 43.5s26.5 16.5 44.5 16.5z" />
    <glyph glyph-name="uni013C" unicode="&#x13c;" horiz-adv-x="227" 
d="M70 0v710h87v-710h-87zM112 -60c20.667 0 36.667 -7.16992 48 -21.5029s17 -32.5 17 -54.5c0 -35.333 -10 -66.166 -30 -92.499s-43.667 -47.166 -71 -62.499l-26 27c38 32 57.333 61.333 58 88c-16.667 -1.33301 -30.5 3.33398 -41.5 14.001s-16.5 24.667 -16.5 42
c0 18 5.83301 32.5 17.5 43.5s26.5 16.5 44.5 16.5z" />
    <glyph glyph-name="Lcaron" unicode="&#x13d;" horiz-adv-x="576" 
d="M338 708c18.667 0 33.332 -7.16699 43.999 -21.5s16 -32.833 16 -55.5c0 -65.333 -31.667 -118 -95 -158l-24 30c36 29.333 54.333 60 55 92c-14 -1.33301 -26.333 3 -37 13s-16 23.667 -16 41c0 18 5.33301 32.333 16 43s24.334 16 41.001 16zM175.998 82h360v-82h-449
v700h89v-618z" />
    <glyph glyph-name="lcaron" unicode="&#x13e;" horiz-adv-x="227" 
d="M70 0v710h87v-710h-87zM319 708c18.667 0 33.332 -7.16699 43.999 -21.5s16 -32.833 16 -55.5c0 -65.333 -31.667 -118 -95 -158l-24 30c36 29.333 54.333 60 55 92c-14 -1.33301 -26.333 3 -37 13s-16 23.667 -16 41c0 18 5.33301 32.333 16 43s24.334 16 41.001 16z
" />
    <glyph glyph-name="Ldot" unicode="&#x13f;" horiz-adv-x="576" 
d="M176 82h360v-82h-449v700h89v-618zM358 349c-16 0 -29.833 5.66699 -41.5 17s-17.5 25 -17.5 41s5.83301 29.5 17.5 40.5s25.5 16.5 41.5 16.5c15.333 0 28.666 -5.5 39.999 -16.5s17 -24.5 17 -40.5s-5.66699 -29.667 -17 -41s-24.666 -17 -39.999 -17z" />
    <glyph glyph-name="ldot" unicode="&#x140;" horiz-adv-x="227" 
d="M114 780c-16 0 -29.833 5.66699 -41.5 17s-17.5 25 -17.5 41s5.83301 29.5 17.5 40.5s25.5 16.5 41.5 16.5c15.333 0 28.666 -5.5 39.999 -16.5s17 -24.5 17 -40.5s-5.66699 -29.667 -17 -41s-24.666 -17 -39.999 -17zM70 0v710h87v-710h-87z" />
    <glyph glyph-name="Lslash" unicode="&#x141;" horiz-adv-x="576" 
d="M176 82h360v-82h-449v268l-116 -58v82l116 59v349h89v-304l179 90v-83l-179 -90v-231z" />
    <glyph glyph-name="lslash" unicode="&#x142;" horiz-adv-x="227" 
d="M251 470v-82l-94 -51v-337h-87v289l-92 -50v81l92 51v339h87v-292z" />
    <glyph glyph-name="Nacute" unicode="&#x143;" horiz-adv-x="738" 
d="M404 900h78l-77 -145h-71zM562 700h89v-700h-98l-370 546h-7v-546h-89v700h99l369 -546h7v546z" />
    <glyph glyph-name="nacute" unicode="&#x144;" horiz-adv-x="561" 
d="M314 700h78l-77 -145h-71zM70 0l0.000976562 500h79l8 -60h7c34 46.667 82.333 70 145 70c54.667 0 98.667 -17 132 -51s50 -82.333 50 -145v-314h-87v295c0 46 -10.833 80.5 -32.5 103.5s-49.834 34.5 -84.501 34.5c-36.667 0 -67.5 -12.5 -92.5 -37.5
s-37.5 -61.833 -37.5 -110.5v-285h-87z" />
    <glyph glyph-name="uni0145" unicode="&#x145;" horiz-adv-x="738" 
d="M562 700h89v-700h-98l-370 546h-7v-546h-89v700h99l369 -546h7v546zM367 -60c20.667 0 36.667 -7.16992 48 -21.5029s17 -32.5 17 -54.5c0 -35.333 -10 -66.166 -30 -92.499s-43.667 -47.166 -71 -62.499l-26 27c38 32 57.333 61.333 58 88
c-16.667 -1.33301 -30.5 3.33398 -41.5 14.001s-16.5 24.667 -16.5 42c0 18 5.83301 32.5 17.5 43.5s26.5 16.5 44.5 16.5z" />
    <glyph glyph-name="uni0146" unicode="&#x146;" horiz-adv-x="561" 
d="M70 0l0.000976562 500h79l8 -60h7c34 46.667 82.333 70 145 70c54.667 0 98.667 -17 132 -51s50 -82.333 50 -145v-314h-87v295c0 46 -10.833 80.5 -32.5 103.5s-49.834 34.5 -84.501 34.5c-36.667 0 -67.5 -12.5 -92.5 -37.5s-37.5 -61.833 -37.5 -110.5v-285h-87z
M278.001 -60c20.667 0 36.667 -7.16992 48 -21.5029s17 -32.5 17 -54.5c0 -35.333 -10 -66.166 -30 -92.499s-43.667 -47.166 -71 -62.499l-26 27c38 32 57.333 61.333 58 88c-16.667 -1.33301 -30.5 3.33398 -41.5 14.001s-16.5 24.667 -16.5 42
c0 18 5.83301 32.5 17.5 43.5s26.5 16.5 44.5 16.5z" />
    <glyph glyph-name="Ncaron" unicode="&#x147;" horiz-adv-x="738" 
d="M430 900h79l-101 -141h-78l-102 141h79l60 -86h5zM562 700h89v-700h-98l-370 546h-7v-546h-89v700h99l369 -546h7v546z" />
    <glyph glyph-name="ncaron" unicode="&#x148;" horiz-adv-x="561" 
d="M341 700h79l-101 -141h-78l-102 141h79l60 -86h5zM70 0l0.000976562 500h79l8 -60h7c34 46.667 82.333 70 145 70c54.667 0 98.667 -17 132 -51s50 -82.333 50 -145v-314h-87v295c0 46 -10.833 80.5 -32.5 103.5s-49.834 34.5 -84.501 34.5
c-36.667 0 -67.5 -12.5 -92.5 -37.5s-37.5 -61.833 -37.5 -110.5v-285h-87z" />
    <glyph glyph-name="Eng" unicode="&#x14a;" horiz-adv-x="738" 
d="M562 700h88.999v-779c0 -43.333 -11.667 -76 -35 -98s-54.666 -33 -93.999 -33c-23.333 0 -48.333 3.66699 -75 11v67c20 -4.66699 37 -7 51 -7c43.333 0 65 22.333 65 67v59l-380 559h-7v-546h-89v700h99l369 -546h7v546z" />
    <glyph glyph-name="eng" unicode="&#x14b;" horiz-adv-x="561" 
d="M309 510c54.667 0 98.668 -17 132.001 -51s50 -82.333 50 -145v-393c0 -43.333 -11.5 -76 -34.5 -98s-54.167 -33 -93.5 -33c-25.333 0 -50.333 3.66699 -75 11v67c20 -4.66699 37 -7 51 -7c43.333 0 65 22.333 65 67v367c0 46 -10.833 80.5 -32.5 103.5
s-49.834 34.5 -84.501 34.5c-36.667 0 -67.5 -12.5 -92.5 -37.5s-37.5 -61.833 -37.5 -110.5v-285h-87v500h79l8 -60h7c34 46.667 82.333 70 145 70z" />
    <glyph glyph-name="Omacron" unicode="&#x14c;" horiz-adv-x="823" 
d="M262 845h301v-64h-301v64zM412 -10c-98.667 0 -180.999 34.168 -246.999 102.501s-99 154.166 -99 257.499c0 102.667 33 188.334 99 257.001s148.333 103 247 103c98 0 180 -34.333 246 -103s99 -154.334 99 -257.001c0 -102 -32.833 -187.5 -98.5 -256.5
s-147.834 -103.5 -246.501 -103.5zM412.001 74.001c72 0 132.167 26.5 180.5 79.5s72.5 118.5 72.5 196.5s-24.167 143.5 -72.5 196.5s-108.5 79.5 -180.5 79.5s-132.333 -26.5 -181 -79.5s-73 -118.5 -73 -196.5s24.333 -143.5 73 -196.5s109 -79.5 181 -79.5z" />
    <glyph glyph-name="omacron" unicode="&#x14d;" horiz-adv-x="607" 
d="M154 645h301v-64h-301v64zM303 -10c-72 0 -131.832 24.833 -179.499 74.5s-71.5 111.5 -71.5 185.5c0 75.333 23.667 137.5 71 186.5s107.333 73.5 180 73.5c72 0 132 -24.667 180 -74s72 -111.333 72 -186s-23.833 -136.667 -71.5 -186s-107.834 -74 -180.501 -74z
M303.001 67c48 0 87.5 17.833 118.5 53.5s46.5 78.834 46.5 129.501c0 51.333 -15.5 94.666 -46.5 129.999s-70.5 53 -118.5 53c-48.667 0 -88 -17.667 -118 -53s-45 -78.666 -45 -129.999c0 -50.667 15.167 -93.834 45.5 -129.501s69.5 -53.5 117.5 -53.5z" />
    <glyph glyph-name="Obreve" unicode="&#x14e;" horiz-adv-x="823" 
d="M542 900c0 -34 -12.168 -64 -36.501 -90s-55.833 -39 -94.5 -39s-70.5 13 -95.5 39s-37.5 56 -37.5 90h70c0 -20.667 5.83301 -37.667 17.5 -51s26.834 -20 45.501 -20s33.5 6.66699 44.5 20s16.5 30.333 16.5 51h70zM411.999 -10
c-98.667 0 -180.999 34.168 -246.999 102.501s-99 154.166 -99 257.499c0 102.667 33 188.334 99 257.001s148.333 103 247 103c98 0 180 -34.333 246 -103s99 -154.334 99 -257.001c0 -102 -32.833 -187.5 -98.5 -256.5s-147.834 -103.5 -246.501 -103.5zM412 74.001
c72 0 132.167 26.5 180.5 79.5s72.5 118.5 72.5 196.5s-24.167 143.5 -72.5 196.5s-108.5 79.5 -180.5 79.5s-132.333 -26.5 -181 -79.5s-73 -118.5 -73 -196.5s24.333 -143.5 73 -196.5s109 -79.5 181 -79.5z" />
    <glyph glyph-name="obreve" unicode="&#x14f;" horiz-adv-x="607" 
d="M434 700c0 -34 -12.168 -64 -36.501 -90s-55.833 -39 -94.5 -39s-70.5 13 -95.5 39s-37.5 56 -37.5 90h70c0 -20.667 5.83301 -37.667 17.5 -51s26.834 -20 45.501 -20s33.5 6.66699 44.5 20s16.5 30.333 16.5 51h70zM302.999 -10c-72 0 -131.832 24.833 -179.499 74.5
s-71.5 111.5 -71.5 185.5c0 75.333 23.667 137.5 71 186.5s107.333 73.5 180 73.5c72 0 132 -24.667 180 -74s72 -111.333 72 -186s-23.833 -136.667 -71.5 -186s-107.834 -74 -180.501 -74zM303 67c48 0 87.5 17.833 118.5 53.5s46.5 78.834 46.5 129.501
c0 51.333 -15.5 94.666 -46.5 129.999s-70.5 53 -118.5 53c-48.667 0 -88 -17.667 -118 -53s-45 -78.666 -45 -129.999c0 -50.667 15.167 -93.834 45.5 -129.501s69.5 -53.5 117.5 -53.5z" />
    <glyph glyph-name="Ohungarumlaut" unicode="&#x150;" horiz-adv-x="823" 
d="M358 900h77l-64 -145h-71zM512 900h77l-65 -145h-70zM412 -10c-98.667 0 -180.999 34.168 -246.999 102.501s-99 154.166 -99 257.499c0 102.667 33 188.334 99 257.001s148.333 103 247 103c98 0 180 -34.333 246 -103s99 -154.334 99 -257.001
c0 -102 -32.833 -187.5 -98.5 -256.5s-147.834 -103.5 -246.501 -103.5zM412.001 74.001c72 0 132.167 26.5 180.5 79.5s72.5 118.5 72.5 196.5s-24.167 143.5 -72.5 196.5s-108.5 79.5 -180.5 79.5s-132.333 -26.5 -181 -79.5s-73 -118.5 -73 -196.5
s24.333 -143.5 73 -196.5s109 -79.5 181 -79.5z" />
    <glyph glyph-name="ohungarumlaut" unicode="&#x151;" horiz-adv-x="607" 
d="M250 700h77l-64 -145h-71zM404 700h77l-65 -145h-70zM303 -10c-72 0 -131.832 24.833 -179.499 74.5s-71.5 111.5 -71.5 185.5c0 75.333 23.667 137.5 71 186.5s107.333 73.5 180 73.5c72 0 132 -24.667 180 -74s72 -111.333 72 -186s-23.833 -136.667 -71.5 -186
s-107.834 -74 -180.501 -74zM303.001 67c48 0 87.5 17.833 118.5 53.5s46.5 78.834 46.5 129.501c0 51.333 -15.5 94.666 -46.5 129.999s-70.5 53 -118.5 53c-48.667 0 -88 -17.667 -118 -53s-45 -78.666 -45 -129.999c0 -50.667 15.167 -93.834 45.5 -129.501
s69.5 -53.5 117.5 -53.5z" />
    <glyph glyph-name="OE" unicode="&#x152;" horiz-adv-x="1121" 
d="M726 81h348v-81h-437v115c-28 -39.333 -63 -70 -105 -92s-87.667 -33 -137 -33c-94.667 0 -173.167 34 -235.5 102s-93.5 154 -93.5 258s31.333 190 94 258s141 102 235 102c49.333 0 95 -11 137 -33s77 -52.333 105 -91v114h427v-81h-338v-224h296v-79h-296v-235z
M397 74c68.667 0 125.5 25.833 170.5 77.5s67.5 117.834 67.5 198.501s-22.667 146.834 -68 198.501s-102 77.5 -170 77.5c-68.667 0 -125.667 -25.833 -171 -77.5s-68 -117.834 -68 -198.501s22.667 -146.834 68 -198.501s102.333 -77.5 171 -77.5z" />
    <glyph glyph-name="oe" unicode="&#x153;" horiz-adv-x="780" 
d="M551 59c23.333 0 43.833 6.66699 61.5 20s28.167 35.333 31.5 66h81c-5.33301 -52 -24 -90.833 -56 -116.5s-70.667 -38.5 -116 -38.5c-72 0 -122 27 -150 81c-36.667 -54 -86.667 -81 -150 -81c-58.667 0 -106.834 23.667 -144.501 71s-56.5 110.333 -56.5 189
c0 80 18.667 143.333 56 190s85.666 70 144.999 70c64.667 0 115.334 -28 152.001 -84c30 56 78.667 84 146 84c51.333 0 93.333 -19.333 126 -58s49 -102.334 49 -191.001c0 -5.33301 -0.666992 -16.666 -2 -33.999h-271c0.666992 -20.667 1.83398 -38.5 3.50098 -53.5
s5.5 -32.333 11.5 -52s16 -35 30 -46s31.667 -16.5 53 -16.5zM551 441c-28 0 -50.833 -12.167 -68.5 -36.5s-27.5 -61.833 -29.5 -112.5h191c0 99.333 -31 149 -93 149zM253 62c34.667 0 62.334 16.833 83.001 50.5s31 79.5 31 137.5c0 58.667 -10.333 104.667 -31 138
s-48.334 50 -83.001 50c-35.333 0 -63 -16.5 -83 -49.5s-30 -79.167 -30 -138.5c0 -58 10.167 -103.833 30.5 -137.5s47.833 -50.5 82.5 -50.5z" />
    <glyph glyph-name="Racute" unicode="&#x154;" horiz-adv-x="623" 
d="M431 900l-77 -145h-71l70 145h78zM584 0l-100 -0.000976562l-172 294h-136v-294h-89v700h247c67.333 0 120.5 -18 159.5 -54s58.5 -84 58.5 -144c0 -49.333 -13.333 -90.666 -40 -123.999s-63.667 -56.333 -111 -69zM176 620.999v-247.999h146
c43.333 0 77.5 11.5 102.5 34.5s37.5 53.167 37.5 90.5c0 39.333 -12.5 69.666 -37.5 90.999s-59.167 32 -102.5 32h-146z" />
    <glyph glyph-name="racute" unicode="&#x155;" horiz-adv-x="356" 
d="M237 700h78l-77 -145h-71zM70 0v500.001h79l8 -69h7c14.667 25.333 32.667 44.833 54 58.5s51 20.5 89 20.5h29v-88c-10 1.33301 -25 2 -45 2c-42.667 0 -75.667 -14.833 -99 -44.5s-35 -68.834 -35 -117.501v-262h-87z" />
    <glyph glyph-name="uni0156" unicode="&#x156;" horiz-adv-x="623" 
d="M401 309l183 -309.001h-100l-172 294h-136v-294h-89v700h247c67.333 0 120.5 -18 159.5 -54s58.5 -84 58.5 -144c0 -49.333 -13.333 -90.666 -40 -123.999s-63.667 -56.333 -111 -69zM176 620.999v-247.999h146c43.333 0 77.5 11.5 102.5 34.5s37.5 53.167 37.5 90.5
c0 39.333 -12.5 69.666 -37.5 90.999s-59.167 32 -102.5 32h-146zM328 -60c20.667 0 36.667 -7.16992 48 -21.5029s17 -32.5 17 -54.5c0 -35.333 -10 -66.166 -30 -92.499s-43.667 -47.166 -71 -62.499l-26 27c38 32 57.333 61.333 58 88
c-16.667 -1.33301 -30.5 3.33398 -41.5 14.001s-16.5 24.667 -16.5 42c0 18 5.83301 32.5 17.5 43.5s26.5 16.5 44.5 16.5z" />
    <glyph glyph-name="uni0157" unicode="&#x157;" horiz-adv-x="356" 
d="M70 0v500.001h79l8 -69h7c14.667 25.333 32.667 44.833 54 58.5s51 20.5 89 20.5h29v-88c-10 1.33301 -25 2 -45 2c-42.667 0 -75.667 -14.833 -99 -44.5s-35 -68.834 -35 -117.501v-262h-87zM111 -59.999c20.667 0 36.667 -7.16992 48 -21.5029s17 -32.5 17 -54.5
c0 -35.333 -10 -66.166 -30 -92.499s-43.667 -47.166 -71 -62.499l-26 27c38 32 57.333 61.333 58 88c-16.667 -1.33301 -30.5 3.33398 -41.5 14.001s-16.5 24.667 -16.5 42c0 18 5.83301 32.5 17.5 43.5s26.5 16.5 44.5 16.5z" />
    <glyph glyph-name="Rcaron" unicode="&#x158;" horiz-adv-x="623" 
d="M357 759h-78l-102 141h79l60 -86h5l58 86h79zM584 0l-100 -0.000976562l-172 294h-136v-294h-89v700h247c67.333 0 120.5 -18 159.5 -54s58.5 -84 58.5 -144c0 -49.333 -13.333 -90.666 -40 -123.999s-63.667 -56.333 -111 -69zM176 620.999v-247.999h146
c43.333 0 77.5 11.5 102.5 34.5s37.5 53.167 37.5 90.5c0 39.333 -12.5 69.666 -37.5 90.999s-59.167 32 -102.5 32h-146z" />
    <glyph glyph-name="rcaron" unicode="&#x159;" horiz-adv-x="356" 
d="M264 700h79l-101 -141h-78l-102 141h79l60 -86h5zM70 0v500.001h79l8 -69h7c14.667 25.333 32.667 44.833 54 58.5s51 20.5 89 20.5h29v-88c-10 1.33301 -25 2 -45 2c-42.667 0 -75.667 -14.833 -99 -44.5s-35 -68.834 -35 -117.501v-262h-87z" />
    <glyph glyph-name="Sacute" unicode="&#x15a;" horiz-adv-x="607" 
d="M345 900h78l-77 -145h-71zM537 183c0 -62.667 -21.5029 -110.499 -64.5029 -143.499s-97.167 -49.5 -162.5 -49.5c-73.333 0 -131.166 18.5 -173.499 55.5s-65.833 88.5 -70.5 154.5h89c5.33301 -42 21.333 -74.333 48 -97s62.334 -34 107.001 -34
c39.333 0 71.666 9.33301 96.999 28s38 46.667 38 84c0 21.333 -4.16699 39.833 -12.5 55.5s-20.666 28.834 -36.999 39.501s-31.166 18.667 -44.499 24s-30.666 11.333 -51.999 18l-35 10c-23.333 7.33301 -43.5 15 -60.5 23s-35.167 19.167 -54.5 33.5
s-34.333 32.666 -45 54.999s-16 47.833 -16 76.5c0 58.667 21 105.667 63 141s95.333 53 160 53c65.333 0 118.5 -18.5 159.5 -55.5s63.167 -84.5 66.5 -142.5h-90c-4 35.333 -17.5 64 -40.5 86s-54.833 33 -95.5 33c-38.667 0 -70.5 -10.333 -95.5 -31
s-37.5 -47.334 -37.5 -80.001c0 -12.667 1.83301 -24.167 5.5 -34.5s9.66699 -19.5 18 -27.5s15.833 -14.667 22.5 -20s17 -10.666 31 -15.999l30 -11.5c6 -2.33301 16.667 -5.83301 32 -10.5l31 -10c17.333 -5.33301 31.833 -10.333 43.5 -15s27.667 -12.834 48 -24.501
s36.666 -24.167 48.999 -37.5s23.5 -31.5 33.5 -54.5s15 -48.167 15 -75.5z" />
    <glyph glyph-name="sacute" unicode="&#x15b;" horiz-adv-x="477" 
d="M265 700h78l-77 -145h-71zM248 -10c-62 0 -109.499 14.6709 -142.499 44.0039s-50.833 68.666 -53.5 117.999h85c6 -62 43 -93 111 -93c26.667 0 48.834 5.83301 66.501 17.5s26.5 29.167 26.5 52.5c0 24.667 -9.16699 43.667 -27.5 57s-43.5 24.666 -75.5 33.999l-34 9
c-18.667 5.33301 -34.334 10.666 -47.001 15.999s-26.667 13.166 -42 23.499s-27 23.833 -35 40.5s-12 36 -12 58c0 43.333 16.5 78 49.5 104s72.833 39 119.5 39c56 0 99.333 -14 130 -42s47 -61.667 49 -101h-85c-2 22 -11.333 39.833 -28 53.5s-38.334 20.5 -65.001 20.5
c-24.667 0 -45.167 -6 -61.5 -18s-24.5 -29.333 -24.5 -52c0 -11.333 2.33301 -21.166 7 -29.499s12.167 -15.5 22.5 -21.5s19.666 -10.667 27.999 -14s20.5 -7.33301 36.5 -12l32 -10c44 -12 79.5 -29.5 106.5 -52.5s40.5 -56.5 40.5 -100.5
c0 -46.667 -16.667 -81.834 -50 -105.501s-75.666 -35.5 -126.999 -35.5z" />
    <glyph glyph-name="Scircumflex" unicode="&#x15c;" horiz-adv-x="607" 
d="M249 759h-79l101 141h78l102 -141h-79l-59 86h-6zM537 183c0 -62.667 -21.5029 -110.499 -64.5029 -143.499s-97.167 -49.5 -162.5 -49.5c-73.333 0 -131.166 18.5 -173.499 55.5s-65.833 88.5 -70.5 154.5h89c5.33301 -42 21.333 -74.333 48 -97s62.334 -34 107.001 -34
c39.333 0 71.666 9.33301 96.999 28s38 46.667 38 84c0 21.333 -4.16699 39.833 -12.5 55.5s-20.666 28.834 -36.999 39.501s-31.166 18.667 -44.499 24s-30.666 11.333 -51.999 18l-35 10c-23.333 7.33301 -43.5 15 -60.5 23s-35.167 19.167 -54.5 33.5
s-34.333 32.666 -45 54.999s-16 47.833 -16 76.5c0 58.667 21 105.667 63 141s95.333 53 160 53c65.333 0 118.5 -18.5 159.5 -55.5s63.167 -84.5 66.5 -142.5h-90c-4 35.333 -17.5 64 -40.5 86s-54.833 33 -95.5 33c-38.667 0 -70.5 -10.333 -95.5 -31
s-37.5 -47.334 -37.5 -80.001c0 -12.667 1.83301 -24.167 5.5 -34.5s9.66699 -19.5 18 -27.5s15.833 -14.667 22.5 -20s17 -10.666 31 -15.999l30 -11.5c6 -2.33301 16.667 -5.83301 32 -10.5l31 -10c17.333 -5.33301 31.833 -10.333 43.5 -15s27.667 -12.834 48 -24.501
s36.666 -24.167 48.999 -37.5s23.5 -31.5 33.5 -54.5s15 -48.167 15 -75.5z" />
    <glyph glyph-name="scircumflex" unicode="&#x15d;" horiz-adv-x="477" 
d="M169 559h-79l101 141h78l102 -141h-79l-59 86h-6zM248 -10c-62 0 -109.499 14.6709 -142.499 44.0039s-50.833 68.666 -53.5 117.999h85c6 -62 43 -93 111 -93c26.667 0 48.834 5.83301 66.501 17.5s26.5 29.167 26.5 52.5c0 24.667 -9.16699 43.667 -27.5 57
s-43.5 24.666 -75.5 33.999l-34 9c-18.667 5.33301 -34.334 10.666 -47.001 15.999s-26.667 13.166 -42 23.499s-27 23.833 -35 40.5s-12 36 -12 58c0 43.333 16.5 78 49.5 104s72.833 39 119.5 39c56 0 99.333 -14 130 -42s47 -61.667 49 -101h-85
c-2 22 -11.333 39.833 -28 53.5s-38.334 20.5 -65.001 20.5c-24.667 0 -45.167 -6 -61.5 -18s-24.5 -29.333 -24.5 -52c0 -11.333 2.33301 -21.166 7 -29.499s12.167 -15.5 22.5 -21.5s19.666 -10.667 27.999 -14s20.5 -7.33301 36.5 -12l32 -10
c44 -12 79.5 -29.5 106.5 -52.5s40.5 -56.5 40.5 -100.5c0 -46.667 -16.667 -81.834 -50 -105.501s-75.666 -35.5 -126.999 -35.5z" />
    <glyph glyph-name="Scedilla" unicode="&#x15e;" horiz-adv-x="607" 
d="M348 390c17.333 -5.33301 31.8301 -10.3311 43.4971 -14.998s27.667 -12.834 48 -24.501s36.666 -24.167 48.999 -37.5s23.5 -31.5 33.5 -54.5s15 -48.167 15 -75.5c0 -58.667 -19 -104.334 -57 -137.001s-87 -51 -147 -55l-24 -35
c24.667 1.33301 47.167 -5.33398 67.5 -20.001s30.5 -35.667 30.5 -63c0 -25.333 -8.83301 -45.5 -26.5 -60.5s-42.167 -22.5 -73.5 -22.5c-29.333 0 -53.666 7 -72.999 21l18 40c18.667 -10.667 36 -16 52 -16s28.5 3.83301 37.5 11.5s13.5 17.5 13.5 29.5
s-4.5 22 -13.5 30s-22.167 12 -39.5 12c-10.667 0 -22 -2.66699 -34 -8l-30 25l39 56c-63.333 5.33301 -113.333 26.333 -150 63s-57 85.334 -61 146.001h89c5.33301 -42 21.333 -74.333 48 -97s62.334 -34 107.001 -34c39.333 0 71.666 9.33301 96.999 28s38 46.667 38 84
c0 21.333 -4.16699 39.833 -12.5 55.5s-20.666 28.834 -36.999 39.501s-31.166 18.667 -44.499 24s-30.666 11.333 -51.999 18l-35 10c-23.333 7.33301 -43.5 15 -60.5 23s-35.167 19.167 -54.5 33.5s-34.333 32.666 -45 54.999s-16 47.833 -16 76.5
c0 58.667 21 105.667 63 141s95.333 53 160 53c65.333 0 118.5 -18.5 159.5 -55.5s63.167 -84.5 66.5 -142.5h-90c-4 35.333 -17.5 64 -40.5 86s-54.833 33 -95.5 33c-38.667 0 -70.5 -10.333 -95.5 -31s-37.5 -47.334 -37.5 -80.001c0 -12.667 1.83301 -24.167 5.5 -34.5
s9.66699 -19.5 18 -27.5s15.833 -14.667 22.5 -20s17 -10.666 31 -15.999l30 -11.5c6 -2.33301 16.667 -5.83301 32 -10.5z" />
    <glyph glyph-name="scedilla" unicode="&#x15f;" horiz-adv-x="477" 
d="M425 131c0 -43.333 -14.3311 -76.665 -42.998 -99.998s-66.334 -36.666 -113.001 -39.999l-24 -35c24.667 1.33301 47.167 -5.33398 67.5 -20.001s30.5 -35.667 30.5 -63c0 -25.333 -8.83301 -45.5 -26.5 -60.5s-42.167 -22.5 -73.5 -22.5
c-29.333 0 -53.666 7 -72.999 21l18 40c18.667 -10.667 36 -16 52 -16s28.5 3.83301 37.5 11.5s13.5 17.5 13.5 29.5s-4.5 22 -13.5 30s-22.167 12 -39.5 12c-10.667 0 -22 -2.66699 -34 -8l-30 25l39 57c-50.667 5.33301 -89.5 22.333 -116.5 51s-41.833 65 -44.5 109h85
c6 -62 43 -93 111 -93c26.667 0 48.834 5.83301 66.501 17.5s26.5 29.167 26.5 52.5c0 24.667 -9.16699 43.667 -27.5 57s-43.5 24.666 -75.5 33.999l-34 9c-18.667 5.33301 -34.334 10.666 -47.001 15.999s-26.667 13.166 -42 23.499s-27 23.833 -35 40.5s-12 36 -12 58
c0 43.333 16.5 78 49.5 104s72.833 39 119.5 39c56 0 99.333 -14 130 -42s47 -61.667 49 -101h-85c-2 22 -11.333 39.833 -28 53.5s-38.334 20.5 -65.001 20.5c-24.667 0 -45.167 -6 -61.5 -18s-24.5 -29.333 -24.5 -52c0 -11.333 2.33301 -21.166 7 -29.499
s12.167 -15.5 22.5 -21.5s19.666 -10.667 27.999 -14s20.5 -7.33301 36.5 -12l32 -10c44 -12 79.5 -29.5 106.5 -52.5s40.5 -56.5 40.5 -100.5z" />
    <glyph glyph-name="Scaron" unicode="&#x160;" horiz-adv-x="607" 
d="M372 900h79l-101 -141h-78l-102 141h79l60 -86h5zM537 183c0 -62.667 -21.5029 -110.499 -64.5029 -143.499s-97.167 -49.5 -162.5 -49.5c-73.333 0 -131.166 18.5 -173.499 55.5s-65.833 88.5 -70.5 154.5h89c5.33301 -42 21.333 -74.333 48 -97s62.334 -34 107.001 -34
c39.333 0 71.666 9.33301 96.999 28s38 46.667 38 84c0 21.333 -4.16699 39.833 -12.5 55.5s-20.666 28.834 -36.999 39.501s-31.166 18.667 -44.499 24s-30.666 11.333 -51.999 18l-35 10c-23.333 7.33301 -43.5 15 -60.5 23s-35.167 19.167 -54.5 33.5
s-34.333 32.666 -45 54.999s-16 47.833 -16 76.5c0 58.667 21 105.667 63 141s95.333 53 160 53c65.333 0 118.5 -18.5 159.5 -55.5s63.167 -84.5 66.5 -142.5h-90c-4 35.333 -17.5 64 -40.5 86s-54.833 33 -95.5 33c-38.667 0 -70.5 -10.333 -95.5 -31
s-37.5 -47.334 -37.5 -80.001c0 -12.667 1.83301 -24.167 5.5 -34.5s9.66699 -19.5 18 -27.5s15.833 -14.667 22.5 -20s17 -10.666 31 -15.999l30 -11.5c6 -2.33301 16.667 -5.83301 32 -10.5l31 -10c17.333 -5.33301 31.833 -10.333 43.5 -15s27.667 -12.834 48 -24.501
s36.666 -24.167 48.999 -37.5s23.5 -31.5 33.5 -54.5s15 -48.167 15 -75.5z" />
    <glyph glyph-name="scaron" unicode="&#x161;" horiz-adv-x="477" 
d="M291 700h79l-101 -141h-78l-102 141h79l60 -86h5zM248 -10c-62 0 -109.499 14.6709 -142.499 44.0039s-50.833 68.666 -53.5 117.999h85c6 -62 43 -93 111 -93c26.667 0 48.834 5.83301 66.501 17.5s26.5 29.167 26.5 52.5c0 24.667 -9.16699 43.667 -27.5 57
s-43.5 24.666 -75.5 33.999l-34 9c-18.667 5.33301 -34.334 10.666 -47.001 15.999s-26.667 13.166 -42 23.499s-27 23.833 -35 40.5s-12 36 -12 58c0 43.333 16.5 78 49.5 104s72.833 39 119.5 39c56 0 99.333 -14 130 -42s47 -61.667 49 -101h-85
c-2 22 -11.333 39.833 -28 53.5s-38.334 20.5 -65.001 20.5c-24.667 0 -45.167 -6 -61.5 -18s-24.5 -29.333 -24.5 -52c0 -11.333 2.33301 -21.166 7 -29.499s12.167 -15.5 22.5 -21.5s19.666 -10.667 27.999 -14s20.5 -7.33301 36.5 -12l32 -10
c44 -12 79.5 -29.5 106.5 -52.5s40.5 -56.5 40.5 -100.5c0 -46.667 -16.667 -81.834 -50 -105.501s-75.666 -35.5 -126.999 -35.5z" />
    <glyph glyph-name="uni0162" unicode="&#x162;" horiz-adv-x="575" 
d="M333 0l-16.001 0.000976562l-31 -44c24.667 1.33301 47.167 -5.33398 67.5 -20.001s30.5 -35.667 30.5 -63c0 -25.333 -8.83301 -45.5 -26.5 -60.5s-42.167 -22.5 -73.5 -22.5c-29.333 0 -53.666 7 -72.999 21l18 40c18.667 -10.667 36 -16 52 -16
s28.5 3.83301 37.5 11.5s13.5 17.5 13.5 29.5s-4.5 22 -13.5 30s-22.167 12 -39.5 12c-10.667 0 -22 -2.66699 -34 -8l-30 25l45 65h-18v618h-202v82h495v-82h-202v-618z" />
    <glyph glyph-name="uni0163" unicode="&#x163;" horiz-adv-x="358" 
d="M339 429l-125.001 0.000976562v-304c0 -42 21 -63 63 -63c16 0 32.667 2.66699 50 8v-69c-26.667 -7.33301 -51 -11 -73 -11h-5l-24 -34c24.667 1.33301 47.167 -5.33398 67.5 -20.001s30.5 -35.667 30.5 -63c0 -25.333 -8.83301 -45.5 -26.5 -60.5
s-42.167 -22.5 -73.5 -22.5c-29.333 0 -53.666 7 -72.999 21l18 40c18.667 -10.667 36 -16 52 -16s28.5 3.83301 37.5 11.5s13.5 17.5 13.5 29.5s-4.5 22 -13.5 30s-22.167 12 -39.5 12c-10.667 0 -22 -2.66699 -34 -8l-30 25l44 63c-48 16 -72 54.333 -72 115v316h-106v71
h34c29.333 0 50 5.5 62 16.5s18 30.167 18 57.5v62h80v-136h125v-71z" />
    <glyph glyph-name="Tcaron" unicode="&#x164;" horiz-adv-x="575" 
d="M327 759h-78l-102 141h79l60 -86h5l58 86h79zM535 700v-82h-202v-618h-91v618h-202v82h495z" />
    <glyph glyph-name="tcaron" unicode="&#x165;" horiz-adv-x="358" 
d="M370 769c18.667 0 32.999 -6.66797 42.999 -20.001s15 -30.666 15 -51.999c0 -33.333 -9 -62.333 -27 -87s-39.333 -44.667 -64 -60l-23 28c34.667 27.333 52 55.666 52 84.999c-13.333 -1.33301 -25.166 2.83398 -35.499 12.501s-15.5 22.5 -15.5 38.5
c0 16.667 5.16699 30 15.5 40s23.5 15 39.5 15zM253.999 -10.001c-47.333 0 -80.5 11.832 -99.5 35.499s-28.5 52.834 -28.5 87.501v316h-106v71h34c29.333 0 50 5.5 62 16.5s18 30.167 18 57.5v62h80v-136h125v-71h-125v-304c0 -42 21 -63 63 -63c16 0 32.667 2.66699 50 8
v-69c-26.667 -7.33301 -51 -11 -73 -11z" />
    <glyph glyph-name="Tbar" unicode="&#x166;" horiz-adv-x="575" 
d="M535 618h-202v-238h147v-69h-147v-311h-91v311h-146v69h146v238h-202v82h495v-82z" />
    <glyph glyph-name="tbar" unicode="&#x167;" horiz-adv-x="358" 
d="M339 429l-125 -0.000976562v-126h118v-66h-118v-112c0 -42 21 -63 63 -63c16 0 32.667 2.66699 50 8v-69c-26.667 -7.33301 -51 -11 -73 -11c-47.333 0 -80.5 11.833 -99.5 35.5s-28.5 52.834 -28.5 87.501v124h-102v66h102v126h-106v71h34c29.333 0 50 5.5 62 16.5
s18 30.167 18 57.5v62h80v-136h125v-71z" />
    <glyph glyph-name="Utilde" unicode="&#x168;" horiz-adv-x="717" 
d="M531 867c-2 -32.667 -11.667 -60.502 -29 -83.502s-41 -34.5 -71 -34.5c-16.667 0 -32 3.33301 -46 10s-24.833 13.834 -32.5 21.501s-16.5 14.834 -26.5 21.501s-20 10 -30 10c-26.667 0 -42 -18.333 -46 -55h-63c3.33301 34.667 13.5 63.167 30.5 85.5
s40.5 33.5 70.5 33.5c17.333 0 33 -3.33301 47 -10s24.667 -14 32 -22s15.833 -15.333 25.5 -22s19.5 -10 29.5 -10c27.333 0 43 18.333 47 55h62zM630 699.998l-0.000976562 -436c0 -88 -24.667 -155.667 -74 -203s-114.666 -71 -195.999 -71c-82 0 -148 23.667 -198 71
s-75 115 -75 203v436h91v-430c0 -63.333 16.833 -111.833 50.5 -145.5s77.5 -50.5 131.5 -50.5s97.333 16.833 130 50.5s49 82.167 49 145.5v430h91z" />
    <glyph glyph-name="utilde" unicode="&#x169;" horiz-adv-x="561" 
d="M453 667c-2 -32.667 -11.667 -60.502 -29 -83.502s-41 -34.5 -71 -34.5c-16.667 0 -32 3.33301 -46 10s-24.833 13.834 -32.5 21.501s-16.5 14.834 -26.5 21.501s-20 10 -30 10c-26.667 0 -42 -18.333 -46 -55h-63c3.33301 34.667 13.5 63.167 30.5 85.5
s40.5 33.5 70.5 33.5c17.333 0 33 -3.33301 47 -10s24.667 -14 32 -22s15.833 -15.333 25.5 -22s19.5 -10 29.5 -10c27.333 0 43 18.333 47 55h62zM491 499.998l-0.000976562 -500h-79l-8 60h-7c-34 -46.667 -82.333 -70 -145 -70c-54.667 0 -98.667 17 -132 51
s-50 82.333 -50 145v314h87v-295c0 -46 10.833 -80.5 32.5 -103.5s49.834 -34.5 84.501 -34.5c37.333 0 68.333 12.5 93 37.5s37 61.833 37 110.5v285h87z" />
    <glyph glyph-name="Umacron" unicode="&#x16a;" horiz-adv-x="717" 
d="M209 845h301v-64h-301v64zM630 700l-0.000976562 -436c0 -88 -24.667 -155.667 -74 -203s-114.666 -71 -195.999 -71c-82 0 -148 23.667 -198 71s-75 115 -75 203v436h91v-430c0 -63.333 16.833 -111.833 50.5 -145.5s77.5 -50.5 131.5 -50.5s97.333 16.833 130 50.5
s49 82.167 49 145.5v430h91z" />
    <glyph glyph-name="umacron" unicode="&#x16b;" horiz-adv-x="561" 
d="M131 645h301v-64h-301v64zM491 500l-0.000976562 -500h-79l-8 60h-7c-34 -46.667 -82.333 -70 -145 -70c-54.667 0 -98.667 17 -132 51s-50 82.333 -50 145v314h87v-295c0 -46 10.833 -80.5 32.5 -103.5s49.834 -34.5 84.501 -34.5c37.333 0 68.333 12.5 93 37.5
s37 61.833 37 110.5v285h87z" />
    <glyph glyph-name="Ubreve" unicode="&#x16c;" horiz-adv-x="717" 
d="M489 900c0 -34 -12.168 -64 -36.501 -90s-55.833 -39 -94.5 -39s-70.5 13 -95.5 39s-37.5 56 -37.5 90h70c0 -20.667 5.83301 -37.667 17.5 -51s26.834 -20 45.501 -20s33.5 6.66699 44.5 20s16.5 30.333 16.5 51h70zM629.999 700l-0.000976562 -436
c0 -88 -24.667 -155.667 -74 -203s-114.666 -71 -195.999 -71c-82 0 -148 23.667 -198 71s-75 115 -75 203v436h91v-430c0 -63.333 16.833 -111.833 50.5 -145.5s77.5 -50.5 131.5 -50.5s97.333 16.833 130 50.5s49 82.167 49 145.5v430h91z" />
    <glyph glyph-name="ubreve" unicode="&#x16d;" horiz-adv-x="561" 
d="M411 700c0 -34 -12.168 -64 -36.501 -90s-55.833 -39 -94.5 -39s-70.5 13 -95.5 39s-37.5 56 -37.5 90h70c0 -20.667 5.83301 -37.667 17.5 -51s26.834 -20 45.501 -20s33.5 6.66699 44.5 20s16.5 30.333 16.5 51h70zM490.999 500l-0.000976562 -500h-79l-8 60h-7
c-34 -46.667 -82.333 -70 -145 -70c-54.667 0 -98.667 17 -132 51s-50 82.333 -50 145v314h87v-295c0 -46 10.833 -80.5 32.5 -103.5s49.834 -34.5 84.501 -34.5c37.333 0 68.333 12.5 93 37.5s37 61.833 37 110.5v285h87z" />
    <glyph glyph-name="Uring" unicode="&#x16e;" horiz-adv-x="717" 
d="M359 741c-26 0 -48.5 9.5 -67.5 28.5s-28.5 41.167 -28.5 66.5c0 26 9.5 48.333 28.5 67s41.5 28 67.5 28s48.5 -9.33301 67.5 -28s28.5 -41 28.5 -67c0 -25.333 -9.5 -47.5 -28.5 -66.5s-41.5 -28.5 -67.5 -28.5zM360 792c11.333 0 21 4.33301 29 13s12 19 12 31
c0 11.333 -4.16699 21.333 -12.5 30s-17.833 13 -28.5 13c-12 0 -22.167 -4.16699 -30.5 -12.5s-12.5 -18.5 -12.5 -30.5s4.16699 -22.333 12.5 -31s18.5 -13 30.5 -13zM630 700l-0.000976562 -436c0 -88 -24.667 -155.667 -74 -203s-114.666 -71 -195.999 -71
c-82 0 -148 23.667 -198 71s-75 115 -75 203v436h91v-430c0 -63.333 16.833 -111.833 50.5 -145.5s77.5 -50.5 131.5 -50.5s97.333 16.833 130 50.5s49 82.167 49 145.5v430h91z" />
    <glyph glyph-name="uring" unicode="&#x16f;" horiz-adv-x="561" 
d="M281 541c-26 0 -48.5 9.5 -67.5 28.5s-28.5 41.167 -28.5 66.5c0 26 9.5 48.333 28.5 67s41.5 28 67.5 28s48.5 -9.33301 67.5 -28s28.5 -41 28.5 -67c0 -25.333 -9.5 -47.5 -28.5 -66.5s-41.5 -28.5 -67.5 -28.5zM282 592c11.333 0 21 4.33301 29 13s12 19 12 31
c0 11.333 -4.16699 21.333 -12.5 30s-17.833 13 -28.5 13c-12 0 -22.167 -4.16699 -30.5 -12.5s-12.5 -18.5 -12.5 -30.5s4.16699 -22.333 12.5 -31s18.5 -13 30.5 -13zM491 500l-0.000976562 -500h-79l-8 60h-7c-34 -46.667 -82.333 -70 -145 -70
c-54.667 0 -98.667 17 -132 51s-50 82.333 -50 145v314h87v-295c0 -46 10.833 -80.5 32.5 -103.5s49.834 -34.5 84.501 -34.5c37.333 0 68.333 12.5 93 37.5s37 61.833 37 110.5v285h87z" />
    <glyph glyph-name="Uhungarumlaut" unicode="&#x170;" horiz-adv-x="717" 
d="M305 900h77l-64 -145h-71zM459 900h77l-65 -145h-70zM630 700l-0.000976562 -436c0 -88 -24.667 -155.667 -74 -203s-114.666 -71 -195.999 -71c-82 0 -148 23.667 -198 71s-75 115 -75 203v436h91v-430c0 -63.333 16.833 -111.833 50.5 -145.5s77.5 -50.5 131.5 -50.5
s97.333 16.833 130 50.5s49 82.167 49 145.5v430h91z" />
    <glyph glyph-name="uhungarumlaut" unicode="&#x171;" horiz-adv-x="561" 
d="M227 700h77l-64 -145h-71zM381 700h77l-65 -145h-70zM491 500l-0.000976562 -500h-79l-8 60h-7c-34 -46.667 -82.333 -70 -145 -70c-54.667 0 -98.667 17 -132 51s-50 82.333 -50 145v314h87v-295c0 -46 10.833 -80.5 32.5 -103.5s49.834 -34.5 84.501 -34.5
c37.333 0 68.333 12.5 93 37.5s37 61.833 37 110.5v285h87z" />
    <glyph glyph-name="Uogonek" unicode="&#x172;" horiz-adv-x="717" 
d="M539 700l91 0.000976562v-436c0 -72 -17 -130.5 -51 -175.5s-80.333 -74.833 -139 -89.5c-44.667 -16.667 -67 -41 -67 -73c0 -28.667 19 -43 57 -43c14.667 0 29.667 2 45 6v-55c-12 -4.66699 -29.333 -7 -52 -7c-33.333 0 -60.333 7.5 -81 22.5s-31 37.167 -31 66.5
c0 30 14.333 54.667 43 74c-80 1.33301 -144.5 25.666 -193.5 72.999s-73.5 114.333 -73.5 201v436h91v-430c0 -63.333 16.833 -111.833 50.5 -145.5s77.5 -50.5 131.5 -50.5s97.333 16.833 130 50.5s49 82.167 49 145.5v430z" />
    <glyph glyph-name="uogonek" unicode="&#x173;" horiz-adv-x="561" 
d="M478 -117c14.667 0 29.666 2 44.999 6v-55c-12 -4.66699 -29.333 -7 -52 -7c-33.333 0 -60.333 7.5 -81 22.5s-31 37.167 -31 66.5c0 34 20 62 60 84h-7l-8 60h-7c-34 -46.667 -82.333 -70 -145 -70c-54.667 0 -98.667 17 -132 51s-50 82.333 -50 145v314h87v-295
c0 -46 10.833 -80.5 32.5 -103.5s49.834 -34.5 84.501 -34.5c37.333 0 68.333 12.5 93 37.5s37 61.833 37 110.5v285h87v-500c-46.667 -16 -70 -40.667 -70 -74c0 -28.667 19 -43 57 -43z" />
    <glyph glyph-name="Wcircumflex" unicode="&#x174;" horiz-adv-x="895" 
d="M386 759h-79l101 141h78l102 -141h-79l-59 86h-6zM781 700h87l-156 -700h-105l-156 535h-7l-156 -535h-105l-157 700h89l122 -572h7l153 522h101l152 -522h7z" />
    <glyph glyph-name="wcircumflex" unicode="&#x175;" horiz-adv-x="720" 
d="M298 559h-79l101 141h78l102 -141h-79l-59 86h-6zM147 0l-126 500h83l93 -399h7l108 363h97l107 -363h7l94 399h83l-128 -500h-102l-106 367h-7l-109 -367h-101z" />
    <glyph glyph-name="Ycircumflex" unicode="&#x176;" horiz-adv-x="648" 
d="M262 759h-79l101 141h78l102 -141h-79l-59 86h-6zM512 700h110l-252 -369v-331h-91v331l-253 369h110l185 -270h6z" />
    <glyph glyph-name="ycircumflex" unicode="&#x177;" horiz-adv-x="531" 
d="M204 559h-79l101 141h78l102 -141h-79l-59 86h-6zM127 -210c-20.667 0 -44.334 3.66699 -71.001 11v67c21.333 -4.66699 39.333 -7 54 -7c51.333 0 87 24.667 107 74l26 65h-30l-192 500h91l154 -409h7l146 409h91l-210 -578c-4 -12 -7.83301 -21.833 -11.5 -29.5
s-10.167 -18.667 -19.5 -33s-19.666 -26 -30.999 -35s-26.833 -17 -46.5 -24s-41.167 -10.5 -64.5 -10.5z" />
    <glyph glyph-name="Ydieresis" unicode="&#x178;" horiz-adv-x="648" 
d="M210 766c-16.667 0 -31 5.83301 -43 17.5s-18 25.834 -18 42.501s6 30.834 18 42.501s26.333 17.5 43 17.5s30.834 -5.83301 42.501 -17.5s17.5 -25.834 17.5 -42.501s-5.83301 -30.834 -17.5 -42.501s-25.834 -17.5 -42.501 -17.5zM439 766
c-16 0 -29.833 5.83301 -41.5 17.5s-17.5 25.834 -17.5 42.501s5.83301 30.834 17.5 42.501s25.5 17.5 41.5 17.5c16.667 0 31 -5.83301 43 -17.5s18 -25.834 18 -42.501s-6 -30.834 -18 -42.501s-26.333 -17.5 -43 -17.5zM512 700h110l-252 -369v-331h-91v331l-253 369h110
l185 -270h6z" />
    <glyph glyph-name="Zacute" unicode="&#x179;" horiz-adv-x="617" 
d="M350 900h78l-77 -145h-71zM199 82h348v-82h-481v51l352 562v5h-331v82h458v-51l-346 -562v-5z" />
    <glyph glyph-name="zacute" unicode="&#x17a;" horiz-adv-x="481" 
d="M280 700h78l-77 -145h-71zM52 0v44l252 381v5h-236v70h356v-44l-251 -381v-5h254v-70h-375z" />
    <glyph glyph-name="Zdotaccent" unicode="&#x17b;" horiz-adv-x="617" 
d="M316 780c-16 0 -29.833 5.66699 -41.5 17s-17.5 25 -17.5 41s5.83301 29.5 17.5 40.5s25.5 16.5 41.5 16.5c15.333 0 28.666 -5.5 39.999 -16.5s17 -24.5 17 -40.5s-5.66699 -29.667 -17 -41s-24.666 -17 -39.999 -17zM199 82h348v-82h-481v51l352 562v5h-331v82h458v-51
l-346 -562v-5z" />
    <glyph glyph-name="zdotaccent" unicode="&#x17c;" horiz-adv-x="481" 
d="M247 580c-16 0 -29.833 5.66699 -41.5 17s-17.5 25 -17.5 41s5.83301 29.5 17.5 40.5s25.5 16.5 41.5 16.5c15.333 0 28.666 -5.5 39.999 -16.5s17 -24.5 17 -40.5s-5.66699 -29.667 -17 -41s-24.666 -17 -39.999 -17zM52 0v44l252 381v5h-236v70h356v-44l-251 -381v-5
h254v-70h-375z" />
    <glyph glyph-name="Zcaron" unicode="&#x17d;" horiz-adv-x="617" 
d="M377 900h79l-101 -141h-78l-102 141h79l60 -86h5zM199 82h348v-82h-481v51l352 562v5h-331v82h458v-51l-346 -562v-5z" />
    <glyph glyph-name="zcaron" unicode="&#x17e;" horiz-adv-x="481" 
d="M307 700h79l-101 -141h-78l-102 141h79l60 -86h5zM52 0v44l252 381v5h-236v70h356v-44l-251 -381v-5h254v-70h-375z" />
    <glyph glyph-name="florin" unicode="&#x192;" horiz-adv-x="532" 
d="M412 579c-40 0 -63.334 -22 -70.001 -66l-23 -136h139v-66h-151l-33 -193c-15.333 -85.333 -64.333 -128 -147 -128c-40 0 -73.667 12.667 -101 38l31 59c18.667 -17.333 39.667 -26 63 -26c40 0 63.667 22 71 66l31 184h-131v66h142l25 145
c15.333 85.333 64.333 128 147 128c38.667 0 72.334 -12.667 101.001 -38l-31 -59c-19.333 17.333 -40.333 26 -63 26z" />
    <glyph glyph-name="uni01CD" unicode="&#x1cd;" horiz-adv-x="652" 
d="M366 759h-78l-102 141h79l60 -86h5l58 86h79zM529 0l-64 191h-278l-64 -191h-97l244 700h112l244 -700h-97zM213 269h225l-109 324h-7z" />
    <glyph glyph-name="uni01CE" unicode="&#x1ce;" horiz-adv-x="529" 
d="M292 559h-78l-102 141h79l60 -86h5l58 86h79zM488 68h13v-68h-40c-49.333 -0 -79 21.333 -89 64c-38.667 -49.333 -93.667 -74 -165 -74c-49.333 0 -89.166 12.167 -119.499 36.5s-45.5 59.833 -45.5 106.5c0 45.333 15.5 80.833 46.5 106.5s72.167 41.167 123.5 46.5
l149 14v28c0 34.667 -9 61.667 -27 81s-43.667 29 -77 29c-60 0 -96 -31.667 -108 -95h-87c5.33301 49.333 25.166 89.5 59.499 120.5s79.5 46.5 135.5 46.5c58 0 104.5 -16 139.5 -48s52.5 -77.333 52.5 -136v-217c0 -27.333 13 -41 39 -41zM361 192v43.999l-121 -12
c-34 -3.33301 -60.833 -12.333 -80.5 -27s-29.5 -35 -29.5 -61s8.33301 -45.167 25 -57.5s38 -18.5 64 -18.5c38 0 71.167 10.833 99.5 32.5s42.5 54.834 42.5 99.501z" />
    <glyph glyph-name="uni01CF" unicode="&#x1cf;" horiz-adv-x="265" 
d="M194 900h79l-101 -141h-78l-102 141h79l60 -86h5zM178 700v-700h-91v700h91z" />
    <glyph glyph-name="uni01D0" unicode="&#x1d0;" horiz-adv-x="227" 
d="M175 700h79l-101 -141h-78l-102 141h79l60 -86h5zM70 0v500h87v-500h-87z" />
    <glyph glyph-name="uni01D1" unicode="&#x1d1;" horiz-adv-x="823" 
d="M473 900h79l-101 -141h-78l-102 141h79l60 -86h5zM412 -10c-98.667 0 -180.999 34.168 -246.999 102.501s-99 154.166 -99 257.499c0 102.667 33 188.334 99 257.001s148.333 103 247 103c98 0 180 -34.333 246 -103s99 -154.334 99 -257.001
c0 -102 -32.833 -187.5 -98.5 -256.5s-147.834 -103.5 -246.501 -103.5zM412.001 74.001c72 0 132.167 26.5 180.5 79.5s72.5 118.5 72.5 196.5s-24.167 143.5 -72.5 196.5s-108.5 79.5 -180.5 79.5s-132.333 -26.5 -181 -79.5s-73 -118.5 -73 -196.5
s24.333 -143.5 73 -196.5s109 -79.5 181 -79.5z" />
    <glyph glyph-name="uni01D2" unicode="&#x1d2;" horiz-adv-x="607" 
d="M365 700h79l-101 -141h-78l-102 141h79l60 -86h5zM303 -10c-72 0 -131.832 24.833 -179.499 74.5s-71.5 111.5 -71.5 185.5c0 75.333 23.667 137.5 71 186.5s107.333 73.5 180 73.5c72 0 132 -24.667 180 -74s72 -111.333 72 -186s-23.833 -136.667 -71.5 -186
s-107.834 -74 -180.501 -74zM303.001 67c48 0 87.5 17.833 118.5 53.5s46.5 78.834 46.5 129.501c0 51.333 -15.5 94.666 -46.5 129.999s-70.5 53 -118.5 53c-48.667 0 -88 -17.667 -118 -53s-45 -78.666 -45 -129.999c0 -50.667 15.167 -93.834 45.5 -129.501
s69.5 -53.5 117.5 -53.5z" />
    <glyph glyph-name="uni01D3" unicode="&#x1d3;" horiz-adv-x="717" 
d="M420 900h79l-101 -141h-78l-102 141h79l60 -86h5zM630 700l-0.000976562 -436c0 -88 -24.667 -155.667 -74 -203s-114.666 -71 -195.999 -71c-82 0 -148 23.667 -198 71s-75 115 -75 203v436h91v-430c0 -63.333 16.833 -111.833 50.5 -145.5s77.5 -50.5 131.5 -50.5
s97.333 16.833 130 50.5s49 82.167 49 145.5v430h91z" />
    <glyph glyph-name="uni01D4" unicode="&#x1d4;" horiz-adv-x="561" 
d="M342 700h79l-101 -141h-78l-102 141h79l60 -86h5zM491 500l-0.000976562 -500h-79l-8 60h-7c-34 -46.667 -82.333 -70 -145 -70c-54.667 0 -98.667 17 -132 51s-50 82.333 -50 145v314h87v-295c0 -46 10.833 -80.5 32.5 -103.5s49.834 -34.5 84.501 -34.5
c37.333 0 68.333 12.5 93 37.5s37 61.833 37 110.5v285h87z" />
    <glyph glyph-name="uni01E2" unicode="&#x1e2;" horiz-adv-x="1009" 
d="M865 845v-64h-301v64h301zM613 81h348v-81h-436v191h-268l-124 -191h-107l451 700h474v-81h-338v-224h297v-79h-297v-235zM308 269h217v324h-7z" />
    <glyph glyph-name="uni01E3" unicode="&#x1e3;" horiz-adv-x="720" 
d="M499 645v-64h-301v64h301zM666 261c0 -14 -0.336914 -25.332 -1.00391 -33.999h-272c2 -112 35 -168 99 -168c22.667 0 42.834 6.66699 60.501 20s28.167 35.333 31.5 66h81c-5.33301 -52.667 -23.833 -91.667 -55.5 -117s-70.5 -38 -116.5 -38
c-68.667 0 -116.667 26.667 -144 80c-26 -53.333 -77.667 -80 -155 -80c-46.667 0 -83.667 11.667 -111 35s-41 57.333 -41 102c0 56 19.833 97.5 59.5 124.5s92.834 40.5 159.501 40.5h44v49c0 65.333 -27.333 98 -82 98c-57.333 0 -87.666 -28.333 -90.999 -85l-84 2
c2.66699 48.667 19.334 86.5 50.001 113.5s71.334 40.5 122.001 40.5c63.333 0 109 -24.333 137 -73c29.333 48.667 74.666 73 135.999 73c50.667 0 92.167 -19.333 124.5 -58s48.5 -102.334 48.5 -191.001zM491.996 441.001c-28.667 0 -51.833 -12.167 -69.5 -36.5
s-27.5 -61.833 -29.5 -112.5h191c0 52.667 -8.5 90.667 -25.5 114s-39.167 35 -66.5 35zM205.997 59.001c26.667 0 49.832 8.16797 69.499 24.501s29.5 42.833 29.5 79.5v64h-39c-94 0 -141 -31 -141 -93c0 -24.667 7.33301 -43.334 22 -56.001s34.334 -19 59.001 -19z" />
    <glyph glyph-name="Gcaron" unicode="&#x1e6;" horiz-adv-x="785" 
d="M457 900h79l-101 -141h-78l-102 141h79l60 -86h5zM400 364l298.001 -0.00195312v-364h-72l-11 81h-7c-54.667 -60.667 -128.334 -91 -221.001 -91c-97.333 0 -175.166 32.667 -233.499 98s-87.5 149.333 -87.5 252c0 106 31.833 194.167 95.5 264.5
s146.167 105.5 247.5 105.5c77.333 0 141.166 -19.333 191.499 -58s81.5 -89 93.5 -151h-98c-12 38 -34.167 68.333 -66.5 91s-72.5 34 -120.5 34c-75.333 0 -136 -26.667 -182 -80s-69 -121.666 -69 -204.999c0 -78.667 21.5 -143.167 64.5 -193.5
s101.167 -75.5 174.5 -75.5c59.333 0 109.333 14.833 150 44.5s61 71.834 61 126.501v48h-208v73z" />
    <glyph glyph-name="gcaron" unicode="&#x1e7;" horiz-adv-x="536" 
d="M312 559h-78l-102 141h79l60 -86h5l58 86h79zM515 496c-22.667 -23.333 -50.666 -43.3311 -83.999 -59.998c20.667 -28.667 31 -61.334 31 -98.001c0 -51.333 -17.667 -92.5 -53 -123.5s-80.333 -46.5 -135 -46.5c-32 0 -62 5.66699 -90 17
c-22 -11.333 -33 -26.333 -33 -45c0 -30.667 24 -46 72 -46h98c55.333 0 98.166 -12.333 128.499 -37s45.5 -59.334 45.5 -104.001c0 -52 -19.833 -92.167 -59.5 -120.5s-92.167 -42.5 -157.5 -42.5c-69.333 0 -123 16 -161 48s-59.667 73 -65 123l84 71
c-20 7.33301 -35.833 19 -47.5 35s-17.5 34.667 -17.5 56c0 39.333 21.333 70.333 64 93c-34.667 31.333 -52 72 -52 122s17.333 91.167 52 123.5s80 48.5 136 48.5c44 0 82 -10.333 114 -31c30.667 15.333 57.667 38.333 81 69zM274.001 235.002
c31.333 0 56.5 9.83301 75.5 29.5s28.5 44.167 28.5 73.5c0 31.333 -9.33301 56.666 -28 75.999s-44 29 -76 29s-57.833 -9.66699 -77.5 -29s-29.5 -44.666 -29.5 -75.999c0 -29.333 10 -53.833 30 -73.5s45.667 -29.5 77 -29.5zM411.001 -50.998
c0 26 -10 44.834 -30 56.501s-43 17.5 -69 17.5h-88l-85 -71c16 -62 62.333 -93 139 -93c37.333 0 68.833 7.66699 94.5 23s38.5 37.666 38.5 66.999z" />
    <glyph glyph-name="uni01EA" unicode="&#x1ea;" horiz-adv-x="823" 
d="M492 -1c-44.667 -16 -67 -40.3311 -67 -72.998c0 -28.667 19 -43 57 -43c14.667 0 29.667 2 45 6v-55c-12 -4.66699 -29.333 -7 -52 -7c-33.333 0 -60.333 7.5 -81 22.5s-31 37.167 -31 66.5c0 30 14.333 54.667 43 74c-97.333 1.33301 -178.333 36.166 -243 104.499
s-97 153.5 -97 255.5c0 102.667 33 188.334 99 257.001s148.333 103 247 103c98 0 180 -34.333 246 -103s99 -154.334 99 -257.001c0 -86.667 -24.5 -162.334 -73.5 -227.001s-112.833 -106 -191.5 -124zM158 350.002c0 -78 24.333 -143.5 73 -196.5s109 -79.5 181 -79.5
s132.167 26.5 180.5 79.5s72.5 118.5 72.5 196.5s-24.167 143.5 -72.5 196.5s-108.5 79.5 -180.5 79.5s-132.333 -26.5 -181 -79.5s-73 -118.5 -73 -196.5z" />
    <glyph glyph-name="uni01EB" unicode="&#x1eb;" horiz-adv-x="607" 
d="M371 -1c-44 -17.333 -66 -41.668 -66 -73.001c0 -28.667 19 -43 57 -43c14.667 0 29.667 2 45 6v-55c-12 -4.66699 -29.333 -7 -52 -7c-33.333 0 -60.333 7.5 -81 22.5s-31 37.167 -31 66.5c0 30.667 14.667 55.334 44 74.001c-68 4.66699 -124.167 31.5 -168.5 80.5
s-66.5 108.833 -66.5 179.5c0 75.333 23.667 137.5 71 186.5s107.333 73.5 180 73.5c72 0 132 -24.667 180 -74s72 -111.333 72 -186c0 -62 -17 -115.833 -51 -161.5s-78.333 -75.5 -133 -89.5zM140 249.998c0 -50.667 15.167 -93.834 45.5 -129.501s69.5 -53.5 117.5 -53.5
s87.5 17.833 118.5 53.5s46.5 78.834 46.5 129.501c0 51.333 -15.5 94.666 -46.5 129.999s-70.5 53 -118.5 53c-48.667 0 -88 -17.667 -118 -53s-45 -78.666 -45 -129.999z" />
    <glyph glyph-name="uni01F4" unicode="&#x1f4;" horiz-adv-x="785" 
d="M431 900h78l-77 -145h-71zM400 364l298.001 -0.00195312v-364h-72l-11 81h-7c-54.667 -60.667 -128.334 -91 -221.001 -91c-97.333 0 -175.166 32.667 -233.499 98s-87.5 149.333 -87.5 252c0 106 31.833 194.167 95.5 264.5s146.167 105.5 247.5 105.5
c77.333 0 141.166 -19.333 191.499 -58s81.5 -89 93.5 -151h-98c-12 38 -34.167 68.333 -66.5 91s-72.5 34 -120.5 34c-75.333 0 -136 -26.667 -182 -80s-69 -121.666 -69 -204.999c0 -78.667 21.5 -143.167 64.5 -193.5s101.167 -75.5 174.5 -75.5
c59.333 0 109.333 14.833 150 44.5s61 71.834 61 126.501v48h-208v73z" />
    <glyph glyph-name="uni01F5" unicode="&#x1f5;" horiz-adv-x="536" 
d="M385 700l-77 -145h-71l70 145h78zM515 496c-22.667 -23.333 -50.666 -43.3311 -83.999 -59.998c20.667 -28.667 31 -61.334 31 -98.001c0 -51.333 -17.667 -92.5 -53 -123.5s-80.333 -46.5 -135 -46.5c-32 0 -62 5.66699 -90 17c-22 -11.333 -33 -26.333 -33 -45
c0 -30.667 24 -46 72 -46h98c55.333 0 98.166 -12.333 128.499 -37s45.5 -59.334 45.5 -104.001c0 -52 -19.833 -92.167 -59.5 -120.5s-92.167 -42.5 -157.5 -42.5c-69.333 0 -123 16 -161 48s-59.667 73 -65 123l84 71c-20 7.33301 -35.833 19 -47.5 35
s-17.5 34.667 -17.5 56c0 39.333 21.333 70.333 64 93c-34.667 31.333 -52 72 -52 122s17.333 91.167 52 123.5s80 48.5 136 48.5c44 0 82 -10.333 114 -31c30.667 15.333 57.667 38.333 81 69zM274.001 235.002c31.333 0 56.5 9.83301 75.5 29.5s28.5 44.167 28.5 73.5
c0 31.333 -9.33301 56.666 -28 75.999s-44 29 -76 29s-57.833 -9.66699 -77.5 -29s-29.5 -44.666 -29.5 -75.999c0 -29.333 10 -53.833 30 -73.5s45.667 -29.5 77 -29.5zM411.001 -50.998c0 26 -10 44.834 -30 56.501s-43 17.5 -69 17.5h-88l-85 -71
c16 -62 62.333 -93 139 -93c37.333 0 68.833 7.66699 94.5 23s38.5 37.666 38.5 66.999z" />
    <glyph glyph-name="uni01F8" unicode="&#x1f8;" horiz-adv-x="738" 
d="M336 900l69 -145h-70l-77 145h78zM562 700h89v-700h-98l-370 546h-7v-546h-89v700h99l369 -546h7v546z" />
    <glyph glyph-name="uni01F9" unicode="&#x1f9;" horiz-adv-x="561" 
d="M246 700l69 -145h-70l-77 145h78zM70 0l0.000976562 500h79l8 -60h7c34 46.667 82.333 70 145 70c54.667 0 98.667 -17 132 -51s50 -82.333 50 -145v-314h-87v295c0 46 -10.833 80.5 -32.5 103.5s-49.834 34.5 -84.501 34.5c-36.667 0 -67.5 -12.5 -92.5 -37.5
s-37.5 -61.833 -37.5 -110.5v-285h-87z" />
    <glyph glyph-name="AEacute" unicode="&#x1fc;" horiz-adv-x="1009" 
d="M826 900l-77 -145h-71l70 145h78zM613 81h348v-81h-436v191h-268l-124 -191h-107l451 700h474v-81h-338v-224h297v-79h-297v-235zM308 269h217v324h-7z" />
    <glyph glyph-name="aeacute" unicode="&#x1fd;" horiz-adv-x="720" 
d="M461 700l-77 -145h-71l70 145h78zM666 261c0 -14 -0.336914 -25.332 -1.00391 -33.999h-272c2 -112 35 -168 99 -168c22.667 0 42.834 6.66699 60.501 20s28.167 35.333 31.5 66h81c-5.33301 -52.667 -23.833 -91.667 -55.5 -117s-70.5 -38 -116.5 -38
c-68.667 0 -116.667 26.667 -144 80c-26 -53.333 -77.667 -80 -155 -80c-46.667 0 -83.667 11.667 -111 35s-41 57.333 -41 102c0 56 19.833 97.5 59.5 124.5s92.834 40.5 159.501 40.5h44v49c0 65.333 -27.333 98 -82 98c-57.333 0 -87.666 -28.333 -90.999 -85l-84 2
c2.66699 48.667 19.334 86.5 50.001 113.5s71.334 40.5 122.001 40.5c63.333 0 109 -24.333 137 -73c29.333 48.667 74.666 73 135.999 73c50.667 0 92.167 -19.333 124.5 -58s48.5 -102.334 48.5 -191.001zM491.996 441.001c-28.667 0 -51.833 -12.167 -69.5 -36.5
s-27.5 -61.833 -29.5 -112.5h191c0 52.667 -8.5 90.667 -25.5 114s-39.167 35 -66.5 35zM205.997 59.001c26.667 0 49.832 8.16797 69.499 24.501s29.5 42.833 29.5 79.5v64h-39c-94 0 -141 -31 -141 -93c0 -24.667 7.33301 -43.334 22 -56.001s34.334 -19 59.001 -19z" />
    <glyph glyph-name="Oslashacute" unicode="&#x1fe;" horiz-adv-x="823" 
d="M524 900l-77 -145h-71l70 145h78zM649 616c72 -70 108 -158.669 108 -266.002c0 -102 -32.833 -187.5 -98.5 -256.5s-147.834 -103.5 -246.501 -103.5c-67.333 0 -128 16.667 -182 50l-62 -86l-58 41l64 89c-72 68.667 -108 157.334 -108 266.001
c0 102.667 33 188.334 99 257.001s148.333 103 247 103c64.667 0 124.334 -16.333 179.001 -49l62 86l60 -42zM155 349.998c0 -78 23.332 -143.001 69.999 -195.001l317 438c-39.333 24 -82.666 36 -129.999 36c-73.333 0 -134.5 -26.667 -183.5 -80
s-73.5 -119.666 -73.5 -198.999zM411.999 70.9971c73.333 0 134.5 26.668 183.5 80.001s73.5 119.666 73.5 198.999c0 76.667 -23.667 142 -71 196l-318 -438c39.333 -24.667 83.333 -37 132 -37z" />
    <glyph glyph-name="oslashacute" unicode="&#x1ff;" horiz-adv-x="607" 
d="M416 700l-77 -145h-71l70 145h78zM483 435c48 -49.333 72.002 -111 72.002 -185c0 -74.667 -23.833 -136.667 -71.5 -186s-107.834 -74 -180.501 -74c-48 0 -91 11.333 -129 34l-52 -69l-52 36l54 73c-48 49.333 -72 111.333 -72 186c0 75.333 23.667 137.5 71 186.5
s107.333 73.5 180 73.5c47.333 0 90.666 -11.667 129.999 -35l52 69l53 -36zM136.002 250c0 -46 12.667 -86.333 38 -121l213 284c-24.667 15.333 -52.667 23 -84 23c-49.333 0 -89.5 -18 -120.5 -54s-46.5 -80 -46.5 -132zM303.002 64c49.333 0 89.667 18 121 54
s47 80 47 132c0 46 -12.333 86 -37 120l-213 -284c24 -14.667 51.333 -22 82 -22z" />
    <glyph glyph-name="uni0218" unicode="&#x218;" horiz-adv-x="607" 
d="M537 183c0 -62.667 -21.5029 -110.499 -64.5029 -143.499s-97.167 -49.5 -162.5 -49.5c-73.333 0 -131.166 18.5 -173.499 55.5s-65.833 88.5 -70.5 154.5h89c5.33301 -42 21.333 -74.333 48 -97s62.334 -34 107.001 -34c39.333 0 71.666 9.33301 96.999 28
s38 46.667 38 84c0 21.333 -4.16699 39.833 -12.5 55.5s-20.666 28.834 -36.999 39.501s-31.166 18.667 -44.499 24s-30.666 11.333 -51.999 18l-35 10c-23.333 7.33301 -43.5 15 -60.5 23s-35.167 19.167 -54.5 33.5s-34.333 32.666 -45 54.999s-16 47.833 -16 76.5
c0 58.667 21 105.667 63 141s95.333 53 160 53c65.333 0 118.5 -18.5 159.5 -55.5s63.167 -84.5 66.5 -142.5h-90c-4 35.333 -17.5 64 -40.5 86s-54.833 33 -95.5 33c-38.667 0 -70.5 -10.333 -95.5 -31s-37.5 -47.334 -37.5 -80.001c0 -12.667 1.83301 -24.167 5.5 -34.5
s9.66699 -19.5 18 -27.5s15.833 -14.667 22.5 -20s17 -10.666 31 -15.999l30 -11.5c6 -2.33301 16.667 -5.83301 32 -10.5l31 -10c17.333 -5.33301 31.833 -10.333 43.5 -15s27.667 -12.834 48 -24.501s36.666 -24.167 48.999 -37.5s23.5 -31.5 33.5 -54.5
s15 -48.167 15 -75.5zM307.997 -59.999c20.667 0 36.667 -7.16992 48 -21.5029s17 -32.5 17 -54.5c0 -35.333 -10 -66.166 -30 -92.499s-43.667 -47.166 -71 -62.499l-26 27c38 32 57.333 61.333 58 88c-16.667 -1.33301 -30.5 3.33398 -41.5 14.001s-16.5 24.667 -16.5 42
c0 18 5.83301 32.5 17.5 43.5s26.5 16.5 44.5 16.5z" />
    <glyph glyph-name="uni0219" unicode="&#x219;" horiz-adv-x="477" 
d="M248 -10c-62 0 -109.499 14.6709 -142.499 44.0039s-50.833 68.666 -53.5 117.999h85c6 -62 43 -93 111 -93c26.667 0 48.834 5.83301 66.501 17.5s26.5 29.167 26.5 52.5c0 24.667 -9.16699 43.667 -27.5 57s-43.5 24.666 -75.5 33.999l-34 9
c-18.667 5.33301 -34.334 10.666 -47.001 15.999s-26.667 13.166 -42 23.499s-27 23.833 -35 40.5s-12 36 -12 58c0 43.333 16.5 78 49.5 104s72.833 39 119.5 39c56 0 99.333 -14 130 -42s47 -61.667 49 -101h-85c-2 22 -11.333 39.833 -28 53.5s-38.334 20.5 -65.001 20.5
c-24.667 0 -45.167 -6 -61.5 -18s-24.5 -29.333 -24.5 -52c0 -11.333 2.33301 -21.166 7 -29.499s12.167 -15.5 22.5 -21.5s19.666 -10.667 27.999 -14s20.5 -7.33301 36.5 -12l32 -10c44 -12 79.5 -29.5 106.5 -52.5s40.5 -56.5 40.5 -100.5
c0 -46.667 -16.667 -81.834 -50 -105.501s-75.666 -35.5 -126.999 -35.5zM245.001 -59.9961c20.667 0 36.667 -7.16992 48 -21.5029s17 -32.5 17 -54.5c0 -35.333 -10 -66.166 -30 -92.499s-43.667 -47.166 -71 -62.499l-26 27c38 32 57.333 61.333 58 88
c-16.667 -1.33301 -30.5 3.33398 -41.5 14.001s-16.5 24.667 -16.5 42c0 18 5.83301 32.5 17.5 43.5s26.5 16.5 44.5 16.5z" />
    <glyph glyph-name="uni021A" unicode="&#x21a;" horiz-adv-x="575" 
d="M40 700h495v-82h-202v-618h-91v618h-202v82zM285 -60c20.667 0 36.667 -7.16992 48 -21.5029s17 -32.5 17 -54.5c0 -35.333 -10 -66.166 -30 -92.499s-43.667 -47.166 -71 -62.499l-26 27c38 32 57.333 61.333 58 88c-16.667 -1.33301 -30.5 3.33398 -41.5 14.001
s-16.5 24.667 -16.5 42c0 18 5.83301 32.5 17.5 43.5s26.5 16.5 44.5 16.5z" />
    <glyph glyph-name="uni021B" unicode="&#x21b;" horiz-adv-x="358" 
d="M254 -10c-47.333 0 -80.5 11.832 -99.5 35.499s-28.5 52.834 -28.5 87.501v316h-106v71h34c29.333 0 50 5.5 62 16.5s18 30.167 18 57.5v62h80v-136h125v-71h-125v-304c0 -42 21 -63 63 -63c16 0 32.667 2.66699 50 8v-69c-26.667 -7.33301 -51 -11 -73 -11zM224 -60.001
c20.667 0 36.667 -7.16992 48 -21.5029s17 -32.5 17 -54.5c0 -35.333 -10 -66.166 -30 -92.499s-43.667 -47.166 -71 -62.499l-26 27c38 32 57.333 61.333 58 88c-16.667 -1.33301 -30.5 3.33398 -41.5 14.001s-16.5 24.667 -16.5 42c0 18 5.83301 32.5 17.5 43.5
s26.5 16.5 44.5 16.5z" />
    <glyph glyph-name="uni021E" unicode="&#x21e;" horiz-adv-x="697" 
d="M408 900h79l-101 -141h-78l-102 141h79l60 -86h5zM520 700h90v-700h-90v313h-342v-313h-91v700h91v-305h342v305z" />
    <glyph glyph-name="uni0226" unicode="&#x226;" horiz-adv-x="652" 
d="M327 780c-16 0 -29.833 5.66699 -41.5 17s-17.5 25 -17.5 41s5.83301 29.5 17.5 40.5s25.5 16.5 41.5 16.5c15.333 0 28.666 -5.5 39.999 -16.5s17 -24.5 17 -40.5s-5.66699 -29.667 -17 -41s-24.666 -17 -39.999 -17zM529 0l-64 191h-278l-64 -191h-97l244 700h112
l244 -700h-97zM213 269h225l-109 324h-7z" />
    <glyph glyph-name="uni0227" unicode="&#x227;" horiz-adv-x="529" 
d="M253 580c-16 0 -29.833 5.66699 -41.5 17s-17.5 25 -17.5 41s5.83301 29.5 17.5 40.5s25.5 16.5 41.5 16.5c15.333 0 28.666 -5.5 39.999 -16.5s17 -24.5 17 -40.5s-5.66699 -29.667 -17 -41s-24.666 -17 -39.999 -17zM488 68h13v-68h-40c-49.333 -0 -79 21.333 -89 64
c-38.667 -49.333 -93.667 -74 -165 -74c-49.333 0 -89.166 12.167 -119.499 36.5s-45.5 59.833 -45.5 106.5c0 45.333 15.5 80.833 46.5 106.5s72.167 41.167 123.5 46.5l149 14v28c0 34.667 -9 61.667 -27 81s-43.667 29 -77 29c-60 0 -96 -31.667 -108 -95h-87
c5.33301 49.333 25.166 89.5 59.499 120.5s79.5 46.5 135.5 46.5c58 0 104.5 -16 139.5 -48s52.5 -77.333 52.5 -136v-217c0 -27.333 13 -41 39 -41zM361 192v43.999l-121 -12c-34 -3.33301 -60.833 -12.333 -80.5 -27s-29.5 -35 -29.5 -61s8.33301 -45.167 25 -57.5
s38 -18.5 64 -18.5c38 0 71.167 10.833 99.5 32.5s42.5 54.834 42.5 99.501z" />
    <glyph glyph-name="uni0228" unicode="&#x228;" horiz-adv-x="586" 
d="M539 0l-196.001 0.000976562l-31 -44c24.667 1.33301 47.167 -5.33398 67.5 -20.001s30.5 -35.667 30.5 -63c0 -25.333 -8.83301 -45.5 -26.5 -60.5s-42.167 -22.5 -73.5 -22.5c-29.333 0 -53.666 7 -72.999 21l18 40c18.667 -10.667 36 -16 52 -16
s28.5 3.83301 37.5 11.5s13.5 17.5 13.5 29.5s-4.5 22 -13.5 30s-22.167 12 -39.5 12c-10.667 0 -22 -2.66699 -34 -8l-30 25l45 65h-199v700h442v-81h-353v-224h311v-79h-311v-235h363v-81z" />
    <glyph glyph-name="uni0229" unicode="&#x229;" horiz-adv-x="568" 
d="M514 260c0 -4.66699 -0.668945 -14.9971 -2.00195 -30.9971h-373c2.66699 -50 17.834 -90.333 45.501 -121s64.5 -46 110.5 -46c32.667 0 60.5 7.16699 83.5 21.5s38.833 35.166 47.5 62.499h85c-10.667 -46 -33.5 -82.667 -68.5 -110s-78.167 -42.333 -129.5 -45
l-24 -35c24.667 1.33301 47.167 -5.33398 67.5 -20.001s30.5 -35.667 30.5 -63c0 -25.333 -8.83301 -45.5 -26.5 -60.5s-42.167 -22.5 -73.5 -22.5c-29.333 0 -53.666 7 -72.999 21l18 40c18.667 -10.667 36 -16 52 -16s28.5 3.83301 37.5 11.5s13.5 17.5 13.5 29.5
s-4.5 22 -13.5 30s-22.167 12 -39.5 12c-10.667 0 -22 -2.66699 -34 -8l-30 25l40 57c-62 8.66699 -111.833 35.667 -149.5 81s-56.5 102.666 -56.5 171.999c0 79.333 22.667 143.333 68 192s102.333 73 171 73c64 0 117.167 -21.667 159.5 -65s63.5 -105 63.5 -185z
M290.998 438.003c-40.667 0 -74.832 -13.833 -102.499 -41.5s-43.834 -62.167 -48.501 -103.5h289c-0.666992 43.333 -13.667 78.333 -39 105s-58.333 40 -99 40z" />
    <glyph glyph-name="uni022E" unicode="&#x22e;" horiz-adv-x="823" 
d="M413 780c-16 0 -29.833 5.66699 -41.5 17s-17.5 25 -17.5 41s5.83301 29.5 17.5 40.5s25.5 16.5 41.5 16.5c15.333 0 28.666 -5.5 39.999 -16.5s17 -24.5 17 -40.5s-5.66699 -29.667 -17 -41s-24.666 -17 -39.999 -17zM412 -10
c-98.667 0 -180.999 34.168 -246.999 102.501s-99 154.166 -99 257.499c0 102.667 33 188.334 99 257.001s148.333 103 247 103c98 0 180 -34.333 246 -103s99 -154.334 99 -257.001c0 -102 -32.833 -187.5 -98.5 -256.5s-147.834 -103.5 -246.501 -103.5zM412.001 74.001
c72 0 132.167 26.5 180.5 79.5s72.5 118.5 72.5 196.5s-24.167 143.5 -72.5 196.5s-108.5 79.5 -180.5 79.5s-132.333 -26.5 -181 -79.5s-73 -118.5 -73 -196.5s24.333 -143.5 73 -196.5s109 -79.5 181 -79.5z" />
    <glyph glyph-name="uni022F" unicode="&#x22f;" horiz-adv-x="607" 
d="M304 580c-16 0 -29.833 5.66699 -41.5 17s-17.5 25 -17.5 41s5.83301 29.5 17.5 40.5s25.5 16.5 41.5 16.5c15.333 0 28.666 -5.5 39.999 -16.5s17 -24.5 17 -40.5s-5.66699 -29.667 -17 -41s-24.666 -17 -39.999 -17zM303 -10c-72 0 -131.832 24.833 -179.499 74.5
s-71.5 111.5 -71.5 185.5c0 75.333 23.667 137.5 71 186.5s107.333 73.5 180 73.5c72 0 132 -24.667 180 -74s72 -111.333 72 -186s-23.833 -136.667 -71.5 -186s-107.834 -74 -180.501 -74zM303.001 67c48 0 87.5 17.833 118.5 53.5s46.5 78.834 46.5 129.501
c0 51.333 -15.5 94.666 -46.5 129.999s-70.5 53 -118.5 53c-48.667 0 -88 -17.667 -118 -53s-45 -78.666 -45 -129.999c0 -50.667 15.167 -93.834 45.5 -129.501s69.5 -53.5 117.5 -53.5z" />
    <glyph glyph-name="uni0232" unicode="&#x232;" horiz-adv-x="648" 
d="M174 845h301v-64h-301v64zM512 700h110l-252 -369v-331h-91v331l-253 369h110l185 -270h6z" />
    <glyph glyph-name="uni0233" unicode="&#x233;" horiz-adv-x="531" 
d="M115 645h301v-64h-301v64zM127 -210c-20.667 0 -44.334 3.66699 -71.001 11v67c21.333 -4.66699 39.333 -7 54 -7c51.333 0 87 24.667 107 74l26 65h-30l-192 500h91l154 -409h7l146 409h91l-210 -578c-4 -12 -7.83301 -21.833 -11.5 -29.5s-10.167 -18.667 -19.5 -33
s-19.666 -26 -30.999 -35s-26.833 -17 -46.5 -24s-41.167 -10.5 -64.5 -10.5z" />
    <glyph glyph-name="uni0237" unicode="&#x237;" horiz-adv-x="227" 
d="M29 -210c-24 0 -48.332 3.66797 -72.999 11.001v67c17.333 -4.66699 33.666 -7 48.999 -7c43.333 0 65 21 65 63v576h87v-587c0 -34.667 -9.5 -63.834 -28.5 -87.501s-52.167 -35.5 -99.5 -35.5z" />
    <glyph glyph-name="circumflex" unicode="&#x2c6;" horiz-adv-x="456" 
d="M166 559h-79l101 141h78l102 -141h-79l-59 86h-5z" />
    <glyph glyph-name="caron" unicode="&#x2c7;" horiz-adv-x="456" 
d="M289 700h79l-101 -141h-78l-102 141h79l60 -86h5z" />
    <glyph glyph-name="breve" unicode="&#x2d8;" horiz-adv-x="438" 
d="M351 700c0 -34 -12.168 -64 -36.501 -90s-55.833 -39 -94.5 -39s-70.5 13 -95.5 39s-37.5 56 -37.5 90h70c0 -20.667 5.83301 -37.667 17.5 -51s26.834 -20 45.501 -20s33.5 6.66699 44.5 20s16.5 30.333 16.5 51h70z" />
    <glyph glyph-name="dotaccent" unicode="&#x2d9;" horiz-adv-x="291" 
d="M146 580c-16 0 -29.833 5.66699 -41.5 17s-17.5 25 -17.5 41s5.83301 29.5 17.5 40.5s25.5 16.5 41.5 16.5s29.5 -5.5 40.5 -16.5s16.5 -24.5 16.5 -40.5s-5.5 -29.667 -16.5 -41s-24.5 -17 -40.5 -17z" />
    <glyph glyph-name="ring" unicode="&#x2da;" horiz-adv-x="367" 
d="M184 541c-26.667 0 -49.5 9.5 -68.5 28.5s-28.5 41.167 -28.5 66.5c0 26 9.5 48.333 28.5 67s41.833 28 68.5 28c26 0 48.333 -9.33301 67 -28s28 -41 28 -67c0 -25.333 -9.33301 -47.5 -28 -66.5s-41 -28.5 -67 -28.5zM184 592c11.333 0 21.166 4.33301 29.499 13
s12.5 19 12.5 31c0 11.333 -4.16699 21.333 -12.5 30s-18.166 13 -29.499 13c-12 0 -22 -4.16699 -30 -12.5s-12 -18.5 -12 -30.5s4 -22.333 12 -31s18 -13 30 -13z" />
    <glyph glyph-name="ogonek" unicode="&#x2db;" horiz-adv-x="339" 
d="M193 20l26 -19.999c-46 -16.667 -69 -41.334 -69 -74.001c0 -28.667 19 -43 57 -43c15.333 0 30 2 44 6v-55c-12 -4.66699 -29.333 -7 -52 -7c-33.333 0 -60.333 7.5 -81 22.5s-31 37.167 -31 66.5c0 26.667 9.66699 47.667 29 63s45 29 77 41z" />
    <glyph glyph-name="tilde" unicode="&#x2dc;" horiz-adv-x="519" 
d="M432 667c-2 -33.333 -11.832 -61.335 -29.499 -84.002s-41.5 -34 -71.5 -34c-16.667 0 -32 3.33301 -46 10s-24.833 13.834 -32.5 21.501s-16.334 14.834 -26.001 21.501s-19.5 10 -29.5 10c-27.333 0 -43 -18.333 -47 -55h-63c3.33301 34.667 13.5 63.167 30.5 85.5
s40.833 33.5 71.5 33.5c17.333 0 33 -3.33301 47 -10s24.667 -14 32 -22s15.833 -15.333 25.5 -22s19.5 -10 29.5 -10c27.333 0 43 18.333 47 55h62z" />
    <glyph glyph-name="hungarumlaut" unicode="&#x2dd;" horiz-adv-x="464" 
d="M145 700h78l-64 -145h-72zM299 700h77l-64 -145h-71z" />
    <glyph glyph-name="uni1E02" unicode="&#x1e02;" horiz-adv-x="610" 
d="M313 780c-16 0 -29.833 5.66699 -41.5 17s-17.5 25 -17.5 41s5.83301 29.5 17.5 40.5s25.5 16.5 41.5 16.5c15.333 0 28.666 -5.5 39.999 -16.5s17 -24.5 17 -40.5s-5.66699 -29.667 -17 -41s-24.666 -17 -39.999 -17zM440 365c78 -29.333 117.001 -87.333 117.001 -174
c0 -60 -18.833 -106.833 -56.5 -140.5s-89.834 -50.5 -156.501 -50.5h-257v700h255c64.667 0 113.667 -15.5 147 -46.5s50 -73.5 50 -127.5c0 -73.333 -33 -125.333 -99 -156v-5zM176.001 625v-227.001h155c37.333 0 66.333 10.5 87 31.5s31 49.167 31 84.5
c0 34.667 -10.5 61.834 -31.5 81.501s-48.833 29.5 -83.5 29.5h-158zM337.001 74.999c40 0 71.332 11 93.999 33s34 51.333 34 88c0 37.333 -11.667 67.833 -35 91.5s-54.666 35.5 -93.999 35.5h-160v-248h161z" />
    <glyph glyph-name="uni1E03" unicode="&#x1e03;" horiz-adv-x="600" 
d="M113 780c-16 0 -29.833 5.66699 -41.5 17s-17.5 25 -17.5 41s5.83301 29.5 17.5 40.5s25.5 16.5 41.5 16.5c15.333 0 28.666 -5.5 39.999 -16.5s17 -24.5 17 -40.5s-5.66699 -29.667 -17 -41s-24.666 -17 -39.999 -17zM317 510c67.333 0 122.501 -23.668 165.501 -71.001
s64.5 -110 64.5 -188c0 -77.333 -21.5 -140.166 -64.5 -188.499s-98.167 -72.5 -165.5 -72.5c-68.667 0 -122.334 27 -161.001 81h-6l-8 -71h-72v710h87v-276c36 50.667 89.333 76 160 76zM306.001 66.999c45.333 0 82.333 17 111 51s43 78.333 43 133
c0 54 -14.333 97.833 -43 131.5s-65.667 50.5 -111 50.5c-44.667 0 -80.667 -16.833 -108 -50.5s-41 -77.5 -41 -131.5c0 -55.333 13.667 -99.833 41 -133.5s63.333 -50.5 108 -50.5z" />
    <glyph glyph-name="uni1E0A" unicode="&#x1e0a;" horiz-adv-x="704" 
d="M349 780c-16 0 -29.833 5.66699 -41.5 17s-17.5 25 -17.5 41s5.83301 29.5 17.5 40.5s25.5 16.5 41.5 16.5c15.333 0 28.666 -5.5 39.999 -16.5s17 -24.5 17 -40.5s-5.66699 -29.667 -17 -41s-24.666 -17 -39.999 -17zM303 700c108.667 0 191.667 -31.5 249 -94.5
s86 -148.167 86 -255.5c0 -106 -28.5 -190.833 -85.5 -254.5s-140.167 -95.5 -249.5 -95.5h-216v700h216zM298 82c85.333 0 147.833 24.5 187.5 73.5s59.5 114.5 59.5 196.5c0 81.333 -19.833 146 -59.5 194s-102.167 72 -187.5 72h-120v-536h120z" />
    <glyph glyph-name="uni1E0B" unicode="&#x1e0b;" horiz-adv-x="600" 
d="M488 780c-16 0 -29.833 5.66699 -41.5 17s-17.5 25 -17.5 41s5.83301 29.5 17.5 40.5s25.5 16.5 41.5 16.5c15.333 0 28.666 -5.5 39.999 -16.5s17 -24.5 17 -40.5s-5.66699 -29.667 -17 -41s-24.666 -17 -39.999 -17zM443 434l0.000976562 276.001h87v-710h-72l-8 71h-6
c-38.667 -54 -92.334 -81 -161.001 -81c-67.333 0 -122.5 24.167 -165.5 72.5s-64.5 111.166 -64.5 188.499c0 78 21.5 140.667 64.5 188s98.167 71 165.5 71c70.667 0 124 -25.333 160 -76zM294.001 67.001c44.667 0 80.667 16.833 108 50.5s41 78.167 41 133.5
c0 54 -13.667 97.833 -41 131.5s-63.333 50.5 -108 50.5c-45.333 0 -82.333 -16.833 -111 -50.5s-43 -77.5 -43 -131.5c0 -54.667 14.333 -99 43 -133s65.667 -51 111 -51z" />
    <glyph glyph-name="uni1E10" unicode="&#x1e10;" horiz-adv-x="704" 
d="M303 700c108.667 0 191.667 -31.5 249 -94.5s86 -148.167 86 -255.5c0 -106 -28.5 -190.833 -85.5 -254.5s-140.167 -95.5 -249.5 -95.5h-216v700h216zM298 82c85.333 0 147.833 24.5 187.5 73.5s59.5 114.5 59.5 196.5c0 81.333 -19.833 146 -59.5 194
s-102.167 72 -187.5 72h-120v-536h120zM346 -60c20.667 0 36.667 -7.16992 48 -21.5029s17 -32.5 17 -54.5c0 -35.333 -10 -66.166 -30 -92.499s-43.667 -47.166 -71 -62.499l-26 27c38 32 57.333 61.333 58 88c-16.667 -1.33301 -30.5 3.33398 -41.5 14.001
s-16.5 24.667 -16.5 42c0 18 5.83301 32.5 17.5 43.5s26.5 16.5 44.5 16.5z" />
    <glyph glyph-name="uni1E11" unicode="&#x1e11;" horiz-adv-x="600" 
d="M443 710l87.001 0.000976562v-710h-72l-8 71h-6c-38.667 -54 -92.334 -81 -161.001 -81c-67.333 0 -122.5 24.167 -165.5 72.5s-64.5 111.166 -64.5 188.499c0 78 21.5 140.667 64.5 188s98.167 71 165.5 71c70.667 0 124 -25.333 160 -76v276zM294.001 67.001
c44.667 0 80.667 16.833 108 50.5s41 78.167 41 133.5c0 54 -13.667 97.833 -41 131.5s-63.333 50.5 -108 50.5c-45.333 0 -82.333 -16.833 -111 -50.5s-43 -77.5 -43 -131.5c0 -54.667 14.333 -99 43 -133s65.667 -51 111 -51zM296.001 -59.999
c20.667 0 36.667 -7.16992 48 -21.5029s17 -32.5 17 -54.5c0 -35.333 -10 -66.166 -30 -92.499s-43.667 -47.166 -71 -62.499l-26 27c38 32 57.333 61.333 58 88c-16.667 -1.33301 -30.5 3.33398 -41.5 14.001s-16.5 24.667 -16.5 42c0 18 5.83301 32.5 17.5 43.5
s26.5 16.5 44.5 16.5z" />
    <glyph glyph-name="uni1E1E" unicode="&#x1e1e;" horiz-adv-x="555" 
d="M302 780c-16 0 -29.833 5.66699 -41.5 17s-17.5 25 -17.5 41s5.83301 29.5 17.5 40.5s25.5 16.5 41.5 16.5c15.333 0 28.666 -5.5 39.999 -16.5s17 -24.5 17 -40.5s-5.66699 -29.667 -17 -41s-24.666 -17 -39.999 -17zM516 616h-338v-231h295v-80h-295v-305h-91v700h429
v-84z" />
    <glyph glyph-name="uni1E1F" unicode="&#x1e1f;" horiz-adv-x="356" 
d="M230 780c-16 0 -29.833 5.66699 -41.5 17s-17.5 25 -17.5 41s5.83301 29.5 17.5 40.5s25.5 16.5 41.5 16.5c15.333 0 28.666 -5.5 39.999 -16.5s17 -24.5 17 -40.5s-5.66699 -29.667 -17 -41s-24.666 -17 -39.999 -17zM210 574l0.000976562 -74h117v-71h-117v-429h-88
v429h-102v71h102v82c0 40.667 12.167 72.167 36.5 94.5s57.5 33.5 99.5 33.5c28 0 54 -5 78 -15l-16 -65c-14.667 4.66699 -30.334 7 -47.001 7c-42 0 -63 -21 -63 -63z" />
    <glyph glyph-name="uni1E20" unicode="&#x1e20;" horiz-adv-x="785" 
d="M247 845h301v-64h-301v64zM400 364l298.001 -0.00195312v-364h-72l-11 81h-7c-54.667 -60.667 -128.334 -91 -221.001 -91c-97.333 0 -175.166 32.667 -233.499 98s-87.5 149.333 -87.5 252c0 106 31.833 194.167 95.5 264.5s146.167 105.5 247.5 105.5
c77.333 0 141.166 -19.333 191.499 -58s81.5 -89 93.5 -151h-98c-12 38 -34.167 68.333 -66.5 91s-72.5 34 -120.5 34c-75.333 0 -136 -26.667 -182 -80s-69 -121.666 -69 -204.999c0 -78.667 21.5 -143.167 64.5 -193.5s101.167 -75.5 174.5 -75.5
c59.333 0 109.333 14.833 150 44.5s61 71.834 61 126.501v48h-208v73z" />
    <glyph glyph-name="uni1E22" unicode="&#x1e22;" horiz-adv-x="697" 
d="M348 780c-16 0 -29.833 5.66699 -41.5 17s-17.5 25 -17.5 41s5.83301 29.5 17.5 40.5s25.5 16.5 41.5 16.5c15.333 0 28.666 -5.5 39.999 -16.5s17 -24.5 17 -40.5s-5.66699 -29.667 -17 -41s-24.666 -17 -39.999 -17zM520 700h90v-700h-90v313h-342v-313h-91v700h91
v-305h342v305z" />
    <glyph glyph-name="uni1E23" unicode="&#x1e23;" horiz-adv-x="561" 
d="M116 780c-16 0 -29.833 5.66699 -41.5 17s-17.5 25 -17.5 41s5.83301 29.5 17.5 40.5s25.5 16.5 41.5 16.5c15.333 0 28.666 -5.5 39.999 -16.5s17 -24.5 17 -40.5s-5.66699 -29.667 -17 -41s-24.666 -17 -39.999 -17zM309 510c54.667 0 98.668 -17 132.001 -51
s50 -82.333 50 -145v-314h-87v295c0 46 -10.833 80.5 -32.5 103.5s-49.834 34.5 -84.501 34.5c-36.667 0 -67.5 -12.5 -92.5 -37.5s-37.5 -61.833 -37.5 -110.5v-285h-87v710h87v-270h7c34 46.667 82.333 70 145 70z" />
    <glyph glyph-name="uni1E26" unicode="&#x1e26;" horiz-adv-x="697" 
d="M233 766c-16.667 0 -31 5.83301 -43 17.5s-18 25.834 -18 42.501s6 30.834 18 42.501s26.333 17.5 43 17.5s30.834 -5.83301 42.501 -17.5s17.5 -25.834 17.5 -42.501s-5.83301 -30.834 -17.5 -42.501s-25.834 -17.5 -42.501 -17.5zM462 766
c-16 0 -29.833 5.83301 -41.5 17.5s-17.5 25.834 -17.5 42.501s5.83301 30.834 17.5 42.501s25.5 17.5 41.5 17.5c16.667 0 31 -5.83301 43 -17.5s18 -25.834 18 -42.501s-6 -30.834 -18 -42.501s-26.333 -17.5 -43 -17.5zM520 700h90v-700h-90v313h-342v-313h-91v700h91
v-305h342v305z" />
    <glyph glyph-name="uni1E27" unicode="&#x1e27;" horiz-adv-x="561" 
d="M24 758c-14.667 0 -27.5 5.33301 -38.5 16s-16.5 23.667 -16.5 39s5.33301 28.333 16 39s23.667 16 39 16s28.333 -5.33301 39 -16s16 -23.667 16 -39s-5.5 -28.333 -16.5 -39s-23.833 -16 -38.5 -16zM207 758c-14.667 0 -27.332 5.5 -37.999 16.5s-16 23.833 -16 38.5
c0 15.333 5.33301 28.333 16 39s23.334 16 38.001 16c15.333 0 28.166 -5.33301 38.499 -16s15.5 -23.667 15.5 -39s-5.33301 -28.333 -16 -39s-23.334 -16 -38.001 -16zM309.002 510c54.667 0 98.668 -17 132.001 -51s50 -82.333 50 -145v-314h-87v295
c0 46 -10.833 80.5 -32.5 103.5s-49.834 34.5 -84.501 34.5c-36.667 0 -67.5 -12.5 -92.5 -37.5s-37.5 -61.833 -37.5 -110.5v-285h-87v710h87v-270h7c34 46.667 82.333 70 145 70z" />
    <glyph glyph-name="uni1E28" unicode="&#x1e28;" horiz-adv-x="697" 
d="M520 700l89.999 0.000976562v-700h-90v313h-342v-313h-17l-31 -44c24.667 1.33301 47.167 -5.33398 67.5 -20.001s30.5 -35.667 30.5 -63c0 -25.333 -8.83301 -45.5 -26.5 -60.5s-42.167 -22.5 -73.5 -22.5c-29.333 0 -53.666 7 -72.999 21l18 40
c18.667 -10.667 36 -16 52 -16s28.5 3.83301 37.5 11.5s13.5 17.5 13.5 29.5s-4.5 22 -13.5 30s-22.167 12 -39.5 12c-10.667 0 -22 -2.66699 -34 -8l-30 25l45 65h-17v700h91v-305h342v305z" />
    <glyph glyph-name="uni1E29" unicode="&#x1e29;" horiz-adv-x="561" 
d="M309 510c54.667 0 98.667 -16.999 132 -50.999s50 -82.333 50 -145v-314h-87v295c0 46 -10.833 80.5 -32.5 103.5s-49.834 34.5 -84.501 34.5c-36.667 0 -67.5 -12.5 -92.5 -37.5s-37.5 -61.833 -37.5 -110.5v-285h-13l-31 -44
c24.667 1.33301 47.167 -5.33398 67.5 -20.001s30.5 -35.667 30.5 -63c0 -25.333 -8.83301 -45.5 -26.5 -60.5s-42.167 -22.5 -73.5 -22.5c-29.333 0 -53.666 7 -72.999 21l18 40c18.667 -10.667 36 -16 52 -16s28.5 3.83301 37.5 11.5s13.5 17.5 13.5 29.5
s-4.5 22 -13.5 30s-22.167 12 -39.5 12c-10.667 0 -22 -2.66699 -34 -8l-30 25l45 65h-17v710h87v-270h7c34 46.667 82.333 70 145 70z" />
    <glyph glyph-name="uni1E40" unicode="&#x1e40;" horiz-adv-x="878" 
d="M440 780c-16 0 -29.833 5.66699 -41.5 17s-17.5 25 -17.5 41s5.83301 29.5 17.5 40.5s25.5 16.5 41.5 16.5c15.333 0 28.666 -5.5 39.999 -16.5s17 -24.5 17 -40.5s-5.66699 -29.667 -17 -41s-24.666 -17 -39.999 -17zM790 700v-700h-89v538h-6l-206 -458h-98l-207 458
h-8v-538h-89v700h116l233 -525h7l232 525h115z" />
    <glyph glyph-name="uni1E41" unicode="&#x1e41;" horiz-adv-x="829" 
d="M415 580c-16 0 -29.833 5.66699 -41.5 17s-17.5 25 -17.5 41s5.83301 29.5 17.5 40.5s25.5 16.5 41.5 16.5c15.333 0 28.666 -5.5 39.999 -16.5s17 -24.5 17 -40.5s-5.66699 -29.667 -17 -41s-24.666 -17 -39.999 -17zM70 0v500.001h79l8 -60h7c32 46.667 77 70 135 70
c66 0 111.333 -29.333 136 -88h6c32.667 58.667 84 88 154 88c49.333 0 89 -15 119 -45s45 -73.333 45 -130v-335h-88v318c0 37.333 -9.66699 65.833 -29 85.5s-43.333 29.5 -72 29.5c-33.333 0 -60.333 -11.833 -81 -35.5s-31 -54.5 -31 -92.5v-305h-88v311
c0 39.333 -9.5 69.5 -28.5 90.5s-43.167 31.5 -72.5 31.5s-55.333 -10.833 -78 -32.5s-34 -52.834 -34 -93.501v-307h-87z" />
    <glyph glyph-name="uni1E44" unicode="&#x1e44;" horiz-adv-x="738" 
d="M370 780c-16 0 -29.833 5.66699 -41.5 17s-17.5 25 -17.5 41s5.83301 29.5 17.5 40.5s25.5 16.5 41.5 16.5c15.333 0 28.666 -5.5 39.999 -16.5s17 -24.5 17 -40.5s-5.66699 -29.667 -17 -41s-24.666 -17 -39.999 -17zM562 700h89v-700h-98l-370 546h-7v-546h-89v700h99
l369 -546h7v546z" />
    <glyph glyph-name="uni1E45" unicode="&#x1e45;" horiz-adv-x="561" 
d="M281 580c-16 0 -29.833 5.66699 -41.5 17s-17.5 25 -17.5 41s5.83301 29.5 17.5 40.5s25.5 16.5 41.5 16.5c15.333 0 28.666 -5.5 39.999 -16.5s17 -24.5 17 -40.5s-5.66699 -29.667 -17 -41s-24.666 -17 -39.999 -17zM70 0l0.000976562 500h79l8 -60h7
c34 46.667 82.333 70 145 70c54.667 0 98.667 -17 132 -51s50 -82.333 50 -145v-314h-87v295c0 46 -10.833 80.5 -32.5 103.5s-49.834 34.5 -84.501 34.5c-36.667 0 -67.5 -12.5 -92.5 -37.5s-37.5 -61.833 -37.5 -110.5v-285h-87z" />
    <glyph glyph-name="uni1E56" unicode="&#x1e56;" horiz-adv-x="630" 
d="M319 780c-16 0 -29.833 5.66699 -41.5 17s-17.5 25 -17.5 41s5.83301 29.5 17.5 40.5s25.5 16.5 41.5 16.5c15.333 0 28.666 -5.5 39.999 -16.5s17 -24.5 17 -40.5s-5.66699 -29.667 -17 -41s-24.666 -17 -39.999 -17zM344 700c66.667 0 120 -19.333 160 -58
s60 -89.334 60 -152.001c0 -65.333 -20.5 -117.166 -61.5 -155.499s-96.167 -57.5 -165.5 -57.5h-162v-277h-88v700h257zM329 358c45.333 0 80.334 11.667 105.001 35s37 55.333 37 96s-12.333 72.5 -37 95.5s-57.334 34.5 -98.001 34.5h-161v-261h154z" />
    <glyph glyph-name="uni1E57" unicode="&#x1e57;" horiz-adv-x="600" 
d="M299 580c-16 0 -29.833 5.66699 -41.5 17s-17.5 25 -17.5 41s5.83301 29.5 17.5 40.5s25.5 16.5 41.5 16.5c15.333 0 28.666 -5.5 39.999 -16.5s17 -24.5 17 -40.5s-5.66699 -29.667 -17 -41s-24.666 -17 -39.999 -17zM317 510c67.333 0 122.499 -24.168 165.499 -72.501
s64.5 -111.166 64.5 -188.499c0 -78 -21.5 -140.667 -64.5 -188s-98.167 -71 -165.5 -71c-70.667 0 -124 25.333 -160 76v-266h-87v700h72l8 -71h6c38.667 54 92.334 81 161.001 81zM305.999 66.999c45.333 0 82.333 16.833 111 50.5s43 77.5 43 131.5
c0 54.667 -14.333 99 -43 133s-65.667 51 -111 51c-44.667 0 -80.667 -16.833 -108 -50.5s-41 -78.167 -41 -133.5c0 -54 13.667 -97.833 41 -131.5s63.333 -50.5 108 -50.5z" />
    <glyph glyph-name="uni1E58" unicode="&#x1e58;" horiz-adv-x="623" 
d="M319 780c-16 0 -29.833 5.66699 -41.5 17s-17.5 25 -17.5 41s5.83301 29.5 17.5 40.5s25.5 16.5 41.5 16.5c15.333 0 28.666 -5.5 39.999 -16.5s17 -24.5 17 -40.5s-5.66699 -29.667 -17 -41s-24.666 -17 -39.999 -17zM584 0l-100 -0.000976562l-172 294h-136v-294h-89
v700h247c67.333 0 120.5 -18 159.5 -54s58.5 -84 58.5 -144c0 -49.333 -13.333 -90.666 -40 -123.999s-63.667 -56.333 -111 -69zM176 620.999v-247.999h146c43.333 0 77.5 11.5 102.5 34.5s37.5 53.167 37.5 90.5c0 39.333 -12.5 69.666 -37.5 90.999s-59.167 32 -102.5 32
h-146z" />
    <glyph glyph-name="uni1E59" unicode="&#x1e59;" horiz-adv-x="356" 
d="M203 580c-16 0 -29.833 5.66699 -41.5 17s-17.5 25 -17.5 41s5.83301 29.5 17.5 40.5s25.5 16.5 41.5 16.5c15.333 0 28.666 -5.5 39.999 -16.5s17 -24.5 17 -40.5s-5.66699 -29.667 -17 -41s-24.666 -17 -39.999 -17zM70 0v500.001h79l8 -69h7
c14.667 25.333 32.667 44.833 54 58.5s51 20.5 89 20.5h29v-88c-10 1.33301 -25 2 -45 2c-42.667 0 -75.667 -14.833 -99 -44.5s-35 -68.834 -35 -117.501v-262h-87z" />
    <glyph glyph-name="uni1E60" unicode="&#x1e60;" horiz-adv-x="607" 
d="M311 780c-16 0 -29.833 5.66699 -41.5 17s-17.5 25 -17.5 41s5.83301 29.5 17.5 40.5s25.5 16.5 41.5 16.5c15.333 0 28.666 -5.5 39.999 -16.5s17 -24.5 17 -40.5s-5.66699 -29.667 -17 -41s-24.666 -17 -39.999 -17zM537 183
c0 -62.667 -21.5029 -110.499 -64.5029 -143.499s-97.167 -49.5 -162.5 -49.5c-73.333 0 -131.166 18.5 -173.499 55.5s-65.833 88.5 -70.5 154.5h89c5.33301 -42 21.333 -74.333 48 -97s62.334 -34 107.001 -34c39.333 0 71.666 9.33301 96.999 28s38 46.667 38 84
c0 21.333 -4.16699 39.833 -12.5 55.5s-20.666 28.834 -36.999 39.501s-31.166 18.667 -44.499 24s-30.666 11.333 -51.999 18l-35 10c-23.333 7.33301 -43.5 15 -60.5 23s-35.167 19.167 -54.5 33.5s-34.333 32.666 -45 54.999s-16 47.833 -16 76.5
c0 58.667 21 105.667 63 141s95.333 53 160 53c65.333 0 118.5 -18.5 159.5 -55.5s63.167 -84.5 66.5 -142.5h-90c-4 35.333 -17.5 64 -40.5 86s-54.833 33 -95.5 33c-38.667 0 -70.5 -10.333 -95.5 -31s-37.5 -47.334 -37.5 -80.001c0 -12.667 1.83301 -24.167 5.5 -34.5
s9.66699 -19.5 18 -27.5s15.833 -14.667 22.5 -20s17 -10.666 31 -15.999l30 -11.5c6 -2.33301 16.667 -5.83301 32 -10.5l31 -10c17.333 -5.33301 31.833 -10.333 43.5 -15s27.667 -12.834 48 -24.501s36.666 -24.167 48.999 -37.5s23.5 -31.5 33.5 -54.5
s15 -48.167 15 -75.5z" />
    <glyph glyph-name="uni1E61" unicode="&#x1e61;" horiz-adv-x="477" 
d="M231 580c-16 0 -29.833 5.66699 -41.5 17s-17.5 25 -17.5 41s5.83301 29.5 17.5 40.5s25.5 16.5 41.5 16.5c15.333 0 28.666 -5.5 39.999 -16.5s17 -24.5 17 -40.5s-5.66699 -29.667 -17 -41s-24.666 -17 -39.999 -17zM248 -10c-62 0 -109.499 14.6709 -142.499 44.0039
s-50.833 68.666 -53.5 117.999h85c6 -62 43 -93 111 -93c26.667 0 48.834 5.83301 66.501 17.5s26.5 29.167 26.5 52.5c0 24.667 -9.16699 43.667 -27.5 57s-43.5 24.666 -75.5 33.999l-34 9c-18.667 5.33301 -34.334 10.666 -47.001 15.999s-26.667 13.166 -42 23.499
s-27 23.833 -35 40.5s-12 36 -12 58c0 43.333 16.5 78 49.5 104s72.833 39 119.5 39c56 0 99.333 -14 130 -42s47 -61.667 49 -101h-85c-2 22 -11.333 39.833 -28 53.5s-38.334 20.5 -65.001 20.5c-24.667 0 -45.167 -6 -61.5 -18s-24.5 -29.333 -24.5 -52
c0 -11.333 2.33301 -21.166 7 -29.499s12.167 -15.5 22.5 -21.5s19.666 -10.667 27.999 -14s20.5 -7.33301 36.5 -12l32 -10c44 -12 79.5 -29.5 106.5 -52.5s40.5 -56.5 40.5 -100.5c0 -46.667 -16.667 -81.834 -50 -105.501s-75.666 -35.5 -126.999 -35.5z" />
    <glyph glyph-name="uni1E7C" unicode="&#x1e7c;" horiz-adv-x="659" 
d="M501 867c-2 -32.667 -11.667 -60.502 -29 -83.502s-41 -34.5 -71 -34.5c-16.667 0 -32 3.33301 -46 10s-24.833 13.834 -32.5 21.501s-16.5 14.834 -26.5 21.501s-20 10 -30 10c-26.667 0 -42 -18.333 -46 -55h-63c3.33301 34.667 13.5 63.167 30.5 85.5
s40.5 33.5 70.5 33.5c17.333 0 33 -3.33301 47 -10s24.667 -14 32 -22s15.833 -15.333 25.5 -22s19.5 -10 29.5 -10c27.333 0 43 18.333 47 55h62zM535 699.998h97l-247 -700h-112l-247 700h98l202 -581h7z" />
    <glyph glyph-name="uni1E7D" unicode="&#x1e7d;" horiz-adv-x="531" 
d="M437 667c-2 -32.667 -11.667 -60.502 -29 -83.502s-41 -34.5 -71 -34.5c-16.667 0 -32 3.33301 -46 10s-24.833 13.834 -32.5 21.501s-16.5 14.834 -26.5 21.501s-20 10 -30 10c-26.667 0 -42 -18.333 -46 -55h-63c3.33301 34.667 13.5 63.167 30.5 85.5
s40.5 33.5 70.5 33.5c17.333 0 33 -3.33301 47 -10s24.667 -14 32 -22s15.833 -15.333 25.5 -22s19.5 -10 29.5 -10c27.333 0 43 18.333 47 55h62zM211 -0.00195312l-190 500h91l150 -409h7l150 409h91l-190 -500h-109z" />
    <glyph glyph-name="Wgrave" unicode="&#x1e80;" horiz-adv-x="895" 
d="M414 900l69 -145h-70l-77 145h78zM781 700h87l-156 -700h-105l-156 535h-7l-156 -535h-105l-157 700h89l122 -572h7l153 522h101l152 -522h7z" />
    <glyph glyph-name="wgrave" unicode="&#x1e81;" horiz-adv-x="720" 
d="M326 700l69 -145h-70l-77 145h78zM147 0l-126 500h83l93 -399h7l108 363h97l107 -363h7l94 399h83l-128 -500h-102l-106 367h-7l-109 -367h-101z" />
    <glyph glyph-name="Wacute" unicode="&#x1e82;" horiz-adv-x="895" 
d="M482 900h78l-77 -145h-71zM781 700h87l-156 -700h-105l-156 535h-7l-156 -535h-105l-157 700h89l122 -572h7l153 522h101l152 -522h7z" />
    <glyph glyph-name="wacute" unicode="&#x1e83;" horiz-adv-x="720" 
d="M394 700h78l-77 -145h-71zM147 0l-126 500h83l93 -399h7l108 363h97l107 -363h7l94 399h83l-128 -500h-102l-106 367h-7l-109 -367h-101z" />
    <glyph glyph-name="Wdieresis" unicode="&#x1e84;" horiz-adv-x="895" 
d="M334 766c-16.667 0 -31 5.83301 -43 17.5s-18 25.834 -18 42.501s6 30.834 18 42.501s26.333 17.5 43 17.5s30.834 -5.83301 42.501 -17.5s17.5 -25.834 17.5 -42.501s-5.83301 -30.834 -17.5 -42.501s-25.834 -17.5 -42.501 -17.5zM563 766
c-16 0 -29.833 5.83301 -41.5 17.5s-17.5 25.834 -17.5 42.501s5.83301 30.834 17.5 42.501s25.5 17.5 41.5 17.5c16.667 0 31 -5.83301 43 -17.5s18 -25.834 18 -42.501s-6 -30.834 -18 -42.501s-26.333 -17.5 -43 -17.5zM781 700h87l-156 -700h-105l-156 535h-7l-156 -535
h-105l-157 700h89l122 -572h7l153 522h101l152 -522h7z" />
    <glyph glyph-name="wdieresis" unicode="&#x1e85;" horiz-adv-x="720" 
d="M269 558c-15.333 0 -28.333 5.33301 -39 16s-16 23.667 -16 39s5.33301 28.333 16 39s23.667 16 39 16s28.333 -5.33301 39 -16s16 -23.667 16 -39s-5.33301 -28.333 -16 -39s-23.667 -16 -39 -16zM452 558c-14.667 0 -27.332 5.5 -37.999 16.5s-16 23.833 -16 38.5
c0 15.333 5.33301 28.333 16 39s23.334 16 38.001 16c15.333 0 28.166 -5.33301 38.499 -16s15.5 -23.667 15.5 -39s-5.33301 -28.333 -16 -39s-23.334 -16 -38.001 -16zM147.002 0l-126 500h83l93 -399h7l108 363h97l107 -363h7l94 399h83l-128 -500h-102l-106 367h-7
l-109 -367h-101z" />
    <glyph glyph-name="uni1E8C" unicode="&#x1e8c;" horiz-adv-x="619" 
d="M195 766c-16.667 0 -31 5.83301 -43 17.5s-18 25.834 -18 42.501s6 30.834 18 42.501s26.333 17.5 43 17.5s30.834 -5.83301 42.501 -17.5s17.5 -25.834 17.5 -42.501s-5.83301 -30.834 -17.5 -42.501s-25.834 -17.5 -42.501 -17.5zM424 766
c-16 0 -29.833 5.83301 -41.5 17.5s-17.5 25.834 -17.5 42.501s5.83301 30.834 17.5 42.501s25.5 17.5 41.5 17.5c16.667 0 31 -5.83301 43 -17.5s18 -25.834 18 -42.501s-6 -30.834 -18 -42.501s-26.333 -17.5 -43 -17.5zM487 0l-173 284h-6l-173 -284h-109l223 361
l-212 339h108l163 -264h6l164 264h104l-212 -339l223 -361h-106z" />
    <glyph glyph-name="uni1E8D" unicode="&#x1e8d;" horiz-adv-x="499" 
d="M158 558c-14.667 0 -27.5 5.33301 -38.5 16s-16.5 23.667 -16.5 39s5.33301 28.333 16 39s23.667 16 39 16s28.333 -5.33301 39 -16s16 -23.667 16 -39s-5.5 -28.333 -16.5 -39s-23.833 -16 -38.5 -16zM341 558c-14.667 0 -27.332 5.5 -37.999 16.5s-16 23.833 -16 38.5
c0 15.333 5.33301 28.333 16 39s23.334 16 38.001 16c15.333 0 28.166 -5.33301 38.499 -16s15.5 -23.667 15.5 -39s-5.33301 -28.333 -16 -39s-23.334 -16 -38.001 -16zM21.002 0l173 259l-159 241h100l112 -172h6l110 172h99l-156 -241l172 -259h-101l-124 191h-6
l-126 -191h-100z" />
    <glyph glyph-name="uni1E90" unicode="&#x1e90;" horiz-adv-x="617" 
d="M254 759h-79l101 141h78l102 -141h-79l-59 86h-6zM199 82h348v-82h-481v51l352 562v5h-331v82h458v-51l-346 -562v-5z" />
    <glyph glyph-name="uni1E97" unicode="&#x1e97;" horiz-adv-x="358" 
d="M83 694c-15.333 0 -28.333 5.33301 -39 16s-16 23.667 -16 39s5.33301 28.333 16 39s23.667 16 39 16s28.333 -5.33301 39 -16s16 -23.667 16 -39s-5.33301 -28.333 -16 -39s-23.667 -16 -39 -16zM266 694c-14.667 0 -27.332 5.5 -37.999 16.5s-16 23.833 -16 38.5
c0 15.333 5.33301 28.333 16 39s23.334 16 38.001 16c15.333 0 28.166 -5.33301 38.499 -16s15.5 -23.667 15.5 -39s-5.33301 -28.333 -16 -39s-23.334 -16 -38.001 -16zM254.002 -10c-47.333 0 -80.5 11.832 -99.5 35.499s-28.5 52.834 -28.5 87.501v316h-106v71h34
c29.333 0 50 5.5 62 16.5s18 30.167 18 57.5v62h80v-136h125v-71h-125v-304c0 -42 21 -63 63 -63c16 0 32.667 2.66699 50 8v-69c-26.667 -7.33301 -51 -11 -73 -11z" />
    <glyph glyph-name="uni1E98" unicode="&#x1e98;" horiz-adv-x="720" 
d="M360 541c-26 0 -48.5 9.5 -67.5 28.5s-28.5 41.167 -28.5 66.5c0 26 9.5 48.333 28.5 67s41.5 28 67.5 28s48.5 -9.33301 67.5 -28s28.5 -41 28.5 -67c0 -25.333 -9.5 -47.5 -28.5 -66.5s-41.5 -28.5 -67.5 -28.5zM361 592c11.333 0 21 4.33301 29 13s12 19 12 31
c0 11.333 -4.16699 21.333 -12.5 30s-17.833 13 -28.5 13c-12 0 -22.167 -4.16699 -30.5 -12.5s-12.5 -18.5 -12.5 -30.5s4.16699 -22.333 12.5 -31s18.5 -13 30.5 -13zM147 0l-126 500h83l93 -399h7l108 363h97l107 -363h7l94 399h83l-128 -500h-102l-106 367h-7l-109 -367
h-101z" />
    <glyph glyph-name="uni1E99" unicode="&#x1e99;" horiz-adv-x="531" 
d="M265 541c-26 0 -48.5 9.5 -67.5 28.5s-28.5 41.167 -28.5 66.5c0 26 9.5 48.333 28.5 67s41.5 28 67.5 28s48.5 -9.33301 67.5 -28s28.5 -41 28.5 -67c0 -25.333 -9.5 -47.5 -28.5 -66.5s-41.5 -28.5 -67.5 -28.5zM266 592c11.333 0 21 4.33301 29 13s12 19 12 31
c0 11.333 -4.16699 21.333 -12.5 30s-17.833 13 -28.5 13c-12 0 -22.167 -4.16699 -30.5 -12.5s-12.5 -18.5 -12.5 -30.5s4.16699 -22.333 12.5 -31s18.5 -13 30.5 -13zM127 -210c-20.667 0 -44.334 3.66699 -71.001 11v67c21.333 -4.66699 39.333 -7 54 -7
c51.333 0 87 24.667 107 74l26 65h-30l-192 500h91l154 -409h7l146 409h91l-210 -578c-4 -12 -7.83301 -21.833 -11.5 -29.5s-10.167 -18.667 -19.5 -33s-19.666 -26 -30.999 -35s-26.833 -17 -46.5 -24s-41.167 -10.5 -64.5 -10.5z" />
    <glyph glyph-name="uni1E9E" unicode="&#x1e9e;" horiz-adv-x="1202" 
d="M537 183c0 -62.667 -21.5029 -110.499 -64.5029 -143.499s-97.167 -49.5 -162.5 -49.5c-73.333 0 -131.166 18.5 -173.499 55.5s-65.833 88.5 -70.5 154.5h89c5.33301 -42 21.333 -74.333 48 -97s62.334 -34 107.001 -34c39.333 0 71.666 9.33301 96.999 28
s38 46.667 38 84c0 21.333 -4.16699 39.833 -12.5 55.5s-20.666 28.834 -36.999 39.501s-31.166 18.667 -44.499 24s-30.666 11.333 -51.999 18l-35 10c-23.333 7.33301 -43.5 15 -60.5 23s-35.167 19.167 -54.5 33.5s-34.333 32.666 -45 54.999s-16 47.833 -16 76.5
c0 58.667 21 105.667 63 141s95.333 53 160 53c65.333 0 118.5 -18.5 159.5 -55.5s63.167 -84.5 66.5 -142.5h-90c-4 35.333 -17.5 64 -40.5 86s-54.833 33 -95.5 33c-38.667 0 -70.5 -10.333 -95.5 -31s-37.5 -47.334 -37.5 -80.001c0 -12.667 1.83301 -24.167 5.5 -34.5
s9.66699 -19.5 18 -27.5s15.833 -14.667 22.5 -20s17 -10.666 31 -15.999l30 -11.5c6 -2.33301 16.667 -5.83301 32 -10.5l31 -10c17.333 -5.33301 31.833 -10.333 43.5 -15s27.667 -12.834 48 -24.501s36.666 -24.167 48.999 -37.5s23.5 -31.5 33.5 -54.5
s15 -48.167 15 -75.5zM1133 183.001c0 -62.667 -21.5029 -110.499 -64.5029 -143.499s-97.167 -49.5 -162.5 -49.5c-73.333 0 -131.166 18.5 -173.499 55.5s-65.833 88.5 -70.5 154.5h89c5.33301 -42 21.333 -74.333 48 -97s62.334 -34 107.001 -34
c39.333 0 71.666 9.33301 96.999 28s38 46.667 38 84c0 21.333 -4.16699 39.833 -12.5 55.5s-20.666 28.834 -36.999 39.501s-31.166 18.667 -44.499 24s-30.666 11.333 -51.999 18l-35 10c-23.333 7.33301 -43.5 15 -60.5 23s-35.167 19.167 -54.5 33.5
s-34.333 32.666 -45 54.999s-16 47.833 -16 76.5c0 58.667 21 105.667 63 141s95.333 53 160 53c65.333 0 118.5 -18.5 159.5 -55.5s63.167 -84.5 66.5 -142.5h-90c-4 35.333 -17.5 64 -40.5 86s-54.833 33 -95.5 33c-38.667 0 -70.5 -10.333 -95.5 -31
s-37.5 -47.334 -37.5 -80.001c0 -12.667 1.83301 -24.167 5.5 -34.5s9.66699 -19.5 18 -27.5s15.833 -14.667 22.5 -20s17 -10.666 31 -15.999l30 -11.5c6 -2.33301 16.667 -5.83301 32 -10.5l31 -10c17.333 -5.33301 31.833 -10.333 43.5 -15s27.667 -12.834 48 -24.501
s36.666 -24.167 48.999 -37.5s23.5 -31.5 33.5 -54.5s15 -48.167 15 -75.5z" />
    <glyph glyph-name="uni1EA0" unicode="&#x1ea0;" horiz-adv-x="652" 
d="M626 0h-97l-64 191h-278l-64 -191h-97l244 700h112zM213 269h225l-109 324h-7zM328 -80c15.333 0 28.666 -5.5 39.999 -16.5s17 -24.5 17 -40.5s-5.66699 -29.667 -17 -41s-24.666 -17 -39.999 -17c-16 0 -29.833 5.66699 -41.5 17s-17.5 25 -17.5 41
s5.83301 29.5 17.5 40.5s25.5 16.5 41.5 16.5z" />
    <glyph glyph-name="uni1EA1" unicode="&#x1ea1;" horiz-adv-x="529" 
d="M488 68h13v-68h-40c-49.333 -0 -79 21.333 -89 64c-38.667 -49.333 -93.667 -74 -165 -74c-49.333 0 -89.166 12.167 -119.499 36.5s-45.5 59.833 -45.5 106.5c0 45.333 15.5 80.833 46.5 106.5s72.167 41.167 123.5 46.5l149 14v28c0 34.667 -9 61.667 -27 81
s-43.667 29 -77 29c-60 0 -96 -31.667 -108 -95h-87c5.33301 49.333 25.166 89.5 59.499 120.5s79.5 46.5 135.5 46.5c58 0 104.5 -16 139.5 -48s52.5 -77.333 52.5 -136v-217c0 -27.333 13 -41 39 -41zM361 192v43.999l-121 -12c-34 -3.33301 -60.833 -12.333 -80.5 -27
s-29.5 -35 -29.5 -61s8.33301 -45.167 25 -57.5s38 -18.5 64 -18.5c38 0 71.167 10.833 99.5 32.5s42.5 54.834 42.5 99.501zM264 -80.001c15.333 0 28.666 -5.5 39.999 -16.5s17 -24.5 17 -40.5s-5.66699 -29.667 -17 -41s-24.666 -17 -39.999 -17
c-16 0 -29.833 5.66699 -41.5 17s-17.5 25 -17.5 41s5.83301 29.5 17.5 40.5s25.5 16.5 41.5 16.5z" />
    <glyph glyph-name="uni1EB8" unicode="&#x1eb8;" horiz-adv-x="586" 
d="M176 81h363v-81h-452v700h442v-81h-353v-224h311v-79h-311v-235zM315 -195c-16 0 -29.833 5.66699 -41.5 17s-17.5 25 -17.5 41s5.83301 29.5 17.5 40.5s25.5 16.5 41.5 16.5c15.333 0 28.666 -5.5 39.999 -16.5s17 -24.5 17 -40.5s-5.66699 -29.667 -17 -41
s-24.666 -17 -39.999 -17z" />
    </font>
</defs>
</svg>
