<?xml version="1.0" standalone="no"?>
<!DOCTYPE svg PUBLIC "-//W3C//DTD SVG 1.1//EN" "http://www.w3.org/Graphics/SVG/1.1/DTD/svg11.dtd" >
<svg>
<metadata>
Created by FontForge 20090914 at Wed Jan 26 14:48:33 2022
 By www-data
&#194;&#169; TIGHTYPE 2019
</metadata>
<defs>
<font id="Moderat-Black" horiz-adv-x="607" >
  <font-face 
    font-family="Moderat Black"
    font-weight="900"
    font-stretch="normal"
    units-per-em="1000"
    panose-1="0 0 10 0 0 0 0 0 0 0"
    ascent="800"
    descent="-200"
    x-height="500"
    cap-height="700"
    bbox="-141 -353.003 1169 932"
    underline-thickness="50"
    underline-position="-150"
    unicode-range="U+0020-U+2793"
  />
<missing-glyph horiz-adv-x="809" 
d="M765 350c0 -100 -35 -185.001 -105 -255.001s-155 -105 -255 -105s-185 35.333 -255 106s-105 155.334 -105 254.001c0 99.333 35.167 184.166 105.5 254.499s155.166 105.5 254.499 105.5c100.667 0 185.834 -35.167 255.501 -105.5s104.5 -155.166 104.5 -254.499z
M217 532.999v-45h44v-128h46v128h44v45h-134zM459 532.999v-45h45v-128h45v128h45v45h-135zM405 80.999c72.667 0 134.999 25.333 186.999 76s79 111.667 81 183l-46 8c0 -61.333 -21.667 -113.5 -65 -156.5s-95.666 -64.5 -156.999 -64.5
c-60.667 0 -112.667 21.5 -156 64.5s-65 95.167 -65 156.5l-46 -8c2 -71.333 29 -132.333 81 -183s114 -76 186 -76z" />
    <glyph glyph-name="arrowleft" unicode="&#x3c;&#x2d;" horiz-adv-x="785" 
d="M758 415v-131h-521l174 -175l-86 -87l-307 321v15l307 320l86 -87l-173 -176h520z" />
    <glyph glyph-name="arrowright" unicode="&#x2d;&#x3e;" horiz-adv-x="785" 
d="M460 678l307 -320v-15l-307 -321l-86 87l174 175h-521v131h520l-173 176z" />
    <glyph glyph-name="f_f" unicode="ff" horiz-adv-x="756" 
d="M602 533v-33h133v-118h-133v-382h-150v382h-181v-382h-150v382h-108v118h108v38c0 56 16.667 98.667 50 128s78 44 134 44c28 0 53.667 -3.66699 77 -11l-20 -111c-7.33301 2 -16.666 3 -27.999 3c-42 0 -63 -19.333 -63 -58v-33h181v38c0 56 16.833 98.667 50.5 128
s78.167 44 133.5 44c34 0 69 -6 105 -18l-24 -108c-16.667 4.66699 -34.334 7 -53.001 7c-41.333 0 -62 -19.333 -62 -58z" />
    <glyph glyph-name="f_f_i" unicode="ffi" horiz-adv-x="992" 
d="M870 555c-24 0 -45.001 8.83301 -63.001 26.5s-27 38.167 -27 61.5c0 24.667 8.83301 45.5 26.5 62.5s38.834 25.5 63.501 25.5c24 0 44.5 -8.5 61.5 -25.5s25.5 -37.833 25.5 -62.5c0 -23.333 -8.5 -43.833 -25.5 -61.5s-37.5 -26.5 -61.5 -26.5zM944.999 500
l-0.00195312 -500h-150v382h-185v-382h-150v382h-189v-382h-150v382h-108v118h108v38c0 56 16.667 98.667 50 128s78 44 134 44c28 0 53.667 -3.66699 77 -11l-20 -111c-7.33301 2 -16.666 3 -27.999 3c-42 0 -63 -19.333 -63 -58v-33h189v38c0 56 16.667 98.667 50 128
s78 44 134 44c28 0 53.667 -3.66699 77 -11l-20 -111c-7.33301 2 -16.666 3 -27.999 3c-42 0 -63 -19.333 -63 -58v-33h335z" />
    <glyph glyph-name="f_f_j" unicode="ffj" horiz-adv-x="985" 
d="M866 555c-24 0 -45.001 8.83301 -63.001 26.5s-27 38.167 -27 61.5c0 24.667 8.83301 45.5 26.5 62.5s38.834 25.5 63.501 25.5c24 0 44.5 -8.5 61.5 -25.5s25.5 -37.833 25.5 -62.5c0 -23.333 -8.5 -43.833 -25.5 -61.5s-37.5 -26.5 -61.5 -26.5zM940.999 500
l-0.00195312 -552c0 -105.333 -57.667 -158 -173 -158c-30.667 0 -62.667 4 -96 12v109c16.667 -3.33301 33 -5 49 -5c46.667 0 70 20 70 60v416h-189v-382h-150v382h-181v-382h-150v382h-108v118h108v38c0 56 16.667 98.667 50 128s78 44 134 44
c28 0 53.667 -3.66699 77 -11l-20 -111c-7.33301 2 -16.666 3 -27.999 3c-42 0 -63 -19.333 -63 -58v-33h181v38c0 56 16.833 98.667 50.5 128s78.167 44 133.5 44c29.333 0 55 -3.66699 77 -11l-19 -111c-7.33301 2 -16.666 3 -27.999 3c-42.667 0 -64 -19.333 -64 -58v-33
h339z" />
    <glyph glyph-name="f_i" unicode="fi" horiz-adv-x="653" 
d="M531 555c-24 0 -45.001 8.83301 -63.001 26.5s-27 38.167 -27 61.5c0 24.667 8.83301 45.5 26.5 62.5s38.834 25.5 63.501 25.5c24 0 44.5 -8.5 61.5 -25.5s25.5 -37.833 25.5 -62.5c0 -23.333 -8.5 -43.833 -25.5 -61.5s-37.5 -26.5 -61.5 -26.5zM605.999 500
l-0.000976562 -500h-150v382h-185v-382h-150v382h-108v118h108v38c0 56 16.667 98.667 50 128s78 44 134 44c28 0 53.667 -3.66699 77 -11l-20 -111c-7.33301 2 -16.666 3 -27.999 3c-42 0 -63 -19.333 -63 -58v-33h335z" />
    <glyph glyph-name="f_j" unicode="fj" horiz-adv-x="653" 
d="M535 555c-24 0 -45.002 8.83301 -63.002 26.5s-27 38.167 -27 61.5c0 24.667 8.83301 45.5 26.5 62.5s38.834 25.5 63.501 25.5c24 0 44.5 -8.5 61.5 -25.5s25.5 -37.833 25.5 -62.5c0 -23.333 -8.66699 -43.833 -26 -61.5s-37.666 -26.5 -60.999 -26.5zM608.998 500
l-0.00195312 -552c0 -105.333 -57.667 -158 -173 -158c-30.667 0 -62.667 4 -96 12v109c16.667 -3.33301 33.334 -5 50.001 -5c46 0 69 20 69 60v416h-188v-382h-150v382h-108v118h108v38c0 56 16.667 98.667 50 128s78 44 134 44c28 0 53.667 -3.66699 77 -11l-20 -111
c-7.33301 2 -16.666 3 -27.999 3c-42 0 -63 -19.333 -63 -58v-33h338z" />
    <glyph glyph-name=".notdef" horiz-adv-x="809" 
d="M765 350c0 -100 -35 -185.001 -105 -255.001s-155 -105 -255 -105s-185 35.333 -255 106s-105 155.334 -105 254.001c0 99.333 35.167 184.166 105.5 254.499s155.166 105.5 254.499 105.5c100.667 0 185.834 -35.167 255.501 -105.5s104.5 -155.166 104.5 -254.499z
M217 532.999v-45h44v-128h46v128h44v45h-134zM459 532.999v-45h45v-128h45v128h45v45h-135zM405 80.999c72.667 0 134.999 25.333 186.999 76s79 111.667 81 183l-46 8c0 -61.333 -21.667 -113.5 -65 -156.5s-95.666 -64.5 -156.999 -64.5
c-60.667 0 -112.667 21.5 -156 64.5s-65 95.167 -65 156.5l-46 -8c2 -71.333 29 -132.333 81 -183s114 -76 186 -76z" />
    <glyph glyph-name="space" unicode=" " horiz-adv-x="270" 
 />
    <glyph glyph-name="exclam" unicode="!" horiz-adv-x="268" 
d="M59 700h150l-23 -488h-103zM136 -5c-23.333 0 -43.5 8.33301 -60.5 25s-25.5 36.667 -25.5 60c0 24 8.5 44.333 25.5 61s37.167 25 60.5 25s43.333 -8.33301 60 -25s25 -37 25 -61c0 -23.333 -8.33301 -43.333 -25 -60s-36.667 -25 -60 -25z" />
    <glyph glyph-name="quotedbl" unicode="&#x22;" horiz-adv-x="403" 
d="M167 548l-25.999 -145.998h-67l-27 147c-7.33301 41.333 -11 68.666 -11 81.999c0 24 6.5 42.333 19.5 55s30.167 19 51.5 19s38.666 -6.33301 51.999 -19s20 -31 20 -55c0 -8.66699 -4 -36.334 -12 -83.001zM356.001 548.002l-25.998 -145.999h-67l-27 147
c-8 44.667 -12 72 -12 82c0 24 6.66699 42.333 20 55s30.666 19 51.999 19s38.666 -6.33301 51.999 -19s20 -31 20 -55c0 -8.66699 -4 -36.334 -12 -83.001z" />
    <glyph glyph-name="numbersign" unicode="#" horiz-adv-x="723" 
d="M696 375h-112l-25 -111h84v-119h-110l-32 -145h-133l32 145h-156l-32 -145h-131l32 145h-86v119h112l25 111h-83v120h109l32 145h132l-32 -145h155l32 145h133l-32 -145h86v-120zM426 264l25 111h-156l-24 -111h155z" />
    <glyph glyph-name="dollar" unicode="$" horiz-adv-x="585" 
d="M539 175c0 -50.667 -16.666 -91.1709 -49.999 -121.504s-77 -49.833 -131 -58.5v-85h-119v84c-62 8.66699 -109.667 31.834 -143 69.501s-50.333 85.5 -51 143.5h153c4 -60 37.333 -90 100 -90c24 0 43.833 4.66699 59.5 14s23.5 23 23.5 41s-7.66699 33.667 -23 47
s-39.333 26 -72 38l-78 29c-96.667 36.667 -145 95.334 -145 176.001c0 49.333 16.167 90 48.5 122s74.833 52.333 127.5 61v85h119v-85c52.667 -10 94 -31.667 124 -65s45.333 -74.666 46 -123.999h-143c-6 44.667 -36 67 -90 67c-22 0 -40 -4.83301 -54 -14.5
s-21 -22.5 -21 -38.5s6.5 -29.167 19.5 -39.5s34.5 -21.166 64.5 -32.499l73 -27c53.333 -20.667 93.666 -46 120.999 -76s41 -70 41 -120z" />
    <glyph glyph-name="percent" unicode="%" horiz-adv-x="799" 
d="M200 342c-42.667 0 -79 15 -109 45s-45 66.333 -45 109c0 42 15 78.167 45 108.5s66.333 45.5 109 45.5c41.333 0 77.333 -15.167 108 -45.5s46 -66.5 46 -108.5s-15.167 -78.167 -45.5 -108.5s-66.5 -45.5 -108.5 -45.5zM690 640l-430 -640h-158l429 640h159zM199 451
c13.333 0 24.166 4.16699 32.499 12.5s12.5 19.166 12.5 32.499s-4.16699 24.166 -12.5 32.499s-19.166 12.5 -32.499 12.5c-12.667 0 -23 -4.16699 -31 -12.5s-12 -19.166 -12 -32.499s4 -24.166 12 -32.499s18.333 -12.5 31 -12.5zM599 -10
c-42 0 -78.167 15.167 -108.5 45.5s-45.5 66.5 -45.5 108.5c0 42.667 15.167 79 45.5 109s66.5 45 108.5 45s78.167 -15 108.5 -45s45.5 -66.333 45.5 -109c0 -42 -15.167 -78.167 -45.5 -108.5s-66.5 -45.5 -108.5 -45.5zM599 99c12.667 0 23.334 4.16699 32.001 12.5
s13 19.166 13 32.499s-4.33301 24.166 -13 32.499s-19.334 12.5 -32.001 12.5s-23.167 -4.16699 -31.5 -12.5s-12.5 -19.166 -12.5 -32.499s4.16699 -24.166 12.5 -32.499s18.833 -12.5 31.5 -12.5z" />
    <glyph glyph-name="ampersand" unicode="&#x26;" horiz-adv-x="706" 
d="M677 0l-156.998 0.000976562l-69 76c-58.667 -57.333 -126.334 -86 -203.001 -86c-58.667 0 -107.167 15.667 -145.5 47s-57.5 73.333 -57.5 126c0 44 11 80.5 33 109.5s52 55.833 90 80.5l19 12l-4 4c-20 22 -34.333 38.167 -43 48.5s-18 26.666 -28 48.999
s-15 44.833 -15 67.5c0 50.667 20.167 92.667 60.5 126s90.166 50 149.499 50c61.333 0 111.5 -15 150.5 -45s58.5 -70.333 58.5 -121c0 -37.333 -9.66699 -69.333 -29 -96s-48.333 -53.667 -87 -81l-32 -22l80 -89l78 91h150l-148 -181zM288.002 434.001l0.999023 -1.99805
l26 17c23.333 15.333 40.333 29.166 51 41.499s16 26.833 16 43.5c0 19.333 -7 34.666 -21 45.999s-31.333 17 -52 17c-22 0 -40 -6 -54 -18s-21 -27.667 -21 -47c0 -17.333 4.33301 -33 13 -47s22.334 -31 41.001 -51zM260.001 110.003c37.333 0 73.668 18.333 109.001 55
l-101 110l-16 -11c-42.667 -30 -64 -59.667 -64 -89c0 -19.333 6.66699 -35 20 -47s30.666 -18 51.999 -18z" />
    <glyph glyph-name="quotesingle" unicode="'" horiz-adv-x="215" 
d="M167 548l-25.999 -145.998h-67l-27 147c-7.33301 41.333 -11 68.666 -11 81.999c0 24 6.5 42.333 19.5 55s30.167 19 51.5 19s38.666 -6.33301 51.999 -19s20 -31 20 -55c0 -8.66699 -4 -36.334 -12 -83.001z" />
    <glyph glyph-name="parenleft" unicode="(" horiz-adv-x="321" 
d="M303 -118l-90 -64.001c-49.333 60.667 -89.666 132.834 -120.999 216.501s-47 175.5 -47 275.5s15.667 192 47 276s71.666 156.333 120.999 217l90 -64c-88 -126 -132 -269 -132 -429c0 -158 44 -300.667 132 -428z" />
    <glyph glyph-name="parenright" unicode=")" horiz-adv-x="321" 
d="M18 -118c88 127.333 132 269.999 132 427.999c0 160 -44 303 -132 429l90 64c50 -60.667 90.667 -133.167 122 -217.5s47 -176.166 47 -275.499s-15.667 -191 -47 -275s-72 -156.333 -122 -217z" />
    <glyph glyph-name="asterisk" unicode="*" horiz-adv-x="413" 
d="M377 576l-96 -48l96 -48l-43 -76l-90 59l6 -107h-87l7 107l-91 -59l-43 76l97 48l-97 48l43 76l91 -61l-7 109h87l-6 -109l90 61z" />
    <glyph glyph-name="plus" unicode="+" horiz-adv-x="595" 
d="M538 340v-120h-174v-160h-131v160h-176v120h176v160h131v-160h174z" />
    <glyph glyph-name="comma" unicode="," horiz-adv-x="270" 
d="M133 167c27.333 0 49.168 -10.834 65.501 -32.501s24.5 -49.5 24.5 -83.5c0 -49.333 -12.833 -92 -38.5 -128s-56.834 -65 -93.501 -87l-36 43c46 40 70.333 78.667 73 116c-19.333 -2 -37.5 4.33301 -54.5 19s-25.5 36.334 -25.5 65.001c0 27.333 8 48.833 24 64.5
s36.333 23.5 61 23.5z" />
    <glyph glyph-name="hyphen" unicode="-" horiz-adv-x="440" 
d="M27 373h386v-124h-386v124z" />
    <glyph glyph-name="period" unicode="." horiz-adv-x="265" 
d="M133 -5c-23.333 0 -43.5 8.33301 -60.5 25s-25.5 36.667 -25.5 60c0 24 8.5 44.333 25.5 61s37.167 25 60.5 25s43.333 -8.33301 60 -25s25 -37 25 -61c0 -23.333 -8.33301 -43.333 -25 -60s-36.667 -25 -60 -25z" />
    <glyph glyph-name="slash" unicode="/" horiz-adv-x="520" 
d="M502 750l-341 -800h-143l342 800h142z" />
    <glyph glyph-name="zero" unicode="0" horiz-adv-x="616" 
d="M311 -10c-82 0 -146.832 28.168 -194.499 84.501s-71.5 138.5 -71.5 246.5c0 107.333 23.833 189.166 71.5 245.499s112.167 84.5 193.5 84.5s145.166 -28.167 191.499 -84.5s69.5 -138.5 69.5 -246.5s-23.167 -190 -69.5 -246s-109.833 -84 -190.5 -84zM311.001 117.001
c67.333 0 100.999 67.332 100.999 201.999c0 136.667 -34 205 -102 205c-31.333 0 -56.666 -16.167 -75.999 -48.5s-29 -84.166 -29 -155.499c0 -135.333 35.333 -203 106 -203z" />
    <glyph glyph-name="one" unicode="1" horiz-adv-x="406" 
d="M192 0v397h-147v123h67c64.667 0 97 30.667 97 92v28h138v-640h-155z" />
    <glyph glyph-name="two" unicode="2" horiz-adv-x="562" 
d="M295 208c-38 -24 -61.002 -51.3369 -69.002 -82.0039h289v-126h-470v48c0 108.667 44.667 191.334 134 248.001l107 69c15.333 10 27.166 18.333 35.499 25s16.666 16.334 24.999 29.001s12.5 25.667 12.5 39c0 19.333 -6.5 35.333 -19.5 48s-29.833 19 -50.5 19
c-25.333 0 -45.666 -8.66699 -60.999 -26s-23.333 -37.666 -24 -60.999h-158c0.666992 24.667 6.33398 49.334 17.001 74.001s25.834 47.5 45.501 68.5s46 38 79 51s69.833 19.5 110.5 19.5c66.667 0 119.834 -16.833 159.501 -50.5s59.5 -79.5 59.5 -137.5
c0 -74 -36.667 -134.333 -110 -181z" />
    <glyph glyph-name="three" unicode="3" horiz-adv-x="593" 
d="M443 331c70.667 -27.333 105.999 -75.999 105.999 -145.999c0 -56 -23.667 -102.5 -71 -139.5s-108.666 -55.5 -183.999 -55.5c-78 0 -138.167 19.333 -180.5 58s-65.166 90.667 -68.499 156h151c11.333 -58 43.666 -87 96.999 -87c30 0 53.667 7.33301 71 22
s26 32.667 26 54c0 25.333 -9.33301 44.833 -28 58.5s-43.667 20.5 -75 20.5h-59v111h55c28.667 0 51.5 6.33301 68.5 19s25.5 31 25.5 55c0 22 -8 39.833 -24 53.5s-36.333 20.5 -61 20.5c-22.667 0 -42.334 -6.33301 -59.001 -19s-27 -30.667 -31 -54h-149
c1.33301 56.667 25.833 103 73.5 139s105.167 54 172.5 54c62.667 0 116.834 -16.333 162.501 -49s68.5 -77 68.5 -133c0 -58.667 -29 -102.334 -87 -131.001v-7z" />
    <glyph glyph-name="four" unicode="4" horiz-adv-x="619" 
d="M593 251v-115h-111v-136h-146v136h-309v76l303 428h152v-389h111zM200 251h136v190h-9z" />
    <glyph glyph-name="five" unicode="5" horiz-adv-x="578" 
d="M325 421c62.667 0 113.164 -20.001 151.497 -60.001s57.5 -90.333 57.5 -151c0 -67.333 -23.5 -120.833 -70.5 -160.5s-106.833 -59.5 -179.5 -59.5c-69.333 0 -125.666 18.333 -168.999 55s-66.666 87.334 -69.999 152.001h149c2.66699 -26.667 12.167 -47.667 28.5 -63
s37.5 -23 63.5 -23c28 0 50.667 8.66699 68 26s26 40.333 26 69c0 30 -8.16699 54.5 -24.5 73.5s-38.833 28.5 -67.5 28.5c-40 0 -69.333 -16 -88 -48l-139 32l33 348h409v-125h-276l-15 -127c28.667 22 66.334 33 113.001 33z" />
    <glyph glyph-name="six" unicode="6" horiz-adv-x="555" 
d="M318 413c57.333 0 105.166 -19.333 143.499 -58s57.5 -88.667 57.5 -150c0 -66.667 -22.5 -119.167 -67.5 -157.5s-102.5 -57.5 -172.5 -57.5c-73.333 0 -132.166 20.5 -176.499 61.5s-66.5 96.167 -66.5 165.5c0 72 29 148 87 228l137 195h184l-179 -233
c17.333 4 35 6 53 6zM280 110c27.333 0 49.333 9.33301 66 28s25 42 25 70s-8.16699 51 -24.5 69s-38.5 27 -66.5 27s-50.167 -9 -66.5 -27s-24.5 -41 -24.5 -69s8.16699 -51.333 24.5 -70s38.5 -28 66.5 -28z" />
    <glyph glyph-name="seven" unicode="7" horiz-adv-x="544" 
d="M45 640l473 0.000976562v-91c-59.333 -68 -110.333 -148.833 -153 -242.5s-67.667 -195.834 -75 -306.501h-158c17.333 205.333 77 374.333 179 507v7h-266v126z" />
    <glyph glyph-name="eight" unicode="8" horiz-adv-x="583" 
d="M429 336c29.333 -10.667 54.999 -29.667 76.999 -57s33 -61.666 33 -102.999c0 -56 -21.667 -101 -65 -135s-103.666 -51 -180.999 -51s-138 17 -182 51s-66 79 -66 135c0 41.333 11.167 75.833 33.5 103.5s47.833 46.5 76.5 56.5v7c-57.333 28 -86 71.667 -86 131
c0 53.333 20.833 96.166 62.5 128.499s96.167 48.5 163.5 48.5c66 0 119.167 -15.667 159.5 -47s60.5 -74 60.5 -128c0 -60 -28.667 -104.333 -86 -133v-7zM292.999 545c-22.667 0 -41.335 -6.66699 -56.002 -20s-22 -31.666 -22 -54.999
c0 -22.667 7.33301 -40.834 22 -54.501s33.334 -20.5 56.001 -20.5s40.834 6.66699 54.501 20s20.5 31.666 20.5 54.999c0 22.667 -7 40.834 -21 54.501s-32 20.5 -54 20.5zM292.998 101c25.333 0 46.333 7.83203 63 23.499s25 36.834 25 63.501c0 27.333 -8 49 -24 65
s-37.333 24 -64 24c-27.333 0 -49.333 -8 -66 -24s-25 -37.333 -25 -64c0 -27.333 8.66699 -48.833 26 -64.5s39 -23.5 65 -23.5z" />
    <glyph glyph-name="nine" unicode="9" horiz-adv-x="555" 
d="M276 650c72.667 0 131.333 -20.5 176 -61.5s67 -96.167 67 -165.5s-29 -145.333 -87 -228l-137 -195h-184l180 233c-18 -4 -36.333 -6 -55 -6c-56.667 0 -104.167 19.333 -142.5 58s-57.5 88.667 -57.5 150c0 66.667 22.5 119.167 67.5 157.5s102.5 57.5 172.5 57.5z
M274.999 336c28 0 50.167 9 66.5 27s24.5 41 24.5 69s-8.33301 51.333 -25 70s-38.667 28 -66 28c-28 0 -50.167 -9.33301 -66.5 -28s-24.5 -42 -24.5 -70s8.16699 -51 24.5 -69s38.5 -27 66.5 -27z" />
    <glyph glyph-name="colon" unicode=":" horiz-adv-x="265" 
d="M133 334c-23.333 0 -43.5 8.33301 -60.5 25s-25.5 36.667 -25.5 60c0 24 8.5 44.333 25.5 61s37.167 25 60.5 25s43.333 -8.33301 60 -25s25 -37 25 -61c0 -23.333 -8.33301 -43.333 -25 -60s-36.667 -25 -60 -25zM133 -5c-23.333 0 -43.5 8.33301 -60.5 25
s-25.5 36.667 -25.5 60c0 24 8.5 44.333 25.5 61s37.167 25 60.5 25s43.333 -8.33301 60 -25s25 -37 25 -61c0 -23.333 -8.33301 -43.333 -25 -60s-36.667 -25 -60 -25z" />
    <glyph glyph-name="semicolon" unicode=";" horiz-adv-x="270" 
d="M136 334c-23.333 0 -43.5 8.33301 -60.5 25s-25.5 36.667 -25.5 60c0 24 8.5 44.333 25.5 61s37.167 25 60.5 25s43.333 -8.33301 60 -25s25 -37 25 -61c0 -23.333 -8.33301 -43.333 -25 -60s-36.667 -25 -60 -25zM133 167c27.333 0 49.168 -10.834 65.501 -32.501
s24.5 -49.5 24.5 -83.5c0 -49.333 -12.833 -92 -38.5 -128s-56.834 -65 -93.501 -87l-36 43c46 40 70.333 78.667 73 116c-19.333 -2 -37.5 4.33301 -54.5 19s-25.5 36.334 -25.5 65.001c0 27.333 8 48.833 24 64.5s36.333 23.5 61 23.5z" />
    <glyph glyph-name="less" unicode="&#x3c;" horiz-adv-x="595" 
d="M516 585v-157l-278 -133v-7l278 -133v-157l-437 219v150z" />
    <glyph glyph-name="equal" unicode="=" horiz-adv-x="595" 
d="M54 459h486v-127h-486v127zM54 228h486v-126h-486v126z" />
    <glyph glyph-name="greater" unicode="&#x3e;" horiz-adv-x="595" 
d="M79 585l437 -218v-150l-437 -219v157l278 133v7l-278 133v157z" />
    <glyph glyph-name="question" unicode="?" horiz-adv-x="479" 
d="M138 250c0 36 6.16699 68.3359 18.5 97.0029s36.5 55.334 72.5 80.001c30.667 21.333 51.167 38.666 61.5 51.999s15.5 28.666 15.5 45.999c0 18 -6.33301 32.5 -19 43.5s-29 16.5 -49 16.5c-46 0 -72 -24 -78 -72h-133c1.33301 54.667 19.166 101.167 53.499 139.5
s86.833 57.5 157.5 57.5c64 0 114.167 -15.5 150.5 -46.5s54.5 -74.5 54.5 -130.5c0 -37.333 -7.66699 -67.833 -23 -91.5s-40.666 -48.834 -75.999 -75.501c-26.667 -20 -45.667 -38.833 -57 -56.5s-17 -40.834 -17 -69.501v-28h-132v38zM209 -4.99707
c-23.333 0 -43.5 8.33301 -60.5 25s-25.5 36.667 -25.5 60c0 24 8.5 44.333 25.5 61s37.167 25 60.5 25s43.333 -8.33301 60 -25s25 -37 25 -61c0 -23.333 -8.33301 -43.333 -25 -60s-36.667 -25 -60 -25z" />
    <glyph glyph-name="at" unicode="@" horiz-adv-x="984" 
d="M493 710c127.333 0 233.662 -40.6699 318.995 -122.003s128 -185.666 128 -312.999c0 -83.333 -17.667 -148.833 -53 -196.5s-85.666 -71.5 -150.999 -71.5c-74 0 -122.333 22.667 -145 68c-26 -45.333 -71.667 -68 -137 -68c-56.667 0 -104.667 21.667 -144 65
s-59 99.333 -59 168c0 74.667 19.167 135.167 57.5 181.5s86.5 69.5 144.5 69.5c53.333 0 90.333 -18.667 111 -56h9l10 47h109v-299c0 -20.667 5 -36.5 15 -47.5s23.333 -16.5 40 -16.5c23.333 0 41.333 10.167 54 30.5s19 56.833 19 109.5
c0 101.333 -30.167 183 -90.5 245s-139.5 93 -237.5 93c-93.333 0 -171.166 -33 -233.499 -99s-93.5 -152 -93.5 -258c0 -96 31.833 -176.333 95.5 -241s147.5 -97 251.5 -97c70.667 0 133.667 16 189 48l47 -95c-63.333 -43.333 -144 -65 -242 -65
c-64.667 0 -125 10.5 -181 31.5s-104.667 50.333 -146 88s-74 84.834 -98 141.501s-36 119 -36 187c0 74 12.333 141.333 37 202s57.834 110.334 99.501 149.001s89.334 68.5 143.001 89.5s109.834 31.5 168.501 31.5zM476.996 126.997c27.333 0 50 10.668 68 32.001
s27 50.666 27 87.999s-9 66.5 -27 87.5s-40.667 31.5 -68 31.5s-50 -10.5 -68 -31.5s-27 -50.167 -27 -87.5c0 -38 9 -67.5 27 -88.5s40.667 -31.5 68 -31.5z" />
    <glyph glyph-name="A" unicode="A" horiz-adv-x="726" 
d="M543 0l-53 157h-254l-53 -157h-165l253 700h185l252 -700h-165zM278 283h170l-81 240h-9z" />
    <glyph glyph-name="B" unicode="B" horiz-adv-x="629" 
d="M476 370c30.667 -9.33301 58 -28.5 82 -57.5s36 -67.833 36 -116.5c0 -62 -20.667 -110.167 -62 -144.5s-98.333 -51.5 -171 -51.5h-302v700h305c68.667 0 120.5 -16 155.5 -48s52.5 -74.333 52.5 -127c0 -68 -32 -117.333 -96 -148v-7zM210 578v-157h129
c25.333 0 44.833 7 58.5 21s20.5 33 20.5 57s-7 43.167 -21 57.5s-32.333 21.5 -55 21.5h-132zM346 122c29.333 0 51.5 8.16797 66.5 24.501s22.5 37.166 22.5 62.499c0 26 -7.83301 47.5 -23.5 64.5s-37.5 25.5 -65.5 25.5h-136v-177h136z" />
    <glyph glyph-name="C" unicode="C" horiz-adv-x="758" 
d="M723 231c-10 -76 -45.667 -135.166 -107 -177.499s-135 -63.5 -221 -63.5c-108 0 -193.333 33.333 -256 100s-94 152.667 -94 258c0 106.667 32.167 193.667 96.5 261s148.833 101 253.5 101c84 0 155 -21.333 213 -64s92.333 -103 103 -181h-166
c-10.667 32.667 -29 58 -55 76s-57.667 27 -95 27c-56.667 0 -102.834 -20.833 -138.501 -62.5s-53.5 -94.167 -53.5 -157.5c0 -64.667 18.333 -116.834 55 -156.501s82.334 -59.5 137.001 -59.5c40.667 0 75.167 9 103.5 27s47.5 42 57.5 72h167z" />
    <glyph glyph-name="D" unicode="D" horiz-adv-x="709" 
d="M320 700c105.333 0 189.168 -30.834 251.501 -92.501s93.5 -147.167 93.5 -256.5s-31.333 -195.166 -94 -257.499s-146.334 -93.5 -251.001 -93.5h-261v700h261zM315.002 137.999c62.667 0 110.167 19.666 142.5 58.999s48.5 92 48.5 158
c0 64.667 -16.167 115.334 -48.5 152.001s-79.833 55 -142.5 55h-101v-424h101z" />
    <glyph glyph-name="E" unicode="E" horiz-adv-x="585" 
d="M210 134h343v-134h-494v700h484v-134h-333v-145h283v-131h-283v-156z" />
    <glyph glyph-name="F" unicode="F" horiz-adv-x="579" 
d="M553 558h-339v-161h292v-134h-292v-263h-155v700h494v-142z" />
    <glyph glyph-name="G" unicode="G" horiz-adv-x="788" 
d="M402 388h327.001v-388h-123l-14 59h-9c-50 -46 -117.667 -69 -203 -69c-101.333 0 -182.5 32.333 -243.5 97s-91.5 148.667 -91.5 252c0 108.667 33.667 197.667 101 267s154 104 260 104c91.333 0 164.666 -22 219.999 -66s87.333 -99.667 96 -167h-169
c-20.667 60.667 -69.667 91 -147 91c-61.333 0 -110.5 -21.333 -147.5 -64s-55.5 -97.334 -55.5 -164.001c0 -64 17.5 -115.333 52.5 -154s83.833 -58 146.5 -58c52 0 94 10.333 126 31s48 50.334 48 89.001v22h-174v118z" />
    <glyph glyph-name="H" unicode="H" horiz-adv-x="695" 
d="M481 700h155v-700h-155v286h-267v-286h-155v700h155v-276h267v276z" />
    <glyph glyph-name="I" unicode="I" horiz-adv-x="273" 
d="M214 700v-700h-155v700h155z" />
    <glyph glyph-name="J" unicode="J" horiz-adv-x="555" 
d="M189 217c3.33301 -56.667 28.998 -85 76.998 -85c50.667 0 76 30.333 76 91v477h154v-481c0 -73.333 -20.667 -129.833 -62 -169.5s-97.333 -59.5 -168 -59.5c-75.333 0 -133.666 20.167 -174.999 60.5s-62.666 95.833 -63.999 166.5h162z" />
    <glyph glyph-name="K" unicode="K" horiz-adv-x="662" 
d="M469 0l-206 290h-49v-290h-155v700h155v-272h49l178 272h172l-224 -331v-7l254 -362h-174z" />
    <glyph glyph-name="L" unicode="L" horiz-adv-x="580" 
d="M210 138h343v-138h-494v700h151v-562z" />
    <glyph glyph-name="M" unicode="M" horiz-adv-x="903" 
d="M843 700v-700h-150v425h-9l-156 -345h-153l-156 345h-9v-425h-151v700h187l202 -455h9l200 455h186z" />
    <glyph glyph-name="N" unicode="N" horiz-adv-x="718" 
d="M508 700h150v-700h-155l-284 427h-9v-427h-151v700h154l286 -431h9v431z" />
    <glyph glyph-name="O" unicode="O" horiz-adv-x="818" 
d="M409 -10c-105.333 0 -192.334 34.1689 -261.001 102.502s-103 154.166 -103 257.499c0 102.667 34.5 188.334 103.5 257.001s156.167 103 261.5 103c104.667 0 191.334 -34.333 260.001 -103s103 -154.334 103 -257.001s-34.167 -188.334 -102.5 -257.001
s-155.5 -103 -261.5 -103zM409.999 132.002c59.333 0 108.333 20.5 147 61.5s58 93.167 58 156.5c0 62.667 -19.333 114.667 -58 156s-87.667 62 -147 62c-60 0 -109.5 -20.5 -148.5 -61.5s-58.5 -93.167 -58.5 -156.5s19.5 -115.5 58.5 -156.5s88.5 -61.5 148.5 -61.5z" />
    <glyph glyph-name="P" unicode="P" horiz-adv-x="640" 
d="M353 700c74 0 132.833 -21.168 176.5 -63.501s65.5 -97.166 65.5 -164.499c0 -68.667 -22.167 -124 -66.5 -166s-103.833 -63 -178.5 -63h-141v-243h-150v700h294zM334 376.999c34 0 59.5 8.5 76.5 25.5s25.5 40.167 25.5 69.5c0 28 -8.83301 50.667 -26.5 68
s-42.167 26 -73.5 26h-127v-189h125z" />
    <glyph glyph-name="Q" unicode="Q" horiz-adv-x="818" 
d="M545 14c19.333 -21.333 53.999 -32.002 103.999 -32.002c24 0 49 2 75 6v-110c-39.333 -7.33301 -75.333 -11 -108 -11c-107.333 0 -178 41 -212 123c-104 0.666992 -189.833 35.334 -257.5 104.001s-101.5 154 -101.5 256c0 102.667 34.5 188.334 103.5 257.001
s156.167 103 261.5 103c104.667 0 191.334 -34.333 260.001 -103s103 -154.334 103 -257.001c0 -78 -20.5 -147.167 -61.5 -207.5s-96.5 -103.166 -166.5 -128.499zM202.999 349.998c0 -63.333 19.5 -115.5 58.5 -156.5s88.5 -61.5 148.5 -61.5
c59.333 0 108.333 20.5 147 61.5s58 93.167 58 156.5c0 62.667 -19.333 114.667 -58 156s-87.667 62 -147 62c-60 0 -109.5 -20.5 -148.5 -61.5s-58.5 -93.167 -58.5 -156.5z" />
    <glyph glyph-name="R" unicode="R" horiz-adv-x="632" 
d="M605 0l-162 0.000976562l-132 261h-101v-261h-151v700h294c70 0 125.667 -19.333 167 -58s62 -89.334 62 -152.001c0 -46 -11.167 -86 -33.5 -120s-53.5 -60 -93.5 -78zM210 570.001v-179h125c28 0 50.333 8.5 67 25.5s25 38.5 25 64.5
c0 26.667 -8.16699 48.167 -24.5 64.5s-38.833 24.5 -67.5 24.5h-125z" />
    <glyph glyph-name="S" unicode="S" horiz-adv-x="611" 
d="M566 196c0 -66 -24.3291 -116.836 -72.9961 -152.503s-108.334 -53.5 -179.001 -53.5c-86 0 -152 21.167 -198 63.5s-69.667 98.5 -71 168.5h152c1.33301 -31.333 12.166 -56.166 32.499 -74.499s48.5 -27.5 84.5 -27.5c28 0 51 6 69 18s27 30 27 54
c0 14.667 -3.16699 27.334 -9.5 38.001s-16.666 20 -30.999 28s-26.833 14 -37.5 18s-26.667 9.33301 -48 16l-43 12c-116.667 36 -175 102.667 -175 200c0 63.333 23 113.5 69 150.5s104.667 55.5 176 55.5c74 0 133.167 -19.5 177.5 -58.5s67.166 -89.5 68.499 -151.5
h-152c-6.66699 53.333 -37.667 80 -93 80c-26.667 0 -48.334 -6.16699 -65.001 -18.5s-25 -29.166 -25 -50.499c0 -12 2.66699 -22.5 8 -31.5s14.166 -17 26.499 -24s23.5 -12.333 33.5 -16s24 -8.5 42 -14.5l37 -11c18 -6 34 -11.833 48 -17.5s30.833 -14.5 50.5 -26.5
s36.167 -25.333 49.5 -40s24.833 -33.667 34.5 -57s14.5 -49 14.5 -77z" />
    <glyph glyph-name="T" unicode="T" horiz-adv-x="599" 
d="M572 700v-138h-196v-562h-154v562h-195v138h545z" />
    <glyph glyph-name="U" unicode="U" horiz-adv-x="710" 
d="M651 700v-425c0 -93.333 -27.167 -164.166 -81.5 -212.499s-125.5 -72.5 -213.5 -72.5s-159.5 24.167 -214.5 72.5s-82.5 119.166 -82.5 212.499v425h155v-422c0 -45.333 13.167 -81 39.5 -107s60.833 -39 103.5 -39s76.5 12.833 101.5 38.5s37.5 61.5 37.5 107.5v422
h155z" />
    <glyph glyph-name="V" unicode="V" horiz-adv-x="690" 
d="M507 700h165l-234 -700h-185l-235 700h166l158 -492h9z" />
    <glyph glyph-name="W" unicode="W" horiz-adv-x="935" 
d="M768 700h149l-150 -700h-169l-126 451h-9l-126 -451h-169l-150 700h149l93 -470h9l118 420h161l117 -420h9z" />
    <glyph glyph-name="X" unicode="X" horiz-adv-x="693" 
d="M496 0l-141 235h-9l-142 -235h-186l225 361l-213 339h184l132 -215h9l132 215h176l-214 -339l226 -361h-179z" />
    <glyph glyph-name="Y" unicode="Y" horiz-adv-x="694" 
d="M493 700h183l-251 -402v-298h-155v298l-252 402h182l142 -234h9z" />
    <glyph glyph-name="Z" unicode="Z" horiz-adv-x="631" 
d="M272 138h313v-138h-540v91l313 464v7h-299v138h512v-91l-299 -464v-7z" />
    <glyph glyph-name="bracketleft" unicode="[" horiz-adv-x="312" 
d="M59 773h235v-104h-111v-734h111v-104h-235v942z" />
    <glyph glyph-name="backslash" unicode="\" horiz-adv-x="520" 
d="M18 750h142l342 -800h-143z" />
    <glyph glyph-name="bracketright" unicode="]" horiz-adv-x="312" 
d="M253 773v-942h-235v104h111v734h-111v104h235z" />
    <glyph glyph-name="asciicircum" unicode="^" horiz-adv-x="595" 
d="M398 360l-95 186h-8l-97 -186h-154l173 340h162l172 -340h-153z" />
    <glyph glyph-name="underscore" unicode="_" horiz-adv-x="498" 
d="M27 0h444v-125h-444v125z" />
    <glyph glyph-name="grave" unicode="`" horiz-adv-x="323" 
d="M184 700l79 -145h-112l-92 145h125z" />
    <glyph glyph-name="a" unicode="a" horiz-adv-x="557" 
d="M534 111h11.9961v-111h-62c-54 0 -90 19.667 -108 59c-34 -46 -88.667 -69 -164 -69c-55.333 0 -99.666 12.833 -132.999 38.5s-50 62.5 -50 110.5c0 46 14.833 81.5 44.5 106.5s68.834 40.167 117.501 45.5l158 17v16c0 45.333 -24 68 -72 68
c-46 0 -72.667 -21.667 -80 -65h-150c5.33301 54.667 28.333 98.834 69 132.501s94.334 50.5 161.001 50.5c64.667 0 117.834 -16.333 159.501 -49s62.5 -82.334 62.5 -149.001v-164c0 -24.667 11.667 -37 35 -37zM348.996 193l-0.000976562 13.999l-106 -12
c-42.667 -4.66699 -64 -21 -64 -49c0 -28.667 19.667 -43 59 -43c28.667 0 54.334 7.33301 77.001 22s34 37.334 34 68.001z" />
    <glyph glyph-name="b" unicode="b" 
d="M334 510c67.333 0 123.832 -23.166 169.499 -69.499s68.5 -109.5 68.5 -189.5c0 -78.667 -22.5 -141.834 -67.5 -189.501s-101.833 -71.5 -170.5 -71.5c-62 0 -109.667 20.667 -143 62h-9l-13 -52h-122v710h150v-247c34.667 31.333 80.334 47 137.001 47z
M308.999 120.001c33.333 0 60.5 12 81.5 36s31.5 55.667 31.5 95c0 38.667 -10.333 69.834 -31 93.501s-48 35.5 -82 35.5s-61.167 -11.833 -81.5 -35.5s-30.5 -54.834 -30.5 -93.501c0 -39.333 10.167 -71 30.5 -95s47.5 -36 81.5 -36z" />
    <glyph glyph-name="c" unicode="c" horiz-adv-x="582" 
d="M303 -10c-79.333 0 -143.663 23.8311 -192.996 71.498s-74 109.834 -74 186.501c0 78 25.5 141.167 76.5 189.5s113.833 72.5 188.5 72.5c64.667 0 121 -17 169 -51s75.667 -84 83 -150h-151c-5.33301 21.333 -17 38.5 -35 51.5s-40 19.5 -66 19.5
c-33.333 0 -60.833 -12.167 -82.5 -36.5s-32.5 -56.166 -32.5 -95.499s10.667 -70.5 32 -93.5s49.666 -34.5 84.999 -34.5c51.333 0 84.666 19.667 99.999 59h150c-6.66699 -58 -32.834 -104 -78.501 -138s-102.834 -51 -171.501 -51z" />
    <glyph glyph-name="d" unicode="d" 
d="M410 710l150 -0.000976562v-710h-122l-13 52h-9c-33.333 -41.333 -81 -62 -143 -62c-68 0 -124.5 23.833 -169.5 71.5s-67.5 110.834 -67.5 189.501c0 80 22.667 143.167 68 189.5s101.666 69.5 168.999 69.5c56.667 0 102.334 -15.667 137.001 -47v247zM298 119.999
c34 0 61.167 12 81.5 36s30.5 55.667 30.5 95c0 38.667 -10.167 69.834 -30.5 93.501s-47.5 35.5 -81.5 35.5c-33.333 0 -60.333 -11.833 -81 -35.5s-31 -54.834 -31 -93.501c0 -39.333 10.333 -71 31 -95s47.667 -36 81 -36z" />
    <glyph glyph-name="e" unicode="e" horiz-adv-x="578" 
d="M398 166l142.997 -0.00195312c-9.33301 -54 -35.166 -96.833 -77.499 -128.5s-96.833 -47.5 -163.5 -47.5c-77.333 0 -140.666 23.333 -189.999 70s-74 108.334 -74 185.001c0 80.667 24.833 145 74.5 193s110.834 72 183.501 72c68.667 0 126.5 -21.667 173.5 -65
s70.833 -108.666 71.5 -195.999c0 -12.667 -1 -26 -3 -40h-352c3.33301 -30 15 -54.333 35 -73s47 -28 81 -28c53.333 0 86 19.333 98 58zM293.997 391.998c-28.667 0 -52.499 -7.83301 -71.499 -23.5s-31.167 -35.834 -36.5 -60.501h210
c-2.66699 24.667 -13.334 44.834 -32.001 60.501s-42 23.5 -70 23.5z" />
    <glyph glyph-name="f" unicode="f" horiz-adv-x="424" 
d="M271 533v-33h132v-118h-132v-382h-150v382h-108v118h108v38c0 56 16.667 98.667 50 128s78 44 134 44c34.667 0 69.334 -6 104.001 -18l-24 -108c-16.667 4.66699 -34.334 7 -53.001 7c-40.667 0 -61 -19.333 -61 -58z" />
    <glyph glyph-name="g" unicode="g" horiz-adv-x="568" 
d="M553 480c-18 -19.333 -44.002 -36.667 -78.002 -52c21.333 -27.333 32 -57.666 32 -90.999c0 -52 -21 -93 -63 -123s-95.333 -45 -160 -45c-29.333 0 -56 3 -80 9c-12 -6.66699 -18 -15.667 -18 -27c0 -22 20.667 -33 62 -33h97c60.667 0 107 -13.667 139 -41
s48 -64.333 48 -111c0 -54.667 -21.667 -97.667 -65 -129s-103.333 -47 -180 -47c-78 0 -138.167 15.833 -180.5 47.5s-65.833 71.5 -70.5 119.5l72 65c-36 21.333 -54 51.666 -54 90.999c0 42 23 76 69 102c-41.333 30 -62 70.667 -62 122c0 50 19.333 91.333 58 124
s91.334 49 158.001 49c42.667 0 81.334 -7.33301 116.001 -22c36 18 65.667 42 89 72zM283.998 276.999c24.667 0 44.167 5.66699 58.5 17s21.5 26.333 21.5 45c0 20 -7 35.833 -21 47.5s-33.667 17.5 -59 17.5s-45 -5.83301 -59 -17.5s-21 -27.5 -21 -47.5
c0 -18.667 7.16699 -33.667 21.5 -45s33.833 -17 58.5 -17zM388.998 -43.001c0 30 -21.333 45 -64 45h-91l-56 -48c12 -36 48.667 -54 110 -54c29.333 0 53.5 5 72.5 15s28.5 24 28.5 42z" />
    <glyph glyph-name="h" unicode="h" horiz-adv-x="603" 
d="M354 510c62.667 0 111.833 -19.001 147.5 -57.001s53.5 -90 53.5 -156v-297h-150v266c0 36.667 -9.5 64.834 -28.5 84.501s-43.5 29.5 -73.5 29.5s-55.167 -10 -75.5 -30s-30.5 -49 -30.5 -87v-263h-150v710h150v-268h9c36 45.333 85.333 68 148 68z" />
    <glyph glyph-name="i" unicode="i" horiz-adv-x="245" 
d="M123 555c-24 0 -45.002 8.83301 -63.002 26.5s-27 38.167 -27 61.5c0 24.667 8.83301 45.5 26.5 62.5s38.834 25.5 63.501 25.5c24 0 44.5 -8.5 61.5 -25.5s25.5 -37.833 25.5 -62.5c0 -23.333 -8.66699 -43.833 -26 -61.5s-37.666 -26.5 -60.999 -26.5zM46.998 0v500
h150v-500h-150z" />
    <glyph glyph-name="j" unicode="j" horiz-adv-x="245" 
d="M123 555c-24 0 -45.002 8.83301 -63.002 26.5s-27 38.167 -27 61.5c0 24.667 8.83301 45.5 26.5 62.5s38.834 25.5 63.501 25.5c24 0 44.5 -8.5 61.5 -25.5s25.5 -37.833 25.5 -62.5c0 -23.333 -8.66699 -43.833 -26 -61.5s-37.666 -26.5 -60.999 -26.5zM23.998 -210
c-30.667 0 -62.668 4.00098 -96.001 12.001v109c16.667 -3.33301 33.334 -5 50.001 -5c20 0 35.5 3.66699 46.5 11s17.5 14.666 19.5 21.999s3 16.333 3 27v534h150v-552c0 -105.333 -57.667 -158 -173 -158z" />
    <glyph glyph-name="k" unicode="k" horiz-adv-x="558" 
d="M544 500l-204 -197l204 -303h-165l-140 205l-42 -41v-164h-150v710h150v-361h9l158 151h180z" />
    <glyph glyph-name="l" unicode="l" horiz-adv-x="245" 
d="M47 0v710h150v-710h-150z" />
    <glyph glyph-name="m" unicode="m" horiz-adv-x="857" 
d="M47 0l0.000976562 500h137l13 -58h9c34 45.333 80 68 138 68c60 0 102.667 -25 128 -75h9c36.667 50 88.667 75 156 75c54.667 0 97.167 -16 127.5 -48s45.5 -78.333 45.5 -139v-323h-150v295c0 27.333 -7.33301 48.333 -22 63s-33.334 22 -56.001 22
c-24 0 -43.167 -8 -57.5 -24s-21.5 -37.667 -21.5 -65v-291h-150v293c0 28 -7 49.667 -21 65s-32.333 23 -55 23c-22 0 -40.833 -8 -56.5 -24s-23.5 -38 -23.5 -66v-291h-150z" />
    <glyph glyph-name="n" unicode="n" horiz-adv-x="603" 
d="M47 0l-0.000976562 499.999h137l13 -58h9c36 45.333 85.333 68 148 68s111.834 -19 147.501 -57s53.5 -90 53.5 -156v-297h-150v266c0 36.667 -9.5 64.834 -28.5 84.501s-43.5 29.5 -73.5 29.5s-55.167 -10 -75.5 -30s-30.5 -49 -30.5 -87v-263h-150z" />
    <glyph glyph-name="o" unicode="o" horiz-adv-x="613" 
d="M307 -10c-77.333 0 -141.833 24.3311 -193.5 72.998s-77.5 111.334 -77.5 188.001s25.667 139 77 187s116 72 194 72c77.333 0 141.666 -24 192.999 -72s77 -110.333 77 -187c0 -77.333 -25.667 -140.166 -77 -188.499s-115.666 -72.5 -192.999 -72.5zM307 119.998
c36 0 65.167 12.5 87.5 37.5s33.5 56.167 33.5 93.5s-11.167 68.166 -33.5 92.499s-51.5 36.5 -87.5 36.5c-36.667 0 -66.167 -12.167 -88.5 -36.5s-33.5 -55.166 -33.5 -92.499s11.333 -68.5 34 -93.5s52 -37.5 88 -37.5z" />
    <glyph glyph-name="p" unicode="p" 
d="M334 510c68.667 0 125.501 -23.832 170.501 -71.499s67.5 -110.834 67.5 -189.501c0 -80 -22.833 -143.167 -68.5 -189.5s-102.167 -69.5 -169.5 -69.5c-56.667 0 -102.334 15.667 -137.001 47v-237h-150v700h122l13 -52h9c33.333 41.333 81 62 143 62zM309.001 120.001
c34 0 61.333 11.833 82 35.5s31 54.834 31 93.501c0 39.333 -10.5 71 -31.5 95s-48.167 36 -81.5 36c-34 0 -61.167 -12 -81.5 -36s-30.5 -55.667 -30.5 -95c0 -38.667 10.167 -69.834 30.5 -93.501s47.5 -35.5 81.5 -35.5z" />
    <glyph glyph-name="q" unicode="q" 
d="M438 500l122 -0.000976562v-700h-150v237c-34.667 -31.333 -80.334 -47 -137.001 -47c-67.333 0 -123.666 23.167 -168.999 69.5s-68 109.5 -68 189.5c0 78.667 22.5 141.834 67.5 189.501s101.5 71.5 169.5 71.5c62 0 109.667 -20.667 143 -62h9zM298 119.999
c34 0 61.167 11.833 81.5 35.5s30.5 54.834 30.5 93.501c0 39.333 -10.167 71 -30.5 95s-47.5 36 -81.5 36c-33.333 0 -60.333 -12 -81 -36s-31 -55.667 -31 -95c0 -38.667 10.333 -69.834 31 -93.501s47.667 -35.5 81 -35.5z" />
    <glyph glyph-name="r" unicode="r" horiz-adv-x="411" 
d="M47 0l-0.000976562 499.999h137l13 -71h9c18.667 28.667 38.834 49.334 60.501 62.001s52.5 19 92.5 19h39v-150c-16 3.33301 -35.667 5 -59 5c-94.667 0 -142 -49.333 -142 -148v-217h-150z" />
    <glyph glyph-name="s" unicode="s" horiz-adv-x="510" 
d="M270 -10c-72.667 0 -128.998 15.3301 -168.998 45.9971s-61.667 73.334 -65 128.001h143c6 -42.667 36.333 -64 91 -64c41.333 0 62 13 62 39c0 14.667 -6 26 -18 34s-33 15.667 -63 23l-54 12c-20.667 4.66699 -38.5 9.83398 -53.5 15.501s-30.167 13.834 -45.5 24.501
s-27 24.667 -35 42s-12 38 -12 62c0 50 19 88.833 57 116.5s84.667 41.5 140 41.5c67.333 0 119.333 -14.667 156 -44s57 -67.333 61 -114h-144c-5.33301 32 -29.333 48 -72 48c-16.667 0 -30 -3.5 -40 -10.5s-15 -16.5 -15 -28.5c0 -8.66699 3.5 -16 10.5 -22
s14.667 -10.333 23 -13s22.166 -6.66699 41.499 -12l55 -13c49.333 -11.333 86.666 -29.333 111.999 -54s38 -59 38 -103c0 -50.667 -19 -89 -57 -115s-87 -39 -147 -39z" />
    <glyph glyph-name="t" unicode="t" horiz-adv-x="420" 
d="M293 -10c-114 0 -171.001 52.666 -171.001 157.999v234h-109v118h35c30.667 0 52.834 6.16699 66.501 18.5s20.5 31.833 20.5 58.5v60h137v-137h134v-118h-134v-214c0 -8 0.5 -14.667 1.5 -20s3.5 -11.666 7.5 -18.999s10.833 -12.833 20.5 -16.5s22.167 -5.5 37.5 -5.5
c13.333 0 30 2 50 6v-111c-33.333 -8 -65.333 -12 -96 -12z" />
    <glyph glyph-name="u" unicode="u" horiz-adv-x="603" 
d="M556 500l0.000976562 -499.999h-137l-13 58h-9c-36 -45.333 -85.333 -68 -148 -68s-111.834 19 -147.501 57s-53.5 90 -53.5 156v297h150v-266c0 -36.667 9.5 -64.834 28.5 -84.501s43.5 -29.5 73.5 -29.5s55.167 10 75.5 30s30.5 49 30.5 87v263h150z" />
    <glyph glyph-name="v" unicode="v" horiz-adv-x="589" 
d="M206 0l-192 500h155l123 -344h9l120 344h154l-192 -500h-177z" />
    <glyph glyph-name="w" unicode="w" horiz-adv-x="805" 
d="M152 0l-138 500h139l80 -330h9l85 300h152l86 -300h9l78 330h139l-139 -500h-161l-84 303h-9l-85 -303h-161z" />
    <glyph glyph-name="x" unicode="x" horiz-adv-x="566" 
d="M14 0l174 256l-167 244h170l88 -133h9l87 133h169l-166 -244l174 -256h-172l-91 147h-9l-95 -147h-171z" />
    <glyph glyph-name="y" unicode="y" horiz-adv-x="589" 
d="M163 -210c-28.667 0 -57.333 4 -86 12l-1 109c18.667 -4 35.667 -6 51 -6c56.667 0 94 21.333 112 64l12 31h-46l-191 500h155l126 -348h9l117 348h154l-197 -553c-35.333 -104.667 -107 -157 -215 -157z" />
    <glyph glyph-name="z" unicode="z" horiz-adv-x="511" 
d="M36 0v75l223 303v7h-214v115h419v-75l-220 -303v-7h231v-115h-439z" />
    <glyph glyph-name="braceleft" unicode="{" horiz-adv-x="307" 
d="M214 418c0 -27.333 -7.33301 -50.502 -22 -69.502s-31.667 -33.167 -51 -42.5v-8c19.333 -9.33301 36.333 -23.5 51 -42.5s22 -42.167 22 -69.5v-202c0 -32.667 15 -49 45 -49h30v-104h-57c-44.667 0 -79.334 11 -104.001 33s-37 53.667 -37 95v213
c0 27.333 -5.33301 47.333 -16 60s-29.667 20.334 -57 23.001v93c27.333 2.66699 46.333 10.334 57 23.001s16 33 16 61v213c0 41.333 12.333 73 37 95s59.334 33 104.001 33h57v-104h-30c-30 0 -45 -16.333 -45 -49v-202z" />
    <glyph glyph-name="bar" unicode="|" horiz-adv-x="253" 
d="M194 770v-910h-135v910h135z" />
    <glyph glyph-name="braceright" unicode="}" horiz-adv-x="307" 
d="M93 418v202.002c0 32.667 -15 49 -45 49h-30v104h57c44.667 0 79.334 -11 104.001 -33s37 -53.667 37 -95v-213c0 -28 5.33301 -48.333 16 -61s29.667 -20.334 57 -23.001v-93c-27.333 -2.66699 -46.333 -10.334 -57 -23.001s-16 -32.667 -16 -60v-213
c0 -41.333 -12.333 -73 -37 -95s-59.334 -33 -104.001 -33h-57v104h30c30 0 45 16.333 45 49v202c0 27.333 7.33301 50.5 22 69.5s31.667 33.167 51 42.5v8c-19.333 9.33301 -36.333 23.5 -51 42.5s-22 42.167 -22 69.5z" />
    <glyph glyph-name="asciitilde" unicode="~" horiz-adv-x="595" 
d="M577 375c-3.33301 -58 -19.3301 -106.499 -47.9971 -145.499s-68.334 -58.5 -119.001 -58.5c-29.333 0 -55.5 4.83301 -78.5 14.5s-40.167 20.334 -51.5 32.001s-24.166 22.334 -38.499 32.001s-28.833 14.5 -43.5 14.5c-35.333 0 -55.666 -26 -60.999 -78h-119
c4 59.333 20.5 108.166 49.5 146.499s69.167 57.5 120.5 57.5c29.333 0 55.166 -4.83301 77.499 -14.5s39.166 -20.334 50.499 -32.001s24.166 -22.334 38.499 -32.001s28.833 -14.5 43.5 -14.5c35.333 0 55.666 26 60.999 78h118z" />
    <glyph glyph-name="uni00A0" unicode="&#xa0;" horiz-adv-x="250" 
 />
    <glyph glyph-name="exclamdown" unicode="&#xa1;" horiz-adv-x="268" 
d="M135 505c23.333 0 43.333 -8.5 60 -25.5s25 -36.833 25 -59.5c0 -24 -8.33301 -44.333 -25 -61s-36.667 -25 -60 -25s-43.5 8.33301 -60.5 25s-25.5 37 -25.5 61c0 23.333 8.5 43.333 25.5 60s37.167 25 60.5 25zM211 -200h-149l22 488h103z" />
    <glyph glyph-name="cent" unicode="&#xa2;" horiz-adv-x="548" 
d="M524 255c-6 -46.667 -25.501 -85.5 -58.501 -116.5s-75.167 -50.5 -126.5 -58.5v-80h-122v84c-56.667 12.667 -101.667 40 -135 82s-50 93.333 -50 154c0 62 17 114.5 51 157.5s78.667 71.167 134 84.5v78h122v-75c49.333 -8.66699 90.833 -28.667 124.5 -60
s53.5 -73.333 59.5 -126h-143c-5.33301 20 -16.666 36.167 -33.999 48.5s-38 18.5 -62 18.5c-31.333 0 -57.5 -11.5 -78.5 -34.5s-31.5 -53.5 -31.5 -91.5c0 -37.333 10.167 -66.833 30.5 -88.5s47.5 -32.5 81.5 -32.5c49.333 0 81 18.667 95 56h143z" />
    <glyph glyph-name="sterling" unicode="&#xa3;" horiz-adv-x="622" 
d="M258 123l0.000976562 -6.99805h310v-116h-523v92c41.333 13.333 74.333 30.5 99 51.5s37 49.833 37 86.5c0 8 -1 16 -3 24h-133v104h72c-24 36.667 -36 71.667 -36 105c0 58 24.667 103.667 74 137s110 50 182 50c53.333 0 101 -9.83301 143 -29.5s74 -46.5 96 -80.5
l-99 -85c-18 22 -36.667 38.667 -56 50s-45 17 -77 17c-30 0 -54.667 -7.33301 -74 -22s-29 -33.334 -29 -56.001c0 -6 0.833008 -11.833 2.5 -17.5s3.33398 -10.5 5.00098 -14.5s4.66699 -8.83301 9 -14.5s7.66602 -9.83398 9.99902 -12.501s6.66602 -7.16699 12.999 -13.5
s10.5 -10.833 12.5 -13.5h195v-104h-146v-10c0 -42.667 -28 -83 -84 -121z" />
    <glyph glyph-name="currency" unicode="&#xa4;" horiz-adv-x="614" 
d="M530 250c0 -37.333 -9.33398 -72.667 -28.001 -106l77 -77l-89 -88l-77 79c-32 -16.667 -66.667 -25 -104 -25c-39.333 0 -74.666 8.66699 -105.999 26l-79 -80l-88 88l78 78c-18.667 32 -28 67 -28 105s9 73.333 27 106l-77 77l88 88l77 -79c33.333 16.667 69 25 107 25
s73 -8.33301 105 -25l77 79l89 -88l-77 -77c18.667 -32 28 -67.333 28 -106zM307.999 166.999c24.667 0 45.334 8.16699 62.001 24.5s25 35.833 25 58.5s-8.33301 42.167 -25 58.5s-37.334 24.5 -62.001 24.5c-24 0 -44.5 -8.33301 -61.5 -25s-25.5 -36 -25.5 -58
c0 -22.667 8.5 -42.167 25.5 -58.5s37.5 -24.5 61.5 -24.5z" />
    <glyph glyph-name="yen" unicode="&#xa5;" horiz-adv-x="637" 
d="M619 640l-144 -216h101v-111h-176v-82h176v-110h-176v-121h-162v121h-176v110h176v82h-176v111h101l-145 216h175l121 -187h9l120 187h176z" />
    <glyph glyph-name="brokenbar" unicode="&#xa6;" horiz-adv-x="253" 
d="M59 770h135v-355h-135v355zM59 -140v355h135v-355h-135z" />
    <glyph glyph-name="section" unicode="&#xa7;" horiz-adv-x="612" 
d="M462 106c63.333 -28 95.001 -71.999 95.001 -131.999c0 -56.667 -23 -101.667 -69 -135s-106.667 -50 -182 -50c-78 0 -140.5 19.5 -187.5 58.5s-70.5 90.833 -70.5 155.5h139c2.66699 -30 15.334 -52.667 38.001 -68s51.334 -23 86.001 -23c30.667 0 55 5.5 73 16.5
s27 26.5 27 46.5c0 22 -11.667 38.167 -35 48.5s-56 18.5 -98 24.5c-155.333 24 -233 88.333 -233 193c0 67.333 35 115.666 105 144.999v7c-63.333 28 -95 72.333 -95 133c0 56 22.833 100.667 68.5 134s106.5 50 182.5 50c78 0 140.5 -19.5 187.5 -58.5
s70.5 -90.833 70.5 -155.5h-139c-2.66699 30 -15.334 52.667 -38.001 68s-51.334 23 -86.001 23c-30.667 0 -55 -5.5 -73 -16.5s-27 -26.167 -27 -45.5c0 -22 11.667 -38.333 35 -49s56 -19 98 -25c155.333 -24 233 -88.333 233 -193c0 -36.667 -10.333 -67 -31 -91
s-45.334 -42 -74.001 -54v-7zM313.001 165.001c33.333 0 59.666 7.66699 78.999 23s29 36 29 62c0 24.667 -11.833 44.834 -35.5 60.501s-52.5 23.5 -86.5 23.5c-33.333 0 -59.666 -7.66699 -78.999 -23s-29 -36 -29 -62c0 -24.667 11.833 -44.834 35.5 -60.501
s52.5 -23.5 86.5 -23.5z" />
    <glyph glyph-name="dieresis" unicode="&#xa8;" horiz-adv-x="482" 
d="M138 538c-22 0 -40.667 7.66699 -56 23s-23 33.666 -23 54.999s7.66699 39.333 23 54s34 22 56 22c20.667 0 38.5 -7.33301 53.5 -22s22.5 -32.667 22.5 -54s-7.5 -39.666 -22.5 -54.999s-32.833 -23 -53.5 -23zM345 538c-20.667 0 -38.667 7.83105 -54 23.498
s-23 33.834 -23 54.501c0 21.333 7.66699 39.333 23 54s33.333 22 54 22c21.333 0 39.5 -7.33301 54.5 -22s22.5 -32.667 22.5 -54s-7.5 -39.666 -22.5 -54.999s-33.167 -23 -54.5 -23z" />
    <glyph glyph-name="copyright" unicode="&#xa9;" horiz-adv-x="824" 
d="M412 -10c-101.333 0 -187.833 35 -259.5 105s-107.5 155 -107.5 255s35.833 185 107.5 255s158.167 105 259.5 105s188 -35 260 -105s108 -155 108 -255s-36 -185 -108 -255s-158.667 -105 -260 -105zM412 78c76.667 0 142 25.667 196 77s81 116.333 81 195
s-27 143.667 -81 195s-119.333 77 -196 77s-141.834 -25.667 -195.501 -77s-80.5 -116.333 -80.5 -195s26.833 -143.667 80.5 -195s118.834 -77 195.501 -77zM572 296c-3.33301 -42.667 -19.999 -74.499 -49.999 -95.499s-66.333 -31.5 -109 -31.5
c-54 0 -95.667 16.167 -125 48.5s-44 76.5 -44 132.5c0 55.333 15.667 99 47 131s72 48 122 48c42 0 77 -10.333 105 -31s44.333 -53.334 49 -98.001h-107c-6 24.667 -22 37 -48 37c-18.667 0 -33.167 -7.83301 -43.5 -23.5s-15.5 -38.167 -15.5 -67.5
c0 -56.667 20.667 -85 62 -85c14 0 25.667 3.16699 35 9.5s14.666 14.833 15.999 25.5h106z" />
    <glyph glyph-name="guillemotleft" unicode="&#xab;" horiz-adv-x="601" 
d="M153 500h164l-137 -202l137 -202h-164l-135 202zM402 500h164l-138 -202l138 -202h-164l-136 202z" />
    <glyph glyph-name="logicalnot" unicode="&#xac;" horiz-adv-x="596" 
d="M527 131h-125v187h-347v114h472v-301z" />
    <glyph glyph-name="uni00AD" unicode="&#xad;" horiz-adv-x="440" 
d="M27 373h386v-124h-386v124z" />
    <glyph glyph-name="registered" unicode="&#xae;" horiz-adv-x="824" 
d="M412 710c101.333 0 188 -35 260 -105s108 -155 108 -255s-36 -185 -108 -255s-158.667 -105 -260 -105s-187.833 35 -259.5 105s-107.5 155 -107.5 255s35.833 185 107.5 255s158.167 105 259.5 105zM412 78c76.667 0 142 25.667 196 77s81 116.333 81 195
s-27 143.667 -81 195s-119.333 77 -196 77s-141.834 -25.667 -195.501 -77s-80.5 -116.333 -80.5 -195s26.833 -143.667 80.5 -195s118.834 -77 195.501 -77zM549 413c0 -40.667 -17.333 -72.333 -52 -95l71 -142h-102l-59 119h-33v-119h-95v350h157
c35.333 0 63 -10.167 83 -30.5s30 -47.833 30 -82.5zM374 444.001l-0.000976562 -66.999h46c10.667 0 18.834 3.16699 24.501 9.5s8.5 14.166 8.5 23.499c0 22.667 -11 34 -33 34h-46z" />
    <glyph glyph-name="macron" unicode="&#xaf;" horiz-adv-x="466" 
d="M59 662h348v-99h-348v99z" />
    <glyph glyph-name="degree" unicode="&#xb0;" horiz-adv-x="414" 
d="M207 370c-46.667 0 -86.834 16.5 -120.501 49.5s-50.5 73.167 -50.5 120.5s16.833 87.5 50.5 120.5s73.834 49.5 120.501 49.5s87 -16.5 121 -49.5s51 -73.167 51 -120.5s-17 -87.5 -51 -120.5s-74.333 -49.5 -121 -49.5zM207 478c18.667 0 33.667 5.83301 45 17.5
s17 26.5 17 44.5s-5.66699 32.833 -17 44.5s-26.333 17.5 -45 17.5c-18 0 -32.833 -5.83301 -44.5 -17.5s-17.5 -26.5 -17.5 -44.5s5.83301 -32.833 17.5 -44.5s26.5 -17.5 44.5 -17.5z" />
    <glyph glyph-name="plusminus" unicode="&#xb1;" horiz-adv-x="595" 
d="M364 425h170v-114h-170v-135h-132v135h-171v114h171v133h132v-133zM61 0v120h473v-120h-473z" />
    <glyph glyph-name="uni00B2" unicode="&#xb2;" horiz-adv-x="347" 
d="M183 467c-22.667 -13.333 -36.332 -29.001 -40.999 -47.001h179v-79h-295v30c0 66 28 116.333 84 151l67 39c28.667 18.667 43 36 43 52c0 11.333 -4 20.666 -12 27.999s-18.333 11 -31 11c-14.667 0 -26.5 -4.83301 -35.5 -14.5s-13.5 -21.5 -13.5 -35.5h-101
c0.666992 32.667 14.667 62.334 42 89.001s65.666 40 114.999 40c41.333 0 74.5 -10.167 99.5 -30.5s37.5 -48.166 37.5 -83.499c0 -20.667 -4.83301 -39.167 -14.5 -55.5s-18.167 -27.333 -25.5 -33s-17.333 -12.167 -30 -19.5z" />
    <glyph glyph-name="uni00B3" unicode="&#xb3;" horiz-adv-x="369" 
d="M279 539c42.667 -16.667 64.002 -45.667 64.002 -87c0 -33.333 -15 -61.166 -45 -83.499s-68.667 -33.5 -116 -33.5c-48.667 0 -86.334 11.667 -113.001 35s-41 54.666 -43 93.999h96c6 -32.667 26.333 -49 61 -49c18 0 32.5 4.16699 43.5 12.5s16.5 18.5 16.5 30.5
c0 14.667 -5.66699 25.667 -17 33s-26.333 11 -45 11h-40v69h38c16.667 0 30.167 3.5 40.5 10.5s15.5 17.5 15.5 31.5c0 12.667 -4.83301 22.667 -14.5 30s-22.5 11 -38.5 11c-13.333 0 -25.333 -3.5 -36 -10.5s-17.334 -16.833 -20.001 -29.5h-95
c0.666992 34 16.167 61.833 46.5 83.5s66.5 32.5 108.5 32.5c39.333 0 73.5 -9.66699 102.5 -29s43.5 -46 43.5 -80c0 -34.667 -17.667 -60.667 -53 -78v-4z" />
    <glyph glyph-name="acute" unicode="&#xb4;" horiz-adv-x="323" 
d="M139 700h124l-91 -145h-113z" />
    <glyph glyph-name="uni00B5" unicode="&#xb5;" horiz-adv-x="603" 
d="M405 500h150v-500h-137l-13 58h-9c-34.667 -45.333 -83.667 -68 -147 -68c-20.667 0 -39.667 3 -57 9v-199h-145v700h150v-266c0 -36.667 9.5 -64.834 28.5 -84.501s43.5 -29.5 73.5 -29.5c30.667 0 56 9.83301 76 29.5s30 48.834 30 87.501v263z" />
    <glyph glyph-name="paragraph" unicode="&#xb6;" horiz-adv-x="716" 
d="M36 512c0 55.333 19.668 100.5 59.001 135.5s88.666 52.5 147.999 52.5h446v-124h-82v-576h-135v576h-94v-576h-135v323c-58 0 -107 17.5 -147 52.5s-60 80.5 -60 136.5z" />
    <glyph glyph-name="periodcentered" unicode="&#xb7;" horiz-adv-x="224" 
d="M112 225c-23.333 0 -43.333 8.5 -60 25.5s-25 37.167 -25 60.5s8.33301 43.5 25 60.5s36.667 25.5 60 25.5s43.5 -8.5 60.5 -25.5s25.5 -37.167 25.5 -60.5s-8.5 -43.5 -25.5 -60.5s-37.167 -25.5 -60.5 -25.5z" />
    <glyph glyph-name="cedilla" unicode="&#xb8;" horiz-adv-x="314" 
d="M83 -128c21.333 -12.667 41.3311 -19.001 59.998 -19.001c11.333 0 20 2.5 26 7.5s9 11.167 9 18.5c0 16.667 -11.333 25 -34 25c-10 0 -20 -1.66699 -30 -5l-48 38l42 73h75v-10l-27 -43c26 1.33301 49 -5.16699 69 -19.5s30 -34.5 30 -60.5
c0 -27.333 -9.66699 -48.666 -29 -63.999s-46.666 -23 -81.999 -23c-33.333 0 -61.666 8.66699 -84.999 26z" />
    <glyph glyph-name="uni00B9" unicode="&#xb9;" horiz-adv-x="254" 
d="M119 340v234h-93v78h42c40.667 0 61 19 61 57v16h87v-385h-97z" />
    <glyph glyph-name="guillemotright" unicode="&#xbb;" horiz-adv-x="601" 
d="M200 96h-164l137 202l-137 202h164l135 -202zM448 96h-164l137 202l-137 202h164l135 -202z" />
    <glyph glyph-name="onequarter" unicode="&#xbc;" horiz-adv-x="857" 
d="M152 315v234h-93v78h42c41.333 0 62 19 62 57v16h86v-385h-97zM730 700l-505 -700h-113l504 700h114zM798 153v-72h-71v-81h-92v81h-192v48l189 256h95v-232h71zM554 153h81v108h-5z" />
    <glyph glyph-name="onehalf" unicode="&#xbd;" horiz-adv-x="886" 
d="M152 315v234h-93v78h42c41.333 0 62 19 62 57v16h86v-385h-97zM730 700l-505 -700h-113l504 700h114zM689 126c-23.333 -14 -36.998 -29.668 -40.998 -47.001h179v-79h-295v30c0 66 28.333 116.333 85 151l66 39c28.667 18.667 43 36 43 52
c0 11.333 -3.83301 20.666 -11.5 27.999s-17.834 11 -30.501 11c-14.667 0 -26.667 -5 -36 -15s-14 -21.667 -14 -35h-101c0.666992 32.667 14.667 62.334 42 89.001s65.666 40 114.999 40c41.333 0 74.5 -10.167 99.5 -30.5s37.5 -48.166 37.5 -83.499
c0 -20.667 -4.83301 -39.167 -14.5 -55.5s-18.167 -27.333 -25.5 -33s-17.333 -12.167 -30 -19.5z" />
    <glyph glyph-name="threequarters" unicode="&#xbe;" horiz-adv-x="921" 
d="M313 514c42.667 -16.667 64 -45.667 64 -87c0 -33.333 -15 -61.166 -45 -83.499s-68.667 -33.5 -116 -33.5c-48.667 0 -86.5 11.667 -113.5 35s-41.5 54.666 -43.5 93.999h97c6 -32.667 26 -49 60 -49c18.667 0 33.334 4 44.001 12s16 18.333 16 31
c0 29.333 -20.333 44 -61 44h-40v69h37c37.333 0 56 14 56 42c0 12.667 -4.83301 22.667 -14.5 30s-22.167 11 -37.5 11c-14 0 -26.333 -3.5 -37 -10.5s-17.334 -16.833 -20.001 -29.5h-94c0.666992 34 16 61.833 46 83.5s66 32.5 108 32.5c40 0 74.5 -9.66699 103.5 -29
s43.5 -46 43.5 -80c0 -34.667 -17.667 -60.667 -53 -78v-4zM794 700l-504 -700h-114l505 700h113zM861 153v-72h-70v-81h-92v81h-192v48l188 256h96v-232h70zM617 153h82v108h-6z" />
    <glyph glyph-name="questiondown" unicode="&#xbf;" horiz-adv-x="479" 
d="M261 505c23.333 0 43.5 -8.33301 60.5 -25s25.5 -36.667 25.5 -60c0 -24 -8.5 -44.333 -25.5 -61s-37.167 -25 -60.5 -25s-43.333 8.33301 -60 25s-25 37 -25 61c0 23.333 8.33301 43.333 25 60s36.667 25 60 25zM332 250c0 -36 -6.16699 -68.3359 -18.5 -97.0029
s-36.5 -55.334 -72.5 -80.001c-30.667 -21.333 -51.167 -38.666 -61.5 -51.999s-15.5 -28.666 -15.5 -45.999c0 -18 6.33301 -32.5 19 -43.5s29 -16.5 49 -16.5c46 0 72 24 78 72h133c-1.33301 -54.667 -19.166 -101.167 -53.499 -139.5s-86.833 -57.5 -157.5 -57.5
c-64 0 -114.167 15.5 -150.5 46.5s-54.5 74.5 -54.5 130.5c0 37.333 7.66699 67.833 23 91.5s40.666 48.834 75.999 75.501c26.667 20 45.667 38.833 57 56.5s17 40.834 17 69.501v28h132v-38z" />
    <glyph glyph-name="Agrave" unicode="&#xc0;" horiz-adv-x="726" 
d="M420 755h-112l-92 145h124zM543 0l-53 157h-254l-53 -157h-165l253 700h185l252 -700h-165zM278 283h170l-81 240h-9z" />
    <glyph glyph-name="Aacute" unicode="&#xc1;" horiz-adv-x="726" 
d="M510 900l-91 -145h-113l80 145h124zM543 0l-53 157h-254l-53 -157h-165l253 700h185l252 -700h-165zM278 283h170l-81 240h-9z" />
    <glyph glyph-name="Acircumflex" unicode="&#xc2;" horiz-adv-x="726" 
d="M358 820l-45 -73h-123l111 153h123l112 -153h-122l-47 73h-9zM543 0l-53 157h-254l-53 -157h-165l253 700h185l252 -700h-165zM278 283h170l-81 240h-9z" />
    <glyph glyph-name="Atilde" unicode="&#xc3;" horiz-adv-x="726" 
d="M301 796c-24 0 -38 -16.999 -42 -50.999h-97c2.66699 44 14.5 80.167 35.5 108.5s50.5 42.5 88.5 42.5c20 0 37.667 -3.16699 53 -9.5s26.833 -13.333 34.5 -21s16.167 -14.667 25.5 -21s18.666 -9.5 27.999 -9.5c24.667 0 38.334 16.667 41.001 50h97
c-2 -42.667 -13.5 -78.334 -34.5 -107.001s-50.167 -43 -87.5 -43c-24 0 -44.833 5.16699 -62.5 15.5s-32.667 20.5 -45 30.5s-23.833 15 -34.5 15zM543 0.000976562l-53 157h-254l-53 -157h-165l253 700h185l252 -700h-165zM278 283.001h170l-81 240h-9z" />
    <glyph glyph-name="Adieresis" unicode="&#xc4;" horiz-adv-x="726" 
d="M243 748c-24 0 -44.5 8.33301 -61.5 25s-25.5 36.667 -25.5 60c0 24 8.5 44.167 25.5 60.5s37.5 24.5 61.5 24.5c22.667 0 42.334 -8.16699 59.001 -24.5s25 -36.5 25 -60.5c0 -23.333 -8.33301 -43.333 -25 -60s-36.334 -25 -59.001 -25zM484 748
c-22.667 0 -42.334 8.33301 -59.001 25s-25 36.667 -25 60c0 24 8.33301 44.167 25 60.5s36.334 24.5 59.001 24.5c24 0 44.333 -8.16699 61 -24.5s25 -36.5 25 -60.5c0 -23.333 -8.33301 -43.333 -25 -60s-37 -25 -61 -25zM543 0l-53 157h-254l-53 -157h-165l253 700h185
l252 -700h-165zM278 283h170l-81 240h-9z" />
    <glyph glyph-name="Aring" unicode="&#xc5;" horiz-adv-x="726" 
d="M362 729c-28.667 0 -53.167 10 -73.5 30s-30.5 44 -30.5 72c0 27.333 10.167 51 30.5 71s44.833 30 73.5 30s53.334 -10 74.001 -30s31 -43.667 31 -71c0 -28 -10.333 -52 -31 -72s-45.334 -30 -74.001 -30zM363 855c-7.33301 0 -13.5 -2.5 -18.5 -7.5
s-7.5 -10.5 -7.5 -16.5c0 -7.33301 2.5 -13.333 7.5 -18s11.167 -7 18.5 -7c6.66699 0 12.5 2.5 17.5 7.5s7.5 10.833 7.5 17.5c0 6 -2.5 11.5 -7.5 16.5s-10.833 7.5 -17.5 7.5zM543 0l-53 157h-254l-53 -157h-165l253 700h185l252 -700h-165zM278 283h170l-81 240h-9z" />
    <glyph glyph-name="AE" unicode="&#xc6;" horiz-adv-x="1067" 
d="M707 134h328v-134h-478v155h-253l-103 -155h-183l458 700h549v-134h-318v-145h268v-131h-268v-156zM389 283h168v240h-9z" />
    <glyph glyph-name="Ccedilla" unicode="&#xc7;" horiz-adv-x="758" 
d="M723 231c-9.33301 -70 -40.832 -126 -94.499 -168s-119.167 -66 -196.5 -72l-22 -34c26 1.33301 49 -5.16699 69 -19.5s30 -34.5 30 -60.5c0 -27.333 -9.66699 -48.666 -29 -63.999s-46.333 -23 -81 -23c-32.667 0 -61.334 8.66699 -86.001 26l24 56
c21.333 -12.667 41.333 -19 60 -19c24 0 36 8.66699 36 26c0 16.667 -11.333 25 -34 25c-10.667 0 -21 -1.66699 -31 -5l-48 38l32 55c-96 9.33301 -171.167 46.5 -225.5 111.5s-81.5 146.5 -81.5 244.5c0 106.667 32.167 193.667 96.5 261s148.833 101 253.5 101
c84 0 155 -21.333 213 -64s92.333 -103 103 -181h-166c-10.667 32.667 -29 58 -55 76s-57.667 27 -95 27c-56.667 0 -102.834 -20.833 -138.501 -62.5s-53.5 -94.167 -53.5 -157.5c0 -64.667 18.333 -116.834 55 -156.501s82.334 -59.5 137.001 -59.5
c40.667 0 75.167 9 103.5 27s47.5 42 57.5 72h167z" />
    <glyph glyph-name="Egrave" unicode="&#xc8;" horiz-adv-x="585" 
d="M278 900l80 -145h-112l-92 145h124zM210 134h343v-134h-494v700h484v-134h-333v-145h283v-131h-283v-156z" />
    <glyph glyph-name="Eacute" unicode="&#xc9;" horiz-adv-x="585" 
d="M325 900h124l-91 -145h-113zM210 134h343v-134h-494v700h484v-134h-333v-145h283v-131h-283v-156z" />
    <glyph glyph-name="Ecircumflex" unicode="&#xca;" horiz-adv-x="585" 
d="M251 747h-123l111 153h123l112 -153h-122l-47 73h-9zM210 134h343v-134h-494v700h484v-134h-333v-145h283v-131h-283v-156z" />
    <glyph glyph-name="Edieresis" unicode="&#xcb;" horiz-adv-x="585" 
d="M182 748c-24 0 -44.5 8.33301 -61.5 25s-25.5 36.667 -25.5 60c0 24 8.5 44.167 25.5 60.5s37.5 24.5 61.5 24.5c22.667 0 42.334 -8.16699 59.001 -24.5s25 -36.5 25 -60.5c0 -23.333 -8.33301 -43.333 -25 -60s-36.334 -25 -59.001 -25zM423 748
c-22.667 0 -42.334 8.33301 -59.001 25s-25 36.667 -25 60c0 24 8.33301 44.167 25 60.5s36.334 24.5 59.001 24.5c24 0 44.333 -8.16699 61 -24.5s25 -36.5 25 -60.5c0 -23.333 -8.33301 -43.333 -25 -60s-37 -25 -61 -25zM210 134h343v-134h-494v700h484v-134h-333v-145
h283v-131h-283v-156z" />
    <glyph glyph-name="Igrave" unicode="&#xcc;" horiz-adv-x="273" 
d="M113 900l80 -145h-112l-92 145h124zM214 700v-700h-155v700h155z" />
    <glyph glyph-name="Iacute" unicode="&#xcd;" horiz-adv-x="273" 
d="M160 900h124l-91 -145h-113zM214 700v-700h-155v700h155z" />
    <glyph glyph-name="Icircumflex" unicode="&#xce;" horiz-adv-x="273" 
d="M86 747h-123l111 153h123l112 -153h-122l-47 73h-9zM214 700v-700h-155v700h155z" />
    <glyph glyph-name="Idieresis" unicode="&#xcf;" horiz-adv-x="273" 
d="M17 748c-24 0 -44.5 8.33301 -61.5 25s-25.5 36.667 -25.5 60c0 24 8.5 44.167 25.5 60.5s37.5 24.5 61.5 24.5c22.667 0 42.334 -8.16699 59.001 -24.5s25 -36.5 25 -60.5c0 -23.333 -8.33301 -43.333 -25 -60s-36.334 -25 -59.001 -25zM258 748
c-22.667 0 -42.334 8.33301 -59.001 25s-25 36.667 -25 60c0 24 8.33301 44.167 25 60.5s36.334 24.5 59.001 24.5c24 0 44.333 -8.16699 61 -24.5s25 -36.5 25 -60.5c0 -23.333 -8.33301 -43.333 -25 -60s-37 -25 -61 -25zM214 700v-700h-155v700h155z" />
    <glyph glyph-name="Eth" unicode="&#xd0;" horiz-adv-x="709" 
d="M320 700c105.333 0 189.168 -30.834 251.501 -92.501s93.5 -147.167 93.5 -256.5s-31.333 -195.166 -94 -257.499s-146.334 -93.5 -251.001 -93.5h-261v294h-108v112h108v294h261zM315.002 137.999c62.667 0 110.167 19.666 142.5 58.999s48.5 92 48.5 158
c0 64.667 -16.167 115.334 -48.5 152.001s-79.833 55 -142.5 55h-101v-156h177v-112h-177v-156h101z" />
    <glyph glyph-name="Ntilde" unicode="&#xd1;" horiz-adv-x="718" 
d="M560 885c-2 -42.667 -13.5 -78.333 -34.5 -107s-50.167 -43 -87.5 -43c-24 0 -44.833 5.16699 -62.5 15.5s-32.667 20.5 -45 30.5s-23.833 15 -34.5 15c-24 0 -38 -17 -42 -51h-97c2.66699 44 14.5 80.167 35.5 108.5s50.5 42.5 88.5 42.5c20 0 37.667 -3.16699 53 -9.5
s26.833 -13.333 34.5 -21s16.167 -14.667 25.5 -21s18.666 -9.5 27.999 -9.5c24.667 0 38.334 16.667 41.001 50h97zM508 700.001h150v-700h-155l-284 427h-9v-427h-151v700h154l286 -431h9v431z" />
    <glyph glyph-name="Ograve" unicode="&#xd2;" horiz-adv-x="818" 
d="M386 900l80 -145h-112l-92 145h124zM409 -10c-105.333 0 -192.334 34.1689 -261.001 102.502s-103 154.166 -103 257.499c0 102.667 34.5 188.334 103.5 257.001s156.167 103 261.5 103c104.667 0 191.334 -34.333 260.001 -103s103 -154.334 103 -257.001
s-34.167 -188.334 -102.5 -257.001s-155.5 -103 -261.5 -103zM409.999 132.002c59.333 0 108.333 20.5 147 61.5s58 93.167 58 156.5c0 62.667 -19.333 114.667 -58 156s-87.667 62 -147 62c-60 0 -109.5 -20.5 -148.5 -61.5s-58.5 -93.167 -58.5 -156.5
s19.5 -115.5 58.5 -156.5s88.5 -61.5 148.5 -61.5z" />
    <glyph glyph-name="Oacute" unicode="&#xd3;" horiz-adv-x="818" 
d="M432 900h124l-91 -145h-113zM409 -10c-105.333 0 -192.334 34.1689 -261.001 102.502s-103 154.166 -103 257.499c0 102.667 34.5 188.334 103.5 257.001s156.167 103 261.5 103c104.667 0 191.334 -34.333 260.001 -103s103 -154.334 103 -257.001
s-34.167 -188.334 -102.5 -257.001s-155.5 -103 -261.5 -103zM409.999 132.002c59.333 0 108.333 20.5 147 61.5s58 93.167 58 156.5c0 62.667 -19.333 114.667 -58 156s-87.667 62 -147 62c-60 0 -109.5 -20.5 -148.5 -61.5s-58.5 -93.167 -58.5 -156.5
s19.5 -115.5 58.5 -156.5s88.5 -61.5 148.5 -61.5z" />
    <glyph glyph-name="Ocircumflex" unicode="&#xd4;" horiz-adv-x="818" 
d="M358 747h-123l111 153h123l112 -153h-122l-47 73h-9zM409 -10c-105.333 0 -192.334 34.1689 -261.001 102.502s-103 154.166 -103 257.499c0 102.667 34.5 188.334 103.5 257.001s156.167 103 261.5 103c104.667 0 191.334 -34.333 260.001 -103
s103 -154.334 103 -257.001s-34.167 -188.334 -102.5 -257.001s-155.5 -103 -261.5 -103zM409.999 132.002c59.333 0 108.333 20.5 147 61.5s58 93.167 58 156.5c0 62.667 -19.333 114.667 -58 156s-87.667 62 -147 62c-60 0 -109.5 -20.5 -148.5 -61.5
s-58.5 -93.167 -58.5 -156.5s19.5 -115.5 58.5 -156.5s88.5 -61.5 148.5 -61.5z" />
    <glyph glyph-name="Otilde" unicode="&#xd5;" horiz-adv-x="818" 
d="M611 885c-2 -42.667 -13.5 -78.333 -34.5 -107s-50.167 -43 -87.5 -43c-24 0 -44.833 5.16699 -62.5 15.5s-32.667 20.5 -45 30.5s-23.833 15 -34.5 15c-24 0 -38 -17 -42 -51h-97c2.66699 44 14.5 80.167 35.5 108.5s50.5 42.5 88.5 42.5c20 0 37.667 -3.16699 53 -9.5
s26.833 -13.333 34.5 -21s16.167 -14.667 25.5 -21s18.666 -9.5 27.999 -9.5c24.667 0 38.334 16.667 41.001 50h97zM409 -9.99902c-105.333 0 -192.334 34.1689 -261.001 102.502s-103 154.166 -103 257.499c0 102.667 34.5 188.334 103.5 257.001s156.167 103 261.5 103
c104.667 0 191.334 -34.333 260.001 -103s103 -154.334 103 -257.001s-34.167 -188.334 -102.5 -257.001s-155.5 -103 -261.5 -103zM409.999 132.003c59.333 0 108.333 20.5 147 61.5s58 93.167 58 156.5c0 62.667 -19.333 114.667 -58 156s-87.667 62 -147 62
c-60 0 -109.5 -20.5 -148.5 -61.5s-58.5 -93.167 -58.5 -156.5s19.5 -115.5 58.5 -156.5s88.5 -61.5 148.5 -61.5z" />
    <glyph glyph-name="Odieresis" unicode="&#xd6;" horiz-adv-x="818" 
d="M289 748c-24 0 -44.5 8.33301 -61.5 25s-25.5 36.667 -25.5 60c0 24 8.5 44.167 25.5 60.5s37.5 24.5 61.5 24.5c22.667 0 42.334 -8.16699 59.001 -24.5s25 -36.5 25 -60.5c0 -23.333 -8.33301 -43.333 -25 -60s-36.334 -25 -59.001 -25zM530 748
c-22.667 0 -42.334 8.33301 -59.001 25s-25 36.667 -25 60c0 24 8.33301 44.167 25 60.5s36.334 24.5 59.001 24.5c24 0 44.333 -8.16699 61 -24.5s25 -36.5 25 -60.5c0 -23.333 -8.33301 -43.333 -25 -60s-37 -25 -61 -25zM409 -10
c-105.333 0 -192.334 34.1689 -261.001 102.502s-103 154.166 -103 257.499c0 102.667 34.5 188.334 103.5 257.001s156.167 103 261.5 103c104.667 0 191.334 -34.333 260.001 -103s103 -154.334 103 -257.001s-34.167 -188.334 -102.5 -257.001s-155.5 -103 -261.5 -103z
M409.999 132.002c59.333 0 108.333 20.5 147 61.5s58 93.167 58 156.5c0 62.667 -19.333 114.667 -58 156s-87.667 62 -147 62c-60 0 -109.5 -20.5 -148.5 -61.5s-58.5 -93.167 -58.5 -156.5s19.5 -115.5 58.5 -156.5s88.5 -61.5 148.5 -61.5z" />
    <glyph glyph-name="multiply" unicode="&#xd7;" horiz-adv-x="595" 
d="M537 422l-151 -142l151 -142l-85 -87l-154 145l-154 -145l-86 87l151 142l-151 142l85 87l155 -145l154 145z" />
    <glyph glyph-name="Oslash" unicode="&#xd8;" horiz-adv-x="818" 
d="M674 603c66 -68 99 -152.333 99 -253c0 -102.667 -34.167 -188.334 -102.5 -257.001s-155.5 -103 -261.5 -103c-62 0 -119.667 13 -173 39l-65 -85l-90 69l63 83c-66 68 -99 152.667 -99 254c0 102.667 34.5 188.334 103.5 257.001s156.167 103 261.5 103
c62 0 119 -13 171 -39l64 85l92 -70zM195 350c0 -51.333 13 -96.333 39 -135l261 344c-26.667 11.333 -55 17 -85 17c-62.667 0 -114.167 -21.333 -154.5 -64s-60.5 -96.667 -60.5 -162zM410 124c61.333 0 112.167 21.333 152.5 64s60.5 96.667 60.5 162
c0 51.333 -13 96.333 -39 135l-262 -343c26 -12 55.333 -18 88 -18z" />
    <glyph glyph-name="Ugrave" unicode="&#xd9;" horiz-adv-x="710" 
d="M332 900l80 -145h-112l-92 145h124zM651 700v-425c0 -93.333 -27.167 -164.166 -81.5 -212.499s-125.5 -72.5 -213.5 -72.5s-159.5 24.167 -214.5 72.5s-82.5 119.166 -82.5 212.499v425h155v-422c0 -45.333 13.167 -81 39.5 -107s60.833 -39 103.5 -39
s76.5 12.833 101.5 38.5s37.5 61.5 37.5 107.5v422h155z" />
    <glyph glyph-name="Uacute" unicode="&#xda;" horiz-adv-x="710" 
d="M378 900h124l-91 -145h-113zM651 700v-425c0 -93.333 -27.167 -164.166 -81.5 -212.499s-125.5 -72.5 -213.5 -72.5s-159.5 24.167 -214.5 72.5s-82.5 119.166 -82.5 212.499v425h155v-422c0 -45.333 13.167 -81 39.5 -107s60.833 -39 103.5 -39s76.5 12.833 101.5 38.5
s37.5 61.5 37.5 107.5v422h155z" />
    <glyph glyph-name="Ucircumflex" unicode="&#xdb;" horiz-adv-x="710" 
d="M304 747h-123l111 153h123l112 -153h-122l-47 73h-9zM651 700v-425c0 -93.333 -27.167 -164.166 -81.5 -212.499s-125.5 -72.5 -213.5 -72.5s-159.5 24.167 -214.5 72.5s-82.5 119.166 -82.5 212.499v425h155v-422c0 -45.333 13.167 -81 39.5 -107s60.833 -39 103.5 -39
s76.5 12.833 101.5 38.5s37.5 61.5 37.5 107.5v422h155z" />
    <glyph glyph-name="Udieresis" unicode="&#xdc;" horiz-adv-x="710" 
d="M235 748c-24 0 -44.5 8.33301 -61.5 25s-25.5 36.667 -25.5 60c0 24 8.5 44.167 25.5 60.5s37.5 24.5 61.5 24.5c22.667 0 42.334 -8.16699 59.001 -24.5s25 -36.5 25 -60.5c0 -23.333 -8.33301 -43.333 -25 -60s-36.334 -25 -59.001 -25zM476 748
c-22.667 0 -42.334 8.33301 -59.001 25s-25 36.667 -25 60c0 24 8.33301 44.167 25 60.5s36.334 24.5 59.001 24.5c24 0 44.333 -8.16699 61 -24.5s25 -36.5 25 -60.5c0 -23.333 -8.33301 -43.333 -25 -60s-37 -25 -61 -25zM651 700v-425
c0 -93.333 -27.167 -164.166 -81.5 -212.499s-125.5 -72.5 -213.5 -72.5s-159.5 24.167 -214.5 72.5s-82.5 119.166 -82.5 212.499v425h155v-422c0 -45.333 13.167 -81 39.5 -107s60.833 -39 103.5 -39s76.5 12.833 101.5 38.5s37.5 61.5 37.5 107.5v422h155z" />
    <glyph glyph-name="Yacute" unicode="&#xdd;" horiz-adv-x="694" 
d="M370 900h124l-91 -145h-113zM493 700h183l-251 -402v-298h-155v298l-252 402h182l142 -234h9z" />
    <glyph glyph-name="Thorn" unicode="&#xde;" horiz-adv-x="635" 
d="M348 579c74.667 0 133.667 -21.167 177 -63.5s65 -97.5 65 -165.5c0 -69.333 -22 -124.833 -66 -166.5s-103.333 -62.5 -178 -62.5h-137v-121h-150v700h150v-121h139zM330 255c33.333 0 58.667 8.66797 76 26.001s26 40.666 26 69.999c0 28 -8.66699 50.5 -26 67.5
s-42 25.5 -74 25.5h-123v-189h121z" />
    <glyph glyph-name="germandbls" unicode="&#xdf;" horiz-adv-x="586" 
d="M420 372c42 -13.333 74.168 -34 96.501 -62s33.5 -67.333 33.5 -118c0 -66 -18.5 -116.167 -55.5 -150.5s-89.5 -51.5 -157.5 -51.5c-28.667 0 -60.334 4.33301 -95.001 13v112c22 -6.66699 44 -10 66 -10c32.667 0 58 8.33301 76 25s27 41 27 73
c0 66 -38.667 99 -116 99h-53v114h38c28.667 0 51.667 7.66699 69 23s26 36.333 26 63c0 25.333 -7.83301 46 -23.5 62s-37.5 24 -65.5 24c-27.333 0 -48.833 -7.66699 -64.5 -23s-23.5 -38 -23.5 -68v-497h-151v490c0 70 20.333 124.167 61 162.5s99.667 57.5 177 57.5
c70.667 0 127.167 -16 169.5 -48s63.5 -76.333 63.5 -133c0 -70.667 -32.667 -120.667 -98 -150v-7z" />
    <glyph glyph-name="agrave" unicode="&#xe0;" horiz-adv-x="557" 
d="M326 555h-112l-92 145h124zM534 111h11.9961v-111h-62c-54 0 -90 19.667 -108 59c-34 -46 -88.667 -69 -164 -69c-55.333 0 -99.666 12.833 -132.999 38.5s-50 62.5 -50 110.5c0 46 14.833 81.5 44.5 106.5s68.834 40.167 117.501 45.5l158 17v16c0 45.333 -24 68 -72 68
c-46 0 -72.667 -21.667 -80 -65h-150c5.33301 54.667 28.333 98.834 69 132.501s94.334 50.5 161.001 50.5c64.667 0 117.834 -16.333 159.501 -49s62.5 -82.334 62.5 -149.001v-164c0 -24.667 11.667 -37 35 -37zM348.996 193l-0.000976562 13.999l-106 -12
c-42.667 -4.66699 -64 -21 -64 -49c0 -28.667 19.667 -43 59 -43c28.667 0 54.334 7.33301 77.001 22s34 37.334 34 68.001z" />
    <glyph glyph-name="aacute" unicode="&#xe1;" horiz-adv-x="557" 
d="M417 700l-91 -145h-113l80 145h124zM534 111h11.9961v-111h-62c-54 0 -90 19.667 -108 59c-34 -46 -88.667 -69 -164 -69c-55.333 0 -99.666 12.833 -132.999 38.5s-50 62.5 -50 110.5c0 46 14.833 81.5 44.5 106.5s68.834 40.167 117.501 45.5l158 17v16
c0 45.333 -24 68 -72 68c-46 0 -72.667 -21.667 -80 -65h-150c5.33301 54.667 28.333 98.834 69 132.501s94.334 50.5 161.001 50.5c64.667 0 117.834 -16.333 159.501 -49s62.5 -82.334 62.5 -149.001v-164c0 -24.667 11.667 -37 35 -37zM348.996 193l-0.000976562 13.999
l-106 -12c-42.667 -4.66699 -64 -21 -64 -49c0 -28.667 19.667 -43 59 -43c28.667 0 54.334 7.33301 77.001 22s34 37.334 34 68.001z" />
    <glyph glyph-name="acircumflex" unicode="&#xe2;" horiz-adv-x="557" 
d="M264 620l-45 -73h-123l111 153h123l112 -153h-122l-47 73h-9zM534 111h11.9961v-111h-62c-54 0 -90 19.667 -108 59c-34 -46 -88.667 -69 -164 -69c-55.333 0 -99.666 12.833 -132.999 38.5s-50 62.5 -50 110.5c0 46 14.833 81.5 44.5 106.5s68.834 40.167 117.501 45.5
l158 17v16c0 45.333 -24 68 -72 68c-46 0 -72.667 -21.667 -80 -65h-150c5.33301 54.667 28.333 98.834 69 132.501s94.334 50.5 161.001 50.5c64.667 0 117.834 -16.333 159.501 -49s62.5 -82.334 62.5 -149.001v-164c0 -24.667 11.667 -37 35 -37zM348.996 193
l-0.000976562 13.999l-106 -12c-42.667 -4.66699 -64 -21 -64 -49c0 -28.667 19.667 -43 59 -43c28.667 0 54.334 7.33301 77.001 22s34 37.334 34 68.001z" />
    <glyph glyph-name="atilde" unicode="&#xe3;" horiz-adv-x="557" 
d="M207 596c-24 0 -38 -16.999 -42 -50.999h-97c2.66699 44 14.5 80.167 35.5 108.5s50.5 42.5 88.5 42.5c20 0 37.667 -3.16699 53 -9.5s26.833 -13.333 34.5 -21s16.167 -14.667 25.5 -21s18.666 -9.5 27.999 -9.5c24.667 0 38.334 16.667 41.001 50h97
c-2 -42.667 -13.5 -78.334 -34.5 -107.001s-50.167 -43 -87.5 -43c-24 0 -44.833 5.16699 -62.5 15.5s-32.667 20.5 -45 30.5s-23.833 15 -34.5 15zM534 111.001h11.9961v-111h-62c-54 0 -90 19.667 -108 59c-34 -46 -88.667 -69 -164 -69
c-55.333 0 -99.666 12.833 -132.999 38.5s-50 62.5 -50 110.5c0 46 14.833 81.5 44.5 106.5s68.834 40.167 117.501 45.5l158 17v16c0 45.333 -24 68 -72 68c-46 0 -72.667 -21.667 -80 -65h-150c5.33301 54.667 28.333 98.834 69 132.501s94.334 50.5 161.001 50.5
c64.667 0 117.834 -16.333 159.501 -49s62.5 -82.334 62.5 -149.001v-164c0 -24.667 11.667 -37 35 -37zM348.996 193.001l-0.000976562 13.999l-106 -12c-42.667 -4.66699 -64 -21 -64 -49c0 -28.667 19.667 -43 59 -43c28.667 0 54.334 7.33301 77.001 22
s34 37.334 34 68.001z" />
    <glyph glyph-name="adieresis" unicode="&#xe4;" horiz-adv-x="557" 
d="M166 538c-21.333 0 -39.666 7.66699 -54.999 23s-23 33.666 -23 54.999s7.66699 39.333 23 54s33.666 22 54.999 22s39.5 -7.33301 54.5 -22s22.5 -32.667 22.5 -54s-7.66699 -39.666 -23 -54.999s-33.333 -23 -54 -23zM374 538c-20.667 0 -38.667 7.83105 -54 23.498
s-23 33.834 -23 54.501c0 21.333 7.66699 39.333 23 54s33.333 22 54 22c21.333 0 39.5 -7.33301 54.5 -22s22.5 -32.667 22.5 -54s-7.5 -39.666 -22.5 -54.999s-33.167 -23 -54.5 -23zM534 110.998h11.9961v-111h-62c-54 0 -90 19.667 -108 59
c-34 -46 -88.667 -69 -164 -69c-55.333 0 -99.666 12.833 -132.999 38.5s-50 62.5 -50 110.5c0 46 14.833 81.5 44.5 106.5s68.834 40.167 117.501 45.5l158 17v16c0 45.333 -24 68 -72 68c-46 0 -72.667 -21.667 -80 -65h-150c5.33301 54.667 28.333 98.834 69 132.501
s94.334 50.5 161.001 50.5c64.667 0 117.834 -16.333 159.501 -49s62.5 -82.334 62.5 -149.001v-164c0 -24.667 11.667 -37 35 -37zM348.996 192.998l-0.000976562 13.999l-106 -12c-42.667 -4.66699 -64 -21 -64 -49c0 -28.667 19.667 -43 59 -43
c28.667 0 54.334 7.33301 77.001 22s34 37.334 34 68.001z" />
    <glyph glyph-name="aring" unicode="&#xe5;" horiz-adv-x="557" 
d="M268 529c-28.667 0 -53.167 10 -73.5 30s-30.5 44 -30.5 72c0 27.333 10.167 51 30.5 71s44.833 30 73.5 30s53.334 -10 74.001 -30s31 -43.667 31 -71c0 -28 -10.333 -52 -31 -72s-45.334 -30 -74.001 -30zM269 655c-7.33301 0 -13.5 -2.5 -18.5 -7.5
s-7.5 -10.5 -7.5 -16.5c0 -7.33301 2.5 -13.333 7.5 -18s11.167 -7 18.5 -7c6.66699 0 12.5 2.5 17.5 7.5s7.5 10.833 7.5 17.5c0 6 -2.5 11.5 -7.5 16.5s-10.833 7.5 -17.5 7.5zM534 111h11.9961v-111h-62c-54 0 -90 19.667 -108 59c-34 -46 -88.667 -69 -164 -69
c-55.333 0 -99.666 12.833 -132.999 38.5s-50 62.5 -50 110.5c0 46 14.833 81.5 44.5 106.5s68.834 40.167 117.501 45.5l158 17v16c0 45.333 -24 68 -72 68c-46 0 -72.667 -21.667 -80 -65h-150c5.33301 54.667 28.333 98.834 69 132.501s94.334 50.5 161.001 50.5
c64.667 0 117.834 -16.333 159.501 -49s62.5 -82.334 62.5 -149.001v-164c0 -24.667 11.667 -37 35 -37zM348.996 193l-0.000976562 13.999l-106 -12c-42.667 -4.66699 -64 -21 -64 -49c0 -28.667 19.667 -43 59 -43c28.667 0 54.334 7.33301 77.001 22s34 37.334 34 68.001
z" />
    <glyph glyph-name="ae" unicode="&#xe6;" horiz-adv-x="775" 
d="M604 165h134.999c-5.33301 -56.667 -26.833 -100 -64.5 -130s-84.167 -45 -139.5 -45c-75.333 0 -129.333 23.667 -162 71c-31.333 -47.333 -88.333 -71 -171 -71c-53.333 0 -95.5 12.333 -126.5 37s-46.5 60 -46.5 106c0 54.667 19.167 97 57.5 127s92.833 45 163.5 45
h56v30c0 40.667 -20.667 61 -62 61c-42 0 -64 -21 -66 -63l-143 5c3.33301 55.333 22.833 97.833 58.5 127.5s83.5 44.5 143.5 44.5c64.667 0 114.334 -20.333 149.001 -61c34 40.667 82.333 61 145 61c26.667 0 51.5 -4.33301 74.5 -13s44.667 -22.5 65 -41.5
s36.333 -46.167 48 -81.5s17.5 -77 17.5 -125c0 -8.66699 -0.666992 -23.667 -2 -45h-280c3.33301 -68 29.333 -102 78 -102c42.667 0 66.667 21 72 63zM528.999 398c-47.333 0 -72.333 -31 -75 -93h143c0.666992 62 -22 93 -68 93zM225.999 102
c22 0 40.833 5.33301 56.5 16s23.5 28.667 23.5 54v32h-56c-54 0 -81 -18.333 -81 -55c0 -31.333 19 -47 57 -47z" />
    <glyph glyph-name="ccedilla" unicode="&#xe7;" horiz-adv-x="582" 
d="M303 120c51.333 0 84.6689 19.6631 100.002 58.9961h150c-6.66699 -53.333 -29.5 -96.666 -68.5 -129.999s-88.5 -52.666 -148.5 -57.999l-22 -34c26 1.33301 49 -5.16699 69 -19.5s30 -34.5 30 -60.5c0 -27.333 -9.66699 -48.666 -29 -63.999s-46.333 -23 -81 -23
c-32.667 0 -61.334 8.66699 -86.001 26l24 56c21.333 -12.667 41.333 -19 60 -19c24 0 36 8.66699 36 26c0 16.667 -11.333 25 -34 25c-10.667 0 -21 -1.66699 -31 -5l-48 38l32 56c-66.667 9.33301 -120 37 -160 83s-60 103.333 -60 172c0 78 25.5 141.167 76.5 189.5
s113.833 72.5 188.5 72.5c64.667 0 121 -17 169 -51s75.667 -84 83 -150h-151c-5.33301 21.333 -17 38.5 -35 51.5s-40 19.5 -66 19.5c-33.333 0 -60.833 -12.167 -82.5 -36.5s-32.5 -56.166 -32.5 -95.499s10.667 -70.5 32 -93.5s49.666 -34.5 84.999 -34.5z" />
    <glyph glyph-name="egrave" unicode="&#xe8;" horiz-adv-x="578" 
d="M350 555h-112l-92 145h124zM398 166l142.997 -0.00195312c-9.33301 -54 -35.166 -96.833 -77.499 -128.5s-96.833 -47.5 -163.5 -47.5c-77.333 0 -140.666 23.333 -189.999 70s-74 108.334 -74 185.001c0 80.667 24.833 145 74.5 193s110.834 72 183.501 72
c68.667 0 126.5 -21.667 173.5 -65s70.833 -108.666 71.5 -195.999c0 -12.667 -1 -26 -3 -40h-352c3.33301 -30 15 -54.333 35 -73s47 -28 81 -28c53.333 0 86 19.333 98 58zM293.997 391.998c-28.667 0 -52.499 -7.83301 -71.499 -23.5s-31.167 -35.834 -36.5 -60.501h210
c-2.66699 24.667 -13.334 44.834 -32.001 60.501s-42 23.5 -70 23.5z" />
    <glyph glyph-name="eacute" unicode="&#xe9;" horiz-adv-x="578" 
d="M441 700l-91 -145h-113l80 145h124zM398 166l142.997 -0.00195312c-9.33301 -54 -35.166 -96.833 -77.499 -128.5s-96.833 -47.5 -163.5 -47.5c-77.333 0 -140.666 23.333 -189.999 70s-74 108.334 -74 185.001c0 80.667 24.833 145 74.5 193s110.834 72 183.501 72
c68.667 0 126.5 -21.667 173.5 -65s70.833 -108.666 71.5 -195.999c0 -12.667 -1 -26 -3 -40h-352c3.33301 -30 15 -54.333 35 -73s47 -28 81 -28c53.333 0 86 19.333 98 58zM293.997 391.998c-28.667 0 -52.499 -7.83301 -71.499 -23.5s-31.167 -35.834 -36.5 -60.501h210
c-2.66699 24.667 -13.334 44.834 -32.001 60.501s-42 23.5 -70 23.5z" />
    <glyph glyph-name="ecircumflex" unicode="&#xea;" horiz-adv-x="578" 
d="M288 620l-45 -73h-123l111 153h123l112 -153h-122l-47 73h-9zM398 166l142.997 -0.00195312c-9.33301 -54 -35.166 -96.833 -77.499 -128.5s-96.833 -47.5 -163.5 -47.5c-77.333 0 -140.666 23.333 -189.999 70s-74 108.334 -74 185.001c0 80.667 24.833 145 74.5 193
s110.834 72 183.501 72c68.667 0 126.5 -21.667 173.5 -65s70.833 -108.666 71.5 -195.999c0 -12.667 -1 -26 -3 -40h-352c3.33301 -30 15 -54.333 35 -73s47 -28 81 -28c53.333 0 86 19.333 98 58zM293.997 391.998c-28.667 0 -52.499 -7.83301 -71.499 -23.5
s-31.167 -35.834 -36.5 -60.501h210c-2.66699 24.667 -13.334 44.834 -32.001 60.501s-42 23.5 -70 23.5z" />
    <glyph glyph-name="edieresis" unicode="&#xeb;" horiz-adv-x="578" 
d="M191 538c-21.333 0 -39.666 7.66699 -54.999 23s-23 33.666 -23 54.999s7.66699 39.333 23 54s33.666 22 54.999 22s39.5 -7.33301 54.5 -22s22.5 -32.667 22.5 -54s-7.66699 -39.666 -23 -54.999s-33.333 -23 -54 -23zM399 538c-20.667 0 -38.667 7.83105 -54 23.498
s-23 33.834 -23 54.501c0 21.333 7.66699 39.333 23 54s33.333 22 54 22c21.333 0 39.5 -7.33301 54.5 -22s22.5 -32.667 22.5 -54s-7.5 -39.666 -22.5 -54.999s-33.167 -23 -54.5 -23zM398 165.998l142.997 -0.00195312c-9.33301 -54 -35.166 -96.833 -77.499 -128.5
s-96.833 -47.5 -163.5 -47.5c-77.333 0 -140.666 23.333 -189.999 70s-74 108.334 -74 185.001c0 80.667 24.833 145 74.5 193s110.834 72 183.501 72c68.667 0 126.5 -21.667 173.5 -65s70.833 -108.666 71.5 -195.999c0 -12.667 -1 -26 -3 -40h-352
c3.33301 -30 15 -54.333 35 -73s47 -28 81 -28c53.333 0 86 19.333 98 58zM293.997 391.996c-28.667 0 -52.499 -7.83301 -71.499 -23.5s-31.167 -35.834 -36.5 -60.501h210c-2.66699 24.667 -13.334 44.834 -32.001 60.501s-42 23.5 -70 23.5z" />
    <glyph glyph-name="igrave" unicode="&#xec;" horiz-adv-x="245" 
d="M99 700l80 -145h-112l-92 145h124zM47 0v500h150v-500h-150z" />
    <glyph glyph-name="iacute" unicode="&#xed;" horiz-adv-x="245" 
d="M146 700h124l-91 -145h-113zM47 0v500h150v-500h-150z" />
    <glyph glyph-name="icircumflex" unicode="&#xee;" horiz-adv-x="245" 
d="M72 547h-123l111 153h123l112 -153h-122l-47 73h-9zM47 0v500h150v-500h-150z" />
    <glyph glyph-name="idieresis" unicode="&#xef;" horiz-adv-x="245" 
d="M19 538c-21.333 0 -39.666 7.66699 -54.999 23s-23 33.666 -23 54.999s7.66699 39.333 23 54s33.666 22 54.999 22s39.5 -7.33301 54.5 -22s22.5 -32.667 22.5 -54s-7.66699 -39.666 -23 -54.999s-33.333 -23 -54 -23zM227 538c-20.667 0 -38.667 7.83105 -54 23.498
s-23 33.834 -23 54.501c0 21.333 7.66699 39.333 23 54s33.333 22 54 22c21.333 0 39.5 -7.33301 54.5 -22s22.5 -32.667 22.5 -54s-7.5 -39.666 -22.5 -54.999s-33.167 -23 -54.5 -23zM47 -0.00195312v500h150v-500h-150z" />
    <glyph glyph-name="eth" unicode="&#xf0;" 
d="M454 577c72 -94.667 108 -196.331 108 -304.998c0 -92.667 -24.667 -162.834 -74 -210.501s-114.333 -71.5 -195 -71.5c-73.333 0 -134.5 23 -183.5 69s-73.5 104 -73.5 174c0 65.333 21.333 120.166 64 164.499s98.667 66.5 168 66.5c57.333 0 101 -15.667 131 -47h9
c-14 42 -38.667 84.667 -74 128l-157 -42l-20 75l119 32c-28.667 30 -62.334 60 -101.001 90h164c26.667 -24 46.334 -43 59.001 -57l103 28l20 -76zM293 113.003c36 0 65.499 10.999 88.499 32.999s34.5 50 34.5 84c0 32.667 -11.667 59.167 -35 79.5s-53 30.5 -89 30.5
c-35.333 0 -64.166 -10.167 -86.499 -30.5s-33.5 -47.166 -33.5 -80.499s11.333 -61 34 -83s51.667 -33 87 -33z" />
    <glyph glyph-name="ntilde" unicode="&#xf1;" horiz-adv-x="603" 
d="M503 685c-2 -42.667 -13.5 -78.333 -34.5 -107s-50.167 -43 -87.5 -43c-24 0 -44.833 5.16699 -62.5 15.5s-32.667 20.5 -45 30.5s-23.833 15 -34.5 15c-24 0 -38 -17 -42 -51h-97c2.66699 44 14.5 80.167 35.5 108.5s50.5 42.5 88.5 42.5c20 0 37.667 -3.16699 53 -9.5
s26.833 -13.333 34.5 -21s16.167 -14.667 25.5 -21s18.666 -9.5 27.999 -9.5c24.667 0 38.334 16.667 41.001 50h97zM47 0.000976562l-0.000976562 499.999h137l13 -58h9c36 45.333 85.333 68 148 68s111.834 -19 147.501 -57s53.5 -90 53.5 -156v-297h-150v266
c0 36.667 -9.5 64.834 -28.5 84.501s-43.5 29.5 -73.5 29.5s-55.167 -10 -75.5 -30s-30.5 -49 -30.5 -87v-263h-150z" />
    <glyph glyph-name="ograve" unicode="&#xf2;" horiz-adv-x="613" 
d="M283 700l80 -145h-112l-92 145h124zM307 -10c-77.333 0 -141.833 24.3311 -193.5 72.998s-77.5 111.334 -77.5 188.001s25.667 139 77 187s116 72 194 72c77.333 0 141.666 -24 192.999 -72s77 -110.333 77 -187c0 -77.333 -25.667 -140.166 -77 -188.499
s-115.666 -72.5 -192.999 -72.5zM307 119.998c36 0 65.167 12.5 87.5 37.5s33.5 56.167 33.5 93.5s-11.167 68.166 -33.5 92.499s-51.5 36.5 -87.5 36.5c-36.667 0 -66.167 -12.167 -88.5 -36.5s-33.5 -55.166 -33.5 -92.499s11.333 -68.5 34 -93.5s52 -37.5 88 -37.5z" />
    <glyph glyph-name="oacute" unicode="&#xf3;" horiz-adv-x="613" 
d="M330 700h124l-91 -145h-113zM307 -10c-77.333 0 -141.833 24.3311 -193.5 72.998s-77.5 111.334 -77.5 188.001s25.667 139 77 187s116 72 194 72c77.333 0 141.666 -24 192.999 -72s77 -110.333 77 -187c0 -77.333 -25.667 -140.166 -77 -188.499
s-115.666 -72.5 -192.999 -72.5zM307 119.998c36 0 65.167 12.5 87.5 37.5s33.5 56.167 33.5 93.5s-11.167 68.166 -33.5 92.499s-51.5 36.5 -87.5 36.5c-36.667 0 -66.167 -12.167 -88.5 -36.5s-33.5 -55.166 -33.5 -92.499s11.333 -68.5 34 -93.5s52 -37.5 88 -37.5z" />
    <glyph glyph-name="ocircumflex" unicode="&#xf4;" horiz-adv-x="613" 
d="M256 547h-123l111 153h123l112 -153h-122l-47 73h-9zM307 -10c-77.333 0 -141.833 24.3311 -193.5 72.998s-77.5 111.334 -77.5 188.001s25.667 139 77 187s116 72 194 72c77.333 0 141.666 -24 192.999 -72s77 -110.333 77 -187
c0 -77.333 -25.667 -140.166 -77 -188.499s-115.666 -72.5 -192.999 -72.5zM307 119.998c36 0 65.167 12.5 87.5 37.5s33.5 56.167 33.5 93.5s-11.167 68.166 -33.5 92.499s-51.5 36.5 -87.5 36.5c-36.667 0 -66.167 -12.167 -88.5 -36.5s-33.5 -55.166 -33.5 -92.499
s11.333 -68.5 34 -93.5s52 -37.5 88 -37.5z" />
    <glyph glyph-name="otilde" unicode="&#xf5;" horiz-adv-x="613" 
d="M508 685c-2 -42.667 -13.5 -78.333 -34.5 -107s-50.167 -43 -87.5 -43c-24 0 -44.833 5.16699 -62.5 15.5s-32.667 20.5 -45 30.5s-23.833 15 -34.5 15c-24 0 -38 -17 -42 -51h-97c2.66699 44 14.5 80.167 35.5 108.5s50.5 42.5 88.5 42.5c20 0 37.667 -3.16699 53 -9.5
s26.833 -13.333 34.5 -21s16.167 -14.667 25.5 -21s18.666 -9.5 27.999 -9.5c24.667 0 38.334 16.667 41.001 50h97zM307 -9.99902c-77.333 0 -141.833 24.3311 -193.5 72.998s-77.5 111.334 -77.5 188.001s25.667 139 77 187s116 72 194 72
c77.333 0 141.666 -24 192.999 -72s77 -110.333 77 -187c0 -77.333 -25.667 -140.166 -77 -188.499s-115.666 -72.5 -192.999 -72.5zM307 119.999c36 0 65.167 12.5 87.5 37.5s33.5 56.167 33.5 93.5s-11.167 68.166 -33.5 92.499s-51.5 36.5 -87.5 36.5
c-36.667 0 -66.167 -12.167 -88.5 -36.5s-33.5 -55.166 -33.5 -92.499s11.333 -68.5 34 -93.5s52 -37.5 88 -37.5z" />
    <glyph glyph-name="odieresis" unicode="&#xf6;" horiz-adv-x="613" 
d="M203 538c-21.333 0 -39.666 7.66699 -54.999 23s-23 33.666 -23 54.999s7.66699 39.333 23 54s33.666 22 54.999 22s39.5 -7.33301 54.5 -22s22.5 -32.667 22.5 -54s-7.66699 -39.666 -23 -54.999s-33.333 -23 -54 -23zM411 538c-20.667 0 -38.667 7.83105 -54 23.498
s-23 33.834 -23 54.501c0 21.333 7.66699 39.333 23 54s33.333 22 54 22c21.333 0 39.5 -7.33301 54.5 -22s22.5 -32.667 22.5 -54s-7.5 -39.666 -22.5 -54.999s-33.167 -23 -54.5 -23zM307 -10.002c-77.333 0 -141.833 24.3311 -193.5 72.998s-77.5 111.334 -77.5 188.001
s25.667 139 77 187s116 72 194 72c77.333 0 141.666 -24 192.999 -72s77 -110.333 77 -187c0 -77.333 -25.667 -140.166 -77 -188.499s-115.666 -72.5 -192.999 -72.5zM307 119.996c36 0 65.167 12.5 87.5 37.5s33.5 56.167 33.5 93.5s-11.167 68.166 -33.5 92.499
s-51.5 36.5 -87.5 36.5c-36.667 0 -66.167 -12.167 -88.5 -36.5s-33.5 -55.166 -33.5 -92.499s11.333 -68.5 34 -93.5s52 -37.5 88 -37.5z" />
    <glyph glyph-name="divide" unicode="&#xf7;" horiz-adv-x="595" 
d="M298 373c-23.333 0 -43.5 8.33301 -60.5 25s-25.5 36.667 -25.5 60c0 24 8.5 44.333 25.5 61s37.167 25 60.5 25s43.333 -8.33301 60 -25s25 -37 25 -61c0 -23.333 -8.33301 -43.333 -25 -60s-36.667 -25 -60 -25zM53 341h489v-122h-489v122zM298 12
c-23.333 0 -43.5 8.33301 -60.5 25s-25.5 36.667 -25.5 60c0 24 8.5 44.333 25.5 61s37.167 25 60.5 25s43.333 -8.33301 60 -25s25 -37 25 -61c0 -23.333 -8.33301 -43.333 -25 -60s-36.667 -25 -60 -25z" />
    <glyph glyph-name="oslash" unicode="&#xf8;" horiz-adv-x="613" 
d="M507 431c46.667 -48 69.9971 -108.001 69.9971 -180.001c0 -77.333 -25.667 -140.166 -77 -188.499s-115.666 -72.5 -192.999 -72.5c-43.333 0 -83.666 8.33301 -120.999 25l-51 -67l-79 56l50 66c-46.667 48 -70 108.333 -70 181c0 76.667 25.667 139 77 187
s116 72 194 72c44.667 0 84.334 -8 119.001 -24l51 66l79 -57zM176.997 250.999c0 -26 5 -49 15 -69l155 200c-12.667 4 -26 6 -40 6c-38.667 0 -70 -12.833 -94 -38.5s-36 -58.5 -36 -98.5zM306.997 111.999c38.667 0 69.833 13.167 93.5 39.5s35.5 59.5 35.5 99.5
c0 26 -5 48.667 -15 68l-155 -201c13.333 -4 27 -6 41 -6z" />
    <glyph glyph-name="ugrave" unicode="&#xf9;" horiz-adv-x="603" 
d="M278 700l80 -145h-112l-92 145h124zM556 500l0.000976562 -499.999h-137l-13 58h-9c-36 -45.333 -85.333 -68 -148 -68s-111.834 19 -147.501 57s-53.5 90 -53.5 156v297h150v-266c0 -36.667 9.5 -64.834 28.5 -84.501s43.5 -29.5 73.5 -29.5s55.167 10 75.5 30
s30.5 49 30.5 87v263h150z" />
    <glyph glyph-name="uacute" unicode="&#xfa;" horiz-adv-x="603" 
d="M325 700h124l-91 -145h-113zM556 500l0.000976562 -499.999h-137l-13 58h-9c-36 -45.333 -85.333 -68 -148 -68s-111.834 19 -147.501 57s-53.5 90 -53.5 156v297h150v-266c0 -36.667 9.5 -64.834 28.5 -84.501s43.5 -29.5 73.5 -29.5s55.167 10 75.5 30s30.5 49 30.5 87
v263h150z" />
    <glyph glyph-name="ucircumflex" unicode="&#xfb;" horiz-adv-x="603" 
d="M251 547h-123l111 153h123l112 -153h-122l-47 73h-9zM556 500l0.000976562 -499.999h-137l-13 58h-9c-36 -45.333 -85.333 -68 -148 -68s-111.834 19 -147.501 57s-53.5 90 -53.5 156v297h150v-266c0 -36.667 9.5 -64.834 28.5 -84.501s43.5 -29.5 73.5 -29.5
s55.167 10 75.5 30s30.5 49 30.5 87v263h150z" />
    <glyph glyph-name="udieresis" unicode="&#xfc;" horiz-adv-x="603" 
d="M198 538c-21.333 0 -39.666 7.66699 -54.999 23s-23 33.666 -23 54.999s7.66699 39.333 23 54s33.666 22 54.999 22s39.5 -7.33301 54.5 -22s22.5 -32.667 22.5 -54s-7.66699 -39.666 -23 -54.999s-33.333 -23 -54 -23zM406 538c-20.667 0 -38.667 7.83105 -54 23.498
s-23 33.834 -23 54.501c0 21.333 7.66699 39.333 23 54s33.333 22 54 22c21.333 0 39.5 -7.33301 54.5 -22s22.5 -32.667 22.5 -54s-7.5 -39.666 -22.5 -54.999s-33.167 -23 -54.5 -23zM556 499.998l0.000976562 -499.999h-137l-13 58h-9c-36 -45.333 -85.333 -68 -148 -68
s-111.834 19 -147.501 57s-53.5 90 -53.5 156v297h150v-266c0 -36.667 9.5 -64.834 28.5 -84.501s43.5 -29.5 73.5 -29.5s55.167 10 75.5 30s30.5 49 30.5 87v263h150z" />
    <glyph glyph-name="yacute" unicode="&#xfd;" horiz-adv-x="589" 
d="M318 700h124l-91 -145h-113zM163 -210c-28.667 0 -57.333 4 -86 12l-1 109c18.667 -4 35.667 -6 51 -6c56.667 0 94 21.333 112 64l12 31h-46l-191 500h155l126 -348h9l117 348h154l-197 -553c-35.333 -104.667 -107 -157 -215 -157z" />
    <glyph glyph-name="thorn" unicode="&#xfe;" 
d="M334 510c68.667 0 125.5 -23.832 170.5 -71.499s67.5 -110.834 67.5 -189.501c0 -80 -22.833 -143.167 -68.5 -189.5s-102.167 -69.5 -169.5 -69.5c-54 0 -99.667 16.667 -137 50v-240h-150v910h135v-262h9c33.333 41.333 81 62 143 62zM309 120.001
c34 0 61.333 11.833 82 35.5s31 54.834 31 93.501c0 39.333 -10.5 71 -31.5 95s-48.167 36 -81.5 36c-34 0 -61.167 -12 -81.5 -36s-30.5 -55.667 -30.5 -95c0 -38.667 10.167 -69.834 30.5 -93.501s47.5 -35.5 81.5 -35.5z" />
    <glyph glyph-name="ydieresis" unicode="&#xff;" horiz-adv-x="589" 
d="M192 538c-21.333 0 -39.666 7.66699 -54.999 23s-23 33.666 -23 54.999s7.66699 39.333 23 54s33.666 22 54.999 22s39.5 -7.33301 54.5 -22s22.5 -32.667 22.5 -54s-7.66699 -39.666 -23 -54.999s-33.333 -23 -54 -23zM400 538c-20.667 0 -38.667 7.83105 -54 23.498
s-23 33.834 -23 54.501c0 21.333 7.66699 39.333 23 54s33.333 22 54 22c21.333 0 39.5 -7.33301 54.5 -22s22.5 -32.667 22.5 -54s-7.5 -39.666 -22.5 -54.999s-33.167 -23 -54.5 -23zM163 -210.002c-28.667 0 -57.333 4 -86 12l-1 109c18.667 -4 35.667 -6 51 -6
c56.667 0 94 21.333 112 64l12 31h-46l-191 500h155l126 -348h9l117 348h154l-197 -553c-35.333 -104.667 -107 -157 -215 -157z" />
    <glyph glyph-name="Amacron" unicode="&#x100;" horiz-adv-x="726" 
d="M537 862v-99h-347v99h347zM543 0l-53 157h-254l-53 -157h-165l253 700h185l252 -700h-165zM278 283h170l-81 240h-9z" />
    <glyph glyph-name="amacron" unicode="&#x101;" horiz-adv-x="557" 
d="M443 662v-99h-347v99h347zM534 111h11.9961v-111h-62c-54 0 -90 19.667 -108 59c-34 -46 -88.667 -69 -164 -69c-55.333 0 -99.666 12.833 -132.999 38.5s-50 62.5 -50 110.5c0 46 14.833 81.5 44.5 106.5s68.834 40.167 117.501 45.5l158 17v16c0 45.333 -24 68 -72 68
c-46 0 -72.667 -21.667 -80 -65h-150c5.33301 54.667 28.333 98.834 69 132.501s94.334 50.5 161.001 50.5c64.667 0 117.834 -16.333 159.501 -49s62.5 -82.334 62.5 -149.001v-164c0 -24.667 11.667 -37 35 -37zM348.996 193l-0.000976562 13.999l-106 -12
c-42.667 -4.66699 -64 -21 -64 -49c0 -28.667 19.667 -43 59 -43c28.667 0 54.334 7.33301 77.001 22s34 37.334 34 68.001z" />
    <glyph glyph-name="Abreve" unicode="&#x102;" horiz-adv-x="726" 
d="M363 764c-42.667 0 -79.333 12.833 -110 38.5s-46 58.167 -46 97.5h109c0 -14 4.16699 -25.833 12.5 -35.5s19.833 -14.5 34.5 -14.5s26.167 4.83301 34.5 14.5s12.5 21.5 12.5 35.5h107c0 -39.333 -15 -71.833 -45 -97.5s-66.333 -38.5 -109 -38.5zM543.001 0l-53 157
h-254l-53 -157h-165l253 700h185l252 -700h-165zM278.001 283h170l-81 240h-9z" />
    <glyph glyph-name="abreve" unicode="&#x103;" horiz-adv-x="557" 
d="M269 564c-42.667 0 -79.333 12.833 -110 38.5s-46 58.167 -46 97.5h109c0 -14 4.16699 -25.833 12.5 -35.5s19.833 -14.5 34.5 -14.5s26.167 4.83301 34.5 14.5s12.5 21.5 12.5 35.5h107c0 -39.333 -15 -71.833 -45 -97.5s-66.333 -38.5 -109 -38.5zM534.001 111h11.9961
v-111h-62c-54 0 -90 19.667 -108 59c-34 -46 -88.667 -69 -164 -69c-55.333 0 -99.666 12.833 -132.999 38.5s-50 62.5 -50 110.5c0 46 14.833 81.5 44.5 106.5s68.834 40.167 117.501 45.5l158 17v16c0 45.333 -24 68 -72 68c-46 0 -72.667 -21.667 -80 -65h-150
c5.33301 54.667 28.333 98.834 69 132.501s94.334 50.5 161.001 50.5c64.667 0 117.834 -16.333 159.501 -49s62.5 -82.334 62.5 -149.001v-164c0 -24.667 11.667 -37 35 -37zM348.997 193l-0.000976562 13.999l-106 -12c-42.667 -4.66699 -64 -21 -64 -49
c0 -28.667 19.667 -43 59 -43c28.667 0 54.334 7.33301 77.001 22s34 37.334 34 68.001z" />
    <glyph glyph-name="Aogonek" unicode="&#x104;" horiz-adv-x="726" 
d="M698 -100c14.667 0 30.333 2.33398 47 7.00098v-79c-16.667 -6 -37.667 -9 -63 -9c-39.333 0 -70.333 8.5 -93 25.5s-34 40.5 -34 70.5c0 34 17.667 62.333 53 85h-65l-53 157h-254l-53 -157h-165l253 700h185l252 -700c-44 -12.667 -66 -33.334 -66 -62.001
c0 -25.333 18.667 -38 56 -38zM277.999 283.001h170l-81 240h-9z" />
    <glyph glyph-name="aogonek" unicode="&#x105;" horiz-adv-x="557" 
d="M536 -100c14.667 0 30.3301 2.33398 46.9971 7.00098v-79c-17.333 -6 -38.333 -9 -63 -9c-39.333 0 -70.333 8.5 -93 25.5s-34 40.5 -34 70.5c0 34.667 19 64 57 88c-34.667 5.33301 -59.334 24 -74.001 56c-34 -46 -88.667 -69 -164 -69
c-55.333 0 -99.666 12.833 -132.999 38.5s-50 62.5 -50 110.5c0 46 14.833 81.5 44.5 106.5s68.834 40.167 117.501 45.5l158 17v16c0 45.333 -24 68 -72 68c-46 0 -72.667 -21.667 -80 -65h-150c5.33301 54.667 28.333 98.834 69 132.501s94.334 50.5 161.001 50.5
c64.667 0 117.834 -16.333 159.501 -49s62.5 -82.334 62.5 -149.001v-164c0 -24.667 11.667 -37 35 -37h12v-111c-44 -12.667 -66 -33.334 -66 -62.001c0 -25.333 18.667 -38 56 -38zM348.996 193.001l-0.000976562 13.999l-106 -12c-42.667 -4.66699 -64 -21 -64 -49
c0 -28.667 19.667 -43 59 -43c28.667 0 54.334 7.33301 77.001 22s34 37.334 34 68.001z" />
    <glyph glyph-name="Cacute" unicode="&#x106;" horiz-adv-x="758" 
d="M421 900h124l-91 -145h-113zM723 231c-10 -76 -45.667 -135.166 -107 -177.499s-135 -63.5 -221 -63.5c-108 0 -193.333 33.333 -256 100s-94 152.667 -94 258c0 106.667 32.167 193.667 96.5 261s148.833 101 253.5 101c84 0 155 -21.333 213 -64s92.333 -103 103 -181
h-166c-10.667 32.667 -29 58 -55 76s-57.667 27 -95 27c-56.667 0 -102.834 -20.833 -138.501 -62.5s-53.5 -94.167 -53.5 -157.5c0 -64.667 18.333 -116.834 55 -156.501s82.334 -59.5 137.001 -59.5c40.667 0 75.167 9 103.5 27s47.5 42 57.5 72h167z" />
    <glyph glyph-name="cacute" unicode="&#x107;" horiz-adv-x="582" 
d="M324 700h124l-91 -145h-113zM303 -10c-79.333 0 -143.663 23.8311 -192.996 71.498s-74 109.834 -74 186.501c0 78 25.5 141.167 76.5 189.5s113.833 72.5 188.5 72.5c64.667 0 121 -17 169 -51s75.667 -84 83 -150h-151c-5.33301 21.333 -17 38.5 -35 51.5
s-40 19.5 -66 19.5c-33.333 0 -60.833 -12.167 -82.5 -36.5s-32.5 -56.166 -32.5 -95.499s10.667 -70.5 32 -93.5s49.666 -34.5 84.999 -34.5c51.333 0 84.666 19.667 99.999 59h150c-6.66699 -58 -32.834 -104 -78.501 -138s-102.834 -51 -171.501 -51z" />
    <glyph glyph-name="Ccircumflex" unicode="&#x108;" horiz-adv-x="758" 
d="M347 747h-123l111 153h123l112 -153h-122l-47 73h-9zM723 231c-10 -76 -45.667 -135.166 -107 -177.499s-135 -63.5 -221 -63.5c-108 0 -193.333 33.333 -256 100s-94 152.667 -94 258c0 106.667 32.167 193.667 96.5 261s148.833 101 253.5 101
c84 0 155 -21.333 213 -64s92.333 -103 103 -181h-166c-10.667 32.667 -29 58 -55 76s-57.667 27 -95 27c-56.667 0 -102.834 -20.833 -138.501 -62.5s-53.5 -94.167 -53.5 -157.5c0 -64.667 18.333 -116.834 55 -156.501s82.334 -59.5 137.001 -59.5
c40.667 0 75.167 9 103.5 27s47.5 42 57.5 72h167z" />
    <glyph glyph-name="ccircumflex" unicode="&#x109;" horiz-adv-x="582" 
d="M250 547h-123l111 153h123l112 -153h-122l-47 73h-9zM303 -10c-79.333 0 -143.663 23.8311 -192.996 71.498s-74 109.834 -74 186.501c0 78 25.5 141.167 76.5 189.5s113.833 72.5 188.5 72.5c64.667 0 121 -17 169 -51s75.667 -84 83 -150h-151
c-5.33301 21.333 -17 38.5 -35 51.5s-40 19.5 -66 19.5c-33.333 0 -60.833 -12.167 -82.5 -36.5s-32.5 -56.166 -32.5 -95.499s10.667 -70.5 32 -93.5s49.666 -34.5 84.999 -34.5c51.333 0 84.666 19.667 99.999 59h150c-6.66699 -58 -32.834 -104 -78.501 -138
s-102.834 -51 -171.501 -51z" />
    <glyph glyph-name="Cdotaccent" unicode="&#x10a;" horiz-adv-x="758" 
d="M398 755c-24 0 -45.002 8.83301 -63.002 26.5s-27 38.167 -27 61.5c0 24.667 8.83301 45.5 26.5 62.5s38.834 25.5 63.501 25.5c24 0 44.5 -8.5 61.5 -25.5s25.5 -37.833 25.5 -62.5c0 -23.333 -8.66699 -43.833 -26 -61.5s-37.666 -26.5 -60.999 -26.5zM722.998 231
c-10 -76 -45.667 -135.166 -107 -177.499s-135 -63.5 -221 -63.5c-108 0 -193.333 33.333 -256 100s-94 152.667 -94 258c0 106.667 32.167 193.667 96.5 261s148.833 101 253.5 101c84 0 155 -21.333 213 -64s92.333 -103 103 -181h-166c-10.667 32.667 -29 58 -55 76
s-57.667 27 -95 27c-56.667 0 -102.834 -20.833 -138.501 -62.5s-53.5 -94.167 -53.5 -157.5c0 -64.667 18.333 -116.834 55 -156.501s82.334 -59.5 137.001 -59.5c40.667 0 75.167 9 103.5 27s47.5 42 57.5 72h167z" />
    <glyph glyph-name="cdotaccent" unicode="&#x10b;" horiz-adv-x="582" 
d="M302 555c-24 0 -45.002 8.83301 -63.002 26.5s-27 38.167 -27 61.5c0 24.667 8.83301 45.5 26.5 62.5s38.834 25.5 63.501 25.5c24 0 44.5 -8.5 61.5 -25.5s25.5 -37.833 25.5 -62.5c0 -23.333 -8.66699 -43.833 -26 -61.5s-37.666 -26.5 -60.999 -26.5zM302.998 -10
c-79.333 0 -143.663 23.8311 -192.996 71.498s-74 109.834 -74 186.501c0 78 25.5 141.167 76.5 189.5s113.833 72.5 188.5 72.5c64.667 0 121 -17 169 -51s75.667 -84 83 -150h-151c-5.33301 21.333 -17 38.5 -35 51.5s-40 19.5 -66 19.5
c-33.333 0 -60.833 -12.167 -82.5 -36.5s-32.5 -56.166 -32.5 -95.499s10.667 -70.5 32 -93.5s49.666 -34.5 84.999 -34.5c51.333 0 84.666 19.667 99.999 59h150c-6.66699 -58 -32.834 -104 -78.501 -138s-102.834 -51 -171.501 -51z" />
    <glyph glyph-name="Ccaron" unicode="&#x10c;" horiz-adv-x="758" 
d="M448 900h122l-111 -153h-123l-112 153h122l47 -73h9zM723 231c-10 -76 -45.667 -135.166 -107 -177.499s-135 -63.5 -221 -63.5c-108 0 -193.333 33.333 -256 100s-94 152.667 -94 258c0 106.667 32.167 193.667 96.5 261s148.833 101 253.5 101
c84 0 155 -21.333 213 -64s92.333 -103 103 -181h-166c-10.667 32.667 -29 58 -55 76s-57.667 27 -95 27c-56.667 0 -102.834 -20.833 -138.501 -62.5s-53.5 -94.167 -53.5 -157.5c0 -64.667 18.333 -116.834 55 -156.501s82.334 -59.5 137.001 -59.5
c40.667 0 75.167 9 103.5 27s47.5 42 57.5 72h167z" />
    <glyph glyph-name="ccaron" unicode="&#x10d;" horiz-adv-x="582" 
d="M351 700h122l-111 -153h-123l-112 153h122l47 -73h9zM303 -10c-79.333 0 -143.663 23.8311 -192.996 71.498s-74 109.834 -74 186.501c0 78 25.5 141.167 76.5 189.5s113.833 72.5 188.5 72.5c64.667 0 121 -17 169 -51s75.667 -84 83 -150h-151
c-5.33301 21.333 -17 38.5 -35 51.5s-40 19.5 -66 19.5c-33.333 0 -60.833 -12.167 -82.5 -36.5s-32.5 -56.166 -32.5 -95.499s10.667 -70.5 32 -93.5s49.666 -34.5 84.999 -34.5c51.333 0 84.666 19.667 99.999 59h150c-6.66699 -58 -32.834 -104 -78.501 -138
s-102.834 -51 -171.501 -51z" />
    <glyph glyph-name="Dcaron" unicode="&#x10e;" horiz-adv-x="709" 
d="M394 900h122l-111 -153h-123l-112 153h122l47 -73h9zM320 700c105.333 0 189.168 -30.834 251.501 -92.501s93.5 -147.167 93.5 -256.5s-31.333 -195.166 -94 -257.499s-146.334 -93.5 -251.001 -93.5h-261v700h261zM315.002 137.999
c62.667 0 110.167 19.666 142.5 58.999s48.5 92 48.5 158c0 64.667 -16.167 115.334 -48.5 152.001s-79.833 55 -142.5 55h-101v-424h101z" />
    <glyph glyph-name="dcaron" unicode="&#x10f;" 
d="M410 463v246.999h150v-710h-122l-13 52h-9c-33.333 -41.333 -81 -62 -143 -62c-68 0 -124.5 23.833 -169.5 71.5s-67.5 110.834 -67.5 189.501c0 80 22.667 143.167 68 189.5s101.666 69.5 168.999 69.5c56.667 0 102.334 -15.667 137.001 -47zM717 705.999
c25.333 0 45.5 -10.3311 60.5 -30.998s22.5 -47.334 22.5 -80.001c0 -84.667 -40.667 -153 -122 -205l-34 42c43.333 37.333 66 74 68 110c-18.667 -2 -35.667 4.16699 -51 18.5s-23 35.166 -23 62.499c0 25.333 7.33301 45.5 22 60.5s33.667 22.5 57 22.5zM298 120.001
c34 0 61.167 12 81.5 36s30.5 55.667 30.5 95c0 38.667 -10.167 69.834 -30.5 93.501s-47.5 35.5 -81.5 35.5c-33.333 0 -60.333 -11.833 -81 -35.5s-31 -54.834 -31 -93.501c0 -39.333 10.333 -71 31 -95s47.667 -36 81 -36z" />
    <glyph glyph-name="Dcroat" unicode="&#x110;" horiz-adv-x="709" 
d="M320 700c105.333 0 189.168 -30.834 251.501 -92.501s93.5 -147.167 93.5 -256.5s-31.333 -195.166 -94 -257.499s-146.334 -93.5 -251.001 -93.5h-261v294h-108v112h108v294h261zM315.002 137.999c62.667 0 110.167 19.666 142.5 58.999s48.5 92 48.5 158
c0 64.667 -16.167 115.334 -48.5 152.001s-79.833 55 -142.5 55h-101v-156h177v-112h-177v-156h101z" />
    <glyph glyph-name="dcroat" unicode="&#x111;" 
d="M668 654v-106.001h-108v-548h-122l-13 52h-9c-33.333 -41.333 -81 -62 -143 -62c-68 0 -124.5 23.833 -169.5 71.5s-67.5 110.834 -67.5 189.501c0 80 22.667 143.167 68 189.5s101.666 69.5 168.999 69.5c56.667 0 102.334 -15.667 137.001 -47v85h-132v106h132v56h150
v-56h108zM298 119.999c34 0 61.167 12 81.5 36s30.5 55.667 30.5 95c0 38.667 -10.167 69.834 -30.5 93.501s-47.5 35.5 -81.5 35.5c-33.333 0 -60.333 -11.833 -81 -35.5s-31 -54.834 -31 -93.501c0 -39.333 10.333 -71 31 -95s47.667 -36 81 -36z" />
    <glyph glyph-name="Emacron" unicode="&#x112;" horiz-adv-x="585" 
d="M129 862h347v-99h-347v99zM210 134h343v-134h-494v700h484v-134h-333v-145h283v-131h-283v-156z" />
    <glyph glyph-name="emacron" unicode="&#x113;" horiz-adv-x="578" 
d="M468 662v-99h-347v99h347zM398 166l142.997 -0.00195312c-9.33301 -54 -35.166 -96.833 -77.499 -128.5s-96.833 -47.5 -163.5 -47.5c-77.333 0 -140.666 23.333 -189.999 70s-74 108.334 -74 185.001c0 80.667 24.833 145 74.5 193s110.834 72 183.501 72
c68.667 0 126.5 -21.667 173.5 -65s70.833 -108.666 71.5 -195.999c0 -12.667 -1 -26 -3 -40h-352c3.33301 -30 15 -54.333 35 -73s47 -28 81 -28c53.333 0 86 19.333 98 58zM293.997 391.998c-28.667 0 -52.499 -7.83301 -71.499 -23.5s-31.167 -35.834 -36.5 -60.501h210
c-2.66699 24.667 -13.334 44.834 -32.001 60.501s-42 23.5 -70 23.5z" />
    <glyph glyph-name="Ebreve" unicode="&#x114;" horiz-adv-x="585" 
d="M456 900c0 -39.333 -14.999 -71.833 -44.999 -97.5s-66.333 -38.5 -109 -38.5s-79.334 12.833 -110.001 38.5s-46 58.167 -46 97.5h109c0 -14 4.16699 -25.833 12.5 -35.5s19.833 -14.5 34.5 -14.5s26.167 4.83301 34.5 14.5s12.5 21.5 12.5 35.5h107zM210.001 134h343
v-134h-494v700h484v-134h-333v-145h283v-131h-283v-156z" />
    <glyph glyph-name="ebreve" unicode="&#x115;" horiz-adv-x="578" 
d="M294 564c-42.667 0 -79.333 12.833 -110 38.5s-46 58.167 -46 97.5h109c0 -14 4.16699 -25.833 12.5 -35.5s19.833 -14.5 34.5 -14.5s26.167 4.83301 34.5 14.5s12.5 21.5 12.5 35.5h107c0 -39.333 -15 -71.833 -45 -97.5s-66.333 -38.5 -109 -38.5zM398.001 166
l142.997 -0.00195312c-9.33301 -54 -35.166 -96.833 -77.499 -128.5s-96.833 -47.5 -163.5 -47.5c-77.333 0 -140.666 23.333 -189.999 70s-74 108.334 -74 185.001c0 80.667 24.833 145 74.5 193s110.834 72 183.501 72c68.667 0 126.5 -21.667 173.5 -65
s70.833 -108.666 71.5 -195.999c0 -12.667 -1 -26 -3 -40h-352c3.33301 -30 15 -54.333 35 -73s47 -28 81 -28c53.333 0 86 19.333 98 58zM293.998 391.998c-28.667 0 -52.499 -7.83301 -71.499 -23.5s-31.167 -35.834 -36.5 -60.501h210
c-2.66699 24.667 -13.334 44.834 -32.001 60.501s-42 23.5 -70 23.5z" />
    <glyph glyph-name="Edotaccent" unicode="&#x116;" horiz-adv-x="585" 
d="M303 755c-24 0 -45.002 8.83301 -63.002 26.5s-27 38.167 -27 61.5c0 24.667 8.83301 45.5 26.5 62.5s38.834 25.5 63.501 25.5c24 0 44.5 -8.5 61.5 -25.5s25.5 -37.833 25.5 -62.5c0 -23.333 -8.66699 -43.833 -26 -61.5s-37.666 -26.5 -60.999 -26.5zM209.998 134h343
v-134h-494v700h484v-134h-333v-145h283v-131h-283v-156z" />
    <glyph glyph-name="edotaccent" unicode="&#x117;" horiz-adv-x="578" 
d="M295 555c-24 0 -45.002 8.83301 -63.002 26.5s-27 38.167 -27 61.5c0 24.667 8.83301 45.5 26.5 62.5s38.834 25.5 63.501 25.5c24 0 44.5 -8.5 61.5 -25.5s25.5 -37.833 25.5 -62.5c0 -23.333 -8.66699 -43.833 -26 -61.5s-37.666 -26.5 -60.999 -26.5zM397.998 166
l142.997 -0.00195312c-9.33301 -54 -35.166 -96.833 -77.499 -128.5s-96.833 -47.5 -163.5 -47.5c-77.333 0 -140.666 23.333 -189.999 70s-74 108.334 -74 185.001c0 80.667 24.833 145 74.5 193s110.834 72 183.501 72c68.667 0 126.5 -21.667 173.5 -65
s70.833 -108.666 71.5 -195.999c0 -12.667 -1 -26 -3 -40h-352c3.33301 -30 15 -54.333 35 -73s47 -28 81 -28c53.333 0 86 19.333 98 58zM293.995 391.998c-28.667 0 -52.499 -7.83301 -71.499 -23.5s-31.167 -35.834 -36.5 -60.501h210
c-2.66699 24.667 -13.334 44.834 -32.001 60.501s-42 23.5 -70 23.5z" />
    <glyph glyph-name="Eogonek" unicode="&#x118;" horiz-adv-x="585" 
d="M544 -100c14.667 0 30.333 2.33398 47 7.00098v-79c-16.667 -6 -37.667 -9 -63 -9c-39.333 0 -70.333 8.5 -93 25.5s-34 40.5 -34 70.5c0 34 17.667 62.333 53 85h-395v700h484v-134h-333v-145h283v-131h-283v-156h343v-133l1 -1c-44 -12.667 -66 -33.334 -66 -62.001
c0 -25.333 18.667 -38 56 -38z" />
    <glyph glyph-name="eogonek" unicode="&#x119;" horiz-adv-x="578" 
d="M375 -2c-40 -12.667 -60.001 -32.6689 -60.001 -60.002c0 -25.333 18.667 -38 56 -38c15.333 0 31 2.33301 47 7v-79c-17.333 -6 -38.333 -9 -63 -9c-39.333 0 -70.333 8.5 -93 25.5s-34 40.5 -34 70.5s13.667 55.333 41 76c-69.333 6.66699 -125.5 32.834 -168.5 78.501
s-64.5 104.167 -64.5 175.5c0 80.667 24.833 145 74.5 193s110.834 72 183.501 72c68.667 0 126.5 -21.667 173.5 -65s70.833 -108.666 71.5 -195.999c0 -12.667 -1 -26 -3 -40h-352c3.33301 -30 15 -54.333 35 -73s47 -28 81 -28c53.333 0 86 19.333 98 58h143
c-7.33301 -42.667 -25.5 -78.667 -54.5 -108s-66.167 -49.333 -111.5 -60zM293.999 391.998c-28.667 0 -52.499 -7.83301 -71.499 -23.5s-31.167 -35.834 -36.5 -60.501h210c-2.66699 24.667 -13.334 44.834 -32.001 60.501s-42 23.5 -70 23.5z" />
    <glyph glyph-name="Ecaron" unicode="&#x11a;" horiz-adv-x="585" 
d="M352 900h122l-111 -153h-123l-112 153h122l47 -73h9zM210 134h343v-134h-494v700h484v-134h-333v-145h283v-131h-283v-156z" />
    <glyph glyph-name="ecaron" unicode="&#x11b;" horiz-adv-x="578" 
d="M355 547h-123l-112 153h122l47 -73h9l46 73h122zM398 166l142.997 -0.00195312c-9.33301 -54 -35.166 -96.833 -77.499 -128.5s-96.833 -47.5 -163.5 -47.5c-77.333 0 -140.666 23.333 -189.999 70s-74 108.334 -74 185.001c0 80.667 24.833 145 74.5 193
s110.834 72 183.501 72c68.667 0 126.5 -21.667 173.5 -65s70.833 -108.666 71.5 -195.999c0 -12.667 -1 -26 -3 -40h-352c3.33301 -30 15 -54.333 35 -73s47 -28 81 -28c53.333 0 86 19.333 98 58zM293.997 391.998c-28.667 0 -52.499 -7.83301 -71.499 -23.5
s-31.167 -35.834 -36.5 -60.501h210c-2.66699 24.667 -13.334 44.834 -32.001 60.501s-42 23.5 -70 23.5z" />
    <glyph glyph-name="Gcircumflex" unicode="&#x11c;" horiz-adv-x="788" 
d="M340 747h-123l111 153h123l112 -153h-122l-47 73h-9zM402 388h327.001v-388h-123l-14 59h-9c-50 -46 -117.667 -69 -203 -69c-101.333 0 -182.5 32.333 -243.5 97s-91.5 148.667 -91.5 252c0 108.667 33.667 197.667 101 267s154 104 260 104
c91.333 0 164.666 -22 219.999 -66s87.333 -99.667 96 -167h-169c-20.667 60.667 -69.667 91 -147 91c-61.333 0 -110.5 -21.333 -147.5 -64s-55.5 -97.334 -55.5 -164.001c0 -64 17.5 -115.333 52.5 -154s83.833 -58 146.5 -58c52 0 94 10.333 126 31s48 50.334 48 89.001
v22h-174v118z" />
    <glyph glyph-name="gcircumflex" unicode="&#x11d;" horiz-adv-x="568" 
d="M278 620l-45 -73h-123l111 153h123l112 -153h-122l-47 73h-9zM553 480c-18 -19.333 -44.002 -36.667 -78.002 -52c21.333 -27.333 32 -57.666 32 -90.999c0 -52 -21 -93 -63 -123s-95.333 -45 -160 -45c-29.333 0 -56 3 -80 9c-12 -6.66699 -18 -15.667 -18 -27
c0 -22 20.667 -33 62 -33h97c60.667 0 107 -13.667 139 -41s48 -64.333 48 -111c0 -54.667 -21.667 -97.667 -65 -129s-103.333 -47 -180 -47c-78 0 -138.167 15.833 -180.5 47.5s-65.833 71.5 -70.5 119.5l72 65c-36 21.333 -54 51.666 -54 90.999c0 42 23 76 69 102
c-41.333 30 -62 70.667 -62 122c0 50 19.333 91.333 58 124s91.334 49 158.001 49c42.667 0 81.334 -7.33301 116.001 -22c36 18 65.667 42 89 72zM283.998 276.999c24.667 0 44.167 5.66699 58.5 17s21.5 26.333 21.5 45c0 20 -7 35.833 -21 47.5s-33.667 17.5 -59 17.5
s-45 -5.83301 -59 -17.5s-21 -27.5 -21 -47.5c0 -18.667 7.16699 -33.667 21.5 -45s33.833 -17 58.5 -17zM388.998 -43.001c0 30 -21.333 45 -64 45h-91l-56 -48c12 -36 48.667 -54 110 -54c29.333 0 53.5 5 72.5 15s28.5 24 28.5 42z" />
    <glyph glyph-name="Gbreve" unicode="&#x11e;" horiz-adv-x="788" 
d="M545 900c0 -39.333 -14.999 -71.833 -44.999 -97.5s-66.333 -38.5 -109 -38.5s-79.334 12.833 -110.001 38.5s-46 58.167 -46 97.5h109c0 -14 4.16699 -25.833 12.5 -35.5s19.833 -14.5 34.5 -14.5s26.167 4.83301 34.5 14.5s12.5 21.5 12.5 35.5h107zM402.001 388
h327.001v-388h-123l-14 59h-9c-50 -46 -117.667 -69 -203 -69c-101.333 0 -182.5 32.333 -243.5 97s-91.5 148.667 -91.5 252c0 108.667 33.667 197.667 101 267s154 104 260 104c91.333 0 164.666 -22 219.999 -66s87.333 -99.667 96 -167h-169
c-20.667 60.667 -69.667 91 -147 91c-61.333 0 -110.5 -21.333 -147.5 -64s-55.5 -97.334 -55.5 -164.001c0 -64 17.5 -115.333 52.5 -154s83.833 -58 146.5 -58c52 0 94 10.333 126 31s48 50.334 48 89.001v22h-174v118z" />
    <glyph glyph-name="gbreve" unicode="&#x11f;" horiz-adv-x="568" 
d="M284 564c-42.667 0 -79.333 12.833 -110 38.5s-46 58.167 -46 97.5h109c0 -14 4.16699 -25.833 12.5 -35.5s19.833 -14.5 34.5 -14.5s26.167 4.83301 34.5 14.5s12.5 21.5 12.5 35.5h107c0 -39.333 -15 -71.833 -45 -97.5s-66.333 -38.5 -109 -38.5zM553.001 480
c-18 -19.333 -44.002 -36.667 -78.002 -52c21.333 -27.333 32 -57.666 32 -90.999c0 -52 -21 -93 -63 -123s-95.333 -45 -160 -45c-29.333 0 -56 3 -80 9c-12 -6.66699 -18 -15.667 -18 -27c0 -22 20.667 -33 62 -33h97c60.667 0 107 -13.667 139 -41s48 -64.333 48 -111
c0 -54.667 -21.667 -97.667 -65 -129s-103.333 -47 -180 -47c-78 0 -138.167 15.833 -180.5 47.5s-65.833 71.5 -70.5 119.5l72 65c-36 21.333 -54 51.666 -54 90.999c0 42 23 76 69 102c-41.333 30 -62 70.667 -62 122c0 50 19.333 91.333 58 124s91.334 49 158.001 49
c42.667 0 81.334 -7.33301 116.001 -22c36 18 65.667 42 89 72zM283.999 276.999c24.667 0 44.167 5.66699 58.5 17s21.5 26.333 21.5 45c0 20 -7 35.833 -21 47.5s-33.667 17.5 -59 17.5s-45 -5.83301 -59 -17.5s-21 -27.5 -21 -47.5c0 -18.667 7.16699 -33.667 21.5 -45
s33.833 -17 58.5 -17zM388.999 -43.001c0 30 -21.333 45 -64 45h-91l-56 -48c12 -36 48.667 -54 110 -54c29.333 0 53.5 5 72.5 15s28.5 24 28.5 42z" />
    <glyph glyph-name="Gdotaccent" unicode="&#x120;" horiz-adv-x="788" 
d="M392 755c-24 0 -45.002 8.83301 -63.002 26.5s-27 38.167 -27 61.5c0 24.667 8.83301 45.5 26.5 62.5s38.834 25.5 63.501 25.5c24 0 44.5 -8.5 61.5 -25.5s25.5 -37.833 25.5 -62.5c0 -23.333 -8.66699 -43.833 -26 -61.5s-37.666 -26.5 -60.999 -26.5zM401.998 388
h327.001v-388h-123l-14 59h-9c-50 -46 -117.667 -69 -203 -69c-101.333 0 -182.5 32.333 -243.5 97s-91.5 148.667 -91.5 252c0 108.667 33.667 197.667 101 267s154 104 260 104c91.333 0 164.666 -22 219.999 -66s87.333 -99.667 96 -167h-169
c-20.667 60.667 -69.667 91 -147 91c-61.333 0 -110.5 -21.333 -147.5 -64s-55.5 -97.334 -55.5 -164.001c0 -64 17.5 -115.333 52.5 -154s83.833 -58 146.5 -58c52 0 94 10.333 126 31s48 50.334 48 89.001v22h-174v118z" />
    <glyph glyph-name="gdotaccent" unicode="&#x121;" horiz-adv-x="568" 
d="M285 555c-24 0 -45.002 8.83301 -63.002 26.5s-27 38.167 -27 61.5c0 24.667 8.83301 45.5 26.5 62.5s38.834 25.5 63.501 25.5c24 0 44.5 -8.5 61.5 -25.5s25.5 -37.833 25.5 -62.5c0 -23.333 -8.66699 -43.833 -26 -61.5s-37.666 -26.5 -60.999 -26.5zM552.998 480
c-18 -19.333 -44.002 -36.667 -78.002 -52c21.333 -27.333 32 -57.666 32 -90.999c0 -52 -21 -93 -63 -123s-95.333 -45 -160 -45c-29.333 0 -56 3 -80 9c-12 -6.66699 -18 -15.667 -18 -27c0 -22 20.667 -33 62 -33h97c60.667 0 107 -13.667 139 -41s48 -64.333 48 -111
c0 -54.667 -21.667 -97.667 -65 -129s-103.333 -47 -180 -47c-78 0 -138.167 15.833 -180.5 47.5s-65.833 71.5 -70.5 119.5l72 65c-36 21.333 -54 51.666 -54 90.999c0 42 23 76 69 102c-41.333 30 -62 70.667 -62 122c0 50 19.333 91.333 58 124s91.334 49 158.001 49
c42.667 0 81.334 -7.33301 116.001 -22c36 18 65.667 42 89 72zM283.996 276.999c24.667 0 44.167 5.66699 58.5 17s21.5 26.333 21.5 45c0 20 -7 35.833 -21 47.5s-33.667 17.5 -59 17.5s-45 -5.83301 -59 -17.5s-21 -27.5 -21 -47.5c0 -18.667 7.16699 -33.667 21.5 -45
s33.833 -17 58.5 -17zM388.996 -43.001c0 30 -21.333 45 -64 45h-91l-56 -48c12 -36 48.667 -54 110 -54c29.333 0 53.5 5 72.5 15s28.5 24 28.5 42z" />
    <glyph glyph-name="uni0122" unicode="&#x122;" horiz-adv-x="788" 
d="M402 388h327.001v-388h-123l-14 59h-9c-50 -46 -117.667 -69 -203 -69c-101.333 0 -182.5 32.333 -243.5 97s-91.5 148.667 -91.5 252c0 108.667 33.667 197.667 101 267s154 104 260 104c91.333 0 164.666 -22 219.999 -66s87.333 -99.667 96 -167h-169
c-20.667 60.667 -69.667 91 -147 91c-61.333 0 -110.5 -21.333 -147.5 -64s-55.5 -97.334 -55.5 -164.001c0 -64 17.5 -115.333 52.5 -154s83.833 -58 146.5 -58c52 0 94 10.333 126 31s48 50.334 48 89.001v22h-174v118zM388.001 -46c28.667 0 51.5 -10.332 68.5 -30.999
s25.5 -47 25.5 -79c0 -45.333 -13.5 -84.5 -40.5 -117.5s-59.5 -59.5 -97.5 -79.5l-39 36c49.333 41.333 75 74.666 77 99.999c-24 -0.666992 -44 6.33301 -60 21s-24 36 -24 64c0 27.333 8.5 48.5 25.5 63.5s38.5 22.5 64.5 22.5z" />
    <glyph glyph-name="uni0123" unicode="&#x123;" horiz-adv-x="568" 
d="M286 546c-28.667 0 -51.5 10.332 -68.5 30.999s-25.5 47 -25.5 79c0 45.333 13.5 84.5 40.5 117.5s59.5 59.5 97.5 79.5l39 -36c-49.333 -41.333 -75 -74.666 -77 -99.999c24 0.666992 44 -6.33301 60 -21s24 -36 24 -64c0 -27.333 -8.5 -48.5 -25.5 -63.5
s-38.5 -22.5 -64.5 -22.5zM553 479.999c-18 -19.333 -44.002 -36.667 -78.002 -52c21.333 -27.333 32 -57.666 32 -90.999c0 -52 -21 -93 -63 -123s-95.333 -45 -160 -45c-29.333 0 -56 3 -80 9c-12 -6.66699 -18 -15.667 -18 -27c0 -22 20.667 -33 62 -33h97
c60.667 0 107 -13.667 139 -41s48 -64.333 48 -111c0 -54.667 -21.667 -97.667 -65 -129s-103.333 -47 -180 -47c-78 0 -138.167 15.833 -180.5 47.5s-65.833 71.5 -70.5 119.5l72 65c-36 21.333 -54 51.666 -54 90.999c0 42 23 76 69 102c-41.333 30 -62 70.667 -62 122
c0 50 19.333 91.333 58 124s91.334 49 158.001 49c42.667 0 81.334 -7.33301 116.001 -22c36 18 65.667 42 89 72zM283.998 276.998c24.667 0 44.167 5.66699 58.5 17s21.5 26.333 21.5 45c0 20 -7 35.833 -21 47.5s-33.667 17.5 -59 17.5s-45 -5.83301 -59 -17.5
s-21 -27.5 -21 -47.5c0 -18.667 7.16699 -33.667 21.5 -45s33.833 -17 58.5 -17zM388.998 -43.002c0 30 -21.333 45 -64 45h-91l-56 -48c12 -36 48.667 -54 110 -54c29.333 0 53.5 5 72.5 15s28.5 24 28.5 42z" />
    <glyph glyph-name="Hcircumflex" unicode="&#x124;" horiz-adv-x="695" 
d="M293 747h-123l111 153h123l112 -153h-122l-47 73h-9zM481 700h155v-700h-155v286h-267v-286h-155v700h155v-276h267v276z" />
    <glyph glyph-name="hcircumflex" unicode="&#x125;" horiz-adv-x="603" 
d="M75 747h-123l111 153h123l112 -153h-122l-47 73h-9zM354 510c62.667 0 111.833 -19.001 147.5 -57.001s53.5 -90 53.5 -156v-297h-150v266c0 36.667 -9.5 64.834 -28.5 84.501s-43.5 29.5 -73.5 29.5s-55.167 -10 -75.5 -30s-30.5 -49 -30.5 -87v-263h-150v710h150v-268
h9c36 45.333 85.333 68 148 68z" />
    <glyph glyph-name="Hbar" unicode="&#x126;" horiz-adv-x="695" 
d="M481 700h155v-700h-155v286h-267v-286h-155v700h155v-82h267v82zM214 424h267v81h-267v-81z" />
    <glyph glyph-name="hbar" unicode="&#x127;" horiz-adv-x="603" 
d="M354 510c62.667 0 111.833 -19.001 147.5 -57.001s53.5 -90 53.5 -156v-297h-150v266c0 36.667 -9.5 64.834 -28.5 84.501s-43.5 29.5 -73.5 29.5s-55.167 -10 -75.5 -30s-30.5 -49 -30.5 -87v-263h-150v547h-102v106h102v57h150v-57h138v-106h-138v-105h9
c36 45.333 85.333 68 148 68z" />
    <glyph glyph-name="Itilde" unicode="&#x128;" horiz-adv-x="273" 
d="M338 885c-2 -42.667 -13.5 -78.333 -34.5 -107s-50.167 -43 -87.5 -43c-24 0 -44.833 5.16699 -62.5 15.5s-32.667 20.5 -45 30.5s-23.833 15 -34.5 15c-24 0 -38 -17 -42 -51h-97c2.66699 44 14.5 80.167 35.5 108.5s50.5 42.5 88.5 42.5c20 0 37.667 -3.16699 53 -9.5
s26.833 -13.333 34.5 -21s16.167 -14.667 25.5 -21s18.666 -9.5 27.999 -9.5c24.667 0 38.334 16.667 41.001 50h97zM214 700.001v-700h-155v700h155z" />
    <glyph glyph-name="itilde" unicode="&#x129;" horiz-adv-x="245" 
d="M324 685c-2 -42.667 -13.5 -78.333 -34.5 -107s-50.167 -43 -87.5 -43c-24 0 -44.833 5.16699 -62.5 15.5s-32.667 20.5 -45 30.5s-23.833 15 -34.5 15c-24 0 -38 -17 -42 -51h-97c2.66699 44 14.5 80.167 35.5 108.5s50.5 42.5 88.5 42.5c20 0 37.667 -3.16699 53 -9.5
s26.833 -13.333 34.5 -21s16.167 -14.667 25.5 -21s18.666 -9.5 27.999 -9.5c24.667 0 38.334 16.667 41.001 50h97zM47 0.000976562v500h150v-500h-150z" />
    <glyph glyph-name="Imacron" unicode="&#x12a;" horiz-adv-x="273" 
d="M-36 862h347v-99h-347v99zM214 700v-700h-155v700h155z" />
    <glyph glyph-name="imacron" unicode="&#x12b;" horiz-adv-x="245" 
d="M-51 662h347v-99h-347v99zM47 0v500h150v-500h-150z" />
    <glyph glyph-name="Ibreve" unicode="&#x12c;" horiz-adv-x="273" 
d="M291 900c0 -39.333 -14.999 -71.833 -44.999 -97.5s-66.333 -38.5 -109 -38.5s-79.334 12.833 -110.001 38.5s-46 58.167 -46 97.5h109c0 -14 4.16699 -25.833 12.5 -35.5s19.833 -14.5 34.5 -14.5s26.167 4.83301 34.5 14.5s12.5 21.5 12.5 35.5h107zM214.001 700v-700
h-155v700h155z" />
    <glyph glyph-name="ibreve" unicode="&#x12d;" horiz-adv-x="245" 
d="M276 700c0 -39.333 -14.999 -71.833 -44.999 -97.5s-66.333 -38.5 -109 -38.5s-79.334 12.833 -110.001 38.5s-46 58.167 -46 97.5h109c0 -14 4.16699 -25.833 12.5 -35.5s19.833 -14.5 34.5 -14.5s26.167 4.83301 34.5 14.5s12.5 21.5 12.5 35.5h107zM47.001 0v500h150
v-500h-150z" />
    <glyph glyph-name="Iogonek" unicode="&#x12e;" horiz-adv-x="273" 
d="M204 -100c14.667 0 30.333 2.33398 47 7.00098v-79c-16.667 -6 -37.667 -9 -63 -9c-39.333 0 -70.333 8.5 -93 25.5s-34 40.5 -34 70.5c0 34 17.667 62.333 53 85h-55v700h155v-700c-44 -12.667 -66 -33.334 -66 -62.001c0 -25.333 18.667 -38 56 -38z" />
    <glyph glyph-name="iogonek" unicode="&#x12f;" horiz-adv-x="245" 
d="M123 555c-24 0 -45.002 8.83301 -63.002 26.5s-27 38.167 -27 61.5c0 24.667 8.83301 45.5 26.5 62.5s38.834 25.5 63.501 25.5c24 0 44.5 -8.5 61.5 -25.5s25.5 -37.833 25.5 -62.5c0 -23.333 -8.66699 -43.833 -26 -61.5s-37.666 -26.5 -60.999 -26.5zM187.998 -100
c14.667 0 30.333 2.33398 47 7.00098v-79c-17.333 -6 -38.333 -9 -63 -9c-39.333 0 -70.333 8.5 -93 25.5s-34 40.5 -34 70.5c0 34 17.667 62.333 53 85h-51v500h150v-499l1 -1c-44 -12.667 -66 -33.334 -66 -62.001c0 -25.333 18.667 -38 56 -38z" />
    <glyph glyph-name="Idotaccent" unicode="&#x130;" horiz-adv-x="273" 
d="M138 755c-24 0 -45.002 8.83301 -63.002 26.5s-27 38.167 -27 61.5c0 24.667 8.83301 45.5 26.5 62.5s38.834 25.5 63.501 25.5c24 0 44.5 -8.5 61.5 -25.5s25.5 -37.833 25.5 -62.5c0 -23.333 -8.66699 -43.833 -26 -61.5s-37.666 -26.5 -60.999 -26.5zM213.998 700
v-700h-155v700h155z" />
    <glyph glyph-name="dotlessi" unicode="&#x131;" horiz-adv-x="245" 
d="M47 0v500h150v-500h-150z" />
    <glyph glyph-name="IJ" unicode="&#x132;" horiz-adv-x="816" 
d="M214 700v-700h-155v700h155zM450 217c3.33301 -56.667 28.998 -85 76.998 -85c50.667 0 76 30.333 76 91v477h154v-481c0 -73.333 -20.667 -129.833 -62 -169.5s-97.333 -59.5 -168 -59.5c-75.333 0 -133.666 20.167 -174.999 60.5s-62.666 95.833 -63.999 166.5h162z
" />
    <glyph glyph-name="ij" unicode="&#x133;" horiz-adv-x="497" 
d="M123 555c-24 0 -45.002 8.83301 -63.002 26.5s-27 38.167 -27 61.5c0 24.667 8.83301 45.5 26.5 62.5s38.834 25.5 63.501 25.5c24 0 44.5 -8.5 61.5 -25.5s25.5 -37.833 25.5 -62.5c0 -23.333 -8.66699 -43.833 -26 -61.5s-37.666 -26.5 -60.999 -26.5zM370.998 555
c-24 0 -45.001 8.83301 -63.001 26.5s-27 38.167 -27 61.5c0 24.667 8.83301 45.5 26.5 62.5s38.834 25.5 63.501 25.5c24 0 44.5 -8.5 61.5 -25.5s25.5 -37.833 25.5 -62.5c0 -23.333 -8.5 -43.833 -25.5 -61.5s-37.5 -26.5 -61.5 -26.5zM46.9971 0v500h150v-500h-150z
M271.997 -210c-30.667 0 -62.668 4.00098 -96.001 12.001v109c16.667 -3.33301 33.334 -5 50.001 -5c20 0 35.5 3.66699 46.5 11s17.5 14.666 19.5 21.999s3 16.333 3 27v534h150v-552c0 -105.333 -57.667 -158 -173 -158z" />
    <glyph glyph-name="Jcircumflex" unicode="&#x134;" horiz-adv-x="555" 
d="M368 747h-123l111 153h123l112 -153h-122l-47 73h-9zM189 217c3.33301 -56.667 28.998 -85 76.998 -85c50.667 0 76 30.333 76 91v477h154v-481c0 -73.333 -20.667 -129.833 -62 -169.5s-97.333 -59.5 -168 -59.5c-75.333 0 -133.666 20.167 -174.999 60.5
s-62.666 95.833 -63.999 166.5h162z" />
    <glyph glyph-name="jcircumflex" unicode="&#x135;" horiz-adv-x="245" 
d="M72 547h-123l111 153h123l112 -153h-122l-47 73h-9zM24 -210c-30.667 0 -62.668 4.00098 -96.001 12.001v109c16.667 -3.33301 33.334 -5 50.001 -5c20 0 35.5 3.66699 46.5 11s17.5 14.666 19.5 21.999s3 16.333 3 27v534h150v-552c0 -105.333 -57.667 -158 -173 -158z
" />
    <glyph glyph-name="uni0136" unicode="&#x136;" horiz-adv-x="662" 
d="M469 0l-206 290h-49v-290h-155v700h155v-272h49l178 272h172l-224 -331v-7l254 -362h-174zM339 -46c28.667 0 51.5 -10.332 68.5 -30.999s25.5 -47 25.5 -79c0 -45.333 -13.5 -84.5 -40.5 -117.5s-59.5 -59.5 -97.5 -79.5l-39 36c49.333 41.333 75 74.666 77 99.999
c-24 -0.666992 -44 6.33301 -60 21s-24 36 -24 64c0 27.333 8.5 48.5 25.5 63.5s38.5 22.5 64.5 22.5z" />
    <glyph glyph-name="uni0137" unicode="&#x137;" horiz-adv-x="558" 
d="M544 500l-204 -197l204 -303h-165l-140 205l-42 -41v-164h-150v710h150v-361h9l158 151h180zM286 -46c28.667 0 51.5 -10.332 68.5 -30.999s25.5 -47 25.5 -79c0 -45.333 -13.5 -84.5 -40.5 -117.5s-59.5 -59.5 -97.5 -79.5l-39 36c49.333 41.333 75 74.666 77 99.999
c-24 -0.666992 -44 6.33301 -60 21s-24 36 -24 64c0 27.333 8.5 48.5 25.5 63.5s38.5 22.5 64.5 22.5z" />
    <glyph glyph-name="Lacute" unicode="&#x139;" horiz-adv-x="580" 
d="M151 900h124l-91 -145h-113zM210 138h343v-138h-494v700h151v-562z" />
    <glyph glyph-name="lacute" unicode="&#x13a;" horiz-adv-x="245" 
d="M146 900h124l-91 -145h-113zM47 0v710h150v-710h-150z" />
    <glyph glyph-name="uni013B" unicode="&#x13b;" horiz-adv-x="580" 
d="M210 138h343v-138h-494v700h151v-562zM296 -46c28.667 0 51.5 -10.332 68.5 -30.999s25.5 -47 25.5 -79c0 -45.333 -13.5 -84.5 -40.5 -117.5s-59.5 -59.5 -97.5 -79.5l-39 36c49.333 41.333 75 74.666 77 99.999c-24 -0.666992 -44 6.33301 -60 21s-24 36 -24 64
c0 27.333 8.5 48.5 25.5 63.5s38.5 22.5 64.5 22.5z" />
    <glyph glyph-name="uni013C" unicode="&#x13c;" horiz-adv-x="245" 
d="M47 0v710h150v-710h-150zM119 -46c28.667 0 51.5 -10.332 68.5 -30.999s25.5 -47 25.5 -79c0 -45.333 -13.5 -84.5 -40.5 -117.5s-59.5 -59.5 -97.5 -79.5l-39 36c49.333 41.333 75 74.666 77 99.999c-24 -0.666992 -44 6.33301 -60 21s-24 36 -24 64
c0 27.333 8.5 48.5 25.5 63.5s38.5 22.5 64.5 22.5z" />
    <glyph glyph-name="Lcaron" unicode="&#x13d;" horiz-adv-x="580" 
d="M366 706c25.333 0 45.5 -10.3311 60.5 -30.998s22.5 -47.334 22.5 -80.001c0 -84.667 -40.667 -153 -122 -205l-34 42c43.333 37.333 66 74 68 110c-18.667 -2 -35.667 4.16699 -51 18.5s-23 35.166 -23 62.499c0 25.333 7.33301 45.5 22 60.5s33.667 22.5 57 22.5z
M210 138.002h343v-138h-494v700h151v-562z" />
    <glyph glyph-name="lcaron" unicode="&#x13e;" horiz-adv-x="245" 
d="M47 0v710h150v-710h-150zM354 706c25.333 0 45.5 -10.3311 60.5 -30.998s22.5 -47.334 22.5 -80.001c0 -84.667 -40.667 -153 -122 -205l-34 42c43.333 37.333 66 74 68 110c-18.667 -2 -35.667 4.16699 -51 18.5s-23 35.166 -23 62.499c0 25.333 7.33301 45.5 22 60.5
s33.667 22.5 57 22.5z" />
    <glyph glyph-name="Ldot" unicode="&#x13f;" horiz-adv-x="580" 
d="M210 138h343v-138h-494v700h151v-562zM383 330c-24 0 -45.002 8.83301 -63.002 26.5s-27 38.167 -27 61.5c0 24.667 8.83301 45.5 26.5 62.5s38.834 25.5 63.501 25.5c24 0 44.5 -8.5 61.5 -25.5s25.5 -37.833 25.5 -62.5c0 -23.333 -8.66699 -43.833 -26 -61.5
s-37.666 -26.5 -60.999 -26.5z" />
    <glyph glyph-name="ldot" unicode="&#x140;" horiz-adv-x="245" 
d="M123 755c-24 0 -45.002 8.83301 -63.002 26.5s-27 38.167 -27 61.5c0 24.667 8.83301 45.5 26.5 62.5s38.834 25.5 63.501 25.5c24 0 44.5 -8.5 61.5 -25.5s25.5 -37.833 25.5 -62.5c0 -23.333 -8.66699 -43.833 -26 -61.5s-37.666 -26.5 -60.999 -26.5zM46.998 0v710
h150v-710h-150z" />
    <glyph glyph-name="Lslash" unicode="&#x141;" horiz-adv-x="580" 
d="M210 138h343v-138h-494v243l-105 -49v131l105 49v326h151v-255l179 84v-131l-179 -84v-176z" />
    <glyph glyph-name="lslash" unicode="&#x142;" horiz-adv-x="245" 
d="M286 508v-130l-89 -48v-330h-150v249l-88 -48v130l88 48v331h150v-250z" />
    <glyph glyph-name="Nacute" unicode="&#x143;" horiz-adv-x="718" 
d="M381 900h124l-91 -145h-113zM508 700h150v-700h-155l-284 427h-9v-427h-151v700h154l286 -431h9v431z" />
    <glyph glyph-name="nacute" unicode="&#x144;" horiz-adv-x="603" 
d="M325 700h124l-91 -145h-113zM47 0l-0.000976562 499.999h137l13 -58h9c36 45.333 85.333 68 148 68s111.834 -19 147.501 -57s53.5 -90 53.5 -156v-297h-150v266c0 36.667 -9.5 64.834 -28.5 84.501s-43.5 29.5 -73.5 29.5s-55.167 -10 -75.5 -30s-30.5 -49 -30.5 -87
v-263h-150z" />
    <glyph glyph-name="uni0145" unicode="&#x145;" horiz-adv-x="718" 
d="M508 700h150v-700h-155l-284 427h-9v-427h-151v700h154l286 -431h9v431zM355 -46c28.667 0 51.5 -10.332 68.5 -30.999s25.5 -47 25.5 -79c0 -45.333 -13.5 -84.5 -40.5 -117.5s-59.5 -59.5 -97.5 -79.5l-39 36c49.333 41.333 75 74.666 77 99.999
c-24 -0.666992 -44 6.33301 -60 21s-24 36 -24 64c0 27.333 8.5 48.5 25.5 63.5s38.5 22.5 64.5 22.5z" />
    <glyph glyph-name="uni0146" unicode="&#x146;" horiz-adv-x="603" 
d="M47 0l-0.000976562 499.999h137l13 -58h9c36 45.333 85.333 68 148 68s111.834 -19 147.501 -57s53.5 -90 53.5 -156v-297h-150v266c0 36.667 -9.5 64.834 -28.5 84.501s-43.5 29.5 -73.5 29.5s-55.167 -10 -75.5 -30s-30.5 -49 -30.5 -87v-263h-150zM297.999 -46.001
c28.667 0 51.5 -10.332 68.5 -30.999s25.5 -47 25.5 -79c0 -45.333 -13.5 -84.5 -40.5 -117.5s-59.5 -59.5 -97.5 -79.5l-39 36c49.333 41.333 75 74.666 77 99.999c-24 -0.666992 -44 6.33301 -60 21s-24 36 -24 64c0 27.333 8.5 48.5 25.5 63.5s38.5 22.5 64.5 22.5z" />
    <glyph glyph-name="Ncaron" unicode="&#x147;" horiz-adv-x="718" 
d="M409 900h122l-111 -153h-123l-112 153h122l47 -73h9zM508 700h150v-700h-155l-284 427h-9v-427h-151v700h154l286 -431h9v431z" />
    <glyph glyph-name="ncaron" unicode="&#x148;" horiz-adv-x="603" 
d="M352 700h122l-111 -153h-123l-112 153h122l47 -73h9zM47 0l-0.000976562 499.999h137l13 -58h9c36 45.333 85.333 68 148 68s111.834 -19 147.501 -57s53.5 -90 53.5 -156v-297h-150v266c0 36.667 -9.5 64.834 -28.5 84.501s-43.5 29.5 -73.5 29.5s-55.167 -10 -75.5 -30
s-30.5 -49 -30.5 -87v-263h-150z" />
    <glyph glyph-name="Eng" unicode="&#x14a;" horiz-adv-x="718" 
d="M508 700l150 0.000976562v-742c0 -56.667 -15.833 -98.834 -47.5 -126.501s-73.834 -41.5 -126.501 -41.5c-33.333 0 -66.666 4 -99.999 12v109c16 -3.33301 34 -5 54 -5c46.667 0 70 20.333 70 61v26l-289 434h-9v-427h-151v700h154l286 -431h9v431z" />
    <glyph glyph-name="eng" unicode="&#x14b;" horiz-adv-x="603" 
d="M354 510c62.667 0 111.833 -19 147.5 -57s53.5 -90 53.5 -156v-339c0 -56.667 -15.833 -98.834 -47.5 -126.501s-73.834 -41.5 -126.501 -41.5c-33.333 0 -66.666 4 -99.999 12v109c16 -3.33301 34 -5 54 -5c46.667 0 70 20.667 70 62v298
c0 36.667 -9.5 64.834 -28.5 84.501s-43.5 29.5 -73.5 29.5s-55.167 -10 -75.5 -30s-30.5 -49 -30.5 -87v-263h-150v500h137l13 -58h9c36 45.333 85.333 68 148 68z" />
    <glyph glyph-name="Omacron" unicode="&#x14c;" horiz-adv-x="818" 
d="M236 862h347v-99h-347v99zM409 -10c-105.333 0 -192.334 34.1689 -261.001 102.502s-103 154.166 -103 257.499c0 102.667 34.5 188.334 103.5 257.001s156.167 103 261.5 103c104.667 0 191.334 -34.333 260.001 -103s103 -154.334 103 -257.001
s-34.167 -188.334 -102.5 -257.001s-155.5 -103 -261.5 -103zM409.999 132.002c59.333 0 108.333 20.5 147 61.5s58 93.167 58 156.5c0 62.667 -19.333 114.667 -58 156s-87.667 62 -147 62c-60 0 -109.5 -20.5 -148.5 -61.5s-58.5 -93.167 -58.5 -156.5
s19.5 -115.5 58.5 -156.5s88.5 -61.5 148.5 -61.5z" />
    <glyph glyph-name="omacron" unicode="&#x14d;" horiz-adv-x="613" 
d="M133 662h347v-99h-347v99zM307 -10c-77.333 0 -141.833 24.3311 -193.5 72.998s-77.5 111.334 -77.5 188.001s25.667 139 77 187s116 72 194 72c77.333 0 141.666 -24 192.999 -72s77 -110.333 77 -187c0 -77.333 -25.667 -140.166 -77 -188.499
s-115.666 -72.5 -192.999 -72.5zM307 119.998c36 0 65.167 12.5 87.5 37.5s33.5 56.167 33.5 93.5s-11.167 68.166 -33.5 92.499s-51.5 36.5 -87.5 36.5c-36.667 0 -66.167 -12.167 -88.5 -36.5s-33.5 -55.166 -33.5 -92.499s11.333 -68.5 34 -93.5s52 -37.5 88 -37.5z" />
    <glyph glyph-name="Obreve" unicode="&#x14e;" horiz-adv-x="818" 
d="M563 900c0 -39.333 -14.999 -71.833 -44.999 -97.5s-66.333 -38.5 -109 -38.5s-79.334 12.833 -110.001 38.5s-46 58.167 -46 97.5h109c0 -14 4.16699 -25.833 12.5 -35.5s19.833 -14.5 34.5 -14.5s26.167 4.83301 34.5 14.5s12.5 21.5 12.5 35.5h107zM409.001 -10
c-105.333 0 -192.334 34.1689 -261.001 102.502s-103 154.166 -103 257.499c0 102.667 34.5 188.334 103.5 257.001s156.167 103 261.5 103c104.667 0 191.334 -34.333 260.001 -103s103 -154.334 103 -257.001s-34.167 -188.334 -102.5 -257.001s-155.5 -103 -261.5 -103z
M410 132.002c59.333 0 108.333 20.5 147 61.5s58 93.167 58 156.5c0 62.667 -19.333 114.667 -58 156s-87.667 62 -147 62c-60 0 -109.5 -20.5 -148.5 -61.5s-58.5 -93.167 -58.5 -156.5s19.5 -115.5 58.5 -156.5s88.5 -61.5 148.5 -61.5z" />
    <glyph glyph-name="obreve" unicode="&#x14f;" horiz-adv-x="613" 
d="M461 700c0 -39.333 -14.999 -71.833 -44.999 -97.5s-66.333 -38.5 -109 -38.5s-79.334 12.833 -110.001 38.5s-46 58.167 -46 97.5h109c0 -14 4.16699 -25.833 12.5 -35.5s19.833 -14.5 34.5 -14.5s26.167 4.83301 34.5 14.5s12.5 21.5 12.5 35.5h107zM307.001 -10
c-77.333 0 -141.833 24.3311 -193.5 72.998s-77.5 111.334 -77.5 188.001s25.667 139 77 187s116 72 194 72c77.333 0 141.666 -24 192.999 -72s77 -110.333 77 -187c0 -77.333 -25.667 -140.166 -77 -188.499s-115.666 -72.5 -192.999 -72.5zM307.001 119.998
c36 0 65.167 12.5 87.5 37.5s33.5 56.167 33.5 93.5s-11.167 68.166 -33.5 92.499s-51.5 36.5 -87.5 36.5c-36.667 0 -66.167 -12.167 -88.5 -36.5s-33.5 -55.166 -33.5 -92.499s11.333 -68.5 34 -93.5s52 -37.5 88 -37.5z" />
    <glyph glyph-name="Ohungarumlaut" unicode="&#x150;" horiz-adv-x="818" 
d="M317 900h121l-67 -145h-115zM508 900h122l-68 -145h-115zM409 -10c-105.333 0 -192.334 34.1689 -261.001 102.502s-103 154.166 -103 257.499c0 102.667 34.5 188.334 103.5 257.001s156.167 103 261.5 103c104.667 0 191.334 -34.333 260.001 -103
s103 -154.334 103 -257.001s-34.167 -188.334 -102.5 -257.001s-155.5 -103 -261.5 -103zM409.999 132.002c59.333 0 108.333 20.5 147 61.5s58 93.167 58 156.5c0 62.667 -19.333 114.667 -58 156s-87.667 62 -147 62c-60 0 -109.5 -20.5 -148.5 -61.5
s-58.5 -93.167 -58.5 -156.5s19.5 -115.5 58.5 -156.5s88.5 -61.5 148.5 -61.5z" />
    <glyph glyph-name="ohungarumlaut" unicode="&#x151;" horiz-adv-x="613" 
d="M214 700h121l-67 -145h-115zM405 700h122l-68 -145h-115zM307 -10c-77.333 0 -141.833 24.3311 -193.5 72.998s-77.5 111.334 -77.5 188.001s25.667 139 77 187s116 72 194 72c77.333 0 141.666 -24 192.999 -72s77 -110.333 77 -187
c0 -77.333 -25.667 -140.166 -77 -188.499s-115.666 -72.5 -192.999 -72.5zM307 119.998c36 0 65.167 12.5 87.5 37.5s33.5 56.167 33.5 93.5s-11.167 68.166 -33.5 92.499s-51.5 36.5 -87.5 36.5c-36.667 0 -66.167 -12.167 -88.5 -36.5s-33.5 -55.166 -33.5 -92.499
s11.333 -68.5 34 -93.5s52 -37.5 88 -37.5z" />
    <glyph glyph-name="OE" unicode="&#x152;" horiz-adv-x="1098" 
d="M738 134l328 0.00195312v-134h-478v59c-56.667 -46 -123 -69 -199 -69c-99.333 0 -181.5 34.167 -246.5 102.5s-97.5 154.166 -97.5 257.499s32.5 189.166 97.5 257.499s147.5 102.5 247.5 102.5c74 0 140 -22.667 198 -68v58h468v-134h-318v-145h268v-131h-268v-156z
M394 132.002c55.333 0 100.833 20 136.5 60s53.5 92.667 53.5 158s-17.833 118 -53.5 158s-81.167 60 -136.5 60c-56 0 -101.833 -20 -137.5 -60s-53.5 -92.667 -53.5 -158s17.833 -118 53.5 -158s81.5 -60 137.5 -60z" />
    <glyph glyph-name="oe" unicode="&#x153;" horiz-adv-x="823" 
d="M652 165l134.001 -0.000976562c-5.33301 -56.667 -26.666 -100 -63.999 -130s-83.666 -45 -138.999 -45c-72 0 -126 19 -162 57c-39.333 -38 -89 -57 -149 -57c-68 0 -124.333 23.833 -169 71.5s-67 110.834 -67 189.501s22.167 141.5 66.5 188.5
s100.833 70.5 169.5 70.5c62 0 112.333 -19.333 151 -58c34.667 38.667 85.667 58 153 58c27.333 0 52.666 -4.33301 75.999 -13s45.166 -22.5 65.499 -41.5s36.333 -46.167 48 -81.5s17.5 -77 17.5 -125c0 -19.333 -0.666992 -34.333 -2 -45h-279
c3.33301 -68 29 -102 77 -102c43.333 0 67.666 21 72.999 63zM576.001 397.999c-46.667 0 -71.333 -31 -74 -93h142c0.666992 62 -22 93 -68 93zM273.002 108.999c26 0 46.833 12.5 62.5 37.5s23.5 59.833 23.5 104.5s-7.66699 79.167 -23 103.5s-36.333 36.5 -63 36.5
c-27.333 0 -48.833 -12.167 -64.5 -36.5s-23.5 -58.833 -23.5 -103.5s7.83301 -79.5 23.5 -104.5s37.167 -37.5 64.5 -37.5z" />
    <glyph glyph-name="Racute" unicode="&#x154;" horiz-adv-x="632" 
d="M466 900l-91 -145h-113l80 145h124zM605 0l-162 0.000976562l-132 261h-101v-261h-151v700h294c70 0 125.667 -19.333 167 -58s62 -89.334 62 -152.001c0 -46 -11.167 -86 -33.5 -120s-53.5 -60 -93.5 -78zM210 570.001v-179h125c28 0 50.333 8.5 67 25.5
s25 38.5 25 64.5c0 26.667 -8.16699 48.167 -24.5 64.5s-38.833 24.5 -67.5 24.5h-125z" />
    <glyph glyph-name="racute" unicode="&#x155;" horiz-adv-x="411" 
d="M245 700h124l-91 -145h-113zM47 0l-0.000976562 499.999h137l13 -71h9c18.667 28.667 38.834 49.334 60.501 62.001s52.5 19 92.5 19h39v-150c-16 3.33301 -35.667 5 -59 5c-94.667 0 -142 -49.333 -142 -148v-217h-150z" />
    <glyph glyph-name="uni0156" unicode="&#x156;" horiz-adv-x="632" 
d="M455 292l150 -291.999h-162l-132 261h-101v-261h-151v700h294c70 0 125.667 -19.333 167 -58s62 -89.334 62 -152.001c0 -46 -11.167 -86 -33.5 -120s-53.5 -60 -93.5 -78zM210 570.001v-179h125c28 0 50.333 8.5 67 25.5s25 38.5 25 64.5
c0 26.667 -8.16699 48.167 -24.5 64.5s-38.833 24.5 -67.5 24.5h-125zM323 -45.999c28.667 0 51.5 -10.332 68.5 -30.999s25.5 -47 25.5 -79c0 -45.333 -13.5 -84.5 -40.5 -117.5s-59.5 -59.5 -97.5 -79.5l-39 36c49.333 41.333 75 74.666 77 99.999
c-24 -0.666992 -44 6.33301 -60 21s-24 36 -24 64c0 27.333 8.5 48.5 25.5 63.5s38.5 22.5 64.5 22.5z" />
    <glyph glyph-name="uni0157" unicode="&#x157;" horiz-adv-x="411" 
d="M47 0l-0.000976562 499.999h137l13 -71h9c18.667 28.667 38.834 49.334 60.501 62.001s52.5 19 92.5 19h39v-150c-16 3.33301 -35.667 5 -59 5c-94.667 0 -142 -49.333 -142 -148v-217h-150zM118.999 -46.001c28.667 0 51.5 -10.332 68.5 -30.999s25.5 -47 25.5 -79
c0 -45.333 -13.5 -84.5 -40.5 -117.5s-59.5 -59.5 -97.5 -79.5l-39 36c49.333 41.333 75 74.666 77 99.999c-24 -0.666992 -44 6.33301 -60 21s-24 36 -24 64c0 27.333 8.5 48.5 25.5 63.5s38.5 22.5 64.5 22.5z" />
    <glyph glyph-name="Rcaron" unicode="&#x158;" horiz-adv-x="632" 
d="M380 747h-123l-112 153h122l47 -73h9l46 73h122zM605 0l-162 0.000976562l-132 261h-101v-261h-151v700h294c70 0 125.667 -19.333 167 -58s62 -89.334 62 -152.001c0 -46 -11.167 -86 -33.5 -120s-53.5 -60 -93.5 -78zM210 570.001v-179h125c28 0 50.333 8.5 67 25.5
s25 38.5 25 64.5c0 26.667 -8.16699 48.167 -24.5 64.5s-38.833 24.5 -67.5 24.5h-125z" />
    <glyph glyph-name="rcaron" unicode="&#x159;" horiz-adv-x="411" 
d="M273 700h122l-111 -153h-123l-112 153h122l47 -73h9zM47 0l-0.000976562 499.999h137l13 -71h9c18.667 28.667 38.834 49.334 60.501 62.001s52.5 19 92.5 19h39v-150c-16 3.33301 -35.667 5 -59 5c-94.667 0 -142 -49.333 -142 -148v-217h-150z" />
    <glyph glyph-name="Sacute" unicode="&#x15a;" horiz-adv-x="611" 
d="M334 900h124l-91 -145h-113zM566 196c0 -66 -24.3291 -116.836 -72.9961 -152.503s-108.334 -53.5 -179.001 -53.5c-86 0 -152 21.167 -198 63.5s-69.667 98.5 -71 168.5h152c1.33301 -31.333 12.166 -56.166 32.499 -74.499s48.5 -27.5 84.5 -27.5c28 0 51 6 69 18
s27 30 27 54c0 14.667 -3.16699 27.334 -9.5 38.001s-16.666 20 -30.999 28s-26.833 14 -37.5 18s-26.667 9.33301 -48 16l-43 12c-116.667 36 -175 102.667 -175 200c0 63.333 23 113.5 69 150.5s104.667 55.5 176 55.5c74 0 133.167 -19.5 177.5 -58.5
s67.166 -89.5 68.499 -151.5h-152c-6.66699 53.333 -37.667 80 -93 80c-26.667 0 -48.334 -6.16699 -65.001 -18.5s-25 -29.166 -25 -50.499c0 -12 2.66699 -22.5 8 -31.5s14.166 -17 26.499 -24s23.5 -12.333 33.5 -16s24 -8.5 42 -14.5l37 -11c18 -6 34 -11.833 48 -17.5
s30.833 -14.5 50.5 -26.5s36.167 -25.333 49.5 -40s24.833 -33.667 34.5 -57s14.5 -49 14.5 -77z" />
    <glyph glyph-name="sacute" unicode="&#x15b;" horiz-adv-x="510" 
d="M270 700h124l-91 -145h-113zM270 -10c-72.667 0 -128.998 15.3301 -168.998 45.9971s-61.667 73.334 -65 128.001h143c6 -42.667 36.333 -64 91 -64c41.333 0 62 13 62 39c0 14.667 -6 26 -18 34s-33 15.667 -63 23l-54 12c-20.667 4.66699 -38.5 9.83398 -53.5 15.501
s-30.167 13.834 -45.5 24.501s-27 24.667 -35 42s-12 38 -12 62c0 50 19 88.833 57 116.5s84.667 41.5 140 41.5c67.333 0 119.333 -14.667 156 -44s57 -67.333 61 -114h-144c-5.33301 32 -29.333 48 -72 48c-16.667 0 -30 -3.5 -40 -10.5s-15 -16.5 -15 -28.5
c0 -8.66699 3.5 -16 10.5 -22s14.667 -10.333 23 -13s22.166 -6.66699 41.499 -12l55 -13c49.333 -11.333 86.666 -29.333 111.999 -54s38 -59 38 -103c0 -50.667 -19 -89 -57 -115s-87 -39 -147 -39z" />
    <glyph glyph-name="Scircumflex" unicode="&#x15c;" horiz-adv-x="611" 
d="M260 747h-123l111 153h123l112 -153h-122l-47 73h-9zM566 196c0 -66 -24.3291 -116.836 -72.9961 -152.503s-108.334 -53.5 -179.001 -53.5c-86 0 -152 21.167 -198 63.5s-69.667 98.5 -71 168.5h152c1.33301 -31.333 12.166 -56.166 32.499 -74.499
s48.5 -27.5 84.5 -27.5c28 0 51 6 69 18s27 30 27 54c0 14.667 -3.16699 27.334 -9.5 38.001s-16.666 20 -30.999 28s-26.833 14 -37.5 18s-26.667 9.33301 -48 16l-43 12c-116.667 36 -175 102.667 -175 200c0 63.333 23 113.5 69 150.5s104.667 55.5 176 55.5
c74 0 133.167 -19.5 177.5 -58.5s67.166 -89.5 68.499 -151.5h-152c-6.66699 53.333 -37.667 80 -93 80c-26.667 0 -48.334 -6.16699 -65.001 -18.5s-25 -29.166 -25 -50.499c0 -12 2.66699 -22.5 8 -31.5s14.166 -17 26.499 -24s23.5 -12.333 33.5 -16s24 -8.5 42 -14.5
l37 -11c18 -6 34 -11.833 48 -17.5s30.833 -14.5 50.5 -26.5s36.167 -25.333 49.5 -40s24.833 -33.667 34.5 -57s14.5 -49 14.5 -77z" />
    <glyph glyph-name="scircumflex" unicode="&#x15d;" horiz-adv-x="510" 
d="M196 547h-123l111 153h123l112 -153h-122l-47 73h-9zM270 -10c-72.667 0 -128.998 15.3301 -168.998 45.9971s-61.667 73.334 -65 128.001h143c6 -42.667 36.333 -64 91 -64c41.333 0 62 13 62 39c0 14.667 -6 26 -18 34s-33 15.667 -63 23l-54 12
c-20.667 4.66699 -38.5 9.83398 -53.5 15.501s-30.167 13.834 -45.5 24.501s-27 24.667 -35 42s-12 38 -12 62c0 50 19 88.833 57 116.5s84.667 41.5 140 41.5c67.333 0 119.333 -14.667 156 -44s57 -67.333 61 -114h-144c-5.33301 32 -29.333 48 -72 48
c-16.667 0 -30 -3.5 -40 -10.5s-15 -16.5 -15 -28.5c0 -8.66699 3.5 -16 10.5 -22s14.667 -10.333 23 -13s22.166 -6.66699 41.499 -12l55 -13c49.333 -11.333 86.666 -29.333 111.999 -54s38 -59 38 -103c0 -50.667 -19 -89 -57 -115s-87 -39 -147 -39z" />
    <glyph glyph-name="Scedilla" unicode="&#x15e;" horiz-adv-x="611" 
d="M566 196c0 -60.667 -20.8281 -108.672 -62.4951 -144.005s-94.167 -55.666 -157.5 -60.999l-22 -34c26 1.33301 49 -5.16699 69 -19.5s30 -34.5 30 -60.5c0 -27.333 -9.66699 -48.666 -29 -63.999s-46.333 -23 -81 -23c-32.667 0 -61.334 8.66699 -86.001 26l24 56
c21.333 -12.667 41.333 -19 60 -19c24 0 36 8.66699 36 26c0 16.667 -11.333 25 -34 25c-10.667 0 -21 -1.66699 -31 -5l-48 38l32 56c-70.667 8 -124.834 32.333 -162.501 73s-57.167 92.667 -58.5 156h152c1.33301 -31.333 12.166 -56.166 32.499 -74.499
s48.5 -27.5 84.5 -27.5c28 0 51 6 69 18s27 30 27 54c0 14.667 -3.16699 27.334 -9.5 38.001s-16.666 20 -30.999 28s-26.833 14 -37.5 18s-26.667 9.33301 -48 16l-43 12c-116.667 36 -175 102.667 -175 200c0 63.333 23 113.5 69 150.5s104.667 55.5 176 55.5
c74 0 133.167 -19.5 177.5 -58.5s67.166 -89.5 68.499 -151.5h-152c-6.66699 53.333 -37.667 80 -93 80c-26.667 0 -48.334 -6.16699 -65.001 -18.5s-25 -29.166 -25 -50.499c0 -12 2.66699 -22.5 8 -31.5s14.166 -17 26.499 -24s23.5 -12.333 33.5 -16s24 -8.5 42 -14.5
l37 -11c18 -6 34 -11.833 48 -17.5s30.833 -14.5 50.5 -26.5s36.167 -25.333 49.5 -40s24.833 -33.667 34.5 -57s14.5 -49 14.5 -77z" />
    <glyph glyph-name="scedilla" unicode="&#x15f;" horiz-adv-x="510" 
d="M474 144c0 -46 -15.8311 -81.835 -47.498 -107.502s-73.167 -40.834 -124.5 -45.501l-22 -34c26 1.33301 49 -5.16699 69 -19.5s30 -34.5 30 -60.5c0 -27.333 -9.66699 -48.666 -29 -63.999s-46.333 -23 -81 -23c-32.667 0 -61.334 8.66699 -86.001 26l24 56
c21.333 -12.667 41.333 -19 60 -19c24 0 36 8.66699 36 26c0 16.667 -11.333 25 -34 25c-10.667 0 -21 -1.66699 -31 -5l-48 38l32 56c-58 6.66699 -102.667 24.667 -134 54s-48.666 68.333 -51.999 117h143c6 -42.667 36.333 -64 91 -64c41.333 0 62 13 62 39
c0 14.667 -6 26 -18 34s-33 15.667 -63 23l-54 12c-20.667 4.66699 -38.5 9.83398 -53.5 15.501s-30.167 13.834 -45.5 24.501s-27 24.667 -35 42s-12 38 -12 62c0 50 19 88.833 57 116.5s84.667 41.5 140 41.5c67.333 0 119.333 -14.667 156 -44s57 -67.333 61 -114h-144
c-5.33301 32 -29.333 48 -72 48c-16.667 0 -30 -3.5 -40 -10.5s-15 -16.5 -15 -28.5c0 -8.66699 3.5 -16 10.5 -22s14.667 -10.333 23 -13s22.166 -6.66699 41.499 -12l55 -13c49.333 -11.333 86.666 -29.333 111.999 -54s38 -59 38 -103z" />
    <glyph glyph-name="Scaron" unicode="&#x160;" horiz-adv-x="611" 
d="M361 900h122l-111 -153h-123l-112 153h122l47 -73h9zM566 196c0 -66 -24.3291 -116.836 -72.9961 -152.503s-108.334 -53.5 -179.001 -53.5c-86 0 -152 21.167 -198 63.5s-69.667 98.5 -71 168.5h152c1.33301 -31.333 12.166 -56.166 32.499 -74.499
s48.5 -27.5 84.5 -27.5c28 0 51 6 69 18s27 30 27 54c0 14.667 -3.16699 27.334 -9.5 38.001s-16.666 20 -30.999 28s-26.833 14 -37.5 18s-26.667 9.33301 -48 16l-43 12c-116.667 36 -175 102.667 -175 200c0 63.333 23 113.5 69 150.5s104.667 55.5 176 55.5
c74 0 133.167 -19.5 177.5 -58.5s67.166 -89.5 68.499 -151.5h-152c-6.66699 53.333 -37.667 80 -93 80c-26.667 0 -48.334 -6.16699 -65.001 -18.5s-25 -29.166 -25 -50.499c0 -12 2.66699 -22.5 8 -31.5s14.166 -17 26.499 -24s23.5 -12.333 33.5 -16s24 -8.5 42 -14.5
l37 -11c18 -6 34 -11.833 48 -17.5s30.833 -14.5 50.5 -26.5s36.167 -25.333 49.5 -40s24.833 -33.667 34.5 -57s14.5 -49 14.5 -77z" />
    <glyph glyph-name="scaron" unicode="&#x161;" horiz-adv-x="510" 
d="M297 700h122l-111 -153h-123l-112 153h122l47 -73h9zM270 -10c-72.667 0 -128.998 15.3301 -168.998 45.9971s-61.667 73.334 -65 128.001h143c6 -42.667 36.333 -64 91 -64c41.333 0 62 13 62 39c0 14.667 -6 26 -18 34s-33 15.667 -63 23l-54 12
c-20.667 4.66699 -38.5 9.83398 -53.5 15.501s-30.167 13.834 -45.5 24.501s-27 24.667 -35 42s-12 38 -12 62c0 50 19 88.833 57 116.5s84.667 41.5 140 41.5c67.333 0 119.333 -14.667 156 -44s57 -67.333 61 -114h-144c-5.33301 32 -29.333 48 -72 48
c-16.667 0 -30 -3.5 -40 -10.5s-15 -16.5 -15 -28.5c0 -8.66699 3.5 -16 10.5 -22s14.667 -10.333 23 -13s22.166 -6.66699 41.499 -12l55 -13c49.333 -11.333 86.666 -29.333 111.999 -54s38 -59 38 -103c0 -50.667 -19 -89 -57 -115s-87 -39 -147 -39z" />
    <glyph glyph-name="uni0162" unicode="&#x162;" horiz-adv-x="599" 
d="M376 0l-35.999 -0.000976562l-27 -43c26 1.33301 49 -5.16699 69 -19.5s30 -34.5 30 -60.5c0 -27.333 -9.66699 -48.666 -29 -63.999s-46.333 -23 -81 -23c-32.667 0 -61.334 8.66699 -86.001 26l24 56c21.333 -12.667 41.333 -19 60 -19c24 0 36 8.66699 36 26
c0 16.667 -11.333 25 -34 25c-10.667 0 -21 -1.66699 -31 -5l-48 38l36 63h-37v562h-195v138h545v-138h-196v-562z" />
    <glyph glyph-name="uni0163" unicode="&#x163;" horiz-adv-x="420" 
d="M406 382l-134 -0.00195312v-214c0 -8 0.5 -14.667 1.5 -20s3.5 -11.666 7.5 -18.999s10.833 -12.833 20.5 -16.5s22.167 -5.5 37.5 -5.5c13.333 0 30 2 50 6v-111c-33.333 -8 -65.333 -12 -96 -12h-3l-21 -33c26 1.33301 49 -5.16699 69 -19.5s30 -34.5 30 -60.5
c0 -27.333 -9.66699 -48.666 -29 -63.999s-46.333 -23 -81 -23c-32.667 0 -61.334 8.66699 -86.001 26l24 56c21.333 -12.667 41.333 -19 60 -19c24 0 36 8.66699 36 26c0 16.667 -11.333 25 -34 25c-10.667 0 -21 -1.66699 -31 -5l-48 38l37 64
c-62.667 20.667 -94 69.667 -94 147v234h-109v118h35c30.667 0 52.834 6.16699 66.501 18.5s20.5 31.833 20.5 58.5v60h137v-137h134v-118z" />
    <glyph glyph-name="Tcaron" unicode="&#x164;" horiz-adv-x="599" 
d="M361 747h-123l-112 153h122l47 -73h9l46 73h122zM572 700v-138h-196v-562h-154v562h-195v138h545z" />
    <glyph glyph-name="tcaron" unicode="&#x165;" horiz-adv-x="420" 
d="M416 806c23.333 0 42 -8.83301 56 -26.5s21 -40.167 21 -67.5c0 -72 -37.667 -129.333 -113 -172l-31 34c39.333 32.667 60 64 62 94c-16.667 -2 -32.167 3 -46.5 15s-21.5 29.667 -21.5 53c0 21.333 6.83301 38.333 20.5 51s31.167 19 52.5 19zM293 -10
c-114 0 -171.001 52.666 -171.001 157.999v234h-109v118h35c30.667 0 52.834 6.16699 66.501 18.5s20.5 31.833 20.5 58.5v60h137v-137h134v-118h-134v-214c0 -8 0.5 -14.667 1.5 -20s3.5 -11.666 7.5 -18.999s10.833 -12.833 20.5 -16.5s22.167 -5.5 37.5 -5.5
c13.333 0 30 2 50 6v-111c-33.333 -8 -65.333 -12 -96 -12z" />
    <glyph glyph-name="Tbar" unicode="&#x166;" horiz-adv-x="599" 
d="M572 562h-196v-178h144v-112h-144v-272h-154v272h-142v112h142v178h-195v138h545v-138z" />
    <glyph glyph-name="tbar" unicode="&#x167;" horiz-adv-x="420" 
d="M406 382l-134.001 -0.000976562v-70h133v-106h-133v-38c0 -8 0.5 -14.667 1.5 -20s3.5 -11.666 7.5 -18.999s10.833 -12.833 20.5 -16.5s22.167 -5.5 37.5 -5.5c13.333 0 30 2 50 6v-111c-33.333 -8 -65.333 -12 -96 -12c-114 0 -171 52.667 -171 158v58h-107v106h107v70
h-109v118h35c30.667 0 52.834 6.16699 66.501 18.5s20.5 31.833 20.5 58.5v60h137v-137h134v-118z" />
    <glyph glyph-name="Utilde" unicode="&#x168;" horiz-adv-x="710" 
d="M557 885c-2 -42.667 -13.5 -78.333 -34.5 -107s-50.167 -43 -87.5 -43c-24 0 -44.833 5.16699 -62.5 15.5s-32.667 20.5 -45 30.5s-23.833 15 -34.5 15c-24 0 -38 -17 -42 -51h-97c2.66699 44 14.5 80.167 35.5 108.5s50.5 42.5 88.5 42.5c20 0 37.667 -3.16699 53 -9.5
s26.833 -13.333 34.5 -21s16.167 -14.667 25.5 -21s18.666 -9.5 27.999 -9.5c24.667 0 38.334 16.667 41.001 50h97zM651 700.001v-425c0 -93.333 -27.167 -164.166 -81.5 -212.499s-125.5 -72.5 -213.5 -72.5s-159.5 24.167 -214.5 72.5s-82.5 119.166 -82.5 212.499v425
h155v-422c0 -45.333 13.167 -81 39.5 -107s60.833 -39 103.5 -39s76.5 12.833 101.5 38.5s37.5 61.5 37.5 107.5v422h155z" />
    <glyph glyph-name="utilde" unicode="&#x169;" horiz-adv-x="603" 
d="M503 685c-2 -42.667 -13.5 -78.333 -34.5 -107s-50.167 -43 -87.5 -43c-24 0 -44.833 5.16699 -62.5 15.5s-32.667 20.5 -45 30.5s-23.833 15 -34.5 15c-24 0 -38 -17 -42 -51h-97c2.66699 44 14.5 80.167 35.5 108.5s50.5 42.5 88.5 42.5c20 0 37.667 -3.16699 53 -9.5
s26.833 -13.333 34.5 -21s16.167 -14.667 25.5 -21s18.666 -9.5 27.999 -9.5c24.667 0 38.334 16.667 41.001 50h97zM556 500.001l0.000976562 -499.999h-137l-13 58h-9c-36 -45.333 -85.333 -68 -148 -68s-111.834 19 -147.501 57s-53.5 90 -53.5 156v297h150v-266
c0 -36.667 9.5 -64.834 28.5 -84.501s43.5 -29.5 73.5 -29.5s55.167 10 75.5 30s30.5 49 30.5 87v263h150z" />
    <glyph glyph-name="Umacron" unicode="&#x16a;" horiz-adv-x="710" 
d="M182 862h347v-99h-347v99zM651 700v-425c0 -93.333 -27.167 -164.166 -81.5 -212.499s-125.5 -72.5 -213.5 -72.5s-159.5 24.167 -214.5 72.5s-82.5 119.166 -82.5 212.499v425h155v-422c0 -45.333 13.167 -81 39.5 -107s60.833 -39 103.5 -39s76.5 12.833 101.5 38.5
s37.5 61.5 37.5 107.5v422h155z" />
    <glyph glyph-name="umacron" unicode="&#x16b;" horiz-adv-x="603" 
d="M128 662h347v-99h-347v99zM556 500l0.000976562 -499.999h-137l-13 58h-9c-36 -45.333 -85.333 -68 -148 -68s-111.834 19 -147.501 57s-53.5 90 -53.5 156v297h150v-266c0 -36.667 9.5 -64.834 28.5 -84.501s43.5 -29.5 73.5 -29.5s55.167 10 75.5 30s30.5 49 30.5 87
v263h150z" />
    <glyph glyph-name="Ubreve" unicode="&#x16c;" horiz-adv-x="710" 
d="M509 900c0 -39.333 -14.999 -71.833 -44.999 -97.5s-66.333 -38.5 -109 -38.5s-79.334 12.833 -110.001 38.5s-46 58.167 -46 97.5h109c0 -14 4.16699 -25.833 12.5 -35.5s19.833 -14.5 34.5 -14.5s26.167 4.83301 34.5 14.5s12.5 21.5 12.5 35.5h107zM651.001 700v-425
c0 -93.333 -27.167 -164.166 -81.5 -212.499s-125.5 -72.5 -213.5 -72.5s-159.5 24.167 -214.5 72.5s-82.5 119.166 -82.5 212.499v425h155v-422c0 -45.333 13.167 -81 39.5 -107s60.833 -39 103.5 -39s76.5 12.833 101.5 38.5s37.5 61.5 37.5 107.5v422h155z" />
    <glyph glyph-name="ubreve" unicode="&#x16d;" horiz-adv-x="603" 
d="M456 700c0 -39.333 -14.999 -71.833 -44.999 -97.5s-66.333 -38.5 -109 -38.5s-79.334 12.833 -110.001 38.5s-46 58.167 -46 97.5h109c0 -14 4.16699 -25.833 12.5 -35.5s19.833 -14.5 34.5 -14.5s26.167 4.83301 34.5 14.5s12.5 21.5 12.5 35.5h107zM556.001 500
l0.000976562 -499.999h-137l-13 58h-9c-36 -45.333 -85.333 -68 -148 -68s-111.834 19 -147.501 57s-53.5 90 -53.5 156v297h150v-266c0 -36.667 9.5 -64.834 28.5 -84.501s43.5 -29.5 73.5 -29.5s55.167 10 75.5 30s30.5 49 30.5 87v263h150z" />
    <glyph glyph-name="Uring" unicode="&#x16e;" horiz-adv-x="710" 
d="M354 729c-28.667 0 -53.167 10 -73.5 30s-30.5 44 -30.5 72c0 27.333 10.167 51 30.5 71s44.833 30 73.5 30s53.334 -10 74.001 -30s31 -43.667 31 -71c0 -28 -10.333 -52 -31 -72s-45.334 -30 -74.001 -30zM355 806c6.66699 0 12.5 2.5 17.5 7.5s7.5 10.833 7.5 17.5
c0 6 -2.5 11.5 -7.5 16.5s-10.833 7.5 -17.5 7.5c-7.33301 0 -13.5 -2.5 -18.5 -7.5s-7.5 -10.5 -7.5 -16.5c0 -7.33301 2.5 -13.333 7.5 -18s11.167 -7 18.5 -7zM651 700v-425c0 -93.333 -27.167 -164.166 -81.5 -212.499s-125.5 -72.5 -213.5 -72.5
s-159.5 24.167 -214.5 72.5s-82.5 119.166 -82.5 212.499v425h155v-422c0 -45.333 13.167 -81 39.5 -107s60.833 -39 103.5 -39s76.5 12.833 101.5 38.5s37.5 61.5 37.5 107.5v422h155z" />
    <glyph glyph-name="uring" unicode="&#x16f;" horiz-adv-x="603" 
d="M301 529c-28.667 0 -53.167 10 -73.5 30s-30.5 44 -30.5 72c0 27.333 10.167 51 30.5 71s44.833 30 73.5 30s53.334 -10 74.001 -30s31 -43.667 31 -71c0 -28 -10.333 -52 -31 -72s-45.334 -30 -74.001 -30zM302 606c6.66699 0 12.5 2.5 17.5 7.5s7.5 10.833 7.5 17.5
c0 6 -2.5 11.5 -7.5 16.5s-10.833 7.5 -17.5 7.5c-7.33301 0 -13.5 -2.5 -18.5 -7.5s-7.5 -10.5 -7.5 -16.5c0 -7.33301 2.5 -13.333 7.5 -18s11.167 -7 18.5 -7zM556 500l0.000976562 -499.999h-137l-13 58h-9c-36 -45.333 -85.333 -68 -148 -68s-111.834 19 -147.501 57
s-53.5 90 -53.5 156v297h150v-266c0 -36.667 9.5 -64.834 28.5 -84.501s43.5 -29.5 73.5 -29.5s55.167 10 75.5 30s30.5 49 30.5 87v263h150z" />
    <glyph glyph-name="Uhungarumlaut" unicode="&#x170;" horiz-adv-x="710" 
d="M263 900h121l-67 -145h-115zM454 900h122l-68 -145h-115zM651 700v-425c0 -93.333 -27.167 -164.166 -81.5 -212.499s-125.5 -72.5 -213.5 -72.5s-159.5 24.167 -214.5 72.5s-82.5 119.166 -82.5 212.499v425h155v-422c0 -45.333 13.167 -81 39.5 -107
s60.833 -39 103.5 -39s76.5 12.833 101.5 38.5s37.5 61.5 37.5 107.5v422h155z" />
    <glyph glyph-name="uhungarumlaut" unicode="&#x171;" horiz-adv-x="603" 
d="M209 700h121l-67 -145h-115zM400 700h122l-68 -145h-115zM556 500l0.000976562 -499.999h-137l-13 58h-9c-36 -45.333 -85.333 -68 -148 -68s-111.834 19 -147.501 57s-53.5 90 -53.5 156v297h150v-266c0 -36.667 9.5 -64.834 28.5 -84.501s43.5 -29.5 73.5 -29.5
s55.167 10 75.5 30s30.5 49 30.5 87v263h150z" />
    <glyph glyph-name="Uogonek" unicode="&#x172;" horiz-adv-x="710" 
d="M496 700l154.999 0.000976562v-425c0 -76.667 -18.667 -138.334 -56 -185.001s-88 -77 -152 -91c-42 -12.667 -63 -33 -63 -61c0 -25.333 18.667 -38 56 -38c14.667 0 30.334 2.33301 47.001 7v-79c-16.667 -6 -37.667 -9 -63 -9c-39.333 0 -70.333 8.5 -93 25.5
s-34 40.5 -34 70.5c0 30.667 13.333 56 40 76c-82 4 -148.167 30 -198.5 78s-75.5 116.667 -75.5 206v425h155v-422c0 -45.333 13.167 -81 39.5 -107s60.833 -39 103.5 -39s76.5 12.833 101.5 38.5s37.5 61.5 37.5 107.5v422z" />
    <glyph glyph-name="uogonek" unicode="&#x173;" horiz-adv-x="603" 
d="M546 -100c14.667 0 30.334 2.33496 47.001 7.00195v-79c-16.667 -6 -37.667 -9 -63 -9c-39.333 0 -70.333 8.5 -93 25.5s-34 40.5 -34 70.5c0 34 17.667 62.333 53 85h-37l-13 58h-9c-36 -45.333 -85.333 -68 -148 -68s-111.834 19 -147.501 57s-53.5 90 -53.5 156v297
h150v-266c0 -36.667 9.5 -64.834 28.5 -84.501s43.5 -29.5 73.5 -29.5s55.167 10 75.5 30s30.5 49 30.5 87v263h150v-500c-44 -12.667 -66 -33.334 -66 -62.001c0 -25.333 18.667 -38 56 -38z" />
    <glyph glyph-name="Wcircumflex" unicode="&#x174;" horiz-adv-x="935" 
d="M417 747h-123l111 153h123l112 -153h-122l-47 73h-9zM768 700h149l-150 -700h-169l-126 451h-9l-126 -451h-169l-150 700h149l93 -470h9l118 420h161l117 -420h9z" />
    <glyph glyph-name="wcircumflex" unicode="&#x175;" horiz-adv-x="805" 
d="M352 547h-123l111 153h123l112 -153h-122l-47 73h-9zM152 0l-138 500h139l80 -330h9l85 300h152l86 -300h9l78 330h139l-139 -500h-161l-84 303h-9l-85 -303h-161z" />
    <glyph glyph-name="Ycircumflex" unicode="&#x176;" horiz-adv-x="694" 
d="M296 747h-123l111 153h123l112 -153h-122l-47 73h-9zM493 700h183l-251 -402v-298h-155v298l-252 402h182l142 -234h9z" />
    <glyph glyph-name="ycircumflex" unicode="&#x177;" horiz-adv-x="589" 
d="M244 547h-123l111 153h123l112 -153h-122l-47 73h-9zM163 -210c-28.667 0 -57.333 4 -86 12l-1 109c18.667 -4 35.667 -6 51 -6c56.667 0 94 21.333 112 64l12 31h-46l-191 500h155l126 -348h9l117 348h154l-197 -553c-35.333 -104.667 -107 -157 -215 -157z" />
    <glyph glyph-name="Ydieresis" unicode="&#x178;" horiz-adv-x="694" 
d="M227 748c-24 0 -44.5 8.33301 -61.5 25s-25.5 36.667 -25.5 60c0 24 8.5 44.167 25.5 60.5s37.5 24.5 61.5 24.5c22.667 0 42.334 -8.16699 59.001 -24.5s25 -36.5 25 -60.5c0 -23.333 -8.33301 -43.333 -25 -60s-36.334 -25 -59.001 -25zM468 748
c-22.667 0 -42.334 8.33301 -59.001 25s-25 36.667 -25 60c0 24 8.33301 44.167 25 60.5s36.334 24.5 59.001 24.5c24 0 44.333 -8.16699 61 -24.5s25 -36.5 25 -60.5c0 -23.333 -8.33301 -43.333 -25 -60s-37 -25 -61 -25zM493 700h183l-251 -402v-298h-155v298l-252 402
h182l142 -234h9z" />
    <glyph glyph-name="Zacute" unicode="&#x179;" horiz-adv-x="631" 
d="M338 900h124l-91 -145h-113zM272 138h313v-138h-540v91l313 464v7h-299v138h512v-91l-299 -464v-7z" />
    <glyph glyph-name="zacute" unicode="&#x17a;" horiz-adv-x="511" 
d="M278 700h124l-91 -145h-113zM36 0v75l223 303v7h-214v115h419v-75l-220 -303v-7h231v-115h-439z" />
    <glyph glyph-name="Zdotaccent" unicode="&#x17b;" horiz-adv-x="631" 
d="M316 755c-24 0 -45.002 8.83301 -63.002 26.5s-27 38.167 -27 61.5c0 24.667 8.83301 45.5 26.5 62.5s38.834 25.5 63.501 25.5c24 0 44.5 -8.5 61.5 -25.5s25.5 -37.833 25.5 -62.5c0 -23.333 -8.66699 -43.833 -26 -61.5s-37.666 -26.5 -60.999 -26.5zM271.998 138h313
v-138h-540v91l313 464v7h-299v138h512v-91l-299 -464v-7z" />
    <glyph glyph-name="zdotaccent" unicode="&#x17c;" horiz-adv-x="511" 
d="M256 555c-24 0 -45.002 8.83301 -63.002 26.5s-27 38.167 -27 61.5c0 24.667 8.83301 45.5 26.5 62.5s38.834 25.5 63.501 25.5c24 0 44.5 -8.5 61.5 -25.5s25.5 -37.833 25.5 -62.5c0 -23.333 -8.66699 -43.833 -26 -61.5s-37.666 -26.5 -60.999 -26.5zM35.998 0v75
l223 303v7h-214v115h419v-75l-220 -303v-7h231v-115h-439z" />
    <glyph glyph-name="Zcaron" unicode="&#x17d;" horiz-adv-x="631" 
d="M366 900h122l-111 -153h-123l-112 153h122l47 -73h9zM272 138h313v-138h-540v91l313 464v7h-299v138h512v-91l-299 -464v-7z" />
    <glyph glyph-name="zcaron" unicode="&#x17e;" horiz-adv-x="511" 
d="M305 700h122l-111 -153h-123l-112 153h122l47 -73h9zM36 0v75l223 303v7h-214v115h419v-75l-220 -303v-7h231v-115h-439z" />
    <glyph glyph-name="florin" unicode="&#x192;" horiz-adv-x="571" 
d="M453 536c-36.667 0 -58.333 -17.667 -65 -53l-18 -91h132v-103h-152l-30 -157c-8.66699 -44.667 -28.834 -79.5 -60.501 -104.5s-71.5 -37.5 -119.5 -37.5c-49.333 0 -90 11 -122 33l37 98c21.333 -11.333 42.333 -17 63 -17c37.333 0 59.333 17.667 66 53l25 132h-119
v103h139l22 116c8.66699 44.667 28.834 79.5 60.501 104.5s71.5 37.5 119.5 37.5c46 0 86.667 -11 122 -33l-37 -98c-20.667 11.333 -41.667 17 -63 17z" />
    <glyph glyph-name="uni01CD" unicode="&#x1cd;" horiz-adv-x="726" 
d="M425 747h-123l-112 153h122l47 -73h9l46 73h122zM543 0l-53 157h-254l-53 -157h-165l253 700h185l252 -700h-165zM278 283h170l-81 240h-9z" />
    <glyph glyph-name="uni01CE" unicode="&#x1ce;" horiz-adv-x="557" 
d="M331 547h-123l-112 153h122l47 -73h9l46 73h122zM534 111h11.9961v-111h-62c-54 0 -90 19.667 -108 59c-34 -46 -88.667 -69 -164 -69c-55.333 0 -99.666 12.833 -132.999 38.5s-50 62.5 -50 110.5c0 46 14.833 81.5 44.5 106.5s68.834 40.167 117.501 45.5l158 17v16
c0 45.333 -24 68 -72 68c-46 0 -72.667 -21.667 -80 -65h-150c5.33301 54.667 28.333 98.834 69 132.501s94.334 50.5 161.001 50.5c64.667 0 117.834 -16.333 159.501 -49s62.5 -82.334 62.5 -149.001v-164c0 -24.667 11.667 -37 35 -37zM348.996 193l-0.000976562 13.999
l-106 -12c-42.667 -4.66699 -64 -21 -64 -49c0 -28.667 19.667 -43 59 -43c28.667 0 54.334 7.33301 77.001 22s34 37.334 34 68.001z" />
    <glyph glyph-name="uni01CF" unicode="&#x1cf;" horiz-adv-x="273" 
d="M187 900h122l-111 -153h-123l-112 153h122l47 -73h9zM214 700v-700h-155v700h155z" />
    <glyph glyph-name="uni01D0" unicode="&#x1d0;" horiz-adv-x="245" 
d="M173 700h122l-111 -153h-123l-112 153h122l47 -73h9zM47 0v500h150v-500h-150z" />
    <glyph glyph-name="uni01D1" unicode="&#x1d1;" horiz-adv-x="818" 
d="M460 900h122l-111 -153h-123l-112 153h122l47 -73h9zM409 -10c-105.333 0 -192.334 34.1689 -261.001 102.502s-103 154.166 -103 257.499c0 102.667 34.5 188.334 103.5 257.001s156.167 103 261.5 103c104.667 0 191.334 -34.333 260.001 -103
s103 -154.334 103 -257.001s-34.167 -188.334 -102.5 -257.001s-155.5 -103 -261.5 -103zM409.999 132.002c59.333 0 108.333 20.5 147 61.5s58 93.167 58 156.5c0 62.667 -19.333 114.667 -58 156s-87.667 62 -147 62c-60 0 -109.5 -20.5 -148.5 -61.5
s-58.5 -93.167 -58.5 -156.5s19.5 -115.5 58.5 -156.5s88.5 -61.5 148.5 -61.5z" />
    <glyph glyph-name="uni01D2" unicode="&#x1d2;" horiz-adv-x="613" 
d="M357 700h122l-111 -153h-123l-112 153h122l47 -73h9zM307 -10c-77.333 0 -141.833 24.3311 -193.5 72.998s-77.5 111.334 -77.5 188.001s25.667 139 77 187s116 72 194 72c77.333 0 141.666 -24 192.999 -72s77 -110.333 77 -187
c0 -77.333 -25.667 -140.166 -77 -188.499s-115.666 -72.5 -192.999 -72.5zM307 119.998c36 0 65.167 12.5 87.5 37.5s33.5 56.167 33.5 93.5s-11.167 68.166 -33.5 92.499s-51.5 36.5 -87.5 36.5c-36.667 0 -66.167 -12.167 -88.5 -36.5s-33.5 -55.166 -33.5 -92.499
s11.333 -68.5 34 -93.5s52 -37.5 88 -37.5z" />
    <glyph glyph-name="uni01D3" unicode="&#x1d3;" horiz-adv-x="710" 
d="M406 900h122l-111 -153h-123l-112 153h122l47 -73h9zM651 700v-425c0 -93.333 -27.167 -164.166 -81.5 -212.499s-125.5 -72.5 -213.5 -72.5s-159.5 24.167 -214.5 72.5s-82.5 119.166 -82.5 212.499v425h155v-422c0 -45.333 13.167 -81 39.5 -107s60.833 -39 103.5 -39
s76.5 12.833 101.5 38.5s37.5 61.5 37.5 107.5v422h155z" />
    <glyph glyph-name="uni01D4" unicode="&#x1d4;" horiz-adv-x="603" 
d="M352 700h122l-111 -153h-123l-112 153h122l47 -73h9zM556 500l0.000976562 -499.999h-137l-13 58h-9c-36 -45.333 -85.333 -68 -148 -68s-111.834 19 -147.501 57s-53.5 90 -53.5 156v297h150v-266c0 -36.667 9.5 -64.834 28.5 -84.501s43.5 -29.5 73.5 -29.5
s55.167 10 75.5 30s30.5 49 30.5 87v263h150z" />
    <glyph glyph-name="uni01E2" unicode="&#x1e2;" horiz-adv-x="1067" 
d="M924 862v-99h-347v99h347zM707 134h328v-134h-478v155h-253l-103 -155h-183l458 700h549v-134h-318v-145h268v-131h-268v-156zM389 283h168v240h-9z" />
    <glyph glyph-name="uni01E3" unicode="&#x1e3;" horiz-adv-x="775" 
d="M552 662v-99h-347v99h347zM604 165h134.999c-5.33301 -56.667 -26.833 -100 -64.5 -130s-84.167 -45 -139.5 -45c-75.333 0 -129.333 23.667 -162 71c-31.333 -47.333 -88.333 -71 -171 -71c-53.333 0 -95.5 12.333 -126.5 37s-46.5 60 -46.5 106
c0 54.667 19.167 97 57.5 127s92.833 45 163.5 45h56v30c0 40.667 -20.667 61 -62 61c-42 0 -64 -21 -66 -63l-143 5c3.33301 55.333 22.833 97.833 58.5 127.5s83.5 44.5 143.5 44.5c64.667 0 114.334 -20.333 149.001 -61c34 40.667 82.333 61 145 61
c26.667 0 51.5 -4.33301 74.5 -13s44.667 -22.5 65 -41.5s36.333 -46.167 48 -81.5s17.5 -77 17.5 -125c0 -8.66699 -0.666992 -23.667 -2 -45h-280c3.33301 -68 29.333 -102 78 -102c42.667 0 66.667 21 72 63zM528.999 398c-47.333 0 -72.333 -31 -75 -93h143
c0.666992 62 -22 93 -68 93zM225.999 102c22 0 40.833 5.33301 56.5 16s23.5 28.667 23.5 54v32h-56c-54 0 -81 -18.333 -81 -55c0 -31.333 19 -47 57 -47z" />
    <glyph glyph-name="Gcaron" unicode="&#x1e6;" horiz-adv-x="788" 
d="M441 900h122l-111 -153h-123l-112 153h122l47 -73h9zM402 388h327.001v-388h-123l-14 59h-9c-50 -46 -117.667 -69 -203 -69c-101.333 0 -182.5 32.333 -243.5 97s-91.5 148.667 -91.5 252c0 108.667 33.667 197.667 101 267s154 104 260 104
c91.333 0 164.666 -22 219.999 -66s87.333 -99.667 96 -167h-169c-20.667 60.667 -69.667 91 -147 91c-61.333 0 -110.5 -21.333 -147.5 -64s-55.5 -97.334 -55.5 -164.001c0 -64 17.5 -115.333 52.5 -154s83.833 -58 146.5 -58c52 0 94 10.333 126 31s48 50.334 48 89.001
v22h-174v118z" />
    <glyph glyph-name="gcaron" unicode="&#x1e7;" horiz-adv-x="568" 
d="M345 547h-123l-112 153h122l47 -73h9l46 73h122zM553 480c-18 -19.333 -44.002 -36.667 -78.002 -52c21.333 -27.333 32 -57.666 32 -90.999c0 -52 -21 -93 -63 -123s-95.333 -45 -160 -45c-29.333 0 -56 3 -80 9c-12 -6.66699 -18 -15.667 -18 -27
c0 -22 20.667 -33 62 -33h97c60.667 0 107 -13.667 139 -41s48 -64.333 48 -111c0 -54.667 -21.667 -97.667 -65 -129s-103.333 -47 -180 -47c-78 0 -138.167 15.833 -180.5 47.5s-65.833 71.5 -70.5 119.5l72 65c-36 21.333 -54 51.666 -54 90.999c0 42 23 76 69 102
c-41.333 30 -62 70.667 -62 122c0 50 19.333 91.333 58 124s91.334 49 158.001 49c42.667 0 81.334 -7.33301 116.001 -22c36 18 65.667 42 89 72zM283.998 276.999c24.667 0 44.167 5.66699 58.5 17s21.5 26.333 21.5 45c0 20 -7 35.833 -21 47.5s-33.667 17.5 -59 17.5
s-45 -5.83301 -59 -17.5s-21 -27.5 -21 -47.5c0 -18.667 7.16699 -33.667 21.5 -45s33.833 -17 58.5 -17zM388.998 -43.001c0 30 -21.333 45 -64 45h-91l-56 -48c12 -36 48.667 -54 110 -54c29.333 0 53.5 5 72.5 15s28.5 24 28.5 42z" />
    <glyph glyph-name="uni01EA" unicode="&#x1ea;" horiz-adv-x="818" 
d="M494 -1c-41.333 -14 -62.002 -34.332 -62.002 -60.999c0 -25.333 18.667 -38 56 -38c15.333 0 31 2.33301 47 7v-79c-16.667 -6 -37.667 -9 -63 -9c-39.333 0 -70.333 8.5 -93 25.5s-34 40.5 -34 70.5c0 30.667 13.333 56 40 76
c-99.333 5.33301 -180.833 41.666 -244.5 108.999s-95.5 150.666 -95.5 249.999c0 102.667 34.5 188.334 103.5 257.001s156.167 103 261.5 103c104.667 0 191.334 -34.333 260.001 -103s103 -154.334 103 -257.001c0 -88 -25.667 -164.167 -77 -228.5
s-118.666 -105.166 -201.999 -122.499zM202.998 350.001c0 -63.333 19.5 -115.5 58.5 -156.5s88.5 -61.5 148.5 -61.5c59.333 0 108.333 20.5 147 61.5s58 93.167 58 156.5c0 62.667 -19.333 114.667 -58 156s-87.667 62 -147 62c-60 0 -109.5 -20.5 -148.5 -61.5
s-58.5 -93.167 -58.5 -156.5z" />
    <glyph glyph-name="uni01EB" unicode="&#x1eb;" horiz-adv-x="613" 
d="M379 -2c-40 -12.667 -60.001 -32.667 -60.001 -60c0 -25.333 18.667 -38 56 -38c15.333 0 31 2.33301 47 7v-79c-17.333 -6 -38.333 -9 -63 -9c-39.333 0 -70.333 8.5 -93 25.5s-34 40.5 -34 70.5c0 30.667 13.667 56.334 41 77.001
c-69.333 7.33301 -126.166 34.666 -170.499 81.999s-66.5 106.333 -66.5 177c0 76.667 25.667 139 77 187s116 72 194 72c77.333 0 141.666 -24 192.999 -72s77 -110.333 77 -187c0 -64 -18.167 -118.667 -54.5 -164s-84.166 -75 -143.499 -89zM184.999 251
c0 -37.333 11.333 -68.5 34 -93.5s52 -37.5 88 -37.5s65.167 12.5 87.5 37.5s33.5 56.167 33.5 93.5s-11.167 68.166 -33.5 92.499s-51.5 36.5 -87.5 36.5c-36.667 0 -66.167 -12.167 -88.5 -36.5s-33.5 -55.166 -33.5 -92.499z" />
    <glyph glyph-name="uni01F4" unicode="&#x1f4;" horiz-adv-x="788" 
d="M414 900h124l-91 -145h-113zM402 388h327.001v-388h-123l-14 59h-9c-50 -46 -117.667 -69 -203 -69c-101.333 0 -182.5 32.333 -243.5 97s-91.5 148.667 -91.5 252c0 108.667 33.667 197.667 101 267s154 104 260 104c91.333 0 164.666 -22 219.999 -66
s87.333 -99.667 96 -167h-169c-20.667 60.667 -69.667 91 -147 91c-61.333 0 -110.5 -21.333 -147.5 -64s-55.5 -97.334 -55.5 -164.001c0 -64 17.5 -115.333 52.5 -154s83.833 -58 146.5 -58c52 0 94 10.333 126 31s48 50.334 48 89.001v22h-174v118z" />
    <glyph glyph-name="uni01F5" unicode="&#x1f5;" horiz-adv-x="568" 
d="M431 700l-91 -145h-113l80 145h124zM553 480c-18 -19.333 -44.002 -36.667 -78.002 -52c21.333 -27.333 32 -57.666 32 -90.999c0 -52 -21 -93 -63 -123s-95.333 -45 -160 -45c-29.333 0 -56 3 -80 9c-12 -6.66699 -18 -15.667 -18 -27c0 -22 20.667 -33 62 -33h97
c60.667 0 107 -13.667 139 -41s48 -64.333 48 -111c0 -54.667 -21.667 -97.667 -65 -129s-103.333 -47 -180 -47c-78 0 -138.167 15.833 -180.5 47.5s-65.833 71.5 -70.5 119.5l72 65c-36 21.333 -54 51.666 -54 90.999c0 42 23 76 69 102c-41.333 30 -62 70.667 -62 122
c0 50 19.333 91.333 58 124s91.334 49 158.001 49c42.667 0 81.334 -7.33301 116.001 -22c36 18 65.667 42 89 72zM283.998 276.999c24.667 0 44.167 5.66699 58.5 17s21.5 26.333 21.5 45c0 20 -7 35.833 -21 47.5s-33.667 17.5 -59 17.5s-45 -5.83301 -59 -17.5
s-21 -27.5 -21 -47.5c0 -18.667 7.16699 -33.667 21.5 -45s33.833 -17 58.5 -17zM388.998 -43.001c0 30 -21.333 45 -64 45h-91l-56 -48c12 -36 48.667 -54 110 -54c29.333 0 53.5 5 72.5 15s28.5 24 28.5 42z" />
    <glyph glyph-name="uni01F8" unicode="&#x1f8;" horiz-adv-x="718" 
d="M335 900l80 -145h-112l-92 145h124zM508 700h150v-700h-155l-284 427h-9v-427h-151v700h154l286 -431h9v431z" />
    <glyph glyph-name="uni01F9" unicode="&#x1f9;" horiz-adv-x="603" 
d="M278 700l80 -145h-112l-92 145h124zM47 0l-0.000976562 499.999h137l13 -58h9c36 45.333 85.333 68 148 68s111.834 -19 147.501 -57s53.5 -90 53.5 -156v-297h-150v266c0 36.667 -9.5 64.834 -28.5 84.501s-43.5 29.5 -73.5 29.5s-55.167 -10 -75.5 -30
s-30.5 -49 -30.5 -87v-263h-150z" />
    <glyph glyph-name="AEacute" unicode="&#x1fc;" horiz-adv-x="1067" 
d="M898 900l-91 -145h-113l80 145h124zM707 134h328v-134h-478v155h-253l-103 -155h-183l458 700h549v-134h-318v-145h268v-131h-268v-156zM389 283h168v240h-9z" />
    <glyph glyph-name="aeacute" unicode="&#x1fd;" horiz-adv-x="775" 
d="M526 700l-91 -145h-113l80 145h124zM604 165h134.999c-5.33301 -56.667 -26.833 -100 -64.5 -130s-84.167 -45 -139.5 -45c-75.333 0 -129.333 23.667 -162 71c-31.333 -47.333 -88.333 -71 -171 -71c-53.333 0 -95.5 12.333 -126.5 37s-46.5 60 -46.5 106
c0 54.667 19.167 97 57.5 127s92.833 45 163.5 45h56v30c0 40.667 -20.667 61 -62 61c-42 0 -64 -21 -66 -63l-143 5c3.33301 55.333 22.833 97.833 58.5 127.5s83.5 44.5 143.5 44.5c64.667 0 114.334 -20.333 149.001 -61c34 40.667 82.333 61 145 61
c26.667 0 51.5 -4.33301 74.5 -13s44.667 -22.5 65 -41.5s36.333 -46.167 48 -81.5s17.5 -77 17.5 -125c0 -8.66699 -0.666992 -23.667 -2 -45h-280c3.33301 -68 29.333 -102 78 -102c42.667 0 66.667 21 72 63zM528.999 398c-47.333 0 -72.333 -31 -75 -93h143
c0.666992 62 -22 93 -68 93zM225.999 102c22 0 40.833 5.33301 56.5 16s23.5 28.667 23.5 54v32h-56c-54 0 -81 -18.333 -81 -55c0 -31.333 19 -47 57 -47z" />
    <glyph glyph-name="Oslashacute" unicode="&#x1fe;" horiz-adv-x="818" 
d="M556 900l-91 -145h-113l80 145h124zM674 603c66 -68 99 -152.333 99 -253c0 -102.667 -34.167 -188.334 -102.5 -257.001s-155.5 -103 -261.5 -103c-62 0 -119.667 13 -173 39l-65 -85l-90 69l63 83c-66 68 -99 152.667 -99 254c0 102.667 34.5 188.334 103.5 257.001
s156.167 103 261.5 103c62 0 119 -13 171 -39l64 85l92 -70zM195 350c0 -51.333 13 -96.333 39 -135l261 344c-26.667 11.333 -55 17 -85 17c-62.667 0 -114.167 -21.333 -154.5 -64s-60.5 -96.667 -60.5 -162zM410 124c61.333 0 112.167 21.333 152.5 64
s60.5 96.667 60.5 162c0 51.333 -13 96.333 -39 135l-262 -343c26 -12 55.333 -18 88 -18z" />
    <glyph glyph-name="oslashacute" unicode="&#x1ff;" horiz-adv-x="613" 
d="M454 700l-91 -145h-113l80 145h124zM507 431c46.667 -48 69.9971 -108.001 69.9971 -180.001c0 -77.333 -25.667 -140.166 -77 -188.499s-115.666 -72.5 -192.999 -72.5c-43.333 0 -83.666 8.33301 -120.999 25l-51 -67l-79 56l50 66c-46.667 48 -70 108.333 -70 181
c0 76.667 25.667 139 77 187s116 72 194 72c44.667 0 84.334 -8 119.001 -24l51 66l79 -57zM176.997 250.999c0 -26 5 -49 15 -69l155 200c-12.667 4 -26 6 -40 6c-38.667 0 -70 -12.833 -94 -38.5s-36 -58.5 -36 -98.5zM306.997 111.999c38.667 0 69.833 13.167 93.5 39.5
s35.5 59.5 35.5 99.5c0 26 -5 48.667 -15 68l-155 -201c13.333 -4 27 -6 41 -6z" />
    <glyph glyph-name="uni0218" unicode="&#x218;" horiz-adv-x="611" 
d="M566 196c0 -66 -24.3291 -116.836 -72.9961 -152.503s-108.334 -53.5 -179.001 -53.5c-86 0 -152 21.167 -198 63.5s-69.667 98.5 -71 168.5h152c1.33301 -31.333 12.166 -56.166 32.499 -74.499s48.5 -27.5 84.5 -27.5c28 0 51 6 69 18s27 30 27 54
c0 14.667 -3.16699 27.334 -9.5 38.001s-16.666 20 -30.999 28s-26.833 14 -37.5 18s-26.667 9.33301 -48 16l-43 12c-116.667 36 -175 102.667 -175 200c0 63.333 23 113.5 69 150.5s104.667 55.5 176 55.5c74 0 133.167 -19.5 177.5 -58.5s67.166 -89.5 68.499 -151.5
h-152c-6.66699 53.333 -37.667 80 -93 80c-26.667 0 -48.334 -6.16699 -65.001 -18.5s-25 -29.166 -25 -50.499c0 -12 2.66699 -22.5 8 -31.5s14.166 -17 26.499 -24s23.5 -12.333 33.5 -16s24 -8.5 42 -14.5l37 -11c18 -6 34 -11.833 48 -17.5s30.833 -14.5 50.5 -26.5
s36.167 -25.333 49.5 -40s24.833 -33.667 34.5 -57s14.5 -49 14.5 -77zM308.004 -46.0029c28.667 0 51.5 -10.332 68.5 -30.999s25.5 -47 25.5 -79c0 -45.333 -13.5 -84.5 -40.5 -117.5s-59.5 -59.5 -97.5 -79.5l-39 36c49.333 41.333 75 74.666 77 99.999
c-24 -0.666992 -44 6.33301 -60 21s-24 36 -24 64c0 27.333 8.5 48.5 25.5 63.5s38.5 22.5 64.5 22.5z" />
    <glyph glyph-name="uni0219" unicode="&#x219;" horiz-adv-x="510" 
d="M270 -10c-72.667 0 -128.998 15.3301 -168.998 45.9971s-61.667 73.334 -65 128.001h143c6 -42.667 36.333 -64 91 -64c41.333 0 62 13 62 39c0 14.667 -6 26 -18 34s-33 15.667 -63 23l-54 12c-20.667 4.66699 -38.5 9.83398 -53.5 15.501s-30.167 13.834 -45.5 24.501
s-27 24.667 -35 42s-12 38 -12 62c0 50 19 88.833 57 116.5s84.667 41.5 140 41.5c67.333 0 119.333 -14.667 156 -44s57 -67.333 61 -114h-144c-5.33301 32 -29.333 48 -72 48c-16.667 0 -30 -3.5 -40 -10.5s-15 -16.5 -15 -28.5c0 -8.66699 3.5 -16 10.5 -22
s14.667 -10.333 23 -13s22.166 -6.66699 41.499 -12l55 -13c49.333 -11.333 86.666 -29.333 111.999 -54s38 -59 38 -103c0 -50.667 -19 -89 -57 -115s-87 -39 -147 -39zM264.002 -46.0029c28.667 0 51.5 -10.332 68.5 -30.999s25.5 -47 25.5 -79
c0 -45.333 -13.5 -84.5 -40.5 -117.5s-59.5 -59.5 -97.5 -79.5l-39 36c49.333 41.333 75 74.666 77 99.999c-24 -0.666992 -44 6.33301 -60 21s-24 36 -24 64c0 27.333 8.5 48.5 25.5 63.5s38.5 22.5 64.5 22.5z" />
    <glyph glyph-name="uni021A" unicode="&#x21a;" horiz-adv-x="599" 
d="M27 700h545v-138h-196v-562h-154v562h-195v138zM296 -46c28.667 0 51.5 -10.332 68.5 -30.999s25.5 -47 25.5 -79c0 -45.333 -13.5 -84.5 -40.5 -117.5s-59.5 -59.5 -97.5 -79.5l-39 36c49.333 41.333 75 74.666 77 99.999c-24 -0.666992 -44 6.33301 -60 21
s-24 36 -24 64c0 27.333 8.5 48.5 25.5 63.5s38.5 22.5 64.5 22.5z" />
    <glyph glyph-name="uni021B" unicode="&#x21b;" horiz-adv-x="420" 
d="M293 -10c-114 0 -171.001 52.666 -171.001 157.999v234h-109v118h35c30.667 0 52.834 6.16699 66.501 18.5s20.5 31.833 20.5 58.5v60h137v-137h134v-118h-134v-214c0 -8 0.5 -14.667 1.5 -20s3.5 -11.666 7.5 -18.999s10.833 -12.833 20.5 -16.5s22.167 -5.5 37.5 -5.5
c13.333 0 30 2 50 6v-111c-33.333 -8 -65.333 -12 -96 -12zM251.999 -46.001c28.667 0 51.5 -10.332 68.5 -30.999s25.5 -47 25.5 -79c0 -45.333 -13.5 -84.5 -40.5 -117.5s-59.5 -59.5 -97.5 -79.5l-39 36c49.333 41.333 75 74.666 77 99.999
c-24 -0.666992 -44 6.33301 -60 21s-24 36 -24 64c0 27.333 8.5 48.5 25.5 63.5s38.5 22.5 64.5 22.5z" />
    <glyph glyph-name="uni021E" unicode="&#x21e;" horiz-adv-x="695" 
d="M394 900h122l-111 -153h-123l-112 153h122l47 -73h9zM481 700h155v-700h-155v286h-267v-286h-155v700h155v-276h267v276z" />
    <glyph glyph-name="uni0226" unicode="&#x226;" horiz-adv-x="726" 
d="M364 755c-24 0 -45.002 8.83301 -63.002 26.5s-27 38.167 -27 61.5c0 24.667 8.83301 45.5 26.5 62.5s38.834 25.5 63.501 25.5c24 0 44.5 -8.5 61.5 -25.5s25.5 -37.833 25.5 -62.5c0 -23.333 -8.66699 -43.833 -26 -61.5s-37.666 -26.5 -60.999 -26.5zM542.998 0
l-53 157h-254l-53 -157h-165l253 700h185l252 -700h-165zM277.998 283h170l-81 240h-9z" />
    <glyph glyph-name="uni0227" unicode="&#x227;" horiz-adv-x="557" 
d="M270 555c-24 0 -45.002 8.83301 -63.002 26.5s-27 38.167 -27 61.5c0 24.667 8.83301 45.5 26.5 62.5s38.834 25.5 63.501 25.5c24 0 44.5 -8.5 61.5 -25.5s25.5 -37.833 25.5 -62.5c0 -23.333 -8.66699 -43.833 -26 -61.5s-37.666 -26.5 -60.999 -26.5zM533.998 111
h11.9961v-111h-62c-54 0 -90 19.667 -108 59c-34 -46 -88.667 -69 -164 -69c-55.333 0 -99.666 12.833 -132.999 38.5s-50 62.5 -50 110.5c0 46 14.833 81.5 44.5 106.5s68.834 40.167 117.501 45.5l158 17v16c0 45.333 -24 68 -72 68c-46 0 -72.667 -21.667 -80 -65h-150
c5.33301 54.667 28.333 98.834 69 132.501s94.334 50.5 161.001 50.5c64.667 0 117.834 -16.333 159.501 -49s62.5 -82.334 62.5 -149.001v-164c0 -24.667 11.667 -37 35 -37zM348.994 193l-0.000976562 13.999l-106 -12c-42.667 -4.66699 -64 -21 -64 -49
c0 -28.667 19.667 -43 59 -43c28.667 0 54.334 7.33301 77.001 22s34 37.334 34 68.001z" />
    <glyph glyph-name="uni0228" unicode="&#x228;" horiz-adv-x="585" 
d="M553 0l-205.999 -0.000976562l-27 -43c26 1.33301 49 -5.16699 69 -19.5s30 -34.5 30 -60.5c0 -27.333 -9.66699 -48.666 -29 -63.999s-46.333 -23 -81 -23c-32.667 0 -61.334 8.66699 -86.001 26l24 56c21.333 -12.667 41.333 -19 60 -19c24 0 36 8.66699 36 26
c0 16.667 -11.333 25 -34 25c-10.667 0 -21 -1.66699 -31 -5l-48 38l36 63h-207v700h484v-134h-333v-145h283v-131h-283v-156h343v-134z" />
    <glyph glyph-name="uni0229" unicode="&#x229;" horiz-adv-x="578" 
d="M541 166c-9.33301 -50 -32.5 -90.5 -69.5 -121.5s-84.833 -48.833 -143.5 -53.5l-21 -34c26 1.33301 49 -5.16699 69 -19.5s30 -34.5 30 -60.5c0 -27.333 -9.66699 -48.666 -29 -63.999s-46.333 -23 -81 -23c-32.667 0 -61.334 8.66699 -86.001 26l24 56
c21.333 -12.667 41.333 -19 60 -19c24 0 36 8.66699 36 26c0 16.667 -11.333 25 -34 25c-10.667 0 -21 -1.66699 -31 -5l-48 38l33 57c-64.667 9.33301 -116.5 36.666 -155.5 81.999s-58.5 101.666 -58.5 168.999c0 80.667 24.833 145 74.5 193s110.834 72 183.501 72
c68.667 0 126.5 -21.667 173.5 -65s70.833 -108.666 71.5 -195.999c0 -12.667 -1 -26 -3 -40h-352c3.33301 -30 15 -54.333 35 -73s47 -28 81 -28c53.333 0 86 19.333 98 58h143zM294 392c-28.667 0 -52.499 -7.83301 -71.499 -23.5s-31.167 -35.834 -36.5 -60.501h210
c-2.66699 24.667 -13.334 44.834 -32.001 60.501s-42 23.5 -70 23.5z" />
    <glyph glyph-name="uni022E" unicode="&#x22e;" horiz-adv-x="818" 
d="M410 755c-24 0 -45.002 8.83301 -63.002 26.5s-27 38.167 -27 61.5c0 24.667 8.83301 45.5 26.5 62.5s38.834 25.5 63.501 25.5c24 0 44.5 -8.5 61.5 -25.5s25.5 -37.833 25.5 -62.5c0 -23.333 -8.66699 -43.833 -26 -61.5s-37.666 -26.5 -60.999 -26.5zM408.998 -10
c-105.333 0 -192.334 34.1689 -261.001 102.502s-103 154.166 -103 257.499c0 102.667 34.5 188.334 103.5 257.001s156.167 103 261.5 103c104.667 0 191.334 -34.333 260.001 -103s103 -154.334 103 -257.001s-34.167 -188.334 -102.5 -257.001s-155.5 -103 -261.5 -103z
M409.997 132.002c59.333 0 108.333 20.5 147 61.5s58 93.167 58 156.5c0 62.667 -19.333 114.667 -58 156s-87.667 62 -147 62c-60 0 -109.5 -20.5 -148.5 -61.5s-58.5 -93.167 -58.5 -156.5s19.5 -115.5 58.5 -156.5s88.5 -61.5 148.5 -61.5z" />
    <glyph glyph-name="uni022F" unicode="&#x22f;" horiz-adv-x="613" 
d="M307 555c-24 0 -45.002 8.83301 -63.002 26.5s-27 38.167 -27 61.5c0 24.667 8.83301 45.5 26.5 62.5s38.834 25.5 63.501 25.5c24 0 44.5 -8.5 61.5 -25.5s25.5 -37.833 25.5 -62.5c0 -23.333 -8.66699 -43.833 -26 -61.5s-37.666 -26.5 -60.999 -26.5zM306.998 -10
c-77.333 0 -141.833 24.3311 -193.5 72.998s-77.5 111.334 -77.5 188.001s25.667 139 77 187s116 72 194 72c77.333 0 141.666 -24 192.999 -72s77 -110.333 77 -187c0 -77.333 -25.667 -140.166 -77 -188.499s-115.666 -72.5 -192.999 -72.5zM306.998 119.998
c36 0 65.167 12.5 87.5 37.5s33.5 56.167 33.5 93.5s-11.167 68.166 -33.5 92.499s-51.5 36.5 -87.5 36.5c-36.667 0 -66.167 -12.167 -88.5 -36.5s-33.5 -55.166 -33.5 -92.499s11.333 -68.5 34 -93.5s52 -37.5 88 -37.5z" />
    <glyph glyph-name="uni0232" unicode="&#x232;" horiz-adv-x="694" 
d="M174 862h347v-99h-347v99zM493 700h183l-251 -402v-298h-155v298l-252 402h182l142 -234h9z" />
    <glyph glyph-name="uni0233" unicode="&#x233;" horiz-adv-x="589" 
d="M122 662h347v-99h-347v99zM163 -210c-28.667 0 -57.333 4 -86 12l-1 109c18.667 -4 35.667 -6 51 -6c56.667 0 94 21.333 112 64l12 31h-46l-191 500h155l126 -348h9l117 348h154l-197 -553c-35.333 -104.667 -107 -157 -215 -157z" />
    <glyph glyph-name="uni0237" unicode="&#x237;" horiz-adv-x="245" 
d="M24 -210c-30.667 0 -62.668 4.00098 -96.001 12.001v109c16.667 -3.33301 33.334 -5 50.001 -5c20 0 35.5 3.66699 46.5 11s17.5 14.666 19.5 21.999s3 16.333 3 27v534h150v-552c0 -105.333 -57.667 -158 -173 -158z" />
    <glyph glyph-name="circumflex" unicode="&#x2c6;" horiz-adv-x="464" 
d="M181 547h-122l111 153h123l112 -153h-122l-47 73h-9z" />
    <glyph glyph-name="caron" unicode="&#x2c7;" horiz-adv-x="464" 
d="M283 700h122l-111 -153h-123l-112 153h122l47 -73h9z" />
    <glyph glyph-name="breve" unicode="&#x2d8;" horiz-adv-x="429" 
d="M369 700c0 -39.333 -15 -71.833 -45 -97.5s-66.333 -38.5 -109 -38.5s-79.334 12.833 -110.001 38.5s-46 58.167 -46 97.5h109c0 -14 4.33301 -25.833 13 -35.5s20.334 -14.5 35.001 -14.5c14 0 25.167 4.83301 33.5 14.5s12.5 21.5 12.5 35.5h107z" />
    <glyph glyph-name="dotaccent" unicode="&#x2d9;" horiz-adv-x="295" 
d="M149 555c-24 0 -45.001 8.83301 -63.001 26.5s-27 38.167 -27 61.5c0 24.667 8.83301 45.5 26.5 62.5s38.834 25.5 63.501 25.5c24 0 44.5 -8.5 61.5 -25.5s25.5 -37.833 25.5 -62.5c0 -23.333 -8.5 -43.833 -25.5 -61.5s-37.5 -26.5 -61.5 -26.5z" />
    <glyph glyph-name="ring" unicode="&#x2da;" horiz-adv-x="328" 
d="M163 529c-28.667 0 -53.167 10 -73.5 30s-30.5 44 -30.5 72c0 27.333 10.167 51 30.5 71s44.833 30 73.5 30s53.5 -10 74.5 -30s31.5 -43.667 31.5 -71c0 -28 -10.333 -52 -31 -72s-45.667 -30 -75 -30zM165 606c6.66699 0 12.5 2.5 17.5 7.5s7.5 10.833 7.5 17.5
c0 6 -2.5 11.5 -7.5 16.5s-10.833 7.5 -17.5 7.5c-7.33301 0 -13.5 -2.5 -18.5 -7.5s-7.5 -10.5 -7.5 -16.5c0 -7.33301 2.33301 -13.333 7 -18s11 -7 19 -7z" />
    <glyph glyph-name="ogonek" unicode="&#x2db;" horiz-adv-x="309" 
d="M174 29l38 -28.998c-43.333 -12.667 -65 -33.334 -65 -62.001c0 -25.333 18.667 -38 56 -38c14 0 29.667 2.33301 47 7v-79c-16.667 -6 -37.667 -9 -63 -9c-40 0 -71.333 8.5 -94 25.5s-34 40.5 -34 70.5c0 29.333 10.167 52.166 30.5 68.499s48.5 31.5 84.5 45.5z" />
    <glyph glyph-name="tilde" unicode="&#x2dc;" horiz-adv-x="522" 
d="M462 685c-2 -42.667 -13.498 -78.333 -34.498 -107s-50.167 -43 -87.5 -43c-23.333 0 -43.833 5.16699 -61.5 15.5s-32.667 20.5 -45 30.5s-24.166 15 -35.499 15c-24.667 0 -38.334 -17 -41.001 -51h-98c2.66699 44 14.5 80.167 35.5 108.5s50.5 42.5 88.5 42.5
c25.333 0 46.666 -5 63.999 -15s31.666 -20.167 42.999 -30.5s22.666 -15.5 33.999 -15.5c24.667 0 38.334 16.667 41.001 50h97z" />
    <glyph glyph-name="hungarumlaut" unicode="&#x2dd;" horiz-adv-x="492" 
d="M120 700h121l-67 -145h-115zM311 700h121l-67 -145h-115z" />
    <glyph glyph-name="uni1E02" unicode="&#x1e02;" horiz-adv-x="629" 
d="M315 755c-24 0 -45.002 8.83301 -63.002 26.5s-27 38.167 -27 61.5c0 24.667 8.83301 45.5 26.5 62.5s38.834 25.5 63.501 25.5c24 0 44.5 -8.5 61.5 -25.5s25.5 -37.833 25.5 -62.5c0 -23.333 -8.66699 -43.833 -26 -61.5s-37.666 -26.5 -60.999 -26.5zM475.998 370
c30.667 -9.33301 58 -28.5 82 -57.5s36 -67.833 36 -116.5c0 -62 -20.667 -110.167 -62 -144.5s-98.333 -51.5 -171 -51.5h-302v700h305c68.667 0 120.5 -16 155.5 -48s52.5 -74.333 52.5 -127c0 -68 -32 -117.333 -96 -148v-7zM209.998 578v-157h129
c25.333 0 44.833 7 58.5 21s20.5 33 20.5 57s-7 43.167 -21 57.5s-32.333 21.5 -55 21.5h-132zM345.998 122c29.333 0 51.5 8.16797 66.5 24.501s22.5 37.166 22.5 62.499c0 26 -7.83301 47.5 -23.5 64.5s-37.5 25.5 -65.5 25.5h-136v-177h136z" />
    <glyph glyph-name="uni1E03" unicode="&#x1e03;" 
d="M121 756c-24 0 -45.002 8.83301 -63.002 26.5s-27 38.167 -27 61.5c0 24.667 8.83301 45.5 26.5 62.5s38.834 25.5 63.501 25.5c24 0 44.5 -8.5 61.5 -25.5s25.5 -37.833 25.5 -62.5c0 -23.333 -8.66699 -43.833 -26 -61.5s-37.666 -26.5 -60.999 -26.5zM333.998 510
c67.333 0 123.832 -23.166 169.499 -69.499s68.5 -109.5 68.5 -189.5c0 -78.667 -22.5 -141.834 -67.5 -189.501s-101.833 -71.5 -170.5 -71.5c-62 0 -109.667 20.667 -143 62h-9l-13 -52h-122v710h150v-247c34.667 31.333 80.334 47 137.001 47zM308.997 120.001
c33.333 0 60.5 12 81.5 36s31.5 55.667 31.5 95c0 38.667 -10.333 69.834 -31 93.501s-48 35.5 -82 35.5s-61.167 -11.833 -81.5 -35.5s-30.5 -54.834 -30.5 -93.501c0 -39.333 10.167 -71 30.5 -95s47.5 -36 81.5 -36z" />
    <glyph glyph-name="uni1E0A" unicode="&#x1e0a;" horiz-adv-x="709" 
d="M345 755c-24 0 -45.002 8.83301 -63.002 26.5s-27 38.167 -27 61.5c0 24.667 8.83301 45.5 26.5 62.5s38.834 25.5 63.501 25.5c24 0 44.5 -8.5 61.5 -25.5s25.5 -37.833 25.5 -62.5c0 -23.333 -8.66699 -43.833 -26 -61.5s-37.666 -26.5 -60.999 -26.5zM319.998 700
c105.333 0 189.168 -30.834 251.501 -92.501s93.5 -147.167 93.5 -256.5s-31.333 -195.166 -94 -257.499s-146.334 -93.5 -251.001 -93.5h-261v700h261zM315 137.999c62.667 0 110.167 19.666 142.5 58.999s48.5 92 48.5 158c0 64.667 -16.167 115.334 -48.5 152.001
s-79.833 55 -142.5 55h-101v-424h101z" />
    <glyph glyph-name="uni1E0B" unicode="&#x1e0b;" 
d="M488 756c-24 0 -45.002 8.83301 -63.002 26.5s-27 38.167 -27 61.5c0 24.667 8.83301 45.5 26.5 62.5s38.834 25.5 63.501 25.5c24 0 44.5 -8.5 61.5 -25.5s25.5 -37.833 25.5 -62.5c0 -23.333 -8.66699 -43.833 -26 -61.5s-37.666 -26.5 -60.999 -26.5zM409.998 463
v246.999h150v-710h-122l-13 52h-9c-33.333 -41.333 -81 -62 -143 -62c-68 0 -124.5 23.833 -169.5 71.5s-67.5 110.834 -67.5 189.501c0 80 22.667 143.167 68 189.5s101.666 69.5 168.999 69.5c56.667 0 102.334 -15.667 137.001 -47zM297.998 119.999
c34 0 61.167 12 81.5 36s30.5 55.667 30.5 95c0 38.667 -10.167 69.834 -30.5 93.501s-47.5 35.5 -81.5 35.5c-33.333 0 -60.333 -11.833 -81 -35.5s-31 -54.834 -31 -93.501c0 -39.333 10.333 -71 31 -95s47.667 -36 81 -36z" />
    <glyph glyph-name="uni1E10" unicode="&#x1e10;" horiz-adv-x="709" 
d="M320 700c105.333 0 189.168 -30.834 251.501 -92.501s93.5 -147.167 93.5 -256.5s-31.333 -195.166 -94 -257.499s-146.334 -93.5 -251.001 -93.5h-261v700h261zM315.002 137.999c62.667 0 110.167 19.666 142.5 58.999s48.5 92 48.5 158
c0 64.667 -16.167 115.334 -48.5 152.001s-79.833 55 -142.5 55h-101v-424h101zM341.002 -46.002c28.667 0 51.5 -10.332 68.5 -30.999s25.5 -47 25.5 -79c0 -45.333 -13.5 -84.5 -40.5 -117.5s-59.5 -59.5 -97.5 -79.5l-39 36c49.333 41.333 75 74.666 77 99.999
c-24 -0.666992 -44 6.33301 -60 21s-24 36 -24 64c0 27.333 8.5 48.5 25.5 63.5s38.5 22.5 64.5 22.5z" />
    <glyph glyph-name="uni1E11" unicode="&#x1e11;" 
d="M410 710l150 -0.000976562v-710h-122l-13 52h-9c-33.333 -41.333 -81 -62 -143 -62c-68 0 -124.5 23.833 -169.5 71.5s-67.5 110.834 -67.5 189.501c0 80 22.667 143.167 68 189.5s101.666 69.5 168.999 69.5c56.667 0 102.334 -15.667 137.001 -47v247zM298 119.999
c34 0 61.167 12 81.5 36s30.5 55.667 30.5 95c0 38.667 -10.167 69.834 -30.5 93.501s-47.5 35.5 -81.5 35.5c-33.333 0 -60.333 -11.833 -81 -35.5s-31 -54.834 -31 -93.501c0 -39.333 10.333 -71 31 -95s47.667 -36 81 -36zM300 -46.001
c28.667 0 51.5 -10.332 68.5 -30.999s25.5 -47 25.5 -79c0 -45.333 -13.5 -84.5 -40.5 -117.5s-59.5 -59.5 -97.5 -79.5l-39 36c49.333 41.333 75 74.666 77 99.999c-24 -0.666992 -44 6.33301 -60 21s-24 36 -24 64c0 27.333 8.5 48.5 25.5 63.5s38.5 22.5 64.5 22.5z" />
    <glyph glyph-name="uni1E1E" unicode="&#x1e1e;" horiz-adv-x="579" 
d="M307 755c-24 0 -45.002 8.83301 -63.002 26.5s-27 38.167 -27 61.5c0 24.667 8.83301 45.5 26.5 62.5s38.834 25.5 63.501 25.5c24 0 44.5 -8.5 61.5 -25.5s25.5 -37.833 25.5 -62.5c0 -23.333 -8.66699 -43.833 -26 -61.5s-37.666 -26.5 -60.999 -26.5zM552.998 558
h-339v-161h292v-134h-292v-263h-155v700h494v-142z" />
    <glyph glyph-name="uni1E1F" unicode="&#x1e1f;" horiz-adv-x="424" 
d="M267 755c-24 0 -45.002 8.83301 -63.002 26.5s-27 38.167 -27 61.5c0 24.667 8.83301 45.5 26.5 62.5s38.834 25.5 63.501 25.5c24 0 44.5 -8.5 61.5 -25.5s25.5 -37.833 25.5 -62.5c0 -23.333 -8.66699 -43.833 -26 -61.5s-37.666 -26.5 -60.999 -26.5zM270.998 533v-33
h132v-118h-132v-382h-150v382h-108v118h108v38c0 56 16.667 98.667 50 128s78 44 134 44c34.667 0 69.334 -6 104.001 -18l-24 -108c-16.667 4.66699 -34.334 7 -53.001 7c-40.667 0 -61 -19.333 -61 -58z" />
    <glyph glyph-name="uni1E20" unicode="&#x1e20;" horiz-adv-x="788" 
d="M218 862h347v-99h-347v99zM402 388h327.001v-388h-123l-14 59h-9c-50 -46 -117.667 -69 -203 -69c-101.333 0 -182.5 32.333 -243.5 97s-91.5 148.667 -91.5 252c0 108.667 33.667 197.667 101 267s154 104 260 104c91.333 0 164.666 -22 219.999 -66
s87.333 -99.667 96 -167h-169c-20.667 60.667 -69.667 91 -147 91c-61.333 0 -110.5 -21.333 -147.5 -64s-55.5 -97.334 -55.5 -164.001c0 -64 17.5 -115.333 52.5 -154s83.833 -58 146.5 -58c52 0 94 10.333 126 31s48 50.334 48 89.001v22h-174v118z" />
    <glyph glyph-name="uni1E22" unicode="&#x1e22;" horiz-adv-x="695" 
d="M345 755c-24 0 -45.002 8.83301 -63.002 26.5s-27 38.167 -27 61.5c0 24.667 8.83301 45.5 26.5 62.5s38.834 25.5 63.501 25.5c24 0 44.5 -8.5 61.5 -25.5s25.5 -37.833 25.5 -62.5c0 -23.333 -8.66699 -43.833 -26 -61.5s-37.666 -26.5 -60.999 -26.5zM480.998 700h155
v-700h-155v286h-267v-286h-155v700h155v-276h267v276z" />
    <glyph glyph-name="uni1E23" unicode="&#x1e23;" horiz-adv-x="603" 
d="M126 755c-24 0 -45.002 8.83301 -63.002 26.5s-27 38.167 -27 61.5c0 24.667 8.83301 45.5 26.5 62.5s38.834 25.5 63.501 25.5c24 0 44.5 -8.5 61.5 -25.5s25.5 -37.833 25.5 -62.5c0 -23.333 -8.66699 -43.833 -26 -61.5s-37.666 -26.5 -60.999 -26.5zM353.998 510
c62.667 0 111.833 -19.001 147.5 -57.001s53.5 -90 53.5 -156v-297h-150v266c0 36.667 -9.5 64.834 -28.5 84.501s-43.5 29.5 -73.5 29.5s-55.167 -10 -75.5 -30s-30.5 -49 -30.5 -87v-263h-150v710h150v-268h9c36 45.333 85.333 68 148 68z" />
    <glyph glyph-name="uni1E26" unicode="&#x1e26;" horiz-adv-x="695" 
d="M224 748c-24 0 -44.5 8.33301 -61.5 25s-25.5 36.667 -25.5 60c0 24 8.5 44.167 25.5 60.5s37.5 24.5 61.5 24.5c22.667 0 42.334 -8.16699 59.001 -24.5s25 -36.5 25 -60.5c0 -23.333 -8.33301 -43.333 -25 -60s-36.334 -25 -59.001 -25zM465 748
c-22.667 0 -42.334 8.33301 -59.001 25s-25 36.667 -25 60c0 24 8.33301 44.167 25 60.5s36.334 24.5 59.001 24.5c24 0 44.333 -8.16699 61 -24.5s25 -36.5 25 -60.5c0 -23.333 -8.33301 -43.333 -25 -60s-37 -25 -61 -25zM481 700h155v-700h-155v286h-267v-286h-155v700
h155v-276h267v276z" />
    <glyph glyph-name="uni1E27" unicode="&#x1e27;" horiz-adv-x="603" 
d="M22 738c-21.333 0 -39.666 7.66699 -54.999 23s-23 33.666 -23 54.999s7.66699 39.333 23 54s33.666 22 54.999 22s39.5 -7.33301 54.5 -22s22.5 -32.667 22.5 -54s-7.66699 -39.666 -23 -54.999s-33.333 -23 -54 -23zM230 738c-20.667 0 -38.667 7.83105 -54 23.498
s-23 33.834 -23 54.501c0 21.333 7.66699 39.333 23 54s33.333 22 54 22c21.333 0 39.5 -7.33301 54.5 -22s22.5 -32.667 22.5 -54s-7.5 -39.666 -22.5 -54.999s-33.167 -23 -54.5 -23zM354 509.998c62.667 0 111.833 -19.001 147.5 -57.001s53.5 -90 53.5 -156v-297h-150
v266c0 36.667 -9.5 64.834 -28.5 84.501s-43.5 29.5 -73.5 29.5s-55.167 -10 -75.5 -30s-30.5 -49 -30.5 -87v-263h-150v710h150v-268h9c36 45.333 85.333 68 148 68z" />
    <glyph glyph-name="uni1E28" unicode="&#x1e28;" horiz-adv-x="695" 
d="M481 700l155.001 -0.000976562v-700h-155v286h-267v-286h-38l-27 -43c26 1.33301 49 -5.16699 69 -19.5s30 -34.5 30 -60.5c0 -27.333 -9.66699 -48.666 -29 -63.999s-46.333 -23 -81 -23c-32.667 0 -61.334 8.66699 -86.001 26l24 56c21.333 -12.667 41.333 -19 60 -19
c24 0 36 8.66699 36 26c0 16.667 -11.333 25 -34 25c-10.667 0 -21 -1.66699 -31 -5l-48 38l36 63h-36v700h155v-276h267v276z" />
    <glyph glyph-name="uni1E29" unicode="&#x1e29;" horiz-adv-x="603" 
d="M354 510c62.667 0 111.834 -19.002 147.501 -57.002s53.5 -90 53.5 -156v-297h-150v266c0 36.667 -9.5 64.834 -28.5 84.501s-43.5 29.5 -73.5 29.5s-55.167 -10 -75.5 -30s-30.5 -49 -30.5 -87v-263h-31l-27 -43c26 1.33301 49 -5.16699 69 -19.5s30 -34.5 30 -60.5
c0 -27.333 -9.66699 -48.666 -29 -63.999s-46.333 -23 -81 -23c-32.667 0 -61.334 8.66699 -86.001 26l24 56c21.333 -12.667 41.333 -19 60 -19c24 0 36 8.66699 36 26c0 16.667 -11.333 25 -34 25c-10.667 0 -21 -1.66699 -31 -5l-48 38l36 63h-38v710h150v-268h9
c36 45.333 85.333 68 148 68z" />
    <glyph glyph-name="uni1E40" unicode="&#x1e40;" horiz-adv-x="903" 
d="M452 755c-24 0 -45.002 8.83301 -63.002 26.5s-27 38.167 -27 61.5c0 24.667 8.83301 45.5 26.5 62.5s38.834 25.5 63.501 25.5c24 0 44.5 -8.5 61.5 -25.5s25.5 -37.833 25.5 -62.5c0 -23.333 -8.66699 -43.833 -26 -61.5s-37.666 -26.5 -60.999 -26.5zM842.998 700
v-700h-150v425h-9l-156 -345h-153l-156 345h-9v-425h-151v700h187l202 -455h9l200 455h186z" />
    <glyph glyph-name="uni1E41" unicode="&#x1e41;" horiz-adv-x="857" 
d="M430 555c-24 0 -45.002 8.83301 -63.002 26.5s-27 38.167 -27 61.5c0 24.667 8.83301 45.5 26.5 62.5s38.834 25.5 63.501 25.5c24 0 44.5 -8.5 61.5 -25.5s25.5 -37.833 25.5 -62.5c0 -23.333 -8.66699 -43.833 -26 -61.5s-37.666 -26.5 -60.999 -26.5zM46.998 0
l0.000976562 500h137l13 -58h9c34 45.333 80 68 138 68c60 0 102.667 -25 128 -75h9c36.667 50 88.667 75 156 75c54.667 0 97.167 -16 127.5 -48s45.5 -78.333 45.5 -139v-323h-150v295c0 27.333 -7.33301 48.333 -22 63s-33.334 22 -56.001 22c-24 0 -43.167 -8 -57.5 -24
s-21.5 -37.667 -21.5 -65v-291h-150v293c0 28 -7 49.667 -21 65s-32.333 23 -55 23c-22 0 -40.833 -8 -56.5 -24s-23.5 -38 -23.5 -66v-291h-150z" />
    <glyph glyph-name="uni1E44" unicode="&#x1e44;" horiz-adv-x="718" 
d="M359 755c-24 0 -45.002 8.83301 -63.002 26.5s-27 38.167 -27 61.5c0 24.667 8.83301 45.5 26.5 62.5s38.834 25.5 63.501 25.5c24 0 44.5 -8.5 61.5 -25.5s25.5 -37.833 25.5 -62.5c0 -23.333 -8.66699 -43.833 -26 -61.5s-37.666 -26.5 -60.999 -26.5zM507.998 700h150
v-700h-155l-284 427h-9v-427h-151v700h154l286 -431h9v431z" />
    <glyph glyph-name="uni1E45" unicode="&#x1e45;" horiz-adv-x="603" 
d="M302 555c-24 0 -45.002 8.83301 -63.002 26.5s-27 38.167 -27 61.5c0 24.667 8.83301 45.5 26.5 62.5s38.834 25.5 63.501 25.5c24 0 44.5 -8.5 61.5 -25.5s25.5 -37.833 25.5 -62.5c0 -23.333 -8.66699 -43.833 -26 -61.5s-37.666 -26.5 -60.999 -26.5zM46.998 0
l-0.000976562 499.999h137l13 -58h9c36 45.333 85.333 68 148 68s111.834 -19 147.501 -57s53.5 -90 53.5 -156v-297h-150v266c0 36.667 -9.5 64.834 -28.5 84.501s-43.5 29.5 -73.5 29.5s-55.167 -10 -75.5 -30s-30.5 -49 -30.5 -87v-263h-150z" />
    <glyph glyph-name="uni1E56" unicode="&#x1e56;" horiz-adv-x="640" 
d="M320 755c-24 0 -45.002 8.83301 -63.002 26.5s-27 38.167 -27 61.5c0 24.667 8.83301 45.5 26.5 62.5s38.834 25.5 63.501 25.5c24 0 44.5 -8.5 61.5 -25.5s25.5 -37.833 25.5 -62.5c0 -23.333 -8.66699 -43.833 -26 -61.5s-37.666 -26.5 -60.999 -26.5zM352.998 700
c74 0 132.833 -21.168 176.5 -63.501s65.5 -97.166 65.5 -164.499c0 -68.667 -22.167 -124 -66.5 -166s-103.833 -63 -178.5 -63h-141v-243h-150v700h294zM333.998 376.999c34 0 59.5 8.5 76.5 25.5s25.5 40.167 25.5 69.5c0 28 -8.83301 50.667 -26.5 68
s-42.167 26 -73.5 26h-127v-189h125z" />
    <glyph glyph-name="uni1E57" unicode="&#x1e57;" 
d="M305 555c-24 0 -45.002 8.83301 -63.002 26.5s-27 38.167 -27 61.5c0 24.667 8.83301 45.5 26.5 62.5s38.834 25.5 63.501 25.5c24 0 44.5 -8.5 61.5 -25.5s25.5 -37.833 25.5 -62.5c0 -23.333 -8.66699 -43.833 -26 -61.5s-37.666 -26.5 -60.999 -26.5zM333.998 510
c68.667 0 125.501 -23.832 170.501 -71.499s67.5 -110.834 67.5 -189.501c0 -80 -22.833 -143.167 -68.5 -189.5s-102.167 -69.5 -169.5 -69.5c-56.667 0 -102.334 15.667 -137.001 47v-237h-150v700h122l13 -52h9c33.333 41.333 81 62 143 62zM308.999 120.001
c34 0 61.333 11.833 82 35.5s31 54.834 31 93.501c0 39.333 -10.5 71 -31.5 95s-48.167 36 -81.5 36c-34 0 -61.167 -12 -81.5 -36s-30.5 -55.667 -30.5 -95c0 -38.667 10.167 -69.834 30.5 -93.501s47.5 -35.5 81.5 -35.5z" />
    <glyph glyph-name="uni1E58" unicode="&#x1e58;" horiz-adv-x="632" 
d="M320 755c-24 0 -45.002 8.83301 -63.002 26.5s-27 38.167 -27 61.5c0 24.667 8.83301 45.5 26.5 62.5s38.834 25.5 63.501 25.5c24 0 44.5 -8.5 61.5 -25.5s25.5 -37.833 25.5 -62.5c0 -23.333 -8.66699 -43.833 -26 -61.5s-37.666 -26.5 -60.999 -26.5zM604.998 0
l-162 0.000976562l-132 261h-101v-261h-151v700h294c70 0 125.667 -19.333 167 -58s62 -89.334 62 -152.001c0 -46 -11.167 -86 -33.5 -120s-53.5 -60 -93.5 -78zM209.998 570.001v-179h125c28 0 50.333 8.5 67 25.5s25 38.5 25 64.5c0 26.667 -8.16699 48.167 -24.5 64.5
s-38.833 24.5 -67.5 24.5h-125z" />
    <glyph glyph-name="uni1E59" unicode="&#x1e59;" horiz-adv-x="411" 
d="M223 555c-24 0 -45.002 8.83301 -63.002 26.5s-27 38.167 -27 61.5c0 24.667 8.83301 45.5 26.5 62.5s38.834 25.5 63.501 25.5c24 0 44.5 -8.5 61.5 -25.5s25.5 -37.833 25.5 -62.5c0 -23.333 -8.66699 -43.833 -26 -61.5s-37.666 -26.5 -60.999 -26.5zM46.998 0
l-0.000976562 499.999h137l13 -71h9c18.667 28.667 38.834 49.334 60.501 62.001s52.5 19 92.5 19h39v-150c-16 3.33301 -35.667 5 -59 5c-94.667 0 -142 -49.333 -142 -148v-217h-150z" />
    <glyph glyph-name="uni1E60" unicode="&#x1e60;" horiz-adv-x="611" 
d="M312 755c-24 0 -45.002 8.83301 -63.002 26.5s-27 38.167 -27 61.5c0 24.667 8.83301 45.5 26.5 62.5s38.834 25.5 63.501 25.5c24 0 44.5 -8.5 61.5 -25.5s25.5 -37.833 25.5 -62.5c0 -23.333 -8.66699 -43.833 -26 -61.5s-37.666 -26.5 -60.999 -26.5zM565.998 196
c0 -66 -24.3291 -116.836 -72.9961 -152.503s-108.334 -53.5 -179.001 -53.5c-86 0 -152 21.167 -198 63.5s-69.667 98.5 -71 168.5h152c1.33301 -31.333 12.166 -56.166 32.499 -74.499s48.5 -27.5 84.5 -27.5c28 0 51 6 69 18s27 30 27 54
c0 14.667 -3.16699 27.334 -9.5 38.001s-16.666 20 -30.999 28s-26.833 14 -37.5 18s-26.667 9.33301 -48 16l-43 12c-116.667 36 -175 102.667 -175 200c0 63.333 23 113.5 69 150.5s104.667 55.5 176 55.5c74 0 133.167 -19.5 177.5 -58.5s67.166 -89.5 68.499 -151.5
h-152c-6.66699 53.333 -37.667 80 -93 80c-26.667 0 -48.334 -6.16699 -65.001 -18.5s-25 -29.166 -25 -50.499c0 -12 2.66699 -22.5 8 -31.5s14.166 -17 26.499 -24s23.5 -12.333 33.5 -16s24 -8.5 42 -14.5l37 -11c18 -6 34 -11.833 48 -17.5s30.833 -14.5 50.5 -26.5
s36.167 -25.333 49.5 -40s24.833 -33.667 34.5 -57s14.5 -49 14.5 -77z" />
    <glyph glyph-name="uni1E61" unicode="&#x1e61;" horiz-adv-x="510" 
d="M248 555c-24 0 -45.002 8.83301 -63.002 26.5s-27 38.167 -27 61.5c0 24.667 8.83301 45.5 26.5 62.5s38.834 25.5 63.501 25.5c24 0 44.5 -8.5 61.5 -25.5s25.5 -37.833 25.5 -62.5c0 -23.333 -8.66699 -43.833 -26 -61.5s-37.666 -26.5 -60.999 -26.5zM269.998 -10
c-72.667 0 -128.998 15.3301 -168.998 45.9971s-61.667 73.334 -65 128.001h143c6 -42.667 36.333 -64 91 -64c41.333 0 62 13 62 39c0 14.667 -6 26 -18 34s-33 15.667 -63 23l-54 12c-20.667 4.66699 -38.5 9.83398 -53.5 15.501s-30.167 13.834 -45.5 24.501
s-27 24.667 -35 42s-12 38 -12 62c0 50 19 88.833 57 116.5s84.667 41.5 140 41.5c67.333 0 119.333 -14.667 156 -44s57 -67.333 61 -114h-144c-5.33301 32 -29.333 48 -72 48c-16.667 0 -30 -3.5 -40 -10.5s-15 -16.5 -15 -28.5c0 -8.66699 3.5 -16 10.5 -22
s14.667 -10.333 23 -13s22.166 -6.66699 41.499 -12l55 -13c49.333 -11.333 86.666 -29.333 111.999 -54s38 -59 38 -103c0 -50.667 -19 -89 -57 -115s-87 -39 -147 -39z" />
    <glyph glyph-name="uni1E7C" unicode="&#x1e7c;" horiz-adv-x="690" 
d="M547 885c-2 -42.667 -13.5 -78.333 -34.5 -107s-50.167 -43 -87.5 -43c-24 0 -44.833 5.16699 -62.5 15.5s-32.667 20.5 -45 30.5s-23.833 15 -34.5 15c-24 0 -38 -17 -42 -51h-97c2.66699 44 14.5 80.167 35.5 108.5s50.5 42.5 88.5 42.5c20 0 37.667 -3.16699 53 -9.5
s26.833 -13.333 34.5 -21s16.167 -14.667 25.5 -21s18.666 -9.5 27.999 -9.5c24.667 0 38.334 16.667 41.001 50h97zM507 700.001h165l-234 -700h-185l-235 700h166l158 -492h9z" />
    <glyph glyph-name="uni1E7D" unicode="&#x1e7d;" horiz-adv-x="589" 
d="M496 685c-2 -42.667 -13.5 -78.333 -34.5 -107s-50.167 -43 -87.5 -43c-24 0 -44.833 5.16699 -62.5 15.5s-32.667 20.5 -45 30.5s-23.833 15 -34.5 15c-24 0 -38 -17 -42 -51h-97c2.66699 44 14.5 80.167 35.5 108.5s50.5 42.5 88.5 42.5c20 0 37.667 -3.16699 53 -9.5
s26.833 -13.333 34.5 -21s16.167 -14.667 25.5 -21s18.666 -9.5 27.999 -9.5c24.667 0 38.334 16.667 41.001 50h97zM206 0.000976562l-192 500h155l123 -344h9l120 344h154l-192 -500h-177z" />
    <glyph glyph-name="Wgrave" unicode="&#x1e80;" horiz-adv-x="935" 
d="M444 900l80 -145h-112l-92 145h124zM768 700h149l-150 -700h-169l-126 451h-9l-126 -451h-169l-150 700h149l93 -470h9l118 420h161l117 -420h9z" />
    <glyph glyph-name="wgrave" unicode="&#x1e81;" horiz-adv-x="805" 
d="M379 700l80 -145h-112l-92 145h124zM152 0l-138 500h139l80 -330h9l85 300h152l86 -300h9l78 330h139l-139 -500h-161l-84 303h-9l-85 -303h-161z" />
    <glyph glyph-name="Wacute" unicode="&#x1e82;" horiz-adv-x="935" 
d="M491 900h124l-91 -145h-113zM768 700h149l-150 -700h-169l-126 451h-9l-126 -451h-169l-150 700h149l93 -470h9l118 420h161l117 -420h9z" />
    <glyph glyph-name="wacute" unicode="&#x1e83;" horiz-adv-x="805" 
d="M426 700h124l-91 -145h-113zM152 0l-138 500h139l80 -330h9l85 300h152l86 -300h9l78 330h139l-139 -500h-161l-84 303h-9l-85 -303h-161z" />
    <glyph glyph-name="Wdieresis" unicode="&#x1e84;" horiz-adv-x="935" 
d="M348 748c-24 0 -44.5 8.33301 -61.5 25s-25.5 36.667 -25.5 60c0 24 8.5 44.167 25.5 60.5s37.5 24.5 61.5 24.5c22.667 0 42.334 -8.16699 59.001 -24.5s25 -36.5 25 -60.5c0 -23.333 -8.33301 -43.333 -25 -60s-36.334 -25 -59.001 -25zM589 748
c-22.667 0 -42.334 8.33301 -59.001 25s-25 36.667 -25 60c0 24 8.33301 44.167 25 60.5s36.334 24.5 59.001 24.5c24 0 44.333 -8.16699 61 -24.5s25 -36.5 25 -60.5c0 -23.333 -8.33301 -43.333 -25 -60s-37 -25 -61 -25zM768 700h149l-150 -700h-169l-126 451h-9
l-126 -451h-169l-150 700h149l93 -470h9l118 420h161l117 -420h9z" />
    <glyph glyph-name="wdieresis" unicode="&#x1e85;" horiz-adv-x="805" 
d="M299 538c-21.333 0 -39.666 7.66699 -54.999 23s-23 33.666 -23 54.999s7.66699 39.333 23 54s33.666 22 54.999 22s39.5 -7.33301 54.5 -22s22.5 -32.667 22.5 -54s-7.66699 -39.666 -23 -54.999s-33.333 -23 -54 -23zM507 538c-20.667 0 -38.667 7.83105 -54 23.498
s-23 33.834 -23 54.501c0 21.333 7.66699 39.333 23 54s33.333 22 54 22c21.333 0 39.5 -7.33301 54.5 -22s22.5 -32.667 22.5 -54s-7.5 -39.666 -22.5 -54.999s-33.167 -23 -54.5 -23zM152 -0.00195312l-138 500h139l80 -330h9l85 300h152l86 -300h9l78 330h139l-139 -500
h-161l-84 303h-9l-85 -303h-161z" />
    <glyph glyph-name="uni1E8C" unicode="&#x1e8c;" horiz-adv-x="693" 
d="M227 748c-24 0 -44.5 8.33301 -61.5 25s-25.5 36.667 -25.5 60c0 24 8.5 44.167 25.5 60.5s37.5 24.5 61.5 24.5c22.667 0 42.334 -8.16699 59.001 -24.5s25 -36.5 25 -60.5c0 -23.333 -8.33301 -43.333 -25 -60s-36.334 -25 -59.001 -25zM468 748
c-22.667 0 -42.334 8.33301 -59.001 25s-25 36.667 -25 60c0 24 8.33301 44.167 25 60.5s36.334 24.5 59.001 24.5c24 0 44.333 -8.16699 61 -24.5s25 -36.5 25 -60.5c0 -23.333 -8.33301 -43.333 -25 -60s-37 -25 -61 -25zM496 0l-141 235h-9l-142 -235h-186l225 361
l-213 339h184l132 -215h9l132 215h176l-214 -339l226 -361h-179z" />
    <glyph glyph-name="uni1E8D" unicode="&#x1e8d;" horiz-adv-x="566" 
d="M180 538c-21.333 0 -39.666 7.66699 -54.999 23s-23 33.666 -23 54.999s7.66699 39.333 23 54s33.666 22 54.999 22s39.5 -7.33301 54.5 -22s22.5 -32.667 22.5 -54s-7.66699 -39.666 -23 -54.999s-33.333 -23 -54 -23zM388 538c-20.667 0 -38.667 7.83105 -54 23.498
s-23 33.834 -23 54.501c0 21.333 7.66699 39.333 23 54s33.333 22 54 22c21.333 0 39.5 -7.33301 54.5 -22s22.5 -32.667 22.5 -54s-7.5 -39.666 -22.5 -54.999s-33.167 -23 -54.5 -23zM14 -0.00195312l174 256l-167 244h170l88 -133h9l87 133h169l-166 -244l174 -256h-172
l-91 147h-9l-95 -147h-171z" />
    <glyph glyph-name="uni1E90" unicode="&#x1e90;" horiz-adv-x="631" 
d="M264 747h-123l111 153h123l112 -153h-122l-47 73h-9zM272 138h313v-138h-540v91l313 464v7h-299v138h512v-91l-299 -464v-7z" />
    <glyph glyph-name="uni1E97" unicode="&#x1e97;" horiz-adv-x="420" 
d="M100 675c-21.333 0 -39.666 7.66699 -54.999 23s-23 33.666 -23 54.999s7.66699 39.333 23 54s33.666 22 54.999 22s39.5 -7.33301 54.5 -22s22.5 -32.667 22.5 -54s-7.66699 -39.666 -23 -54.999s-33.333 -23 -54 -23zM308 675c-20.667 0 -38.667 7.83105 -54 23.498
s-23 33.834 -23 54.501c0 21.333 7.66699 39.333 23 54s33.333 22 54 22c21.333 0 39.5 -7.33301 54.5 -22s22.5 -32.667 22.5 -54s-7.5 -39.666 -22.5 -54.999s-33.167 -23 -54.5 -23zM293 -10.002c-114 0 -171.001 52.666 -171.001 157.999v234h-109v118h35
c30.667 0 52.834 6.16699 66.501 18.5s20.5 31.833 20.5 58.5v60h137v-137h134v-118h-134v-214c0 -8 0.5 -14.667 1.5 -20s3.5 -11.666 7.5 -18.999s10.833 -12.833 20.5 -16.5s22.167 -5.5 37.5 -5.5c13.333 0 30 2 50 6v-111c-33.333 -8 -65.333 -12 -96 -12z" />
    <glyph glyph-name="uni1E98" unicode="&#x1e98;" horiz-adv-x="805" 
d="M402 529c-28.667 0 -53.167 10 -73.5 30s-30.5 44 -30.5 72c0 27.333 10.167 51 30.5 71s44.833 30 73.5 30s53.334 -10 74.001 -30s31 -43.667 31 -71c0 -28 -10.333 -52 -31 -72s-45.334 -30 -74.001 -30zM403 606c6.66699 0 12.5 2.5 17.5 7.5s7.5 10.833 7.5 17.5
c0 6 -2.5 11.5 -7.5 16.5s-10.833 7.5 -17.5 7.5c-7.33301 0 -13.5 -2.5 -18.5 -7.5s-7.5 -10.5 -7.5 -16.5c0 -7.33301 2.5 -13.333 7.5 -18s11.167 -7 18.5 -7zM152 0l-138 500h139l80 -330h9l85 300h152l86 -300h9l78 330h139l-139 -500h-161l-84 303h-9l-85 -303h-161z
" />
    <glyph glyph-name="uni1E99" unicode="&#x1e99;" horiz-adv-x="589" 
d="M294 529c-28.667 0 -53.167 10 -73.5 30s-30.5 44 -30.5 72c0 27.333 10.167 51 30.5 71s44.833 30 73.5 30s53.334 -10 74.001 -30s31 -43.667 31 -71c0 -28 -10.333 -52 -31 -72s-45.334 -30 -74.001 -30zM295 606c6.66699 0 12.5 2.5 17.5 7.5s7.5 10.833 7.5 17.5
c0 6 -2.5 11.5 -7.5 16.5s-10.833 7.5 -17.5 7.5c-7.33301 0 -13.5 -2.5 -18.5 -7.5s-7.5 -10.5 -7.5 -16.5c0 -7.33301 2.5 -13.333 7.5 -18s11.167 -7 18.5 -7zM163 -210c-28.667 0 -57.333 4 -86 12l-1 109c18.667 -4 35.667 -6 51 -6c56.667 0 94 21.333 112 64l12 31
h-46l-191 500h155l126 -348h9l117 348h154l-197 -553c-35.333 -104.667 -107 -157 -215 -157z" />
    <glyph glyph-name="uni1E9E" unicode="&#x1e9e;" horiz-adv-x="1215" 
d="M566 196c0 -66 -24.3291 -116.836 -72.9961 -152.503s-108.334 -53.5 -179.001 -53.5c-86 0 -152 21.167 -198 63.5s-69.667 98.5 -71 168.5h152c1.33301 -31.333 12.166 -56.166 32.499 -74.499s48.5 -27.5 84.5 -27.5c28 0 51 6 69 18s27 30 27 54
c0 14.667 -3.16699 27.334 -9.5 38.001s-16.666 20 -30.999 28s-26.833 14 -37.5 18s-26.667 9.33301 -48 16l-43 12c-116.667 36 -175 102.667 -175 200c0 63.333 23 113.5 69 150.5s104.667 55.5 176 55.5c74 0 133.167 -19.5 177.5 -58.5s67.166 -89.5 68.499 -151.5
h-152c-6.66699 53.333 -37.667 80 -93 80c-26.667 0 -48.334 -6.16699 -65.001 -18.5s-25 -29.166 -25 -50.499c0 -12 2.66699 -22.5 8 -31.5s14.166 -17 26.499 -24s23.5 -12.333 33.5 -16s24 -8.5 42 -14.5l37 -11c18 -6 34 -11.833 48 -17.5s30.833 -14.5 50.5 -26.5
s36.167 -25.333 49.5 -40s24.833 -33.667 34.5 -57s14.5 -49 14.5 -77zM1169 195.997c0 -66 -24.3291 -116.836 -72.9961 -152.503s-108.334 -53.5 -179.001 -53.5c-86 0 -152 21.167 -198 63.5s-69.667 98.5 -71 168.5h152c1.33301 -31.333 12.166 -56.166 32.499 -74.499
s48.5 -27.5 84.5 -27.5c28 0 51 6 69 18s27 30 27 54c0 14.667 -3.16699 27.334 -9.5 38.001s-16.666 20 -30.999 28s-26.833 14 -37.5 18s-26.667 9.33301 -48 16l-43 12c-116.667 36 -175 102.667 -175 200c0 63.333 23 113.5 69 150.5s104.667 55.5 176 55.5
c74 0 133.167 -19.5 177.5 -58.5s67.166 -89.5 68.499 -151.5h-152c-6.66699 53.333 -37.667 80 -93 80c-26.667 0 -48.334 -6.16699 -65.001 -18.5s-25 -29.166 -25 -50.499c0 -12 2.66699 -22.5 8 -31.5s14.166 -17 26.499 -24s23.5 -12.333 33.5 -16s24 -8.5 42 -14.5
l37 -11c18 -6 34 -11.833 48 -17.5s30.833 -14.5 50.5 -26.5s36.167 -25.333 49.5 -40s24.833 -33.667 34.5 -57s14.5 -49 14.5 -77z" />
    <glyph glyph-name="uni1EA0" unicode="&#x1ea0;" horiz-adv-x="726" 
d="M708 0h-165l-53 157h-254l-53 -157h-165l253 700h185zM278 283h170l-81 240h-9zM365 -55c24 0 44.498 -8.5 61.498 -25.5s25.5 -38.167 25.5 -63.5c0 -22.667 -8.66699 -42.834 -26 -60.501s-37.666 -26.5 -60.999 -26.5c-24 0 -45 8.83301 -63 26.5
s-27 37.834 -27 60.501c0 25.333 8.83301 46.5 26.5 63.5s38.834 25.5 63.501 25.5z" />
    <glyph glyph-name="uni1EA1" unicode="&#x1ea1;" horiz-adv-x="557" 
d="M534 111h11.9961v-111h-62c-54 0 -90 19.667 -108 59c-34 -46 -88.667 -69 -164 -69c-55.333 0 -99.666 12.833 -132.999 38.5s-50 62.5 -50 110.5c0 46 14.833 81.5 44.5 106.5s68.834 40.167 117.501 45.5l158 17v16c0 45.333 -24 68 -72 68
c-46 0 -72.667 -21.667 -80 -65h-150c5.33301 54.667 28.333 98.834 69 132.501s94.334 50.5 161.001 50.5c64.667 0 117.834 -16.333 159.501 -49s62.5 -82.334 62.5 -149.001v-164c0 -24.667 11.667 -37 35 -37zM348.996 193l-0.000976562 13.999l-106 -12
c-42.667 -4.66699 -64 -21 -64 -49c0 -28.667 19.667 -43 59 -43c28.667 0 54.334 7.33301 77.001 22s34 37.334 34 68.001zM290.995 -55.001c24 0 44.498 -8.5 61.498 -25.5s25.5 -38.167 25.5 -63.5c0 -22.667 -8.66699 -42.834 -26 -60.501s-37.666 -26.5 -60.999 -26.5
c-24 0 -45 8.83301 -63 26.5s-27 37.834 -27 60.501c0 25.333 8.83301 46.5 26.5 63.5s38.834 25.5 63.501 25.5z" />
    <glyph glyph-name="uni1EB8" unicode="&#x1eb8;" horiz-adv-x="585" 
d="M210 134h343v-134h-494v700h484v-134h-333v-145h283v-131h-283v-156zM308 -231c-24 0 -45.002 8.83301 -63.002 26.5s-27 37.834 -27 60.501c0 25.333 8.83301 46.5 26.5 63.5s38.834 25.5 63.501 25.5c24 0 44.5 -8.5 61.5 -25.5s25.5 -38.167 25.5 -63.5
c0 -22.667 -8.66699 -42.834 -26 -60.501s-37.666 -26.5 -60.999 -26.5z" />
    <glyph glyph-name="uni1EB9" unicode="&#x1eb9;" horiz-adv-x="578" 
d="M398 166l142.997 -0.00195312c-9.33301 -54 -35.166 -96.833 -77.499 -128.5s-96.833 -47.5 -163.5 -47.5c-77.333 0 -140.666 23.333 -189.999 70s-74 108.334 -74 185.001c0 80.667 24.833 145 74.5 193s110.834 72 183.501 72c68.667 0 126.5 -21.667 173.5 -65
s70.833 -108.666 71.5 -195.999c0 -12.667 -1 -26 -3 -40h-352c3.33301 -30 15 -54.333 35 -73s47 -28 81 -28c53.333 0 86 19.333 98 58zM293.997 391.998c-28.667 0 -52.499 -7.83301 -71.499 -23.5s-31.167 -35.834 -36.5 -60.501h210
c-2.66699 24.667 -13.334 44.834 -32.001 60.501s-42 23.5 -70 23.5zM295.998 -55.002c24 0 44.498 -8.5 61.498 -25.5s25.5 -38.167 25.5 -63.5c0 -22.667 -8.66699 -42.834 -26 -60.501s-37.666 -26.5 -60.999 -26.5c-24 0 -45 8.83301 -63 26.5s-27 37.834 -27 60.501
c0 25.333 8.83301 46.5 26.5 63.5s38.834 25.5 63.501 25.5z" />
    <glyph glyph-name="uni1EBC" unicode="&#x1ebc;" horiz-adv-x="585" 
d="M503 885c-2 -42.667 -13.5 -78.333 -34.5 -107s-50.167 -43 -87.5 -43c-24 0 -44.833 5.16699 -62.5 15.5s-32.667 20.5 -45 30.5s-23.833 15 -34.5 15c-24 0 -38 -17 -42 -51h-97c2.66699 44 14.5 80.167 35.5 108.5s50.5 42.5 88.5 42.5c20 0 37.667 -3.16699 53 -9.5
s26.833 -13.333 34.5 -21s16.167 -14.667 25.5 -21s18.666 -9.5 27.999 -9.5c24.667 0 38.334 16.667 41.001 50h97zM210 134.001h343v-134h-494v700h484v-134h-333v-145h283v-131h-283v-156z" />
    <glyph glyph-name="uni1EBD" unicode="&#x1ebd;" horiz-adv-x="578" 
d="M231 596c-24 0 -38 -16.999 -42 -50.999h-97c2.66699 44 14.5 80.167 35.5 108.5s50.5 42.5 88.5 42.5c20 0 37.667 -3.16699 53 -9.5s26.833 -13.333 34.5 -21s16.167 -14.667 25.5 -21s18.666 -9.5 27.999 -9.5c24.667 0 38.334 16.667 41.001 50h97
c-2 -42.667 -13.5 -78.334 -34.5 -107.001s-50.167 -43 -87.5 -43c-24 0 -44.833 5.16699 -62.5 15.5s-32.667 20.5 -45 30.5s-23.833 15 -34.5 15zM398 166.001l142.997 -0.00195312c-9.33301 -54 -35.166 -96.833 -77.499 -128.5s-96.833 -47.5 -163.5 -47.5
c-77.333 0 -140.666 23.333 -189.999 70s-74 108.334 -74 185.001c0 80.667 24.833 145 74.5 193s110.834 72 183.501 72c68.667 0 126.5 -21.667 173.5 -65s70.833 -108.666 71.5 -195.999c0 -12.667 -1 -26 -3 -40h-352c3.33301 -30 15 -54.333 35 -73s47 -28 81 -28
c53.333 0 86 19.333 98 58zM293.997 391.999c-28.667 0 -52.499 -7.83301 -71.499 -23.5s-31.167 -35.834 -36.5 -60.501h210c-2.66699 24.667 -13.334 44.834 -32.001 60.501s-42 23.5 -70 23.5z" />
    <glyph glyph-name="uni1ECA" unicode="&#x1eca;" horiz-adv-x="273" 
d="M214 700v-700h-155v700h155zM138 -231c-24 0 -45.002 8.83301 -63.002 26.5s-27 37.834 -27 60.501c0 25.333 8.83301 46.5 26.5 63.5s38.834 25.5 63.501 25.5c24 0 44.5 -8.5 61.5 -25.5s25.5 -38.167 25.5 -63.5c0 -22.667 -8.66699 -42.834 -26 -60.501
s-37.666 -26.5 -60.999 -26.5z" />
    <glyph glyph-name="uni1ECB" unicode="&#x1ecb;" horiz-adv-x="245" 
d="M123 555c-24 0 -45.002 8.83301 -63.002 26.5s-27 38.167 -27 61.5c0 24.667 8.83301 45.5 26.5 62.5s38.834 25.5 63.501 25.5c24 0 44.5 -8.5 61.5 -25.5s25.5 -37.833 25.5 -62.5c0 -23.333 -8.66699 -43.833 -26 -61.5s-37.666 -26.5 -60.999 -26.5zM46.998 0v500
h150v-500h-150zM123.998 -231c-24 0 -45.002 8.83301 -63.002 26.5s-27 37.834 -27 60.501c0 25.333 8.83301 46.5 26.5 63.5s38.834 25.5 63.501 25.5c24 0 44.5 -8.5 61.5 -25.5s25.5 -38.167 25.5 -63.5c0 -22.667 -8.66699 -42.834 -26 -60.501
s-37.666 -26.5 -60.999 -26.5z" />
    </font>
</defs>
</svg>
