<?xml version="1.0" standalone="no"?>
<!DOCTYPE svg PUBLIC "-//W3C//DTD SVG 1.1//EN" "http://www.w3.org/Graphics/SVG/1.1/DTD/svg11.dtd" >
<svg>
<metadata>
Created by FontForge 20090914 at Wed Jan 26 14:47:30 2022
 By www-data
&#194;&#169; TIGHTYPE 2019
</metadata>
<defs>
<font id="Moderat-Medium" horiz-adv-x="565" >
  <font-face 
    font-family="Moderat Medium"
    font-weight="500"
    font-stretch="normal"
    units-per-em="1000"
    panose-1="0 0 6 0 0 0 0 0 0 0"
    ascent="800"
    descent="-200"
    x-height="500"
    cap-height="700"
    bbox="-135 -305.002 1144 931"
    underline-thickness="50"
    underline-position="-150"
    unicode-range="U+0020-U+2793"
  />
<missing-glyph horiz-adv-x="842" 
d="M781 350c0 -100 -35 -185.001 -105 -255.001s-155 -105 -255 -105s-185 35.333 -255 106s-105 155.334 -105 254.001c0 99.333 35.167 184.166 105.5 254.499s155.166 105.5 254.499 105.5c100.667 0 185.834 -35.167 255.501 -105.5s104.5 -155.166 104.5 -254.499z
M233 532.999v-45h44v-128h46v128h44v45h-134zM475 532.999v-45h45v-128h45v128h45v45h-135zM421 80.999c72.667 0 134.999 25.333 186.999 76s79 111.667 81 183l-46 8c0 -61.333 -21.667 -113.5 -65 -156.5s-95.666 -64.5 -156.999 -64.5
c-60.667 0 -112.667 21.5 -156 64.5s-65 95.167 -65 156.5l-46 -8c2 -71.333 29 -132.333 81 -183s114 -76 186 -76z" />
    <glyph glyph-name="arrowleft" unicode="&#x3c;&#x2d;" horiz-adv-x="801" 
d="M764 395v-90h-585l204 -203l-63 -62l-296 305v10l296 305l63 -62l-204 -203h585z" />
    <glyph glyph-name="arrowright" unicode="&#x2d;&#x3e;" horiz-adv-x="801" 
d="M481 660l296 -305v-10l-296 -305l-63 62l204 203h-585v90h585l-204 203z" />
    <glyph glyph-name="f_f" unicode="ff" horiz-adv-x="687" 
d="M539 564v-64.002h122v-82h-122v-418h-101v418h-214v-418h-102v418h-104v82h104v72c0 44.667 13.167 78.834 39.5 102.501s62.166 35.5 107.499 35.5c24.667 0 47.334 -3.66699 68.001 -11l-15 -78c-10.667 4 -22 6 -34 6c-42.667 0 -64 -21 -64 -63v-64h214v72
c0 44.667 13.167 78.834 39.5 102.501s62.166 35.5 107.499 35.5c28 0 56 -5.33301 84 -16l-18 -75c-15.333 5.33301 -31.666 8 -48.999 8c-42 0 -63 -21 -63 -63z" />
    <glyph glyph-name="f_f_i" unicode="ffi" horiz-adv-x="922" 
d="M857 500l0.00195312 -500.002h-102v418h-211v-418h-102v418h-218v-418h-102v418h-104v82h104v72c0 44.667 13.167 78.834 39.5 102.501s62.166 35.5 107.499 35.5c24.667 0 47.334 -3.66699 68.001 -11l-15 -78c-10.667 4 -22 6 -34 6c-42.667 0 -64 -21 -64 -63v-64h218
v72c0 44.667 13.167 78.834 39.5 102.501s62.166 35.5 107.499 35.5c23.333 0 46 -3.66699 68 -11l-15 -78c-10.667 4 -22.334 6 -35.001 6c-42 0 -63 -21 -63 -63v-64h313zM806.002 573.998c-17.333 0 -32.667 6.5 -46 19.5s-20 28.167 -20 45.5c0 18 6.5 33.167 19.5 45.5
s28.5 18.5 46.5 18.5s33.167 -6.16699 45.5 -18.5s18.5 -27.5 18.5 -45.5s-6.16699 -33.333 -18.5 -46s-27.5 -19 -45.5 -19z" />
    <glyph glyph-name="f_f_j" unicode="ffj" horiz-adv-x="918" 
d="M862 500l-0.000976562 -579.002c0 -36 -10.167 -66.833 -30.5 -92.5s-56.5 -38.5 -108.5 -38.5c-23.333 0 -49.666 3.66699 -78.999 11v77c17.333 -4.66699 34 -7 50 -7c44 0 66 21 66 63v484h-221v-418h-101v418h-214v-418h-102v418h-104v82h104v72
c0 44.667 13.167 78.834 39.5 102.501s62.166 35.5 107.499 35.5c24.667 0 47.334 -3.66699 68.001 -11l-15 -78c-10.667 4 -22 6 -34 6c-42.667 0 -64 -21 -64 -63v-64h214v72c0 44.667 13.167 78.834 39.5 102.501s62.166 35.5 107.499 35.5c23.333 0 46 -3.66699 68 -11
l-16 -78c-9.33301 4 -20.666 6 -33.999 6c-42.667 0 -64 -21 -64 -63v-64h323zM810.999 573.998c-18 0 -33.5 6.5 -46.5 19.5s-19.5 28.167 -19.5 45.5c0 18 6.5 33.167 19.5 45.5s28.5 18.5 46.5 18.5c17.333 0 32.333 -6.16699 45 -18.5s19 -27.5 19 -45.5
c0 -17.333 -6.33301 -32.5 -19 -45.5s-27.667 -19.5 -45 -19.5z" />
    <glyph glyph-name="f_i" unicode="fi" horiz-adv-x="602" 
d="M537 500v-500.001h-101v418h-212v-418h-102v418h-104v82h104v72c0 44.667 13.167 78.834 39.5 102.501s62.166 35.5 107.499 35.5c24.667 0 47.334 -3.66699 68.001 -11l-15 -78c-10.667 4 -22 6 -34 6c-42.667 0 -64 -21 -64 -63v-64h313zM487 573.999
c-18 0 -33.5 6.5 -46.5 19.5s-19.5 28.167 -19.5 45.5c0 18 6.5 33.167 19.5 45.5s28.5 18.5 46.5 18.5c17.333 0 32.333 -6.16699 45 -18.5s19 -27.5 19 -45.5c0 -17.333 -6.33301 -32.5 -19 -45.5s-27.667 -19.5 -45 -19.5z" />
    <glyph glyph-name="f_j" unicode="fj" horiz-adv-x="602" 
d="M546 500v-579.001c0 -16 -1.83301 -31 -5.5 -45s-10.167 -27.833 -19.5 -41.5s-23.666 -24.5 -42.999 -32.5s-43 -12 -71 -12c-24 0 -50 3.66699 -78 11v77c17.333 -4.66699 33.666 -7 48.999 -7c44 0 66 21 66 63v484h-220v-418h-102v418h-104v82h104v72
c0 44.667 13.167 78.834 39.5 102.501s62.166 35.5 107.499 35.5c24.667 0 47.334 -3.66699 68.001 -11l-15 -78c-10.667 4 -22 6 -34 6c-42.667 0 -64 -21 -64 -63v-64h322zM495 573.999c-17.333 0 -32.667 6.5 -46 19.5s-20 28.167 -20 45.5c0 18 6.5 33.167 19.5 45.5
s28.5 18.5 46.5 18.5c17.333 0 32.333 -6.16699 45 -18.5s19 -27.5 19 -45.5c0 -17.333 -6.33301 -32.5 -19 -45.5s-27.667 -19.5 -45 -19.5z" />
    <glyph glyph-name=".notdef" horiz-adv-x="842" 
d="M781 350c0 -100 -35 -185.001 -105 -255.001s-155 -105 -255 -105s-185 35.333 -255 106s-105 155.334 -105 254.001c0 99.333 35.167 184.166 105.5 254.499s155.166 105.5 254.499 105.5c100.667 0 185.834 -35.167 255.501 -105.5s104.5 -155.166 104.5 -254.499z
M233 532.999v-45h44v-128h46v128h44v45h-134zM475 532.999v-45h45v-128h45v128h45v45h-135zM421 80.999c72.667 0 134.999 25.333 186.999 76s79 111.667 81 183l-46 8c0 -61.333 -21.667 -113.5 -65 -156.5s-95.666 -64.5 -156.999 -64.5
c-60.667 0 -112.667 21.5 -156 64.5s-65 95.167 -65 156.5l-46 -8c2 -71.333 29 -132.333 81 -183s114 -76 186 -76z" />
    <glyph glyph-name="space" unicode=" " horiz-adv-x="270" 
 />
    <glyph glyph-name="exclam" unicode="!" horiz-adv-x="267" 
d="M81 700h105l-16 -502h-72zM135 -5c-18 0 -33.5 6.5 -46.5 19.5s-19.5 28.167 -19.5 45.5c0 18.667 6.5 34.334 19.5 47.001s28.5 19 46.5 19s33.333 -6.33301 46 -19s19 -28.334 19 -47.001c0 -17.333 -6.33301 -32.5 -19 -45.5s-28 -19.5 -46 -19.5z" />
    <glyph glyph-name="quotedbl" unicode="&#x22;" horiz-adv-x="366" 
d="M142 578l-17.999 -142.999h-49l-19 143c-4.66699 37.333 -7 61 -7 71c0 18 4.5 31.833 13.5 41.5s21.167 14.5 36.5 14.5s27.666 -5 36.999 -15s14 -23.667 14 -41c0 -4.66699 -2.66699 -28.334 -8 -71.001zM310.001 578.001l-17.998 -143h-49l-19 143
c-5.33301 42.667 -8 66.334 -8 71.001c0 17.333 4.66699 31 14 41s21.666 15 36.999 15s27.666 -5 36.999 -15s14 -23.667 14 -41c0 -4.66699 -2.66699 -28.334 -8 -71.001z" />
    <glyph glyph-name="numbersign" unicode="#" horiz-adv-x="703" 
d="M666 396h-111l-34 -153h91v-82h-109l-35 -161h-93l35 161h-189l-35 -161h-91l35 161h-93v82h111l34 153h-91v82h109l35 162h92l-36 -162h189l36 162h92l-35 -162h93v-82zM429 243l33 153h-189l-33 -153h189z" />
    <glyph glyph-name="dollar" unicode="$" horiz-adv-x="580" 
d="M517 164c0 -50 -16.667 -89.501 -50 -118.501s-76.666 -46.833 -129.999 -53.5v-82h-84v82c-59.333 7.33301 -105.5 28 -138.5 62s-50.833 79.333 -53.5 136h106c6 -60 34.667 -96 86 -108v211l-25 9c-47.333 16.667 -83.833 38.334 -109.5 65.001s-38.5 62 -38.5 106
c0 47.333 16 86.333 48 117s73.667 49.667 125 57v83h84v-83c52.667 -6.66699 94.667 -26.167 126 -58.5s48 -73.5 50 -123.5h-99c-6.66699 50 -32.334 80.667 -77.001 92v-195l19 -7c54 -19.333 94.333 -44 121 -74s40 -69 40 -117zM186 477.999
c0 -35.333 22.333 -63.333 67 -84v162c-20.667 -6 -37 -16 -49 -30s-18 -30 -18 -48zM337 81.999c48 12 72 38.666 72 79.999c0 42.667 -24 75.334 -72 98.001v-178z" />
    <glyph glyph-name="percent" unicode="%" horiz-adv-x="792" 
d="M214 345c-42 0 -78 15 -108 45s-45 66 -45 108c0 41.333 15 77 45 107s66 45 108 45c41.333 0 77 -15 107 -45s45 -65.667 45 -107c0 -42 -15 -78 -45 -108s-65.667 -45 -107 -45zM666 640l-435 -640h-112l435 640h112zM213 426c20.667 0 37.834 6.66895 51.501 20.002
s20.5 30.666 20.5 51.999c0 20.667 -6.83301 37.667 -20.5 51s-30.834 20 -51.501 20c-20 0 -36.833 -6.66699 -50.5 -20s-20.5 -30.333 -20.5 -51s6.83301 -37.834 20.5 -51.501s30.5 -20.5 50.5 -20.5zM578 -9.99805c-41.333 0 -77 15 -107 45s-45 65.667 -45 107
c0 42 15 78 45 108s65.667 45 107 45s77 -15 107 -45s45 -66 45 -108c0 -41.333 -15 -77 -45 -107s-65.667 -45 -107 -45zM578 71.002c20.667 0 37.667 6.66699 51 20s20 30.333 20 51s-6.66699 37.834 -20 51.501s-30.333 20.5 -51 20.5s-37.667 -6.83301 -51 -20.5
s-20 -30.834 -20 -51.501s6.66699 -37.667 20 -51s30.333 -20 51 -20z" />
    <glyph glyph-name="ampersand" unicode="&#x26;" horiz-adv-x="695" 
d="M664 0l-111.002 0.000976562l-90 96c-60 -70.667 -130 -106 -210 -106c-55.333 0 -101.166 15.333 -137.499 46s-54.5 70.667 -54.5 120c0 44 11 80.167 33 108.5s52.667 56.166 92 83.499l25 17c-39.333 42 -65 73 -77 93c-16 28 -24 57 -24 87c0 46 18 85 54 117
s81.667 48 137 48s101 -14.5 137 -43.5s54 -67.167 54 -114.5c0 -35.333 -10.167 -66.5 -30.5 -93.5s-50.166 -54.833 -89.499 -83.5l-34 -24l116 -125l84 113h105l-130 -177zM279.998 414.001l0.999023 -1.99902l31 21c27.333 19.333 48.5 37.666 63.5 54.999
s22.5 37 22.5 59c0 25.333 -9.16699 45.333 -27.5 60s-41.166 22 -68.499 22c-29.333 0 -52.833 -8 -70.5 -24s-26.5 -36.333 -26.5 -61c0 -22 5.5 -41.833 16.5 -59.5s30.5 -41.167 58.5 -70.5zM258.997 75.002c52.667 0 100.998 27.999 144.998 83.999l-134 143l-26 -18
c-27.333 -19.333 -48.166 -38.166 -62.499 -56.499s-21.5 -39.833 -21.5 -64.5c0 -25.333 9.33301 -46.333 28 -63s42.334 -25 71.001 -25z" />
    <glyph glyph-name="quotesingle" unicode="'" horiz-adv-x="198" 
d="M142 578l-17.999 -142.999h-49l-19 143c-4.66699 37.333 -7 61 -7 71c0 18 4.5 31.833 13.5 41.5s21.167 14.5 36.5 14.5s27.666 -5 36.999 -15s14 -23.667 14 -41c0 -4.66699 -2.66699 -28.334 -8 -71.001z" />
    <glyph glyph-name="parenleft" unicode="(" horiz-adv-x="310" 
d="M286 -127l-62 -44.998c-48 57.333 -87.167 127.166 -117.5 209.499s-45.5 173.166 -45.5 272.499s15.167 190.333 45.5 273s69.5 152.667 117.5 210l62 -45c-91.333 -121.333 -137 -267.333 -137 -438c0 -170 45.667 -315.667 137 -437z" />
    <glyph glyph-name="parenright" unicode=")" horiz-adv-x="310" 
d="M24 -127c92 122 138 267.666 138 436.999c0 170 -46 316 -138 438l63 45c48 -58 87 -128.167 117 -210.5s45 -173.166 45 -272.499s-15 -190 -45 -272s-69 -152 -117 -210z" />
    <glyph glyph-name="asterisk" unicode="*" horiz-adv-x="419" 
d="M370 588l-104 -55l104 -55l-32 -57l-100 63l4 -118h-65l4 118l-100 -63l-32 57l104 55l-104 55l32 57l100 -63l-4 118h65l-4 -118l100 63z" />
    <glyph glyph-name="plus" unicode="+" 
d="M509 322v-84h-181v-178h-91v178h-182v84h182v178h91v-178h181z" />
    <glyph glyph-name="comma" unicode="," horiz-adv-x="254" 
d="M127 125c21.333 0 38.166 -8.16699 50.499 -24.5s18.5 -37.5 18.5 -63.5c0 -39.333 -10.333 -73.833 -31 -103.5s-45.667 -53.5 -75 -71.5l-28 34c38.667 32.667 59 65.667 61 99c-16 -1.33301 -30.333 3.66699 -43 15s-19 27.333 -19 48c0 20 6.33301 36.167 19 48.5
s28.334 18.5 47.001 18.5z" />
    <glyph glyph-name="hyphen" unicode="-" horiz-adv-x="446" 
d="M37 354h372v-86h-372v86z" />
    <glyph glyph-name="period" unicode="." horiz-adv-x="246" 
d="M124 -5c-18 0 -33.5 6.5 -46.5 19.5s-19.5 28.167 -19.5 45.5c0 18.667 6.5 34.334 19.5 47.001s28.5 19 46.5 19s33.333 -6.33301 46 -19s19 -28.334 19 -47.001c0 -17.333 -6.33301 -32.5 -19 -45.5s-28 -19.5 -46 -19.5z" />
    <glyph glyph-name="slash" unicode="/" horiz-adv-x="502" 
d="M478 750l-355 -800h-99l356 800h98z" />
    <glyph glyph-name="zero" unicode="0" horiz-adv-x="607" 
d="M305 -10c-74.667 0 -134 28.001 -178 84.001s-66 138.333 -66 247c0 107.333 22.167 189.166 66.5 245.499s103.5 84.5 177.5 84.5s132.667 -28.167 176 -84.5s65 -138.833 65 -247.5s-21.667 -190.667 -65 -246s-102 -83 -176 -83zM305 79.001
c40.667 0 73 19.833 97 59.5s36 100.167 36 181.5s-12.167 142 -36.5 182s-56.5 60 -96.5 60c-40.667 0 -73.5 -20 -98.5 -60s-37.5 -100.667 -37.5 -182c0 -82 12.5 -142.667 37.5 -182s57.833 -59 98.5 -59z" />
    <glyph glyph-name="one" unicode="1" horiz-adv-x="378" 
d="M192 0v443h-131v83h61c54 0 81 27 81 81v33h94v-640h-105z" />
    <glyph glyph-name="two" unicode="2" horiz-adv-x="554" 
d="M271 214c-53.333 -38 -83.333 -80.335 -90 -127.002h309v-87h-429v38c0 98.667 45 178.667 135 240l100 67c19.333 13.333 34.166 24.333 44.499 33s20.666 21.334 30.999 38.001s15.5 34.334 15.5 53.001c0 27.333 -9.16699 49.833 -27.5 67.5s-42.5 26.5 -72.5 26.5
c-35.333 0 -63.5 -12 -84.5 -36s-32.5 -51 -34.5 -81h-106c2.66699 54.667 24.167 102.5 64.5 143.5s95.5 61.5 165.5 61.5c60.667 0 109.334 -16.167 146.001 -48.5s55 -75.833 55 -130.5c0 -24.667 -3.66699 -47.5 -11 -68.5s-18.166 -39.167 -32.499 -54.5
s-25.833 -26.833 -34.5 -34.5s-20 -16.167 -34 -25.5z" />
    <glyph glyph-name="three" unicode="3" horiz-adv-x="577" 
d="M407 330c33.333 -10.667 59.8359 -29.334 79.5029 -56.001s29.5 -58.667 29.5 -96c0 -54.667 -21.333 -99.667 -64 -135s-98.334 -53 -167.001 -53c-67.333 0 -120.333 17.167 -159 51.5s-60.334 81.5 -65.001 141.5h103c4.66699 -31.333 16.667 -56.833 36 -76.5
s47.333 -29.5 84 -29.5c37.333 0 67.5 10 90.5 30s34.5 45.333 34.5 76c0 31.333 -10.833 56.666 -32.5 75.999s-51.5 29 -89.5 29h-59v80h55c32 0 58 9 78 27s30 42 30 72s-9.83301 54.167 -29.5 72.5s-45.5 27.5 -77.5 27.5c-28.667 0 -53.334 -8 -74.001 -24
s-34 -39 -40 -69h-100c2.66699 52.667 25.167 95.334 67.5 128.001s92.833 49 151.5 49c57.333 0 106 -16.333 146 -49s60 -76 60 -130c0 -61.333 -29.333 -106.666 -88 -135.999v-6z" />
    <glyph glyph-name="four" unicode="4" horiz-adv-x="583" 
d="M547 223v-79h-112v-144h-98v144h-300v51l292 445h106v-417h112zM156 223h181v279h-7z" />
    <glyph glyph-name="five" unicode="5" horiz-adv-x="570" 
d="M306 413c60.667 0 109.666 -19.8301 146.999 -59.4971s56 -89.834 56 -150.501c0 -64.667 -21.5 -116.334 -64.5 -155.001s-98.167 -58 -165.5 -58c-64 0 -115.5 17.667 -154.5 53s-60.167 82.666 -63.5 141.999h100c2.66699 -34.667 14.834 -62 36.501 -82
s49.5 -30 83.5 -30c36.667 0 66.5 11.5 89.5 34.5s34.5 54.167 34.5 93.5c0 38.667 -11 70.5 -33 95.5s-51.333 37.5 -88 37.5c-52.667 0 -91.667 -21.667 -117 -65l-92 21l34 350h371v-86h-281l-20 -184c32.667 28.667 75 43 127 43z" />
    <glyph glyph-name="six" unicode="6" horiz-adv-x="543" 
d="M296 406c57.333 0 104.832 -19.001 142.499 -57.001s56.5 -87 56.5 -147c0 -62.667 -20.667 -113.667 -62 -153s-95 -59 -161 -59c-67.333 0 -121.333 20 -162 60s-61 93.333 -61 160c0 40.667 7 77.834 21 111.501s33.333 69.167 58 106.5l140 212h126l-175 -247
c24.667 8.66699 50.334 13 77.001 13zM272.999 73.999c36.667 0 65.835 12.333 87.502 37s32.5 55.667 32.5 93c0 36 -10.833 65.833 -32.5 89.5s-50.834 35.5 -87.501 35.5s-65.834 -11.833 -87.501 -35.5s-32.5 -53.5 -32.5 -89.5c0 -36.667 11 -67.5 33 -92.5
s51 -37.5 87 -37.5z" />
    <glyph glyph-name="seven" unicode="7" horiz-adv-x="536" 
d="M61 640h439v-60c-70.667 -81.333 -126.167 -167.333 -166.5 -258s-64.833 -198 -73.5 -322h-106c9.33301 123.333 30.833 227.5 64.5 312.5s78.5 163.5 134.5 235.5v5h-292v87z" />
    <glyph glyph-name="eight" unicode="8" horiz-adv-x="575" 
d="M401 338c30.667 -11.333 57.166 -31.168 79.499 -59.501s33.5 -63.166 33.5 -104.499c0 -54.667 -20.333 -99 -61 -133s-95.334 -51 -164.001 -51c-69.333 0 -124.666 17.167 -165.999 51.5s-62 78.5 -62 132.5c0 41.333 11.167 76.333 33.5 105
s48.833 48.334 79.5 59.001v6c-59.333 25.333 -89 70.333 -89 135c0 52 19.167 93.667 57.5 125s87.5 47 147.5 47c58.667 0 106.834 -15.333 144.501 -46s56.5 -72 56.5 -124c0 -64.667 -30 -110.334 -90 -137.001v-6zM288.999 575.998c-30 0 -54.667 -8.83203 -74 -26.499
s-29 -41.834 -29 -72.501c0 -30 9.83301 -53.833 29.5 -71.5s44.167 -26.5 73.5 -26.5c28.667 0 52.667 8.83301 72 26.5s29 41.5 29 71.5s-9.5 54 -28.5 72s-43.167 27 -72.5 27zM288.999 68.999c34 0 62.333 10.1689 85 30.502s34 47.166 34 80.499s-10.833 61 -32.5 83
s-50.834 33 -87.501 33c-37.333 0 -66.666 -10.833 -87.999 -32.5s-32 -48.834 -32 -81.501c0 -34.667 11.667 -62.167 35 -82.5s52 -30.5 86 -30.5z" />
    <glyph glyph-name="nine" unicode="9" horiz-adv-x="543" 
d="M272 650c66.667 0 120.5 -20.165 161.5 -60.498s61.5 -93.5 61.5 -159.5c0 -28 -4.5 -56.333 -13.5 -85s-18.333 -51.834 -28 -69.501s-22.5 -38.834 -38.5 -63.501l-139 -212h-126l174 247c-24.667 -8.66699 -50 -13 -76 -13c-58 0 -105.667 19 -143 57s-56 87 -56 147
c0 62.667 20.667 113.667 62 153s95 59 161 59zM270 311.002c36.667 0 65.832 11.833 87.499 35.5s32.5 53.5 32.5 89.5c0 37.333 -10.833 68.333 -32.5 93s-50.5 37 -86.5 37c-36.667 0 -66 -12.333 -88 -37s-33 -55.667 -33 -93c0 -36 10.833 -65.833 32.5 -89.5
s50.834 -35.5 87.501 -35.5z" />
    <glyph glyph-name="colon" unicode=":" horiz-adv-x="246" 
d="M124 374c-18 0 -33.5 6.5 -46.5 19.5s-19.5 28.167 -19.5 45.5c0 18.667 6.5 34.334 19.5 47.001s28.5 19 46.5 19s33.333 -6.33301 46 -19s19 -28.334 19 -47.001c0 -17.333 -6.33301 -32.5 -19 -45.5s-28 -19.5 -46 -19.5zM124 -5c-18 0 -33.5 6.5 -46.5 19.5
s-19.5 28.167 -19.5 45.5c0 18.667 6.5 34.334 19.5 47.001s28.5 19 46.5 19s33.333 -6.33301 46 -19s19 -28.334 19 -47.001c0 -17.333 -6.33301 -32.5 -19 -45.5s-28 -19.5 -46 -19.5z" />
    <glyph glyph-name="semicolon" unicode=";" horiz-adv-x="254" 
d="M130 374c-18 0 -33.667 6.5 -47 19.5s-20 28.167 -20 45.5c0 18 6.66699 33.5 20 46.5s29 19.5 47 19.5c17.333 0 32.5 -6.5 45.5 -19.5s19.5 -28.5 19.5 -46.5c0 -17.333 -6.5 -32.5 -19.5 -45.5s-28.167 -19.5 -45.5 -19.5zM127 125
c21.333 0 38.166 -8.16699 50.499 -24.5s18.5 -37.5 18.5 -63.5c0 -39.333 -10.333 -73.833 -31 -103.5s-45.667 -53.5 -75 -71.5l-28 34c38.667 32.667 59 65.667 61 99c-16 -1.33301 -30.333 3.66699 -43 15s-19 27.333 -19 48c0 20 6.33301 36.167 19 48.5
s28.334 18.5 47.001 18.5z" />
    <glyph glyph-name="less" unicode="&#x3c;" 
d="M481 563v-107l-292 -165v-5l292 -167v-107l-397 223v105z" />
    <glyph glyph-name="equal" unicode="=" 
d="M56 435h452v-87h-452v87zM56 212h452v-86h-452v86z" />
    <glyph glyph-name="greater" unicode="&#x3e;" 
d="M84 563l397 -223v-105l-397 -223v107l292 167v5l-292 165v107z" />
    <glyph glyph-name="question" unicode="?" horiz-adv-x="462" 
d="M153 245c0 39.333 5.83105 72.833 17.498 100.5s34.5 54.167 68.5 79.5c31.333 23.333 52.666 42.666 63.999 57.999s17 34 17 56c0 25.333 -8 45.666 -24 60.999s-38.333 23 -67 23c-31.333 0 -55 -9.16699 -71 -27.5s-25.333 -41.166 -28 -68.499h-93
c0.666992 30 6.83398 58.167 18.501 84.5s32.5 49.333 62.5 69s67 29.5 111 29.5c58 0 103.333 -14.833 136 -44.5s49 -70.5 49 -122.5c0 -36 -7.66699 -65.667 -23 -89s-40.666 -48.666 -75.999 -75.999c-25.333 -19.333 -43.166 -39.5 -53.499 -60.5
s-15.5 -47.5 -15.5 -79.5v-40h-93v47zM202.998 -5c-18 0 -33.5 6.5 -46.5 19.5s-19.5 28.167 -19.5 45.5c0 18.667 6.5 34.334 19.5 47.001s28.5 19 46.5 19s33.333 -6.33301 46 -19s19 -28.334 19 -47.001c0 -17.333 -6.33301 -32.5 -19 -45.5s-28 -19.5 -46 -19.5z" />
    <glyph glyph-name="at" unicode="@" horiz-adv-x="1003" 
d="M500 710c126.667 0 232.001 -40.335 316.001 -121.002s126 -186 126 -316c0 -87.333 -16 -153.666 -48 -198.999s-78 -68 -138 -68c-34 0 -63.333 7.16699 -88 21.5s-40.667 34.5 -48 60.5c-12 -22.667 -30.5 -42 -55.5 -58s-56.5 -24 -94.5 -24
c-56 0 -104 21.667 -144 65s-60 100 -60 170c0 72.667 19.5 131.834 58.5 177.501s87.167 68.5 144.5 68.5c62.667 0 106.667 -23.333 132 -70h7l9 63h77v-318c0 -25.333 6.33301 -44.333 19 -57s29.667 -19 51 -19c61.333 0 92 59.667 92 179
c0 111.333 -33.167 199.833 -99.5 265.5s-152.5 98.5 -258.5 98.5c-98.667 0 -181.834 -36.167 -249.501 -108.5s-101.5 -165.833 -101.5 -280.5c0 -108.667 35.5 -197.5 106.5 -266.5s158.167 -103.5 261.5 -103.5c77.333 0 144.666 18.667 201.999 56l36 -69
c-68 -44.667 -149 -67 -243 -67c-125.333 0 -231.5 41 -318.5 123s-130.5 191 -130.5 327c0 72 12 137.833 36 197.5s56.167 109.167 96.5 148.5s86.833 69.833 139.5 91.5s108.334 32.5 167.001 32.5zM484.001 91.998c35.333 0 65 14.001 89 42.001s36 65.333 36 112
c0 46 -12 83 -36 111s-53.667 42 -89 42c-36 0 -65.833 -13.833 -89.5 -41.5s-35.5 -64.834 -35.5 -111.501s11.833 -84 35.5 -112s53.5 -42 89.5 -42z" />
    <glyph glyph-name="A" unicode="A" horiz-adv-x="671" 
d="M533 0l-62 183h-272l-62 -183h-113l247 700h129l246 -700h-113zM228 272h214l-103 305h-8z" />
    <glyph glyph-name="B" unicode="B" horiz-adv-x="616" 
d="M450 367c32.667 -12 60.333 -32.167 83 -60.5s34 -66.5 34 -114.5c0 -60.667 -19.333 -107.834 -58 -141.501s-92 -50.5 -160 -50.5h-268v700h267c65.333 0 115 -15.667 149 -47s51 -73.666 51 -126.999c0 -72 -32.667 -123.333 -98 -154v-5zM183.999 614v-210.999h150
c34.667 0 61.5 9.66699 80.5 29s28.5 45.666 28.5 78.999c0 32 -9.5 57.167 -28.5 75.5s-44.833 27.5 -77.5 27.5h-153zM339.999 86.001c37.333 0 66.668 10.333 88.001 31s32 48 32 82c0 34.667 -10.833 63 -32.5 85s-50.834 33 -87.501 33h-156v-231h156z" />
    <glyph glyph-name="C" unicode="C" horiz-adv-x="755" 
d="M707 217c-12.667 -69.333 -47.334 -124.499 -104.001 -165.499s-125 -61.5 -205 -61.5c-102 0 -183.667 33.333 -245 100s-92 152.334 -92 257.001c0 105.333 31.167 192.166 93.5 260.499s143.5 102.5 243.5 102.5c78 0 144.167 -20.5 198.5 -61.5
s87.5 -97.833 99.5 -170.5h-113c-12 41.333 -34 74.166 -66 98.499s-71.333 36.5 -118 36.5c-68.667 0 -124.334 -25.5 -167.001 -76.5s-64 -114.167 -64 -189.5c0 -76 21.5 -138.333 64.5 -187s98.167 -73 165.5 -73c48.667 0 90.334 11.833 125.001 35.5
s58.334 55.167 71.001 94.5h113z" />
    <glyph glyph-name="D" unicode="D" horiz-adv-x="706" 
d="M308 700c108 0 191.167 -31.333 249.5 -94s87.5 -148 87.5 -256c0 -106.667 -29.167 -191.667 -87.5 -255s-141.5 -95 -249.5 -95h-227v700h227zM303 95c80 0 139.167 23.333 177.5 70s57.5 109.334 57.5 188.001c0 77.333 -19 138.666 -57 183.999s-97.333 68 -178 68
h-117v-510h117z" />
    <glyph glyph-name="E" unicode="E" horiz-adv-x="587" 
d="M184 93h359v-93h-462v700h452v-93h-349v-206h306v-91h-306v-217z" />
    <glyph glyph-name="F" unicode="F" horiz-adv-x="562" 
d="M525 603h-339v-215h296v-93h-296v-295h-105v700h444v-97z" />
    <glyph glyph-name="G" unicode="G" horiz-adv-x="787" 
d="M401 370l304.998 0.000976562v-370h-84l-11 76h-7c-55.333 -57.333 -128 -86 -218 -86c-98.667 0 -177.5 32.5 -236.5 97.5s-88.5 149.167 -88.5 252.5c0 106.667 32.333 195 97 265s148.334 105 251.001 105c80.667 0 146.834 -20 198.501 -60
s82.834 -91.333 93.501 -154h-113c-12 35.333 -33.5 63.666 -64.5 84.999s-69.167 32 -114.5 32c-72 0 -130.167 -25.5 -174.5 -76.5s-66.5 -116.167 -66.5 -195.5c0 -75.333 20.667 -136.833 62 -184.5s97.666 -71.5 168.999 -71.5c57.333 0 105.5 13.833 144.5 41.5
s58.5 67.167 58.5 118.5v41h-201v84z" />
    <glyph glyph-name="H" unicode="H" horiz-adv-x="698" 
d="M512 700h105v-700h-105v307h-326v-307h-105v700h105v-298h326v298z" />
    <glyph glyph-name="I" unicode="I" horiz-adv-x="267" 
d="M186 700v-700h-105v700h105z" />
    <glyph glyph-name="J" unicode="J" horiz-adv-x="543" 
d="M147 205c1.33301 -34.667 11.166 -63 29.499 -85s43.833 -33 76.5 -33c32 0 57.333 10.833 76 32.5s28 53.5 28 95.5v485h106v-489c0 -71.333 -19.167 -126 -57.5 -164s-89.166 -57 -152.499 -57c-67.333 0 -119.833 19.333 -157.5 58s-57.167 91 -58.5 157h110z" />
    <glyph glyph-name="K" unicode="K" horiz-adv-x="633" 
d="M487 0l-248 312h-53v-312h-105v700h105v-293h53l222 293h120l-253 -335v-5l280 -360h-121z" />
    <glyph glyph-name="L" unicode="L" horiz-adv-x="578" 
d="M184 95h357v-95h-460v700h103v-605z" />
    <glyph glyph-name="M" unicode="M" horiz-adv-x="885" 
d="M804 700v-700h-103v512h-7l-195 -432h-111l-196 432h-8v-512h-103v700h132l227 -509h7l226 509h131z" />
    <glyph glyph-name="N" unicode="N" horiz-adv-x="735" 
d="M551 700h103v-700h-111l-352 519h-7v-519h-103v700h111l352 -520h7v520z" />
    <glyph glyph-name="O" unicode="O" horiz-adv-x="823" 
d="M412 -10c-100.667 0 -184.334 34.1689 -251.001 102.502s-100 154.166 -100 257.499c0 102.667 33.333 188.334 100 257.001s150.334 103 251.001 103c100 0 183.333 -34.333 250 -103s100 -154.334 100 -257.001s-33.167 -188.334 -99.5 -257.001
s-149.833 -103 -250.5 -103zM412 87.002c70 0 127.999 25.167 173.999 75.5s69 112.833 69 187.5s-23.167 137.167 -69.5 187.5s-104.166 75.5 -173.499 75.5c-70 0 -128.167 -25.167 -174.5 -75.5s-69.5 -112.833 -69.5 -187.5s23.167 -137.167 69.5 -187.5
s104.5 -75.5 174.5 -75.5z" />
    <glyph glyph-name="P" unicode="P" horiz-adv-x="633" 
d="M347 700c68.667 0 123.333 -19.667 164 -59s61 -91 61 -155c0 -66 -20.667 -118.667 -62 -158s-97.333 -59 -168 -59h-159v-269h-102v700h266zM331.999 362c42.667 0 75.5 11 98.5 33s34.5 52 34.5 90s-11.667 67.833 -35 89.5s-54.333 32.5 -93 32.5h-154v-245h149z" />
    <glyph glyph-name="Q" unicode="Q" horiz-adv-x="823" 
d="M517 5c20.667 -32 57.668 -47.998 111.001 -47.998c20 0 45.333 2.66699 76 8v-79c-32 -6.66699 -64 -10 -96 -10c-94.667 0 -157.334 38 -188.001 114h-8c-100.667 0 -184.334 34.167 -251.001 102.5s-100 154.166 -100 257.499c0 102.667 33.333 188.334 100 257.001
s150.334 103 251.001 103c100 0 183.333 -34.333 250 -103s100 -154.334 100 -257.001c0 -82.667 -22.5 -155.334 -67.5 -218.001s-104.167 -105 -177.5 -127zM168.001 350.002c0 -74.667 23.166 -137.167 69.499 -187.5s104.5 -75.5 174.5 -75.5s128 25.167 174 75.5
s69 112.833 69 187.5s-23.167 137.167 -69.5 187.5s-104.166 75.5 -173.499 75.5c-70 0 -128.167 -25.167 -174.5 -75.5s-69.5 -112.833 -69.5 -187.5z" />
    <glyph glyph-name="R" unicode="R" horiz-adv-x="627" 
d="M590 0l-114 0.000976562l-162 286h-130v-286h-103v700h259c67.333 0 120.833 -18.333 160.5 -55s59.5 -85.334 59.5 -146.001c0 -48.667 -12.833 -89.667 -38.5 -123s-61.167 -57 -106.5 -71zM184 609.001v-231.999h142c40 0 71.5 10.667 94.5 32
s34.5 49.666 34.5 84.999c0 36 -11.5 64.167 -34.5 84.5s-54.5 30.5 -94.5 30.5h-142z" />
    <glyph glyph-name="S" unicode="S" horiz-adv-x="609" 
d="M545 186c0 -63.333 -22.166 -111.833 -66.499 -145.5s-99.833 -50.5 -166.5 -50.5c-76.667 0 -136.667 19 -180 57s-67 90.667 -71 158h104c4.66699 -40 19.5 -70.667 44.5 -92s59.167 -32 102.5 -32c37.333 0 67.666 8.5 90.999 25.5s35 42.5 35 76.5
c0 16 -3 30.5 -9 43.5s-13.167 23.667 -21.5 32s-19.5 16.166 -33.5 23.499s-26.167 12.833 -36.5 16.5s-23.833 8.16699 -40.5 13.5l-38 11c-23.333 7.33301 -44 15.333 -62 24s-36.333 20.334 -55 35.001s-33.167 33.167 -43.5 55.5s-15.5 47.5 -15.5 75.5
c0 59.333 21.667 107 65 143s98 54 164 54c67.333 0 122 -18.833 164 -56.5s64.333 -85.834 67 -144.501h-104c-4 32.667 -16.667 59.167 -38 79.5s-51 30.5 -89 30.5c-36.667 0 -66.5 -9.33301 -89.5 -28s-34.5 -43 -34.5 -73c0 -14 3 -26.667 9 -38s12.5 -20.5 19.5 -27.5
s17.833 -13.833 32.5 -20.5s26 -11.5 34 -14.5s20.667 -7.16699 38 -12.5l33 -9c22 -7.33301 41.333 -14.666 58 -21.999s36.5 -19 59.5 -35s41 -37 54 -63s19.5 -56 19.5 -90z" />
    <glyph glyph-name="T" unicode="T" horiz-adv-x="582" 
d="M545 700v-95h-201v-605h-106v605h-201v95h508z" />
    <glyph glyph-name="U" unicode="U" horiz-adv-x="717" 
d="M636 700l-0.00195312 -433c0 -89.333 -25.167 -157.833 -75.5 -205.5s-117.166 -71.5 -200.499 -71.5s-150.666 23.833 -201.999 71.5s-77 116.167 -77 205.5v433h105v-428c0 -59.333 16 -105 48 -137s74 -48 126 -48s93.5 15.833 124.5 47.5s46.5 77.5 46.5 137.5v428
h105z" />
    <glyph glyph-name="V" unicode="V" horiz-adv-x="667" 
d="M530 700h113l-245 -700h-129l-245 700h114l192 -560h8z" />
    <glyph glyph-name="W" unicode="W" horiz-adv-x="905" 
d="M780 700h101l-155 -700h-120l-150 516h-7l-149 -516h-120l-156 700h103l116 -549h7l145 499h116l143 -499h8z" />
    <glyph glyph-name="X" unicode="X" horiz-adv-x="637" 
d="M491 0l-167 273h-7l-166 -273h-127l224 361l-213 339h126l156 -253h7l157 253h121l-213 -339l224 -361h-122z" />
    <glyph glyph-name="Y" unicode="Y" horiz-adv-x="660" 
d="M509 700h127l-253 -377v-323h-105v323l-254 377h126l176 -262h8z" />
    <glyph glyph-name="Z" unicode="Z" horiz-adv-x="622" 
d="M216 95h341v-95h-496v60l345 540v5h-326v95h472v-60l-336 -540v-5z" />
    <glyph glyph-name="bracketleft" unicode="[" horiz-adv-x="299" 
d="M81 773h194v-74h-107v-794h107v-74h-194v942z" />
    <glyph glyph-name="backslash" unicode="\" horiz-adv-x="503" 
d="M24 750h98l356 -800h-99z" />
    <glyph glyph-name="bracketright" unicode="]" horiz-adv-x="299" 
d="M218 773v-942h-194v74h107v794h-107v74h194z" />
    <glyph glyph-name="asciicircum" unicode="^" 
d="M406 360l-119 237h-7l-121 -237h-106l171 340h118l169 -340h-105z" />
    <glyph glyph-name="underscore" unicode="_" horiz-adv-x="512" 
d="M37 0h438v-87h-438v87z" />
    <glyph glyph-name="grave" unicode="`" horiz-adv-x="322" 
d="M169 700l73 -145h-81l-80 145h88z" />
    <glyph glyph-name="a" unicode="a" horiz-adv-x="536" 
d="M500 77h12.999v-77h-46c-50.667 0 -82 20.667 -94 62c-38 -48 -92.667 -72 -164 -72c-50.667 0 -91.667 12.167 -123 36.5s-47 60.166 -47 107.499c0 45.333 15.333 81 46 107s71.334 41.333 122.001 46l153 15v25c0 32 -8.5 56.667 -25.5 74s-41.167 26 -72.5 26
c-58 0 -92 -29.333 -102 -88h-101c4.66699 50.667 25 91.834 61 123.501s83.333 47.5 142 47.5c59.333 0 107.5 -16 144.5 -48s55.5 -78.333 55.5 -139v-205c0 -27.333 12.667 -41 38 -41zM359.999 192v36.999l-119 -12c-30.667 -2.66699 -55 -10.667 -73 -24
s-27 -31.666 -27 -54.999c0 -45.333 27.667 -68 83 -68c36 0 67.667 10 95 30s41 50.667 41 92z" />
    <glyph glyph-name="b" unicode="b" horiz-adv-x="603" 
d="M322 510c66.667 0 122 -23.5 166 -70.5s66 -109.833 66 -188.5c0 -78 -21.667 -141 -65 -189s-99 -72 -167 -72c-67.333 0 -120 25.667 -158 77h-7l-9 -67h-83v710h102v-268c36 45.333 87.667 68 155 68zM307 79c43.333 0 78.333 15.833 105 47.5s40 73.167 40 124.5
c0 50.667 -13.333 91.667 -40 123s-61.667 47 -105 47c-42 0 -75.833 -15.667 -101.5 -47s-38.5 -72.333 -38.5 -123c0 -52 12.667 -93.667 38 -125s59.333 -47 102 -47z" />
    <glyph glyph-name="c" unicode="c" horiz-adv-x="574" 
d="M302 -10c-76 0 -137.169 24.168 -183.502 72.501s-69.5 109.833 -69.5 184.5c0 76.667 23.833 139.667 71.5 189s107.834 74 180.501 74c59.333 0 110.833 -16.167 154.5 -48.5s69.5 -77.5 77.5 -135.5h-102c-6 27.333 -20.667 50 -44 68s-52 27 -86 27
c-44 0 -80.167 -16.5 -108.5 -49.5s-42.5 -74.5 -42.5 -124.5c0 -48.667 13.833 -88.834 41.5 -120.501s64.5 -47.5 110.5 -47.5c66.667 0 110.334 29.333 131.001 88h102c-8.66699 -54 -34.167 -97 -76.5 -129s-94.5 -48 -156.5 -48z" />
    <glyph glyph-name="d" unicode="d" horiz-adv-x="603" 
d="M436 710h102v-710h-83l-9 67h-7c-38 -51.333 -90.667 -77 -158 -77c-68 0 -123.667 24 -167 72s-65 111 -65 189c0 78.667 22 141.5 66 188.5s99.333 70.5 166 70.5c67.333 0 119 -22.667 155 -68v268zM296 79c42.667 0 76.667 15.667 102 47s38 73 38 125
c0 50.667 -12.833 91.667 -38.5 123s-59.5 47 -101.5 47c-43.333 0 -78.333 -15.667 -105 -47s-40 -72.333 -40 -123c0 -51.333 13.333 -92.833 40 -124.5s61.667 -47.5 105 -47.5z" />
    <glyph glyph-name="e" unicode="e" horiz-adv-x="571" 
d="M521 257c0 -4.66699 -0.666992 -15.668 -2 -33.001h-370c2.66699 -45.333 17 -81.833 43 -109.5s60.667 -41.5 104 -41.5c67.333 0 109 25.667 125 77h98c-10.667 -50 -35.667 -89.167 -75 -117.5s-88.666 -42.5 -147.999 -42.5c-72.667 0 -132 23.333 -178 70
s-69 108.334 -69 185.001c0 80 23.167 144.167 69.5 192.5s104.166 72.5 173.499 72.5c65.333 0 119.833 -21.667 163.5 -65s65.5 -106 65.5 -188zM292 426.999c-38.667 0 -70.668 -12.333 -96.001 -37s-40.666 -56 -45.999 -94h272c-0.666992 38.667 -13 70.167 -37 94.5
s-55 36.5 -93 36.5z" />
    <glyph glyph-name="f" unicode="f" horiz-adv-x="372" 
d="M224 564l0.000976562 -64.001h121v-82h-121v-418h-102v418h-104v82h104v72c0 44.667 13.167 78.834 39.5 102.501s62.166 35.5 107.499 35.5c29.333 0 57.333 -5.33301 84 -16l-18 -75c-14 5.33301 -30 8 -48 8c-42 0 -63 -21 -63 -63z" />
    <glyph glyph-name="g" unicode="g" horiz-adv-x="544" 
d="M525 493c-18 -21.333 -45.6689 -41.001 -83.002 -59.001c21.333 -27.333 32 -59.333 32 -96c0 -52 -18.667 -93.333 -56 -124s-84.333 -46 -141 -46c-33.333 0 -63 5 -89 15c-19.333 -10 -29 -23.667 -29 -41c0 -28.667 23.333 -43 70 -43h99
c56.667 0 100.334 -12.667 131.001 -38s46 -60.333 46 -105c0 -52 -20.333 -92.667 -61 -122s-95 -44 -163 -44c-72 0 -127.5 16 -166.5 48s-60.833 72.667 -65.5 122l80 69c-41.333 17.333 -62 48 -62 92c0 40 21.667 71.667 65 95c-36 30.667 -54 71.334 -54 122.001
c0 50 17.833 91.167 53.5 123.5s82.834 48.5 141.501 48.5c44 0 82.333 -9.66699 115 -29c32 16.667 59.667 40 83 70zM276.998 244.999c30 0 54 8.66895 72 26.002s27 39.666 27 66.999c0 28.667 -9 51.834 -27 69.501s-42 26.5 -72 26.5
c-30.667 0 -55.334 -8.83301 -74.001 -26.5s-28 -40.834 -28 -69.501c0 -26.667 9.33301 -48.834 28 -66.501s43.334 -26.5 74.001 -26.5zM406.998 -48.999c0 23.333 -9 40.333 -27 51s-39.333 16 -64 16h-91l-77 -65c16 -56.667 60.333 -85 133 -85c36 0 66 7 90 21
s36 34.667 36 62z" />
    <glyph glyph-name="h" unicode="h" horiz-adv-x="572" 
d="M320 510c56.667 0 101.999 -17.499 135.999 -52.499s51 -84.167 51 -147.5v-310h-102v288c0 44 -10.5 77.167 -31.5 99.5s-48.5 33.5 -82.5 33.5c-35.333 0 -64.833 -11.833 -88.5 -35.5s-35.5 -58.834 -35.5 -105.501v-280h-102v710h102v-270h7
c34.667 46.667 83.334 70 146.001 70z" />
    <glyph glyph-name="i" unicode="i" horiz-adv-x="231" 
d="M116 574c-18 0 -33.5 6.5 -46.5 19.5s-19.5 28.167 -19.5 45.5c0 18 6.5 33.167 19.5 45.5s28.5 18.5 46.5 18.5c17.333 0 32.333 -6.16699 45 -18.5s19 -27.5 19 -45.5c0 -17.333 -6.33301 -32.5 -19 -45.5s-27.667 -19.5 -45 -19.5zM65 0v500h102v-500h-102z" />
    <glyph glyph-name="j" unicode="j" horiz-adv-x="231" 
d="M116 574c-18 0 -33.5 6.5 -46.5 19.5s-19.5 28.167 -19.5 45.5c0 18 6.5 33.167 19.5 45.5s28.5 18.5 46.5 18.5c17.333 0 32.333 -6.16699 45 -18.5s19 -27.5 19 -45.5c0 -17.333 -6.33301 -32.5 -19 -45.5s-27.667 -19.5 -45 -19.5zM28 -210
c-23.333 0 -49.667 3.66699 -79 11v77c17.333 -4.66699 34 -7 50 -7c44 0 66 21 66 63v566h102v-579c0 -36 -10.167 -66.833 -30.5 -92.5s-56.5 -38.5 -108.5 -38.5z" />
    <glyph glyph-name="k" unicode="k" horiz-adv-x="523" 
d="M503 500l-205 -201l205 -299h-113l-161 231l-62 -61v-170h-102v710h102v-410h7l206 200h123z" />
    <glyph glyph-name="l" unicode="l" horiz-adv-x="231" 
d="M65 0v710h102v-710h-102z" />
    <glyph glyph-name="m" unicode="m" horiz-adv-x="836" 
d="M65 0l-0.00195312 499.999h92l10 -59h7c32 46 77.333 69 136 69c64.667 0 109.334 -28.333 134.001 -85h7c34 56.667 85.667 85 155 85c50.667 0 91 -15.167 121 -45.5s45 -74.5 45 -132.5v-332h-102v312c0 36 -9 63.167 -27 81.5s-41 27.5 -69 27.5
c-31.333 0 -56.666 -11 -75.999 -33s-29 -51 -29 -87v-301h-102v307c0 36.667 -9 64.834 -27 84.501s-41 29.5 -69 29.5s-52.333 -10.167 -73 -30.5s-31 -49.5 -31 -87.5v-303h-102z" />
    <glyph glyph-name="n" unicode="n" horiz-adv-x="572" 
d="M65 0l-0.000976562 500.001h92l10 -60h7c34.667 46.667 83.334 70 146.001 70c56.667 0 102 -17.5 136 -52.5s51 -84.167 51 -147.5v-310h-102v288c0 44 -10.5 77.167 -31.5 99.5s-48.5 33.5 -82.5 33.5c-35.333 0 -64.833 -11.833 -88.5 -35.5
s-35.5 -58.834 -35.5 -105.501v-280h-102z" />
    <glyph glyph-name="o" unicode="o" horiz-adv-x="610" 
d="M304 -10c-73.333 0 -134.167 24.667 -182.5 74s-72.5 111.333 -72.5 186c0 76 24 138.333 72 187s109 73 183 73s135.333 -24.5 184 -73.5s73 -111.167 73 -186.5s-24.333 -137.5 -73 -186.5s-110 -73.5 -184 -73.5zM303.999 79c45.333 0 82.667 16.668 112 50.001
s44 73.666 44 120.999c0 48 -14.5 88.5 -43.5 121.5s-66.5 49.5 -112.5 49.5c-45.333 0 -82.333 -16.5 -111 -49.5s-43 -73.5 -43 -121.5s14.333 -88.5 43 -121.5s65.667 -49.5 111 -49.5z" />
    <glyph glyph-name="p" unicode="p" horiz-adv-x="603" 
d="M322 510c68 0 123.667 -24 167 -72s65 -111 65 -189c0 -78.667 -22 -141.5 -66 -188.5s-99.333 -70.5 -166 -70.5c-67.333 0 -119 22.667 -155 68v-258h-102v700h83l9 -67h7c38 51.333 90.667 77 158 77zM307 79c43.333 0 78.333 15.667 105 47s40 72.333 40 123
c0 51.333 -13.333 92.833 -40 124.5s-61.667 47.5 -105 47.5c-42.667 0 -76.667 -15.667 -102 -47s-38 -73 -38 -125c0 -50.667 12.833 -91.667 38.5 -123s59.5 -47 101.5 -47z" />
    <glyph glyph-name="q" unicode="q" horiz-adv-x="603" 
d="M455 500h83v-700h-102v258c-36 -45.333 -87.667 -68 -155 -68c-66.667 0 -122 23.5 -166 70.5s-66 109.833 -66 188.5c0 78 21.667 141 65 189s99 72 167 72c67.333 0 120 -25.667 158 -77h7zM296 79c42 0 75.833 15.667 101.5 47s38.5 72.333 38.5 123
c0 52 -12.667 93.667 -38 125s-59.333 47 -102 47c-43.333 0 -78.333 -15.833 -105 -47.5s-40 -73.167 -40 -124.5c0 -50.667 13.333 -91.667 40 -123s61.667 -47 105 -47z" />
    <glyph glyph-name="r" unicode="r" horiz-adv-x="369" 
d="M65 0l0.00195312 500h92l10 -70h7c15.333 26.667 33.666 46.667 54.999 60s51.333 20 90 20h32v-102c-16 2 -32.333 3 -49 3c-44.667 0 -78.334 -15 -101.001 -45s-34 -68 -34 -114v-252h-102z" />
    <glyph glyph-name="s" unicode="s" horiz-adv-x="486" 
d="M254 -10c-64.667 0 -114.333 14.834 -149 44.501s-53.334 69.834 -56.001 120.501h98c5.33301 -58 40.666 -87 105.999 -87c25.333 0 46.166 5.16699 62.499 15.5s24.5 26.166 24.5 47.499c0 22.667 -8.5 40 -25.5 52s-41.167 22.333 -72.5 31l-39 10
c-19.333 5.33301 -35.666 10.666 -48.999 15.999s-27.666 13.166 -42.999 23.499s-27 24 -35 41s-12 36.833 -12 59.5c0 44.667 17 80.167 51 106.5s75.667 39.5 125 39.5c59.333 0 104.833 -14.167 136.5 -42.5s48.834 -62.833 51.501 -103.5h-98
c-2.66699 20.667 -11.834 37.167 -27.501 49.5s-36.167 18.5 -61.5 18.5c-22.667 0 -41.5 -5.5 -56.5 -16.5s-22.5 -26.5 -22.5 -46.5s7.33301 -34.667 22 -44s37.334 -18.333 68.001 -27l38 -10c45.333 -12 81.333 -29.833 108 -53.5s40 -57.167 40 -100.5
c0 -47.333 -17.333 -83.166 -52 -107.499s-78.667 -36.5 -132 -36.5z" />
    <glyph glyph-name="t" unicode="t" horiz-adv-x="373" 
d="M263 -10c-91.333 0 -136.999 43.668 -136.999 131.001v297h-108v82h35c29.333 0 50.166 5.66699 62.499 17s18.5 30.666 18.5 57.999v61h93v-136h127v-82h-127v-283c0 -42 21.667 -63 65 -63c16.667 0 33 2.66699 49 8v-79c-28 -7.33301 -54 -11 -78 -11z" />
    <glyph glyph-name="u" unicode="u" horiz-adv-x="572" 
d="M507 500l0.000976562 -500.001h-92l-10 60h-7c-34.667 -46.667 -83.334 -70 -146.001 -70c-56.667 0 -102 17.5 -136 52.5s-51 84.167 -51 147.5v310h102v-288c0 -44 10.5 -77.167 31.5 -99.5s48.5 -33.5 82.5 -33.5c35.333 0 64.833 11.833 88.5 35.5
s35.5 58.834 35.5 105.501v280h102z" />
    <glyph glyph-name="v" unicode="v" horiz-adv-x="545" 
d="M211 0l-192 500h106l145 -394h7l144 394h105l-191 -500h-124z" />
    <glyph glyph-name="w" unicode="w" horiz-adv-x="741" 
d="M149 0l-130 500h96l91 -383h7l103 348h110l103 -349h7l91 384h95l-131 -500h-115l-101 353h-8l-103 -353h-115z" />
    <glyph glyph-name="x" unicode="x" horiz-adv-x="515" 
d="M19 0l174 258l-161 242h116l107 -163h7l105 163h115l-159 -242l173 -258h-117l-117 181h-7l-119 -181h-117z" />
    <glyph glyph-name="y" unicode="y" horiz-adv-x="545" 
d="M136 -210c-20.667 0 -45.667 3.66699 -75 11v77c21.333 -4.66699 39 -7 53 -7c52.667 0 89 24 109 72l22 57h-33l-193 500h106l148 -395h8l139 395h106l-208 -572c-31.333 -92 -92 -138 -182 -138z" />
    <glyph glyph-name="z" unicode="z" horiz-adv-x="489" 
d="M49 0v51l246 363v6h-233v80h372v-51l-245 -363v-6h250v-80h-390z" />
    <glyph glyph-name="braceleft" unicode="{" horiz-adv-x="288" 
d="M184 414c0 -51.333 -22.667 -87.668 -68 -109.001v-6c45.333 -21.333 68 -57.666 68 -108.999v-225c0 -40 18 -60 54 -60h25v-74h-42c-40 0 -70.5 10.333 -91.5 31s-31.5 50.667 -31.5 90v229c0 27.333 -5.66699 48 -17 62s-30.333 22.333 -57 25v68
c26.667 2.66699 45.667 11 57 25s17 34.667 17 62v229c0 39.333 10.5 69.333 31.5 90s51.5 31 91.5 31h42v-74h-25c-36 0 -54 -20 -54 -60v-225z" />
    <glyph glyph-name="bar" unicode="|" horiz-adv-x="255" 
d="M174 770v-910h-93v910h93z" />
    <glyph glyph-name="braceright" unicode="}" horiz-adv-x="288" 
d="M104 414v225.002c0 40 -18 60 -54 60h-25v74h42c40 0 70.5 -10.333 91.5 -31s31.5 -50.667 31.5 -90v-229c0 -27.333 5.66699 -48 17 -62s30.333 -22.333 57 -25v-68c-26.667 -2.66699 -45.667 -11 -57 -25s-17 -34.667 -17 -62v-229c0 -39.333 -10.5 -69.333 -31.5 -90
s-51.5 -31 -91.5 -31h-42v74h25c36 0 54 20 54 60v225c0 51.333 22.667 87.666 68 108.999v6c-45.333 21.333 -68 57.666 -68 108.999z" />
    <glyph glyph-name="asciitilde" unicode="~" 
d="M542 361c-4 -49.333 -18.667 -90.666 -44 -123.999s-60.666 -50 -105.999 -50c-27.333 0 -51.833 5.33301 -73.5 16s-38.334 22.334 -50.001 35.001s-25.167 24.334 -40.5 35.001s-31.333 16 -48 16c-43.333 0 -68 -29.667 -74 -89h-83
c4.66699 49.333 19.667 90.666 45 123.999s60.666 50 105.999 50c27.333 0 51.833 -5.33301 73.5 -16s38.334 -22.334 50.001 -35.001s25.167 -24.334 40.5 -35.001s31 -16 47 -16c44 0 69 29.667 75 89h82z" />
    <glyph glyph-name="uni00A0" unicode="&#xa0;" horiz-adv-x="250" 
 />
    <glyph glyph-name="exclamdown" unicode="&#xa1;" horiz-adv-x="267" 
d="M133 505c18 0 33.5 -6.5 46.5 -19.5s19.5 -28.167 19.5 -45.5c0 -18.667 -6.5 -34.334 -19.5 -47.001s-28.5 -19 -46.5 -19s-33.333 6.33301 -46 19s-19 28.334 -19 47.001c0 17.333 6.33301 32.5 19 45.5s28 19.5 46 19.5zM187 -200h-105l16 502h72z" />
    <glyph glyph-name="cent" unicode="&#xa2;" horiz-adv-x="538" 
d="M506 243c-7.33301 -46 -27.999 -83.6699 -61.999 -113.003s-76.333 -46.666 -127 -51.999v-77h-85v80c-57.333 10.667 -103 37.834 -137 81.501s-51 96.167 -51 157.5c0 62.667 17.333 116.167 52 160.5s80 72.166 136 83.499v77h85v-74
c49.333 -6 91.166 -23.833 125.499 -53.5s55.166 -69.167 62.499 -118.5h-97c-5.33301 20.667 -16 38.834 -32 54.501s-35.667 25.834 -59 30.501v-316c46.667 8 77.334 34.333 92.001 79h97zM141.001 319.997c0 -36 8 -67.332 24 -93.999s38.333 -45.334 67 -56.001v304
c-28 -11.333 -50.167 -30.833 -66.5 -58.5s-24.5 -59.5 -24.5 -95.5z" />
    <glyph glyph-name="sterling" unicode="&#xa3;" horiz-adv-x="612" 
d="M224 88v-5.00098h322v-83h-485v63c39.333 13.333 72.833 33.5 100.5 60.5s41.5 59.167 41.5 96.5c0 16.667 -2.66699 32.334 -8 47.001h-134v75h89c-33.333 46.667 -50 88.667 -50 126c0 57.333 22.333 102 67 134s99.667 48 165 48c50.667 0 94.5 -10.333 131.5 -31
s64.5 -47 82.5 -79l-70 -57c-34 52 -80.667 78 -140 78c-38 0 -68.5 -9.33301 -91.5 -28s-34.5 -43.334 -34.5 -74.001c0 -11.333 2.33301 -22.833 7 -34.5s8.66699 -20.167 12 -25.5s10.833 -15.5 22.5 -30.5l20.5 -26.5h202v-75h-165c2.66699 -10 4 -22.333 4 -37
c0 -55.333 -29.667 -102.666 -89 -141.999z" />
    <glyph glyph-name="currency" unicode="&#xa4;" horiz-adv-x="620" 
d="M528 250c0 -44 -11.999 -84.332 -35.999 -120.999l79 -77l-63 -62l-79 78c-36 -23.333 -75.667 -35 -119 -35c-44 0 -84.333 12 -121 36l-79 -79l-61 62l78 78c-24 35.333 -36 75.333 -36 120c0 43.333 11.667 83.666 35 120.999l-77 77l61 62l79 -78
c37.333 23.333 77.666 35 120.999 35s83 -11.667 119 -35l79 78l63 -62l-79 -77c24 -36.667 36 -77 36 -121zM310.001 125.001c34.667 0 64.165 12.5 88.498 37.5s36.5 54.167 36.5 87.5c0 34 -12.167 63.333 -36.5 88s-53.833 37 -88.5 37
c-35.333 0 -65.166 -12.333 -89.499 -37s-36.5 -54 -36.5 -88c0 -33.333 12.333 -62.5 37 -87.5s54.334 -37.5 89.001 -37.5z" />
    <glyph glyph-name="yen" unicode="&#xa5;" horiz-adv-x="602" 
d="M578 640l-166 -236h127v-80h-182v-100h182v-79h-182v-145h-111v145h-182v79h182v100h-182v80h127l-167 236h121l153 -218h7l152 218h121z" />
    <glyph glyph-name="brokenbar" unicode="&#xa6;" horiz-adv-x="255" 
d="M81 770h93v-355h-93v355zM81 -140v355h93v-355h-93z" />
    <glyph glyph-name="section" unicode="&#xa7;" horiz-adv-x="608" 
d="M431 98c68 -26 102.003 -70.333 102.003 -133c0 -54 -21.833 -96.667 -65.5 -128s-99.167 -47 -166.5 -47c-74 0 -132.333 18.833 -175 56.5s-63.334 84.167 -62.001 139.5h97c1.33301 -31.333 14.666 -57.333 39.999 -78s59.333 -31 102 -31
c38.667 0 69.834 7.83301 93.501 23.5s35.5 37.167 35.5 64.5c0 16.667 -4.33301 31 -13 43s-21.834 21.333 -39.501 28s-33.334 11.5 -47.001 14.5s-31.834 6.16699 -54.501 9.5c-144.667 22.667 -217 85 -217 187c0 38 11.167 69.5 33.5 94.5s49.833 43.167 82.5 54.5v6
c-68 26 -102 70.333 -102 133c0 54.667 21.667 97.5 65 128.5s99 46.5 167 46.5c74 0 132.333 -18.833 175 -56.5s63.334 -84.167 62.001 -139.5h-98c-1.33301 32 -14.5 58.333 -39.5 79s-58.833 31 -101.5 31c-38.667 0 -70 -8 -94 -24s-36 -37.667 -36 -65
c0 -13.333 3.33301 -25.333 10 -36s14.5 -19 23.5 -25s21.5 -11.5 37.5 -16.5s29.333 -8.5 40 -10.5s25 -4.33301 43 -7c145.333 -22.667 218 -85 218 -187c0 -37.333 -11.333 -68.5 -34 -93.5s-50 -43.5 -82 -55.5v-6zM313.003 142c38 0 69.5 9.83301 94.5 29.5
s37.5 45.5 37.5 77.5c0 32.667 -15 59 -45 79s-65 30 -105 30c-38 0 -69.5 -9.66699 -94.5 -29s-37.5 -45.333 -37.5 -78s15 -59 45 -79s65 -30 105 -30z" />
    <glyph glyph-name="dieresis" unicode="&#xa8;" horiz-adv-x="470" 
d="M141 553c-16.667 0 -30.834 6 -42.501 18s-17.5 26.333 -17.5 43s5.83301 30.667 17.5 42s25.834 17 42.501 17s30.834 -5.66699 42.501 -17s17.5 -25.333 17.5 -42s-5.83301 -31 -17.5 -43s-25.834 -18 -42.501 -18zM330 553c-16 0 -29.833 6 -41.5 18
s-17.5 26.333 -17.5 43s5.83301 30.667 17.5 42s25.5 17 41.5 17c16.667 0 30.834 -5.66699 42.501 -17s17.5 -25.333 17.5 -42s-5.83301 -31 -17.5 -43s-25.834 -18 -42.501 -18z" />
    <glyph glyph-name="copyright" unicode="&#xa9;" horiz-adv-x="847" 
d="M424 -10c-100 0 -185.5 35 -256.5 105s-106.5 155 -106.5 255s35.5 185 106.5 255s156.5 105 256.5 105c99.333 0 184.5 -35 255.5 -105s106.5 -155 106.5 -255s-35.5 -185 -106.5 -255s-156.167 -105 -255.5 -105zM423 55c81.333 0 151 28.667 209 86s87 127 87 209
s-29 151.667 -87 209s-127.667 86 -209 86s-150.666 -28.667 -207.999 -86s-86 -127 -86 -209s28.667 -151.667 86 -209s126.666 -86 207.999 -86zM576 289c-4 -38 -20.3359 -67.5 -49.0029 -88.5s-62.667 -31.5 -102 -31.5c-51.333 0 -91.833 16.333 -121.5 49
s-44.5 76.334 -44.5 131.001c0 53.333 15.333 96.666 46 129.999s70 50 118 50c39.333 0 72.5 -10.167 99.5 -30.5s43.167 -50.833 48.5 -91.5h-78c-9.33301 36 -32.666 54 -69.999 54c-25.333 0 -45.666 -10.5 -60.999 -31.5s-23 -48.5 -23 -82.5
s7.83301 -60.833 23.5 -80.5s36.834 -29.5 63.501 -29.5c18.667 0 34.5 4.83301 47.5 14.5s21.167 22.167 24.5 37.5h78z" />
    <glyph glyph-name="guillemotleft" unicode="&#xab;" horiz-adv-x="551" 
d="M157 500h113l-134 -202l134 -202h-113l-133 202zM389 500h113l-134 -202l134 -202h-113l-133 202z" />
    <glyph glyph-name="logicalnot" unicode="&#xac;" 
d="M499 142h-88v192h-356v80h444v-272z" />
    <glyph glyph-name="uni00AD" unicode="&#xad;" horiz-adv-x="446" 
d="M37 354h372v-86h-372v86z" />
    <glyph glyph-name="registered" unicode="&#xae;" horiz-adv-x="847" 
d="M424 710c99.333 0 184.5 -35 255.5 -105s106.5 -155 106.5 -255s-35.5 -185 -106.5 -255s-156.167 -105 -255.5 -105c-100 0 -185.5 35 -256.5 105s-106.5 155 -106.5 255s35.5 185 106.5 255s156.5 105 256.5 105zM423 55c81.333 0 151 28.667 209 86s87 127 87 209
s-29 151.667 -87 209s-127.667 86 -209 86s-150.666 -28.667 -207.999 -86s-86 -127 -86 -209s28.667 -151.667 86 -209s126.666 -86 207.999 -86zM550 418c0 -46 -20.667 -78 -62 -96l80 -147h-76l-71 132h-49v-132h-70v350h138c34 0 60.833 -9.66699 80.5 -29
s29.5 -45.333 29.5 -78zM372 464v-96h56c16 0 28.5 4.5 37.5 13.5s13.5 20.833 13.5 35.5c0 14 -4.5 25.333 -13.5 34s-21.5 13 -37.5 13h-56z" />
    <glyph glyph-name="macron" unicode="&#xaf;" horiz-adv-x="474" 
d="M81 649h312v-72h-312v72z" />
    <glyph glyph-name="degree" unicode="&#xb0;" horiz-adv-x="422" 
d="M211 387c-44.667 0 -82.834 15.667 -114.501 47s-47.5 69.666 -47.5 114.999c0 44.667 15.833 82.667 47.5 114s69.834 47 114.501 47c44 0 82 -15.667 114 -47s48 -69.333 48 -114c0 -45.333 -16 -83.666 -48 -114.999s-70 -47 -114 -47zM211 464
c24.667 0 44.834 8 60.501 24s23.5 36.333 23.5 61s-7.83301 44.834 -23.5 60.501s-35.834 23.5 -60.501 23.5s-45 -7.83301 -61 -23.5s-24 -35.834 -24 -60.501s8 -45 24 -61s36.333 -24 61 -24z" />
    <glyph glyph-name="plusminus" unicode="&#xb1;" 
d="M328 394h177v-80h-177v-166h-91v166h-178v80h178v164h91v-164zM59 0v84h446v-84h-446z" />
    <glyph glyph-name="uni00B2" unicode="&#xb2;" horiz-adv-x="342" 
d="M170 470c-31.333 -20 -48.999 -43.667 -52.999 -71h190v-58h-273v24c0 62 28.333 111 85 147l63 38c11.333 7.33301 19.833 13.333 25.5 18s11.667 11.667 18 21s9.5 19.333 9.5 30c0 15.333 -5.5 28 -16.5 38s-25.167 15 -42.5 15
c-20.667 0 -36.834 -6.66699 -48.501 -20s-18.167 -28.333 -19.5 -45h-73c2 32 15.5 60.667 40.5 86s59.833 38 104.5 38c38 0 68.833 -9.83301 92.5 -29.5s35.5 -46.167 35.5 -79.5c0 -20 -5 -38.333 -15 -55s-18.5 -27.667 -25.5 -33s-17.167 -12.333 -30.5 -21z" />
    <glyph glyph-name="uni00B3" unicode="&#xb3;" horiz-adv-x="360" 
d="M259 538c20.667 -6.66699 36.835 -17.833 48.502 -33.5s17.5 -34.167 17.5 -55.5c0 -32.667 -13.833 -59.834 -41.5 -81.501s-63.167 -32.5 -106.5 -32.5c-42.667 0 -76.334 10.5 -101.001 31.5s-38.667 49.833 -42 86.5h70c6.66699 -39.333 31 -59 73 -59
c22.667 0 41 5.33301 55 16s21 24.667 21 42s-6.66699 31.333 -20 42s-31 16 -53 16h-39v53h37c19.333 0 34.833 5 46.5 15s17.5 23.667 17.5 41c0 16.667 -6 29.834 -18 39.501s-27.667 14.5 -47 14.5c-16.667 0 -31.334 -4.5 -44.001 -13.5s-21 -21.5 -25 -37.5h-68
c2 32 16.667 58 44 78s59.333 30 96 30s68 -9.66699 94 -29s39 -45.333 39 -78c0 -36.667 -18 -63.667 -54 -81v-4z" />
    <glyph glyph-name="acute" unicode="&#xb4;" horiz-adv-x="322" 
d="M153 700h89l-81 -145h-80z" />
    <glyph glyph-name="uni00B5" unicode="&#xb5;" horiz-adv-x="572" 
d="M405 500l102 -0.000976562v-500h-92l-10 60h-7c-34.667 -46.667 -83.667 -70 -147 -70c-34 0 -63.333 8 -88 24v-214h-98v700h102v-288c0 -44 10.5 -77.167 31.5 -99.5s48.5 -33.5 82.5 -33.5c35.333 0 64.833 11.833 88.5 35.5s35.5 58.834 35.5 105.501v280z" />
    <glyph glyph-name="paragraph" unicode="&#xb6;" horiz-adv-x="684" 
d="M49 512c0 55.333 19.668 100.5 59.001 135.5s88.666 52.5 147.999 52.5h391v-89h-89v-611h-95v611h-111v-611h-96v323c-58 0 -107 17.5 -147 52.5s-60 80.5 -60 136.5z" />
    <glyph glyph-name="periodcentered" unicode="&#xb7;" horiz-adv-x="204" 
d="M103 245c-18 0 -33.5 6.5 -46.5 19.5s-19.5 28.167 -19.5 45.5c0 18.667 6.5 34.5 19.5 47.5s28.5 19.5 46.5 19.5c17.333 0 32.5 -6.5 45.5 -19.5s19.5 -28.833 19.5 -47.5c0 -17.333 -6.5 -32.5 -19.5 -45.5s-28.167 -19.5 -45.5 -19.5z" />
    <glyph glyph-name="cedilla" unicode="&#xb8;" horiz-adv-x="340" 
d="M100 -144c19.333 -11.333 37.332 -17.001 53.999 -17.001c14.667 0 26.167 3.5 34.5 10.5s12.5 16.167 12.5 27.5c0 25.333 -16 38 -48 38c-9.33301 0 -20.666 -2.66699 -33.999 -8l-34 28l50 75h56v-10l-31 -44c26 1.33301 49.167 -5.16699 69.5 -19.5
s30.5 -35.166 30.5 -62.499c0 -26 -9.16699 -46.5 -27.5 -61.5s-43.833 -22.5 -76.5 -22.5c-28.667 0 -53.667 7.33301 -75 22z" />
    <glyph glyph-name="uni00B9" unicode="&#xb9;" horiz-adv-x="241" 
d="M119 340v258h-85v57h40c34.667 0 52 17 52 51v19h63v-385h-70z" />
    <glyph glyph-name="guillemotright" unicode="&#xbb;" horiz-adv-x="551" 
d="M162 96h-113l134 202l-134 202h113l133 -202zM394 96h-113l134 202l-134 202h113l133 -202z" />
    <glyph glyph-name="onequarter" unicode="&#xbc;" horiz-adv-x="847" 
d="M165 315v258h-84v57h39c35.333 0 53 17 53 51v19h63v-385h-71zM704 700l-500 -700h-83l500 700h83zM766 138v-53h-71v-85h-66v85h-187v35l182 265h71v-247h71zM522 138h107v155h-5z" />
    <glyph glyph-name="onehalf" unicode="&#xbd;" horiz-adv-x="883" 
d="M165 315v258h-84v57h39c35.333 0 53 17 53 51v19h63v-385h-71zM705 700l-501 -700h-83l500 700h84zM664 129c-31.333 -20 -48.999 -43.667 -52.999 -71h190v-58h-273v24c0 62 28.333 111 85 147l63 38c11.333 7.33301 19.833 13.333 25.5 18s11.667 11.667 18 21
s9.5 19.333 9.5 30c0 15.333 -5.5 28 -16.5 38s-25.167 15 -42.5 15c-20.667 0 -36.834 -6.66699 -48.501 -20s-18.167 -28.333 -19.5 -45h-73c2 32 15.5 60.667 40.5 86s59.833 38 104.5 38c38 0 68.833 -9.83301 92.5 -29.5s35.5 -46.167 35.5 -79.5
c0 -20 -5 -38.333 -15 -55s-18.5 -27.667 -25.5 -33s-17.167 -12.333 -30.5 -21z" />
    <glyph glyph-name="threequarters" unicode="&#xbe;" horiz-adv-x="919" 
d="M306 513c20.667 -6.66699 36.834 -17.832 48.501 -33.499s17.5 -34.167 17.5 -55.5c0 -32.667 -13.833 -59.834 -41.5 -81.501s-63.167 -32.5 -106.5 -32.5c-42.667 0 -76.334 10.5 -101.001 31.5s-38.667 49.833 -42 86.5h70c6.66699 -39.333 31 -59 73 -59
c22 0 40.167 5.5 54.5 16.5s21.5 24.833 21.5 41.5c0 17.333 -6.66699 31.333 -20 42s-31 16 -53 16h-39v53h36c19.333 0 35 5 47 15s18 23.667 18 41c0 16 -6 29 -18 39s-27.667 15 -47 15c-17.333 0 -32.333 -4.5 -45 -13.5s-20.667 -21.5 -24 -37.5h-69
c2 32 16.667 58 44 78s59.666 30 96.999 30c36.667 0 67.834 -9.66699 93.501 -29s38.5 -45.333 38.5 -78c0 -36 -17.667 -63 -53 -81v-4zM777 700.002l-500 -700h-83l500 700h83zM838 138.002v-53h-71v-85h-66v85h-188v35l183 265h71v-247h71zM594 138.002h107v155h-5z" />
    <glyph glyph-name="questiondown" unicode="&#xbf;" horiz-adv-x="462" 
d="M248 505c18 0 33.5 -6.5 46.5 -19.5s19.5 -28.167 19.5 -45.5c0 -18.667 -6.5 -34.334 -19.5 -47.001s-28.5 -19 -46.5 -19s-33.333 6.33301 -46 19s-19 28.334 -19 47.001c0 17.333 6.33301 32.5 19 45.5s28 19.5 46 19.5zM297 255
c0 -39.333 -5.83203 -72.8281 -17.499 -100.495s-34.5 -54.167 -68.5 -79.5c-31.333 -24 -52.5 -43.5 -63.5 -58.5s-16.5 -33.5 -16.5 -55.5c0 -26 7.83301 -46.5 23.5 -61.5s38.167 -22.5 67.5 -22.5c30.667 0 54 9.16699 70 27.5s25.667 41.166 29 68.499h93
c-2 -48.667 -18.5 -91.334 -49.5 -128.001s-78.5 -55 -142.5 -55c-58 0 -103.333 14.833 -136 44.5s-49 70.5 -49 122.5c0 36 7.66699 65.667 23 89s40.666 48.666 75.999 75.999c24.667 19.333 42.167 39.666 52.5 60.999s15.5 47.666 15.5 78.999v40h93v-47z" />
    <glyph glyph-name="Agrave" unicode="&#xc0;" horiz-adv-x="671" 
d="M376 755h-80l-80 145h88zM533 0l-62 183h-272l-62 -183h-113l247 700h129l246 -700h-113zM228 272h214l-103 305h-8z" />
    <glyph glyph-name="Aacute" unicode="&#xc1;" horiz-adv-x="671" 
d="M456 900l-80 -145h-80l72 145h88zM533 0l-62 183h-272l-62 -183h-113l247 700h129l246 -700h-113zM228 272h214l-103 305h-8z" />
    <glyph glyph-name="Acircumflex" unicode="&#xc2;" horiz-adv-x="671" 
d="M332 839l-56 -83h-89l104 144h88l105 -144h-89l-57 83h-6zM533 0l-62 183h-272l-62 -183h-113l247 700h129l246 -700h-113zM228 272h214l-103 305h-8z" />
    <glyph glyph-name="Atilde" unicode="&#xc3;" horiz-adv-x="671" 
d="M273 809c-25.333 0 -40.668 -18.333 -46.001 -55h-70c2.66699 36 13.167 66 31.5 90s43.5 36 75.5 36c18 0 34.167 -3.16699 48.5 -9.5s25.166 -13.5 32.499 -21.5s15.833 -15.167 25.5 -21.5s19.5 -9.5 29.5 -9.5c27.333 0 42.333 17.667 45 53h70
c-2 -35.333 -12.167 -65 -30.5 -89s-43.166 -36 -74.499 -36c-22 0 -41.167 5.33301 -57.5 16s-30.666 21.167 -42.999 31.5s-24.5 15.5 -36.5 15.5zM532.998 0l-62 183h-272l-62 -183h-113l247 700h129l246 -700h-113zM227.998 272h214l-103 305h-8z" />
    <glyph glyph-name="Adieresis" unicode="&#xc4;" horiz-adv-x="671" 
d="M220 762c-18 0 -33.667 6.33398 -47 19.001s-20 28 -20 46s6.66699 33.5 20 46.5s29 19.5 47 19.5s33.5 -6.33301 46.5 -19s19.5 -28.334 19.5 -47.001c0 -18 -6.5 -33.333 -19.5 -46s-28.5 -19 -46.5 -19zM453 762.001c-17.333 0 -32.5 6.33398 -45.5 19.001
s-19.5 28 -19.5 46s6.33301 33.5 19 46.5s28 19.5 46 19.5s33.5 -6.33301 46.5 -19s19.5 -28.334 19.5 -47.001c0 -18 -6.5 -33.333 -19.5 -46s-28.5 -19 -46.5 -19zM533 0.00195312l-62 183h-272l-62 -183h-113l247 700h129l246 -700h-113zM228 272.002h214l-103 305h-8z
" />
    <glyph glyph-name="Aring" unicode="&#xc5;" horiz-adv-x="671" 
d="M335 738c-26.667 0 -49.667 9.66699 -69 29s-29 42 -29 68s9.66699 48.5 29 67.5s42.333 28.5 69 28.5s49.834 -9.5 69.501 -28.5s29.5 -41.5 29.5 -67.5s-9.83301 -48.667 -29.5 -68s-42.834 -29 -69.501 -29zM336 873c-10.667 0 -19.834 -3.83301 -27.501 -11.5
s-11.5 -16.5 -11.5 -26.5c0 -11.333 3.83301 -20.833 11.5 -28.5s16.834 -11.5 27.501 -11.5s19.834 4 27.501 12s11.5 17.333 11.5 28c0 10 -3.83301 18.833 -11.5 26.5s-16.834 11.5 -27.501 11.5zM533 0l-62 183h-272l-62 -183h-113l247 700h129l246 -700h-113zM228 272
h214l-103 305h-8z" />
    <glyph glyph-name="AE" unicode="&#xc6;" horiz-adv-x="1024" 
d="M636 93h344v-93h-447v183h-264l-120 -183h-125l454 700h492v-93h-334v-206h291v-91h-291v-217zM327 272h206v305h-7z" />
    <glyph glyph-name="Ccedilla" unicode="&#xc7;" horiz-adv-x="755" 
d="M707 217c-12 -65.333 -43.6689 -118.166 -95.002 -158.499s-114 -62.833 -188 -67.5l-24 -35c25.333 1.33301 48.166 -5.16699 68.499 -19.5s30.5 -35.166 30.5 -62.499c0 -26 -9.16699 -46.5 -27.5 -61.5s-43.5 -22.5 -75.5 -22.5c-29.333 0 -54.666 7.33301 -75.999 22
l19 44c20.667 -11.333 38.667 -17 54 -17c14.667 0 26.334 3.5 35.001 10.5s13 16.167 13 27.5c0 25.333 -16.333 38 -49 38c-10 0 -21 -2.66699 -33 -8l-34 28l37 57c-92 8 -165.167 44.5 -219.5 109.5s-81.5 146.833 -81.5 245.5c0 105.333 31.167 192.166 93.5 260.499
s143.5 102.5 243.5 102.5c78 0 144.167 -20.5 198.5 -61.5s87.5 -97.833 99.5 -170.5h-113c-12 41.333 -34 74.166 -66 98.499s-71.333 36.5 -118 36.5c-68.667 0 -124.334 -25.5 -167.001 -76.5s-64 -114.167 -64 -189.5c0 -76 21.5 -138.333 64.5 -187
s98.167 -73 165.5 -73c48.667 0 90.334 11.833 125.001 35.5s58.334 55.167 71.001 94.5h113z" />
    <glyph glyph-name="Egrave" unicode="&#xc8;" horiz-adv-x="587" 
d="M275 900l72 -145h-80l-80 145h88zM184 93h359v-93h-462v700h452v-93h-349v-206h306v-91h-306v-217z" />
    <glyph glyph-name="Eacute" unicode="&#xc9;" horiz-adv-x="587" 
d="M340 900h88l-80 -145h-80zM184 93h359v-93h-462v700h452v-93h-349v-206h306v-91h-306v-217z" />
    <glyph glyph-name="Ecircumflex" unicode="&#xca;" horiz-adv-x="587" 
d="M248 756h-89l104 144h88l105 -144h-89l-57 83h-6zM184 93h359v-93h-462v700h452v-93h-349v-206h306v-91h-306v-217z" />
    <glyph glyph-name="Edieresis" unicode="&#xcb;" horiz-adv-x="587" 
d="M191 762c-18 0 -33.667 6.33398 -47 19.001s-20 28 -20 46s6.66699 33.5 20 46.5s29 19.5 47 19.5s33.5 -6.33301 46.5 -19s19.5 -28.334 19.5 -47.001c0 -18 -6.5 -33.333 -19.5 -46s-28.5 -19 -46.5 -19zM424 762.001c-17.333 0 -32.5 6.33398 -45.5 19.001
s-19.5 28 -19.5 46s6.5 33.5 19.5 46.5s28.167 19.5 45.5 19.5c18 0 33.5 -6.33301 46.5 -19s19.5 -28.334 19.5 -47.001c0 -18 -6.5 -33.333 -19.5 -46s-28.5 -19 -46.5 -19zM184 93.002h359v-93h-462v700h452v-93h-349v-206h306v-91h-306v-217z" />
    <glyph glyph-name="Igrave" unicode="&#xcc;" horiz-adv-x="267" 
d="M101 900l72 -145h-80l-80 145h88zM186 700v-700h-105v700h105z" />
    <glyph glyph-name="Iacute" unicode="&#xcd;" horiz-adv-x="267" 
d="M166 900h88l-80 -145h-80zM186 700v-700h-105v700h105z" />
    <glyph glyph-name="Icircumflex" unicode="&#xce;" horiz-adv-x="267" 
d="M74 756h-89l104 144h88l105 -144h-89l-57 83h-6zM186 700v-700h-105v700h105z" />
    <glyph glyph-name="Idieresis" unicode="&#xcf;" horiz-adv-x="267" 
d="M18 762c-18 0 -33.667 6.33398 -47 19.001s-20 28 -20 46s6.66699 33.5 20 46.5s29 19.5 47 19.5s33.5 -6.33301 46.5 -19s19.5 -28.334 19.5 -47.001c0 -18 -6.5 -33.333 -19.5 -46s-28.5 -19 -46.5 -19zM251 762.001c-17.333 0 -32.5 6.33398 -45.5 19.001
s-19.5 28 -19.5 46s6.33301 33.5 19 46.5s28 19.5 46 19.5s33.5 -6.33301 46.5 -19s19.5 -28.334 19.5 -47.001c0 -18 -6.5 -33.333 -19.5 -46s-28.5 -19 -46.5 -19zM186 700.002v-700h-105v700h105z" />
    <glyph glyph-name="Eth" unicode="&#xd0;" horiz-adv-x="706" 
d="M308 700c108 0 191.167 -31.333 249.5 -94s87.5 -148 87.5 -256c0 -106.667 -29.167 -191.667 -87.5 -255s-141.5 -95 -249.5 -95h-227v310h-115v79h115v311h227zM303 95c80 0 139.167 23.333 177.5 70s57.5 109.334 57.5 188.001c0 77.333 -19 138.666 -57 183.999
s-97.333 68 -178 68h-117v-216h178v-79h-178v-215h117z" />
    <glyph glyph-name="Ntilde" unicode="&#xd1;" horiz-adv-x="735" 
d="M546 871c-2 -35.333 -12.1689 -65 -30.502 -89s-43.166 -36 -74.499 -36c-22 0 -41.167 5.33301 -57.5 16s-30.666 21.167 -42.999 31.5s-24.5 15.5 -36.5 15.5c-25.333 0 -40.666 -18.333 -45.999 -55h-70c2.66699 36 13.167 66 31.5 90s43.5 36 75.5 36
c18 0 34.167 -3.16699 48.5 -9.5s25.166 -13.5 32.499 -21.5s15.833 -15.167 25.5 -21.5s19.5 -9.5 29.5 -9.5c27.333 0 42.333 17.667 45 53h70zM550.998 700h103v-700h-111l-352 519h-7v-519h-103v700h111l352 -520h7v520z" />
    <glyph glyph-name="Ograve" unicode="&#xd2;" horiz-adv-x="823" 
d="M380 900l72 -145h-80l-80 145h88zM412 -10c-100.667 0 -184.334 34.1689 -251.001 102.502s-100 154.166 -100 257.499c0 102.667 33.333 188.334 100 257.001s150.334 103 251.001 103c100 0 183.333 -34.333 250 -103s100 -154.334 100 -257.001
s-33.167 -188.334 -99.5 -257.001s-149.833 -103 -250.5 -103zM412 87.002c70 0 127.999 25.167 173.999 75.5s69 112.833 69 187.5s-23.167 137.167 -69.5 187.5s-104.166 75.5 -173.499 75.5c-70 0 -128.167 -25.167 -174.5 -75.5s-69.5 -112.833 -69.5 -187.5
s23.167 -137.167 69.5 -187.5s104.5 -75.5 174.5 -75.5z" />
    <glyph glyph-name="Oacute" unicode="&#xd3;" horiz-adv-x="823" 
d="M444 900h88l-80 -145h-80zM412 -10c-100.667 0 -184.334 34.1689 -251.001 102.502s-100 154.166 -100 257.499c0 102.667 33.333 188.334 100 257.001s150.334 103 251.001 103c100 0 183.333 -34.333 250 -103s100 -154.334 100 -257.001
s-33.167 -188.334 -99.5 -257.001s-149.833 -103 -250.5 -103zM412 87.002c70 0 127.999 25.167 173.999 75.5s69 112.833 69 187.5s-23.167 137.167 -69.5 187.5s-104.166 75.5 -173.499 75.5c-70 0 -128.167 -25.167 -174.5 -75.5s-69.5 -112.833 -69.5 -187.5
s23.167 -137.167 69.5 -187.5s104.5 -75.5 174.5 -75.5z" />
    <glyph glyph-name="Ocircumflex" unicode="&#xd4;" horiz-adv-x="823" 
d="M352 756h-89l104 144h88l105 -144h-89l-57 83h-6zM412 -10c-100.667 0 -184.334 34.1689 -251.001 102.502s-100 154.166 -100 257.499c0 102.667 33.333 188.334 100 257.001s150.334 103 251.001 103c100 0 183.333 -34.333 250 -103s100 -154.334 100 -257.001
s-33.167 -188.334 -99.5 -257.001s-149.833 -103 -250.5 -103zM412 87.002c70 0 127.999 25.167 173.999 75.5s69 112.833 69 187.5s-23.167 137.167 -69.5 187.5s-104.166 75.5 -173.499 75.5c-70 0 -128.167 -25.167 -174.5 -75.5s-69.5 -112.833 -69.5 -187.5
s23.167 -137.167 69.5 -187.5s104.5 -75.5 174.5 -75.5z" />
    <glyph glyph-name="Otilde" unicode="&#xd5;" horiz-adv-x="823" 
d="M591 871c-2 -35.333 -12.1689 -65 -30.502 -89s-43.166 -36 -74.499 -36c-22 0 -41.167 5.33301 -57.5 16s-30.666 21.167 -42.999 31.5s-24.5 15.5 -36.5 15.5c-25.333 0 -40.666 -18.333 -45.999 -55h-70c2.66699 36 13.167 66 31.5 90s43.5 36 75.5 36
c18 0 34.167 -3.16699 48.5 -9.5s25.166 -13.5 32.499 -21.5s15.833 -15.167 25.5 -21.5s19.5 -9.5 29.5 -9.5c27.333 0 42.333 17.667 45 53h70zM411.998 -10c-100.667 0 -184.334 34.1689 -251.001 102.502s-100 154.166 -100 257.499
c0 102.667 33.333 188.334 100 257.001s150.334 103 251.001 103c100 0 183.333 -34.333 250 -103s100 -154.334 100 -257.001s-33.167 -188.334 -99.5 -257.001s-149.833 -103 -250.5 -103zM411.998 87.002c70 0 127.999 25.167 173.999 75.5s69 112.833 69 187.5
s-23.167 137.167 -69.5 187.5s-104.166 75.5 -173.499 75.5c-70 0 -128.167 -25.167 -174.5 -75.5s-69.5 -112.833 -69.5 -187.5s23.167 -137.167 69.5 -187.5s104.5 -75.5 174.5 -75.5z" />
    <glyph glyph-name="Odieresis" unicode="&#xd6;" horiz-adv-x="823" 
d="M296 762c-18 0 -33.667 6.33398 -47 19.001s-20 28 -20 46s6.66699 33.5 20 46.5s29 19.5 47 19.5s33.5 -6.33301 46.5 -19s19.5 -28.334 19.5 -47.001c0 -18 -6.5 -33.333 -19.5 -46s-28.5 -19 -46.5 -19zM529 762.001c-17.333 0 -32.5 6.33398 -45.5 19.001
s-19.5 28 -19.5 46s6.33301 33.5 19 46.5s28 19.5 46 19.5s33.5 -6.33301 46.5 -19s19.5 -28.334 19.5 -47.001c0 -18 -6.5 -33.333 -19.5 -46s-28.5 -19 -46.5 -19zM412 -9.99805c-100.667 0 -184.334 34.1689 -251.001 102.502s-100 154.166 -100 257.499
c0 102.667 33.333 188.334 100 257.001s150.334 103 251.001 103c100 0 183.333 -34.333 250 -103s100 -154.334 100 -257.001s-33.167 -188.334 -99.5 -257.001s-149.833 -103 -250.5 -103zM412 87.0039c70 0 127.999 25.167 173.999 75.5s69 112.833 69 187.5
s-23.167 137.167 -69.5 187.5s-104.166 75.5 -173.499 75.5c-70 0 -128.167 -25.167 -174.5 -75.5s-69.5 -112.833 -69.5 -187.5s23.167 -137.167 69.5 -187.5s104.5 -75.5 174.5 -75.5z" />
    <glyph glyph-name="multiply" unicode="&#xd7;" 
d="M505 436l-161 -156l161 -156l-61 -61l-161 157l-161 -157l-62 61l161 156l-161 156l60 61l163 -157l162 157z" />
    <glyph glyph-name="Oslash" unicode="&#xd8;" horiz-adv-x="823" 
d="M656 613c70.667 -69.333 105.999 -157 105.999 -263c0 -102.667 -33.167 -188.334 -99.5 -257.001s-149.833 -103 -250.5 -103c-66 0 -126 16 -180 48l-64 -87l-65 47l65 88c-71.333 69.333 -107 157.333 -107 264c0 102.667 33.333 188.334 100 257.001
s150.334 103 251.001 103c65.333 0 125 -15.667 179 -47l62 85l67 -48zM163.999 350c0 -70.667 20.999 -131.333 62.999 -182l306 417c-37.333 21.333 -77.666 32 -120.999 32c-70.667 0 -129.667 -25.5 -177 -76.5s-71 -114.5 -71 -190.5zM411.998 83.001
c70.667 0 129.667 25.5 177 76.5s71 114.5 71 190.5c0 71.333 -21.333 132 -64 182l-307 -416c38 -22 79 -33 123 -33z" />
    <glyph glyph-name="Ugrave" unicode="&#xd9;" horiz-adv-x="717" 
d="M327 900l72 -145h-80l-80 145h88zM636 700l-0.00195312 -433c0 -89.333 -25.167 -157.833 -75.5 -205.5s-117.166 -71.5 -200.499 -71.5s-150.666 23.833 -201.999 71.5s-77 116.167 -77 205.5v433h105v-428c0 -59.333 16 -105 48 -137s74 -48 126 -48
s93.5 15.833 124.5 47.5s46.5 77.5 46.5 137.5v428h105z" />
    <glyph glyph-name="Uacute" unicode="&#xda;" horiz-adv-x="717" 
d="M391 900h88l-80 -145h-80zM636 700l-0.00195312 -433c0 -89.333 -25.167 -157.833 -75.5 -205.5s-117.166 -71.5 -200.499 -71.5s-150.666 23.833 -201.999 71.5s-77 116.167 -77 205.5v433h105v-428c0 -59.333 16 -105 48 -137s74 -48 126 -48s93.5 15.833 124.5 47.5
s46.5 77.5 46.5 137.5v428h105z" />
    <glyph glyph-name="Ucircumflex" unicode="&#xdb;" horiz-adv-x="717" 
d="M299 756h-89l104 144h88l105 -144h-89l-57 83h-6zM636 700l-0.00195312 -433c0 -89.333 -25.167 -157.833 -75.5 -205.5s-117.166 -71.5 -200.499 -71.5s-150.666 23.833 -201.999 71.5s-77 116.167 -77 205.5v433h105v-428c0 -59.333 16 -105 48 -137s74 -48 126 -48
s93.5 15.833 124.5 47.5s46.5 77.5 46.5 137.5v428h105z" />
    <glyph glyph-name="Udieresis" unicode="&#xdc;" horiz-adv-x="717" 
d="M243 762c-18 0 -33.667 6.33398 -47 19.001s-20 28 -20 46s6.66699 33.5 20 46.5s29 19.5 47 19.5s33.5 -6.33301 46.5 -19s19.5 -28.334 19.5 -47.001c0 -18 -6.5 -33.333 -19.5 -46s-28.5 -19 -46.5 -19zM476 762.001c-17.333 0 -32.5 6.33398 -45.5 19.001
s-19.5 28 -19.5 46s6.5 33.5 19.5 46.5s28.167 19.5 45.5 19.5c18 0 33.5 -6.33301 46.5 -19s19.5 -28.334 19.5 -47.001c0 -18 -6.5 -33.333 -19.5 -46s-28.5 -19 -46.5 -19zM636 700.002l-0.00195312 -433c0 -89.333 -25.167 -157.833 -75.5 -205.5
s-117.166 -71.5 -200.499 -71.5s-150.666 23.833 -201.999 71.5s-77 116.167 -77 205.5v433h105v-428c0 -59.333 16 -105 48 -137s74 -48 126 -48s93.5 15.833 124.5 47.5s46.5 77.5 46.5 137.5v428h105z" />
    <glyph glyph-name="Yacute" unicode="&#xdd;" horiz-adv-x="660" 
d="M362 900h88l-80 -145h-80zM509 700h127l-253 -377v-323h-105v323l-254 377h126l176 -262h8z" />
    <glyph glyph-name="Thorn" unicode="&#xde;" horiz-adv-x="623" 
d="M336 565c68.667 0 123.501 -19.667 164.501 -59s61.5 -91 61.5 -155c0 -66 -20.833 -118.667 -62.5 -158s-97.834 -59 -168.501 -59h-148v-134h-102v700h102v-135h153zM321.001 227c42.667 0 75.5 11 98.5 33s34.5 52 34.5 90s-11.667 67.833 -35 89.5
s-54.333 32.5 -93 32.5h-143v-245h138z" />
    <glyph glyph-name="germandbls" unicode="&#xdf;" horiz-adv-x="562" 
d="M383 371c86.667 -26.667 130 -87.668 130 -183.001c0 -63.333 -17 -112.166 -51 -146.499s-82 -51.5 -144 -51.5c-31.333 0 -62.333 4.66699 -93 14v79c26 -8 51.333 -12 76 -12c36 0 64.5 10.5 85.5 31.5s31.5 51.5 31.5 91.5c0 85.333 -48.667 128 -146 128h-47v81h39
c38 0 68 9.83301 90 29.5s33 47.167 33 82.5c0 33.333 -9.5 60.166 -28.5 80.499s-45.5 30.5 -79.5 30.5c-33.333 0 -60.5 -10.167 -81.5 -30.5s-31.5 -50.833 -31.5 -91.5v-504h-101v500c0 66.667 18.667 118.334 56 155.001s89.666 55 156.999 55
c62.667 0 112.834 -16 150.501 -48s56.5 -75.333 56.5 -130c0 -73.333 -34 -125.333 -102 -156v-5z" />
    <glyph glyph-name="agrave" unicode="&#xe0;" horiz-adv-x="536" 
d="M297 555h-80l-80 145h88zM500 77h12.999v-77h-46c-50.667 0 -82 20.667 -94 62c-38 -48 -92.667 -72 -164 -72c-50.667 0 -91.667 12.167 -123 36.5s-47 60.166 -47 107.499c0 45.333 15.333 81 46 107s71.334 41.333 122.001 46l153 15v25c0 32 -8.5 56.667 -25.5 74
s-41.167 26 -72.5 26c-58 0 -92 -29.333 -102 -88h-101c4.66699 50.667 25 91.834 61 123.501s83.333 47.5 142 47.5c59.333 0 107.5 -16 144.5 -48s55.5 -78.333 55.5 -139v-205c0 -27.333 12.667 -41 38 -41zM359.999 192v36.999l-119 -12
c-30.667 -2.66699 -55 -10.667 -73 -24s-27 -31.666 -27 -54.999c0 -45.333 27.667 -68 83 -68c36 0 67.667 10 95 30s41 50.667 41 92z" />
    <glyph glyph-name="aacute" unicode="&#xe1;" horiz-adv-x="536" 
d="M377 700l-80 -145h-80l72 145h88zM500 77h12.999v-77h-46c-50.667 0 -82 20.667 -94 62c-38 -48 -92.667 -72 -164 -72c-50.667 0 -91.667 12.167 -123 36.5s-47 60.166 -47 107.499c0 45.333 15.333 81 46 107s71.334 41.333 122.001 46l153 15v25
c0 32 -8.5 56.667 -25.5 74s-41.167 26 -72.5 26c-58 0 -92 -29.333 -102 -88h-101c4.66699 50.667 25 91.834 61 123.501s83.333 47.5 142 47.5c59.333 0 107.5 -16 144.5 -48s55.5 -78.333 55.5 -139v-205c0 -27.333 12.667 -41 38 -41zM359.999 192v36.999l-119 -12
c-30.667 -2.66699 -55 -10.667 -73 -24s-27 -31.666 -27 -54.999c0 -45.333 27.667 -68 83 -68c36 0 67.667 10 95 30s41 50.667 41 92z" />
    <glyph glyph-name="acircumflex" unicode="&#xe2;" horiz-adv-x="536" 
d="M254 639l-56 -83h-89l104 144h88l105 -144h-89l-57 83h-6zM500 77h12.999v-77h-46c-50.667 0 -82 20.667 -94 62c-38 -48 -92.667 -72 -164 -72c-50.667 0 -91.667 12.167 -123 36.5s-47 60.166 -47 107.499c0 45.333 15.333 81 46 107s71.334 41.333 122.001 46l153 15
v25c0 32 -8.5 56.667 -25.5 74s-41.167 26 -72.5 26c-58 0 -92 -29.333 -102 -88h-101c4.66699 50.667 25 91.834 61 123.501s83.333 47.5 142 47.5c59.333 0 107.5 -16 144.5 -48s55.5 -78.333 55.5 -139v-205c0 -27.333 12.667 -41 38 -41zM359.999 192v36.999l-119 -12
c-30.667 -2.66699 -55 -10.667 -73 -24s-27 -31.666 -27 -54.999c0 -45.333 27.667 -68 83 -68c36 0 67.667 10 95 30s41 50.667 41 92z" />
    <glyph glyph-name="atilde" unicode="&#xe3;" horiz-adv-x="536" 
d="M194 609c-25.333 0 -40.668 -18.333 -46.001 -55h-70c2.66699 36 13.167 66 31.5 90s43.5 36 75.5 36c18 0 34.167 -3.16699 48.5 -9.5s25.166 -13.5 32.499 -21.5s15.833 -15.167 25.5 -21.5s19.5 -9.5 29.5 -9.5c27.333 0 42.333 17.667 45 53h70
c-2 -35.333 -12.167 -65 -30.5 -89s-43.166 -36 -74.499 -36c-22 0 -41.167 5.33301 -57.5 16s-30.666 21.167 -42.999 31.5s-24.5 15.5 -36.5 15.5zM499.998 77h12.999v-77h-46c-50.667 0 -82 20.667 -94 62c-38 -48 -92.667 -72 -164 -72
c-50.667 0 -91.667 12.167 -123 36.5s-47 60.166 -47 107.499c0 45.333 15.333 81 46 107s71.334 41.333 122.001 46l153 15v25c0 32 -8.5 56.667 -25.5 74s-41.167 26 -72.5 26c-58 0 -92 -29.333 -102 -88h-101c4.66699 50.667 25 91.834 61 123.501s83.333 47.5 142 47.5
c59.333 0 107.5 -16 144.5 -48s55.5 -78.333 55.5 -139v-205c0 -27.333 12.667 -41 38 -41zM359.997 192v36.999l-119 -12c-30.667 -2.66699 -55 -10.667 -73 -24s-27 -31.666 -27 -54.999c0 -45.333 27.667 -68 83 -68c36 0 67.667 10 95 30s41 50.667 41 92z" />
    <glyph glyph-name="adieresis" unicode="&#xe4;" horiz-adv-x="536" 
d="M163 553c-16.667 0 -30.834 6 -42.501 18s-17.5 26.333 -17.5 43s5.83301 30.667 17.5 42s25.834 17 42.501 17s30.834 -5.66699 42.501 -17s17.5 -25.333 17.5 -42s-5.83301 -31 -17.5 -43s-25.834 -18 -42.501 -18zM352 553c-16 0 -29.833 6 -41.5 18
s-17.5 26.333 -17.5 43s5.83301 30.667 17.5 42s25.5 17 41.5 17c16.667 0 30.834 -5.66699 42.501 -17s17.5 -25.333 17.5 -42s-5.83301 -31 -17.5 -43s-25.834 -18 -42.501 -18zM500 77h12.999v-77h-46c-50.667 0 -82 20.667 -94 62c-38 -48 -92.667 -72 -164 -72
c-50.667 0 -91.667 12.167 -123 36.5s-47 60.166 -47 107.499c0 45.333 15.333 81 46 107s71.334 41.333 122.001 46l153 15v25c0 32 -8.5 56.667 -25.5 74s-41.167 26 -72.5 26c-58 0 -92 -29.333 -102 -88h-101c4.66699 50.667 25 91.834 61 123.501s83.333 47.5 142 47.5
c59.333 0 107.5 -16 144.5 -48s55.5 -78.333 55.5 -139v-205c0 -27.333 12.667 -41 38 -41zM359.999 192v36.999l-119 -12c-30.667 -2.66699 -55 -10.667 -73 -24s-27 -31.666 -27 -54.999c0 -45.333 27.667 -68 83 -68c36 0 67.667 10 95 30s41 50.667 41 92z" />
    <glyph glyph-name="aring" unicode="&#xe5;" horiz-adv-x="536" 
d="M256 538c-26.667 0 -49.667 9.66699 -69 29s-29 42 -29 68s9.66699 48.5 29 67.5s42.333 28.5 69 28.5s49.834 -9.5 69.501 -28.5s29.5 -41.5 29.5 -67.5s-9.83301 -48.667 -29.5 -68s-42.834 -29 -69.501 -29zM257 673c-10.667 0 -19.834 -3.83301 -27.501 -11.5
s-11.5 -16.5 -11.5 -26.5c0 -11.333 3.83301 -20.833 11.5 -28.5s16.834 -11.5 27.501 -11.5s19.834 4 27.501 12s11.5 17.333 11.5 28c0 10 -3.83301 18.833 -11.5 26.5s-16.834 11.5 -27.501 11.5zM500 77h12.999v-77h-46c-50.667 0 -82 20.667 -94 62
c-38 -48 -92.667 -72 -164 -72c-50.667 0 -91.667 12.167 -123 36.5s-47 60.166 -47 107.499c0 45.333 15.333 81 46 107s71.334 41.333 122.001 46l153 15v25c0 32 -8.5 56.667 -25.5 74s-41.167 26 -72.5 26c-58 0 -92 -29.333 -102 -88h-101
c4.66699 50.667 25 91.834 61 123.501s83.333 47.5 142 47.5c59.333 0 107.5 -16 144.5 -48s55.5 -78.333 55.5 -139v-205c0 -27.333 12.667 -41 38 -41zM359.999 192v36.999l-119 -12c-30.667 -2.66699 -55 -10.667 -73 -24s-27 -31.666 -27 -54.999
c0 -45.333 27.667 -68 83 -68c36 0 67.667 10 95 30s41 50.667 41 92z" />
    <glyph glyph-name="ae" unicode="&#xe6;" horiz-adv-x="735" 
d="M502 69c52.667 0 82.332 26.998 88.999 80.998h93c-5.33301 -53.333 -24.5 -93.333 -57.5 -120s-73.833 -40 -122.5 -40c-70 0 -119.667 25.667 -149 77c-27.333 -51.333 -80.333 -77 -159 -77c-48 0 -86.167 11.833 -114.5 35.5s-42.5 57.834 -42.5 102.501
c0 56 19.667 97.833 59 125.5s93 41.5 161 41.5h47v45c0 28 -6.66699 49.833 -20 65.5s-32.666 23.5 -57.999 23.5c-26 0 -46.5 -6.83301 -61.5 -20.5s-22.833 -33.5 -23.5 -59.5l-98 3c2.66699 50 20 88.833 52 116.5s74.333 41.5 127 41.5c64 0 111 -23.333 141 -70
c29.333 46.667 75.333 70 138 70c52.667 0 96 -19.667 130 -59s51 -103.666 51 -192.999c0 -5.33301 -0.666992 -17.333 -2 -36h-274c2 -102 33.333 -153 94 -153zM501.998 430.998c-27.333 0 -49.5 -11.167 -66.5 -33.5s-26.167 -56.5 -27.5 -102.5h181
c0 48 -8 82.667 -24 104s-37 32 -63 32zM210.998 68.998c26 0 48.333 7.5 67 22.5s28 39.5 28 73.5v57h-43c-85.333 0 -128 -28.333 -128 -85c0 -22 7 -38.833 21 -50.5s32.333 -17.5 55 -17.5z" />
    <glyph glyph-name="ccedilla" unicode="&#xe7;" horiz-adv-x="574" 
d="M535 167c-8.66699 -50.667 -31.8359 -91.667 -69.5029 -123s-84.5 -49 -140.5 -53l-24 -35c25.333 1.33301 48.166 -5.16699 68.499 -19.5s30.5 -35.166 30.5 -62.499c0 -26 -9.16699 -46.5 -27.5 -61.5s-43.5 -22.5 -75.5 -22.5c-29.333 0 -54.666 7.33301 -75.999 22
l19 44c20.667 -11.333 38.667 -17 54 -17c14.667 0 26.334 3.5 35.001 10.5s13 16.167 13 27.5c0 25.333 -16.333 38 -49 38c-10 0 -21 -2.66699 -33 -8l-34 28l37 57c-64.667 8.66699 -116.5 36.5 -155.5 83.5s-58.5 104.167 -58.5 171.5c0 76.667 23.833 139.667 71.5 189
s107.834 74 180.501 74c59.333 0 110.833 -16.167 154.5 -48.5s69.5 -77.5 77.5 -135.5h-102c-6 27.333 -20.667 50 -44 68s-52 27 -86 27c-44 0 -80.167 -16.5 -108.5 -49.5s-42.5 -74.5 -42.5 -124.5c0 -48.667 13.833 -88.834 41.5 -120.501s64.5 -47.5 110.5 -47.5
c66.667 0 110.334 29.333 131.001 88h102z" />
    <glyph glyph-name="egrave" unicode="&#xe8;" horiz-adv-x="571" 
d="M332 555h-80l-80 145h88zM521 257c0 -4.66699 -0.666992 -15.668 -2 -33.001h-370c2.66699 -45.333 17 -81.833 43 -109.5s60.667 -41.5 104 -41.5c67.333 0 109 25.667 125 77h98c-10.667 -50 -35.667 -89.167 -75 -117.5s-88.666 -42.5 -147.999 -42.5
c-72.667 0 -132 23.333 -178 70s-69 108.334 -69 185.001c0 80 23.167 144.167 69.5 192.5s104.166 72.5 173.499 72.5c65.333 0 119.833 -21.667 163.5 -65s65.5 -106 65.5 -188zM292 426.999c-38.667 0 -70.668 -12.333 -96.001 -37s-40.666 -56 -45.999 -94h272
c-0.666992 38.667 -13 70.167 -37 94.5s-55 36.5 -93 36.5z" />
    <glyph glyph-name="eacute" unicode="&#xe9;" horiz-adv-x="571" 
d="M412 700l-80 -145h-80l72 145h88zM521 257c0 -4.66699 -0.666992 -15.668 -2 -33.001h-370c2.66699 -45.333 17 -81.833 43 -109.5s60.667 -41.5 104 -41.5c67.333 0 109 25.667 125 77h98c-10.667 -50 -35.667 -89.167 -75 -117.5s-88.666 -42.5 -147.999 -42.5
c-72.667 0 -132 23.333 -178 70s-69 108.334 -69 185.001c0 80 23.167 144.167 69.5 192.5s104.166 72.5 173.499 72.5c65.333 0 119.833 -21.667 163.5 -65s65.5 -106 65.5 -188zM292 426.999c-38.667 0 -70.668 -12.333 -96.001 -37s-40.666 -56 -45.999 -94h272
c-0.666992 38.667 -13 70.167 -37 94.5s-55 36.5 -93 36.5z" />
    <glyph glyph-name="ecircumflex" unicode="&#xea;" horiz-adv-x="571" 
d="M288 639l-56 -83h-89l104 144h88l105 -144h-89l-57 83h-6zM521 257c0 -4.66699 -0.666992 -15.668 -2 -33.001h-370c2.66699 -45.333 17 -81.833 43 -109.5s60.667 -41.5 104 -41.5c67.333 0 109 25.667 125 77h98c-10.667 -50 -35.667 -89.167 -75 -117.5
s-88.666 -42.5 -147.999 -42.5c-72.667 0 -132 23.333 -178 70s-69 108.334 -69 185.001c0 80 23.167 144.167 69.5 192.5s104.166 72.5 173.499 72.5c65.333 0 119.833 -21.667 163.5 -65s65.5 -106 65.5 -188zM292 426.999c-38.667 0 -70.668 -12.333 -96.001 -37
s-40.666 -56 -45.999 -94h272c-0.666992 38.667 -13 70.167 -37 94.5s-55 36.5 -93 36.5z" />
    <glyph glyph-name="edieresis" unicode="&#xeb;" horiz-adv-x="571" 
d="M198 553c-16.667 0 -30.834 6 -42.501 18s-17.5 26.333 -17.5 43s5.83301 30.667 17.5 42s25.834 17 42.501 17s30.834 -5.66699 42.501 -17s17.5 -25.333 17.5 -42s-5.83301 -31 -17.5 -43s-25.834 -18 -42.501 -18zM387 553c-16 0 -29.833 6 -41.5 18
s-17.5 26.333 -17.5 43s5.83301 30.667 17.5 42s25.5 17 41.5 17c16.667 0 30.834 -5.66699 42.501 -17s17.5 -25.333 17.5 -42s-5.83301 -31 -17.5 -43s-25.834 -18 -42.501 -18zM521 257c0 -4.66699 -0.666992 -15.668 -2 -33.001h-370
c2.66699 -45.333 17 -81.833 43 -109.5s60.667 -41.5 104 -41.5c67.333 0 109 25.667 125 77h98c-10.667 -50 -35.667 -89.167 -75 -117.5s-88.666 -42.5 -147.999 -42.5c-72.667 0 -132 23.333 -178 70s-69 108.334 -69 185.001c0 80 23.167 144.167 69.5 192.5
s104.166 72.5 173.499 72.5c65.333 0 119.833 -21.667 163.5 -65s65.5 -106 65.5 -188zM292 426.999c-38.667 0 -70.668 -12.333 -96.001 -37s-40.666 -56 -45.999 -94h272c-0.666992 38.667 -13 70.167 -37 94.5s-55 36.5 -93 36.5z" />
    <glyph glyph-name="igrave" unicode="&#xec;" horiz-adv-x="231" 
d="M83 700l72 -145h-80l-80 145h88zM65 0v500h102v-500h-102z" />
    <glyph glyph-name="iacute" unicode="&#xed;" horiz-adv-x="231" 
d="M148 700h88l-80 -145h-80zM65 0v500h102v-500h-102z" />
    <glyph glyph-name="icircumflex" unicode="&#xee;" horiz-adv-x="231" 
d="M56 556h-89l104 144h88l105 -144h-89l-57 83h-6zM65 0v500h102v-500h-102z" />
    <glyph glyph-name="idieresis" unicode="&#xef;" horiz-adv-x="231" 
d="M22 553c-16.667 0 -30.834 6 -42.501 18s-17.5 26.333 -17.5 43s5.83301 30.667 17.5 42s25.834 17 42.501 17s30.834 -5.66699 42.501 -17s17.5 -25.333 17.5 -42s-5.83301 -31 -17.5 -43s-25.834 -18 -42.501 -18zM211 553c-16 0 -29.833 6 -41.5 18
s-17.5 26.333 -17.5 43s5.83301 30.667 17.5 42s25.5 17 41.5 17c16.667 0 30.834 -5.66699 42.501 -17s17.5 -25.333 17.5 -42s-5.83301 -31 -17.5 -43s-25.834 -18 -42.501 -18zM65 0v500h102v-500h-102z" />
    <glyph glyph-name="eth" unicode="&#xf0;" horiz-adv-x="600" 
d="M420 582c79.333 -98.667 118.998 -204.666 118.998 -317.999c0 -86 -22.5 -153.167 -67.5 -201.5s-105.5 -72.5 -181.5 -72.5c-67.333 0 -124.333 22 -171 66s-70 100.333 -70 169c0 68 21.333 123.333 64 166s97.334 64 164.001 64c30.667 0 59.167 -5.66699 85.5 -17
s46.5 -26 60.5 -44h7c-17.333 55.333 -48 109.666 -92 162.999l-159 -49l-17 56l132 40c-30 30 -68 62 -114 96h116c32.667 -24.667 59.334 -48 80.001 -70l103 31l17 -56zM290.998 75.001c44 0 79.667 14.668 107 44.001s41 65.666 41 108.999
c0 42 -14.333 76.167 -43 102.5s-64.667 39.5 -108 39.5s-78.5 -13.5 -105.5 -40.5s-40.5 -62.167 -40.5 -105.5s14.167 -79 42.5 -107s63.833 -42 106.5 -42z" />
    <glyph glyph-name="ntilde" unicode="&#xf1;" horiz-adv-x="572" 
d="M464 671c-2 -35.333 -12.1689 -65 -30.502 -89s-43.166 -36 -74.499 -36c-22 0 -41.167 5.33301 -57.5 16s-30.666 21.167 -42.999 31.5s-24.5 15.5 -36.5 15.5c-25.333 0 -40.666 -18.333 -45.999 -55h-70c2.66699 36 13.167 66 31.5 90s43.5 36 75.5 36
c18 0 34.167 -3.16699 48.5 -9.5s25.166 -13.5 32.499 -21.5s15.833 -15.167 25.5 -21.5s19.5 -9.5 29.5 -9.5c27.333 0 42.333 17.667 45 53h70zM64.998 0l-0.000976562 500.001h92l10 -60h7c34.667 46.667 83.334 70 146.001 70c56.667 0 102 -17.5 136 -52.5
s51 -84.167 51 -147.5v-310h-102v288c0 44 -10.5 77.167 -31.5 99.5s-48.5 33.5 -82.5 33.5c-35.333 0 -64.833 -11.833 -88.5 -35.5s-35.5 -58.834 -35.5 -105.501v-280h-102z" />
    <glyph glyph-name="ograve" unicode="&#xf2;" horiz-adv-x="610" 
d="M273 700l72 -145h-80l-80 145h88zM304 -10c-73.333 0 -134.167 24.667 -182.5 74s-72.5 111.333 -72.5 186c0 76 24 138.333 72 187s109 73 183 73s135.333 -24.5 184 -73.5s73 -111.167 73 -186.5s-24.333 -137.5 -73 -186.5s-110 -73.5 -184 -73.5zM303.999 79
c45.333 0 82.667 16.668 112 50.001s44 73.666 44 120.999c0 48 -14.5 88.5 -43.5 121.5s-66.5 49.5 -112.5 49.5c-45.333 0 -82.333 -16.5 -111 -49.5s-43 -73.5 -43 -121.5s14.333 -88.5 43 -121.5s65.667 -49.5 111 -49.5z" />
    <glyph glyph-name="oacute" unicode="&#xf3;" horiz-adv-x="610" 
d="M337 700h88l-80 -145h-80zM304 -10c-73.333 0 -134.167 24.667 -182.5 74s-72.5 111.333 -72.5 186c0 76 24 138.333 72 187s109 73 183 73s135.333 -24.5 184 -73.5s73 -111.167 73 -186.5s-24.333 -137.5 -73 -186.5s-110 -73.5 -184 -73.5zM303.999 79
c45.333 0 82.667 16.668 112 50.001s44 73.666 44 120.999c0 48 -14.5 88.5 -43.5 121.5s-66.5 49.5 -112.5 49.5c-45.333 0 -82.333 -16.5 -111 -49.5s-43 -73.5 -43 -121.5s14.333 -88.5 43 -121.5s65.667 -49.5 111 -49.5z" />
    <glyph glyph-name="ocircumflex" unicode="&#xf4;" horiz-adv-x="610" 
d="M245 556h-89l104 144h88l105 -144h-89l-57 83h-6zM304 -10c-73.333 0 -134.167 24.667 -182.5 74s-72.5 111.333 -72.5 186c0 76 24 138.333 72 187s109 73 183 73s135.333 -24.5 184 -73.5s73 -111.167 73 -186.5s-24.333 -137.5 -73 -186.5s-110 -73.5 -184 -73.5z
M303.999 79c45.333 0 82.667 16.668 112 50.001s44 73.666 44 120.999c0 48 -14.5 88.5 -43.5 121.5s-66.5 49.5 -112.5 49.5c-45.333 0 -82.333 -16.5 -111 -49.5s-43 -73.5 -43 -121.5s14.333 -88.5 43 -121.5s65.667 -49.5 111 -49.5z" />
    <glyph glyph-name="otilde" unicode="&#xf5;" horiz-adv-x="610" 
d="M484 671c-2 -35.333 -12.1689 -65 -30.502 -89s-43.166 -36 -74.499 -36c-22 0 -41.167 5.33301 -57.5 16s-30.666 21.167 -42.999 31.5s-24.5 15.5 -36.5 15.5c-25.333 0 -40.666 -18.333 -45.999 -55h-70c2.66699 36 13.167 66 31.5 90s43.5 36 75.5 36
c18 0 34.167 -3.16699 48.5 -9.5s25.166 -13.5 32.499 -21.5s15.833 -15.167 25.5 -21.5s19.5 -9.5 29.5 -9.5c27.333 0 42.333 17.667 45 53h70zM303.998 -10c-73.333 0 -134.167 24.667 -182.5 74s-72.5 111.333 -72.5 186c0 76 24 138.333 72 187s109 73 183 73
s135.333 -24.5 184 -73.5s73 -111.167 73 -186.5s-24.333 -137.5 -73 -186.5s-110 -73.5 -184 -73.5zM303.997 79c45.333 0 82.667 16.668 112 50.001s44 73.666 44 120.999c0 48 -14.5 88.5 -43.5 121.5s-66.5 49.5 -112.5 49.5c-45.333 0 -82.333 -16.5 -111 -49.5
s-43 -73.5 -43 -121.5s14.333 -88.5 43 -121.5s65.667 -49.5 111 -49.5z" />
    <glyph glyph-name="odieresis" unicode="&#xf6;" horiz-adv-x="610" 
d="M211 553c-16.667 0 -30.834 6 -42.501 18s-17.5 26.333 -17.5 43s5.83301 30.667 17.5 42s25.834 17 42.501 17s30.834 -5.66699 42.501 -17s17.5 -25.333 17.5 -42s-5.83301 -31 -17.5 -43s-25.834 -18 -42.501 -18zM400 553c-16 0 -29.833 6 -41.5 18
s-17.5 26.333 -17.5 43s5.83301 30.667 17.5 42s25.5 17 41.5 17c16.667 0 30.834 -5.66699 42.501 -17s17.5 -25.333 17.5 -42s-5.83301 -31 -17.5 -43s-25.834 -18 -42.501 -18zM304 -10c-73.333 0 -134.167 24.667 -182.5 74s-72.5 111.333 -72.5 186
c0 76 24 138.333 72 187s109 73 183 73s135.333 -24.5 184 -73.5s73 -111.167 73 -186.5s-24.333 -137.5 -73 -186.5s-110 -73.5 -184 -73.5zM303.999 79c45.333 0 82.667 16.668 112 50.001s44 73.666 44 120.999c0 48 -14.5 88.5 -43.5 121.5s-66.5 49.5 -112.5 49.5
c-45.333 0 -82.333 -16.5 -111 -49.5s-43 -73.5 -43 -121.5s14.333 -88.5 43 -121.5s65.667 -49.5 111 -49.5z" />
    <glyph glyph-name="divide" unicode="&#xf7;" 
d="M283 392c-18 0 -33.5 6.5 -46.5 19.5s-19.5 28.167 -19.5 45.5c0 18.667 6.5 34.334 19.5 47.001s28.5 19 46.5 19s33.333 -6.33301 46 -19s19 -28.334 19 -47.001c0 -17.333 -6.33301 -32.5 -19 -45.5s-28 -19.5 -46 -19.5zM47 323h471v-86h-471v86zM283 33
c-18 0 -33.5 6.33301 -46.5 19s-19.5 28 -19.5 46s6.5 33.5 19.5 46.5s28.5 19.5 46.5 19.5s33.333 -6.5 46 -19.5s19 -28.5 19 -46.5s-6.33301 -33.333 -19 -46s-28 -19 -46 -19z" />
    <glyph glyph-name="oslash" unicode="&#xf8;" horiz-adv-x="610" 
d="M489 435c48 -49.333 71.999 -111 71.999 -185c0 -75.333 -24.333 -137.5 -73 -186.5s-110 -73.5 -184 -73.5c-47.333 0 -89.666 10.667 -126.999 32l-52 -68l-59 41l54 71c-47.333 48.667 -71 110 -71 184c0 76 24 138.333 72 187s109 73 183 73
c46.667 0 89.667 -10.667 129 -32l52 68l58 -40zM144.999 250c0 -40.667 10.666 -77 31.999 -109l202 266c-24 12 -49 18 -75 18c-47.333 0 -85.666 -16.833 -114.999 -50.5s-44 -75.167 -44 -124.5zM303.998 75c47.333 0 85.833 16.833 115.5 50.5s44.5 75.167 44.5 124.5
c0 40.667 -10.667 77 -32 109l-202 -266c24 -12 48.667 -18 74 -18z" />
    <glyph glyph-name="ugrave" unicode="&#xf9;" horiz-adv-x="572" 
d="M254 700l72 -145h-80l-80 145h88zM507 500l0.000976562 -500.001h-92l-10 60h-7c-34.667 -46.667 -83.334 -70 -146.001 -70c-56.667 0 -102 17.5 -136 52.5s-51 84.167 -51 147.5v310h102v-288c0 -44 10.5 -77.167 31.5 -99.5s48.5 -33.5 82.5 -33.5
c35.333 0 64.833 11.833 88.5 35.5s35.5 58.834 35.5 105.501v280h102z" />
    <glyph glyph-name="uacute" unicode="&#xfa;" horiz-adv-x="572" 
d="M318 700h88l-80 -145h-80zM507 500l0.000976562 -500.001h-92l-10 60h-7c-34.667 -46.667 -83.334 -70 -146.001 -70c-56.667 0 -102 17.5 -136 52.5s-51 84.167 -51 147.5v310h102v-288c0 -44 10.5 -77.167 31.5 -99.5s48.5 -33.5 82.5 -33.5
c35.333 0 64.833 11.833 88.5 35.5s35.5 58.834 35.5 105.501v280h102z" />
    <glyph glyph-name="ucircumflex" unicode="&#xfb;" horiz-adv-x="572" 
d="M227 556h-89l104 144h88l105 -144h-89l-57 83h-6zM507 500l0.000976562 -500.001h-92l-10 60h-7c-34.667 -46.667 -83.334 -70 -146.001 -70c-56.667 0 -102 17.5 -136 52.5s-51 84.167 -51 147.5v310h102v-288c0 -44 10.5 -77.167 31.5 -99.5s48.5 -33.5 82.5 -33.5
c35.333 0 64.833 11.833 88.5 35.5s35.5 58.834 35.5 105.501v280h102z" />
    <glyph glyph-name="udieresis" unicode="&#xfc;" horiz-adv-x="572" 
d="M192 553c-16.667 0 -30.834 6 -42.501 18s-17.5 26.333 -17.5 43s5.83301 30.667 17.5 42s25.834 17 42.501 17s30.834 -5.66699 42.501 -17s17.5 -25.333 17.5 -42s-5.83301 -31 -17.5 -43s-25.834 -18 -42.501 -18zM381 553c-16 0 -29.833 6 -41.5 18
s-17.5 26.333 -17.5 43s5.83301 30.667 17.5 42s25.5 17 41.5 17c16.667 0 30.834 -5.66699 42.501 -17s17.5 -25.333 17.5 -42s-5.83301 -31 -17.5 -43s-25.834 -18 -42.501 -18zM507 500l0.000976562 -500.001h-92l-10 60h-7c-34.667 -46.667 -83.334 -70 -146.001 -70
c-56.667 0 -102 17.5 -136 52.5s-51 84.167 -51 147.5v310h102v-288c0 -44 10.5 -77.167 31.5 -99.5s48.5 -33.5 82.5 -33.5c35.333 0 64.833 11.833 88.5 35.5s35.5 58.834 35.5 105.501v280h102z" />
    <glyph glyph-name="yacute" unicode="&#xfd;" horiz-adv-x="545" 
d="M305 700h88l-80 -145h-80zM136 -210c-20.667 0 -45.667 3.66699 -75 11v77c21.333 -4.66699 39 -7 53 -7c52.667 0 89 24 109 72l22 57h-33l-193 500h106l148 -395h8l139 395h106l-208 -572c-31.333 -92 -92 -138 -182 -138z" />
    <glyph glyph-name="thorn" unicode="&#xfe;" horiz-adv-x="603" 
d="M322 510c68 0 123.667 -24 167 -72s65 -111 65 -189c0 -78.667 -22 -141.5 -66 -188.5s-99.333 -70.5 -166 -70.5c-68 0 -119.667 24.667 -155 74v-264h-102v910h92v-277h7c38 51.333 90.667 77 158 77zM307 79c43.333 0 78.333 15.667 105 47s40 72.333 40 123
c0 51.333 -13.333 92.833 -40 124.5s-61.667 47.5 -105 47.5c-42.667 0 -76.667 -15.667 -102 -47s-38 -73 -38 -125c0 -50.667 12.833 -91.667 38.5 -123s59.5 -47 101.5 -47z" />
    <glyph glyph-name="ydieresis" unicode="&#xff;" horiz-adv-x="545" 
d="M179 553c-16.667 0 -30.834 6 -42.501 18s-17.5 26.333 -17.5 43s5.83301 30.667 17.5 42s25.834 17 42.501 17s30.834 -5.66699 42.501 -17s17.5 -25.333 17.5 -42s-5.83301 -31 -17.5 -43s-25.834 -18 -42.501 -18zM368 553c-16 0 -29.833 6 -41.5 18
s-17.5 26.333 -17.5 43s5.83301 30.667 17.5 42s25.5 17 41.5 17c16.667 0 30.834 -5.66699 42.501 -17s17.5 -25.333 17.5 -42s-5.83301 -31 -17.5 -43s-25.834 -18 -42.501 -18zM136 -210c-20.667 0 -45.667 3.66699 -75 11v77c21.333 -4.66699 39 -7 53 -7
c52.667 0 89 24 109 72l22 57h-33l-193 500h106l148 -395h8l139 395h106l-208 -572c-31.333 -92 -92 -138 -182 -138z" />
    <glyph glyph-name="Amacron" unicode="&#x100;" horiz-adv-x="671" 
d="M493 849v-72h-313v72h313zM533 0l-62 183h-272l-62 -183h-113l247 700h129l246 -700h-113zM228 272h214l-103 305h-8z" />
    <glyph glyph-name="amacron" unicode="&#x101;" horiz-adv-x="536" 
d="M414 649v-72h-313v72h313zM500 77h12.999v-77h-46c-50.667 0 -82 20.667 -94 62c-38 -48 -92.667 -72 -164 -72c-50.667 0 -91.667 12.167 -123 36.5s-47 60.166 -47 107.499c0 45.333 15.333 81 46 107s71.334 41.333 122.001 46l153 15v25c0 32 -8.5 56.667 -25.5 74
s-41.167 26 -72.5 26c-58 0 -92 -29.333 -102 -88h-101c4.66699 50.667 25 91.834 61 123.501s83.333 47.5 142 47.5c59.333 0 107.5 -16 144.5 -48s55.5 -78.333 55.5 -139v-205c0 -27.333 12.667 -41 38 -41zM359.999 192v36.999l-119 -12
c-30.667 -2.66699 -55 -10.667 -73 -24s-27 -31.666 -27 -54.999c0 -45.333 27.667 -68 83 -68c36 0 67.667 10 95 30s41 50.667 41 92z" />
    <glyph glyph-name="Abreve" unicode="&#x102;" horiz-adv-x="671" 
d="M335 770c-40 0 -73 12.835 -99 38.502s-39 56.167 -39 91.5h78c0 -18.667 5.5 -34.334 16.5 -47.001s25.5 -19 43.5 -19s32.167 6.16699 42.5 18.5s15.5 28.166 15.5 47.499h79c0 -35.333 -12.833 -65.833 -38.5 -91.5s-58.5 -38.5 -98.5 -38.5zM533 0.00195312l-62 183
h-272l-62 -183h-113l247 700h129l246 -700h-113zM228 272.002h214l-103 305h-8z" />
    <glyph glyph-name="abreve" unicode="&#x103;" horiz-adv-x="536" 
d="M257 570c-40 0 -73 12.835 -99 38.502s-39 56.167 -39 91.5h78c0 -18.667 5.5 -34.334 16.5 -47.001s25.5 -19 43.5 -19s32.167 6.16699 42.5 18.5s15.5 28.166 15.5 47.499h79c0 -35.333 -12.833 -65.833 -38.5 -91.5s-58.5 -38.5 -98.5 -38.5zM500 77.002h12.999v-77
h-46c-50.667 0 -82 20.667 -94 62c-38 -48 -92.667 -72 -164 -72c-50.667 0 -91.667 12.167 -123 36.5s-47 60.166 -47 107.499c0 45.333 15.333 81 46 107s71.334 41.333 122.001 46l153 15v25c0 32 -8.5 56.667 -25.5 74s-41.167 26 -72.5 26c-58 0 -92 -29.333 -102 -88
h-101c4.66699 50.667 25 91.834 61 123.501s83.333 47.5 142 47.5c59.333 0 107.5 -16 144.5 -48s55.5 -78.333 55.5 -139v-205c0 -27.333 12.667 -41 38 -41zM359.999 192.002v36.999l-119 -12c-30.667 -2.66699 -55 -10.667 -73 -24s-27 -31.666 -27 -54.999
c0 -45.333 27.667 -68 83 -68c36 0 67.667 10 95 30s41 50.667 41 92z" />
    <glyph glyph-name="Aogonek" unicode="&#x104;" horiz-adv-x="671" 
d="M634 -113c14.667 0 29.667 2 45 6v-60c-14.667 -5.33301 -33 -8 -55 -8c-34.667 0 -62.5 7.83301 -83.5 23.5s-31.5 38.167 -31.5 67.5c0 34 19.333 62 58 84h-34l-62 183h-272l-62 -183h-113l247 700h129l246 -700c-46 -15.333 -69 -39 -69 -71c0 -28 19 -42 57 -42z
M228 272h214l-103 305h-8z" />
    <glyph glyph-name="aogonek" unicode="&#x105;" horiz-adv-x="536" 
d="M501 -113c15.333 0 30.332 2 44.999 6v-60c-14.667 -5.33301 -33 -8 -55 -8c-34.667 0 -62.5 7.83301 -83.5 23.5s-31.5 38.167 -31.5 67.5c0 35.333 20.667 64 62 86c-33.333 6.66699 -55 26.667 -65 60c-38 -48 -92.667 -72 -164 -72
c-50.667 0 -91.667 12.167 -123 36.5s-47 60.166 -47 107.499c0 45.333 15.333 81 46 107s71.334 41.333 122.001 46l153 15v25c0 32 -8.5 56.667 -25.5 74s-41.167 26 -72.5 26c-58 0 -92 -29.333 -102 -88h-101c4.66699 50.667 25 91.834 61 123.501s83.333 47.5 142 47.5
c59.333 0 107.5 -16 144.5 -48s55.5 -78.333 55.5 -139v-205c0 -27.333 12.667 -41 38 -41h13v-77c-46 -15.333 -69 -39 -69 -71c0 -28 19 -42 57 -42zM359.999 192v36.999l-119 -12c-30.667 -2.66699 -55 -10.667 -73 -24s-27 -31.666 -27 -54.999
c0 -45.333 27.667 -68 83 -68c36 0 67.667 10 95 30s41 50.667 41 92z" />
    <glyph glyph-name="Cacute" unicode="&#x106;" horiz-adv-x="755" 
d="M431 900h88l-80 -145h-80zM707 217c-12.667 -69.333 -47.334 -124.499 -104.001 -165.499s-125 -61.5 -205 -61.5c-102 0 -183.667 33.333 -245 100s-92 152.334 -92 257.001c0 105.333 31.167 192.166 93.5 260.499s143.5 102.5 243.5 102.5
c78 0 144.167 -20.5 198.5 -61.5s87.5 -97.833 99.5 -170.5h-113c-12 41.333 -34 74.166 -66 98.499s-71.333 36.5 -118 36.5c-68.667 0 -124.334 -25.5 -167.001 -76.5s-64 -114.167 -64 -189.5c0 -76 21.5 -138.333 64.5 -187s98.167 -73 165.5 -73
c48.667 0 90.334 11.833 125.001 35.5s58.334 55.167 71.001 94.5h113z" />
    <glyph glyph-name="cacute" unicode="&#x107;" horiz-adv-x="574" 
d="M332 700h88l-80 -145h-80zM302 -10c-76 0 -137.169 24.168 -183.502 72.501s-69.5 109.833 -69.5 184.5c0 76.667 23.833 139.667 71.5 189s107.834 74 180.501 74c59.333 0 110.833 -16.167 154.5 -48.5s69.5 -77.5 77.5 -135.5h-102c-6 27.333 -20.667 50 -44 68
s-52 27 -86 27c-44 0 -80.167 -16.5 -108.5 -49.5s-42.5 -74.5 -42.5 -124.5c0 -48.667 13.833 -88.834 41.5 -120.501s64.5 -47.5 110.5 -47.5c66.667 0 110.334 29.333 131.001 88h102c-8.66699 -54 -34.167 -97 -76.5 -129s-94.5 -48 -156.5 -48z" />
    <glyph glyph-name="Ccircumflex" unicode="&#x108;" horiz-adv-x="755" 
d="M339 756h-89l104 144h88l105 -144h-89l-57 83h-6zM707 217c-12.667 -69.333 -47.334 -124.499 -104.001 -165.499s-125 -61.5 -205 -61.5c-102 0 -183.667 33.333 -245 100s-92 152.334 -92 257.001c0 105.333 31.167 192.166 93.5 260.499s143.5 102.5 243.5 102.5
c78 0 144.167 -20.5 198.5 -61.5s87.5 -97.833 99.5 -170.5h-113c-12 41.333 -34 74.166 -66 98.499s-71.333 36.5 -118 36.5c-68.667 0 -124.334 -25.5 -167.001 -76.5s-64 -114.167 -64 -189.5c0 -76 21.5 -138.333 64.5 -187s98.167 -73 165.5 -73
c48.667 0 90.334 11.833 125.001 35.5s58.334 55.167 71.001 94.5h113z" />
    <glyph glyph-name="ccircumflex" unicode="&#x109;" horiz-adv-x="574" 
d="M240 556h-89l104 144h88l105 -144h-89l-57 83h-6zM302 -10c-76 0 -137.169 24.168 -183.502 72.501s-69.5 109.833 -69.5 184.5c0 76.667 23.833 139.667 71.5 189s107.834 74 180.501 74c59.333 0 110.833 -16.167 154.5 -48.5s69.5 -77.5 77.5 -135.5h-102
c-6 27.333 -20.667 50 -44 68s-52 27 -86 27c-44 0 -80.167 -16.5 -108.5 -49.5s-42.5 -74.5 -42.5 -124.5c0 -48.667 13.833 -88.834 41.5 -120.501s64.5 -47.5 110.5 -47.5c66.667 0 110.334 29.333 131.001 88h102c-8.66699 -54 -34.167 -97 -76.5 -129
s-94.5 -48 -156.5 -48z" />
    <glyph glyph-name="Cdotaccent" unicode="&#x10a;" horiz-adv-x="755" 
d="M400 774c-18 0 -33.5 6.5 -46.5 19.5s-19.5 28.167 -19.5 45.5c0 18 6.5 33.167 19.5 45.5s28.5 18.5 46.5 18.5c17.333 0 32.333 -6.16699 45 -18.5s19 -27.5 19 -45.5c0 -17.333 -6.33301 -32.5 -19 -45.5s-27.667 -19.5 -45 -19.5zM707 217
c-12.667 -69.333 -47.334 -124.499 -104.001 -165.499s-125 -61.5 -205 -61.5c-102 0 -183.667 33.333 -245 100s-92 152.334 -92 257.001c0 105.333 31.167 192.166 93.5 260.499s143.5 102.5 243.5 102.5c78 0 144.167 -20.5 198.5 -61.5s87.5 -97.833 99.5 -170.5h-113
c-12 41.333 -34 74.166 -66 98.499s-71.333 36.5 -118 36.5c-68.667 0 -124.334 -25.5 -167.001 -76.5s-64 -114.167 -64 -189.5c0 -76 21.5 -138.333 64.5 -187s98.167 -73 165.5 -73c48.667 0 90.334 11.833 125.001 35.5s58.334 55.167 71.001 94.5h113z" />
    <glyph glyph-name="cdotaccent" unicode="&#x10b;" horiz-adv-x="574" 
d="M301 574c-18 0 -33.5 6.5 -46.5 19.5s-19.5 28.167 -19.5 45.5c0 18 6.5 33.167 19.5 45.5s28.5 18.5 46.5 18.5c17.333 0 32.333 -6.16699 45 -18.5s19 -27.5 19 -45.5c0 -17.333 -6.33301 -32.5 -19 -45.5s-27.667 -19.5 -45 -19.5zM302 -10
c-76 0 -137.169 24.168 -183.502 72.501s-69.5 109.833 -69.5 184.5c0 76.667 23.833 139.667 71.5 189s107.834 74 180.501 74c59.333 0 110.833 -16.167 154.5 -48.5s69.5 -77.5 77.5 -135.5h-102c-6 27.333 -20.667 50 -44 68s-52 27 -86 27
c-44 0 -80.167 -16.5 -108.5 -49.5s-42.5 -74.5 -42.5 -124.5c0 -48.667 13.833 -88.834 41.5 -120.501s64.5 -47.5 110.5 -47.5c66.667 0 110.334 29.333 131.001 88h102c-8.66699 -54 -34.167 -97 -76.5 -129s-94.5 -48 -156.5 -48z" />
    <glyph glyph-name="Ccaron" unicode="&#x10c;" horiz-adv-x="755" 
d="M458 900h89l-103 -144h-89l-104 144h89l56 -83h6zM707 217c-12.667 -69.333 -47.334 -124.499 -104.001 -165.499s-125 -61.5 -205 -61.5c-102 0 -183.667 33.333 -245 100s-92 152.334 -92 257.001c0 105.333 31.167 192.166 93.5 260.499s143.5 102.5 243.5 102.5
c78 0 144.167 -20.5 198.5 -61.5s87.5 -97.833 99.5 -170.5h-113c-12 41.333 -34 74.166 -66 98.499s-71.333 36.5 -118 36.5c-68.667 0 -124.334 -25.5 -167.001 -76.5s-64 -114.167 -64 -189.5c0 -76 21.5 -138.333 64.5 -187s98.167 -73 165.5 -73
c48.667 0 90.334 11.833 125.001 35.5s58.334 55.167 71.001 94.5h113z" />
    <glyph glyph-name="ccaron" unicode="&#x10d;" horiz-adv-x="574" 
d="M359 700h89l-103 -144h-89l-104 144h89l56 -83h6zM302 -10c-76 0 -137.169 24.168 -183.502 72.501s-69.5 109.833 -69.5 184.5c0 76.667 23.833 139.667 71.5 189s107.834 74 180.501 74c59.333 0 110.833 -16.167 154.5 -48.5s69.5 -77.5 77.5 -135.5h-102
c-6 27.333 -20.667 50 -44 68s-52 27 -86 27c-44 0 -80.167 -16.5 -108.5 -49.5s-42.5 -74.5 -42.5 -124.5c0 -48.667 13.833 -88.834 41.5 -120.501s64.5 -47.5 110.5 -47.5c66.667 0 110.334 29.333 131.001 88h102c-8.66699 -54 -34.167 -97 -76.5 -129
s-94.5 -48 -156.5 -48z" />
    <glyph glyph-name="Dcaron" unicode="&#x10e;" horiz-adv-x="706" 
d="M407 900h89l-103 -144h-89l-104 144h89l56 -83h6zM308 700c108 0 191.167 -31.333 249.5 -94s87.5 -148 87.5 -256c0 -106.667 -29.167 -191.667 -87.5 -255s-141.5 -95 -249.5 -95h-227v700h227zM303 95c80 0 139.167 23.333 177.5 70s57.5 109.334 57.5 188.001
c0 77.333 -19 138.666 -57 183.999s-97.333 68 -178 68h-117v-510h117z" />
    <glyph glyph-name="dcaron" unicode="&#x10f;" horiz-adv-x="603" 
d="M436 442v268h102v-710h-83l-9 67h-7c-38 -51.333 -90.667 -77 -158 -77c-68 0 -123.667 24 -167 72s-65 111 -65 189c0 78.667 22 141.5 66 188.5s99.333 70.5 166 70.5c67.333 0 119 -22.667 155 -68zM699 708c20.667 0 36.667 -8 48 -24s17 -36.333 17 -61
c0 -70 -33.667 -126.333 -101 -169l-26 32c38 32 57.333 64.333 58 97c-15.333 -2 -28.833 2.5 -40.5 13.5s-17.5 26.5 -17.5 46.5s5.83301 35.833 17.5 47.5s26.5 17.5 44.5 17.5zM296 79c42.667 0 76.667 15.667 102 47s38 73 38 125c0 50.667 -12.833 91.667 -38.5 123
s-59.5 47 -101.5 47c-43.333 0 -78.333 -15.667 -105 -47s-40 -72.333 -40 -123c0 -51.333 13.333 -92.833 40 -124.5s61.667 -47.5 105 -47.5z" />
    <glyph glyph-name="Dcroat" unicode="&#x110;" horiz-adv-x="706" 
d="M308 700c108 0 191.167 -31.333 249.5 -94s87.5 -148 87.5 -256c0 -106.667 -29.167 -191.667 -87.5 -255s-141.5 -95 -249.5 -95h-227v310h-115v79h115v311h227zM303 95c80 0 139.167 23.333 177.5 70s57.5 109.334 57.5 188.001c0 77.333 -19 138.666 -57 183.999
s-97.333 68 -178 68h-117v-216h178v-79h-178v-215h117z" />
    <glyph glyph-name="dcroat" unicode="&#x111;" horiz-adv-x="603" 
d="M643 638v-75h-105v-563h-83l-9 67h-7c-38 -51.333 -90.667 -77 -158 -77c-68 0 -123.667 24 -167 72s-65 111 -65 189c0 78.667 22 141.5 66 188.5s99.333 70.5 166 70.5c67.333 0 119 -22.667 155 -68v121h-120v75h120v72h102v-72h105zM296 79
c42.667 0 76.667 15.667 102 47s38 73 38 125c0 50.667 -12.833 91.667 -38.5 123s-59.5 47 -101.5 47c-43.333 0 -78.333 -15.667 -105 -47s-40 -72.333 -40 -123c0 -51.333 13.333 -92.833 40 -124.5s61.667 -47.5 105 -47.5z" />
    <glyph glyph-name="Emacron" unicode="&#x112;" horiz-adv-x="587" 
d="M152 849h313v-72h-313v72zM184 93h359v-93h-462v700h452v-93h-349v-206h306v-91h-306v-217z" />
    <glyph glyph-name="emacron" unicode="&#x113;" horiz-adv-x="571" 
d="M449 649v-72h-313v72h313zM521 257c0 -4.66699 -0.666992 -15.668 -2 -33.001h-370c2.66699 -45.333 17 -81.833 43 -109.5s60.667 -41.5 104 -41.5c67.333 0 109 25.667 125 77h98c-10.667 -50 -35.667 -89.167 -75 -117.5s-88.666 -42.5 -147.999 -42.5
c-72.667 0 -132 23.333 -178 70s-69 108.334 -69 185.001c0 80 23.167 144.167 69.5 192.5s104.166 72.5 173.499 72.5c65.333 0 119.833 -21.667 163.5 -65s65.5 -106 65.5 -188zM292 426.999c-38.667 0 -70.668 -12.333 -96.001 -37s-40.666 -56 -45.999 -94h272
c-0.666992 38.667 -13 70.167 -37 94.5s-55 36.5 -93 36.5z" />
    <glyph glyph-name="Ebreve" unicode="&#x114;" horiz-adv-x="587" 
d="M444 900c0 -35.333 -12.833 -65.8311 -38.5 -91.498s-58.5 -38.5 -98.5 -38.5s-73 12.833 -99 38.5s-39 56.167 -39 91.5h78c0 -18.667 5.5 -34.334 16.5 -47.001s25.5 -19 43.5 -19s32.167 6.16699 42.5 18.5s15.5 28.166 15.5 47.499h79zM184 93.002h359v-93h-462v700
h452v-93h-349v-206h306v-91h-306v-217z" />
    <glyph glyph-name="ebreve" unicode="&#x115;" horiz-adv-x="571" 
d="M291 570c-40 0 -73 12.835 -99 38.502s-39 56.167 -39 91.5h78c0 -18.667 5.5 -34.334 16.5 -47.001s25.5 -19 43.5 -19s32.167 6.16699 42.5 18.5s15.5 28.166 15.5 47.499h79c0 -35.333 -12.833 -65.833 -38.5 -91.5s-58.5 -38.5 -98.5 -38.5zM521 257.002
c0 -4.66699 -0.666992 -15.668 -2 -33.001h-370c2.66699 -45.333 17 -81.833 43 -109.5s60.667 -41.5 104 -41.5c67.333 0 109 25.667 125 77h98c-10.667 -50 -35.667 -89.167 -75 -117.5s-88.666 -42.5 -147.999 -42.5c-72.667 0 -132 23.333 -178 70
s-69 108.334 -69 185.001c0 80 23.167 144.167 69.5 192.5s104.166 72.5 173.499 72.5c65.333 0 119.833 -21.667 163.5 -65s65.5 -106 65.5 -188zM292 427.001c-38.667 0 -70.668 -12.333 -96.001 -37s-40.666 -56 -45.999 -94h272c-0.666992 38.667 -13 70.167 -37 94.5
s-55 36.5 -93 36.5z" />
    <glyph glyph-name="Edotaccent" unicode="&#x116;" horiz-adv-x="587" 
d="M308 774c-18 0 -33.5 6.5 -46.5 19.5s-19.5 28.167 -19.5 45.5c0 18 6.5 33.167 19.5 45.5s28.5 18.5 46.5 18.5c17.333 0 32.333 -6.16699 45 -18.5s19 -27.5 19 -45.5c0 -17.333 -6.33301 -32.5 -19 -45.5s-27.667 -19.5 -45 -19.5zM184 93h359v-93h-462v700h452v-93
h-349v-206h306v-91h-306v-217z" />
    <glyph glyph-name="edotaccent" unicode="&#x117;" horiz-adv-x="571" 
d="M293 574c-18 0 -33.5 6.5 -46.5 19.5s-19.5 28.167 -19.5 45.5c0 18 6.5 33.167 19.5 45.5s28.5 18.5 46.5 18.5c17.333 0 32.333 -6.16699 45 -18.5s19 -27.5 19 -45.5c0 -17.333 -6.33301 -32.5 -19 -45.5s-27.667 -19.5 -45 -19.5zM521 257
c0 -4.66699 -0.666992 -15.668 -2 -33.001h-370c2.66699 -45.333 17 -81.833 43 -109.5s60.667 -41.5 104 -41.5c67.333 0 109 25.667 125 77h98c-10.667 -50 -35.667 -89.167 -75 -117.5s-88.666 -42.5 -147.999 -42.5c-72.667 0 -132 23.333 -178 70
s-69 108.334 -69 185.001c0 80 23.167 144.167 69.5 192.5s104.166 72.5 173.499 72.5c65.333 0 119.833 -21.667 163.5 -65s65.5 -106 65.5 -188zM292 426.999c-38.667 0 -70.668 -12.333 -96.001 -37s-40.666 -56 -45.999 -94h272c-0.666992 38.667 -13 70.167 -37 94.5
s-55 36.5 -93 36.5z" />
    <glyph glyph-name="Eogonek" unicode="&#x118;" horiz-adv-x="587" 
d="M532 -113c14.667 0 29.667 2 45 6v-60c-14.667 -5.33301 -33 -8 -55 -8c-34.667 0 -62.5 7.83301 -83.5 23.5s-31.5 38.167 -31.5 67.5c0 34 19.333 62 58 84h-384v700h452v-93h-349v-206h306v-91h-306v-217h359v-92l1 -1c-46 -15.333 -69 -39 -69 -71
c0 -28 19 -42 57 -42z" />
    <glyph glyph-name="eogonek" unicode="&#x119;" horiz-adv-x="571" 
d="M521 257c0 -4.66699 -0.666016 -15.667 -1.99902 -33h-370c2.66699 -45.333 17 -81.833 43 -109.5s60.667 -41.5 104 -41.5c67.333 0 109 25.667 125 77h98c-8 -38.667 -25 -71.167 -51 -97.5s-59 -44.166 -99 -53.499c-43.333 -16.667 -65 -40 -65 -70
c0 -28 19 -42 57 -42c15.333 0 30.333 2 45 6v-60c-14.667 -5.33301 -33 -8 -55 -8c-34.667 0 -62.5 7.83301 -83.5 23.5s-31.5 38.167 -31.5 67.5c0 30 14.333 54.667 43 74c-68 4 -123.333 29.167 -166 75.5s-64 106.166 -64 179.499c0 80 23.167 144.167 69.5 192.5
s104.166 72.5 173.499 72.5c65.333 0 119.833 -21.667 163.5 -65s65.5 -106 65.5 -188zM292.001 427c-38.667 0 -70.668 -12.333 -96.001 -37s-40.666 -56 -45.999 -94h272c-0.666992 38.667 -13 70.167 -37 94.5s-55 36.5 -93 36.5z" />
    <glyph glyph-name="Ecaron" unicode="&#x11a;" horiz-adv-x="587" 
d="M367 900h89l-103 -144h-89l-104 144h89l56 -83h6zM184 93h359v-93h-462v700h452v-93h-349v-206h306v-91h-306v-217z" />
    <glyph glyph-name="ecaron" unicode="&#x11b;" horiz-adv-x="571" 
d="M337 556h-89l-104 144h89l56 -83h6l56 83h89zM521 257c0 -4.66699 -0.666992 -15.668 -2 -33.001h-370c2.66699 -45.333 17 -81.833 43 -109.5s60.667 -41.5 104 -41.5c67.333 0 109 25.667 125 77h98c-10.667 -50 -35.667 -89.167 -75 -117.5
s-88.666 -42.5 -147.999 -42.5c-72.667 0 -132 23.333 -178 70s-69 108.334 -69 185.001c0 80 23.167 144.167 69.5 192.5s104.166 72.5 173.499 72.5c65.333 0 119.833 -21.667 163.5 -65s65.5 -106 65.5 -188zM292 426.999c-38.667 0 -70.668 -12.333 -96.001 -37
s-40.666 -56 -45.999 -94h272c-0.666992 38.667 -13 70.167 -37 94.5s-55 36.5 -93 36.5z" />
    <glyph glyph-name="Gcircumflex" unicode="&#x11c;" horiz-adv-x="787" 
d="M336 756h-89l104 144h88l105 -144h-89l-57 83h-6zM401 370l304.998 0.000976562v-370h-84l-11 76h-7c-55.333 -57.333 -128 -86 -218 -86c-98.667 0 -177.5 32.5 -236.5 97.5s-88.5 149.167 -88.5 252.5c0 106.667 32.333 195 97 265s148.334 105 251.001 105
c80.667 0 146.834 -20 198.501 -60s82.834 -91.333 93.501 -154h-113c-12 35.333 -33.5 63.666 -64.5 84.999s-69.167 32 -114.5 32c-72 0 -130.167 -25.5 -174.5 -76.5s-66.5 -116.167 -66.5 -195.5c0 -75.333 20.667 -136.833 62 -184.5s97.666 -71.5 168.999 -71.5
c57.333 0 105.5 13.833 144.5 41.5s58.5 67.167 58.5 118.5v41h-201v84z" />
    <glyph glyph-name="gcircumflex" unicode="&#x11d;" horiz-adv-x="544" 
d="M272 639l-56 -83h-89l104 144h88l105 -144h-89l-57 83h-6zM525 493c-18 -21.333 -45.6689 -41.001 -83.002 -59.001c21.333 -27.333 32 -59.333 32 -96c0 -52 -18.667 -93.333 -56 -124s-84.333 -46 -141 -46c-33.333 0 -63 5 -89 15c-19.333 -10 -29 -23.667 -29 -41
c0 -28.667 23.333 -43 70 -43h99c56.667 0 100.334 -12.667 131.001 -38s46 -60.333 46 -105c0 -52 -20.333 -92.667 -61 -122s-95 -44 -163 -44c-72 0 -127.5 16 -166.5 48s-60.833 72.667 -65.5 122l80 69c-41.333 17.333 -62 48 -62 92c0 40 21.667 71.667 65 95
c-36 30.667 -54 71.334 -54 122.001c0 50 17.833 91.167 53.5 123.5s82.834 48.5 141.501 48.5c44 0 82.333 -9.66699 115 -29c32 16.667 59.667 40 83 70zM276.998 244.999c30 0 54 8.66895 72 26.002s27 39.666 27 66.999c0 28.667 -9 51.834 -27 69.501
s-42 26.5 -72 26.5c-30.667 0 -55.334 -8.83301 -74.001 -26.5s-28 -40.834 -28 -69.501c0 -26.667 9.33301 -48.834 28 -66.501s43.334 -26.5 74.001 -26.5zM406.998 -48.999c0 23.333 -9 40.333 -27 51s-39.333 16 -64 16h-91l-77 -65c16 -56.667 60.333 -85 133 -85
c36 0 66 7 90 21s36 34.667 36 62z" />
    <glyph glyph-name="Gbreve" unicode="&#x11e;" horiz-adv-x="787" 
d="M532 900c0 -35.333 -12.833 -65.8311 -38.5 -91.498s-58.5 -38.5 -98.5 -38.5s-73 12.833 -99 38.5s-39 56.167 -39 91.5h78c0 -18.667 5.5 -34.334 16.5 -47.001s25.5 -19 43.5 -19s32.167 6.16699 42.5 18.5s15.5 28.166 15.5 47.499h79zM401 370.002
l304.998 0.000976562v-370h-84l-11 76h-7c-55.333 -57.333 -128 -86 -218 -86c-98.667 0 -177.5 32.5 -236.5 97.5s-88.5 149.167 -88.5 252.5c0 106.667 32.333 195 97 265s148.334 105 251.001 105c80.667 0 146.834 -20 198.501 -60s82.834 -91.333 93.501 -154h-113
c-12 35.333 -33.5 63.666 -64.5 84.999s-69.167 32 -114.5 32c-72 0 -130.167 -25.5 -174.5 -76.5s-66.5 -116.167 -66.5 -195.5c0 -75.333 20.667 -136.833 62 -184.5s97.666 -71.5 168.999 -71.5c57.333 0 105.5 13.833 144.5 41.5s58.5 67.167 58.5 118.5v41h-201v84z
" />
    <glyph glyph-name="gbreve" unicode="&#x11f;" horiz-adv-x="544" 
d="M275 570c-40 0 -73 12.835 -99 38.502s-39 56.167 -39 91.5h78c0 -18.667 5.5 -34.334 16.5 -47.001s25.5 -19 43.5 -19s32.167 6.16699 42.5 18.5s15.5 28.166 15.5 47.499h79c0 -35.333 -12.833 -65.833 -38.5 -91.5s-58.5 -38.5 -98.5 -38.5zM525 493.002
c-18 -21.333 -45.6689 -41.001 -83.002 -59.001c21.333 -27.333 32 -59.333 32 -96c0 -52 -18.667 -93.333 -56 -124s-84.333 -46 -141 -46c-33.333 0 -63 5 -89 15c-19.333 -10 -29 -23.667 -29 -41c0 -28.667 23.333 -43 70 -43h99c56.667 0 100.334 -12.667 131.001 -38
s46 -60.333 46 -105c0 -52 -20.333 -92.667 -61 -122s-95 -44 -163 -44c-72 0 -127.5 16 -166.5 48s-60.833 72.667 -65.5 122l80 69c-41.333 17.333 -62 48 -62 92c0 40 21.667 71.667 65 95c-36 30.667 -54 71.334 -54 122.001c0 50 17.833 91.167 53.5 123.5
s82.834 48.5 141.501 48.5c44 0 82.333 -9.66699 115 -29c32 16.667 59.667 40 83 70zM276.998 245.001c30 0 54 8.66895 72 26.002s27 39.666 27 66.999c0 28.667 -9 51.834 -27 69.501s-42 26.5 -72 26.5c-30.667 0 -55.334 -8.83301 -74.001 -26.5
s-28 -40.834 -28 -69.501c0 -26.667 9.33301 -48.834 28 -66.501s43.334 -26.5 74.001 -26.5zM406.998 -48.9971c0 23.333 -9 40.333 -27 51s-39.333 16 -64 16h-91l-77 -65c16 -56.667 60.333 -85 133 -85c36 0 66 7 90 21s36 34.667 36 62z" />
    <glyph glyph-name="Gdotaccent" unicode="&#x120;" horiz-adv-x="787" 
d="M397 774c-18 0 -33.5 6.5 -46.5 19.5s-19.5 28.167 -19.5 45.5c0 18 6.5 33.167 19.5 45.5s28.5 18.5 46.5 18.5c17.333 0 32.333 -6.16699 45 -18.5s19 -27.5 19 -45.5c0 -17.333 -6.33301 -32.5 -19 -45.5s-27.667 -19.5 -45 -19.5zM401 370l304.998 0.000976562v-370
h-84l-11 76h-7c-55.333 -57.333 -128 -86 -218 -86c-98.667 0 -177.5 32.5 -236.5 97.5s-88.5 149.167 -88.5 252.5c0 106.667 32.333 195 97 265s148.334 105 251.001 105c80.667 0 146.834 -20 198.501 -60s82.834 -91.333 93.501 -154h-113
c-12 35.333 -33.5 63.666 -64.5 84.999s-69.167 32 -114.5 32c-72 0 -130.167 -25.5 -174.5 -76.5s-66.5 -116.167 -66.5 -195.5c0 -75.333 20.667 -136.833 62 -184.5s97.666 -71.5 168.999 -71.5c57.333 0 105.5 13.833 144.5 41.5s58.5 67.167 58.5 118.5v41h-201v84z
" />
    <glyph glyph-name="gdotaccent" unicode="&#x121;" horiz-adv-x="544" 
d="M277 574c-18 0 -33.5 6.5 -46.5 19.5s-19.5 28.167 -19.5 45.5c0 18 6.5 33.167 19.5 45.5s28.5 18.5 46.5 18.5c17.333 0 32.333 -6.16699 45 -18.5s19 -27.5 19 -45.5c0 -17.333 -6.33301 -32.5 -19 -45.5s-27.667 -19.5 -45 -19.5zM525 493
c-18 -21.333 -45.6689 -41.001 -83.002 -59.001c21.333 -27.333 32 -59.333 32 -96c0 -52 -18.667 -93.333 -56 -124s-84.333 -46 -141 -46c-33.333 0 -63 5 -89 15c-19.333 -10 -29 -23.667 -29 -41c0 -28.667 23.333 -43 70 -43h99c56.667 0 100.334 -12.667 131.001 -38
s46 -60.333 46 -105c0 -52 -20.333 -92.667 -61 -122s-95 -44 -163 -44c-72 0 -127.5 16 -166.5 48s-60.833 72.667 -65.5 122l80 69c-41.333 17.333 -62 48 -62 92c0 40 21.667 71.667 65 95c-36 30.667 -54 71.334 -54 122.001c0 50 17.833 91.167 53.5 123.5
s82.834 48.5 141.501 48.5c44 0 82.333 -9.66699 115 -29c32 16.667 59.667 40 83 70zM276.998 244.999c30 0 54 8.66895 72 26.002s27 39.666 27 66.999c0 28.667 -9 51.834 -27 69.501s-42 26.5 -72 26.5c-30.667 0 -55.334 -8.83301 -74.001 -26.5
s-28 -40.834 -28 -69.501c0 -26.667 9.33301 -48.834 28 -66.501s43.334 -26.5 74.001 -26.5zM406.998 -48.999c0 23.333 -9 40.333 -27 51s-39.333 16 -64 16h-91l-77 -65c16 -56.667 60.333 -85 133 -85c36 0 66 7 90 21s36 34.667 36 62z" />
    <glyph glyph-name="uni0122" unicode="&#x122;" horiz-adv-x="787" 
d="M401 370l304.998 0.000976562v-370h-84l-11 76h-7c-55.333 -57.333 -128 -86 -218 -86c-98.667 0 -177.5 32.5 -236.5 97.5s-88.5 149.167 -88.5 252.5c0 106.667 32.333 195 97 265s148.334 105 251.001 105c80.667 0 146.834 -20 198.501 -60
s82.834 -91.333 93.501 -154h-113c-12 35.333 -33.5 63.666 -64.5 84.999s-69.167 32 -114.5 32c-72 0 -130.167 -25.5 -174.5 -76.5s-66.5 -116.167 -66.5 -195.5c0 -75.333 20.667 -136.833 62 -184.5s97.666 -71.5 168.999 -71.5c57.333 0 105.5 13.833 144.5 41.5
s58.5 67.167 58.5 118.5v41h-201v84zM393.998 -56.999c22 0 39.332 -7.83398 51.999 -23.501s19 -35.834 19 -60.501c0 -37.333 -10.833 -70 -32.5 -98s-47.167 -50 -76.5 -66l-29 29c40.667 34 61.334 64.333 62.001 91c-18.667 -1.33301 -34 3.83398 -46 15.501
s-18 27.167 -18 46.5c0 20.667 6.5 36.834 19.5 48.501s29.5 17.5 49.5 17.5z" />
    <glyph glyph-name="uni0123" unicode="&#x123;" horiz-adv-x="544" 
d="M278 557c-22.667 0 -40.333 7.83398 -53 23.501s-19 35.834 -19 60.501c0 37.333 10.833 70 32.5 98s47.5 50 77.5 66l29 -29c-41.333 -34 -62.333 -64.333 -63 -91c18.667 1.33301 34 -3.83398 46 -15.501s18 -27.167 18 -46.5c0 -20.667 -6.5 -36.834 -19.5 -48.501
s-29.167 -17.5 -48.5 -17.5zM525.001 493.001c-18 -21.333 -45.6689 -41.001 -83.002 -59.001c21.333 -27.333 32 -59.333 32 -96c0 -52 -18.667 -93.333 -56 -124s-84.333 -46 -141 -46c-33.333 0 -63 5 -89 15c-19.333 -10 -29 -23.667 -29 -41
c0 -28.667 23.333 -43 70 -43h99c56.667 0 100.334 -12.667 131.001 -38s46 -60.333 46 -105c0 -52 -20.333 -92.667 -61 -122s-95 -44 -163 -44c-72 0 -127.5 16 -166.5 48s-60.833 72.667 -65.5 122l80 69c-41.333 17.333 -62 48 -62 92c0 40 21.667 71.667 65 95
c-36 30.667 -54 71.334 -54 122.001c0 50 17.833 91.167 53.5 123.5s82.834 48.5 141.501 48.5c44 0 82.333 -9.66699 115 -29c32 16.667 59.667 40 83 70zM276.999 245c30 0 54 8.66895 72 26.002s27 39.666 27 66.999c0 28.667 -9 51.834 -27 69.501s-42 26.5 -72 26.5
c-30.667 0 -55.334 -8.83301 -74.001 -26.5s-28 -40.834 -28 -69.501c0 -26.667 9.33301 -48.834 28 -66.501s43.334 -26.5 74.001 -26.5zM406.999 -48.998c0 23.333 -9 40.333 -27 51s-39.333 16 -64 16h-91l-77 -65c16 -56.667 60.333 -85 133 -85c36 0 66 7 90 21
s36 34.667 36 62z" />
    <glyph glyph-name="Hcircumflex" unicode="&#x124;" horiz-adv-x="698" 
d="M287 756h-89l104 144h88l105 -144h-89l-57 83h-6zM512 700h105v-700h-105v307h-326v-307h-105v700h105v-298h326v298z" />
    <glyph glyph-name="hcircumflex" unicode="&#x125;" horiz-adv-x="572" 
d="M58 756h-89l104 144h88l105 -144h-89l-57 83h-6zM320 510c56.667 0 101.999 -17.499 135.999 -52.499s51 -84.167 51 -147.5v-310h-102v288c0 44 -10.5 77.167 -31.5 99.5s-48.5 33.5 -82.5 33.5c-35.333 0 -64.833 -11.833 -88.5 -35.5s-35.5 -58.834 -35.5 -105.501
v-280h-102v710h102v-270h7c34.667 46.667 83.334 70 146.001 70z" />
    <glyph glyph-name="Hbar" unicode="&#x126;" horiz-adv-x="698" 
d="M512 700h105v-700h-105v307h-326v-307h-105v700h105v-110h326v110zM186 402h326v108h-326v-108z" />
    <glyph glyph-name="hbar" unicode="&#x127;" horiz-adv-x="572" 
d="M320 510c56.667 0 101.999 -17.499 135.999 -52.499s51 -84.167 51 -147.5v-310h-102v288c0 44 -10.5 77.167 -31.5 99.5s-48.5 33.5 -82.5 33.5c-35.333 0 -64.833 -11.833 -88.5 -35.5s-35.5 -58.834 -35.5 -105.501v-280h-102v562h-101v75h101v73h102v-73h124v-75
h-124v-122h7c34.667 46.667 83.334 70 146.001 70z" />
    <glyph glyph-name="Itilde" unicode="&#x128;" horiz-adv-x="267" 
d="M312 871c-2 -35.333 -12.1689 -65 -30.502 -89s-43.166 -36 -74.499 -36c-22 0 -41.167 5.33301 -57.5 16s-30.666 21.167 -42.999 31.5s-24.5 15.5 -36.5 15.5c-25.333 0 -40.666 -18.333 -45.999 -55h-70c2.66699 36 13.167 66 31.5 90s43.5 36 75.5 36
c18 0 34.167 -3.16699 48.5 -9.5s25.166 -13.5 32.499 -21.5s15.833 -15.167 25.5 -21.5s19.5 -9.5 29.5 -9.5c27.333 0 42.333 17.667 45 53h70zM185.998 700v-700h-105v700h105z" />
    <glyph glyph-name="itilde" unicode="&#x129;" horiz-adv-x="231" 
d="M294 671c-2 -35.333 -12.1689 -65 -30.502 -89s-43.166 -36 -74.499 -36c-22 0 -41.167 5.33301 -57.5 16s-30.666 21.167 -42.999 31.5s-24.5 15.5 -36.5 15.5c-25.333 0 -40.666 -18.333 -45.999 -55h-70c2.66699 36 13.167 66 31.5 90s43.5 36 75.5 36
c18 0 34.167 -3.16699 48.5 -9.5s25.166 -13.5 32.499 -21.5s15.833 -15.167 25.5 -21.5s19.5 -9.5 29.5 -9.5c27.333 0 42.333 17.667 45 53h70zM64.998 0v500h102v-500h-102z" />
    <glyph glyph-name="Imacron" unicode="&#x12a;" horiz-adv-x="267" 
d="M-22 849h313v-72h-313v72zM186 700v-700h-105v700h105z" />
    <glyph glyph-name="imacron" unicode="&#x12b;" horiz-adv-x="231" 
d="M-40 649h313v-72h-313v72zM65 0v500h102v-500h-102z" />
    <glyph glyph-name="Ibreve" unicode="&#x12c;" horiz-adv-x="267" 
d="M270 900c0 -35.333 -12.833 -65.8311 -38.5 -91.498s-58.5 -38.5 -98.5 -38.5s-73 12.833 -99 38.5s-39 56.167 -39 91.5h78c0 -18.667 5.5 -34.334 16.5 -47.001s25.5 -19 43.5 -19s32.167 6.16699 42.5 18.5s15.5 28.166 15.5 47.499h79zM186 700.002v-700h-105v700
h105z" />
    <glyph glyph-name="ibreve" unicode="&#x12d;" horiz-adv-x="231" 
d="M252 700c0 -35.333 -12.833 -65.8311 -38.5 -91.498s-58.5 -38.5 -98.5 -38.5s-73 12.833 -99 38.5s-39 56.167 -39 91.5h78c0 -18.667 5.5 -34.334 16.5 -47.001s25.5 -19 43.5 -19s32.167 6.16699 42.5 18.5s15.5 28.166 15.5 47.499h79zM65 0.00195312v500h102v-500
h-102z" />
    <glyph glyph-name="Iogonek" unicode="&#x12e;" horiz-adv-x="267" 
d="M174 -113c14.667 0 29.667 2 45 6v-60c-14.667 -5.33301 -33 -8 -55 -8c-34.667 0 -62.5 7.83301 -83.5 23.5s-31.5 38.167 -31.5 67.5c0 34 19.333 62 58 84h-26v700h105v-700c-46 -15.333 -69 -39 -69 -71c0 -28 19 -42 57 -42z" />
    <glyph glyph-name="iogonek" unicode="&#x12f;" horiz-adv-x="231" 
d="M116 574c-18 0 -33.5 6.5 -46.5 19.5s-19.5 28.167 -19.5 45.5c0 18 6.5 33.167 19.5 45.5s28.5 18.5 46.5 18.5c17.333 0 32.333 -6.16699 45 -18.5s19 -27.5 19 -45.5c0 -17.333 -6.33301 -32.5 -19 -45.5s-27.667 -19.5 -45 -19.5zM155 -113c15.333 0 30.333 2 45 6
v-60c-14.667 -5.33301 -33 -8 -55 -8c-34.667 0 -62.5 7.83301 -83.5 23.5s-31.5 38.167 -31.5 67.5c0 34 19.333 62 58 84h-23v500h102v-500c-46 -15.333 -69 -39 -69 -71c0 -28 19 -42 57 -42z" />
    <glyph glyph-name="Idotaccent" unicode="&#x130;" horiz-adv-x="267" 
d="M135 774c-18 0 -33.5 6.5 -46.5 19.5s-19.5 28.167 -19.5 45.5c0 18 6.5 33.167 19.5 45.5s28.5 18.5 46.5 18.5c17.333 0 32.333 -6.16699 45 -18.5s19 -27.5 19 -45.5c0 -17.333 -6.33301 -32.5 -19 -45.5s-27.667 -19.5 -45 -19.5zM186 700v-700h-105v700h105z" />
    <glyph glyph-name="dotlessi" unicode="&#x131;" horiz-adv-x="231" 
d="M65 0v500h102v-500h-102z" />
    <glyph glyph-name="IJ" unicode="&#x132;" horiz-adv-x="799" 
d="M186 700v-700h-105v700h105zM403 205c1.33301 -34.667 11.166 -63 29.499 -85s43.833 -33 76.5 -33c32 0 57.333 10.833 76 32.5s28 53.5 28 95.5v485h106v-489c0 -71.333 -19.167 -126 -57.5 -164s-89.166 -57 -152.499 -57c-67.333 0 -119.833 19.333 -157.5 58
s-57.167 91 -58.5 157h110z" />
    <glyph glyph-name="ij" unicode="&#x133;" horiz-adv-x="471" 
d="M116 574c-18 0 -33.5 6.5 -46.5 19.5s-19.5 28.167 -19.5 45.5c0 18 6.5 33.167 19.5 45.5s28.5 18.5 46.5 18.5c17.333 0 32.333 -6.16699 45 -18.5s19 -27.5 19 -45.5c0 -17.333 -6.33301 -32.5 -19 -45.5s-27.667 -19.5 -45 -19.5zM344 574
c-17.333 0 -32.667 6.5 -46 19.5s-20 28.167 -20 45.5c0 18 6.5 33.167 19.5 45.5s28.5 18.5 46.5 18.5s33.333 -6.16699 46 -18.5s19 -27.5 19 -45.5c0 -17.333 -6.33301 -32.5 -19 -45.5s-28 -19.5 -46 -19.5zM64.999 0v500h102v-500h-102zM255.999 -210
c-24 0 -50 3.66699 -78 11v77c17.333 -4.66699 33.666 -7 48.999 -7c44 0 66 21 66 63v566h102v-579c0 -16 -1.83301 -31 -5.5 -45s-10.167 -27.833 -19.5 -41.5s-23.666 -24.5 -42.999 -32.5s-43 -12 -71 -12z" />
    <glyph glyph-name="Jcircumflex" unicode="&#x134;" horiz-adv-x="543" 
d="M350 756h-89l104 144h88l105 -144h-89l-57 83h-6zM147 205c1.33301 -34.667 11.166 -63 29.499 -85s43.833 -33 76.5 -33c32 0 57.333 10.833 76 32.5s28 53.5 28 95.5v485h106v-489c0 -71.333 -19.167 -126 -57.5 -164s-89.166 -57 -152.499 -57
c-67.333 0 -119.833 19.333 -157.5 58s-57.167 91 -58.5 157h110z" />
    <glyph glyph-name="jcircumflex" unicode="&#x135;" horiz-adv-x="231" 
d="M56 556h-89l104 144h88l105 -144h-89l-57 83h-6zM28 -210c-23.333 0 -49.667 3.66699 -79 11v77c17.333 -4.66699 34 -7 50 -7c44 0 66 21 66 63v566h102v-579c0 -36 -10.167 -66.833 -30.5 -92.5s-56.5 -38.5 -108.5 -38.5z" />
    <glyph glyph-name="uni0136" unicode="&#x136;" horiz-adv-x="633" 
d="M487 0l-248 312h-53v-312h-105v700h105v-293h53l222 293h120l-253 -335v-5l280 -360h-121zM335 -57c22 0 39.332 -7.83398 51.999 -23.501s19 -35.834 19 -60.501c0 -37.333 -10.833 -70 -32.5 -98s-47.167 -50 -76.5 -66l-29 29c40.667 34 61.334 64.333 62.001 91
c-18.667 -1.33301 -34 3.83398 -46 15.501s-18 27.167 -18 46.5c0 20.667 6.5 36.834 19.5 48.501s29.5 17.5 49.5 17.5z" />
    <glyph glyph-name="uni0137" unicode="&#x137;" horiz-adv-x="523" 
d="M503 500l-205 -201l205 -299h-113l-161 231l-62 -61v-170h-102v710h102v-410h7l206 200h123zM276 -57c22 0 39.332 -7.83398 51.999 -23.501s19 -35.834 19 -60.501c0 -37.333 -10.833 -70 -32.5 -98s-47.167 -50 -76.5 -66l-29 29c40.667 34 61.334 64.333 62.001 91
c-18.667 -1.33301 -34 3.83398 -46 15.501s-18 27.167 -18 46.5c0 20.667 6.5 36.834 19.5 48.501s29.5 17.5 49.5 17.5z" />
    <glyph glyph-name="Lacute" unicode="&#x139;" horiz-adv-x="578" 
d="M160 900h88l-80 -145h-80zM184 95h357v-95h-460v700h103v-605z" />
    <glyph glyph-name="lacute" unicode="&#x13a;" horiz-adv-x="231" 
d="M148 900h88l-80 -145h-80zM65 0v710h102v-710h-102z" />
    <glyph glyph-name="uni013B" unicode="&#x13b;" horiz-adv-x="578" 
d="M184 95h357v-95h-460v700h103v-605zM305 -57c22 0 39.332 -7.83398 51.999 -23.501s19 -35.834 19 -60.501c0 -37.333 -10.833 -70 -32.5 -98s-47.167 -50 -76.5 -66l-29 29c40.667 34 61.334 64.333 62.001 91c-18.667 -1.33301 -34 3.83398 -46 15.501
s-18 27.167 -18 46.5c0 20.667 6.5 36.834 19.5 48.501s29.5 17.5 49.5 17.5z" />
    <glyph glyph-name="uni013C" unicode="&#x13c;" horiz-adv-x="231" 
d="M65 0v710h102v-710h-102zM114 -57c22 0 39.332 -7.83398 51.999 -23.501s19 -35.834 19 -60.501c0 -37.333 -10.833 -70 -32.5 -98s-47.167 -50 -76.5 -66l-29 29c40.667 34 61.334 64.333 62.001 91c-18.667 -1.33301 -34 3.83398 -46 15.501s-18 27.167 -18 46.5
c0 20.667 6.5 36.834 19.5 48.501s29.5 17.5 49.5 17.5z" />
    <glyph glyph-name="Lcaron" unicode="&#x13d;" horiz-adv-x="578" 
d="M344 708c20.667 0 36.667 -8 48 -24s17 -36.333 17 -61c0 -70 -33.667 -126.333 -101 -169l-26 32c38 32 57.333 64.333 58 97c-15.333 -2 -28.833 2.5 -40.5 13.5s-17.5 26.5 -17.5 46.5s5.83301 35.833 17.5 47.5s26.5 17.5 44.5 17.5zM184 95h357v-95h-460v700h103
v-605z" />
    <glyph glyph-name="lcaron" unicode="&#x13e;" horiz-adv-x="231" 
d="M65 0v710h102v-710h-102zM327 708c20.667 0 36.667 -8 48 -24s17 -36.333 17 -61c0 -70 -33.667 -126.333 -101 -169l-26 32c38 32 57.333 64.333 58 97c-15.333 -2 -28.833 2.5 -40.5 13.5s-17.5 26.5 -17.5 46.5s5.83301 35.833 17.5 47.5s26.5 17.5 44.5 17.5z" />
    <glyph glyph-name="Ldot" unicode="&#x13f;" horiz-adv-x="578" 
d="M184 95h357v-95h-460v700h103v-605zM364 344c-18 0 -33.5 6.5 -46.5 19.5s-19.5 28.167 -19.5 45.5c0 18 6.5 33.167 19.5 45.5s28.5 18.5 46.5 18.5c17.333 0 32.333 -6.16699 45 -18.5s19 -27.5 19 -45.5c0 -17.333 -6.33301 -32.5 -19 -45.5s-27.667 -19.5 -45 -19.5z
" />
    <glyph glyph-name="ldot" unicode="&#x140;" horiz-adv-x="231" 
d="M116 774c-18 0 -33.5 6.5 -46.5 19.5s-19.5 28.167 -19.5 45.5c0 18 6.5 33.167 19.5 45.5s28.5 18.5 46.5 18.5c17.333 0 32.333 -6.16699 45 -18.5s19 -27.5 19 -45.5c0 -17.333 -6.33301 -32.5 -19 -45.5s-27.667 -19.5 -45 -19.5zM65 0v710h102v-710h-102z" />
    <glyph glyph-name="Lslash" unicode="&#x141;" horiz-adv-x="578" 
d="M184 95h357v-95h-460v263l-115 -56v93l115 57v343h103v-293l180 89v-94l-180 -88v-219z" />
    <glyph glyph-name="lslash" unicode="&#x142;" horiz-adv-x="231" 
d="M259 479v-93l-92 -50v-336h-102v280l-91 -49v92l91 50v337h102v-281z" />
    <glyph glyph-name="Nacute" unicode="&#x143;" horiz-adv-x="735" 
d="M399 900h88l-80 -145h-80zM551 700h103v-700h-111l-352 519h-7v-519h-103v700h111l352 -520h7v520z" />
    <glyph glyph-name="nacute" unicode="&#x144;" horiz-adv-x="572" 
d="M318 700h88l-80 -145h-80zM65 0l-0.000976562 500.001h92l10 -60h7c34.667 46.667 83.334 70 146.001 70c56.667 0 102 -17.5 136 -52.5s51 -84.167 51 -147.5v-310h-102v288c0 44 -10.5 77.167 -31.5 99.5s-48.5 33.5 -82.5 33.5c-35.333 0 -64.833 -11.833 -88.5 -35.5
s-35.5 -58.834 -35.5 -105.501v-280h-102z" />
    <glyph glyph-name="uni0145" unicode="&#x145;" horiz-adv-x="735" 
d="M551 700h103v-700h-111l-352 519h-7v-519h-103v700h111l352 -520h7v520zM365 -57c22 0 39.332 -7.83398 51.999 -23.501s19 -35.834 19 -60.501c0 -37.333 -10.833 -70 -32.5 -98s-47.167 -50 -76.5 -66l-29 29c40.667 34 61.334 64.333 62.001 91
c-18.667 -1.33301 -34 3.83398 -46 15.501s-18 27.167 -18 46.5c0 20.667 6.5 36.834 19.5 48.501s29.5 17.5 49.5 17.5z" />
    <glyph glyph-name="uni0146" unicode="&#x146;" horiz-adv-x="572" 
d="M65 0l-0.000976562 500.001h92l10 -60h7c34.667 46.667 83.334 70 146.001 70c56.667 0 102 -17.5 136 -52.5s51 -84.167 51 -147.5v-310h-102v288c0 44 -10.5 77.167 -31.5 99.5s-48.5 33.5 -82.5 33.5c-35.333 0 -64.833 -11.833 -88.5 -35.5
s-35.5 -58.834 -35.5 -105.501v-280h-102zM282.999 -56.999c22 0 39.332 -7.83398 51.999 -23.501s19 -35.834 19 -60.501c0 -37.333 -10.833 -70 -32.5 -98s-47.167 -50 -76.5 -66l-29 29c40.667 34 61.334 64.333 62.001 91c-18.667 -1.33301 -34 3.83398 -46 15.501
s-18 27.167 -18 46.5c0 20.667 6.5 36.834 19.5 48.501s29.5 17.5 49.5 17.5z" />
    <glyph glyph-name="Ncaron" unicode="&#x147;" horiz-adv-x="735" 
d="M426 900h89l-103 -144h-89l-104 144h89l56 -83h6zM551 700h103v-700h-111l-352 519h-7v-519h-103v700h111l352 -520h7v520z" />
    <glyph glyph-name="ncaron" unicode="&#x148;" horiz-adv-x="572" 
d="M345 700h89l-103 -144h-89l-104 144h89l56 -83h6zM65 0l-0.000976562 500.001h92l10 -60h7c34.667 46.667 83.334 70 146.001 70c56.667 0 102 -17.5 136 -52.5s51 -84.167 51 -147.5v-310h-102v288c0 44 -10.5 77.167 -31.5 99.5s-48.5 33.5 -82.5 33.5
c-35.333 0 -64.833 -11.833 -88.5 -35.5s-35.5 -58.834 -35.5 -105.501v-280h-102z" />
    <glyph glyph-name="Eng" unicode="&#x14a;" horiz-adv-x="735" 
d="M551 700h103.001v-770c0 -46.667 -12.5 -81.667 -37.5 -105s-58.833 -35 -101.5 -35c-26 0 -53 3.66699 -81 11v77c21.333 -4.66699 38.666 -7 51.999 -7c20 0 36 5.5 48 16.5s18 27.5 18 49.5v51l-361 531h-7v-519h-103v700h111l352 -520h7v520z" />
    <glyph glyph-name="eng" unicode="&#x14b;" horiz-adv-x="572" 
d="M320 510c56.667 0 101.999 -17.499 135.999 -52.499s51 -84.167 51 -147.5v-380c0 -46.667 -12.5 -81.667 -37.5 -105s-58.833 -35 -101.5 -35c-26 0 -53 3.66699 -81 11v77c20.667 -4.66699 38 -7 52 -7c20 0 36 5.66699 48 17s18 28 18 50v350
c0 44 -10.5 77.167 -31.5 99.5s-48.5 33.5 -82.5 33.5c-35.333 0 -64.833 -11.833 -88.5 -35.5s-35.5 -58.834 -35.5 -105.501v-280h-102v500h92l10 -60h7c34.667 46.667 83.334 70 146.001 70z" />
    <glyph glyph-name="Omacron" unicode="&#x14c;" horiz-adv-x="823" 
d="M256 849h313v-72h-313v72zM412 -10c-100.667 0 -184.334 34.1689 -251.001 102.502s-100 154.166 -100 257.499c0 102.667 33.333 188.334 100 257.001s150.334 103 251.001 103c100 0 183.333 -34.333 250 -103s100 -154.334 100 -257.001
s-33.167 -188.334 -99.5 -257.001s-149.833 -103 -250.5 -103zM412 87.002c70 0 127.999 25.167 173.999 75.5s69 112.833 69 187.5s-23.167 137.167 -69.5 187.5s-104.166 75.5 -173.499 75.5c-70 0 -128.167 -25.167 -174.5 -75.5s-69.5 -112.833 -69.5 -187.5
s23.167 -137.167 69.5 -187.5s104.5 -75.5 174.5 -75.5z" />
    <glyph glyph-name="omacron" unicode="&#x14d;" horiz-adv-x="610" 
d="M149 649h313v-72h-313v72zM304 -10c-73.333 0 -134.167 24.667 -182.5 74s-72.5 111.333 -72.5 186c0 76 24 138.333 72 187s109 73 183 73s135.333 -24.5 184 -73.5s73 -111.167 73 -186.5s-24.333 -137.5 -73 -186.5s-110 -73.5 -184 -73.5zM303.999 79
c45.333 0 82.667 16.668 112 50.001s44 73.666 44 120.999c0 48 -14.5 88.5 -43.5 121.5s-66.5 49.5 -112.5 49.5c-45.333 0 -82.333 -16.5 -111 -49.5s-43 -73.5 -43 -121.5s14.333 -88.5 43 -121.5s65.667 -49.5 111 -49.5z" />
    <glyph glyph-name="Obreve" unicode="&#x14e;" horiz-adv-x="823" 
d="M549 900c0 -35.333 -12.833 -65.8311 -38.5 -91.498s-58.5 -38.5 -98.5 -38.5s-73 12.833 -99 38.5s-39 56.167 -39 91.5h78c0 -18.667 5.5 -34.334 16.5 -47.001s25.5 -19 43.5 -19s32.167 6.16699 42.5 18.5s15.5 28.166 15.5 47.499h79zM412 -9.99805
c-100.667 0 -184.334 34.1689 -251.001 102.502s-100 154.166 -100 257.499c0 102.667 33.333 188.334 100 257.001s150.334 103 251.001 103c100 0 183.333 -34.333 250 -103s100 -154.334 100 -257.001s-33.167 -188.334 -99.5 -257.001s-149.833 -103 -250.5 -103z
M412 87.0039c70 0 127.999 25.167 173.999 75.5s69 112.833 69 187.5s-23.167 137.167 -69.5 187.5s-104.166 75.5 -173.499 75.5c-70 0 -128.167 -25.167 -174.5 -75.5s-69.5 -112.833 -69.5 -187.5s23.167 -137.167 69.5 -187.5s104.5 -75.5 174.5 -75.5z" />
    <glyph glyph-name="obreve" unicode="&#x14f;" horiz-adv-x="610" 
d="M442 700c0 -35.333 -12.833 -65.8311 -38.5 -91.498s-58.5 -38.5 -98.5 -38.5s-73 12.833 -99 38.5s-39 56.167 -39 91.5h78c0 -18.667 5.5 -34.334 16.5 -47.001s25.5 -19 43.5 -19s32.167 6.16699 42.5 18.5s15.5 28.166 15.5 47.499h79zM304 -9.99805
c-73.333 0 -134.167 24.667 -182.5 74s-72.5 111.333 -72.5 186c0 76 24 138.333 72 187s109 73 183 73s135.333 -24.5 184 -73.5s73 -111.167 73 -186.5s-24.333 -137.5 -73 -186.5s-110 -73.5 -184 -73.5zM303.999 79.002c45.333 0 82.667 16.668 112 50.001
s44 73.666 44 120.999c0 48 -14.5 88.5 -43.5 121.5s-66.5 49.5 -112.5 49.5c-45.333 0 -82.333 -16.5 -111 -49.5s-43 -73.5 -43 -121.5s14.333 -88.5 43 -121.5s65.667 -49.5 111 -49.5z" />
    <glyph glyph-name="Ohungarumlaut" unicode="&#x150;" horiz-adv-x="823" 
d="M349 900h87l-65 -145h-81zM511 900h88l-66 -145h-80zM412 -10c-100.667 0 -184.334 34.1689 -251.001 102.502s-100 154.166 -100 257.499c0 102.667 33.333 188.334 100 257.001s150.334 103 251.001 103c100 0 183.333 -34.333 250 -103s100 -154.334 100 -257.001
s-33.167 -188.334 -99.5 -257.001s-149.833 -103 -250.5 -103zM412 87.002c70 0 127.999 25.167 173.999 75.5s69 112.833 69 187.5s-23.167 137.167 -69.5 187.5s-104.166 75.5 -173.499 75.5c-70 0 -128.167 -25.167 -174.5 -75.5s-69.5 -112.833 -69.5 -187.5
s23.167 -137.167 69.5 -187.5s104.5 -75.5 174.5 -75.5z" />
    <glyph glyph-name="ohungarumlaut" unicode="&#x151;" horiz-adv-x="610" 
d="M242 700h87l-65 -145h-81zM404 700h88l-66 -145h-80zM304 -10c-73.333 0 -134.167 24.667 -182.5 74s-72.5 111.333 -72.5 186c0 76 24 138.333 72 187s109 73 183 73s135.333 -24.5 184 -73.5s73 -111.167 73 -186.5s-24.333 -137.5 -73 -186.5s-110 -73.5 -184 -73.5z
M303.999 79c45.333 0 82.667 16.668 112 50.001s44 73.666 44 120.999c0 48 -14.5 88.5 -43.5 121.5s-66.5 49.5 -112.5 49.5c-45.333 0 -82.333 -16.5 -111 -49.5s-43 -73.5 -43 -121.5s14.333 -88.5 43 -121.5s65.667 -49.5 111 -49.5z" />
    <glyph glyph-name="OE" unicode="&#x152;" horiz-adv-x="1118" 
d="M730 93l344.001 0.000976562v-93h-447v101c-27.333 -34.667 -61.333 -61.834 -102 -81.501s-84.334 -29.5 -131.001 -29.5c-96 0 -175.5 34 -238.5 102s-94.5 154 -94.5 258s31.667 190 95 258s142.666 102 237.999 102c94.667 0 172.334 -36.667 233.001 -110v100h437
v-93h-334v-206h291v-91h-291v-217zM397.001 87.001c65.333 0 119.666 24.667 162.999 74s65 112.333 65 189s-21.667 139.667 -65 189s-97.666 74 -162.999 74c-66 0 -120.667 -24.667 -164 -74s-65 -112.333 -65 -189s21.667 -139.667 65 -189s98 -74 164 -74z" />
    <glyph glyph-name="oe" unicode="&#x153;" horiz-adv-x="792" 
d="M559 69c22 0 41.332 6.33203 57.999 18.999s26.667 33.334 30 62.001h94c-5.33301 -53.333 -24.5 -93.333 -57.5 -120s-73.833 -40 -122.5 -40c-71.333 0 -122.666 24.667 -153.999 74c-36 -49.333 -85.667 -74 -149 -74c-61.333 0 -111.5 23.667 -150.5 71
s-58.5 110.333 -58.5 189c0 79.333 19.5 142.5 58.5 189.5s89.167 70.5 150.5 70.5c64 0 114.667 -25.667 152 -77c31.333 51.333 81 77 149 77c52.667 0 96.167 -19.5 130.5 -58.5s51.5 -103.5 51.5 -193.5c0 -5.33301 -0.666992 -17.333 -2 -36h-274
c2 -102 33.333 -153 94 -153zM558.999 430.999c-27.333 0 -49.5 -11 -66.5 -33s-26.167 -56.333 -27.5 -103h181c0 48 -8 82.667 -24 104s-37 32 -63 32zM257.999 72.999c33.333 0 59.668 15.833 79.001 47.5s29 74.834 29 129.501c0 55.333 -9.83301 98.666 -29.5 129.999
s-45.834 47 -78.501 47c-33.333 0 -59.666 -15.667 -78.999 -47s-29 -74.666 -29 -129.999c0 -54.667 9.66699 -97.834 29 -129.501s45.666 -47.5 78.999 -47.5z" />
    <glyph glyph-name="Racute" unicode="&#x154;" horiz-adv-x="627" 
d="M439 900l-80 -145h-80l72 145h88zM590 0l-114 0.000976562l-162 286h-130v-286h-103v700h259c67.333 0 120.833 -18.333 160.5 -55s59.5 -85.334 59.5 -146.001c0 -48.667 -12.833 -89.667 -38.5 -123s-61.167 -57 -106.5 -71zM184 609.001v-231.999h142
c40 0 71.5 10.667 94.5 32s34.5 49.666 34.5 84.999c0 36 -11.5 64.167 -34.5 84.5s-54.5 30.5 -94.5 30.5h-142z" />
    <glyph glyph-name="racute" unicode="&#x155;" horiz-adv-x="369" 
d="M239 700h88l-80 -145h-80zM65 0l0.00195312 500h92l10 -70h7c15.333 26.667 33.666 46.667 54.999 60s51.333 20 90 20h32v-102c-16 2 -32.333 3 -49 3c-44.667 0 -78.334 -15 -101.001 -45s-34 -68 -34 -114v-252h-102z" />
    <glyph glyph-name="uni0156" unicode="&#x156;" horiz-adv-x="627" 
d="M415 305l175 -304.999h-114l-162 286h-130v-286h-103v700h259c67.333 0 120.833 -18.333 160.5 -55s59.5 -85.334 59.5 -146.001c0 -48.667 -12.833 -89.667 -38.5 -123s-61.167 -57 -106.5 -71zM184 609.001v-231.999h142c40 0 71.5 10.667 94.5 32
s34.5 49.666 34.5 84.999c0 36 -11.5 64.167 -34.5 84.5s-54.5 30.5 -94.5 30.5h-142zM328 -56.998c22 0 39.332 -7.83398 51.999 -23.501s19 -35.834 19 -60.501c0 -37.333 -10.833 -70 -32.5 -98s-47.167 -50 -76.5 -66l-29 29c40.667 34 61.334 64.333 62.001 91
c-18.667 -1.33301 -34 3.83398 -46 15.501s-18 27.167 -18 46.5c0 20.667 6.5 36.834 19.5 48.501s29.5 17.5 49.5 17.5z" />
    <glyph glyph-name="uni0157" unicode="&#x157;" horiz-adv-x="369" 
d="M65 0l0.00195312 500h92l10 -70h7c15.333 26.667 33.666 46.667 54.999 60s51.333 20 90 20h32v-102c-16 2 -32.333 3 -49 3c-44.667 0 -78.334 -15 -101.001 -45s-34 -68 -34 -114v-252h-102zM113.002 -57c22 0 39.332 -7.83398 51.999 -23.501s19 -35.834 19 -60.501
c0 -37.333 -10.833 -70 -32.5 -98s-47.167 -50 -76.5 -66l-29 29c40.667 34 61.334 64.333 62.001 91c-18.667 -1.33301 -34 3.83398 -46 15.501s-18 27.167 -18 46.5c0 20.667 6.5 36.834 19.5 48.501s29.5 17.5 49.5 17.5z" />
    <glyph glyph-name="Rcaron" unicode="&#x158;" horiz-adv-x="627" 
d="M364 756h-89l-104 144h89l56 -83h6l56 83h89zM590 0l-114 0.000976562l-162 286h-130v-286h-103v700h259c67.333 0 120.833 -18.333 160.5 -55s59.5 -85.334 59.5 -146.001c0 -48.667 -12.833 -89.667 -38.5 -123s-61.167 -57 -106.5 -71zM184 609.001v-231.999h142
c40 0 71.5 10.667 94.5 32s34.5 49.666 34.5 84.999c0 36 -11.5 64.167 -34.5 84.5s-54.5 30.5 -94.5 30.5h-142z" />
    <glyph glyph-name="rcaron" unicode="&#x159;" horiz-adv-x="369" 
d="M266 700h89l-103 -144h-89l-104 144h89l56 -83h6zM65 0l0.00195312 500h92l10 -70h7c15.333 26.667 33.666 46.667 54.999 60s51.333 20 90 20h32v-102c-16 2 -32.333 3 -49 3c-44.667 0 -78.334 -15 -101.001 -45s-34 -68 -34 -114v-252h-102z" />
    <glyph glyph-name="Sacute" unicode="&#x15a;" horiz-adv-x="609" 
d="M343 900h88l-80 -145h-80zM545 186c0 -63.333 -22.166 -111.833 -66.499 -145.5s-99.833 -50.5 -166.5 -50.5c-76.667 0 -136.667 19 -180 57s-67 90.667 -71 158h104c4.66699 -40 19.5 -70.667 44.5 -92s59.167 -32 102.5 -32c37.333 0 67.666 8.5 90.999 25.5
s35 42.5 35 76.5c0 16 -3 30.5 -9 43.5s-13.167 23.667 -21.5 32s-19.5 16.166 -33.5 23.499s-26.167 12.833 -36.5 16.5s-23.833 8.16699 -40.5 13.5l-38 11c-23.333 7.33301 -44 15.333 -62 24s-36.333 20.334 -55 35.001s-33.167 33.167 -43.5 55.5
s-15.5 47.5 -15.5 75.5c0 59.333 21.667 107 65 143s98 54 164 54c67.333 0 122 -18.833 164 -56.5s64.333 -85.834 67 -144.501h-104c-4 32.667 -16.667 59.167 -38 79.5s-51 30.5 -89 30.5c-36.667 0 -66.5 -9.33301 -89.5 -28s-34.5 -43 -34.5 -73c0 -14 3 -26.667 9 -38
s12.5 -20.5 19.5 -27.5s17.833 -13.833 32.5 -20.5s26 -11.5 34 -14.5s20.667 -7.16699 38 -12.5l33 -9c22 -7.33301 41.333 -14.666 58 -21.999s36.5 -19 59.5 -35s41 -37 54 -63s19.5 -56 19.5 -90z" />
    <glyph glyph-name="sacute" unicode="&#x15b;" horiz-adv-x="486" 
d="M267 700h88l-80 -145h-80zM254 -10c-64.667 0 -114.333 14.834 -149 44.501s-53.334 69.834 -56.001 120.501h98c5.33301 -58 40.666 -87 105.999 -87c25.333 0 46.166 5.16699 62.499 15.5s24.5 26.166 24.5 47.499c0 22.667 -8.5 40 -25.5 52s-41.167 22.333 -72.5 31
l-39 10c-19.333 5.33301 -35.666 10.666 -48.999 15.999s-27.666 13.166 -42.999 23.499s-27 24 -35 41s-12 36.833 -12 59.5c0 44.667 17 80.167 51 106.5s75.667 39.5 125 39.5c59.333 0 104.833 -14.167 136.5 -42.5s48.834 -62.833 51.501 -103.5h-98
c-2.66699 20.667 -11.834 37.167 -27.501 49.5s-36.167 18.5 -61.5 18.5c-22.667 0 -41.5 -5.5 -56.5 -16.5s-22.5 -26.5 -22.5 -46.5s7.33301 -34.667 22 -44s37.334 -18.333 68.001 -27l38 -10c45.333 -12 81.333 -29.833 108 -53.5s40 -57.167 40 -100.5
c0 -47.333 -17.333 -83.166 -52 -107.499s-78.667 -36.5 -132 -36.5z" />
    <glyph glyph-name="Scircumflex" unicode="&#x15c;" horiz-adv-x="609" 
d="M252 756h-89l104 144h88l105 -144h-89l-57 83h-6zM545 186c0 -63.333 -22.166 -111.833 -66.499 -145.5s-99.833 -50.5 -166.5 -50.5c-76.667 0 -136.667 19 -180 57s-67 90.667 -71 158h104c4.66699 -40 19.5 -70.667 44.5 -92s59.167 -32 102.5 -32
c37.333 0 67.666 8.5 90.999 25.5s35 42.5 35 76.5c0 16 -3 30.5 -9 43.5s-13.167 23.667 -21.5 32s-19.5 16.166 -33.5 23.499s-26.167 12.833 -36.5 16.5s-23.833 8.16699 -40.5 13.5l-38 11c-23.333 7.33301 -44 15.333 -62 24s-36.333 20.334 -55 35.001
s-33.167 33.167 -43.5 55.5s-15.5 47.5 -15.5 75.5c0 59.333 21.667 107 65 143s98 54 164 54c67.333 0 122 -18.833 164 -56.5s64.333 -85.834 67 -144.501h-104c-4 32.667 -16.667 59.167 -38 79.5s-51 30.5 -89 30.5c-36.667 0 -66.5 -9.33301 -89.5 -28
s-34.5 -43 -34.5 -73c0 -14 3 -26.667 9 -38s12.5 -20.5 19.5 -27.5s17.833 -13.833 32.5 -20.5s26 -11.5 34 -14.5s20.667 -7.16699 38 -12.5l33 -9c22 -7.33301 41.333 -14.666 58 -21.999s36.5 -19 59.5 -35s41 -37 54 -63s19.5 -56 19.5 -90z" />
    <glyph glyph-name="scircumflex" unicode="&#x15d;" horiz-adv-x="486" 
d="M175 556h-89l104 144h88l105 -144h-89l-57 83h-6zM254 -10c-64.667 0 -114.333 14.834 -149 44.501s-53.334 69.834 -56.001 120.501h98c5.33301 -58 40.666 -87 105.999 -87c25.333 0 46.166 5.16699 62.499 15.5s24.5 26.166 24.5 47.499c0 22.667 -8.5 40 -25.5 52
s-41.167 22.333 -72.5 31l-39 10c-19.333 5.33301 -35.666 10.666 -48.999 15.999s-27.666 13.166 -42.999 23.499s-27 24 -35 41s-12 36.833 -12 59.5c0 44.667 17 80.167 51 106.5s75.667 39.5 125 39.5c59.333 0 104.833 -14.167 136.5 -42.5
s48.834 -62.833 51.501 -103.5h-98c-2.66699 20.667 -11.834 37.167 -27.501 49.5s-36.167 18.5 -61.5 18.5c-22.667 0 -41.5 -5.5 -56.5 -16.5s-22.5 -26.5 -22.5 -46.5s7.33301 -34.667 22 -44s37.334 -18.333 68.001 -27l38 -10c45.333 -12 81.333 -29.833 108 -53.5
s40 -57.167 40 -100.5c0 -47.333 -17.333 -83.166 -52 -107.499s-78.667 -36.5 -132 -36.5z" />
    <glyph glyph-name="Scedilla" unicode="&#x15e;" horiz-adv-x="609" 
d="M545 186c0 -59.333 -19.5 -105.667 -58.5 -139s-88.833 -52 -149.5 -56l-24 -35c25.333 1.33301 48.166 -5.16699 68.499 -19.5s30.5 -35.166 30.5 -62.499c0 -26 -9.16699 -46.5 -27.5 -61.5s-43.5 -22.5 -75.5 -22.5c-29.333 0 -54.666 7.33301 -75.999 22l19 44
c20.667 -11.333 38.667 -17 54 -17c14.667 0 26.334 3.5 35.001 10.5s13 16.167 13 27.5c0 25.333 -16.333 38 -49 38c-10 0 -21 -2.66699 -33 -8l-34 28l37 57c-65.333 6 -116.5 27.667 -153.5 65s-57.167 86.666 -60.5 147.999h104c4.66699 -40 19.5 -70.667 44.5 -92
s59.167 -32 102.5 -32c37.333 0 67.666 8.5 90.999 25.5s35 42.5 35 76.5c0 16 -3 30.5 -9 43.5s-13.167 23.667 -21.5 32s-19.5 16.166 -33.5 23.499s-26.167 12.833 -36.5 16.5s-23.833 8.16699 -40.5 13.5l-38 11c-23.333 7.33301 -44 15.333 -62 24
s-36.333 20.334 -55 35.001s-33.167 33.167 -43.5 55.5s-15.5 47.5 -15.5 75.5c0 59.333 21.667 107 65 143s98 54 164 54c67.333 0 122 -18.833 164 -56.5s64.333 -85.834 67 -144.501h-104c-4 32.667 -16.667 59.167 -38 79.5s-51 30.5 -89 30.5
c-36.667 0 -66.5 -9.33301 -89.5 -28s-34.5 -43 -34.5 -73c0 -14 3 -26.667 9 -38s12.5 -20.5 19.5 -27.5s17.833 -13.833 32.5 -20.5s26 -11.5 34 -14.5s20.667 -7.16699 38 -12.5l33 -9c22 -7.33301 41.333 -14.666 58 -21.999s36.5 -19 59.5 -35s41 -37 54 -63
s19.5 -56 19.5 -90z" />
    <glyph glyph-name="scedilla" unicode="&#x15f;" horiz-adv-x="486" 
d="M438 134c0 -44 -14.835 -77.998 -44.502 -101.998s-68.167 -37.667 -115.5 -41l-24 -35c25.333 1.33301 48.166 -5.16699 68.499 -19.5s30.5 -35.166 30.5 -62.499c0 -26 -9.16699 -46.5 -27.5 -61.5s-43.5 -22.5 -75.5 -22.5c-29.333 0 -54.666 7.33301 -75.999 22
l19 44c20.667 -11.333 38.667 -17 54 -17c14.667 0 26.334 3.5 35.001 10.5s13 16.167 13 27.5c0 25.333 -16.333 38 -49 38c-10 0 -21 -2.66699 -33 -8l-34 28l37 57c-52.667 6 -93 23.333 -121 52s-43.333 65.667 -46 111h98c5.33301 -58 40.666 -87 105.999 -87
c25.333 0 46.166 5.16699 62.499 15.5s24.5 26.166 24.5 47.499c0 22.667 -8.5 40 -25.5 52s-41.167 22.333 -72.5 31l-39 10c-19.333 5.33301 -35.666 10.666 -48.999 15.999s-27.666 13.166 -42.999 23.499s-27 24 -35 41s-12 36.833 -12 59.5
c0 44.667 17 80.167 51 106.5s75.667 39.5 125 39.5c59.333 0 104.833 -14.167 136.5 -42.5s48.834 -62.833 51.501 -103.5h-98c-2.66699 20.667 -11.834 37.167 -27.501 49.5s-36.167 18.5 -61.5 18.5c-22.667 0 -41.5 -5.5 -56.5 -16.5s-22.5 -26.5 -22.5 -46.5
s7.33301 -34.667 22 -44s37.334 -18.333 68.001 -27l38 -10c45.333 -12 81.333 -29.833 108 -53.5s40 -57.167 40 -100.5z" />
    <glyph glyph-name="Scaron" unicode="&#x160;" horiz-adv-x="609" 
d="M370 900h89l-103 -144h-89l-104 144h89l56 -83h6zM545 186c0 -63.333 -22.166 -111.833 -66.499 -145.5s-99.833 -50.5 -166.5 -50.5c-76.667 0 -136.667 19 -180 57s-67 90.667 -71 158h104c4.66699 -40 19.5 -70.667 44.5 -92s59.167 -32 102.5 -32
c37.333 0 67.666 8.5 90.999 25.5s35 42.5 35 76.5c0 16 -3 30.5 -9 43.5s-13.167 23.667 -21.5 32s-19.5 16.166 -33.5 23.499s-26.167 12.833 -36.5 16.5s-23.833 8.16699 -40.5 13.5l-38 11c-23.333 7.33301 -44 15.333 -62 24s-36.333 20.334 -55 35.001
s-33.167 33.167 -43.5 55.5s-15.5 47.5 -15.5 75.5c0 59.333 21.667 107 65 143s98 54 164 54c67.333 0 122 -18.833 164 -56.5s64.333 -85.834 67 -144.501h-104c-4 32.667 -16.667 59.167 -38 79.5s-51 30.5 -89 30.5c-36.667 0 -66.5 -9.33301 -89.5 -28
s-34.5 -43 -34.5 -73c0 -14 3 -26.667 9 -38s12.5 -20.5 19.5 -27.5s17.833 -13.833 32.5 -20.5s26 -11.5 34 -14.5s20.667 -7.16699 38 -12.5l33 -9c22 -7.33301 41.333 -14.666 58 -21.999s36.5 -19 59.5 -35s41 -37 54 -63s19.5 -56 19.5 -90z" />
    <glyph glyph-name="scaron" unicode="&#x161;" horiz-adv-x="486" 
d="M294 700h89l-103 -144h-89l-104 144h89l56 -83h6zM254 -10c-64.667 0 -114.333 14.834 -149 44.501s-53.334 69.834 -56.001 120.501h98c5.33301 -58 40.666 -87 105.999 -87c25.333 0 46.166 5.16699 62.499 15.5s24.5 26.166 24.5 47.499c0 22.667 -8.5 40 -25.5 52
s-41.167 22.333 -72.5 31l-39 10c-19.333 5.33301 -35.666 10.666 -48.999 15.999s-27.666 13.166 -42.999 23.499s-27 24 -35 41s-12 36.833 -12 59.5c0 44.667 17 80.167 51 106.5s75.667 39.5 125 39.5c59.333 0 104.833 -14.167 136.5 -42.5
s48.834 -62.833 51.501 -103.5h-98c-2.66699 20.667 -11.834 37.167 -27.501 49.5s-36.167 18.5 -61.5 18.5c-22.667 0 -41.5 -5.5 -56.5 -16.5s-22.5 -26.5 -22.5 -46.5s7.33301 -34.667 22 -44s37.334 -18.333 68.001 -27l38 -10c45.333 -12 81.333 -29.833 108 -53.5
s40 -57.167 40 -100.5c0 -47.333 -17.333 -83.166 -52 -107.499s-78.667 -36.5 -132 -36.5z" />
    <glyph glyph-name="uni0162" unicode="&#x162;" horiz-adv-x="582" 
d="M344 0l-22.001 -0.000976562l-30 -44c25.333 1.33301 48.166 -5.16699 68.499 -19.5s30.5 -35.166 30.5 -62.499c0 -26 -9.16699 -46.5 -27.5 -61.5s-43.5 -22.5 -75.5 -22.5c-29.333 0 -54.666 7.33301 -75.999 22l19 44c20.667 -11.333 38.667 -17 54 -17
c14.667 0 26.334 3.5 35.001 10.5s13 16.167 13 27.5c0 25.333 -16.333 38 -49 38c-10 0 -21 -2.66699 -33 -8l-34 28l42 65h-21v605h-201v95h508v-95h-201v-605z" />
    <glyph glyph-name="uni0163" unicode="&#x163;" horiz-adv-x="373" 
d="M354 418l-127 -0.000976562v-283c0 -42 21.667 -63 65 -63c16.667 0 33 2.66699 49 8v-79c-28 -7.33301 -54 -11 -78 -11h-5l-23 -34c25.333 1.33301 48.166 -5.16699 68.499 -19.5s30.5 -35.166 30.5 -62.499c0 -26 -9.16699 -46.5 -27.5 -61.5s-43.5 -22.5 -75.5 -22.5
c-29.333 0 -54.666 7.33301 -75.999 22l19 44c20.667 -11.333 38.667 -17 54 -17c14.667 0 26.334 3.5 35.001 10.5s13 16.167 13 27.5c0 25.333 -16.333 38 -49 38c-10 0 -21 -2.66699 -33 -8l-34 28l42 64c-50.667 16.667 -76 57.334 -76 122.001v297h-108v82h35
c29.333 0 50.166 5.66699 62.499 17s18.5 30.666 18.5 57.999v61h93v-136h127v-82z" />
    <glyph glyph-name="Tcaron" unicode="&#x164;" horiz-adv-x="582" 
d="M336 756h-89l-104 144h89l56 -83h6l56 83h89zM545 700v-95h-201v-605h-106v605h-201v95h508z" />
    <glyph glyph-name="tcaron" unicode="&#x165;" horiz-adv-x="373" 
d="M380 777c19.333 0 34.667 -7.16699 46 -21.5s17 -32.833 17 -55.5c0 -34.667 -9.5 -65 -28.5 -91s-41.833 -47 -68.5 -63l-25 30c36 27.333 54.333 56.333 55 87c-14 -1.33301 -26.667 3 -38 13s-17 24 -17 42s5.5 32.333 16.5 43s25.167 16 42.5 16zM263.001 -10
c-91.333 0 -136.999 43.668 -136.999 131.001v297h-108v82h35c29.333 0 50.166 5.66699 62.499 17s18.5 30.666 18.5 57.999v61h93v-136h127v-82h-127v-283c0 -42 21.667 -63 65 -63c16.667 0 33 2.66699 49 8v-79c-28 -7.33301 -54 -11 -78 -11z" />
    <glyph glyph-name="Tbar" unicode="&#x166;" horiz-adv-x="582" 
d="M545 605h-201v-224h146v-79h-146v-302h-106v302h-146v79h146v224h-201v95h508v-95z" />
    <glyph glyph-name="tbar" unicode="&#x167;" horiz-adv-x="373" 
d="M354 418l-126.999 0.000976562v-113h122v-75h-122v-95c0 -42 21.667 -63 65 -63c16.667 0 33 2.66699 49 8v-79c-28 -7.33301 -54 -11 -78 -11c-91.333 0 -137 43.667 -137 131v109h-104v75h104v113h-108v82h35c29.333 0 50.166 5.66699 62.499 17
s18.5 30.666 18.5 57.999v61h93v-136h127v-82z" />
    <glyph glyph-name="Utilde" unicode="&#x168;" horiz-adv-x="717" 
d="M538 871c-2 -35.333 -12.1689 -65 -30.502 -89s-43.166 -36 -74.499 -36c-22 0 -41.167 5.33301 -57.5 16s-30.666 21.167 -42.999 31.5s-24.5 15.5 -36.5 15.5c-25.333 0 -40.666 -18.333 -45.999 -55h-70c2.66699 36 13.167 66 31.5 90s43.5 36 75.5 36
c18 0 34.167 -3.16699 48.5 -9.5s25.166 -13.5 32.499 -21.5s15.833 -15.167 25.5 -21.5s19.5 -9.5 29.5 -9.5c27.333 0 42.333 17.667 45 53h70zM635.998 700l-0.00195312 -433c0 -89.333 -25.167 -157.833 -75.5 -205.5s-117.166 -71.5 -200.499 -71.5
s-150.666 23.833 -201.999 71.5s-77 116.167 -77 205.5v433h105v-428c0 -59.333 16 -105 48 -137s74 -48 126 -48s93.5 15.833 124.5 47.5s46.5 77.5 46.5 137.5v428h105z" />
    <glyph glyph-name="utilde" unicode="&#x169;" horiz-adv-x="572" 
d="M465 671c-2 -35.333 -12.1689 -65 -30.502 -89s-43.166 -36 -74.499 -36c-22 0 -41.167 5.33301 -57.5 16s-30.666 21.167 -42.999 31.5s-24.5 15.5 -36.5 15.5c-25.333 0 -40.666 -18.333 -45.999 -55h-70c2.66699 36 13.167 66 31.5 90s43.5 36 75.5 36
c18 0 34.167 -3.16699 48.5 -9.5s25.166 -13.5 32.499 -21.5s15.833 -15.167 25.5 -21.5s19.5 -9.5 29.5 -9.5c27.333 0 42.333 17.667 45 53h70zM506.998 500l0.000976562 -500.001h-92l-10 60h-7c-34.667 -46.667 -83.334 -70 -146.001 -70c-56.667 0 -102 17.5 -136 52.5
s-51 84.167 -51 147.5v310h102v-288c0 -44 10.5 -77.167 31.5 -99.5s48.5 -33.5 82.5 -33.5c35.333 0 64.833 11.833 88.5 35.5s35.5 58.834 35.5 105.501v280h102z" />
    <glyph glyph-name="Umacron" unicode="&#x16a;" horiz-adv-x="717" 
d="M203 849h313v-72h-313v72zM636 700l-0.00195312 -433c0 -89.333 -25.167 -157.833 -75.5 -205.5s-117.166 -71.5 -200.499 -71.5s-150.666 23.833 -201.999 71.5s-77 116.167 -77 205.5v433h105v-428c0 -59.333 16 -105 48 -137s74 -48 126 -48s93.5 15.833 124.5 47.5
s46.5 77.5 46.5 137.5v428h105z" />
    <glyph glyph-name="umacron" unicode="&#x16b;" horiz-adv-x="572" 
d="M130 649h313v-72h-313v72zM507 500l0.000976562 -500.001h-92l-10 60h-7c-34.667 -46.667 -83.334 -70 -146.001 -70c-56.667 0 -102 17.5 -136 52.5s-51 84.167 -51 147.5v310h102v-288c0 -44 10.5 -77.167 31.5 -99.5s48.5 -33.5 82.5 -33.5
c35.333 0 64.833 11.833 88.5 35.5s35.5 58.834 35.5 105.501v280h102z" />
    <glyph glyph-name="Ubreve" unicode="&#x16c;" horiz-adv-x="717" 
d="M495 900c0 -35.333 -12.833 -65.8311 -38.5 -91.498s-58.5 -38.5 -98.5 -38.5s-73 12.833 -99 38.5s-39 56.167 -39 91.5h78c0 -18.667 5.5 -34.334 16.5 -47.001s25.5 -19 43.5 -19s32.167 6.16699 42.5 18.5s15.5 28.166 15.5 47.499h79zM636 700.002l-0.00195312 -433
c0 -89.333 -25.167 -157.833 -75.5 -205.5s-117.166 -71.5 -200.499 -71.5s-150.666 23.833 -201.999 71.5s-77 116.167 -77 205.5v433h105v-428c0 -59.333 16 -105 48 -137s74 -48 126 -48s93.5 15.833 124.5 47.5s46.5 77.5 46.5 137.5v428h105z" />
    <glyph glyph-name="ubreve" unicode="&#x16d;" horiz-adv-x="572" 
d="M423 700c0 -35.333 -12.833 -65.8311 -38.5 -91.498s-58.5 -38.5 -98.5 -38.5s-73 12.833 -99 38.5s-39 56.167 -39 91.5h78c0 -18.667 5.5 -34.334 16.5 -47.001s25.5 -19 43.5 -19s32.167 6.16699 42.5 18.5s15.5 28.166 15.5 47.499h79zM507 500.002
l0.000976562 -500.001h-92l-10 60h-7c-34.667 -46.667 -83.334 -70 -146.001 -70c-56.667 0 -102 17.5 -136 52.5s-51 84.167 -51 147.5v310h102v-288c0 -44 10.5 -77.167 31.5 -99.5s48.5 -33.5 82.5 -33.5c35.333 0 64.833 11.833 88.5 35.5s35.5 58.834 35.5 105.501v280
h102z" />
    <glyph glyph-name="Uring" unicode="&#x16e;" horiz-adv-x="717" 
d="M358 738c-26.667 0 -49.667 9.66699 -69 29s-29 42 -29 68s9.66699 48.5 29 67.5s42.333 28.5 69 28.5s49.834 -9.5 69.501 -28.5s29.5 -41.5 29.5 -67.5s-9.83301 -48.667 -29.5 -68s-42.834 -29 -69.501 -29zM359 795c10.667 0 19.834 4 27.501 12s11.5 17.333 11.5 28
c0 10 -3.83301 18.833 -11.5 26.5s-16.834 11.5 -27.501 11.5s-19.834 -3.83301 -27.501 -11.5s-11.5 -16.5 -11.5 -26.5c0 -11.333 3.83301 -20.833 11.5 -28.5s16.834 -11.5 27.501 -11.5zM636 700l-0.00195312 -433c0 -89.333 -25.167 -157.833 -75.5 -205.5
s-117.166 -71.5 -200.499 -71.5s-150.666 23.833 -201.999 71.5s-77 116.167 -77 205.5v433h105v-428c0 -59.333 16 -105 48 -137s74 -48 126 -48s93.5 15.833 124.5 47.5s46.5 77.5 46.5 137.5v428h105z" />
    <glyph glyph-name="uring" unicode="&#x16f;" horiz-adv-x="572" 
d="M285 538c-26.667 0 -49.667 9.66699 -69 29s-29 42 -29 68s9.66699 48.5 29 67.5s42.333 28.5 69 28.5s49.834 -9.5 69.501 -28.5s29.5 -41.5 29.5 -67.5s-9.83301 -48.667 -29.5 -68s-42.834 -29 -69.501 -29zM286 595c10.667 0 19.834 4 27.501 12s11.5 17.333 11.5 28
c0 10 -3.83301 18.833 -11.5 26.5s-16.834 11.5 -27.501 11.5s-19.834 -3.83301 -27.501 -11.5s-11.5 -16.5 -11.5 -26.5c0 -11.333 3.83301 -20.833 11.5 -28.5s16.834 -11.5 27.501 -11.5zM507 500l0.000976562 -500.001h-92l-10 60h-7
c-34.667 -46.667 -83.334 -70 -146.001 -70c-56.667 0 -102 17.5 -136 52.5s-51 84.167 -51 147.5v310h102v-288c0 -44 10.5 -77.167 31.5 -99.5s48.5 -33.5 82.5 -33.5c35.333 0 64.833 11.833 88.5 35.5s35.5 58.834 35.5 105.501v280h102z" />
    <glyph glyph-name="Uhungarumlaut" unicode="&#x170;" horiz-adv-x="717" 
d="M296 900h87l-65 -145h-81zM458 900h88l-66 -145h-80zM636 700l-0.00195312 -433c0 -89.333 -25.167 -157.833 -75.5 -205.5s-117.166 -71.5 -200.499 -71.5s-150.666 23.833 -201.999 71.5s-77 116.167 -77 205.5v433h105v-428c0 -59.333 16 -105 48 -137s74 -48 126 -48
s93.5 15.833 124.5 47.5s46.5 77.5 46.5 137.5v428h105z" />
    <glyph glyph-name="uhungarumlaut" unicode="&#x171;" horiz-adv-x="572" 
d="M223 700h87l-65 -145h-81zM385 700h88l-66 -145h-80zM507 500l0.000976562 -500.001h-92l-10 60h-7c-34.667 -46.667 -83.334 -70 -146.001 -70c-56.667 0 -102 17.5 -136 52.5s-51 84.167 -51 147.5v310h102v-288c0 -44 10.5 -77.167 31.5 -99.5s48.5 -33.5 82.5 -33.5
c35.333 0 64.833 11.833 88.5 35.5s35.5 58.834 35.5 105.501v280h102z" />
    <glyph glyph-name="Uogonek" unicode="&#x172;" horiz-adv-x="717" 
d="M531 700l105 -0.000976562v-433c0 -73.333 -17.333 -132.833 -52 -178.5s-82 -75.5 -142 -89.5c-44 -15.333 -66 -38.666 -66 -69.999c0 -28 19 -42 57 -42c15.333 0 30.333 2 45 6v-60c-14.667 -5.33301 -33 -8 -55 -8c-34.667 0 -62.5 7.83301 -83.5 23.5
s-31.5 38.167 -31.5 67.5s14 54 42 74c-80.667 2 -145.667 26.833 -195 74.5s-74 115.167 -74 202.5v433h105v-428c0 -59.333 16 -105 48 -137s74 -48 126 -48s93.5 15.833 124.5 47.5s46.5 77.5 46.5 137.5v428z" />
    <glyph glyph-name="uogonek" unicode="&#x173;" horiz-adv-x="572" 
d="M495 -113c15.333 0 30.334 1.99902 45.001 5.99902v-60c-14.667 -5.33301 -33 -8 -55 -8c-34.667 0 -62.5 7.83301 -83.5 23.5s-31.5 38.167 -31.5 67.5c0 34 19.333 62 58 84h-13l-10 60h-7c-34.667 -46.667 -83.334 -70 -146.001 -70c-56.667 0 -102 17.5 -136 52.5
s-51 84.167 -51 147.5v310h102v-288c0 -44 10.5 -77.167 31.5 -99.5s48.5 -33.5 82.5 -33.5c35.333 0 64.833 11.833 88.5 35.5s35.5 58.834 35.5 105.501v280h102v-500c-46 -15.333 -69 -39 -69 -71c0 -28 19 -42 57 -42z" />
    <glyph glyph-name="Wcircumflex" unicode="&#x174;" horiz-adv-x="905" 
d="M393 756h-89l104 144h88l105 -144h-89l-57 83h-6zM780 700h101l-155 -700h-120l-150 516h-7l-149 -516h-120l-156 700h103l116 -549h7l145 499h116l143 -499h8z" />
    <glyph glyph-name="wcircumflex" unicode="&#x175;" horiz-adv-x="741" 
d="M311 556h-89l104 144h88l105 -144h-89l-57 83h-6zM149 0l-130 500h96l91 -383h7l103 348h110l103 -349h7l91 384h95l-131 -500h-115l-101 353h-8l-103 -353h-115z" />
    <glyph glyph-name="Ycircumflex" unicode="&#x176;" horiz-adv-x="660" 
d="M271 756h-89l104 144h88l105 -144h-89l-57 83h-6zM509 700h127l-253 -377v-323h-105v323l-254 377h126l176 -262h8z" />
    <glyph glyph-name="ycircumflex" unicode="&#x177;" horiz-adv-x="545" 
d="M213 556h-89l104 144h88l105 -144h-89l-57 83h-6zM136 -210c-20.667 0 -45.667 3.66699 -75 11v77c21.333 -4.66699 39 -7 53 -7c52.667 0 89 24 109 72l22 57h-33l-193 500h106l148 -395h8l139 395h106l-208 -572c-31.333 -92 -92 -138 -182 -138z" />
    <glyph glyph-name="Ydieresis" unicode="&#x178;" horiz-adv-x="660" 
d="M214 762c-18 0 -33.667 6.33398 -47 19.001s-20 28 -20 46s6.66699 33.5 20 46.5s29 19.5 47 19.5s33.5 -6.33301 46.5 -19s19.5 -28.334 19.5 -47.001c0 -18 -6.5 -33.333 -19.5 -46s-28.5 -19 -46.5 -19zM447 762.001c-17.333 0 -32.5 6.33398 -45.5 19.001
s-19.5 28 -19.5 46s6.33301 33.5 19 46.5s28 19.5 46 19.5s33.5 -6.33301 46.5 -19s19.5 -28.334 19.5 -47.001c0 -18 -6.5 -33.333 -19.5 -46s-28.5 -19 -46.5 -19zM509 700.002h127l-253 -377v-323h-105v323l-254 377h126l176 -262h8z" />
    <glyph glyph-name="Zacute" unicode="&#x179;" horiz-adv-x="622" 
d="M348 900h88l-80 -145h-80zM216 95h341v-95h-496v60l345 540v5h-326v95h472v-60l-336 -540v-5z" />
    <glyph glyph-name="zacute" unicode="&#x17a;" horiz-adv-x="489" 
d="M281 700h88l-80 -145h-80zM49 0v51l246 363v6h-233v80h372v-51l-245 -363v-6h250v-80h-390z" />
    <glyph glyph-name="Zdotaccent" unicode="&#x17b;" horiz-adv-x="622" 
d="M317 774c-18 0 -33.5 6.5 -46.5 19.5s-19.5 28.167 -19.5 45.5c0 18 6.5 33.167 19.5 45.5s28.5 18.5 46.5 18.5c17.333 0 32.333 -6.16699 45 -18.5s19 -27.5 19 -45.5c0 -17.333 -6.33301 -32.5 -19 -45.5s-27.667 -19.5 -45 -19.5zM216 95h341v-95h-496v60l345 540v5
h-326v95h472v-60l-336 -540v-5z" />
    <glyph glyph-name="zdotaccent" unicode="&#x17c;" horiz-adv-x="489" 
d="M250 574c-18 0 -33.5 6.5 -46.5 19.5s-19.5 28.167 -19.5 45.5c0 18 6.5 33.167 19.5 45.5s28.5 18.5 46.5 18.5c17.333 0 32.333 -6.16699 45 -18.5s19 -27.5 19 -45.5c0 -17.333 -6.33301 -32.5 -19 -45.5s-27.667 -19.5 -45 -19.5zM49 0v51l246 363v6h-233v80h372v-51
l-245 -363v-6h250v-80h-390z" />
    <glyph glyph-name="Zcaron" unicode="&#x17d;" horiz-adv-x="622" 
d="M375 900h89l-103 -144h-89l-104 144h89l56 -83h6zM216 95h341v-95h-496v60l345 540v5h-326v95h472v-60l-336 -540v-5z" />
    <glyph glyph-name="zcaron" unicode="&#x17e;" horiz-adv-x="489" 
d="M308 700h89l-103 -144h-89l-104 144h89l56 -83h6zM49 0v51l246 363v6h-233v80h372v-51l-245 -363v-6h250v-80h-390z" />
    <glyph glyph-name="florin" unicode="&#x192;" horiz-adv-x="542" 
d="M422 569c-39.333 0 -62.333 -21 -69 -63l-22 -126h138v-74h-151l-33 -185c-8 -43.333 -25.667 -76 -53 -98s-61.333 -33 -102 -33c-41.333 0 -76.666 12.333 -105.999 37l33 68c17.333 -16 38.333 -24 63 -24c39.333 0 62.666 21 69.999 63l30 172h-129v74h142l24 139
c8 43.333 25.667 76 53 98s61.333 33 102 33s75.667 -12.333 105 -37l-32 -68c-18 16 -39 24 -63 24z" />
    <glyph glyph-name="uni01CD" unicode="&#x1cd;" horiz-adv-x="671" 
d="M381 756h-89l-104 144h89l56 -83h6l56 83h89zM533 0l-62 183h-272l-62 -183h-113l247 700h129l246 -700h-113zM228 272h214l-103 305h-8z" />
    <glyph glyph-name="uni01CE" unicode="&#x1ce;" horiz-adv-x="536" 
d="M302 556h-89l-104 144h89l56 -83h6l56 83h89zM500 77h12.999v-77h-46c-50.667 0 -82 20.667 -94 62c-38 -48 -92.667 -72 -164 -72c-50.667 0 -91.667 12.167 -123 36.5s-47 60.166 -47 107.499c0 45.333 15.333 81 46 107s71.334 41.333 122.001 46l153 15v25
c0 32 -8.5 56.667 -25.5 74s-41.167 26 -72.5 26c-58 0 -92 -29.333 -102 -88h-101c4.66699 50.667 25 91.834 61 123.501s83.333 47.5 142 47.5c59.333 0 107.5 -16 144.5 -48s55.5 -78.333 55.5 -139v-205c0 -27.333 12.667 -41 38 -41zM359.999 192v36.999l-119 -12
c-30.667 -2.66699 -55 -10.667 -73 -24s-27 -31.666 -27 -54.999c0 -45.333 27.667 -68 83 -68c36 0 67.667 10 95 30s41 50.667 41 92z" />
    <glyph glyph-name="uni01CF" unicode="&#x1cf;" horiz-adv-x="267" 
d="M193 900h89l-103 -144h-89l-104 144h89l56 -83h6zM186 700v-700h-105v700h105z" />
    <glyph glyph-name="uni01D0" unicode="&#x1d0;" horiz-adv-x="231" 
d="M175 700h89l-103 -144h-89l-104 144h89l56 -83h6zM65 0v500h102v-500h-102z" />
    <glyph glyph-name="uni01D1" unicode="&#x1d1;" horiz-adv-x="823" 
d="M471 900h89l-103 -144h-89l-104 144h89l56 -83h6zM412 -10c-100.667 0 -184.334 34.1689 -251.001 102.502s-100 154.166 -100 257.499c0 102.667 33.333 188.334 100 257.001s150.334 103 251.001 103c100 0 183.333 -34.333 250 -103s100 -154.334 100 -257.001
s-33.167 -188.334 -99.5 -257.001s-149.833 -103 -250.5 -103zM412 87.002c70 0 127.999 25.167 173.999 75.5s69 112.833 69 187.5s-23.167 137.167 -69.5 187.5s-104.166 75.5 -173.499 75.5c-70 0 -128.167 -25.167 -174.5 -75.5s-69.5 -112.833 -69.5 -187.5
s23.167 -137.167 69.5 -187.5s104.5 -75.5 174.5 -75.5z" />
    <glyph glyph-name="uni01D2" unicode="&#x1d2;" horiz-adv-x="610" 
d="M364 700h89l-103 -144h-89l-104 144h89l56 -83h6zM304 -10c-73.333 0 -134.167 24.667 -182.5 74s-72.5 111.333 -72.5 186c0 76 24 138.333 72 187s109 73 183 73s135.333 -24.5 184 -73.5s73 -111.167 73 -186.5s-24.333 -137.5 -73 -186.5s-110 -73.5 -184 -73.5z
M303.999 79c45.333 0 82.667 16.668 112 50.001s44 73.666 44 120.999c0 48 -14.5 88.5 -43.5 121.5s-66.5 49.5 -112.5 49.5c-45.333 0 -82.333 -16.5 -111 -49.5s-43 -73.5 -43 -121.5s14.333 -88.5 43 -121.5s65.667 -49.5 111 -49.5z" />
    <glyph glyph-name="uni01D3" unicode="&#x1d3;" horiz-adv-x="717" 
d="M418 900h89l-103 -144h-89l-104 144h89l56 -83h6zM636 700l-0.00195312 -433c0 -89.333 -25.167 -157.833 -75.5 -205.5s-117.166 -71.5 -200.499 -71.5s-150.666 23.833 -201.999 71.5s-77 116.167 -77 205.5v433h105v-428c0 -59.333 16 -105 48 -137s74 -48 126 -48
s93.5 15.833 124.5 47.5s46.5 77.5 46.5 137.5v428h105z" />
    <glyph glyph-name="uni01D4" unicode="&#x1d4;" horiz-adv-x="572" 
d="M345 700h89l-103 -144h-89l-104 144h89l56 -83h6zM507 500l0.000976562 -500.001h-92l-10 60h-7c-34.667 -46.667 -83.334 -70 -146.001 -70c-56.667 0 -102 17.5 -136 52.5s-51 84.167 -51 147.5v310h102v-288c0 -44 10.5 -77.167 31.5 -99.5s48.5 -33.5 82.5 -33.5
c35.333 0 64.833 11.833 88.5 35.5s35.5 58.834 35.5 105.501v280h102z" />
    <glyph glyph-name="uni01E2" unicode="&#x1e2;" horiz-adv-x="1024" 
d="M881 849v-72h-313v72h313zM636 93h344v-93h-447v183h-264l-120 -183h-125l454 700h492v-93h-334v-206h291v-91h-291v-217zM327 272h206v305h-7z" />
    <glyph glyph-name="uni01E3" unicode="&#x1e3;" horiz-adv-x="735" 
d="M513 649v-72h-313v72h313zM502 69c52.667 0 82.332 26.998 88.999 80.998h93c-5.33301 -53.333 -24.5 -93.333 -57.5 -120s-73.833 -40 -122.5 -40c-70 0 -119.667 25.667 -149 77c-27.333 -51.333 -80.333 -77 -159 -77c-48 0 -86.167 11.833 -114.5 35.5
s-42.5 57.834 -42.5 102.501c0 56 19.667 97.833 59 125.5s93 41.5 161 41.5h47v45c0 28 -6.66699 49.833 -20 65.5s-32.666 23.5 -57.999 23.5c-26 0 -46.5 -6.83301 -61.5 -20.5s-22.833 -33.5 -23.5 -59.5l-98 3c2.66699 50 20 88.833 52 116.5s74.333 41.5 127 41.5
c64 0 111 -23.333 141 -70c29.333 46.667 75.333 70 138 70c52.667 0 96 -19.667 130 -59s51 -103.666 51 -192.999c0 -5.33301 -0.666992 -17.333 -2 -36h-274c2 -102 33.333 -153 94 -153zM501.998 430.998c-27.333 0 -49.5 -11.167 -66.5 -33.5
s-26.167 -56.5 -27.5 -102.5h181c0 48 -8 82.667 -24 104s-37 32 -63 32zM210.998 68.998c26 0 48.333 7.5 67 22.5s28 39.5 28 73.5v57h-43c-85.333 0 -128 -28.333 -128 -85c0 -22 7 -38.833 21 -50.5s32.333 -17.5 55 -17.5z" />
    <glyph glyph-name="Gcaron" unicode="&#x1e6;" horiz-adv-x="787" 
d="M455 900h89l-103 -144h-89l-104 144h89l56 -83h6zM401 370l304.998 0.000976562v-370h-84l-11 76h-7c-55.333 -57.333 -128 -86 -218 -86c-98.667 0 -177.5 32.5 -236.5 97.5s-88.5 149.167 -88.5 252.5c0 106.667 32.333 195 97 265s148.334 105 251.001 105
c80.667 0 146.834 -20 198.501 -60s82.834 -91.333 93.501 -154h-113c-12 35.333 -33.5 63.666 -64.5 84.999s-69.167 32 -114.5 32c-72 0 -130.167 -25.5 -174.5 -76.5s-66.5 -116.167 -66.5 -195.5c0 -75.333 20.667 -136.833 62 -184.5s97.666 -71.5 168.999 -71.5
c57.333 0 105.5 13.833 144.5 41.5s58.5 67.167 58.5 118.5v41h-201v84z" />
    <glyph glyph-name="gcaron" unicode="&#x1e7;" horiz-adv-x="544" 
d="M321 556h-89l-104 144h89l56 -83h6l56 83h89zM525 493c-18 -21.333 -45.6689 -41.001 -83.002 -59.001c21.333 -27.333 32 -59.333 32 -96c0 -52 -18.667 -93.333 -56 -124s-84.333 -46 -141 -46c-33.333 0 -63 5 -89 15c-19.333 -10 -29 -23.667 -29 -41
c0 -28.667 23.333 -43 70 -43h99c56.667 0 100.334 -12.667 131.001 -38s46 -60.333 46 -105c0 -52 -20.333 -92.667 -61 -122s-95 -44 -163 -44c-72 0 -127.5 16 -166.5 48s-60.833 72.667 -65.5 122l80 69c-41.333 17.333 -62 48 -62 92c0 40 21.667 71.667 65 95
c-36 30.667 -54 71.334 -54 122.001c0 50 17.833 91.167 53.5 123.5s82.834 48.5 141.501 48.5c44 0 82.333 -9.66699 115 -29c32 16.667 59.667 40 83 70zM276.998 244.999c30 0 54 8.66895 72 26.002s27 39.666 27 66.999c0 28.667 -9 51.834 -27 69.501
s-42 26.5 -72 26.5c-30.667 0 -55.334 -8.83301 -74.001 -26.5s-28 -40.834 -28 -69.501c0 -26.667 9.33301 -48.834 28 -66.501s43.334 -26.5 74.001 -26.5zM406.998 -48.999c0 23.333 -9 40.333 -27 51s-39.333 16 -64 16h-91l-77 -65c16 -56.667 60.333 -85 133 -85
c36 0 66 7 90 21s36 34.667 36 62z" />
    <glyph glyph-name="uni01EA" unicode="&#x1ea;" horiz-adv-x="823" 
d="M494 -1c-44 -15.333 -66.001 -38.668 -66.001 -70.001c0 -28 19 -42 57 -42c15.333 0 30.333 2 45 6v-60c-14.667 -5.33301 -33 -8 -55 -8c-34.667 0 -62.5 7.83301 -83.5 23.5s-31.5 38.167 -31.5 67.5s14 54 42 74c-98 2.66699 -179.333 38 -244 106
s-97 152.667 -97 254c0 102.667 33.333 188.334 100 257.001s150.334 103 251.001 103c100 0 183.333 -34.333 250 -103s100 -154.334 100 -257.001c0 -87.333 -24.667 -163.166 -74 -227.499s-114 -105.5 -194 -123.5zM167.999 349.998
c0 -74.667 23.166 -137.167 69.499 -187.5s104.5 -75.5 174.5 -75.5s128 25.167 174 75.5s69 112.833 69 187.5s-23.167 137.167 -69.5 187.5s-104.166 75.5 -173.499 75.5c-70 0 -128.167 -25.167 -174.5 -75.5s-69.5 -112.833 -69.5 -187.5z" />
    <glyph glyph-name="uni01EB" unicode="&#x1eb;" horiz-adv-x="610" 
d="M375 -1c-44 -15.333 -66.001 -38.666 -66.001 -69.999c0 -28 19 -42 57 -42c14.667 0 29.667 2 45 6v-60c-14.667 -5.33301 -33 -8 -55 -8c-34.667 0 -62.5 7.83301 -83.5 23.5s-31.5 38.167 -31.5 67.5c0 30.667 14.333 55.667 43 75
c-68 4.66699 -124.167 31.167 -168.5 79.5s-66.5 108.166 -66.5 179.499c0 76 24 138.333 72 187s109 73 183 73s135.333 -24.5 184 -73.5s73 -111.167 73 -186.5c0 -62 -17.167 -115.667 -51.5 -161s-79.166 -75.333 -134.499 -90zM149.999 250
c0 -48 14.334 -88.499 43.001 -121.499s65.667 -49.5 111 -49.5s82.666 16.667 111.999 50s44 73.666 44 120.999c0 48 -14.5 88.5 -43.5 121.5s-66.5 49.5 -112.5 49.5c-45.333 0 -82.333 -16.5 -111 -49.5s-43 -73.5 -43 -121.5z" />
    <glyph glyph-name="uni01F4" unicode="&#x1f4;" horiz-adv-x="787" 
d="M428 900h88l-80 -145h-80zM401 370l304.998 0.000976562v-370h-84l-11 76h-7c-55.333 -57.333 -128 -86 -218 -86c-98.667 0 -177.5 32.5 -236.5 97.5s-88.5 149.167 -88.5 252.5c0 106.667 32.333 195 97 265s148.334 105 251.001 105c80.667 0 146.834 -20 198.501 -60
s82.834 -91.333 93.501 -154h-113c-12 35.333 -33.5 63.666 -64.5 84.999s-69.167 32 -114.5 32c-72 0 -130.167 -25.5 -174.5 -76.5s-66.5 -116.167 -66.5 -195.5c0 -75.333 20.667 -136.833 62 -184.5s97.666 -71.5 168.999 -71.5c57.333 0 105.5 13.833 144.5 41.5
s58.5 67.167 58.5 118.5v41h-201v84z" />
    <glyph glyph-name="uni01F5" unicode="&#x1f5;" horiz-adv-x="544" 
d="M396 700l-80 -145h-80l72 145h88zM525 493c-18 -21.333 -45.6689 -41.001 -83.002 -59.001c21.333 -27.333 32 -59.333 32 -96c0 -52 -18.667 -93.333 -56 -124s-84.333 -46 -141 -46c-33.333 0 -63 5 -89 15c-19.333 -10 -29 -23.667 -29 -41
c0 -28.667 23.333 -43 70 -43h99c56.667 0 100.334 -12.667 131.001 -38s46 -60.333 46 -105c0 -52 -20.333 -92.667 -61 -122s-95 -44 -163 -44c-72 0 -127.5 16 -166.5 48s-60.833 72.667 -65.5 122l80 69c-41.333 17.333 -62 48 -62 92c0 40 21.667 71.667 65 95
c-36 30.667 -54 71.334 -54 122.001c0 50 17.833 91.167 53.5 123.5s82.834 48.5 141.501 48.5c44 0 82.333 -9.66699 115 -29c32 16.667 59.667 40 83 70zM276.998 244.999c30 0 54 8.66895 72 26.002s27 39.666 27 66.999c0 28.667 -9 51.834 -27 69.501
s-42 26.5 -72 26.5c-30.667 0 -55.334 -8.83301 -74.001 -26.5s-28 -40.834 -28 -69.501c0 -26.667 9.33301 -48.834 28 -66.501s43.334 -26.5 74.001 -26.5zM406.998 -48.999c0 23.333 -9 40.333 -27 51s-39.333 16 -64 16h-91l-77 -65c16 -56.667 60.333 -85 133 -85
c36 0 66 7 90 21s36 34.667 36 62z" />
    <glyph glyph-name="uni01F8" unicode="&#x1f8;" horiz-adv-x="735" 
d="M335 900l72 -145h-80l-80 145h88zM551 700h103v-700h-111l-352 519h-7v-519h-103v700h111l352 -520h7v520z" />
    <glyph glyph-name="uni01F9" unicode="&#x1f9;" horiz-adv-x="572" 
d="M253 700l72 -145h-80l-80 145h88zM65 0l-0.000976562 500.001h92l10 -60h7c34.667 46.667 83.334 70 146.001 70c56.667 0 102 -17.5 136 -52.5s51 -84.167 51 -147.5v-310h-102v288c0 44 -10.5 77.167 -31.5 99.5s-48.5 33.5 -82.5 33.5
c-35.333 0 -64.833 -11.833 -88.5 -35.5s-35.5 -58.834 -35.5 -105.501v-280h-102z" />
    <glyph glyph-name="AEacute" unicode="&#x1fc;" horiz-adv-x="1024" 
d="M844 900l-80 -145h-80l72 145h88zM636 93h344v-93h-447v183h-264l-120 -183h-125l454 700h492v-93h-334v-206h291v-91h-291v-217zM327 272h206v305h-7z" />
    <glyph glyph-name="aeacute" unicode="&#x1fd;" horiz-adv-x="735" 
d="M476 700l-80 -145h-80l72 145h88zM502 69c52.667 0 82.332 26.998 88.999 80.998h93c-5.33301 -53.333 -24.5 -93.333 -57.5 -120s-73.833 -40 -122.5 -40c-70 0 -119.667 25.667 -149 77c-27.333 -51.333 -80.333 -77 -159 -77c-48 0 -86.167 11.833 -114.5 35.5
s-42.5 57.834 -42.5 102.501c0 56 19.667 97.833 59 125.5s93 41.5 161 41.5h47v45c0 28 -6.66699 49.833 -20 65.5s-32.666 23.5 -57.999 23.5c-26 0 -46.5 -6.83301 -61.5 -20.5s-22.833 -33.5 -23.5 -59.5l-98 3c2.66699 50 20 88.833 52 116.5s74.333 41.5 127 41.5
c64 0 111 -23.333 141 -70c29.333 46.667 75.333 70 138 70c52.667 0 96 -19.667 130 -59s51 -103.666 51 -192.999c0 -5.33301 -0.666992 -17.333 -2 -36h-274c2 -102 33.333 -153 94 -153zM501.998 430.998c-27.333 0 -49.5 -11.167 -66.5 -33.5
s-26.167 -56.5 -27.5 -102.5h181c0 48 -8 82.667 -24 104s-37 32 -63 32zM210.998 68.998c26 0 48.333 7.5 67 22.5s28 39.5 28 73.5v57h-43c-85.333 0 -128 -28.333 -128 -85c0 -22 7 -38.833 21 -50.5s32.333 -17.5 55 -17.5z" />
    <glyph glyph-name="Oslashacute" unicode="&#x1fe;" horiz-adv-x="823" 
d="M532 900l-80 -145h-80l72 145h88zM656 613c70.667 -69.333 105.999 -157 105.999 -263c0 -102.667 -33.167 -188.334 -99.5 -257.001s-149.833 -103 -250.5 -103c-66 0 -126 16 -180 48l-64 -87l-65 47l65 88c-71.333 69.333 -107 157.333 -107 264
c0 102.667 33.333 188.334 100 257.001s150.334 103 251.001 103c65.333 0 125 -15.667 179 -47l62 85l67 -48zM163.999 350c0 -70.667 20.999 -131.333 62.999 -182l306 417c-37.333 21.333 -77.666 32 -120.999 32c-70.667 0 -129.667 -25.5 -177 -76.5
s-71 -114.5 -71 -190.5zM411.998 83.001c70.667 0 129.667 25.5 177 76.5s71 114.5 71 190.5c0 71.333 -21.333 132 -64 182l-307 -416c38 -22 79 -33 123 -33z" />
    <glyph glyph-name="oslashacute" unicode="&#x1ff;" horiz-adv-x="610" 
d="M425 700l-80 -145h-80l72 145h88zM489 435c48 -49.333 71.999 -111 71.999 -185c0 -75.333 -24.333 -137.5 -73 -186.5s-110 -73.5 -184 -73.5c-47.333 0 -89.666 10.667 -126.999 32l-52 -68l-59 41l54 71c-47.333 48.667 -71 110 -71 184c0 76 24 138.333 72 187
s109 73 183 73c46.667 0 89.667 -10.667 129 -32l52 68l58 -40zM144.999 250c0 -40.667 10.666 -77 31.999 -109l202 266c-24 12 -49 18 -75 18c-47.333 0 -85.666 -16.833 -114.999 -50.5s-44 -75.167 -44 -124.5zM303.998 75c47.333 0 85.833 16.833 115.5 50.5
s44.5 75.167 44.5 124.5c0 40.667 -10.667 77 -32 109l-202 -266c24 -12 48.667 -18 74 -18z" />
    <glyph glyph-name="uni0218" unicode="&#x218;" horiz-adv-x="609" 
d="M545 186c0 -63.333 -22.166 -111.833 -66.499 -145.5s-99.833 -50.5 -166.5 -50.5c-76.667 0 -136.667 19 -180 57s-67 90.667 -71 158h104c4.66699 -40 19.5 -70.667 44.5 -92s59.167 -32 102.5 -32c37.333 0 67.666 8.5 90.999 25.5s35 42.5 35 76.5
c0 16 -3 30.5 -9 43.5s-13.167 23.667 -21.5 32s-19.5 16.166 -33.5 23.499s-26.167 12.833 -36.5 16.5s-23.833 8.16699 -40.5 13.5l-38 11c-23.333 7.33301 -44 15.333 -62 24s-36.333 20.334 -55 35.001s-33.167 33.167 -43.5 55.5s-15.5 47.5 -15.5 75.5
c0 59.333 21.667 107 65 143s98 54 164 54c67.333 0 122 -18.833 164 -56.5s64.333 -85.834 67 -144.501h-104c-4 32.667 -16.667 59.167 -38 79.5s-51 30.5 -89 30.5c-36.667 0 -66.5 -9.33301 -89.5 -28s-34.5 -43 -34.5 -73c0 -14 3 -26.667 9 -38s12.5 -20.5 19.5 -27.5
s17.833 -13.833 32.5 -20.5s26 -11.5 34 -14.5s20.667 -7.16699 38 -12.5l33 -9c22 -7.33301 41.333 -14.666 58 -21.999s36.5 -19 59.5 -35s41 -37 54 -63s19.5 -56 19.5 -90zM309.001 -57c22 0 39.332 -7.83398 51.999 -23.501s19 -35.834 19 -60.501
c0 -37.333 -10.833 -70 -32.5 -98s-47.167 -50 -76.5 -66l-29 29c40.667 34 61.334 64.333 62.001 91c-18.667 -1.33301 -34 3.83398 -46 15.501s-18 27.167 -18 46.5c0 20.667 6.5 36.834 19.5 48.501s29.5 17.5 49.5 17.5z" />
    <glyph glyph-name="uni0219" unicode="&#x219;" horiz-adv-x="486" 
d="M254 -10c-64.667 0 -114.333 14.834 -149 44.501s-53.334 69.834 -56.001 120.501h98c5.33301 -58 40.666 -87 105.999 -87c25.333 0 46.166 5.16699 62.499 15.5s24.5 26.166 24.5 47.499c0 22.667 -8.5 40 -25.5 52s-41.167 22.333 -72.5 31l-39 10
c-19.333 5.33301 -35.666 10.666 -48.999 15.999s-27.666 13.166 -42.999 23.499s-27 24 -35 41s-12 36.833 -12 59.5c0 44.667 17 80.167 51 106.5s75.667 39.5 125 39.5c59.333 0 104.833 -14.167 136.5 -42.5s48.834 -62.833 51.501 -103.5h-98
c-2.66699 20.667 -11.834 37.167 -27.501 49.5s-36.167 18.5 -61.5 18.5c-22.667 0 -41.5 -5.5 -56.5 -16.5s-22.5 -26.5 -22.5 -46.5s7.33301 -34.667 22 -44s37.334 -18.333 68.001 -27l38 -10c45.333 -12 81.333 -29.833 108 -53.5s40 -57.167 40 -100.5
c0 -47.333 -17.333 -83.166 -52 -107.499s-78.667 -36.5 -132 -36.5zM250.001 -56.999c22 0 39.332 -7.83398 51.999 -23.501s19 -35.834 19 -60.501c0 -37.333 -10.833 -70 -32.5 -98s-47.167 -50 -76.5 -66l-29 29c40.667 34 61.334 64.333 62.001 91
c-18.667 -1.33301 -34 3.83398 -46 15.501s-18 27.167 -18 46.5c0 20.667 6.5 36.834 19.5 48.501s29.5 17.5 49.5 17.5z" />
    <glyph glyph-name="uni021A" unicode="&#x21a;" horiz-adv-x="582" 
d="M37 700h508v-95h-201v-605h-106v605h-201v95zM289 -57c22 0 39.332 -7.83398 51.999 -23.501s19 -35.834 19 -60.501c0 -37.333 -10.833 -70 -32.5 -98s-47.167 -50 -76.5 -66l-29 29c40.667 34 61.334 64.333 62.001 91c-18.667 -1.33301 -34 3.83398 -46 15.501
s-18 27.167 -18 46.5c0 20.667 6.5 36.834 19.5 48.501s29.5 17.5 49.5 17.5z" />
    <glyph glyph-name="uni021B" unicode="&#x21b;" horiz-adv-x="373" 
d="M263 -10c-91.333 0 -136.999 43.668 -136.999 131.001v297h-108v82h35c29.333 0 50.166 5.66699 62.499 17s18.5 30.666 18.5 57.999v61h93v-136h127v-82h-127v-283c0 -42 21.667 -63 65 -63c16.667 0 33 2.66699 49 8v-79c-28 -7.33301 -54 -11 -78 -11z
M232.001 -56.999c22 0 39.332 -7.83398 51.999 -23.501s19 -35.834 19 -60.501c0 -37.333 -10.833 -70 -32.5 -98s-47.167 -50 -76.5 -66l-29 29c40.667 34 61.334 64.333 62.001 91c-18.667 -1.33301 -34 3.83398 -46 15.501s-18 27.167 -18 46.5
c0 20.667 6.5 36.834 19.5 48.501s29.5 17.5 49.5 17.5z" />
    <glyph glyph-name="uni021E" unicode="&#x21e;" horiz-adv-x="698" 
d="M406 900h89l-103 -144h-89l-104 144h89l56 -83h6zM512 700h105v-700h-105v307h-326v-307h-105v700h105v-298h326v298z" />
    <glyph glyph-name="uni0226" unicode="&#x226;" horiz-adv-x="671" 
d="M337 774c-18 0 -33.5 6.5 -46.5 19.5s-19.5 28.167 -19.5 45.5c0 18 6.5 33.167 19.5 45.5s28.5 18.5 46.5 18.5c17.333 0 32.333 -6.16699 45 -18.5s19 -27.5 19 -45.5c0 -17.333 -6.33301 -32.5 -19 -45.5s-27.667 -19.5 -45 -19.5zM533 0l-62 183h-272l-62 -183h-113
l247 700h129l246 -700h-113zM228 272h214l-103 305h-8z" />
    <glyph glyph-name="uni0227" unicode="&#x227;" horiz-adv-x="536" 
d="M258 574c-18 0 -33.5 6.5 -46.5 19.5s-19.5 28.167 -19.5 45.5c0 18 6.5 33.167 19.5 45.5s28.5 18.5 46.5 18.5c17.333 0 32.333 -6.16699 45 -18.5s19 -27.5 19 -45.5c0 -17.333 -6.33301 -32.5 -19 -45.5s-27.667 -19.5 -45 -19.5zM500 77h12.999v-77h-46
c-50.667 0 -82 20.667 -94 62c-38 -48 -92.667 -72 -164 -72c-50.667 0 -91.667 12.167 -123 36.5s-47 60.166 -47 107.499c0 45.333 15.333 81 46 107s71.334 41.333 122.001 46l153 15v25c0 32 -8.5 56.667 -25.5 74s-41.167 26 -72.5 26c-58 0 -92 -29.333 -102 -88h-101
c4.66699 50.667 25 91.834 61 123.501s83.333 47.5 142 47.5c59.333 0 107.5 -16 144.5 -48s55.5 -78.333 55.5 -139v-205c0 -27.333 12.667 -41 38 -41zM359.999 192v36.999l-119 -12c-30.667 -2.66699 -55 -10.667 -73 -24s-27 -31.666 -27 -54.999
c0 -45.333 27.667 -68 83 -68c36 0 67.667 10 95 30s41 50.667 41 92z" />
    <glyph glyph-name="uni0228" unicode="&#x228;" horiz-adv-x="587" 
d="M543 0l-199.001 -0.000976562l-30 -44c25.333 1.33301 48.166 -5.16699 68.499 -19.5s30.5 -35.166 30.5 -62.499c0 -26 -9.16699 -46.5 -27.5 -61.5s-43.5 -22.5 -75.5 -22.5c-29.333 0 -54.666 7.33301 -75.999 22l19 44c20.667 -11.333 38.667 -17 54 -17
c14.667 0 26.334 3.5 35.001 10.5s13 16.167 13 27.5c0 25.333 -16.333 38 -49 38c-10 0 -21 -2.66699 -33 -8l-34 28l42 65h-200v700h452v-93h-349v-206h306v-91h-306v-217h359v-93z" />
    <glyph glyph-name="uni0229" unicode="&#x229;" horiz-adv-x="571" 
d="M521 257c0 -4.66699 -0.666992 -15.668 -2 -33.001h-370c2.66699 -45.333 17 -81.833 43 -109.5s60.667 -41.5 104 -41.5c67.333 0 109 25.667 125 77h98c-10 -46.667 -32.833 -84 -68.5 -112s-80.167 -43.667 -133.5 -47l-24 -35
c25.333 1.33301 48.166 -5.16699 68.499 -19.5s30.5 -35.166 30.5 -62.499c0 -26 -9.16699 -46.5 -27.5 -61.5s-43.5 -22.5 -75.5 -22.5c-29.333 0 -54.666 7.33301 -75.999 22l19 44c20.667 -11.333 38.667 -17 54 -17c14.667 0 26.334 3.5 35.001 10.5s13 16.167 13 27.5
c0 25.333 -16.333 38 -49 38c-10 0 -21 -2.66699 -33 -8l-34 28l38 58c-62 8.66699 -112 35.667 -150 81s-57 102.333 -57 171c0 80 23.167 144.167 69.5 192.5s104.166 72.5 173.499 72.5c65.333 0 119.833 -21.667 163.5 -65s65.5 -106 65.5 -188zM292 426.999
c-38.667 0 -70.668 -12.333 -96.001 -37s-40.666 -56 -45.999 -94h272c-0.666992 38.667 -13 70.167 -37 94.5s-55 36.5 -93 36.5z" />
    <glyph glyph-name="uni022E" unicode="&#x22e;" horiz-adv-x="823" 
d="M413 774c-18 0 -33.5 6.5 -46.5 19.5s-19.5 28.167 -19.5 45.5c0 18 6.5 33.167 19.5 45.5s28.5 18.5 46.5 18.5c17.333 0 32.333 -6.16699 45 -18.5s19 -27.5 19 -45.5c0 -17.333 -6.33301 -32.5 -19 -45.5s-27.667 -19.5 -45 -19.5zM412 -10
c-100.667 0 -184.334 34.1689 -251.001 102.502s-100 154.166 -100 257.499c0 102.667 33.333 188.334 100 257.001s150.334 103 251.001 103c100 0 183.333 -34.333 250 -103s100 -154.334 100 -257.001s-33.167 -188.334 -99.5 -257.001s-149.833 -103 -250.5 -103z
M412 87.002c70 0 127.999 25.167 173.999 75.5s69 112.833 69 187.5s-23.167 137.167 -69.5 187.5s-104.166 75.5 -173.499 75.5c-70 0 -128.167 -25.167 -174.5 -75.5s-69.5 -112.833 -69.5 -187.5s23.167 -137.167 69.5 -187.5s104.5 -75.5 174.5 -75.5z" />
    <glyph glyph-name="uni022F" unicode="&#x22f;" horiz-adv-x="610" 
d="M306 574c-18 0 -33.5 6.5 -46.5 19.5s-19.5 28.167 -19.5 45.5c0 18 6.5 33.167 19.5 45.5s28.5 18.5 46.5 18.5c17.333 0 32.333 -6.16699 45 -18.5s19 -27.5 19 -45.5c0 -17.333 -6.33301 -32.5 -19 -45.5s-27.667 -19.5 -45 -19.5zM304 -10
c-73.333 0 -134.167 24.667 -182.5 74s-72.5 111.333 -72.5 186c0 76 24 138.333 72 187s109 73 183 73s135.333 -24.5 184 -73.5s73 -111.167 73 -186.5s-24.333 -137.5 -73 -186.5s-110 -73.5 -184 -73.5zM303.999 79c45.333 0 82.667 16.668 112 50.001
s44 73.666 44 120.999c0 48 -14.5 88.5 -43.5 121.5s-66.5 49.5 -112.5 49.5c-45.333 0 -82.333 -16.5 -111 -49.5s-43 -73.5 -43 -121.5s14.333 -88.5 43 -121.5s65.667 -49.5 111 -49.5z" />
    <glyph glyph-name="uni0232" unicode="&#x232;" horiz-adv-x="660" 
d="M174 849h313v-72h-313v72zM509 700h127l-253 -377v-323h-105v323l-254 377h126l176 -262h8z" />
    <glyph glyph-name="uni0233" unicode="&#x233;" horiz-adv-x="545" 
d="M117 649h313v-72h-313v72zM136 -210c-20.667 0 -45.667 3.66699 -75 11v77c21.333 -4.66699 39 -7 53 -7c52.667 0 89 24 109 72l22 57h-33l-193 500h106l148 -395h8l139 395h106l-208 -572c-31.333 -92 -92 -138 -182 -138z" />
    <glyph glyph-name="uni0237" unicode="&#x237;" horiz-adv-x="231" 
d="M28 -210c-23.333 0 -49.667 3.66699 -79 11v77c17.333 -4.66699 34 -7 50 -7c44 0 66 21 66 63v566h102v-579c0 -36 -10.167 -66.833 -30.5 -92.5s-56.5 -38.5 -108.5 -38.5z" />
    <glyph glyph-name="circumflex" unicode="&#x2c6;" horiz-adv-x="458" 
d="M170 556h-89l103 144h89l104 -144h-89l-56 83h-6z" />
    <glyph glyph-name="caron" unicode="&#x2c7;" horiz-adv-x="458" 
d="M288 700h89l-103 -144h-89l-104 144h89l57 -83h6z" />
    <glyph glyph-name="breve" unicode="&#x2d8;" horiz-adv-x="437" 
d="M356 700c0 -35.333 -12.834 -65.833 -38.501 -91.5s-58.5 -38.5 -98.5 -38.5s-73 12.833 -99 38.5s-39 56.167 -39 91.5h79c0 -19.333 5.33301 -35.166 16 -47.499s25.334 -18.5 44.001 -18.5c18 0 32.167 6.16699 42.5 18.5s15.5 28.166 15.5 47.499h78z" />
    <glyph glyph-name="dotaccent" unicode="&#x2d9;" horiz-adv-x="292" 
d="M147 574c-18 0 -33.5 6.5 -46.5 19.5s-19.5 28.167 -19.5 45.5c0 18 6.5 33.167 19.5 45.5s28.5 18.5 46.5 18.5c17.333 0 32.333 -6.16699 45 -18.5s19 -27.5 19 -45.5c0 -17.333 -6.33301 -32.5 -19 -45.5s-27.667 -19.5 -45 -19.5z" />
    <glyph glyph-name="ring" unicode="&#x2da;" horiz-adv-x="358" 
d="M179 538c-26.667 0 -49.667 9.66699 -69 29s-29 42 -29 68s9.66699 48.5 29 67.5s42.333 28.5 69 28.5s49.834 -9.5 69.501 -28.5s29.5 -41.5 29.5 -67.5s-9.83301 -48.667 -29.5 -68s-42.834 -29 -69.501 -29zM180 595c10.667 0 19.667 3.83301 27 11.5
s11 17.167 11 28.5c0 10 -3.66699 18.833 -11 26.5s-16.333 11.5 -27 11.5c-11.333 0 -20.666 -3.83301 -27.999 -11.5s-11 -16.5 -11 -26.5c0 -11.333 3.66699 -20.833 11 -28.5s16.666 -11.5 27.999 -11.5z" />
    <glyph glyph-name="ogonek" unicode="&#x2db;" horiz-adv-x="332" 
d="M189 22l29.001 -21.999c-46 -16 -69 -39.667 -69 -71c0 -28 19 -42 57 -42c15.333 0 30.333 2 45 6v-60c-14.667 -5.33301 -32.667 -8 -54 -8c-35.333 0 -63.5 7.83301 -84.5 23.5s-31.5 38.167 -31.5 67.5c0 27.333 9.66699 48.666 29 63.999s45.666 29.333 78.999 42z
" />
    <glyph glyph-name="tilde" unicode="&#x2dc;" horiz-adv-x="520" 
d="M439 671c-2 -35.333 -12.168 -65.001 -30.501 -89.001s-43.166 -36 -74.499 -36c-22 0 -41.167 5.33301 -57.5 16s-30.666 21.167 -42.999 31.5s-24.5 15.5 -36.5 15.5c-25.333 0 -40.666 -18.333 -45.999 -55h-70c2.66699 36.667 13 66.834 31 90.501
s43.333 35.5 76 35.5c18 0 34.167 -3.16699 48.5 -9.5s25.166 -13.5 32.499 -21.5s15.666 -15.167 24.999 -21.5s19 -9.5 29 -9.5c28 0 43.333 17.667 46 53h70z" />
    <glyph glyph-name="hungarumlaut" unicode="&#x2dd;" horiz-adv-x="471" 
d="M140 700h87l-65 -145h-81zM302 700h88l-66 -145h-80z" />
    <glyph glyph-name="uni1E02" unicode="&#x1e02;" horiz-adv-x="616" 
d="M315 774c-18 0 -33.5 6.5 -46.5 19.5s-19.5 28.167 -19.5 45.5c0 18 6.5 33.167 19.5 45.5s28.5 18.5 46.5 18.5c17.333 0 32.333 -6.16699 45 -18.5s19 -27.5 19 -45.5c0 -17.333 -6.33301 -32.5 -19 -45.5s-27.667 -19.5 -45 -19.5zM450 367
c32.667 -12 60.333 -32.167 83 -60.5s34 -66.5 34 -114.5c0 -60.667 -19.333 -107.834 -58 -141.501s-92 -50.5 -160 -50.5h-268v700h267c65.333 0 115 -15.667 149 -47s51 -73.666 51 -126.999c0 -72 -32.667 -123.333 -98 -154v-5zM183.999 614v-210.999h150
c34.667 0 61.5 9.66699 80.5 29s28.5 45.666 28.5 78.999c0 32 -9.5 57.167 -28.5 75.5s-44.833 27.5 -77.5 27.5h-153zM339.999 86.001c37.333 0 66.668 10.333 88.001 31s32 48 32 82c0 34.667 -10.833 63 -32.5 85s-50.834 33 -87.501 33h-156v-231h156z" />
    <glyph glyph-name="uni1E03" unicode="&#x1e03;" horiz-adv-x="603" 
d="M115 774c-18 0 -33.5 6.5 -46.5 19.5s-19.5 28.167 -19.5 45.5c0 18 6.5 33.167 19.5 45.5s28.5 18.5 46.5 18.5c17.333 0 32.333 -6.16699 45 -18.5s19 -27.5 19 -45.5c0 -17.333 -6.33301 -32.5 -19 -45.5s-27.667 -19.5 -45 -19.5zM322 510
c66.667 0 122 -23.5 166 -70.5s66 -109.833 66 -188.5c0 -78 -21.667 -141 -65 -189s-99 -72 -167 -72c-67.333 0 -120 25.667 -158 77h-7l-9 -67h-83v710h102v-268c36 45.333 87.667 68 155 68zM307 79c43.333 0 78.333 15.833 105 47.5s40 73.167 40 124.5
c0 50.667 -13.333 91.667 -40 123s-61.667 47 -105 47c-42 0 -75.833 -15.667 -101.5 -47s-38.5 -72.333 -38.5 -123c0 -52 12.667 -93.667 38 -125s59.333 -47 102 -47z" />
    <glyph glyph-name="uni1E0A" unicode="&#x1e0a;" horiz-adv-x="706" 
d="M348 774c-18 0 -33.5 6.5 -46.5 19.5s-19.5 28.167 -19.5 45.5c0 18 6.5 33.167 19.5 45.5s28.5 18.5 46.5 18.5c17.333 0 32.333 -6.16699 45 -18.5s19 -27.5 19 -45.5c0 -17.333 -6.33301 -32.5 -19 -45.5s-27.667 -19.5 -45 -19.5zM308 700
c108 0 191.167 -31.333 249.5 -94s87.5 -148 87.5 -256c0 -106.667 -29.167 -191.667 -87.5 -255s-141.5 -95 -249.5 -95h-227v700h227zM303 95c80 0 139.167 23.333 177.5 70s57.5 109.334 57.5 188.001c0 77.333 -19 138.666 -57 183.999s-97.333 68 -178 68h-117v-510
h117z" />
    <glyph glyph-name="uni1E0B" unicode="&#x1e0b;" horiz-adv-x="603" 
d="M490 774c-18 0 -33.5 6.5 -46.5 19.5s-19.5 28.167 -19.5 45.5c0 18 6.5 33.167 19.5 45.5s28.5 18.5 46.5 18.5c17.333 0 32.333 -6.16699 45 -18.5s19 -27.5 19 -45.5c0 -17.333 -6.33301 -32.5 -19 -45.5s-27.667 -19.5 -45 -19.5zM436 442v268h102v-710h-83l-9 67h-7
c-38 -51.333 -90.667 -77 -158 -77c-68 0 -123.667 24 -167 72s-65 111 -65 189c0 78.667 22 141.5 66 188.5s99.333 70.5 166 70.5c67.333 0 119 -22.667 155 -68zM296 79c42.667 0 76.667 15.667 102 47s38 73 38 125c0 50.667 -12.833 91.667 -38.5 123
s-59.5 47 -101.5 47c-43.333 0 -78.333 -15.667 -105 -47s-40 -72.333 -40 -123c0 -51.333 13.333 -92.833 40 -124.5s61.667 -47.5 105 -47.5z" />
    <glyph glyph-name="uni1E10" unicode="&#x1e10;" horiz-adv-x="706" 
d="M308 700c108 0 191.167 -31.333 249.5 -94s87.5 -148 87.5 -256c0 -106.667 -29.167 -191.667 -87.5 -255s-141.5 -95 -249.5 -95h-227v700h227zM303 95c80 0 139.167 23.333 177.5 70s57.5 109.334 57.5 188.001c0 77.333 -19 138.666 -57 183.999s-97.333 68 -178 68
h-117v-510h117zM345 -57c22 0 39.332 -7.83398 51.999 -23.501s19 -35.834 19 -60.501c0 -37.333 -10.833 -70 -32.5 -98s-47.167 -50 -76.5 -66l-29 29c40.667 34 61.334 64.333 62.001 91c-18.667 -1.33301 -34 3.83398 -46 15.501s-18 27.167 -18 46.5
c0 20.667 6.5 36.834 19.5 48.501s29.5 17.5 49.5 17.5z" />
    <glyph glyph-name="uni1E11" unicode="&#x1e11;" horiz-adv-x="603" 
d="M436 710h102v-710h-83l-9 67h-7c-38 -51.333 -90.667 -77 -158 -77c-68 0 -123.667 24 -167 72s-65 111 -65 189c0 78.667 22 141.5 66 188.5s99.333 70.5 166 70.5c67.333 0 119 -22.667 155 -68v268zM296 79c42.667 0 76.667 15.667 102 47s38 73 38 125
c0 50.667 -12.833 91.667 -38.5 123s-59.5 47 -101.5 47c-43.333 0 -78.333 -15.667 -105 -47s-40 -72.333 -40 -123c0 -51.333 13.333 -92.833 40 -124.5s61.667 -47.5 105 -47.5zM298 -57c22 0 39.332 -7.83398 51.999 -23.501s19 -35.834 19 -60.501
c0 -37.333 -10.833 -70 -32.5 -98s-47.167 -50 -76.5 -66l-29 29c40.667 34 61.334 64.333 62.001 91c-18.667 -1.33301 -34 3.83398 -46 15.501s-18 27.167 -18 46.5c0 20.667 6.5 36.834 19.5 48.501s29.5 17.5 49.5 17.5z" />
    <glyph glyph-name="uni1E1E" unicode="&#x1e1e;" horiz-adv-x="562" 
d="M304 774c-18 0 -33.5 6.5 -46.5 19.5s-19.5 28.167 -19.5 45.5c0 18 6.5 33.167 19.5 45.5s28.5 18.5 46.5 18.5c17.333 0 32.333 -6.16699 45 -18.5s19 -27.5 19 -45.5c0 -17.333 -6.33301 -32.5 -19 -45.5s-27.667 -19.5 -45 -19.5zM525 603h-339v-215h296v-93h-296
v-295h-105v700h444v-97z" />
    <glyph glyph-name="uni1E1F" unicode="&#x1e1f;" horiz-adv-x="372" 
d="M239 774c-18 0 -33.5 6.5 -46.5 19.5s-19.5 28.167 -19.5 45.5c0 18 6.5 33.167 19.5 45.5s28.5 18.5 46.5 18.5c17.333 0 32.333 -6.16699 45 -18.5s19 -27.5 19 -45.5c0 -17.333 -6.33301 -32.5 -19 -45.5s-27.667 -19.5 -45 -19.5zM224 564l0.000976562 -64.001h121
v-82h-121v-418h-102v418h-104v82h104v72c0 44.667 13.167 78.834 39.5 102.501s62.166 35.5 107.499 35.5c29.333 0 57.333 -5.33301 84 -16l-18 -75c-14 5.33301 -30 8 -48 8c-42 0 -63 -21 -63 -63z" />
    <glyph glyph-name="uni1E20" unicode="&#x1e20;" horiz-adv-x="787" 
d="M240 849h313v-72h-313v72zM401 370l304.998 0.000976562v-370h-84l-11 76h-7c-55.333 -57.333 -128 -86 -218 -86c-98.667 0 -177.5 32.5 -236.5 97.5s-88.5 149.167 -88.5 252.5c0 106.667 32.333 195 97 265s148.334 105 251.001 105c80.667 0 146.834 -20 198.501 -60
s82.834 -91.333 93.501 -154h-113c-12 35.333 -33.5 63.666 -64.5 84.999s-69.167 32 -114.5 32c-72 0 -130.167 -25.5 -174.5 -76.5s-66.5 -116.167 -66.5 -195.5c0 -75.333 20.667 -136.833 62 -184.5s97.666 -71.5 168.999 -71.5c57.333 0 105.5 13.833 144.5 41.5
s58.5 67.167 58.5 118.5v41h-201v84z" />
    <glyph glyph-name="uni1E22" unicode="&#x1e22;" horiz-adv-x="698" 
d="M348 774c-18 0 -33.5 6.5 -46.5 19.5s-19.5 28.167 -19.5 45.5c0 18 6.5 33.167 19.5 45.5s28.5 18.5 46.5 18.5c17.333 0 32.333 -6.16699 45 -18.5s19 -27.5 19 -45.5c0 -17.333 -6.33301 -32.5 -19 -45.5s-27.667 -19.5 -45 -19.5zM512 700h105v-700h-105v307h-326
v-307h-105v700h105v-298h326v298z" />
    <glyph glyph-name="uni1E23" unicode="&#x1e23;" horiz-adv-x="572" 
d="M118 774c-18 0 -33.5 6.5 -46.5 19.5s-19.5 28.167 -19.5 45.5c0 18 6.5 33.167 19.5 45.5s28.5 18.5 46.5 18.5c17.333 0 32.333 -6.16699 45 -18.5s19 -27.5 19 -45.5c0 -17.333 -6.33301 -32.5 -19 -45.5s-27.667 -19.5 -45 -19.5zM320 510
c56.667 0 101.999 -17.499 135.999 -52.499s51 -84.167 51 -147.5v-310h-102v288c0 44 -10.5 77.167 -31.5 99.5s-48.5 33.5 -82.5 33.5c-35.333 0 -64.833 -11.833 -88.5 -35.5s-35.5 -58.834 -35.5 -105.501v-280h-102v710h102v-270h7c34.667 46.667 83.334 70 146.001 70
z" />
    <glyph glyph-name="uni1E26" unicode="&#x1e26;" horiz-adv-x="698" 
d="M231 762c-18 0 -33.667 6.33398 -47 19.001s-20 28 -20 46s6.66699 33.5 20 46.5s29 19.5 47 19.5s33.5 -6.33301 46.5 -19s19.5 -28.334 19.5 -47.001c0 -18 -6.5 -33.333 -19.5 -46s-28.5 -19 -46.5 -19zM464 762.001c-17.333 0 -32.5 6.33398 -45.5 19.001
s-19.5 28 -19.5 46s6.5 33.5 19.5 46.5s28.167 19.5 45.5 19.5c18 0 33.5 -6.33301 46.5 -19s19.5 -28.334 19.5 -47.001c0 -18 -6.5 -33.333 -19.5 -46s-28.5 -19 -46.5 -19zM512 700.002h105v-700h-105v307h-326v-307h-105v700h105v-298h326v298z" />
    <glyph glyph-name="uni1E27" unicode="&#x1e27;" horiz-adv-x="572" 
d="M23 753c-16.667 0 -30.834 6 -42.501 18s-17.5 26.333 -17.5 43s5.83301 30.667 17.5 42s25.834 17 42.501 17s30.834 -5.66699 42.501 -17s17.5 -25.333 17.5 -42s-5.83301 -31 -17.5 -43s-25.834 -18 -42.501 -18zM212 753c-16 0 -29.833 6 -41.5 18
s-17.5 26.333 -17.5 43s5.83301 30.667 17.5 42s25.5 17 41.5 17c16.667 0 30.834 -5.66699 42.501 -17s17.5 -25.333 17.5 -42s-5.83301 -31 -17.5 -43s-25.834 -18 -42.501 -18zM320 510c56.667 0 101.999 -17.499 135.999 -52.499s51 -84.167 51 -147.5v-310h-102v288
c0 44 -10.5 77.167 -31.5 99.5s-48.5 33.5 -82.5 33.5c-35.333 0 -64.833 -11.833 -88.5 -35.5s-35.5 -58.834 -35.5 -105.501v-280h-102v710h102v-270h7c34.667 46.667 83.334 70 146.001 70z" />
    <glyph glyph-name="uni1E28" unicode="&#x1e28;" horiz-adv-x="698" 
d="M512 700l104.999 -0.000976562v-700h-105v307h-326v-307h-21l-30 -44c25.333 1.33301 48.166 -5.16699 68.499 -19.5s30.5 -35.166 30.5 -62.499c0 -26 -9.16699 -46.5 -27.5 -61.5s-43.5 -22.5 -75.5 -22.5c-29.333 0 -54.666 7.33301 -75.999 22l19 44
c20.667 -11.333 38.667 -17 54 -17c14.667 0 26.334 3.5 35.001 10.5s13 16.167 13 27.5c0 25.333 -16.333 38 -49 38c-10 0 -21 -2.66699 -33 -8l-34 28l42 65h-21v700h105v-298h326v298z" />
    <glyph glyph-name="uni1E29" unicode="&#x1e29;" horiz-adv-x="572" 
d="M320 510c56.667 0 101.998 -17.5 135.998 -52.5s51 -84.167 51 -147.5v-310h-102v288c0 44 -10.5 77.167 -31.5 99.5s-48.5 33.5 -82.5 33.5c-35.333 0 -64.833 -11.833 -88.5 -35.5s-35.5 -58.834 -35.5 -105.501v-280h-18l-30 -44
c25.333 1.33301 48.166 -5.16699 68.499 -19.5s30.5 -35.166 30.5 -62.499c0 -26 -9.16699 -46.5 -27.5 -61.5s-43.5 -22.5 -75.5 -22.5c-29.333 0 -54.666 7.33301 -75.999 22l19 44c20.667 -11.333 38.667 -17 54 -17c14.667 0 26.334 3.5 35.001 10.5s13 16.167 13 27.5
c0 25.333 -16.333 38 -49 38c-10 0 -21 -2.66699 -33 -8l-34 28l42 65h-21v710h102v-270h7c34.667 46.667 83.334 70 146.001 70z" />
    <glyph glyph-name="uni1E40" unicode="&#x1e40;" horiz-adv-x="885" 
d="M444 774c-18 0 -33.5 6.5 -46.5 19.5s-19.5 28.167 -19.5 45.5c0 18 6.5 33.167 19.5 45.5s28.5 18.5 46.5 18.5c17.333 0 32.333 -6.16699 45 -18.5s19 -27.5 19 -45.5c0 -17.333 -6.33301 -32.5 -19 -45.5s-27.667 -19.5 -45 -19.5zM804 700v-700h-103v512h-7
l-195 -432h-111l-196 432h-8v-512h-103v700h132l227 -509h7l226 509h131z" />
    <glyph glyph-name="uni1E41" unicode="&#x1e41;" horiz-adv-x="836" 
d="M419 574c-18 0 -33.5 6.5 -46.5 19.5s-19.5 28.167 -19.5 45.5c0 18 6.5 33.167 19.5 45.5s28.5 18.5 46.5 18.5c17.333 0 32.333 -6.16699 45 -18.5s19 -27.5 19 -45.5c0 -17.333 -6.33301 -32.5 -19 -45.5s-27.667 -19.5 -45 -19.5zM65 0l-0.00195312 499.999h92
l10 -59h7c32 46 77.333 69 136 69c64.667 0 109.334 -28.333 134.001 -85h7c34 56.667 85.667 85 155 85c50.667 0 91 -15.167 121 -45.5s45 -74.5 45 -132.5v-332h-102v312c0 36 -9 63.167 -27 81.5s-41 27.5 -69 27.5c-31.333 0 -56.666 -11 -75.999 -33s-29 -51 -29 -87
v-301h-102v307c0 36.667 -9 64.834 -27 84.501s-41 29.5 -69 29.5s-52.333 -10.167 -73 -30.5s-31 -49.5 -31 -87.5v-303h-102z" />
    <glyph glyph-name="uni1E44" unicode="&#x1e44;" horiz-adv-x="735" 
d="M368 774c-18 0 -33.5 6.5 -46.5 19.5s-19.5 28.167 -19.5 45.5c0 18 6.5 33.167 19.5 45.5s28.5 18.5 46.5 18.5c17.333 0 32.333 -6.16699 45 -18.5s19 -27.5 19 -45.5c0 -17.333 -6.33301 -32.5 -19 -45.5s-27.667 -19.5 -45 -19.5zM551 700h103v-700h-111l-352 519h-7
v-519h-103v700h111l352 -520h7v520z" />
    <glyph glyph-name="uni1E45" unicode="&#x1e45;" horiz-adv-x="572" 
d="M286 574c-18 0 -33.5 6.5 -46.5 19.5s-19.5 28.167 -19.5 45.5c0 18 6.5 33.167 19.5 45.5s28.5 18.5 46.5 18.5c17.333 0 32.333 -6.16699 45 -18.5s19 -27.5 19 -45.5c0 -17.333 -6.33301 -32.5 -19 -45.5s-27.667 -19.5 -45 -19.5zM65 0l-0.000976562 500.001h92
l10 -60h7c34.667 46.667 83.334 70 146.001 70c56.667 0 102 -17.5 136 -52.5s51 -84.167 51 -147.5v-310h-102v288c0 44 -10.5 77.167 -31.5 99.5s-48.5 33.5 -82.5 33.5c-35.333 0 -64.833 -11.833 -88.5 -35.5s-35.5 -58.834 -35.5 -105.501v-280h-102z" />
    <glyph glyph-name="uni1E56" unicode="&#x1e56;" horiz-adv-x="633" 
d="M320 774c-18 0 -33.5 6.5 -46.5 19.5s-19.5 28.167 -19.5 45.5c0 18 6.5 33.167 19.5 45.5s28.5 18.5 46.5 18.5c17.333 0 32.333 -6.16699 45 -18.5s19 -27.5 19 -45.5c0 -17.333 -6.33301 -32.5 -19 -45.5s-27.667 -19.5 -45 -19.5zM347 700
c68.667 0 123.333 -19.667 164 -59s61 -91 61 -155c0 -66 -20.667 -118.667 -62 -158s-97.333 -59 -168 -59h-159v-269h-102v700h266zM331.999 362c42.667 0 75.5 11 98.5 33s34.5 52 34.5 90s-11.667 67.833 -35 89.5s-54.333 32.5 -93 32.5h-154v-245h149z" />
    <glyph glyph-name="uni1E57" unicode="&#x1e57;" horiz-adv-x="603" 
d="M301 574c-18 0 -33.5 6.5 -46.5 19.5s-19.5 28.167 -19.5 45.5c0 18 6.5 33.167 19.5 45.5s28.5 18.5 46.5 18.5c17.333 0 32.333 -6.16699 45 -18.5s19 -27.5 19 -45.5c0 -17.333 -6.33301 -32.5 -19 -45.5s-27.667 -19.5 -45 -19.5zM322 510c68 0 123.667 -24 167 -72
s65 -111 65 -189c0 -78.667 -22 -141.5 -66 -188.5s-99.333 -70.5 -166 -70.5c-67.333 0 -119 22.667 -155 68v-258h-102v700h83l9 -67h7c38 51.333 90.667 77 158 77zM307 79c43.333 0 78.333 15.667 105 47s40 72.333 40 123c0 51.333 -13.333 92.833 -40 124.5
s-61.667 47.5 -105 47.5c-42.667 0 -76.667 -15.667 -102 -47s-38 -73 -38 -125c0 -50.667 12.833 -91.667 38.5 -123s59.5 -47 101.5 -47z" />
    <glyph glyph-name="uni1E58" unicode="&#x1e58;" horiz-adv-x="627" 
d="M320 774c-18 0 -33.5 6.5 -46.5 19.5s-19.5 28.167 -19.5 45.5c0 18 6.5 33.167 19.5 45.5s28.5 18.5 46.5 18.5c17.333 0 32.333 -6.16699 45 -18.5s19 -27.5 19 -45.5c0 -17.333 -6.33301 -32.5 -19 -45.5s-27.667 -19.5 -45 -19.5zM590 0l-114 0.000976562l-162 286
h-130v-286h-103v700h259c67.333 0 120.833 -18.333 160.5 -55s59.5 -85.334 59.5 -146.001c0 -48.667 -12.833 -89.667 -38.5 -123s-61.167 -57 -106.5 -71zM184 609.001v-231.999h142c40 0 71.5 10.667 94.5 32s34.5 49.666 34.5 84.999c0 36 -11.5 64.167 -34.5 84.5
s-54.5 30.5 -94.5 30.5h-142z" />
    <glyph glyph-name="uni1E59" unicode="&#x1e59;" horiz-adv-x="369" 
d="M208 574c-18 0 -33.5 6.5 -46.5 19.5s-19.5 28.167 -19.5 45.5c0 18 6.5 33.167 19.5 45.5s28.5 18.5 46.5 18.5c17.333 0 32.333 -6.16699 45 -18.5s19 -27.5 19 -45.5c0 -17.333 -6.33301 -32.5 -19 -45.5s-27.667 -19.5 -45 -19.5zM65 0l0.00195312 500h92l10 -70h7
c15.333 26.667 33.666 46.667 54.999 60s51.333 20 90 20h32v-102c-16 2 -32.333 3 -49 3c-44.667 0 -78.334 -15 -101.001 -45s-34 -68 -34 -114v-252h-102z" />
    <glyph glyph-name="uni1E60" unicode="&#x1e60;" horiz-adv-x="609" 
d="M312 774c-18 0 -33.5 6.5 -46.5 19.5s-19.5 28.167 -19.5 45.5c0 18 6.5 33.167 19.5 45.5s28.5 18.5 46.5 18.5c17.333 0 32.333 -6.16699 45 -18.5s19 -27.5 19 -45.5c0 -17.333 -6.33301 -32.5 -19 -45.5s-27.667 -19.5 -45 -19.5zM545 186
c0 -63.333 -22.166 -111.833 -66.499 -145.5s-99.833 -50.5 -166.5 -50.5c-76.667 0 -136.667 19 -180 57s-67 90.667 -71 158h104c4.66699 -40 19.5 -70.667 44.5 -92s59.167 -32 102.5 -32c37.333 0 67.666 8.5 90.999 25.5s35 42.5 35 76.5c0 16 -3 30.5 -9 43.5
s-13.167 23.667 -21.5 32s-19.5 16.166 -33.5 23.499s-26.167 12.833 -36.5 16.5s-23.833 8.16699 -40.5 13.5l-38 11c-23.333 7.33301 -44 15.333 -62 24s-36.333 20.334 -55 35.001s-33.167 33.167 -43.5 55.5s-15.5 47.5 -15.5 75.5c0 59.333 21.667 107 65 143
s98 54 164 54c67.333 0 122 -18.833 164 -56.5s64.333 -85.834 67 -144.501h-104c-4 32.667 -16.667 59.167 -38 79.5s-51 30.5 -89 30.5c-36.667 0 -66.5 -9.33301 -89.5 -28s-34.5 -43 -34.5 -73c0 -14 3 -26.667 9 -38s12.5 -20.5 19.5 -27.5s17.833 -13.833 32.5 -20.5
s26 -11.5 34 -14.5s20.667 -7.16699 38 -12.5l33 -9c22 -7.33301 41.333 -14.666 58 -21.999s36.5 -19 59.5 -35s41 -37 54 -63s19.5 -56 19.5 -90z" />
    <glyph glyph-name="uni1E61" unicode="&#x1e61;" horiz-adv-x="486" 
d="M236 574c-18 0 -33.5 6.5 -46.5 19.5s-19.5 28.167 -19.5 45.5c0 18 6.5 33.167 19.5 45.5s28.5 18.5 46.5 18.5c17.333 0 32.333 -6.16699 45 -18.5s19 -27.5 19 -45.5c0 -17.333 -6.33301 -32.5 -19 -45.5s-27.667 -19.5 -45 -19.5zM254 -10
c-64.667 0 -114.333 14.834 -149 44.501s-53.334 69.834 -56.001 120.501h98c5.33301 -58 40.666 -87 105.999 -87c25.333 0 46.166 5.16699 62.499 15.5s24.5 26.166 24.5 47.499c0 22.667 -8.5 40 -25.5 52s-41.167 22.333 -72.5 31l-39 10
c-19.333 5.33301 -35.666 10.666 -48.999 15.999s-27.666 13.166 -42.999 23.499s-27 24 -35 41s-12 36.833 -12 59.5c0 44.667 17 80.167 51 106.5s75.667 39.5 125 39.5c59.333 0 104.833 -14.167 136.5 -42.5s48.834 -62.833 51.501 -103.5h-98
c-2.66699 20.667 -11.834 37.167 -27.501 49.5s-36.167 18.5 -61.5 18.5c-22.667 0 -41.5 -5.5 -56.5 -16.5s-22.5 -26.5 -22.5 -46.5s7.33301 -34.667 22 -44s37.334 -18.333 68.001 -27l38 -10c45.333 -12 81.333 -29.833 108 -53.5s40 -57.167 40 -100.5
c0 -47.333 -17.333 -83.166 -52 -107.499s-78.667 -36.5 -132 -36.5z" />
    <glyph glyph-name="uni1E7C" unicode="&#x1e7c;" horiz-adv-x="667" 
d="M513 871c-2 -35.333 -12.1689 -65 -30.502 -89s-43.166 -36 -74.499 -36c-22 0 -41.167 5.33301 -57.5 16s-30.666 21.167 -42.999 31.5s-24.5 15.5 -36.5 15.5c-25.333 0 -40.666 -18.333 -45.999 -55h-70c2.66699 36 13.167 66 31.5 90s43.5 36 75.5 36
c18 0 34.167 -3.16699 48.5 -9.5s25.166 -13.5 32.499 -21.5s15.833 -15.167 25.5 -21.5s19.5 -9.5 29.5 -9.5c27.333 0 42.333 17.667 45 53h70zM529.998 700h113l-245 -700h-129l-245 700h114l192 -560h8z" />
    <glyph glyph-name="uni1E7D" unicode="&#x1e7d;" horiz-adv-x="545" 
d="M452 671c-2 -35.333 -12.1689 -65 -30.502 -89s-43.166 -36 -74.499 -36c-22 0 -41.167 5.33301 -57.5 16s-30.666 21.167 -42.999 31.5s-24.5 15.5 -36.5 15.5c-25.333 0 -40.666 -18.333 -45.999 -55h-70c2.66699 36 13.167 66 31.5 90s43.5 36 75.5 36
c18 0 34.167 -3.16699 48.5 -9.5s25.166 -13.5 32.499 -21.5s15.833 -15.167 25.5 -21.5s19.5 -9.5 29.5 -9.5c27.333 0 42.333 17.667 45 53h70zM210.998 0l-192 500h106l145 -394h7l144 394h105l-191 -500h-124z" />
    <glyph glyph-name="Wgrave" unicode="&#x1e80;" horiz-adv-x="905" 
d="M421 900l72 -145h-80l-80 145h88zM780 700h101l-155 -700h-120l-150 516h-7l-149 -516h-120l-156 700h103l116 -549h7l145 499h116l143 -499h8z" />
    <glyph glyph-name="wgrave" unicode="&#x1e81;" horiz-adv-x="741" 
d="M339 700l72 -145h-80l-80 145h88zM149 0l-130 500h96l91 -383h7l103 348h110l103 -349h7l91 384h95l-131 -500h-115l-101 353h-8l-103 -353h-115z" />
    <glyph glyph-name="Wacute" unicode="&#x1e82;" horiz-adv-x="905" 
d="M485 900h88l-80 -145h-80zM780 700h101l-155 -700h-120l-150 516h-7l-149 -516h-120l-156 700h103l116 -549h7l145 499h116l143 -499h8z" />
    <glyph glyph-name="wacute" unicode="&#x1e83;" horiz-adv-x="741" 
d="M403 700h88l-80 -145h-80zM149 0l-130 500h96l91 -383h7l103 348h110l103 -349h7l91 384h95l-131 -500h-115l-101 353h-8l-103 -353h-115z" />
    <glyph glyph-name="Wdieresis" unicode="&#x1e84;" horiz-adv-x="905" 
d="M337 762c-18 0 -33.667 6.33398 -47 19.001s-20 28 -20 46s6.66699 33.5 20 46.5s29 19.5 47 19.5s33.5 -6.33301 46.5 -19s19.5 -28.334 19.5 -47.001c0 -18 -6.5 -33.333 -19.5 -46s-28.5 -19 -46.5 -19zM570 762.001c-17.333 0 -32.5 6.33398 -45.5 19.001
s-19.5 28 -19.5 46s6.5 33.5 19.5 46.5s28.167 19.5 45.5 19.5c18 0 33.5 -6.33301 46.5 -19s19.5 -28.334 19.5 -47.001c0 -18 -6.5 -33.333 -19.5 -46s-28.5 -19 -46.5 -19zM780 700.002h101l-155 -700h-120l-150 516h-7l-149 -516h-120l-156 700h103l116 -549h7l145 499
h116l143 -499h8z" />
    <glyph glyph-name="wdieresis" unicode="&#x1e85;" horiz-adv-x="741" 
d="M277 553c-16.667 0 -30.834 6 -42.501 18s-17.5 26.333 -17.5 43s5.83301 30.667 17.5 42s25.834 17 42.501 17s30.834 -5.66699 42.501 -17s17.5 -25.333 17.5 -42s-5.83301 -31 -17.5 -43s-25.834 -18 -42.501 -18zM466 553c-16 0 -29.833 6 -41.5 18
s-17.5 26.333 -17.5 43s5.83301 30.667 17.5 42s25.5 17 41.5 17c16.667 0 30.834 -5.66699 42.501 -17s17.5 -25.333 17.5 -42s-5.83301 -31 -17.5 -43s-25.834 -18 -42.501 -18zM149 0l-130 500h96l91 -383h7l103 348h110l103 -349h7l91 384h95l-131 -500h-115l-101 353
h-8l-103 -353h-115z" />
    <glyph glyph-name="uni1E8C" unicode="&#x1e8c;" horiz-adv-x="637" 
d="M203 762c-18 0 -33.667 6.33398 -47 19.001s-20 28 -20 46s6.66699 33.5 20 46.5s29 19.5 47 19.5s33.5 -6.33301 46.5 -19s19.5 -28.334 19.5 -47.001c0 -18 -6.5 -33.333 -19.5 -46s-28.5 -19 -46.5 -19zM436 762.001c-17.333 0 -32.5 6.33398 -45.5 19.001
s-19.5 28 -19.5 46s6.5 33.5 19.5 46.5s28.167 19.5 45.5 19.5c18 0 33.5 -6.33301 46.5 -19s19.5 -28.334 19.5 -47.001c0 -18 -6.5 -33.333 -19.5 -46s-28.5 -19 -46.5 -19zM491 0.00195312l-167 273h-7l-166 -273h-127l224 361l-213 339h126l156 -253h7l157 253h121
l-213 -339l224 -361h-122z" />
    <glyph glyph-name="uni1E8D" unicode="&#x1e8d;" horiz-adv-x="515" 
d="M163 553c-16.667 0 -30.834 6 -42.501 18s-17.5 26.333 -17.5 43s5.83301 30.667 17.5 42s25.834 17 42.501 17s30.834 -5.66699 42.501 -17s17.5 -25.333 17.5 -42s-5.83301 -31 -17.5 -43s-25.834 -18 -42.501 -18zM352 553c-16 0 -29.833 6 -41.5 18
s-17.5 26.333 -17.5 43s5.83301 30.667 17.5 42s25.5 17 41.5 17c16.667 0 30.834 -5.66699 42.501 -17s17.5 -25.333 17.5 -42s-5.83301 -31 -17.5 -43s-25.834 -18 -42.501 -18zM19 0l174 258l-161 242h116l107 -163h7l105 163h115l-159 -242l173 -258h-117l-117 181h-7
l-119 -181h-117z" />
    <glyph glyph-name="uni1E90" unicode="&#x1e90;" horiz-adv-x="622" 
d="M257 756h-89l104 144h88l105 -144h-89l-57 83h-6zM216 95h341v-95h-496v60l345 540v5h-326v95h472v-60l-336 -540v-5z" />
    <glyph glyph-name="uni1E97" unicode="&#x1e97;" horiz-adv-x="373" 
d="M87 689c-16.667 0 -30.834 6 -42.501 18s-17.5 26.333 -17.5 43s5.83301 30.667 17.5 42s25.834 17 42.501 17s30.834 -5.66699 42.501 -17s17.5 -25.333 17.5 -42s-5.83301 -31 -17.5 -43s-25.834 -18 -42.501 -18zM276 689c-16 0 -29.833 6 -41.5 18
s-17.5 26.333 -17.5 43s5.83301 30.667 17.5 42s25.5 17 41.5 17c16.667 0 30.834 -5.66699 42.501 -17s17.5 -25.333 17.5 -42s-5.83301 -31 -17.5 -43s-25.834 -18 -42.501 -18zM263 -10c-91.333 0 -136.999 43.668 -136.999 131.001v297h-108v82h35
c29.333 0 50.166 5.66699 62.499 17s18.5 30.666 18.5 57.999v61h93v-136h127v-82h-127v-283c0 -42 21.667 -63 65 -63c16.667 0 33 2.66699 49 8v-79c-28 -7.33301 -54 -11 -78 -11z" />
    <glyph glyph-name="uni1E98" unicode="&#x1e98;" horiz-adv-x="741" 
d="M370 538c-26.667 0 -49.667 9.66699 -69 29s-29 42 -29 68s9.66699 48.5 29 67.5s42.333 28.5 69 28.5s49.834 -9.5 69.501 -28.5s29.5 -41.5 29.5 -67.5s-9.83301 -48.667 -29.5 -68s-42.834 -29 -69.501 -29zM371 595c10.667 0 19.834 4 27.501 12s11.5 17.333 11.5 28
c0 10 -3.83301 18.833 -11.5 26.5s-16.834 11.5 -27.501 11.5s-19.834 -3.83301 -27.501 -11.5s-11.5 -16.5 -11.5 -26.5c0 -11.333 3.83301 -20.833 11.5 -28.5s16.834 -11.5 27.501 -11.5zM149 0l-130 500h96l91 -383h7l103 348h110l103 -349h7l91 384h95l-131 -500h-115
l-101 353h-8l-103 -353h-115z" />
    <glyph glyph-name="uni1E99" unicode="&#x1e99;" horiz-adv-x="545" 
d="M272 538c-26.667 0 -49.667 9.66699 -69 29s-29 42 -29 68s9.66699 48.5 29 67.5s42.333 28.5 69 28.5s49.834 -9.5 69.501 -28.5s29.5 -41.5 29.5 -67.5s-9.83301 -48.667 -29.5 -68s-42.834 -29 -69.501 -29zM273 595c10.667 0 19.834 4 27.501 12s11.5 17.333 11.5 28
c0 10 -3.83301 18.833 -11.5 26.5s-16.834 11.5 -27.501 11.5s-19.834 -3.83301 -27.501 -11.5s-11.5 -16.5 -11.5 -26.5c0 -11.333 3.83301 -20.833 11.5 -28.5s16.834 -11.5 27.501 -11.5zM136 -210c-20.667 0 -45.667 3.66699 -75 11v77c21.333 -4.66699 39 -7 53 -7
c52.667 0 89 24 109 72l22 57h-33l-193 500h106l148 -395h8l139 395h106l-208 -572c-31.333 -92 -92 -138 -182 -138z" />
    <glyph glyph-name="uni1E9E" unicode="&#x1e9e;" horiz-adv-x="1208" 
d="M545 186c0 -63.333 -22.166 -111.833 -66.499 -145.5s-99.833 -50.5 -166.5 -50.5c-76.667 0 -136.667 19 -180 57s-67 90.667 -71 158h104c4.66699 -40 19.5 -70.667 44.5 -92s59.167 -32 102.5 -32c37.333 0 67.666 8.5 90.999 25.5s35 42.5 35 76.5
c0 16 -3 30.5 -9 43.5s-13.167 23.667 -21.5 32s-19.5 16.166 -33.5 23.499s-26.167 12.833 -36.5 16.5s-23.833 8.16699 -40.5 13.5l-38 11c-23.333 7.33301 -44 15.333 -62 24s-36.333 20.334 -55 35.001s-33.167 33.167 -43.5 55.5s-15.5 47.5 -15.5 75.5
c0 59.333 21.667 107 65 143s98 54 164 54c67.333 0 122 -18.833 164 -56.5s64.333 -85.834 67 -144.501h-104c-4 32.667 -16.667 59.167 -38 79.5s-51 30.5 -89 30.5c-36.667 0 -66.5 -9.33301 -89.5 -28s-34.5 -43 -34.5 -73c0 -14 3 -26.667 9 -38s12.5 -20.5 19.5 -27.5
s17.833 -13.833 32.5 -20.5s26 -11.5 34 -14.5s20.667 -7.16699 38 -12.5l33 -9c22 -7.33301 41.333 -14.666 58 -21.999s36.5 -19 59.5 -35s41 -37 54 -63s19.5 -56 19.5 -90zM1144 186c0 -63.333 -22.166 -111.833 -66.499 -145.5s-99.833 -50.5 -166.5 -50.5
c-76.667 0 -136.667 19 -180 57s-67 90.667 -71 158h104c4.66699 -40 19.5 -70.667 44.5 -92s59.167 -32 102.5 -32c37.333 0 67.666 8.5 90.999 25.5s35 42.5 35 76.5c0 16 -3 30.5 -9 43.5s-13.167 23.667 -21.5 32s-19.5 16.166 -33.5 23.499s-26.167 12.833 -36.5 16.5
s-23.833 8.16699 -40.5 13.5l-38 11c-23.333 7.33301 -44 15.333 -62 24s-36.333 20.334 -55 35.001s-33.167 33.167 -43.5 55.5s-15.5 47.5 -15.5 75.5c0 59.333 21.667 107 65 143s98 54 164 54c67.333 0 122 -18.833 164 -56.5s64.333 -85.834 67 -144.501h-104
c-4 32.667 -16.667 59.167 -38 79.5s-51 30.5 -89 30.5c-36.667 0 -66.5 -9.33301 -89.5 -28s-34.5 -43 -34.5 -73c0 -14 3 -26.667 9 -38s12.5 -20.5 19.5 -27.5s17.833 -13.833 32.5 -20.5s26 -11.5 34 -14.5s20.667 -7.16699 38 -12.5l33 -9
c22 -7.33301 41.333 -14.666 58 -21.999s36.5 -19 59.5 -35s41 -37 54 -63s19.5 -56 19.5 -90z" />
    <glyph glyph-name="uni1EA0" unicode="&#x1ea0;" horiz-adv-x="671" 
d="M646 0h-113l-62 183h-272l-62 -183h-113l247 700h129zM228 272h214l-103 305h-8zM337 -74c18 0 33.167 -6.33301 45.5 -19s18.5 -28 18.5 -46c0 -17.333 -6.33301 -32.333 -19 -45s-27.667 -19 -45 -19c-18 0 -33.5 6.33301 -46.5 19s-19.5 27.667 -19.5 45
c0 18 6.5 33.333 19.5 46s28.5 19 46.5 19z" />
    <glyph glyph-name="uni1EA1" unicode="&#x1ea1;" horiz-adv-x="536" 
d="M500 77h12.999v-77h-46c-50.667 0 -82 20.667 -94 62c-38 -48 -92.667 -72 -164 -72c-50.667 0 -91.667 12.167 -123 36.5s-47 60.166 -47 107.499c0 45.333 15.333 81 46 107s71.334 41.333 122.001 46l153 15v25c0 32 -8.5 56.667 -25.5 74s-41.167 26 -72.5 26
c-58 0 -92 -29.333 -102 -88h-101c4.66699 50.667 25 91.834 61 123.501s83.333 47.5 142 47.5c59.333 0 107.5 -16 144.5 -48s55.5 -78.333 55.5 -139v-205c0 -27.333 12.667 -41 38 -41zM359.999 192v36.999l-119 -12c-30.667 -2.66699 -55 -10.667 -73 -24
s-27 -31.666 -27 -54.999c0 -45.333 27.667 -68 83 -68c36 0 67.667 10 95 30s41 50.667 41 92zM271.999 -74.001c17.333 0 32.333 -6.33301 45 -19s19 -28 19 -46c0 -17.333 -6.33301 -32.333 -19 -45s-27.667 -19 -45 -19c-18 0 -33.5 6.33301 -46.5 19
s-19.5 27.667 -19.5 45c0 18 6.5 33.333 19.5 46s28.5 19 46.5 19z" />
    <glyph glyph-name="uni1EB8" unicode="&#x1eb8;" horiz-adv-x="587" 
d="M184 93h359v-93h-462v700h452v-93h-349v-206h306v-91h-306v-217zM314 -203c-18 0 -33.5 6.33301 -46.5 19s-19.5 27.667 -19.5 45c0 18 6.5 33.333 19.5 46s28.5 19 46.5 19c17.333 0 32.333 -6.33301 45 -19s19 -28 19 -46c0 -17.333 -6.33301 -32.333 -19 -45
s-27.667 -19 -45 -19z" />
    <glyph glyph-name="uni1EB9" unicode="&#x1eb9;" horiz-adv-x="571" 
d="M521 257c0 -4.66699 -0.666992 -15.668 -2 -33.001h-370c2.66699 -45.333 17 -81.833 43 -109.5s60.667 -41.5 104 -41.5c67.333 0 109 25.667 125 77h98c-10.667 -50 -35.667 -89.167 -75 -117.5s-88.666 -42.5 -147.999 -42.5c-72.667 0 -132 23.333 -178 70
s-69 108.334 -69 185.001c0 80 23.167 144.167 69.5 192.5s104.166 72.5 173.499 72.5c65.333 0 119.833 -21.667 163.5 -65s65.5 -106 65.5 -188zM292 426.999c-38.667 0 -70.668 -12.333 -96.001 -37s-40.666 -56 -45.999 -94h272c-0.666992 38.667 -13 70.167 -37 94.5
s-55 36.5 -93 36.5zM292.999 -74.001c18 0 33.167 -6.33301 45.5 -19s18.5 -28 18.5 -46c0 -17.333 -6.33301 -32.333 -19 -45s-27.667 -19 -45 -19c-18 0 -33.5 6.33301 -46.5 19s-19.5 27.667 -19.5 45c0 18 6.5 33.333 19.5 46s28.5 19 46.5 19z" />
    <glyph glyph-name="uni1EBC" unicode="&#x1ebc;" horiz-adv-x="587" 
d="M486 871c-2 -35.333 -12.1689 -65 -30.502 -89s-43.166 -36 -74.499 -36c-22 0 -41.167 5.33301 -57.5 16s-30.666 21.167 -42.999 31.5s-24.5 15.5 -36.5 15.5c-25.333 0 -40.666 -18.333 -45.999 -55h-70c2.66699 36 13.167 66 31.5 90s43.5 36 75.5 36
c18 0 34.167 -3.16699 48.5 -9.5s25.166 -13.5 32.499 -21.5s15.833 -15.167 25.5 -21.5s19.5 -9.5 29.5 -9.5c27.333 0 42.333 17.667 45 53h70zM183.998 93h359v-93h-462v700h452v-93h-349v-206h306v-91h-306v-217z" />
    </font>
</defs>
</svg>
