<?xml version="1.0" standalone="no"?>
<!DOCTYPE svg PUBLIC "-//W3C//DTD SVG 1.1//EN" "http://www.w3.org/Graphics/SVG/1.1/DTD/svg11.dtd" >
<svg>
<metadata>
Created by FontForge 20090914 at Wed Jan 26 14:48:14 2022
 By www-data
&#194;&#169; TIGHTYPE 2019
</metadata>
<defs>
<font id="Moderat-Bold" horiz-adv-x="581" >
  <font-face 
    font-family="Moderat"
    font-weight="700"
    font-stretch="normal"
    units-per-em="1000"
    panose-1="0 0 8 0 0 0 0 0 0 0"
    ascent="800"
    descent="-200"
    x-height="500"
    cap-height="700"
    bbox="-138 -331.003 1157 931.001"
    underline-thickness="50"
    underline-position="-150"
    unicode-range="U+0020-U+2793"
  />
<missing-glyph horiz-adv-x="824" 
d="M772 350c0 -100 -35 -185.001 -105 -255.001s-155 -105 -255 -105s-185 35.333 -255 106s-105 155.334 -105 254.001c0 99.333 35.167 184.166 105.5 254.499s155.166 105.5 254.499 105.5c100.667 0 185.834 -35.167 255.501 -105.5s104.5 -155.166 104.5 -254.499z
M224 532.999v-45h44v-128h46v128h44v45h-134zM466 532.999v-45h45v-128h45v128h45v45h-135zM412 80.999c72.667 0 134.999 25.333 186.999 76s79 111.667 81 183l-46 8c0 -61.333 -21.667 -113.5 -65 -156.5s-95.666 -64.5 -156.999 -64.5s-113.5 21.5 -156.5 64.5
s-64.5 95.167 -64.5 156.5l-46 -8c2 -71.333 29 -132.333 81 -183s114 -76 186 -76z" />
    <glyph glyph-name="arrowleft" unicode="&#x3c;&#x2d;" horiz-adv-x="792" 
d="M761 406v-113h-549l186 -187l-75 -75l-302 313v12l302 313l75 -75l-187 -188h550z" />
    <glyph glyph-name="arrowright" unicode="&#x2d;&#x3e;" horiz-adv-x="792" 
d="M470 669l301 -313v-12l-301 -313l-76 75l186 187h-549v113h550l-187 188z" />
    <glyph glyph-name="f_f" unicode="ff" horiz-adv-x="724" 
d="M573 547l-0.000976562 -47.002h127v-101h-127v-399h-128v399h-196v-399h-128v399h-105v101h105v54c0 50.667 15.167 89.334 45.5 116.001s70.833 40 121.5 40c24 0 48.333 -3.66699 73 -11l-18 -96c-9.33301 3.33301 -19.333 5 -30 5c-42.667 0 -64 -20.333 -64 -61v-47
h196v54c0 50.667 15 89.334 45 116.001s70.667 40 122 40c30.667 0 62.334 -5.66699 95.001 -17l-21 -93c-15.333 5.33301 -32.333 8 -51 8c-41.333 0 -62 -20.333 -62 -61z" />
    <glyph glyph-name="f_f_i" unicode="ffi" horiz-adv-x="960" 
d="M840 564c-20.667 0 -38.832 7.66699 -54.499 23s-23.5 33.333 -23.5 54c0 22 7.66699 40.5 23 55.5s33.666 22.5 54.999 22.5s39.5 -7.5 54.5 -22.5s22.5 -33.5 22.5 -55.5c0 -20.667 -7.66699 -38.667 -23 -54s-33.333 -23 -54 -23zM904.002 500l-0.000976562 -500.002
h-128v399h-197v-399h-128v399h-202v-399h-128v399h-105v101h105v54c0 50.667 15.167 89.334 45.5 116.001s70.833 40 121.5 40c24 0 48.333 -3.66699 73 -11l-18 -96c-9.33301 3.33301 -19.333 5 -30 5c-42.667 0 -64 -20.333 -64 -61v-47h202v54
c0 50.667 15 89.334 45 116.001s70.667 40 122 40c24 0 48.333 -3.66699 73 -11l-18 -96c-9.33301 3.33301 -19.666 5 -30.999 5c-42 0 -63 -20.333 -63 -61v-47h325z" />
    <glyph glyph-name="f_f_j" unicode="ffj" horiz-adv-x="953" 
d="M840 564c-21.333 0 -39.833 7.66699 -55.5 23s-23.5 33.333 -23.5 54c0 22 7.83301 40.5 23.5 55.5s34.167 22.5 55.5 22.5s39.333 -7.5 54 -22.5s22 -33.5 22 -55.5c0 -20.667 -7.5 -38.667 -22.5 -54s-32.833 -23 -53.5 -23zM904 500l0.000976562 -564.003
c0 -16.667 -1.83301 -32.167 -5.5 -46.5s-10.5 -29.666 -20.5 -45.999s-26.333 -29.333 -49 -39s-50.334 -14.5 -83.001 -14.5c-26 0 -55 3.66699 -87 11v95c15.333 -4 31.666 -6 48.999 -6c45.333 0 68 20.333 68 61v448h-203v-399h-128v399h-196v-399h-128v399h-105v101
h105v54c0 50.667 15.167 89.334 45.5 116.001s70.833 40 121.5 40c24 0 48.333 -3.66699 73 -11l-18 -96c-9.33301 3.33301 -19.333 5 -30 5c-42.667 0 -64 -20.333 -64 -61v-47h196v54c0 50.667 15 89.334 45 116.001s70.667 40 122 40c24 0 48.333 -3.66699 73 -11
l-18 -96c-9.33301 3.33301 -19.666 5 -30.999 5c-42 0 -63 -20.333 -63 -61v-47h331z" />
    <glyph glyph-name="f_i" unicode="fi" horiz-adv-x="630" 
d="M511 564c-21.333 0 -39.833 7.66699 -55.5 23s-23.5 33.333 -23.5 54c0 22 7.66699 40.5 23 55.5s34 22.5 56 22.5c20.667 0 38.5 -7.5 53.5 -22.5s22.5 -33.5 22.5 -55.5c0 -20.667 -7.5 -38.667 -22.5 -54s-32.833 -23 -53.5 -23zM574 500v-500.001h-128v399h-197v-399
h-128v399h-105v101h105v54c0 50.667 15.167 89.334 45.5 116.001s70.833 40 121.5 40c24 0 48.333 -3.66699 73 -11l-18 -96c-9.33301 3.33301 -19.333 5 -30 5c-42.667 0 -64 -20.333 -64 -61v-47h325z" />
    <glyph glyph-name="f_j" unicode="fj" horiz-adv-x="630" 
d="M516 564c-21.333 0 -39.833 7.66699 -55.5 23s-23.5 33.333 -23.5 54c0 22 7.83301 40.5 23.5 55.5s34.167 22.5 55.5 22.5s39.5 -7.5 54.5 -22.5s22.5 -33.5 22.5 -55.5c0 -20.667 -7.66699 -38.667 -23 -54s-33.333 -23 -54 -23zM580 500l0.00195312 -564.002
c0 -16.667 -1.83301 -32.167 -5.5 -46.5s-10.5 -29.666 -20.5 -45.999s-26.333 -29.333 -49 -39s-50.334 -14.5 -83.001 -14.5c-26 0 -55 3.66699 -87 11v95c15.333 -4 31.666 -6 48.999 -6c45.333 0 68 20.333 68 61v448h-203v-399h-128v399h-105v101h105v54
c0 50.667 15.167 89.334 45.5 116.001s70.833 40 121.5 40c24 0 48.333 -3.66699 73 -11l-18 -96c-9.33301 3.33301 -19.333 5 -30 5c-42.667 0 -64 -20.333 -64 -61v-47h331z" />
    <glyph glyph-name=".notdef" horiz-adv-x="824" 
d="M772 350c0 -100 -35 -185.001 -105 -255.001s-155 -105 -255 -105s-185 35.333 -255 106s-105 155.334 -105 254.001c0 99.333 35.167 184.166 105.5 254.499s155.166 105.5 254.499 105.5c100.667 0 185.834 -35.167 255.501 -105.5s104.5 -155.166 104.5 -254.499z
M224 532.999v-45h44v-128h46v128h44v45h-134zM466 532.999v-45h45v-128h45v128h45v45h-135zM412 80.999c72.667 0 134.999 25.333 186.999 76s79 111.667 81 183l-46 8c0 -61.333 -21.667 -113.5 -65 -156.5s-95.666 -64.5 -156.999 -64.5s-113.5 21.5 -156.5 64.5
s-64.5 95.167 -64.5 156.5l-46 -8c2 -71.333 29 -132.333 81 -183s114 -76 186 -76z" />
    <glyph glyph-name="space" unicode=" " horiz-adv-x="270" 
 />
    <glyph glyph-name="exclam" unicode="!" horiz-adv-x="267" 
d="M69 700h129l-19 -495h-89zM134 -5c-20.667 0 -38.5 7.5 -53.5 22.5s-22.5 32.833 -22.5 53.5c0 21.333 7.5 39.5 22.5 54.5s32.833 22.5 53.5 22.5c21.333 0 39.333 -7.5 54 -22.5s22 -33.167 22 -54.5c0 -20.667 -7.33301 -38.5 -22 -53.5s-32.667 -22.5 -54 -22.5z" />
    <glyph glyph-name="quotedbl" unicode="&#x22;" horiz-adv-x="386" 
d="M155 562l-22.001 -144.999h-58l-24 146c-6.66699 41.333 -10 66.666 -10 75.999c0 21.333 5.83301 37.666 17.5 48.999s26.5 17 44.5 17c18.667 0 33.834 -5.66699 45.501 -17s17.5 -27.666 17.5 -48.999c0 -13.333 -3.66699 -39 -11 -77zM334.999 562.001l-23 -144.999
h-58l-23 146c-6.66699 33.333 -10 58.666 -10 75.999c0 21.333 5.66699 37.666 17 48.999s26.333 17 45 17s33.667 -5.66699 45 -17s17 -27.666 17 -48.999c0 -8 -3.33301 -33.667 -10 -77z" />
    <glyph glyph-name="numbersign" unicode="#" horiz-adv-x="713" 
d="M682 384h-112l-29 -129h87v-102h-109l-34 -153h-114l34 153h-171l-34 -153h-113l34 153h-90v102h112l29 129h-86v103h108l34 153h113l-34 -153h171l34 153h114l-34 -153h90v-103zM427 255l29 129h-171l-29 -129h171z" />
    <glyph glyph-name="dollar" unicode="$" horiz-adv-x="582" 
d="M528 170c0 -50 -16.6689 -90.001 -50.002 -120.001s-76.666 -48.667 -129.999 -56v-84h-104v83c-59.333 8.66699 -105.666 31 -138.999 67s-51 82.333 -53 139h131c6 -66.667 44 -100 114 -100c27.333 0 50.166 5.83301 68.499 17.5s27.5 28.834 27.5 51.501
c0 22 -8.33301 40.667 -25 56s-42.667 29.333 -78 42l-73 27c-98 36 -147 94 -147 174c0 48.667 16 88.667 48 120s74 51 126 59v84h104v-84c52.667 -8.66699 94.334 -29.5 125.001 -62.5s46.667 -74.167 48 -123.5h-123c-6.66699 54 -41 81 -103 81
c-26 0 -47.5 -6.16699 -64.5 -18.5s-25.5 -28.5 -25.5 -48.5c0 -19.333 7.33301 -35.333 22 -48s38.667 -25 72 -37l68 -25c54 -20 94.333 -45.167 121 -75.5s40 -69.833 40 -118.5z" />
    <glyph glyph-name="percent" unicode="%" horiz-adv-x="795" 
d="M206 343c-42 0 -78 15.167 -108 45.5s-45 66.5 -45 108.5s15 78 45 108s66 45 108 45c41.333 0 77.166 -15 107.499 -45s45.5 -66 45.5 -108s-15.167 -78.167 -45.5 -108.5s-66.166 -45.5 -107.499 -45.5zM679 640l-432 -640h-137l432 640h137zM205 439
c16.667 0 30.5 5.5 41.5 16.5s16.5 24.833 16.5 41.5s-5.5 30.334 -16.5 41.001s-24.833 16 -41.5 16c-16 0 -29.333 -5.33301 -40 -16s-16 -24.334 -16 -41.001s5.33301 -30.5 16 -41.5s24 -16.5 40 -16.5zM589 -10c-41.333 0 -77.166 15 -107.499 45s-45.5 66 -45.5 108
s15.167 78.167 45.5 108.5s66.166 45.5 107.499 45.5s77.333 -15.167 108 -45.5s46 -66.5 46 -108.5s-15.167 -78 -45.5 -108s-66.5 -45 -108.5 -45zM589 86c16.667 0 30.334 5.33301 41.001 16s16 24.334 16 41.001s-5.33301 30.5 -16 41.5s-24.334 16.5 -41.001 16.5
c-16 0 -29.333 -5.5 -40 -16.5s-16 -24.833 -16 -41.5s5.33301 -30.334 16 -41.001s24 -16 40 -16z" />
    <glyph glyph-name="ampersand" unicode="&#x26;" horiz-adv-x="700" 
d="M670 0h-135.997l-78 85c-60 -63.333 -128.667 -95 -206 -95c-56.667 0 -103.834 15.5 -141.501 46.5s-56.5 72.167 -56.5 123.5c0 44 11 80.333 33 109s52.333 55.667 91 81l22 14l-1 1c-37.333 40.667 -61.333 70.667 -72 90c-14.667 26.667 -22 54.667 -22 84
c0 48.667 19.167 89.334 57.5 122.001s86.166 49 143.499 49c58.667 0 106.667 -14.833 144 -44.5s56 -68.834 56 -117.501c0 -36.667 -9.83301 -68.5 -29.5 -95.5s-48.834 -54.167 -87.501 -81.5l-33 -23l96 -105l81 101h129l-139 -180zM284.003 425l1 -2.00098l28 19
c25.333 16.667 44.333 32.334 57 47.001s19 31.667 19 51c0 22 -8 39.5 -24 52.5s-36 19.5 -60 19.5c-24.667 0 -45 -7 -61 -21s-24 -32 -24 -54c0 -19.333 5 -36.833 15 -52.5s26.333 -35.5 49 -59.5zM259.003 93.999c44 0 85.667 22.668 125 68.001l-115 125l-21 -14
c-24 -17.333 -42.167 -33.833 -54.5 -49.5s-18.5 -33.834 -18.5 -54.501c0 -22 8 -40 24 -54s36 -21 60 -21z" />
    <glyph glyph-name="quotesingle" unicode="'" horiz-adv-x="207" 
d="M155 562l-22.001 -144.999h-58l-24 146c-6.66699 41.333 -10 66.666 -10 75.999c0 21.333 5.83301 37.666 17.5 48.999s26.5 17 44.5 17c18.667 0 33.834 -5.66699 45.501 -17s17.5 -27.666 17.5 -48.999c0 -13.333 -3.66699 -39 -11 -77z" />
    <glyph glyph-name="parenleft" unicode="(" horiz-adv-x="316" 
d="M295 -122l-77 -55c-49.333 58.667 -89.333 129.5 -120 212.5s-46 174.5 -46 274.5s15.5 191.667 46.5 275s70.833 154.333 119.5 213l77 -55c-89.333 -124 -134 -268.333 -134 -433c0 -162.667 44.667 -306.667 134 -432z" />
    <glyph glyph-name="parenright" unicode=")" horiz-adv-x="316" 
d="M21 -122c89.333 125.333 134 269.333 134 432c0 164.667 -44.667 309 -134 433l77 55c48.667 -58.667 88.5 -129.667 119.5 -213s46.5 -175 46.5 -275s-15.333 -191.5 -46 -274.5s-70.667 -153.833 -120 -212.5z" />
    <glyph glyph-name="asterisk" unicode="*" horiz-adv-x="415" 
d="M374 582l-100 -52l100 -51l-38 -67l-95 61l5 -112h-77l6 112l-95 -61l-39 67l101 51l-101 52l39 67l95 -62l-6 113h77l-5 -113l95 62z" />
    <glyph glyph-name="plus" unicode="+" 
d="M524 332v-104h-177v-168h-112v168h-179v104h179v168h112v-168h177z" />
    <glyph glyph-name="comma" unicode="," horiz-adv-x="262" 
d="M130 147c25.333 0 45.168 -9.50098 59.501 -28.501s21.5 -43.833 21.5 -74.5c0 -44.667 -11.833 -83.5 -35.5 -116.5s-51.834 -59.5 -84.501 -79.5l-33 39c44 36.667 66.333 72.667 67 108c-17.333 -2 -33.5 3.83301 -48.5 17.5s-22.5 32.834 -22.5 57.501
c0 23.333 7.16699 42 21.5 56s32.5 21 54.5 21z" />
    <glyph glyph-name="hyphen" unicode="-" horiz-adv-x="442" 
d="M31 364h380v-106h-380v106z" />
    <glyph glyph-name="period" unicode="." horiz-adv-x="256" 
d="M128 -5c-20.667 0 -38.5 7.5 -53.5 22.5s-22.5 32.833 -22.5 53.5c0 21.333 7.5 39.5 22.5 54.5s32.833 22.5 53.5 22.5c21.333 0 39.333 -7.5 54 -22.5s22 -33.167 22 -54.5c0 -20.667 -7.33301 -38.5 -22 -53.5s-32.667 -22.5 -54 -22.5z" />
    <glyph glyph-name="slash" unicode="/" horiz-adv-x="511" 
d="M490 750l-347 -800h-122l348 800h121z" />
    <glyph glyph-name="zero" unicode="0" horiz-adv-x="612" 
d="M308 -10c-78.667 0 -141 28.002 -187 84.002s-69 138.333 -69 247c0 107.333 23 189.166 69 245.499s108 84.5 186 84.5s139.5 -28.167 184.5 -84.5s67.5 -138.5 67.5 -246.5c0 -108.667 -22.333 -190.834 -67 -246.501s-106 -83.5 -184 -83.5zM308 99.002
c77.333 0 116 73.333 116 220c0 76.667 -10.5 133 -31.5 169s-49.167 54 -84.5 54c-36 0 -65 -18 -87 -54s-33 -92 -33 -168s11 -131.833 33 -167.5s51 -53.5 87 -53.5z" />
    <glyph glyph-name="one" unicode="1" horiz-adv-x="393" 
d="M192 0v418h-140v105h65c59.333 0 89 29 89 87v30h118v-640h-132z" />
    <glyph glyph-name="two" unicode="2" horiz-adv-x="558" 
d="M284 211c-46 -31.333 -72.3311 -65.665 -78.998 -102.998h298v-108h-451v43c0 104 45 185.667 135 245l103 68c17.333 12 30.5 21.667 39.5 29s18.333 18.166 28 32.499s14.5 29.5 14.5 45.5c0 23.333 -7.83301 42.333 -23.5 57s-35.834 22 -60.501 22
c-30.667 0 -54.834 -10 -72.501 -30s-27.167 -43.333 -28.5 -70h-134c2 54.667 24.167 103.167 66.5 145.5s100.833 63.5 175.5 63.5c64 0 115 -16.5 153 -49.5s57 -77.833 57 -134.5c0 -25.333 -3.66699 -48.5 -11 -69.5s-17.833 -39 -31.5 -54s-25 -26.333 -34 -34
s-20.167 -15.834 -33.5 -24.501z" />
    <glyph glyph-name="three" unicode="3" horiz-adv-x="586" 
d="M426 331c71.333 -26.667 106.998 -76.667 106.998 -150c0 -54.667 -22.5 -100.167 -67.5 -136.5s-103.5 -54.5 -175.5 -54.5c-73.333 0 -130.5 18.333 -171.5 55s-63.167 86.334 -66.5 149.001h129c11.333 -63.333 47.333 -95 108 -95c32.667 0 59 8.5 79 25.5
s30 38.167 30 63.5c0 28.667 -10 51 -30 67s-47.333 24 -82 24h-58v97h55c30.667 0 55 7.5 73 22.5s27 36.167 27 63.5c0 26 -8.66699 46.833 -26 62.5s-40 23.5 -68 23.5c-26 0 -48.167 -7.16699 -66.5 -21.5s-30.166 -34.833 -35.499 -61.5h-126
c2 55.333 25.5 100.166 70.5 134.499s99.167 51.5 162.5 51.5c60.667 0 112.334 -16.167 155.001 -48.5s64 -76.166 64 -131.499c0 -60.667 -29 -105.334 -87 -134.001v-6z" />
    <glyph glyph-name="four" unicode="4" horiz-adv-x="603" 
d="M571 238v-98h-111v-140h-123v140h-306v64l298 436h131v-402h111zM180 238h157v231h-9z" />
    <glyph glyph-name="five" unicode="5" horiz-adv-x="574" 
d="M316 417c61.333 0 110.998 -19.832 148.998 -59.499s57 -89.834 57 -150.501c0 -66 -22.667 -118.667 -68 -158s-103 -59 -173 -59c-66.667 0 -120.667 18 -162 54s-63.666 85 -66.999 147h127c2.66699 -30 13.334 -53.667 32.001 -71s42.667 -26 72 -26
c32.667 0 58.834 10 78.501 30s29.5 46.667 29.5 80c0 34 -9.5 61.833 -28.5 83.5s-44.5 32.5 -76.5 32.5c-46.667 0 -80.334 -18.333 -101.001 -55l-118 26l34 349h391v-107h-278l-17 -153c30 24.667 69.667 37 119 37z" />
    <glyph glyph-name="six" unicode="6" horiz-adv-x="549" 
d="M308 410c57.333 0 104.833 -19.167 142.5 -57.5s56.5 -87.833 56.5 -148.5c0 -64.667 -21.667 -116.5 -65 -155.5s-99 -58.5 -167 -58.5c-70 0 -126.5 20.5 -169.5 61.5s-64.5 95.167 -64.5 162.5c0 29.333 4.83301 58.833 14.5 88.5s19.5 53.5 29.5 71.5
s23.333 39 40 63l138 203h157l-177 -239c20 6 41.667 9 65 9zM276 94c32 0 57.5 10.667 76.5 32s28.5 48 28.5 80s-9.33301 58.167 -28 78.5s-44 30.5 -76 30.5s-57.5 -10.167 -76.5 -30.5s-28.5 -46.5 -28.5 -78.5s9.5 -58.667 28.5 -80s44.167 -32 75.5 -32z" />
    <glyph glyph-name="seven" unicode="7" horiz-adv-x="540" 
d="M52 640h457.001v-77c-140.667 -161.333 -218.334 -349 -233.001 -563h-134c16 208.667 78.667 384 188 526v6h-278v108z" />
    <glyph glyph-name="eight" unicode="8" horiz-adv-x="579" 
d="M416 337c30 -11.333 56.001 -30.833 78.001 -58.5s33 -62.167 33 -103.5c0 -55.333 -21 -100 -63 -134s-99.667 -51 -173 -51s-131.5 17 -174.5 51s-64.5 78.667 -64.5 134c0 41.333 11.333 76 34 104s48.667 47.333 78 58v6c-58.667 28 -88 72.333 -88 133
c0 52.667 20.167 95 60.5 127s92.166 48 155.499 48c62.667 0 113.667 -15.5 153 -46.5s59 -73.167 59 -126.5c0 -60.667 -29.333 -105.667 -88 -135v-6zM291.001 559c-26 0 -47.499 -7.66699 -64.499 -23s-25.5 -36.333 -25.5 -63c0 -26 8.66699 -46.833 26 -62.5
s38.666 -23.5 63.999 -23.5s46.166 7.66699 62.499 23s24.5 36.333 24.5 63s-8.16699 47.667 -24.5 63s-37.166 23 -62.499 23zM291.002 86c29.333 0 53.667 8.83203 73 26.499s29 41.5 29 71.5c0 30.667 -9.33301 55.334 -28 74.001s-43.667 28 -75 28
c-32 0 -57.333 -9.33301 -76 -28s-28 -42.667 -28 -72c0 -30.667 10 -55 30 -73s45 -27 75 -27z" />
    <glyph glyph-name="nine" unicode="9" horiz-adv-x="549" 
d="M274 650c70 0 126.333 -20.334 169 -61.001s64 -95 64 -163c0 -67.333 -27.667 -141.666 -83 -222.999l-138 -203h-158l177 239c-20 -6 -41.333 -9 -64 -9c-57.333 0 -105 19.167 -143 57.5s-57 87.833 -57 148.5c0 64.667 21.833 116.5 65.5 155.5s99.5 58.5 167.5 58.5
zM272 324.999c32 0 57.5 10.167 76.5 30.5s28.5 46.5 28.5 78.5s-9.5 58.667 -28.5 80s-44.167 32 -75.5 32c-32 0 -57.5 -10.667 -76.5 -32s-28.5 -48 -28.5 -80s9.33301 -58.167 28 -78.5s44 -30.5 76 -30.5z" />
    <glyph glyph-name="colon" unicode=":" horiz-adv-x="256" 
d="M128 352c-20.667 0 -38.5 7.5 -53.5 22.5s-22.5 32.833 -22.5 53.5c0 21.333 7.5 39.5 22.5 54.5s32.833 22.5 53.5 22.5c21.333 0 39.333 -7.5 54 -22.5s22 -33.167 22 -54.5s-7.33301 -39.333 -22 -54s-32.667 -22 -54 -22zM128 -5c-20.667 0 -38.5 7.5 -53.5 22.5
s-22.5 32.833 -22.5 53.5c0 21.333 7.5 39.5 22.5 54.5s32.833 22.5 53.5 22.5c21.333 0 39.333 -7.5 54 -22.5s22 -33.167 22 -54.5c0 -20.667 -7.33301 -38.5 -22 -53.5s-32.667 -22.5 -54 -22.5z" />
    <glyph glyph-name="semicolon" unicode=";" horiz-adv-x="262" 
d="M133 352c-20.667 0 -38.667 7.5 -54 22.5s-23 32.833 -23 53.5c0 21.333 7.5 39.5 22.5 54.5s33.167 22.5 54.5 22.5s39.333 -7.5 54 -22.5s22 -33.167 22 -54.5c0 -20.667 -7.5 -38.5 -22.5 -53.5s-32.833 -22.5 -53.5 -22.5zM130 147
c25.333 0 45.168 -9.50098 59.501 -28.501s21.5 -43.833 21.5 -74.5c0 -44.667 -11.833 -83.5 -35.5 -116.5s-51.834 -59.5 -84.501 -79.5l-33 39c44 36.667 66.333 72.667 67 108c-17.333 -2 -33.5 3.83301 -48.5 17.5s-22.5 32.834 -22.5 57.501
c0 23.333 7.16699 42 21.5 56s32.5 21 54.5 21z" />
    <glyph glyph-name="less" unicode="&#x3c;" 
d="M500 575v-134l-285 -148v-6l285 -149v-133l-418 220v129z" />
    <glyph glyph-name="equal" unicode="=" 
d="M55 448h470v-109h-470v109zM55 221h470v-108h-470v108z" />
    <glyph glyph-name="greater" unicode="&#x3e;" 
d="M81 575l418 -221v-129l-418 -220v133l285 149v6l-285 148v134z" />
    <glyph glyph-name="question" unicode="?" horiz-adv-x="471" 
d="M145 247c0 38 5.99805 71.167 17.998 99.5s35.333 54.833 70 79.5c30.667 22 51.5 40.167 62.5 54.5s16.5 31.166 16.5 50.499c0 21.333 -7 38.5 -21 51.5s-33.333 19.5 -58 19.5c-26 0 -46.167 -7.5 -60.5 -22.5s-23.166 -35.167 -26.499 -60.5h-115
c2 52 19.333 96.833 52 134.5s82.667 56.5 150 56.5c61.333 0 109.333 -15.167 144 -45.5s52 -72.5 52 -126.5c0 -36.667 -7.66699 -66.667 -23 -90s-40.666 -49 -75.999 -77c-26 -19.333 -44.333 -38.666 -55 -57.999s-16 -44 -16 -74v-34h-114v42zM204.998 -5
c-20.667 0 -38.5 7.5 -53.5 22.5s-22.5 32.833 -22.5 53.5c0 21.333 7.5 39.5 22.5 54.5s32.833 22.5 53.5 22.5c21.333 0 39.333 -7.5 54 -22.5s22 -33.167 22 -54.5c0 -20.667 -7.5 -38.5 -22.5 -53.5s-32.833 -22.5 -53.5 -22.5z" />
    <glyph glyph-name="at" unicode="@" horiz-adv-x="992" 
d="M496 710c126.667 0 232.335 -40.5 317.002 -121.5s127 -185.833 127 -314.5c0 -85.333 -16.833 -151.166 -50.5 -197.499s-81.834 -69.5 -144.501 -69.5c-35.333 0 -65.5 6.5 -90.5 19.5s-41.833 31.167 -50.5 54.5c-26.667 -49.333 -74.334 -74 -143.001 -74
c-56 0 -103.833 21.5 -143.5 64.5s-59.5 99.167 -59.5 168.5c0 74 19.333 134.167 58 180.5s86.667 69.5 144 69.5s97.666 -21 120.999 -63h8l9 54h94v-308c0 -22 5.66699 -39 17 -51s26.333 -18 45 -18c27.333 0 47.833 12.167 61.5 36.5s20.5 64.833 20.5 121.5
c0 106 -31.5 190.833 -94.5 254.5s-145.5 95.5 -247.5 95.5c-96 0 -176.333 -34.5 -241 -103.5s-97 -158.5 -97 -268.5c0 -102 33.667 -186.333 101 -253s153 -100 257 -100c72 0 136.667 17.333 194 52l41 -83c-65.333 -44 -146 -66 -242 -66
c-84 0 -160.167 17.667 -228.5 53s-123.166 87.5 -164.499 156.5s-62 148.833 -62 239.5c0 73.333 12.167 140.166 36.5 200.499s57 109.833 98 148.5s88.167 68.667 141.5 90s109.333 32 168 32zM480.001 111c30.667 0 56.5 12.1689 77.5 36.502s31.5 57.166 31.5 98.499
s-10.5 74.166 -31.5 98.499s-46.833 36.5 -77.5 36.5c-31.333 0 -57.333 -12 -78 -36s-31 -57 -31 -99s10.333 -75 31 -99s46.667 -36 78 -36z" />
    <glyph glyph-name="A" unicode="A" horiz-adv-x="700" 
d="M538 0l-57 169h-262l-57 -169h-141l250 700h159l249 -700h-141zM255 278h190l-91 270h-8z" />
    <glyph glyph-name="B" unicode="B" horiz-adv-x="623" 
d="M464 369c31.333 -11.333 58.666 -31.167 81.999 -59.5s35 -66.833 35 -115.5c0 -61.333 -20 -109 -60 -143s-95.333 -51 -166 -51h-286v700h288c66.667 0 117.334 -15.833 152.001 -47.5s52 -74.167 52 -127.5c0 -69.333 -32.333 -119.333 -97 -150v-6zM198 593.999
l-0.000976562 -181h139c29.333 0 52 8.16699 68 24.5s24 38.5 24 66.5s-8.16699 50 -24.5 66s-38.166 24 -65.499 24h-141zM342.999 105.999c33.333 0 58.833 9 76.5 27s26.5 41.667 26.5 71c0 30 -9.16699 54.667 -27.5 74s-43.5 29 -75.5 29h-145v-201h145z" />
    <glyph glyph-name="C" unicode="C" horiz-adv-x="757" 
d="M715 225c-11.333 -73.333 -46.5 -130.836 -105.5 -172.503s-130.167 -62.5 -213.5 -62.5c-105.333 0 -189 33.333 -251 100s-93 152.334 -93 257.001c0 106.667 31.667 193.834 95 261.501s146.333 101.5 249 101.5c81.333 0 150 -21 206 -63s90 -100.667 102 -176h-142
c-11.333 36.667 -31.333 65.334 -60 86.001s-64 31 -106 31c-62 0 -112.333 -23 -151 -69s-58 -103.333 -58 -172c0 -69.333 19.833 -125.833 59.5 -169.5s89.5 -65.5 149.5 -65.5c44.667 0 82.5 10.167 113.5 30.5s52.167 47.833 63.5 82.5h142z" />
    <glyph glyph-name="D" unicode="D" horiz-adv-x="707" 
d="M314 700c106.667 0 190.167 -31.167 250.5 -93.5s90.5 -147.833 90.5 -256.5c0 -108 -30.167 -193.333 -90.5 -256s-143.833 -94 -250.5 -94h-245v700h245zM309 118c70.667 0 123.5 21.499 158.5 64.499s52.5 100.167 52.5 171.5c0 70.667 -17.5 126.334 -52.5 167.001
s-87.833 61 -158.5 61h-108v-464h108z" />
    <glyph glyph-name="E" unicode="E" horiz-adv-x="586" 
d="M198 115h350v-115h-479v700h469v-115h-340v-174h293v-112h-293v-184z" />
    <glyph glyph-name="F" unicode="F" horiz-adv-x="571" 
d="M540 579h-339v-186h294v-115h-294v-278h-132v700h471v-121z" />
    <glyph glyph-name="G" unicode="G" horiz-adv-x="787" 
d="M401 380h317v-380h-105l-13 67h-8c-51.333 -51.333 -121 -77 -209 -77c-100 0 -180.167 32.5 -240.5 97.5s-90.5 149.167 -90.5 252.5c0 107.333 33 195.833 99 265.5s151.333 104.5 256 104.5c86.667 0 156.667 -21 210 -63s85 -95.667 95 -161h-144
c-10.667 32 -30 57 -58 75s-62.333 27 -103 27c-66.667 0 -120 -23.167 -160 -69.5s-60 -105.833 -60 -178.5c0 -68.667 19 -124.5 57 -167.5s90 -64.5 156 -64.5c54.667 0 99.5 12 134.5 36s52.5 58.333 52.5 103v30h-186v103z" />
    <glyph glyph-name="H" unicode="H" horiz-adv-x="696" 
d="M495 700h132v-700h-132v295h-294v-295h-132v700h132v-286h294v286z" />
    <glyph glyph-name="I" unicode="I" horiz-adv-x="270" 
d="M201 700v-700h-132v700h132z" />
    <glyph glyph-name="J" unicode="J" horiz-adv-x="549" 
d="M170 211c1.33301 -29.333 9.49902 -53.166 24.499 -71.499s36.5 -27.5 64.5 -27.5c28.667 0 50.834 9 66.501 27s23.5 44.667 23.5 80v481h131v-485c0 -72.667 -19.833 -128.334 -59.5 -167.001s-93.167 -58 -160.5 -58c-71.333 0 -127 19.833 -167 59.5
s-60.667 93.5 -62 161.5h139z" />
    <glyph glyph-name="K" unicode="K" horiz-adv-x="648" 
d="M477 0l-225 300h-51v-300h-132v700h132v-281h51l198 281h148l-237 -332v-7l266 -361h-150z" />
    <glyph glyph-name="L" unicode="L" horiz-adv-x="579" 
d="M198 118h349v-118h-478v700h129v-582z" />
    <glyph glyph-name="M" unicode="M" horiz-adv-x="894" 
d="M825 700v-700h-129v465h-8l-174 -385h-133l-175 385h-8v-465h-129v700h162l213 -480h8l212 480h161z" />
    <glyph glyph-name="N" unicode="N" horiz-adv-x="725" 
d="M527 700h129v-700h-135l-315 468h-8v-468h-129v700h135l315 -471h8v471z" />
    <glyph glyph-name="O" unicode="O" horiz-adv-x="820" 
d="M410 -10c-102.667 0 -188 34.1689 -256 102.502s-102 154.166 -102 257.499c0 102.667 33.833 188.334 101.5 257.001s153.167 103 256.5 103c102.667 0 188 -34.333 256 -103s102 -154.334 102 -257.001s-33.833 -188.334 -101.5 -257.001s-153.167 -103 -256.5 -103z
M411 112.002c64 0 117 22.667 159 68s63 102 63 170s-21.167 124.667 -63.5 170s-95.5 68 -159.5 68s-117.167 -22.667 -159.5 -68s-63.5 -102 -63.5 -170s21.167 -124.667 63.5 -170s95.833 -68 160.5 -68z" />
    <glyph glyph-name="P" unicode="P" horiz-adv-x="636" 
d="M350 700c71.333 0 128.167 -20.5 170.5 -61.5s63.5 -94.5 63.5 -160.5c0 -68 -21.5 -122.167 -64.5 -162.5s-100.833 -60.5 -173.5 -60.5h-149v-255h-128v700h281zM333.001 370c37.333 0 66 9.66797 86 29.001s30 45.666 30 78.999c0 32.667 -10 58.667 -30 78
s-47.667 29 -83 29h-139v-215h136z" />
    <glyph glyph-name="Q" unicode="Q" horiz-adv-x="820" 
d="M532 9c19.333 -26 55.001 -38.999 107.001 -38.999c21.333 0 46.666 2.33301 75.999 7v-95c-38 -7.33301 -72.333 -11 -103 -11c-101.333 0 -168 39.667 -200 119h-2c-102.667 0 -188 34.167 -256 102.5s-102 154.166 -102 257.499
c0 102.667 33.833 188.334 101.5 257.001s153.167 103 256.5 103c102.667 0 188 -34.333 256 -103s102 -154.334 102 -257.001c0 -80 -21.5 -150.833 -64.5 -212.5s-100.167 -104.5 -171.5 -128.5zM187.001 350.001c0 -68 21.167 -124.667 63.5 -170s95.833 -68 160.5 -68
c64 0 117 22.667 159 68s63 102 63 170s-21.167 124.667 -63.5 170s-95.5 68 -159.5 68s-117.167 -22.667 -159.5 -68s-63.5 -102 -63.5 -170z" />
    <glyph glyph-name="R" unicode="R" horiz-adv-x="629" 
d="M598 0h-140l-146 273h-114v-273h-129v700h277c69.333 0 124.333 -18.833 165 -56.5s61 -87.5 61 -149.5c0 -46.667 -12 -87.167 -36 -121.5s-57 -59.5 -99 -75.5zM198 588v-203h133c33.333 0 59.833 9.5 79.5 28.5s29.5 43.5 29.5 73.5c0 31.333 -9.66699 56 -29 74
s-46 27 -80 27h-133z" />
    <glyph glyph-name="S" unicode="S" horiz-adv-x="610" 
d="M556 192c0 -65.333 -23.168 -115.336 -69.501 -150.003s-104.166 -52 -173.499 -52c-81.333 0 -144.5 20.167 -189.5 60.5s-68.833 94.833 -71.5 163.5h130c3.33301 -35.333 16.166 -62.833 38.499 -82.5s53.166 -29.5 92.499 -29.5c32 0 58.333 7.16699 79 21.5
s31 35.833 31 64.5c0 16.667 -3.5 31.334 -10.5 44.001s-18 23.5 -33 32.5s-28.5 15.833 -40.5 20.5s-28.333 10 -49 16l-40 12c-117.333 35.333 -176 100.333 -176 195c0 61.333 22.333 110.333 67 147s101.334 55 170.001 55c70.667 0 127.667 -19.167 171 -57.5
s66 -87.833 68 -148.5h-130c-3.33301 28.667 -14 51.5 -32 68.5s-43.333 25.5 -76 25.5c-31.333 0 -56.666 -7.66699 -75.999 -23s-29 -35.666 -29 -60.999c0 -14 3.16699 -26.5 9.5 -37.5s16.166 -20.333 29.499 -28s25.5 -13.5 36.5 -17.5s25.833 -9 44.5 -15l35 -11
c17.333 -5.33301 32.833 -10.666 46.5 -15.999s30.334 -13.833 50.001 -25.5s36 -24.667 49 -39s24.333 -33 34 -56s14.5 -48.5 14.5 -76.5z" />
    <glyph glyph-name="T" unicode="T" horiz-adv-x="591" 
d="M559 700v-118h-198v-582h-132v582h-198v118h528z" />
    <glyph glyph-name="U" unicode="U" horiz-adv-x="713" 
d="M644 700v-429c0 -91.333 -26.333 -161 -79 -209s-121.667 -72 -207 -72c-86 0 -155.667 24 -209 72s-80 117.667 -80 209v429h132v-425c0 -51.333 14.5 -91.333 43.5 -120s66.833 -43 113.5 -43s84 14.167 112 42.5s42 68.5 42 120.5v425h132z" />
    <glyph glyph-name="V" unicode="V" horiz-adv-x="679" 
d="M517 700h141l-239 -700h-159l-239 700h142l174 -523h8z" />
    <glyph glyph-name="W" unicode="W" horiz-adv-x="921" 
d="M773 700h127l-152 -700h-146l-138 481h-8l-136 -481h-146l-153 700h128l103 -506h8l131 456h140l129 -456h8z" />
    <glyph glyph-name="X" unicode="X" horiz-adv-x="667" 
d="M493 0l-152 252h-9l-152 -252h-159l224 361l-213 339h157l143 -232h9l143 232h150l-213 -339l225 -361h-153z" />
    <glyph glyph-name="Y" unicode="Y" horiz-adv-x="678" 
d="M500 700h157l-252 -391v-309h-132v309l-252 391h156l158 -247h8z" />
    <glyph glyph-name="Z" unicode="Z" horiz-adv-x="626" 
d="M246 118h326v-118h-520v77l328 498v7h-311v118h493v-77l-316 -498v-7z" />
    <glyph glyph-name="bracketleft" unicode="[" horiz-adv-x="306" 
d="M69 773h215v-90h-108v-762h108v-90h-215v942z" />
    <glyph glyph-name="backslash" unicode="\" horiz-adv-x="511" 
d="M21 750h121l348 -800h-122z" />
    <glyph glyph-name="bracketright" unicode="]" horiz-adv-x="305" 
d="M236 773v-942h-215v90h108v762h-108v90h215z" />
    <glyph glyph-name="asciicircum" unicode="^" 
d="M401 360l-105 209h-8l-108 -209h-131l171 340h141l171 -340h-131z" />
    <glyph glyph-name="underscore" unicode="_" horiz-adv-x="504" 
d="M31 0h442v-108h-442v108z" />
    <glyph glyph-name="grave" unicode="`" horiz-adv-x="322" 
d="M177 700l76 -145h-97l-87 145h108z" />
    <glyph glyph-name="a" unicode="a" horiz-adv-x="547" 
d="M518 96h11.999v-96h-54c-52.667 0 -86.334 20 -101.001 60c-36.667 -46.667 -91.667 -70 -165 -70c-53.333 0 -96.166 12.5 -128.499 37.5s-48.5 61.5 -48.5 109.5c0 45.333 15.167 80.833 45.5 106.5s70.166 40.834 119.499 45.501l156 16v21
c0 26.667 -7.66699 47 -23 61s-35.666 21 -60.999 21c-51.333 0 -81.333 -25 -90 -75h-128c5.33301 53.333 27.333 96.166 66 128.499s89.334 48.5 152.001 48.5s113.667 -16.167 153 -48.5s59 -80.5 59 -144.5v-183c0 -25.333 12 -38 36 -38zM353.999 193v24l-112 -12
c-54 -6 -81 -27 -81 -63s23.667 -54 71 -54c32 0 60.333 8.5 85 25.5s37 43.5 37 79.5z" />
    <glyph glyph-name="b" unicode="b" horiz-adv-x="605" 
d="M328 510c67.333 0 123.334 -23.333 168.001 -70s67 -109.667 67 -189c0 -78 -22.167 -141 -66.5 -189s-100.5 -72 -168.5 -72c-64.667 0 -114.334 23 -149.001 69h-9l-11 -59h-104v710h128v-257c34 38 82.333 57 145 57zM308.001 101c38 0 68.667 13.8311 92 41.498
s35 63.834 35 108.501c0 44 -11.667 79.667 -35 107s-54 41 -92 41s-68.333 -13.667 -91 -41s-34 -63 -34 -107c0 -45.333 11.333 -81.666 34 -108.999s53 -41 91 -41z" />
    <glyph glyph-name="c" unicode="c" horiz-adv-x="578" 
d="M303 -10c-78 0 -141.168 24 -189.501 72s-72.5 110 -72.5 186c0 77.333 24.833 140.333 74.5 189s111.5 73 185.5 73c62 0 116 -16.667 162 -50s72.667 -81 80 -143h-128c-6 24 -19.167 43.667 -39.5 59s-45.166 23 -74.499 23c-38 0 -69.5 -14.167 -94.5 -42.5
s-37.5 -64.5 -37.5 -108.5s12.167 -79.5 36.5 -106.5s56.833 -40.5 97.5 -40.5c58.667 0 96.334 24 113.001 72h129c-8.66699 -56 -34.834 -100.5 -78.501 -133.5s-98.167 -49.5 -163.5 -49.5z" />
    <glyph glyph-name="d" unicode="d" horiz-adv-x="605" 
d="M422 710h128.001v-710h-104l-11 59h-9c-34.667 -46 -84.334 -69 -149.001 -69c-68 0 -124.167 24 -168.5 72s-66.5 111 -66.5 189c0 79.333 22.333 142.333 67 189s100.667 70 168 70c62.667 0 111 -19 145 -57v257zM297.001 101c38 0 68.333 13.6689 91 41.002
s34 63.666 34 108.999c0 44 -11.333 79.667 -34 107s-53 41 -91 41s-68.667 -13.667 -92 -41s-35 -63 -35 -107c0 -44.667 11.667 -80.834 35 -108.501s54 -41.5 92 -41.5z" />
    <glyph glyph-name="e" unicode="e" horiz-adv-x="575" 
d="M408 158h123c-10 -52 -35.5 -93 -76.5 -123s-93.167 -45 -156.5 -45c-75.333 0 -137 23.5 -185 70.5s-72 108.5 -72 184.5c0 80 24.167 144.167 72.5 192.5s108.166 72.5 179.499 72.5c66.667 0 122.834 -21.667 168.501 -65s68.5 -107.333 68.5 -192
c0 -6 -0.666992 -18.333 -2 -37h-360c2.66699 -36.667 15.5 -66.5 38.5 -89.5s53.5 -34.5 91.5 -34.5c59.333 0 96 22 110 66zM293 408c-33.333 0 -61.168 -10 -83.501 -30s-35.833 -45.333 -40.5 -76h239c-1.33301 31.333 -12.666 56.833 -33.999 76.5
s-48.333 29.5 -81 29.5z" />
    <glyph glyph-name="f" unicode="f" horiz-adv-x="400" 
d="M249 547v-47.001h127v-101h-127v-399h-128v399h-105v101h105v54c0 50.667 15.167 89.334 45.5 116.001s70.833 40 121.5 40c30 0 62 -5.66699 96 -17l-22 -93c-15.333 5.33301 -32.333 8 -51 8c-41.333 0 -62 -20.333 -62 -61z" />
    <glyph glyph-name="g" unicode="g" horiz-adv-x="557" 
d="M540 486c-19.333 -20 -46.335 -38.3389 -81.002 -55.0059c21.333 -27.333 32 -58.666 32 -93.999c0 -52 -19.667 -93 -59 -123s-89.666 -45 -150.999 -45c-30 0 -58 3.66699 -84 11c-16 -8 -24 -19 -24 -33c0 -25.333 22 -38 66 -38h98
c58.667 0 103.667 -13.167 135 -39.5s47 -62.5 47 -108.5c0 -53.333 -21 -95.166 -63 -125.499s-99.333 -45.5 -172 -45.5c-74.667 0 -132.5 15.833 -173.5 47.5s-64.167 71.834 -69.5 120.501l76 67c-38 20.667 -57 51.334 -57 92.001s22.333 73.334 67 98.001
c-39.333 30.667 -59 71.334 -59 122.001c0 50 18.833 91.333 56.5 124s87.834 49 150.501 49c44 0 82.667 -8.33301 116 -25c35.333 18 64 41.667 86 71zM280.998 261.994c26.667 0 48 7.16699 64 21.5s24 32.833 24 55.5c0 23.333 -7.83301 42.333 -23.5 57
s-37.167 22 -64.5 22s-49.333 -7.33301 -66 -22s-25 -33.667 -25 -57c0 -22.667 8.33301 -41.167 25 -55.5s38.667 -21.5 66 -21.5zM396.998 -46.0059c0 19.333 -7.33301 33.333 -22 42s-32.667 13 -54 13h-91l-66 -56c6 -19.333 19.167 -35.333 39.5 -48s47.5 -19 81.5 -19
c32.667 0 59.5 5.83301 80.5 17.5s31.5 28.5 31.5 50.5z" />
    <glyph glyph-name="h" unicode="h" horiz-adv-x="588" 
d="M338 510c60 0 107.5 -18.332 142.5 -54.999s52.5 -87.334 52.5 -152.001v-303h-128v277c0 39.333 -10 69.5 -30 90.5s-45.667 31.5 -77 31.5c-32.667 0 -60 -10.833 -82 -32.5s-33 -53.5 -33 -95.5v-271h-128v710h128v-269h8c35.333 46 84.333 69 147 69z" />
    <glyph glyph-name="i" unicode="i" horiz-adv-x="238" 
d="M119 564c-21.333 0 -39.833 7.66699 -55.5 23s-23.5 33.333 -23.5 54c0 22 7.83301 40.5 23.5 55.5s34.167 22.5 55.5 22.5s39.5 -7.5 54.5 -22.5s22.5 -33.5 22.5 -55.5c0 -20.667 -7.66699 -38.667 -23 -54s-33.333 -23 -54 -23zM55 0v500h128v-500h-128z" />
    <glyph glyph-name="j" unicode="j" horiz-adv-x="238" 
d="M119 564c-21.333 0 -39.833 7.66699 -55.5 23s-23.5 33.333 -23.5 54c0 22 7.83301 40.5 23.5 55.5s34.167 22.5 55.5 22.5s39.5 -7.5 54.5 -22.5s22.5 -33.5 22.5 -55.5c0 -20.667 -7.66699 -38.667 -23 -54s-33.333 -23 -54 -23zM26 -210
c-26.667 0 -55.999 3.66699 -87.999 11v95c15.333 -4 31.666 -6 48.999 -6c45.333 0 68 20.333 68 61v549h128v-564c0 -97.333 -52.333 -146 -157 -146z" />
    <glyph glyph-name="k" unicode="k" horiz-adv-x="541" 
d="M525 500l-204 -199l204 -301h-141l-149 217l-52 -50v-167h-128v710h128v-383h8l180 173h154z" />
    <glyph glyph-name="l" unicode="l" horiz-adv-x="238" 
d="M55 0v710h128v-710h-128z" />
    <glyph glyph-name="m" unicode="m" horiz-adv-x="847" 
d="M55 0l-0.000976562 499.999h117l11 -59h8c33.333 46 79 69 137 69c62.667 0 106.334 -26.333 131.001 -79h8c36.667 52.667 88.667 79 156 79c52.667 0 94 -15.667 124 -47s45 -76.666 45 -135.999v-327h-128v303c0 30.667 -8 54.334 -24 71.001s-36.667 25 -62 25
c-27.333 0 -49.333 -9.33301 -66 -28s-25 -43.667 -25 -75v-296h-128v299c0 32 -7.83301 56.667 -23.5 74s-36.167 26 -61.5 26c-24.667 0 -46 -8.83301 -64 -26.5s-27 -42.834 -27 -75.501v-297h-128z" />
    <glyph glyph-name="n" unicode="n" horiz-adv-x="588" 
d="M55 0v500.001h117l11 -59h8c35.333 46 84.333 69 147 69c60 0 107.5 -18.333 142.5 -55s52.5 -87.334 52.5 -152.001v-303h-128v277c0 39.333 -10 69.5 -30 90.5s-45.667 31.5 -77 31.5c-32.667 0 -60 -10.833 -82 -32.5s-33 -53.5 -33 -95.5v-271h-128z" />
    <glyph glyph-name="o" unicode="o" horiz-adv-x="611" 
d="M305 -10c-75.333 0 -138.167 24.501 -188.5 73.501s-75.5 111.5 -75.5 187.5s25 138.167 75 186.5s113 72.5 189 72.5s139 -24.167 189 -72.5s75 -110.5 75 -186.5c0 -76.667 -25 -139.334 -75 -188.001s-113 -73 -189 -73zM304.999 101.001
c40.667 0 73.667 14.333 99 43s38 64.334 38 107.001c0 42 -12.667 77.167 -38 105.5s-58.333 42.5 -99 42.5s-73.5 -14.167 -98.5 -42.5s-37.5 -63.5 -37.5 -105.5c0 -42.667 12.667 -78.334 38 -107.001s58 -43 98 -43z" />
    <glyph glyph-name="p" unicode="p" horiz-adv-x="605" 
d="M328 510c68 0 124.166 -24 168.499 -72s66.5 -111 66.5 -189c0 -79.333 -22.333 -142.333 -67 -189s-100.667 -70 -168 -70c-62.667 0 -111 19 -145 57v-247h-128v700h104l11 -59h9c34.667 46 84.334 69 149.001 69zM307.999 101c38 0 68.667 13.665 92 40.998
s35 63 35 107c0 44.667 -11.667 80.834 -35 108.501s-54 41.5 -92 41.5s-68.333 -13.667 -91 -41s-34 -63.666 -34 -108.999c0 -44 11.333 -79.667 34 -107s53 -41 91 -41z" />
    <glyph glyph-name="q" unicode="q" horiz-adv-x="605" 
d="M446 500h103.999v-700h-128v247c-34 -38 -82.333 -57 -145 -57c-67.333 0 -123.333 23.333 -168 70s-67 109.667 -67 189c0 78 22.167 141 66.5 189s100.5 72 168.5 72c64.667 0 114.334 -23 149.001 -69h9zM296.999 101c38 0 68.333 13.6689 91 41.002s34 63 34 107
c0 45.333 -11.333 81.666 -34 108.999s-53 41 -91 41s-68.667 -13.833 -92 -41.5s-35 -63.834 -35 -108.501c0 -44 11.667 -79.667 35 -107s54 -41 92 -41z" />
    <glyph glyph-name="r" unicode="r" horiz-adv-x="392" 
d="M55 0l0.00195312 500.001h116l12 -71h8c17.333 28 36.666 48.5 57.999 61.5s51.666 19.5 90.999 19.5h36v-128c-16 2.66699 -34 4 -54 4c-50 0 -85.667 -14.833 -107 -44.5s-32 -65.834 -32 -108.501v-233h-128z" />
    <glyph glyph-name="s" unicode="s" horiz-adv-x="499" 
d="M263 -10c-68.667 0 -122.002 15.168 -160.002 45.501s-58.667 71.833 -62 124.5h123c6.66699 -50 39.334 -75 98.001 -75c21.333 0 38.833 4.16699 52.5 12.5s20.5 21.166 20.5 38.499c0 18 -7.16699 31.833 -21.5 41.5s-36.5 18.5 -66.5 26.5l-47 12
c-20 4.66699 -37.167 9.83398 -51.5 15.501s-29.166 13.667 -44.499 24s-27 24 -35 41s-12 37.167 -12 60.5c0 48 18 85.5 54 112.5s80.333 40.5 133 40.5c64 0 113 -14.333 147 -43s53 -65.334 57 -110.001h-123c-5.33301 38.667 -32 58 -80 58c-20 0 -36 -4.5 -48 -13.5
s-18 -21.5 -18 -37.5s6.16699 -27.5 18.5 -34.5s33.5 -14.5 63.5 -22.5l47 -12c48 -12 84.833 -30 110.5 -54s38.5 -58 38.5 -102c0 -49.333 -18.167 -86.5 -54.5 -111.5s-82.833 -37.5 -139.5 -37.5z" />
    <glyph glyph-name="t" unicode="t" horiz-adv-x="398" 
d="M279 -10c-104 0 -156 48.667 -156 146v263h-107v101h34c30.667 0 52.5 5.83301 65.5 17.5s19.5 31.167 19.5 58.5v60h116v-136h131v-101h-131v-246c0 -11.333 1.16699 -21 3.5 -29s8.83301 -15.5 19.5 -22.5s25.334 -10.5 44.001 -10.5c15.333 0 31.666 2.33301 48.999 7
v-97c-32 -7.33301 -61.333 -11 -88 -11z" />
    <glyph glyph-name="u" unicode="u" horiz-adv-x="588" 
d="M533 500l-0.000976562 -500.001h-117l-11 59h-8c-35.333 -46 -84.333 -69 -147 -69c-60 0 -107.5 18.333 -142.5 55s-52.5 87.334 -52.5 152.001v303h128v-277c0 -39.333 10 -69.5 30 -90.5s46 -31.5 78 -31.5c32.667 0 59.834 10.833 81.501 32.5s32.5 53.5 32.5 95.5
v271h128z" />
    <glyph glyph-name="v" unicode="v" horiz-adv-x="569" 
d="M208 0l-191 500h132l133 -367h8l131 367h131l-191 -500h-153z" />
    <glyph glyph-name="w" unicode="w" horiz-adv-x="775" 
d="M150 0l-133 500h118l85 -354h8l94 322h133l93 -323h8l84 355h119l-135 -500h-140l-92 326h-8l-94 -326h-140z" />
    <glyph glyph-name="x" unicode="x" horiz-adv-x="542" 
d="M17 0l173 257l-164 243h145l96 -147h9l95 147h145l-163 -243l173 -257h-147l-103 162h-8l-106 -162h-145z" />
    <glyph glyph-name="y" unicode="y" horiz-adv-x="569" 
d="M150 -210c-26 0 -52.999 3.66699 -80.999 11v95c19.333 -4 36.666 -6 51.999 -6c55.333 0 92 22.333 110 67l17 43h-40l-191 500h132l136 -369h8l127 369h132l-202 -562c-33.333 -98.667 -100 -148 -200 -148z" />
    <glyph glyph-name="z" unicode="z" horiz-adv-x="501" 
d="M41 0v64l234 331v6h-222v99h397v-64l-231 -331v-6h239v-99h-417z" />
    <glyph glyph-name="braceleft" unicode="{" horiz-adv-x="298" 
d="M200 417c0 -50.667 -23.333 -88 -70 -112v-6c46.667 -24 70 -61.333 70 -112v-212c0 -36 16.333 -54 49 -54h28v-90h-50c-42.667 0 -75.5 10.667 -98.5 32s-34.5 52.333 -34.5 93v220c0 28 -5.5 48.5 -16.5 61.5s-29.833 20.833 -56.5 23.5v81
c26.667 2.66699 45.5 10.667 56.5 24s16.5 34 16.5 62v220c0 40.667 11.5 71.667 34.5 93s55.833 32 98.5 32h50v-90h-28c-32.667 0 -49 -18 -49 -54v-212z" />
    <glyph glyph-name="bar" unicode="|" horiz-adv-x="254" 
d="M185 770v-910h-116v910h116z" />
    <glyph glyph-name="braceright" unicode="}" horiz-adv-x="298" 
d="M98 417v212c0 36 -16.333 54 -49 54h-28v90h50c42.667 0 75.5 -10.667 98.5 -32s34.5 -52.333 34.5 -93v-220c0 -28 5.5 -48.667 16.5 -62s29.833 -21.333 56.5 -24v-81c-26.667 -2.66699 -45.5 -10.5 -56.5 -23.5s-16.5 -33.5 -16.5 -61.5v-220
c0 -40.667 -11.5 -71.667 -34.5 -93s-55.833 -32 -98.5 -32h-50v90h28c32.667 0 49 18 49 54v212c0 50.667 23.333 88 70 112v6c-46.667 24 -70 61.333 -70 112z" />
    <glyph glyph-name="asciitilde" unicode="~" 
d="M561 369c-4 -54.667 -19.501 -100.167 -46.501 -136.5s-64.833 -54.5 -113.5 -54.5c-28.667 0 -54 5.16699 -76 15.5s-38.667 21.5 -50 33.5s-24.5 23.167 -39.5 33.5s-30.167 15.5 -45.5 15.5c-39.333 0 -61.666 -28 -66.999 -84h-102
c4.66699 55.333 20.334 101 47.001 137s64.667 54 114 54c28 0 53.167 -5.16699 75.5 -15.5s39 -21.5 50 -33.5s24 -23.167 39 -33.5s30.167 -15.5 45.5 -15.5c39.333 0 61.666 28 66.999 84h102z" />
    <glyph glyph-name="uni00A0" unicode="&#xa0;" horiz-adv-x="250" 
 />
    <glyph glyph-name="exclamdown" unicode="&#xa1;" horiz-adv-x="267" 
d="M135 505c20.667 0 38.5 -7.5 53.5 -22.5s22.5 -32.833 22.5 -53.5c0 -21.333 -7.5 -39.5 -22.5 -54.5s-32.833 -22.5 -53.5 -22.5c-21.333 0 -39.333 7.5 -54 22.5s-22 33.167 -22 54.5c0 20.667 7.5 38.5 22.5 53.5s32.833 22.5 53.5 22.5zM200 -200h-129l19 495h89z
" />
    <glyph glyph-name="cent" unicode="&#xa2;" horiz-adv-x="543" 
d="M515 250c-6.66699 -46.667 -26.667 -85 -60 -115s-75.333 -48.667 -126 -56v-79h-105v82c-57.333 12 -102.833 39.5 -136.5 82.5s-50.5 94.833 -50.5 155.5c0 62 17.333 115 52 159s79.667 72 135 84v78h105v-74c49.333 -8 91 -27.333 125 -58s54 -71.667 60 -123h-122
c-6 22.667 -18.5 41.334 -37.5 56.001s-42.5 22 -70.5 22c-36.667 0 -66.667 -13.333 -90 -40s-35 -61.334 -35 -104.001c0 -42 11.5 -75.667 34.5 -101s53.5 -38 91.5 -38c56 0 92.333 23 109 69h121z" />
    <glyph glyph-name="sterling" unicode="&#xa3;" horiz-adv-x="617" 
d="M242 107v-6.99707h316v-100h-506v79c92.667 29.333 139 78 139 146c0 11.333 -1.66699 23 -5 35h-134v91h79c-28 39.333 -42 77.333 -42 114c0 58 23.667 103.333 71 136s105.333 49 174 49c52 0 98 -10 138 -30s70 -46.667 90 -80l-86 -72c-34.667 48 -80 72 -136 72
c-34 0 -61.333 -8.33301 -82 -25s-31 -38 -31 -64c0 -6.66699 0.833008 -13.334 2.5 -20.001s3.5 -12.334 5.5 -17.001s5.5 -10.5 10.5 -17.5s8.66699 -11.833 11 -14.5l14 -16c7 -8 11.5 -13 13.5 -15h198v-91h-154c0.666992 -4.66699 1 -12 1 -22
c0 -48.667 -29 -92.334 -87 -131.001z" />
    <glyph glyph-name="currency" unicode="&#xa4;" horiz-adv-x="617" 
d="M529 250c0 -40 -10.666 -77.666 -31.999 -112.999l78 -77l-77 -76l-78 78c-34.667 -19.333 -71.667 -29 -111 -29c-40.667 0 -78.334 10 -113.001 30l-78 -79l-76 76l77 78c-20.667 34 -31 71.333 -31 112c0 41.333 10.333 78.666 31 111.999l-77 78l76 76l78 -79
c34.667 20 72.334 30 113.001 30c39.333 0 76.666 -9.66699 111.999 -29l77 78l77 -76l-78 -77c21.333 -35.333 32 -73 32 -113zM309.001 148.001c29.333 0 54 10 74 30s30 44 30 72s-10 52 -30 72s-44.667 30 -74 30s-54.166 -10 -74.499 -30s-30.5 -44 -30.5 -72
s10.167 -52 30.5 -72s45.166 -30 74.499 -30z" />
    <glyph glyph-name="yen" unicode="&#xa5;" horiz-adv-x="621" 
d="M600 640l-154 -225h113v-97h-179v-90h179v-96h-179v-132h-139v132h-178v96h178v90h-178v97h112l-154 225h150l135 -201h8l135 201h151z" />
    <glyph glyph-name="brokenbar" unicode="&#xa6;" horiz-adv-x="254" 
d="M69 770h116v-355h-116v355zM69 -140v355h116v-355h-116z" />
    <glyph glyph-name="section" unicode="&#xa7;" horiz-adv-x="609" 
d="M447 103c65.333 -26.667 98.0039 -71.001 98.0039 -133.001c0 -55.333 -22.167 -99.166 -66.5 -131.499s-102.5 -48.5 -174.5 -48.5c-76.667 0 -137.334 19.167 -182.001 57.5s-67 87.833 -67 148.5h120c2 -30.667 15 -55 39 -73s55 -27 93 -27c34 0 61.5 6.5 82.5 19.5
s31.5 31.167 31.5 54.5c0 18.667 -7.83301 34 -23.5 46s-32.334 20.333 -50.001 25s-40.834 9 -69.501 13c-150.667 22.667 -226 86 -226 190c0 36.667 10.833 67.334 32.5 92.001s47.5 43 77.5 55v6c-65.333 26.667 -98 71 -98 133c0 55.333 22.333 99.166 67 131.499
s103 48.5 175 48.5c76 0 136.5 -19.167 181.5 -57.5s67.167 -87.833 66.5 -148.5h-120c-2 30.667 -14.833 55 -38.5 73s-54.834 27 -93.501 27c-34 0 -61.333 -6.66699 -82 -20s-31 -31.666 -31 -54.999c0 -14 3.83301 -26 11.5 -36s19.167 -18 34.5 -24s30 -10.5 44 -13.5
s31.667 -6.16699 53 -9.5c150 -22.667 225 -86 225 -190c0 -36.667 -10.833 -67.334 -32.5 -92.001s-47.5 -43 -77.5 -55v-6zM313.004 154.999c35.333 0 64 8.5 86 25.5s33 40.167 33 69.5c0 28.667 -13.333 51.667 -40 69s-58.334 26 -95.001 26
c-35.333 0 -64 -8.5 -86 -25.5s-33 -40.167 -33 -69.5c0 -28.667 13.333 -51.667 40 -69s58.334 -26 95.001 -26z" />
    <glyph glyph-name="dieresis" unicode="&#xa8;" horiz-adv-x="476" 
d="M139 545c-19.333 0 -35.8311 6.83301 -49.498 20.5s-20.5 30.167 -20.5 49.5s6.83301 35.5 20.5 48.5s30.167 19.5 49.5 19.5s35.666 -6.5 48.999 -19.5s20 -29.167 20 -48.5s-6.83301 -35.833 -20.5 -49.5s-29.834 -20.5 -48.501 -20.5zM338.002 545
c-18.667 0 -34.834 7 -48.501 21s-20.5 30.333 -20.5 49c0 19.333 6.83301 35.5 20.5 48.5s29.834 19.5 48.501 19.5c19.333 0 35.666 -6.5 48.999 -19.5s20 -29.167 20 -48.5s-6.66699 -35.833 -20 -49.5s-29.666 -20.5 -48.999 -20.5z" />
    <glyph glyph-name="copyright" unicode="&#xa9;" horiz-adv-x="834" 
d="M417 -10c-101.333 0 -187.5 35 -258.5 105s-106.5 155 -106.5 255s35.5 185 106.5 255s157.167 105 258.5 105c100.667 0 186.667 -35 258 -105s107 -155 107 -255s-35.667 -185 -107 -255s-157.333 -105 -258 -105zM417 67c78.667 0 145.834 27.167 201.501 81.5
s83.5 121.5 83.5 201.5s-27.833 147.167 -83.5 201.5s-122.834 81.5 -201.501 81.5s-145.834 -27.167 -201.501 -81.5s-83.5 -121.5 -83.5 -201.5s27.833 -147.167 83.5 -201.5s122.834 -81.5 201.501 -81.5zM573 293c-3.33301 -40.667 -19.499 -71.501 -48.499 -92.501
s-64.167 -31.5 -105.5 -31.5c-52.667 0 -93.834 16.167 -123.501 48.5s-44.5 76.166 -44.5 131.499c0 54.667 15.5 98.334 46.5 131.001s71.167 49 120.5 49c40.667 0 74.667 -10.167 102 -30.5s43.333 -51.833 48 -94.5h-93c-8 29.333 -27.333 44 -58 44
c-21.333 0 -38.333 -9 -51 -27s-19 -43 -19 -75c0 -31.333 6.5 -55.166 19.5 -71.499s30.833 -24.5 53.5 -24.5c16 0 29.5 4 40.5 12s17.833 18.333 20.5 31h92z" />
    <glyph glyph-name="guillemotleft" unicode="&#xab;" horiz-adv-x="578" 
d="M155 500h141l-136 -202l136 -202h-141l-134 202zM396 500h140l-135 -202l135 -202h-140l-134 202z" />
    <glyph glyph-name="logicalnot" unicode="&#xac;" 
d="M514 136h-108v189h-351v99h459v-288z" />
    <glyph glyph-name="uni00AD" unicode="&#xad;" horiz-adv-x="442" 
d="M31 364h380v-106h-380v106z" />
    <glyph glyph-name="registered" unicode="&#xae;" horiz-adv-x="834" 
d="M417 710c100.667 0 186.667 -35 258 -105s107 -155 107 -255s-35.667 -185 -107 -255s-157.333 -105 -258 -105c-101.333 0 -187.5 35 -258.5 105s-106.5 155 -106.5 255s35.5 185 106.5 255s157.167 105 258.5 105zM417 67c78.667 0 145.834 27.167 201.501 81.5
s83.5 121.5 83.5 201.5s-27.833 147.167 -83.5 201.5s-122.834 81.5 -201.501 81.5s-145.834 -27.167 -201.501 -81.5s-83.5 -121.5 -83.5 -201.5s27.833 -147.167 83.5 -201.5s122.834 -81.5 201.501 -81.5zM549 415c0 -44 -18.667 -75.667 -56 -95l75 -145h-91l-64 125
h-40v-125h-84v350h148c34.667 0 62 -10 82 -30s30 -46.667 30 -80zM373 452v-80h50c13.333 0 23.5 3.83301 30.5 11.5s10.5 17.5 10.5 29.5c0 26 -13.667 39 -41 39h-50z" />
    <glyph glyph-name="macron" unicode="&#xaf;" horiz-adv-x="469" 
d="M69 656h331v-87h-331v87z" />
    <glyph glyph-name="degree" unicode="&#xb0;" horiz-adv-x="418" 
d="M209 378c-46 0 -85.5 16 -118.5 48s-49.5 71.333 -49.5 118c0 46 16.5 85.167 49.5 117.5s72.5 48.5 118.5 48.5c45.333 0 84.5 -16.167 117.5 -48.5s49.5 -71.5 49.5 -117.5c0 -46.667 -16.5 -86 -49.5 -118s-72.167 -48 -117.5 -48zM209 471
c21.333 0 38.666 6.83496 51.999 20.502s20 31.167 20 52.5s-6.66699 38.666 -20 51.999s-30.666 20 -51.999 20s-38.833 -6.83301 -52.5 -20.5s-20.5 -30.834 -20.5 -51.501c0 -21.333 7 -38.833 21 -52.5s31.333 -20.5 52 -20.5z" />
    <glyph glyph-name="plusminus" unicode="&#xb1;" 
d="M347 411h174v-99h-174v-148h-113v148h-174v99h174v147h113v-147zM60 0v104h461v-104h-461z" />
    <glyph glyph-name="uni00B2" unicode="&#xb2;" horiz-adv-x="344" 
d="M177 468c-26.667 -16 -42.333 -35 -47 -57h184v-70h-284v27c0 64.667 28 114.334 84 149.001l65 39c10 6 17.667 11.167 23 15.5s10.833 10.666 16.5 18.999s8.5 16.833 8.5 25.5c0 13.333 -4.66699 24.166 -14 32.499s-21.333 12.5 -36 12.5
c-17.333 0 -31.166 -5.66699 -41.499 -17s-15.833 -24.666 -16.5 -39.999h-88c0.666992 32.667 14.167 62 40.5 88s63.166 39 110.499 39c40 0 72.167 -10 96.5 -30s36.5 -47.333 36.5 -82c0 -20.667 -4.83301 -39.167 -14.5 -55.5s-18.167 -27.333 -25.5 -33
s-17.333 -12.167 -30 -19.5z" />
    <glyph glyph-name="uni00B3" unicode="&#xb3;" horiz-adv-x="364" 
d="M270 539c43.333 -16 65.002 -45.334 65.002 -88.001c0 -33.333 -14.5 -61 -43.5 -83s-66.167 -33 -111.5 -33c-46 0 -81.833 11.167 -107.5 33.5s-39.834 52.5 -42.501 90.5h84c7.33301 -36 29.333 -54 66 -54c20 0 36.167 4.83301 48.5 14.5s18.5 21.5 18.5 35.5
c0 16 -6 28.5 -18 37.5s-28.333 13.5 -49 13.5h-39v62h37c18 0 32.5 4.16699 43.5 12.5s16.5 20.166 16.5 35.499c0 14 -5.33301 25.333 -16 34s-24.667 13 -42 13c-15.333 0 -28.833 -4 -40.5 -12s-18.834 -19.333 -21.501 -34h-83c1.33301 33.333 16.5 60.5 45.5 81.5
s63.167 31.5 102.5 31.5c38.667 0 71.667 -9.66699 99 -29s41 -45.666 41 -78.999c0 -35.333 -17.667 -61.666 -53 -78.999v-4z" />
    <glyph glyph-name="acute" unicode="&#xb4;" horiz-adv-x="322" 
d="M145 700h108l-86 -145h-98z" />
    <glyph glyph-name="uni00B5" unicode="&#xb5;" horiz-adv-x="588" 
d="M405 500h127.999v-500h-117l-11 59h-8c-35.333 -46 -84.333 -69 -147 -69c-26.667 0 -50.667 5 -72 15v-205h-123v700h128v-277c0 -39.333 10 -69.5 30 -90.5s46 -31.5 78 -31.5c32.667 0 59.834 10.833 81.501 32.5s32.5 53.5 32.5 95.5v271z" />
    <glyph glyph-name="paragraph" unicode="&#xb6;" horiz-adv-x="701" 
d="M41 512c0 55.333 19.668 100.5 59.001 135.5s88.666 52.5 147.999 52.5h422v-108h-86v-592h-116v592h-102v-592h-118v323c-58 0 -107 17.5 -147 52.5s-60 80.5 -60 136.5z" />
    <glyph glyph-name="periodcentered" unicode="&#xb7;" horiz-adv-x="215" 
d="M108 235c-21.333 0 -39.5 7.5 -54.5 22.5s-22.5 32.833 -22.5 53.5s7.5 38.5 22.5 53.5s33.167 22.5 54.5 22.5s39.333 -7.5 54 -22.5s22 -32.833 22 -53.5s-7.33301 -38.5 -22 -53.5s-32.667 -22.5 -54 -22.5z" />
    <glyph glyph-name="cedilla" unicode="&#xb8;" horiz-adv-x="326" 
d="M91 -135c19.333 -12 38.333 -17.998 57 -17.998c12.667 0 22.667 2.83301 30 8.5s11 13.167 11 22.5c0 20.667 -13.667 31 -41 31c-8.66699 0 -19 -2 -31 -6l-42 33l45 74h66v-10l-28 -43c26 1.33301 49 -5.33398 69 -20.001s30 -35.334 30 -62.001
c0 -26 -9.33301 -46.667 -28 -62s-45 -23 -79 -23c-32 0 -59 8 -81 24z" />
    <glyph glyph-name="uni00B9" unicode="&#xb9;" horiz-adv-x="248" 
d="M119 340v245h-89v68h40c38.667 0 58 18 58 54v18h75v-385h-84z" />
    <glyph glyph-name="guillemotright" unicode="&#xbb;" horiz-adv-x="578" 
d="M182 96h-141l136 202l-136 202h141l134 -202zM423 96h-141l136 202l-136 202h141l134 -202z" />
    <glyph glyph-name="onequarter" unicode="&#xbc;" horiz-adv-x="852" 
d="M158 315v245h-89v68h41c38 0 57 18 57 54v18h76v-385h-85zM718 700l-503 -700h-99l502 700h100zM783 146v-63h-71v-83h-80v83h-190v41l186 261h84v-239h71zM539 146h93v130h-5z" />
    <glyph glyph-name="onehalf" unicode="&#xbd;" horiz-adv-x="884" 
d="M158 315v245h-89v68h41c38 0 57 18 57 54v18h76v-385h-85zM718 700l-502 -700h-100l503 700h99zM678 127c-27.333 -16 -42.999 -35.001 -46.999 -57.001h184v-70h-285v27c0 64.667 28.333 114.334 85 149.001l65 39c31.333 20 47 40 47 60
c0 13.333 -4.66699 24.166 -14 32.499s-21.333 12.5 -36 12.5c-17.333 0 -31.166 -5.66699 -41.499 -17s-15.833 -24.666 -16.5 -39.999h-88c1.33301 32.667 15.166 62 41.499 88s63.166 39 110.499 39c40 0 72 -10 96 -30s36 -47.333 36 -82
c0 -20.667 -4.83301 -39.167 -14.5 -55.5s-18.167 -27.333 -25.5 -33s-17.333 -12.167 -30 -19.5z" />
    <glyph glyph-name="threequarters" unicode="&#xbe;" horiz-adv-x="920" 
d="M309 514c43.333 -16 65 -45.333 65 -88c0 -33.333 -14.5 -61 -43.5 -83s-66.167 -33 -111.5 -33c-46 0 -81.833 11.167 -107.5 33.5s-39.834 52.5 -42.501 90.5h84c7.33301 -36 29.666 -54 66.999 -54c20 0 36.167 4.83301 48.5 14.5s18.5 21.5 18.5 35.5
c0 16 -6.16699 28.5 -18.5 37.5s-28.5 13.5 -48.5 13.5h-39v62h37c17.333 0 31.5 4.16699 42.5 12.5s16.5 20.166 16.5 35.499c0 14 -5.33301 25.333 -16 34s-24.667 13 -42 13c-15.333 0 -28.666 -4 -39.999 -12s-18.666 -19.333 -21.999 -34h-82
c0.666992 33.333 15.5 60.5 44.5 81.5s63.5 31.5 103.5 31.5c38 0 70.667 -9.66699 98 -29s41 -45.666 41 -78.999c0 -36 -17.667 -62.333 -53 -79v-4zM786 700l-502 -700h-100l502 700h100zM851 146v-63h-72v-83h-80v83h-189v41l185 261h84v-239h72zM606 146h93v130h-5z
" />
    <glyph glyph-name="questiondown" unicode="&#xbf;" horiz-adv-x="471" 
d="M255 505c21.333 0 39.5 -7.5 54.5 -22.5s22.5 -32.833 22.5 -53.5c0 -21.333 -7.5 -39.5 -22.5 -54.5s-33.167 -22.5 -54.5 -22.5s-39.333 7.5 -54 22.5s-22 33.167 -22 54.5c0 20.667 7.5 38.5 22.5 53.5s32.833 22.5 53.5 22.5zM316 253
c0 -38 -5.99805 -71.166 -17.998 -99.499s-35.667 -54.833 -71 -79.5c-30.667 -22.667 -51.334 -41 -62.001 -55s-16 -30.667 -16 -50c0 -22 7 -39.333 21 -52s33 -19 57 -19c26 0 46.333 7.5 61 22.5s23.667 35.167 27 60.5h114c-1.33301 -52 -18.5 -96.833 -51.5 -134.5
s-83.167 -56.5 -150.5 -56.5c-61.333 0 -109.333 15.167 -144 45.5s-52 72.5 -52 126.5c0 36.667 7.66699 66.667 23 90s40.666 49 75.999 77c26 19.333 44.5 38.666 55.5 57.999s16.5 44 16.5 74v34h114v-42z" />
    <glyph glyph-name="Agrave" unicode="&#xc0;" horiz-adv-x="700" 
d="M399 755h-97l-87 145h108zM538 0l-57 169h-262l-57 -169h-141l250 700h159l249 -700h-141zM255 278h190l-91 270h-8z" />
    <glyph glyph-name="Aacute" unicode="&#xc1;" horiz-adv-x="700" 
d="M485 900l-86 -145h-98l76 145h108zM538 0l-57 169h-262l-57 -169h-141l250 700h159l249 -700h-141zM255 278h190l-91 270h-8z" />
    <glyph glyph-name="Acircumflex" unicode="&#xc2;" horiz-adv-x="700" 
d="M346 829l-51 -77h-107l108 148h107l108 -148h-107l-51 77h-7zM538 0l-57 169h-262l-57 -169h-141l250 700h159l249 -700h-141zM255 278h190l-91 270h-8z" />
    <glyph glyph-name="Atilde" unicode="&#xc3;" horiz-adv-x="700" 
d="M288 802c-25.333 0 -40.001 -17.334 -44.001 -52.001h-85c2.66699 40 13.834 73.167 33.501 99.5s47.167 39.5 82.5 39.5c24.667 0 45.334 -5.16699 62.001 -15.5s30.667 -20.666 42 -30.999s23 -15.5 35 -15.5c26 0 40.333 17 43 51h85
c-2.66699 -39.333 -13.834 -72.166 -33.501 -98.499s-46.834 -39.5 -81.501 -39.5c-22.667 0 -42.5 5.16699 -59.5 15.5s-31.667 20.666 -44 30.999s-24.166 15.5 -35.499 15.5zM537.999 -0.000976562l-57 169h-262l-57 -169h-141l250 700h159l249 -700h-141z
M254.999 277.999h190l-91 270h-8z" />
    <glyph glyph-name="Adieresis" unicode="&#xc4;" horiz-adv-x="700" 
d="M233 754c-21.333 0 -39.666 7.5 -54.999 22.5s-23 32.833 -23 53.5c0 21.333 7.66699 39.5 23 54.5s33.666 22.5 54.999 22.5c20 0 37.5 -7.5 52.5 -22.5s22.5 -33.167 22.5 -54.5c0 -20.667 -7.5 -38.5 -22.5 -53.5s-32.5 -22.5 -52.5 -22.5zM470 754
c-20 0 -37.5 7.5 -52.5 22.5s-22.5 32.833 -22.5 53.5c0 21.333 7.5 39.5 22.5 54.5s32.5 22.5 52.5 22.5c21.333 0 39.5 -7.5 54.5 -22.5s22.5 -33.167 22.5 -54.5c0 -20.667 -7.5 -38.5 -22.5 -53.5s-33.167 -22.5 -54.5 -22.5zM538 0l-57 169h-262l-57 -169h-141l250 700
h159l249 -700h-141zM255 278h190l-91 270h-8z" />
    <glyph glyph-name="Aring" unicode="&#xc5;" horiz-adv-x="700" 
d="M349 734c-27.333 0 -51 9.66699 -71 29s-30 42.333 -30 69s10 49.834 30 69.501s43.667 29.5 71 29.5c28 0 52.167 -9.83301 72.5 -29.5s30.5 -42.834 30.5 -69.501s-10.167 -49.667 -30.5 -69s-44.5 -29 -72.5 -29zM351 863c-9.33301 0 -17.166 -3 -23.499 -9
s-9.5 -13.333 -9.5 -22c0 -8 3.16699 -15.167 9.5 -21.5s14.166 -9.5 23.499 -9.5c8 0 15.167 3.16699 21.5 9.5s9.5 13.5 9.5 21.5c0 8.66699 -3.16699 16 -9.5 22s-13.5 9 -21.5 9zM538 0l-57 169h-262l-57 -169h-141l250 700h159l249 -700h-141zM255 278h190l-91 270h-8z
" />
    <glyph glyph-name="AE" unicode="&#xc6;" horiz-adv-x="1046" 
d="M674 115h335v-115h-463v168h-259l-110 -168h-156l455 700h523v-115h-325v-174h278v-112h-278v-184zM360 278h186v270h-9z" />
    <glyph glyph-name="Ccedilla" unicode="&#xc7;" horiz-adv-x="757" 
d="M715 225c-10.667 -68.667 -42.333 -123.5 -95 -164.5s-117 -64.167 -193 -69.5l-22 -34c26 1.33301 49 -5.33398 69 -20.001s30 -35.334 30 -62.001c0 -26 -9.33301 -46.667 -28 -62s-45 -23 -79 -23c-32 0 -59 8 -81 24l22 51c20.667 -12 39.667 -18 57 -18
c12.667 0 22.667 2.83301 30 8.5s11 13.167 11 22.5c0 20.667 -13.667 31 -41 31c-8.66699 0 -19 -2 -31 -6l-42 33l35 56c-94 8.66699 -168.333 45.5 -223 110.5s-82 146.5 -82 244.5c0 106.667 31.667 193.834 95 261.501s146.333 101.5 249 101.5
c81.333 0 150 -21 206 -63s90 -100.667 102 -176h-142c-11.333 36.667 -31.333 65.334 -60 86.001s-64 31 -106 31c-62 0 -112.333 -23 -151 -69s-58 -103.333 -58 -172c0 -69.333 19.833 -125.833 59.5 -169.5s89.5 -65.5 149.5 -65.5c44.667 0 82.5 10.167 113.5 30.5
s52.167 47.833 63.5 82.5h142z" />
    <glyph glyph-name="Egrave" unicode="&#xc8;" horiz-adv-x="586" 
d="M277 900l76 -145h-97l-87 145h108zM198 115h350v-115h-479v700h469v-115h-340v-174h293v-112h-293v-184z" />
    <glyph glyph-name="Eacute" unicode="&#xc9;" horiz-adv-x="586" 
d="M331 900h108l-86 -145h-98zM198 115h350v-115h-479v700h469v-115h-340v-174h293v-112h-293v-184z" />
    <glyph glyph-name="Ecircumflex" unicode="&#xca;" horiz-adv-x="586" 
d="M249 752h-107l108 148h107l108 -148h-107l-51 77h-7zM198 115h350v-115h-479v700h469v-115h-340v-174h293v-112h-293v-184z" />
    <glyph glyph-name="Edieresis" unicode="&#xcb;" horiz-adv-x="586" 
d="M186 754c-21.333 0 -39.666 7.5 -54.999 22.5s-23 32.833 -23 53.5c0 21.333 7.66699 39.5 23 54.5s33.666 22.5 54.999 22.5c20 0 37.5 -7.5 52.5 -22.5s22.5 -33.167 22.5 -54.5c0 -20.667 -7.5 -38.5 -22.5 -53.5s-32.5 -22.5 -52.5 -22.5zM423 754
c-20 0 -37.5 7.5 -52.5 22.5s-22.5 32.833 -22.5 53.5c0 21.333 7.5 39.5 22.5 54.5s32.5 22.5 52.5 22.5c21.333 0 39.5 -7.5 54.5 -22.5s22.5 -33.167 22.5 -54.5c0 -20.667 -7.5 -38.5 -22.5 -53.5s-33.167 -22.5 -54.5 -22.5zM198 115h350v-115h-479v700h469v-115h-340
v-174h293v-112h-293v-184z" />
    <glyph glyph-name="Igrave" unicode="&#xcc;" horiz-adv-x="270" 
d="M108 900l76 -145h-97l-87 145h108zM201 700v-700h-132v700h132z" />
    <glyph glyph-name="Iacute" unicode="&#xcd;" horiz-adv-x="270" 
d="M162 900h108l-86 -145h-98zM201 700v-700h-132v700h132z" />
    <glyph glyph-name="Icircumflex" unicode="&#xce;" horiz-adv-x="270" 
d="M80 752h-107l108 148h107l108 -148h-107l-51 77h-7zM201 700v-700h-132v700h132z" />
    <glyph glyph-name="Idieresis" unicode="&#xcf;" horiz-adv-x="270" 
d="M18 754c-21.333 0 -39.666 7.5 -54.999 22.5s-23 32.833 -23 53.5c0 21.333 7.66699 39.5 23 54.5s33.666 22.5 54.999 22.5c20 0 37.5 -7.5 52.5 -22.5s22.5 -33.167 22.5 -54.5c0 -20.667 -7.5 -38.5 -22.5 -53.5s-32.5 -22.5 -52.5 -22.5zM255 754
c-20 0 -37.5 7.5 -52.5 22.5s-22.5 32.833 -22.5 53.5c0 21.333 7.5 39.5 22.5 54.5s32.5 22.5 52.5 22.5c21.333 0 39.5 -7.5 54.5 -22.5s22.5 -33.167 22.5 -54.5c0 -20.667 -7.5 -38.5 -22.5 -53.5s-33.167 -22.5 -54.5 -22.5zM201 700v-700h-132v700h132z" />
    <glyph glyph-name="Eth" unicode="&#xd0;" horiz-adv-x="707" 
d="M314 700c106.667 0 190.167 -31.167 250.5 -93.5s90.5 -147.833 90.5 -256.5c0 -108 -30.167 -193.333 -90.5 -256s-143.833 -94 -250.5 -94h-245v301h-111v97h111v302h245zM309 118c70.667 0 123.5 21.499 158.5 64.499s52.5 100.167 52.5 171.5
c0 70.667 -17.5 126.334 -52.5 167.001s-87.833 61 -158.5 61h-108v-184h177v-97h-177v-183h108z" />
    <glyph glyph-name="Ntilde" unicode="&#xd1;" horiz-adv-x="725" 
d="M554 878c-2.66699 -39.333 -13.835 -72.167 -33.502 -98.5s-46.834 -39.5 -81.501 -39.5c-22.667 0 -42.5 5.16699 -59.5 15.5s-31.667 20.666 -44 30.999s-24.166 15.5 -35.499 15.5c-25.333 0 -40 -17.333 -44 -52h-85c2.66699 40 13.834 73.167 33.501 99.5
s47.167 39.5 82.5 39.5c24.667 0 45.334 -5.16699 62.001 -15.5s30.667 -20.666 42 -30.999s23 -15.5 35 -15.5c26 0 40.333 17 43 51h85zM526.999 699.999h129v-700h-135l-315 468h-8v-468h-129v700h135l315 -471h8v471z" />
    <glyph glyph-name="Ograve" unicode="&#xd2;" horiz-adv-x="820" 
d="M383 900l76 -145h-97l-87 145h108zM410 -10c-102.667 0 -188 34.1689 -256 102.502s-102 154.166 -102 257.499c0 102.667 33.833 188.334 101.5 257.001s153.167 103 256.5 103c102.667 0 188 -34.333 256 -103s102 -154.334 102 -257.001
s-33.833 -188.334 -101.5 -257.001s-153.167 -103 -256.5 -103zM411 112.002c64 0 117 22.667 159 68s63 102 63 170s-21.167 124.667 -63.5 170s-95.5 68 -159.5 68s-117.167 -22.667 -159.5 -68s-63.5 -102 -63.5 -170s21.167 -124.667 63.5 -170s95.833 -68 160.5 -68z
" />
    <glyph glyph-name="Oacute" unicode="&#xd3;" horiz-adv-x="820" 
d="M437 900h108l-86 -145h-98zM410 -10c-102.667 0 -188 34.1689 -256 102.502s-102 154.166 -102 257.499c0 102.667 33.833 188.334 101.5 257.001s153.167 103 256.5 103c102.667 0 188 -34.333 256 -103s102 -154.334 102 -257.001s-33.833 -188.334 -101.5 -257.001
s-153.167 -103 -256.5 -103zM411 112.002c64 0 117 22.667 159 68s63 102 63 170s-21.167 124.667 -63.5 170s-95.5 68 -159.5 68s-117.167 -22.667 -159.5 -68s-63.5 -102 -63.5 -170s21.167 -124.667 63.5 -170s95.833 -68 160.5 -68z" />
    <glyph glyph-name="Ocircumflex" unicode="&#xd4;" horiz-adv-x="820" 
d="M355 752h-107l108 148h107l108 -148h-107l-51 77h-7zM410 -10c-102.667 0 -188 34.1689 -256 102.502s-102 154.166 -102 257.499c0 102.667 33.833 188.334 101.5 257.001s153.167 103 256.5 103c102.667 0 188 -34.333 256 -103s102 -154.334 102 -257.001
s-33.833 -188.334 -101.5 -257.001s-153.167 -103 -256.5 -103zM411 112.002c64 0 117 22.667 159 68s63 102 63 170s-21.167 124.667 -63.5 170s-95.5 68 -159.5 68s-117.167 -22.667 -159.5 -68s-63.5 -102 -63.5 -170s21.167 -124.667 63.5 -170s95.833 -68 160.5 -68z
" />
    <glyph glyph-name="Otilde" unicode="&#xd5;" horiz-adv-x="820" 
d="M602 878c-2.66699 -39.333 -13.835 -72.167 -33.502 -98.5s-46.834 -39.5 -81.501 -39.5c-22.667 0 -42.5 5.16699 -59.5 15.5s-31.667 20.666 -44 30.999s-24.166 15.5 -35.499 15.5c-25.333 0 -40 -17.333 -44 -52h-85c2.66699 40 13.834 73.167 33.501 99.5
s47.167 39.5 82.5 39.5c24.667 0 45.334 -5.16699 62.001 -15.5s30.667 -20.666 42 -30.999s23 -15.5 35 -15.5c26 0 40.333 17 43 51h85zM409.999 -10.001c-102.667 0 -188 34.1689 -256 102.502s-102 154.166 -102 257.499c0 102.667 33.833 188.334 101.5 257.001
s153.167 103 256.5 103c102.667 0 188 -34.333 256 -103s102 -154.334 102 -257.001s-33.833 -188.334 -101.5 -257.001s-153.167 -103 -256.5 -103zM410.999 112.001c64 0 117 22.667 159 68s63 102 63 170s-21.167 124.667 -63.5 170s-95.5 68 -159.5 68
s-117.167 -22.667 -159.5 -68s-63.5 -102 -63.5 -170s21.167 -124.667 63.5 -170s95.833 -68 160.5 -68z" />
    <glyph glyph-name="Odieresis" unicode="&#xd6;" horiz-adv-x="820" 
d="M293 754c-21.333 0 -39.666 7.5 -54.999 22.5s-23 32.833 -23 53.5c0 21.333 7.66699 39.5 23 54.5s33.666 22.5 54.999 22.5c20 0 37.5 -7.5 52.5 -22.5s22.5 -33.167 22.5 -54.5c0 -20.667 -7.5 -38.5 -22.5 -53.5s-32.5 -22.5 -52.5 -22.5zM530 754
c-20 0 -37.5 7.5 -52.5 22.5s-22.5 32.833 -22.5 53.5c0 21.333 7.5 39.5 22.5 54.5s32.5 22.5 52.5 22.5c21.333 0 39.5 -7.5 54.5 -22.5s22.5 -33.167 22.5 -54.5c0 -20.667 -7.5 -38.5 -22.5 -53.5s-33.167 -22.5 -54.5 -22.5zM410 -10
c-102.667 0 -188 34.1689 -256 102.502s-102 154.166 -102 257.499c0 102.667 33.833 188.334 101.5 257.001s153.167 103 256.5 103c102.667 0 188 -34.333 256 -103s102 -154.334 102 -257.001s-33.833 -188.334 -101.5 -257.001s-153.167 -103 -256.5 -103zM411 112.002
c64 0 117 22.667 159 68s63 102 63 170s-21.167 124.667 -63.5 170s-95.5 68 -159.5 68s-117.167 -22.667 -159.5 -68s-63.5 -102 -63.5 -170s21.167 -124.667 63.5 -170s95.833 -68 160.5 -68z" />
    <glyph glyph-name="multiply" unicode="&#xd7;" 
d="M522 428l-155 -148l155 -148l-74 -76l-157 150l-157 -150l-75 76l155 148l-155 148l74 75l158 -150l157 150z" />
    <glyph glyph-name="Oslash" unicode="&#xd8;" horiz-adv-x="820" 
d="M666 608c68 -69.333 102 -155.333 102 -258s-33.833 -188.334 -101.5 -257.001s-153.167 -103 -256.5 -103c-65.333 0 -124 14.333 -176 43l-64 -86l-78 58l64 86c-69.333 68 -104 154.333 -104 259c0 102.667 33.833 188.334 101.5 257.001s153.167 103 256.5 103
c64.667 0 123 -14.333 175 -43l63 85l81 -60zM181 350c0 -60 16.667 -112.667 50 -158l282 379c-32 16 -66.333 24 -103 24c-66 0 -120.667 -23.333 -164 -70s-65 -105 -65 -175zM411 105c66 0 120.5 23.333 163.5 70s64.5 105 64.5 175c0 60 -16.333 112 -49 156l-283 -377
c33.333 -16 68 -24 104 -24z" />
    <glyph glyph-name="Ugrave" unicode="&#xd9;" horiz-adv-x="713" 
d="M329 900l76 -145h-97l-87 145h108zM644 700v-429c0 -91.333 -26.333 -161 -79 -209s-121.667 -72 -207 -72c-86 0 -155.667 24 -209 72s-80 117.667 -80 209v429h132v-425c0 -51.333 14.5 -91.333 43.5 -120s66.833 -43 113.5 -43s84 14.167 112 42.5s42 68.5 42 120.5
v425h132z" />
    <glyph glyph-name="Uacute" unicode="&#xda;" horiz-adv-x="713" 
d="M383 900h108l-86 -145h-98zM644 700v-429c0 -91.333 -26.333 -161 -79 -209s-121.667 -72 -207 -72c-86 0 -155.667 24 -209 72s-80 117.667 -80 209v429h132v-425c0 -51.333 14.5 -91.333 43.5 -120s66.833 -43 113.5 -43s84 14.167 112 42.5s42 68.5 42 120.5v425h132z
" />
    <glyph glyph-name="Ucircumflex" unicode="&#xdb;" horiz-adv-x="713" 
d="M301 752h-107l108 148h107l108 -148h-107l-51 77h-7zM644 700v-429c0 -91.333 -26.333 -161 -79 -209s-121.667 -72 -207 -72c-86 0 -155.667 24 -209 72s-80 117.667 -80 209v429h132v-425c0 -51.333 14.5 -91.333 43.5 -120s66.833 -43 113.5 -43s84 14.167 112 42.5
s42 68.5 42 120.5v425h132z" />
    <glyph glyph-name="Udieresis" unicode="&#xdc;" horiz-adv-x="713" 
d="M239 754c-21.333 0 -39.666 7.5 -54.999 22.5s-23 32.833 -23 53.5c0 21.333 7.66699 39.5 23 54.5s33.666 22.5 54.999 22.5c20 0 37.5 -7.5 52.5 -22.5s22.5 -33.167 22.5 -54.5c0 -20.667 -7.5 -38.5 -22.5 -53.5s-32.5 -22.5 -52.5 -22.5zM476 754
c-20 0 -37.5 7.5 -52.5 22.5s-22.5 32.833 -22.5 53.5c0 21.333 7.5 39.5 22.5 54.5s32.5 22.5 52.5 22.5c21.333 0 39.5 -7.5 54.5 -22.5s22.5 -33.167 22.5 -54.5c0 -20.667 -7.5 -38.5 -22.5 -53.5s-33.167 -22.5 -54.5 -22.5zM644 700v-429
c0 -91.333 -26.333 -161 -79 -209s-121.667 -72 -207 -72c-86 0 -155.667 24 -209 72s-80 117.667 -80 209v429h132v-425c0 -51.333 14.5 -91.333 43.5 -120s66.833 -43 113.5 -43s84 14.167 112 42.5s42 68.5 42 120.5v425h132z" />
    <glyph glyph-name="Yacute" unicode="&#xdd;" horiz-adv-x="678" 
d="M366 900h108l-86 -145h-98zM500 700h157l-252 -391v-309h-132v309l-252 391h156l158 -247h8z" />
    <glyph glyph-name="Thorn" unicode="&#xde;" horiz-adv-x="629" 
d="M342 572c72 0 129.167 -20.5 171.5 -61.5s63.5 -94.5 63.5 -160.5c0 -67.333 -21.5 -121.333 -64.5 -162s-100.833 -61 -173.5 -61h-142v-127h-128v700h128v-128h145zM325 243c38 0 67 9.66797 87 29.001s30 45.666 30 78.999c0 32 -10.167 57.667 -30.5 77
s-47.833 29 -82.5 29h-132v-214h128z" />
    <glyph glyph-name="germandbls" unicode="&#xdf;" horiz-adv-x="574" 
d="M403 372c41.333 -13.333 73.335 -34 96.002 -62s34 -68 34 -120c0 -64.667 -17.833 -114.167 -53.5 -148.5s-86.167 -51.5 -151.5 -51.5c-28 0 -59.333 4.66699 -94 14v96c24 -7.33301 47.667 -11 71 -11c34 0 60.667 9.33301 80 28s29 46 29 82
c0 75.333 -43.333 113 -130 113h-50v98h38c33.333 0 59.666 8.5 78.999 25.5s29 41.167 29 72.5c0 29.333 -8.5 53 -25.5 71s-40.833 27 -71.5 27s-55 -8.83301 -73 -26.5s-27 -44.167 -27 -79.5v-500h-128v495c0 68 19.5 120.833 58.5 158.5s94.833 56.5 167.5 56.5
c67.333 0 121.166 -16 161.499 -48s60.5 -76 60.5 -132c0 -71.333 -33.333 -122 -100 -152v-6z" />
    <glyph glyph-name="agrave" unicode="&#xe0;" horiz-adv-x="547" 
d="M312 555h-97l-87 145h108zM518 96h11.999v-96h-54c-52.667 0 -86.334 20 -101.001 60c-36.667 -46.667 -91.667 -70 -165 -70c-53.333 0 -96.166 12.5 -128.499 37.5s-48.5 61.5 -48.5 109.5c0 45.333 15.167 80.833 45.5 106.5s70.166 40.834 119.499 45.501l156 16v21
c0 26.667 -7.66699 47 -23 61s-35.666 21 -60.999 21c-51.333 0 -81.333 -25 -90 -75h-128c5.33301 53.333 27.333 96.166 66 128.499s89.334 48.5 152.001 48.5s113.667 -16.167 153 -48.5s59 -80.5 59 -144.5v-183c0 -25.333 12 -38 36 -38zM353.999 193v24l-112 -12
c-54 -6 -81 -27 -81 -63s23.667 -54 71 -54c32 0 60.333 8.5 85 25.5s37 43.5 37 79.5z" />
    <glyph glyph-name="aacute" unicode="&#xe1;" horiz-adv-x="547" 
d="M398 700l-86 -145h-98l76 145h108zM518 96h11.999v-96h-54c-52.667 0 -86.334 20 -101.001 60c-36.667 -46.667 -91.667 -70 -165 -70c-53.333 0 -96.166 12.5 -128.499 37.5s-48.5 61.5 -48.5 109.5c0 45.333 15.167 80.833 45.5 106.5s70.166 40.834 119.499 45.501
l156 16v21c0 26.667 -7.66699 47 -23 61s-35.666 21 -60.999 21c-51.333 0 -81.333 -25 -90 -75h-128c5.33301 53.333 27.333 96.166 66 128.499s89.334 48.5 152.001 48.5s113.667 -16.167 153 -48.5s59 -80.5 59 -144.5v-183c0 -25.333 12 -38 36 -38zM353.999 193v24
l-112 -12c-54 -6 -81 -27 -81 -63s23.667 -54 71 -54c32 0 60.333 8.5 85 25.5s37 43.5 37 79.5z" />
    <glyph glyph-name="acircumflex" unicode="&#xe2;" horiz-adv-x="547" 
d="M259 629l-51 -77h-107l108 148h107l108 -148h-107l-51 77h-7zM518 96h11.999v-96h-54c-52.667 0 -86.334 20 -101.001 60c-36.667 -46.667 -91.667 -70 -165 -70c-53.333 0 -96.166 12.5 -128.499 37.5s-48.5 61.5 -48.5 109.5c0 45.333 15.167 80.833 45.5 106.5
s70.166 40.834 119.499 45.501l156 16v21c0 26.667 -7.66699 47 -23 61s-35.666 21 -60.999 21c-51.333 0 -81.333 -25 -90 -75h-128c5.33301 53.333 27.333 96.166 66 128.499s89.334 48.5 152.001 48.5s113.667 -16.167 153 -48.5s59 -80.5 59 -144.5v-183
c0 -25.333 12 -38 36 -38zM353.999 193v24l-112 -12c-54 -6 -81 -27 -81 -63s23.667 -54 71 -54c32 0 60.333 8.5 85 25.5s37 43.5 37 79.5z" />
    <glyph glyph-name="atilde" unicode="&#xe3;" horiz-adv-x="547" 
d="M201 602c-25.333 0 -40.001 -17.334 -44.001 -52.001h-85c2.66699 40 13.834 73.167 33.501 99.5s47.167 39.5 82.5 39.5c24.667 0 45.334 -5.16699 62.001 -15.5s30.667 -20.666 42 -30.999s23 -15.5 35 -15.5c26 0 40.333 17 43 51h85
c-2.66699 -39.333 -13.834 -72.166 -33.501 -98.499s-46.834 -39.5 -81.501 -39.5c-22.667 0 -42.5 5.16699 -59.5 15.5s-31.667 20.666 -44 30.999s-24.166 15.5 -35.499 15.5zM517.999 95.999h11.999v-96h-54c-52.667 0 -86.334 20 -101.001 60
c-36.667 -46.667 -91.667 -70 -165 -70c-53.333 0 -96.166 12.5 -128.499 37.5s-48.5 61.5 -48.5 109.5c0 45.333 15.167 80.833 45.5 106.5s70.166 40.834 119.499 45.501l156 16v21c0 26.667 -7.66699 47 -23 61s-35.666 21 -60.999 21c-51.333 0 -81.333 -25 -90 -75
h-128c5.33301 53.333 27.333 96.166 66 128.499s89.334 48.5 152.001 48.5s113.667 -16.167 153 -48.5s59 -80.5 59 -144.5v-183c0 -25.333 12 -38 36 -38zM353.998 192.999v24l-112 -12c-54 -6 -81 -27 -81 -63s23.667 -54 71 -54c32 0 60.333 8.5 85 25.5s37 43.5 37 79.5
z" />
    <glyph glyph-name="adieresis" unicode="&#xe4;" horiz-adv-x="547" 
d="M164 545c-18.667 0 -34.998 6.83301 -48.998 20.5s-21 30.167 -21 49.5s6.83301 35.5 20.5 48.5s30.167 19.5 49.5 19.5s35.666 -6.5 48.999 -19.5s20 -29.167 20 -48.5s-6.83301 -35.833 -20.5 -49.5s-29.834 -20.5 -48.501 -20.5zM363.002 545
c-18.667 0 -34.834 7 -48.501 21s-20.5 30.333 -20.5 49c0 19.333 6.83301 35.5 20.5 48.5s29.834 19.5 48.501 19.5c19.333 0 35.666 -6.5 48.999 -19.5s20 -29.167 20 -48.5s-6.66699 -35.833 -20 -49.5s-29.666 -20.5 -48.999 -20.5zM518.002 96h11.999v-96h-54
c-52.667 0 -86.334 20 -101.001 60c-36.667 -46.667 -91.667 -70 -165 -70c-53.333 0 -96.166 12.5 -128.499 37.5s-48.5 61.5 -48.5 109.5c0 45.333 15.167 80.833 45.5 106.5s70.166 40.834 119.499 45.501l156 16v21c0 26.667 -7.66699 47 -23 61s-35.666 21 -60.999 21
c-51.333 0 -81.333 -25 -90 -75h-128c5.33301 53.333 27.333 96.166 66 128.499s89.334 48.5 152.001 48.5s113.667 -16.167 153 -48.5s59 -80.5 59 -144.5v-183c0 -25.333 12 -38 36 -38zM354.001 193v24l-112 -12c-54 -6 -81 -27 -81 -63s23.667 -54 71 -54
c32 0 60.333 8.5 85 25.5s37 43.5 37 79.5z" />
    <glyph glyph-name="aring" unicode="&#xe5;" horiz-adv-x="547" 
d="M262 534c-27.333 0 -51 9.66699 -71 29s-30 42.333 -30 69s10 49.834 30 69.501s43.667 29.5 71 29.5c28 0 52.167 -9.83301 72.5 -29.5s30.5 -42.834 30.5 -69.501s-10.167 -49.667 -30.5 -69s-44.5 -29 -72.5 -29zM264 663c-9.33301 0 -17.166 -3 -23.499 -9
s-9.5 -13.333 -9.5 -22c0 -8 3.16699 -15.167 9.5 -21.5s14.166 -9.5 23.499 -9.5c8 0 15.167 3.16699 21.5 9.5s9.5 13.5 9.5 21.5c0 8.66699 -3.16699 16 -9.5 22s-13.5 9 -21.5 9zM518 96h11.999v-96h-54c-52.667 0 -86.334 20 -101.001 60
c-36.667 -46.667 -91.667 -70 -165 -70c-53.333 0 -96.166 12.5 -128.499 37.5s-48.5 61.5 -48.5 109.5c0 45.333 15.167 80.833 45.5 106.5s70.166 40.834 119.499 45.501l156 16v21c0 26.667 -7.66699 47 -23 61s-35.666 21 -60.999 21c-51.333 0 -81.333 -25 -90 -75
h-128c5.33301 53.333 27.333 96.166 66 128.499s89.334 48.5 152.001 48.5s113.667 -16.167 153 -48.5s59 -80.5 59 -144.5v-183c0 -25.333 12 -38 36 -38zM353.999 193v24l-112 -12c-54 -6 -81 -27 -81 -63s23.667 -54 71 -54c32 0 60.333 8.5 85 25.5s37 43.5 37 79.5z
" />
    <glyph glyph-name="ae" unicode="&#xe6;" horiz-adv-x="756" 
d="M598 158h115c-5.33301 -55.333 -25.666 -97.166 -60.999 -125.499s-79.333 -42.5 -132 -42.5c-72.667 0 -124.667 24.333 -156 73c-29.333 -48.667 -84.333 -73 -165 -73c-51.333 0 -91.833 12.167 -121.5 36.5s-44.5 59.166 -44.5 104.499
c0 55.333 19.5 97.333 58.5 126s93.167 43 162.5 43h52v37c0 49.333 -23 74 -69 74c-48 0 -73 -23.667 -75 -71l-122 4c2.66699 52.667 21 93.5 55 122.5s79.333 43.5 136 43.5c64.667 0 113 -21.333 145 -64c32.667 42.667 80 64 142 64c55.333 0 101.333 -20 138 -60
s55 -105.333 55 -196c0 -17.333 -0.333008 -31.333 -1 -42h-277c1.33301 -83.333 29.666 -125 84.999 -125c47.333 0 74 23.667 80 71zM516 413c-24 0 -43.5 -9.16699 -58.5 -27.5s-23.167 -46.833 -24.5 -85.5h160c0 75.333 -25.667 113 -77 113zM219 87
c23.333 0 43.667 6.33398 61 19.001s26 33.667 26 63v43h-50c-68.667 0 -103 -22.667 -103 -68c0 -18.667 6 -32.834 18 -42.501s28 -14.5 48 -14.5z" />
    <glyph glyph-name="ccedilla" unicode="&#xe7;" horiz-adv-x="578" 
d="M545 173c-8 -52 -31.334 -94.1641 -70.001 -126.497s-87.334 -50.833 -146.001 -55.5l-22 -34c26 1.33301 49 -5.33398 69 -20.001s30 -35.334 30 -62.001c0 -26 -9.33301 -46.667 -28 -62s-45 -23 -79 -23c-32 0 -59 8 -81 24l22 51c20.667 -12 39.667 -18 57 -18
c12.667 0 22.667 2.83301 30 8.5s11 13.167 11 22.5c0 20.667 -13.667 31 -41 31c-8.66699 0 -19 -2 -31 -6l-42 33l35 57c-65.333 9.33301 -118 37.166 -158 83.499s-60 103.5 -60 171.5c0 77.333 24.833 140.333 74.5 189s111.5 73 185.5 73c62 0 116 -16.667 162 -50
s72.667 -81 80 -143h-128c-6 24 -19.167 43.667 -39.5 59s-45.166 23 -74.499 23c-38 0 -69.5 -14.167 -94.5 -42.5s-37.5 -64.5 -37.5 -108.5s12.167 -79.5 36.5 -106.5s56.833 -40.5 97.5 -40.5c58.667 0 96.334 24 113.001 72h129z" />
    <glyph glyph-name="egrave" unicode="&#xe8;" horiz-adv-x="575" 
d="M342 555h-97l-87 145h108zM408 158h123c-10 -52 -35.5 -93 -76.5 -123s-93.167 -45 -156.5 -45c-75.333 0 -137 23.5 -185 70.5s-72 108.5 -72 184.5c0 80 24.167 144.167 72.5 192.5s108.166 72.5 179.499 72.5c66.667 0 122.834 -21.667 168.501 -65
s68.5 -107.333 68.5 -192c0 -6 -0.666992 -18.333 -2 -37h-360c2.66699 -36.667 15.5 -66.5 38.5 -89.5s53.5 -34.5 91.5 -34.5c59.333 0 96 22 110 66zM293 408c-33.333 0 -61.168 -10 -83.501 -30s-35.833 -45.333 -40.5 -76h239
c-1.33301 31.333 -12.666 56.833 -33.999 76.5s-48.333 29.5 -81 29.5z" />
    <glyph glyph-name="eacute" unicode="&#xe9;" horiz-adv-x="575" 
d="M428 700l-86 -145h-98l76 145h108zM408 158h123c-10 -52 -35.5 -93 -76.5 -123s-93.167 -45 -156.5 -45c-75.333 0 -137 23.5 -185 70.5s-72 108.5 -72 184.5c0 80 24.167 144.167 72.5 192.5s108.166 72.5 179.499 72.5c66.667 0 122.834 -21.667 168.501 -65
s68.5 -107.333 68.5 -192c0 -6 -0.666992 -18.333 -2 -37h-360c2.66699 -36.667 15.5 -66.5 38.5 -89.5s53.5 -34.5 91.5 -34.5c59.333 0 96 22 110 66zM293 408c-33.333 0 -61.168 -10 -83.501 -30s-35.833 -45.333 -40.5 -76h239
c-1.33301 31.333 -12.666 56.833 -33.999 76.5s-48.333 29.5 -81 29.5z" />
    <glyph glyph-name="ecircumflex" unicode="&#xea;" horiz-adv-x="575" 
d="M289 629l-51 -77h-107l108 148h107l108 -148h-107l-51 77h-7zM408 158h123c-10 -52 -35.5 -93 -76.5 -123s-93.167 -45 -156.5 -45c-75.333 0 -137 23.5 -185 70.5s-72 108.5 -72 184.5c0 80 24.167 144.167 72.5 192.5s108.166 72.5 179.499 72.5
c66.667 0 122.834 -21.667 168.501 -65s68.5 -107.333 68.5 -192c0 -6 -0.666992 -18.333 -2 -37h-360c2.66699 -36.667 15.5 -66.5 38.5 -89.5s53.5 -34.5 91.5 -34.5c59.333 0 96 22 110 66zM293 408c-33.333 0 -61.168 -10 -83.501 -30s-35.833 -45.333 -40.5 -76h239
c-1.33301 31.333 -12.666 56.833 -33.999 76.5s-48.333 29.5 -81 29.5z" />
    <glyph glyph-name="edieresis" unicode="&#xeb;" horiz-adv-x="575" 
d="M194 545c-18.667 0 -34.998 6.83301 -48.998 20.5s-21 30.167 -21 49.5s6.83301 35.5 20.5 48.5s30.167 19.5 49.5 19.5s35.666 -6.5 48.999 -19.5s20 -29.167 20 -48.5s-6.83301 -35.833 -20.5 -49.5s-29.834 -20.5 -48.501 -20.5zM393.002 545
c-18.667 0 -34.834 7 -48.501 21s-20.5 30.333 -20.5 49c0 19.333 6.83301 35.5 20.5 48.5s29.834 19.5 48.501 19.5c19.333 0 35.666 -6.5 48.999 -19.5s20 -29.167 20 -48.5s-6.66699 -35.833 -20 -49.5s-29.666 -20.5 -48.999 -20.5zM408.002 158h123
c-10 -52 -35.5 -93 -76.5 -123s-93.167 -45 -156.5 -45c-75.333 0 -137 23.5 -185 70.5s-72 108.5 -72 184.5c0 80 24.167 144.167 72.5 192.5s108.166 72.5 179.499 72.5c66.667 0 122.834 -21.667 168.501 -65s68.5 -107.333 68.5 -192c0 -6 -0.666992 -18.333 -2 -37
h-360c2.66699 -36.667 15.5 -66.5 38.5 -89.5s53.5 -34.5 91.5 -34.5c59.333 0 96 22 110 66zM293.002 408c-33.333 0 -61.168 -10 -83.501 -30s-35.833 -45.333 -40.5 -76h239c-1.33301 31.333 -12.666 56.833 -33.999 76.5s-48.333 29.5 -81 29.5z" />
    <glyph glyph-name="igrave" unicode="&#xec;" horiz-adv-x="238" 
d="M92 700l76 -145h-97l-87 145h108zM55 0v500h128v-500h-128z" />
    <glyph glyph-name="iacute" unicode="&#xed;" horiz-adv-x="238" 
d="M146 700h108l-86 -145h-98zM55 0v500h128v-500h-128z" />
    <glyph glyph-name="icircumflex" unicode="&#xee;" horiz-adv-x="238" 
d="M64 552h-107l108 148h107l108 -148h-107l-51 77h-7zM55 0v500h128v-500h-128z" />
    <glyph glyph-name="idieresis" unicode="&#xef;" horiz-adv-x="238" 
d="M20 545c-18.667 0 -34.998 6.83301 -48.998 20.5s-21 30.167 -21 49.5s6.83301 35.5 20.5 48.5s30.167 19.5 49.5 19.5s35.666 -6.5 48.999 -19.5s20 -29.167 20 -48.5s-6.83301 -35.833 -20.5 -49.5s-29.834 -20.5 -48.501 -20.5zM219.002 545
c-18.667 0 -34.834 7 -48.501 21s-20.5 30.333 -20.5 49c0 19.333 6.83301 35.5 20.5 48.5s29.834 19.5 48.501 19.5c19.333 0 35.666 -6.5 48.999 -19.5s20 -29.167 20 -48.5s-6.66699 -35.833 -20 -49.5s-29.666 -20.5 -48.999 -20.5zM55.002 0v500h128v-500h-128z" />
    <glyph glyph-name="eth" unicode="&#xf0;" horiz-adv-x="603" 
d="M438 580c75.333 -95.333 112.999 -199.333 112.999 -312c0 -90 -23.667 -158.833 -71 -206.5s-110.333 -71.5 -189 -71.5c-70.667 0 -130 22.5 -178 67.5s-72 102.5 -72 172.5c0 66 21.5 120.833 64.5 164.5s98.5 65.5 166.5 65.5c59.333 0 105.333 -18 138 -54h8
c-15.333 47.333 -42.666 95.333 -81.999 144l-158 -45l-19 67l125 35c-30 31.333 -65.667 62.333 -107 93h142c23.333 -18.667 46.333 -39.667 69 -63l103 29l18 -66zM291.999 96c39.333 0 71.499 12.667 96.499 38s37.5 57 37.5 95c0 37.333 -12.833 67.5 -38.5 90.5
s-58.167 34.5 -97.5 34.5s-71.166 -11.833 -95.499 -35.5s-36.5 -54.5 -36.5 -92.5c0 -37.333 12.667 -68.333 38 -93s57.333 -37 96 -37z" />
    <glyph glyph-name="ntilde" unicode="&#xf1;" horiz-adv-x="588" 
d="M486 678c-2.66699 -39.333 -13.835 -72.167 -33.502 -98.5s-46.834 -39.5 -81.501 -39.5c-22.667 0 -42.5 5.16699 -59.5 15.5s-31.667 20.666 -44 30.999s-24.166 15.5 -35.499 15.5c-25.333 0 -40 -17.333 -44 -52h-85c2.66699 40 13.834 73.167 33.501 99.5
s47.167 39.5 82.5 39.5c24.667 0 45.334 -5.16699 62.001 -15.5s30.667 -20.666 42 -30.999s23 -15.5 35 -15.5c26 0 40.333 17 43 51h85zM54.999 -0.000976562v500.001h117l11 -59h8c35.333 46 84.333 69 147 69c60 0 107.5 -18.333 142.5 -55s52.5 -87.334 52.5 -152.001
v-303h-128v277c0 39.333 -10 69.5 -30 90.5s-45.667 31.5 -77 31.5c-32.667 0 -60 -10.833 -82 -32.5s-33 -53.5 -33 -95.5v-271h-128z" />
    <glyph glyph-name="ograve" unicode="&#xf2;" horiz-adv-x="611" 
d="M279 700l76 -145h-97l-87 145h108zM305 -10c-75.333 0 -138.167 24.501 -188.5 73.501s-75.5 111.5 -75.5 187.5s25 138.167 75 186.5s113 72.5 189 72.5s139 -24.167 189 -72.5s75 -110.5 75 -186.5c0 -76.667 -25 -139.334 -75 -188.001s-113 -73 -189 -73z
M304.999 101.001c40.667 0 73.667 14.333 99 43s38 64.334 38 107.001c0 42 -12.667 77.167 -38 105.5s-58.333 42.5 -99 42.5s-73.5 -14.167 -98.5 -42.5s-37.5 -63.5 -37.5 -105.5c0 -42.667 12.667 -78.334 38 -107.001s58 -43 98 -43z" />
    <glyph glyph-name="oacute" unicode="&#xf3;" horiz-adv-x="611" 
d="M333 700h108l-86 -145h-98zM305 -10c-75.333 0 -138.167 24.501 -188.5 73.501s-75.5 111.5 -75.5 187.5s25 138.167 75 186.5s113 72.5 189 72.5s139 -24.167 189 -72.5s75 -110.5 75 -186.5c0 -76.667 -25 -139.334 -75 -188.001s-113 -73 -189 -73zM304.999 101.001
c40.667 0 73.667 14.333 99 43s38 64.334 38 107.001c0 42 -12.667 77.167 -38 105.5s-58.333 42.5 -99 42.5s-73.5 -14.167 -98.5 -42.5s-37.5 -63.5 -37.5 -105.5c0 -42.667 12.667 -78.334 38 -107.001s58 -43 98 -43z" />
    <glyph glyph-name="ocircumflex" unicode="&#xf4;" horiz-adv-x="611" 
d="M251 552h-107l108 148h107l108 -148h-107l-51 77h-7zM305 -10c-75.333 0 -138.167 24.501 -188.5 73.501s-75.5 111.5 -75.5 187.5s25 138.167 75 186.5s113 72.5 189 72.5s139 -24.167 189 -72.5s75 -110.5 75 -186.5c0 -76.667 -25 -139.334 -75 -188.001
s-113 -73 -189 -73zM304.999 101.001c40.667 0 73.667 14.333 99 43s38 64.334 38 107.001c0 42 -12.667 77.167 -38 105.5s-58.333 42.5 -99 42.5s-73.5 -14.167 -98.5 -42.5s-37.5 -63.5 -37.5 -105.5c0 -42.667 12.667 -78.334 38 -107.001s58 -43 98 -43z" />
    <glyph glyph-name="otilde" unicode="&#xf5;" horiz-adv-x="611" 
d="M497 678c-2.66699 -39.333 -13.835 -72.167 -33.502 -98.5s-46.834 -39.5 -81.501 -39.5c-22.667 0 -42.5 5.16699 -59.5 15.5s-31.667 20.666 -44 30.999s-24.166 15.5 -35.499 15.5c-25.333 0 -40 -17.333 -44 -52h-85c2.66699 40 13.834 73.167 33.501 99.5
s47.167 39.5 82.5 39.5c24.667 0 45.334 -5.16699 62.001 -15.5s30.667 -20.666 42 -30.999s23 -15.5 35 -15.5c26 0 40.333 17 43 51h85zM304.999 -10.001c-75.333 0 -138.167 24.501 -188.5 73.501s-75.5 111.5 -75.5 187.5s25 138.167 75 186.5s113 72.5 189 72.5
s139 -24.167 189 -72.5s75 -110.5 75 -186.5c0 -76.667 -25 -139.334 -75 -188.001s-113 -73 -189 -73zM304.998 101c40.667 0 73.667 14.333 99 43s38 64.334 38 107.001c0 42 -12.667 77.167 -38 105.5s-58.333 42.5 -99 42.5s-73.5 -14.167 -98.5 -42.5
s-37.5 -63.5 -37.5 -105.5c0 -42.667 12.667 -78.334 38 -107.001s58 -43 98 -43z" />
    <glyph glyph-name="odieresis" unicode="&#xf6;" horiz-adv-x="611" 
d="M207 545c-19.333 0 -35.8311 6.83301 -49.498 20.5s-20.5 30.167 -20.5 49.5s6.83301 35.5 20.5 48.5s30.167 19.5 49.5 19.5s35.666 -6.5 48.999 -19.5s20 -29.167 20 -48.5s-6.83301 -35.833 -20.5 -49.5s-29.834 -20.5 -48.501 -20.5zM406.002 545
c-18.667 0 -34.834 7 -48.501 21s-20.5 30.333 -20.5 49c0 19.333 6.83301 35.5 20.5 48.5s29.834 19.5 48.501 19.5c19.333 0 35.666 -6.5 48.999 -19.5s20 -29.167 20 -48.5s-6.66699 -35.833 -20 -49.5s-29.666 -20.5 -48.999 -20.5zM305.002 -10
c-75.333 0 -138.167 24.501 -188.5 73.501s-75.5 111.5 -75.5 187.5s25 138.167 75 186.5s113 72.5 189 72.5s139 -24.167 189 -72.5s75 -110.5 75 -186.5c0 -76.667 -25 -139.334 -75 -188.001s-113 -73 -189 -73zM305.001 101.001c40.667 0 73.667 14.333 99 43
s38 64.334 38 107.001c0 42 -12.667 77.167 -38 105.5s-58.333 42.5 -99 42.5s-73.5 -14.167 -98.5 -42.5s-37.5 -63.5 -37.5 -105.5c0 -42.667 12.667 -78.334 38 -107.001s58 -43 98 -43z" />
    <glyph glyph-name="divide" unicode="&#xf7;" 
d="M291 382c-21.333 0 -39.5 7.5 -54.5 22.5s-22.5 32.833 -22.5 53.5s7.5 38.5 22.5 53.5s33.167 22.5 54.5 22.5c20.667 0 38.5 -7.33301 53.5 -22s22.5 -32.667 22.5 -54s-7.5 -39.333 -22.5 -54s-32.833 -22 -53.5 -22zM50 333h481v-106h-481v106zM291 21
c-20.667 0 -38.667 7.5 -54 22.5s-23 32.833 -23 53.5c0 21.333 7.5 39.5 22.5 54.5s33.167 22.5 54.5 22.5s39.333 -7.5 54 -22.5s22 -33.167 22 -54.5c0 -20.667 -7.5 -38.5 -22.5 -53.5s-32.833 -22.5 -53.5 -22.5z" />
    <glyph glyph-name="oslash" unicode="&#xf8;" horiz-adv-x="611" 
d="M499 433c46.667 -48.667 70.001 -109.331 70.001 -181.998c0 -76.667 -25 -139.334 -75 -188.001s-113 -73 -189 -73c-42.667 0 -83.667 9 -123 27l-51 -67l-70 49l52 68c-48 49.333 -72 110.666 -72 183.999c0 76 25 138.167 75 186.5s113 72.5 189 72.5
c45.333 0 86.666 -9.33301 123.999 -28l51 67l70 -49zM162.001 251.003c0 -34 7.66699 -63.667 23 -89l177 232c-18 7.33301 -37 11 -57 11c-42.667 0 -77.167 -14.667 -103.5 -44s-39.5 -66 -39.5 -110zM305.001 95.0029c42 0 76.333 15 103 45s40 67 40 111
c0 32 -7.33301 60.667 -22 86l-176 -231c16.667 -7.33301 35 -11 55 -11z" />
    <glyph glyph-name="ugrave" unicode="&#xf9;" horiz-adv-x="588" 
d="M267 700l76 -145h-97l-87 145h108zM533 500l-0.000976562 -500.001h-117l-11 59h-8c-35.333 -46 -84.333 -69 -147 -69c-60 0 -107.5 18.333 -142.5 55s-52.5 87.334 -52.5 152.001v303h128v-277c0 -39.333 10 -69.5 30 -90.5s46 -31.5 78 -31.5
c32.667 0 59.834 10.833 81.501 32.5s32.5 53.5 32.5 95.5v271h128z" />
    <glyph glyph-name="uacute" unicode="&#xfa;" horiz-adv-x="588" 
d="M321 700h108l-86 -145h-98zM533 500l-0.000976562 -500.001h-117l-11 59h-8c-35.333 -46 -84.333 -69 -147 -69c-60 0 -107.5 18.333 -142.5 55s-52.5 87.334 -52.5 152.001v303h128v-277c0 -39.333 10 -69.5 30 -90.5s46 -31.5 78 -31.5
c32.667 0 59.834 10.833 81.501 32.5s32.5 53.5 32.5 95.5v271h128z" />
    <glyph glyph-name="ucircumflex" unicode="&#xfb;" horiz-adv-x="588" 
d="M239 552h-107l108 148h107l108 -148h-107l-51 77h-7zM533 500l-0.000976562 -500.001h-117l-11 59h-8c-35.333 -46 -84.333 -69 -147 -69c-60 0 -107.5 18.333 -142.5 55s-52.5 87.334 -52.5 152.001v303h128v-277c0 -39.333 10 -69.5 30 -90.5s46 -31.5 78 -31.5
c32.667 0 59.834 10.833 81.501 32.5s32.5 53.5 32.5 95.5v271h128z" />
    <glyph glyph-name="udieresis" unicode="&#xfc;" horiz-adv-x="588" 
d="M195 545c-19.333 0 -35.8311 6.83301 -49.498 20.5s-20.5 30.167 -20.5 49.5s6.83301 35.5 20.5 48.5s30.167 19.5 49.5 19.5s35.666 -6.5 48.999 -19.5s20 -29.167 20 -48.5s-6.83301 -35.833 -20.5 -49.5s-29.834 -20.5 -48.501 -20.5zM394.002 545
c-18.667 0 -34.834 7 -48.501 21s-20.5 30.333 -20.5 49c0 19.333 6.83301 35.5 20.5 48.5s29.834 19.5 48.501 19.5c19.333 0 35.666 -6.5 48.999 -19.5s20 -29.167 20 -48.5s-6.66699 -35.833 -20 -49.5s-29.666 -20.5 -48.999 -20.5zM533.002 500l-0.000976562 -500.001
h-117l-11 59h-8c-35.333 -46 -84.333 -69 -147 -69c-60 0 -107.5 18.333 -142.5 55s-52.5 87.334 -52.5 152.001v303h128v-277c0 -39.333 10 -69.5 30 -90.5s46 -31.5 78 -31.5c32.667 0 59.834 10.833 81.501 32.5s32.5 53.5 32.5 95.5v271h128z" />
    <glyph glyph-name="yacute" unicode="&#xfd;" horiz-adv-x="569" 
d="M312 700h108l-86 -145h-98zM150 -210c-26 0 -52.999 3.66699 -80.999 11v95c19.333 -4 36.666 -6 51.999 -6c55.333 0 92 22.333 110 67l17 43h-40l-191 500h132l136 -369h8l127 369h132l-202 -562c-33.333 -98.667 -100 -148 -200 -148z" />
    <glyph glyph-name="thorn" unicode="&#xfe;" horiz-adv-x="605" 
d="M328 510c68 0 124.166 -24 168.499 -72s66.5 -111 66.5 -189c0 -79.333 -22.333 -142.333 -67 -189s-100.667 -70 -168 -70c-58.667 0 -107 20.333 -145 61v-251h-128v910h115v-269h9c34.667 46 84.334 69 149.001 69zM307.999 101c38 0 68.667 13.665 92 40.998
s35 63 35 107c0 44.667 -11.667 80.834 -35 108.501s-54 41.5 -92 41.5s-68.333 -13.667 -91 -41s-34 -63.666 -34 -108.999c0 -44 11.333 -79.667 34 -107s53 -41 91 -41z" />
    <glyph glyph-name="ydieresis" unicode="&#xff;" horiz-adv-x="569" 
d="M186 545c-18.667 0 -34.998 6.83301 -48.998 20.5s-21 30.167 -21 49.5s6.83301 35.5 20.5 48.5s30.167 19.5 49.5 19.5s35.666 -6.5 48.999 -19.5s20 -29.167 20 -48.5s-6.83301 -35.833 -20.5 -49.5s-29.834 -20.5 -48.501 -20.5zM385.002 545
c-18.667 0 -34.834 7 -48.501 21s-20.5 30.333 -20.5 49c0 19.333 6.83301 35.5 20.5 48.5s29.834 19.5 48.501 19.5c19.333 0 35.666 -6.5 48.999 -19.5s20 -29.167 20 -48.5s-6.66699 -35.833 -20 -49.5s-29.666 -20.5 -48.999 -20.5zM150.002 -210
c-26 0 -52.999 3.66699 -80.999 11v95c19.333 -4 36.666 -6 51.999 -6c55.333 0 92 22.333 110 67l17 43h-40l-191 500h132l136 -369h8l127 369h132l-202 -562c-33.333 -98.667 -100 -148 -200 -148z" />
    <glyph glyph-name="Amacron" unicode="&#x100;" horiz-adv-x="700" 
d="M516 856v-87h-331v87h331zM538 0l-57 169h-262l-57 -169h-141l250 700h159l249 -700h-141zM255 278h190l-91 270h-8z" />
    <glyph glyph-name="amacron" unicode="&#x101;" horiz-adv-x="547" 
d="M429 656v-87h-331v87h331zM518 96h11.999v-96h-54c-52.667 0 -86.334 20 -101.001 60c-36.667 -46.667 -91.667 -70 -165 -70c-53.333 0 -96.166 12.5 -128.499 37.5s-48.5 61.5 -48.5 109.5c0 45.333 15.167 80.833 45.5 106.5s70.166 40.834 119.499 45.501l156 16v21
c0 26.667 -7.66699 47 -23 61s-35.666 21 -60.999 21c-51.333 0 -81.333 -25 -90 -75h-128c5.33301 53.333 27.333 96.166 66 128.499s89.334 48.5 152.001 48.5s113.667 -16.167 153 -48.5s59 -80.5 59 -144.5v-183c0 -25.333 12 -38 36 -38zM353.999 193v24l-112 -12
c-54 -6 -81 -27 -81 -63s23.667 -54 71 -54c32 0 60.333 8.5 85 25.5s37 43.5 37 79.5z" />
    <glyph glyph-name="Abreve" unicode="&#x102;" horiz-adv-x="700" 
d="M350 767c-41.333 0 -76.334 12.833 -105.001 38.5s-43 57.167 -43 94.5h95c0 -16 4.83301 -29.667 14.5 -41s22.834 -17 39.501 -17c16 0 28.5 5.66699 37.5 17s13.5 25 13.5 41h94c0 -37.333 -14 -68.833 -42 -94.5s-62.667 -38.5 -104 -38.5zM537.999 0l-57 169h-262
l-57 -169h-141l250 700h159l249 -700h-141zM254.999 278h190l-91 270h-8z" />
    <glyph glyph-name="abreve" unicode="&#x103;" horiz-adv-x="547" 
d="M263 567c-41.333 0 -76.334 12.833 -105.001 38.5s-43 57.167 -43 94.5h95c0 -16 4.83301 -29.667 14.5 -41s22.834 -17 39.501 -17c16 0 28.5 5.66699 37.5 17s13.5 25 13.5 41h94c0 -37.333 -14 -68.833 -42 -94.5s-62.667 -38.5 -104 -38.5zM517.999 96h11.999v-96
h-54c-52.667 0 -86.334 20 -101.001 60c-36.667 -46.667 -91.667 -70 -165 -70c-53.333 0 -96.166 12.5 -128.499 37.5s-48.5 61.5 -48.5 109.5c0 45.333 15.167 80.833 45.5 106.5s70.166 40.834 119.499 45.501l156 16v21c0 26.667 -7.66699 47 -23 61
s-35.666 21 -60.999 21c-51.333 0 -81.333 -25 -90 -75h-128c5.33301 53.333 27.333 96.166 66 128.499s89.334 48.5 152.001 48.5s113.667 -16.167 153 -48.5s59 -80.5 59 -144.5v-183c0 -25.333 12 -38 36 -38zM353.998 193v24l-112 -12c-54 -6 -81 -27 -81 -63
s23.667 -54 71 -54c32 0 60.333 8.5 85 25.5s37 43.5 37 79.5z" />
    <glyph glyph-name="Aogonek" unicode="&#x104;" horiz-adv-x="700" 
d="M669 -106c15.333 0 30.667 2 46 6v-70c-17.333 -5.33301 -37.333 -8 -60 -8c-37.333 0 -67 8 -89 24s-33 39 -33 69c0 34 18.667 62.333 56 85h-51l-57 169h-262l-57 -169h-141l250 700h159l249 -700c-44.667 -13.333 -67 -35.333 -67 -66c0 -26.667 19 -40 57 -40z
M255.001 278h190l-91 270h-8z" />
    <glyph glyph-name="aogonek" unicode="&#x105;" horiz-adv-x="547" 
d="M520 -106c16 0 31.3311 2 45.998 6v-70c-17.333 -5.33301 -37.333 -8 -60 -8c-37.333 0 -67 8 -89 24s-33 39 -33 69c0 36 20.333 65.333 61 88c-34.667 5.33301 -58 24.333 -70 57c-36.667 -46.667 -91.667 -70 -165 -70c-53.333 0 -96.166 12.5 -128.499 37.5
s-48.5 61.5 -48.5 109.5c0 45.333 15.167 80.833 45.5 106.5s70.166 40.834 119.499 45.501l156 16v21c0 26.667 -7.66699 47 -23 61s-35.666 21 -60.999 21c-51.333 0 -81.333 -25 -90 -75h-128c5.33301 53.333 27.333 96.166 66 128.499s89.334 48.5 152.001 48.5
s113.667 -16.167 153 -48.5s59 -80.5 59 -144.5v-183c0 -25.333 12 -38 36 -38h12v-96c-44.667 -13.333 -67 -35.333 -67 -66c0 -26.667 19 -40 57 -40zM353.998 193v24l-112 -12c-54 -6 -81 -27 -81 -63s23.667 -54 71 -54c32 0 60.333 8.5 85 25.5s37 43.5 37 79.5z" />
    <glyph glyph-name="Cacute" unicode="&#x106;" horiz-adv-x="757" 
d="M425 900h108l-86 -145h-98zM715 225c-11.333 -73.333 -46.5 -130.836 -105.5 -172.503s-130.167 -62.5 -213.5 -62.5c-105.333 0 -189 33.333 -251 100s-93 152.334 -93 257.001c0 106.667 31.667 193.834 95 261.501s146.333 101.5 249 101.5c81.333 0 150 -21 206 -63
s90 -100.667 102 -176h-142c-11.333 36.667 -31.333 65.334 -60 86.001s-64 31 -106 31c-62 0 -112.333 -23 -151 -69s-58 -103.333 -58 -172c0 -69.333 19.833 -125.833 59.5 -169.5s89.5 -65.5 149.5 -65.5c44.667 0 82.5 10.167 113.5 30.5s52.167 47.833 63.5 82.5h142z
" />
    <glyph glyph-name="cacute" unicode="&#x107;" horiz-adv-x="578" 
d="M327 700h108l-86 -145h-98zM303 -10c-78 0 -141.168 24 -189.501 72s-72.5 110 -72.5 186c0 77.333 24.833 140.333 74.5 189s111.5 73 185.5 73c62 0 116 -16.667 162 -50s72.667 -81 80 -143h-128c-6 24 -19.167 43.667 -39.5 59s-45.166 23 -74.499 23
c-38 0 -69.5 -14.167 -94.5 -42.5s-37.5 -64.5 -37.5 -108.5s12.167 -79.5 36.5 -106.5s56.833 -40.5 97.5 -40.5c58.667 0 96.334 24 113.001 72h129c-8.66699 -56 -34.834 -100.5 -78.501 -133.5s-98.167 -49.5 -163.5 -49.5z" />
    <glyph glyph-name="Ccircumflex" unicode="&#x108;" horiz-adv-x="757" 
d="M343 752h-107l108 148h107l108 -148h-107l-51 77h-7zM715 225c-11.333 -73.333 -46.5 -130.836 -105.5 -172.503s-130.167 -62.5 -213.5 -62.5c-105.333 0 -189 33.333 -251 100s-93 152.334 -93 257.001c0 106.667 31.667 193.834 95 261.501s146.333 101.5 249 101.5
c81.333 0 150 -21 206 -63s90 -100.667 102 -176h-142c-11.333 36.667 -31.333 65.334 -60 86.001s-64 31 -106 31c-62 0 -112.333 -23 -151 -69s-58 -103.333 -58 -172c0 -69.333 19.833 -125.833 59.5 -169.5s89.5 -65.5 149.5 -65.5c44.667 0 82.5 10.167 113.5 30.5
s52.167 47.833 63.5 82.5h142z" />
    <glyph glyph-name="ccircumflex" unicode="&#x109;" horiz-adv-x="578" 
d="M245 552h-107l108 148h107l108 -148h-107l-51 77h-7zM303 -10c-78 0 -141.168 24 -189.501 72s-72.5 110 -72.5 186c0 77.333 24.833 140.333 74.5 189s111.5 73 185.5 73c62 0 116 -16.667 162 -50s72.667 -81 80 -143h-128c-6 24 -19.167 43.667 -39.5 59
s-45.166 23 -74.499 23c-38 0 -69.5 -14.167 -94.5 -42.5s-37.5 -64.5 -37.5 -108.5s12.167 -79.5 36.5 -106.5s56.833 -40.5 97.5 -40.5c58.667 0 96.334 24 113.001 72h129c-8.66699 -56 -34.834 -100.5 -78.501 -133.5s-98.167 -49.5 -163.5 -49.5z" />
    <glyph glyph-name="Cdotaccent" unicode="&#x10a;" horiz-adv-x="757" 
d="M398 764c-21.333 0 -39.833 7.66699 -55.5 23s-23.5 33.333 -23.5 54c0 22 7.83301 40.5 23.5 55.5s34.167 22.5 55.5 22.5s39.5 -7.5 54.5 -22.5s22.5 -33.5 22.5 -55.5c0 -20.667 -7.66699 -38.667 -23 -54s-33.333 -23 -54 -23zM715 225
c-11.333 -73.333 -46.5 -130.836 -105.5 -172.503s-130.167 -62.5 -213.5 -62.5c-105.333 0 -189 33.333 -251 100s-93 152.334 -93 257.001c0 106.667 31.667 193.834 95 261.501s146.333 101.5 249 101.5c81.333 0 150 -21 206 -63s90 -100.667 102 -176h-142
c-11.333 36.667 -31.333 65.334 -60 86.001s-64 31 -106 31c-62 0 -112.333 -23 -151 -69s-58 -103.333 -58 -172c0 -69.333 19.833 -125.833 59.5 -169.5s89.5 -65.5 149.5 -65.5c44.667 0 82.5 10.167 113.5 30.5s52.167 47.833 63.5 82.5h142z" />
    <glyph glyph-name="cdotaccent" unicode="&#x10b;" horiz-adv-x="578" 
d="M300 564c-21.333 0 -39.833 7.66699 -55.5 23s-23.5 33.333 -23.5 54c0 22 7.83301 40.5 23.5 55.5s34.167 22.5 55.5 22.5s39.5 -7.5 54.5 -22.5s22.5 -33.5 22.5 -55.5c0 -20.667 -7.66699 -38.667 -23 -54s-33.333 -23 -54 -23zM303 -10
c-78 0 -141.168 24 -189.501 72s-72.5 110 -72.5 186c0 77.333 24.833 140.333 74.5 189s111.5 73 185.5 73c62 0 116 -16.667 162 -50s72.667 -81 80 -143h-128c-6 24 -19.167 43.667 -39.5 59s-45.166 23 -74.499 23c-38 0 -69.5 -14.167 -94.5 -42.5
s-37.5 -64.5 -37.5 -108.5s12.167 -79.5 36.5 -106.5s56.833 -40.5 97.5 -40.5c58.667 0 96.334 24 113.001 72h129c-8.66699 -56 -34.834 -100.5 -78.501 -133.5s-98.167 -49.5 -163.5 -49.5z" />
    <glyph glyph-name="Ccaron" unicode="&#x10c;" horiz-adv-x="757" 
d="M452 900h107l-108 -148h-107l-108 148h107l51 -77h8zM715 225c-11.333 -73.333 -46.5 -130.836 -105.5 -172.503s-130.167 -62.5 -213.5 -62.5c-105.333 0 -189 33.333 -251 100s-93 152.334 -93 257.001c0 106.667 31.667 193.834 95 261.501s146.333 101.5 249 101.5
c81.333 0 150 -21 206 -63s90 -100.667 102 -176h-142c-11.333 36.667 -31.333 65.334 -60 86.001s-64 31 -106 31c-62 0 -112.333 -23 -151 -69s-58 -103.333 -58 -172c0 -69.333 19.833 -125.833 59.5 -169.5s89.5 -65.5 149.5 -65.5c44.667 0 82.5 10.167 113.5 30.5
s52.167 47.833 63.5 82.5h142z" />
    <glyph glyph-name="ccaron" unicode="&#x10d;" horiz-adv-x="578" 
d="M354 700h107l-108 -148h-107l-108 148h107l51 -77h8zM303 -10c-78 0 -141.168 24 -189.501 72s-72.5 110 -72.5 186c0 77.333 24.833 140.333 74.5 189s111.5 73 185.5 73c62 0 116 -16.667 162 -50s72.667 -81 80 -143h-128c-6 24 -19.167 43.667 -39.5 59
s-45.166 23 -74.499 23c-38 0 -69.5 -14.167 -94.5 -42.5s-37.5 -64.5 -37.5 -108.5s12.167 -79.5 36.5 -106.5s56.833 -40.5 97.5 -40.5c58.667 0 96.334 24 113.001 72h129c-8.66699 -56 -34.834 -100.5 -78.501 -133.5s-98.167 -49.5 -163.5 -49.5z" />
    <glyph glyph-name="Dcaron" unicode="&#x10e;" horiz-adv-x="707" 
d="M399 900h107l-108 -148h-107l-108 148h107l51 -77h8zM314 700c106.667 0 190.167 -31.167 250.5 -93.5s90.5 -147.833 90.5 -256.5c0 -108 -30.167 -193.333 -90.5 -256s-143.833 -94 -250.5 -94h-245v700h245zM309 118c70.667 0 123.5 21.499 158.5 64.499
s52.5 100.167 52.5 171.5c0 70.667 -17.5 126.334 -52.5 167.001s-87.833 61 -158.5 61h-108v-464h108z" />
    <glyph glyph-name="dcaron" unicode="&#x10f;" horiz-adv-x="605" 
d="M422 453l0.000976562 257h128v-710h-104l-11 59h-9c-34.667 -46 -84.334 -69 -149.001 -69c-68 0 -124.167 24 -168.5 72s-66.5 111 -66.5 189c0 79.333 22.333 142.333 67 189s100.667 70 168 70c62.667 0 111 -19 145 -57zM708.001 707
c23.333 0 41.668 -9.16797 55.001 -27.501s20 -42.166 20 -71.499c0 -43.333 -11.167 -80.833 -33.5 -112.5s-48.833 -56.834 -79.5 -75.501l-30 37c40 34 61 68.667 63 104c-16.667 -2 -32 3.5 -46 16.5s-21 31.167 -21 54.5c0 22.667 6.66699 40.834 20 54.501
s30.666 20.5 51.999 20.5zM297.003 100.999c38 0 68.333 13.6689 91 41.002s34 63.666 34 108.999c0 44 -11.333 79.667 -34 107s-53 41 -91 41s-68.667 -13.667 -92 -41s-35 -63 -35 -107c0 -44.667 11.667 -80.834 35 -108.501s54 -41.5 92 -41.5z" />
    <glyph glyph-name="Dcroat" unicode="&#x110;" horiz-adv-x="707" 
d="M314 700c106.667 0 190.167 -31.167 250.5 -93.5s90.5 -147.833 90.5 -256.5c0 -108 -30.167 -193.333 -90.5 -256s-143.833 -94 -250.5 -94h-245v301h-111v97h111v302h245zM309 118c70.667 0 123.5 21.499 158.5 64.499s52.5 100.167 52.5 171.5
c0 70.667 -17.5 126.334 -52.5 167.001s-87.833 61 -158.5 61h-108v-184h177v-97h-177v-183h108z" />
    <glyph glyph-name="dcroat" unicode="&#x111;" horiz-adv-x="605" 
d="M656 647l0.000976562 -92h-106v-555h-104l-11 59h-9c-34.667 -46 -84.334 -69 -149.001 -69c-68 0 -124.167 24 -168.5 72s-66.5 111 -66.5 189c0 79.333 22.333 142.333 67 189s100.667 70 168 70c62.667 0 111 -19 145 -57v102h-127v92h127v63h128v-63h106z
M297.001 101c38 0 68.333 13.6689 91 41.002s34 63.666 34 108.999c0 44 -11.333 79.667 -34 107s-53 41 -91 41s-68.667 -13.667 -92 -41s-35 -63 -35 -107c0 -44.667 11.667 -80.834 35 -108.501s54 -41.5 92 -41.5z" />
    <glyph glyph-name="Emacron" unicode="&#x112;" horiz-adv-x="586" 
d="M139 856h331v-87h-331v87zM198 115h350v-115h-479v700h469v-115h-340v-174h293v-112h-293v-184z" />
    <glyph glyph-name="emacron" unicode="&#x113;" horiz-adv-x="575" 
d="M459 656v-87h-331v87h331zM408 158h123c-10 -52 -35.5 -93 -76.5 -123s-93.167 -45 -156.5 -45c-75.333 0 -137 23.5 -185 70.5s-72 108.5 -72 184.5c0 80 24.167 144.167 72.5 192.5s108.166 72.5 179.499 72.5c66.667 0 122.834 -21.667 168.501 -65
s68.5 -107.333 68.5 -192c0 -6 -0.666992 -18.333 -2 -37h-360c2.66699 -36.667 15.5 -66.5 38.5 -89.5s53.5 -34.5 91.5 -34.5c59.333 0 96 22 110 66zM293 408c-33.333 0 -61.168 -10 -83.501 -30s-35.833 -45.333 -40.5 -76h239
c-1.33301 31.333 -12.666 56.833 -33.999 76.5s-48.333 29.5 -81 29.5z" />
    <glyph glyph-name="Ebreve" unicode="&#x114;" horiz-adv-x="586" 
d="M450 900c0 -37.333 -14.001 -68.833 -42.001 -94.5s-62.667 -38.5 -104 -38.5s-76.333 12.833 -105 38.5s-43 57.167 -43 94.5h95c0 -16 4.83301 -29.667 14.5 -41s22.834 -17 39.501 -17c16 0 28.5 5.66699 37.5 17s13.5 25 13.5 41h94zM197.999 115h350v-115h-479v700
h469v-115h-340v-174h293v-112h-293v-184z" />
    <glyph glyph-name="ebreve" unicode="&#x115;" horiz-adv-x="575" 
d="M292 567c-41.333 0 -76.334 12.833 -105.001 38.5s-43 57.167 -43 94.5h95c0 -16 4.83301 -29.667 14.5 -41s22.834 -17 39.501 -17c16 0 28.5 5.66699 37.5 17s13.5 25 13.5 41h94c0 -37.333 -14 -68.833 -42 -94.5s-62.667 -38.5 -104 -38.5zM407.999 158h123
c-10 -52 -35.5 -93 -76.5 -123s-93.167 -45 -156.5 -45c-75.333 0 -137 23.5 -185 70.5s-72 108.5 -72 184.5c0 80 24.167 144.167 72.5 192.5s108.166 72.5 179.499 72.5c66.667 0 122.834 -21.667 168.501 -65s68.5 -107.333 68.5 -192c0 -6 -0.666992 -18.333 -2 -37
h-360c2.66699 -36.667 15.5 -66.5 38.5 -89.5s53.5 -34.5 91.5 -34.5c59.333 0 96 22 110 66zM292.999 408c-33.333 0 -61.168 -10 -83.501 -30s-35.833 -45.333 -40.5 -76h239c-1.33301 31.333 -12.666 56.833 -33.999 76.5s-48.333 29.5 -81 29.5z" />
    <glyph glyph-name="Edotaccent" unicode="&#x116;" horiz-adv-x="586" 
d="M304 764c-21.333 0 -39.833 7.66699 -55.5 23s-23.5 33.333 -23.5 54c0 22 7.83301 40.5 23.5 55.5s34.167 22.5 55.5 22.5s39.5 -7.5 54.5 -22.5s22.5 -33.5 22.5 -55.5c0 -20.667 -7.66699 -38.667 -23 -54s-33.333 -23 -54 -23zM198 115h350v-115h-479v700h469v-115
h-340v-174h293v-112h-293v-184z" />
    <glyph glyph-name="edotaccent" unicode="&#x117;" horiz-adv-x="575" 
d="M293 564c-21.333 0 -39.833 7.66699 -55.5 23s-23.5 33.333 -23.5 54c0 22 7.83301 40.5 23.5 55.5s34.167 22.5 55.5 22.5s39.5 -7.5 54.5 -22.5s22.5 -33.5 22.5 -55.5c0 -20.667 -7.66699 -38.667 -23 -54s-33.333 -23 -54 -23zM408 158h123
c-10 -52 -35.5 -93 -76.5 -123s-93.167 -45 -156.5 -45c-75.333 0 -137 23.5 -185 70.5s-72 108.5 -72 184.5c0 80 24.167 144.167 72.5 192.5s108.166 72.5 179.499 72.5c66.667 0 122.834 -21.667 168.501 -65s68.5 -107.333 68.5 -192c0 -6 -0.666992 -18.333 -2 -37
h-360c2.66699 -36.667 15.5 -66.5 38.5 -89.5s53.5 -34.5 91.5 -34.5c59.333 0 96 22 110 66zM293 408c-33.333 0 -61.168 -10 -83.501 -30s-35.833 -45.333 -40.5 -76h239c-1.33301 31.333 -12.666 56.833 -33.999 76.5s-48.333 29.5 -81 29.5z" />
    <glyph glyph-name="Eogonek" unicode="&#x118;" horiz-adv-x="586" 
d="M538 -106c16 0 31.333 2 46 6v-70c-17.333 -5.33301 -37.333 -8 -60 -8c-37.333 0 -67 8 -89 24s-33 39 -33 69c0 34 18.667 62.333 56 85h-389v700h469v-115h-340v-174h293v-112h-293v-184h350v-115c-44.667 -13.333 -67 -35.333 -67 -66c0 -26.667 19 -40 57 -40z" />
    <glyph glyph-name="eogonek" unicode="&#x119;" horiz-adv-x="575" 
d="M371 -2c-40.667 -13.333 -60.999 -34.665 -60.999 -63.998c0 -26.667 19 -40 57 -40c15.333 0 30.666 2 45.999 6v-70c-17.333 -5.33301 -37.333 -8 -60 -8c-37.333 0 -67 8 -89 24s-33 39 -33 69s14 55.333 42 76c-68.667 5.33301 -124.5 31.166 -167.5 77.499
s-64.5 105.166 -64.5 176.499c0 80 24.167 144.167 72.5 192.5s108.166 72.5 179.499 72.5c66.667 0 122.834 -21.667 168.501 -65s68.5 -107.333 68.5 -192c0 -6 -0.666992 -18.333 -2 -37h-360c2.66699 -36.667 15.5 -66.5 38.5 -89.5s53.5 -34.5 91.5 -34.5
c59.333 0 96 22 110 66h123c-8 -40.667 -25.833 -75 -53.5 -103s-63.167 -47 -106.5 -57zM293.001 408.001c-33.333 0 -61.168 -10 -83.501 -30s-35.833 -45.333 -40.5 -76h239c-1.33301 31.333 -12.666 56.833 -33.999 76.5s-48.333 29.5 -81 29.5z" />
    <glyph glyph-name="Ecaron" unicode="&#x11a;" horiz-adv-x="586" 
d="M359 900h107l-108 -148h-107l-108 148h107l51 -77h8zM198 115h350v-115h-479v700h469v-115h-340v-174h293v-112h-293v-184z" />
    <glyph glyph-name="ecaron" unicode="&#x11b;" horiz-adv-x="575" 
d="M346 552h-107l-108 148h107l51 -77h8l50 77h107zM408 158h123c-10 -52 -35.5 -93 -76.5 -123s-93.167 -45 -156.5 -45c-75.333 0 -137 23.5 -185 70.5s-72 108.5 -72 184.5c0 80 24.167 144.167 72.5 192.5s108.166 72.5 179.499 72.5
c66.667 0 122.834 -21.667 168.501 -65s68.5 -107.333 68.5 -192c0 -6 -0.666992 -18.333 -2 -37h-360c2.66699 -36.667 15.5 -66.5 38.5 -89.5s53.5 -34.5 91.5 -34.5c59.333 0 96 22 110 66zM293 408c-33.333 0 -61.168 -10 -83.501 -30s-35.833 -45.333 -40.5 -76h239
c-1.33301 31.333 -12.666 56.833 -33.999 76.5s-48.333 29.5 -81 29.5z" />
    <glyph glyph-name="Gcircumflex" unicode="&#x11c;" horiz-adv-x="787" 
d="M338 752h-107l108 148h107l108 -148h-107l-51 77h-7zM401 380h317v-380h-105l-13 67h-8c-51.333 -51.333 -121 -77 -209 -77c-100 0 -180.167 32.5 -240.5 97.5s-90.5 149.167 -90.5 252.5c0 107.333 33 195.833 99 265.5s151.333 104.5 256 104.5
c86.667 0 156.667 -21 210 -63s85 -95.667 95 -161h-144c-10.667 32 -30 57 -58 75s-62.333 27 -103 27c-66.667 0 -120 -23.167 -160 -69.5s-60 -105.833 -60 -178.5c0 -68.667 19 -124.5 57 -167.5s90 -64.5 156 -64.5c54.667 0 99.5 12 134.5 36s52.5 58.333 52.5 103v30
h-186v103z" />
    <glyph glyph-name="gcircumflex" unicode="&#x11d;" horiz-adv-x="557" 
d="M276 629l-51 -77h-107l108 148h107l108 -148h-107l-51 77h-7zM540 486c-19.333 -20 -46.335 -38.3389 -81.002 -55.0059c21.333 -27.333 32 -58.666 32 -93.999c0 -52 -19.667 -93 -59 -123s-89.666 -45 -150.999 -45c-30 0 -58 3.66699 -84 11c-16 -8 -24 -19 -24 -33
c0 -25.333 22 -38 66 -38h98c58.667 0 103.667 -13.167 135 -39.5s47 -62.5 47 -108.5c0 -53.333 -21 -95.166 -63 -125.499s-99.333 -45.5 -172 -45.5c-74.667 0 -132.5 15.833 -173.5 47.5s-64.167 71.834 -69.5 120.501l76 67c-38 20.667 -57 51.334 -57 92.001
s22.333 73.334 67 98.001c-39.333 30.667 -59 71.334 -59 122.001c0 50 18.833 91.333 56.5 124s87.834 49 150.501 49c44 0 82.667 -8.33301 116 -25c35.333 18 64 41.667 86 71zM280.998 261.994c26.667 0 48 7.16699 64 21.5s24 32.833 24 55.5
c0 23.333 -7.83301 42.333 -23.5 57s-37.167 22 -64.5 22s-49.333 -7.33301 -66 -22s-25 -33.667 -25 -57c0 -22.667 8.33301 -41.167 25 -55.5s38.667 -21.5 66 -21.5zM396.998 -46.0059c0 19.333 -7.33301 33.333 -22 42s-32.667 13 -54 13h-91l-66 -56
c6 -19.333 19.167 -35.333 39.5 -48s47.5 -19 81.5 -19c32.667 0 59.5 5.83301 80.5 17.5s31.5 28.5 31.5 50.5z" />
    <glyph glyph-name="Gbreve" unicode="&#x11e;" horiz-adv-x="787" 
d="M538 900c0 -37.333 -14.001 -68.833 -42.001 -94.5s-62.667 -38.5 -104 -38.5s-76.333 12.833 -105 38.5s-43 57.167 -43 94.5h95c0 -16 4.83301 -29.667 14.5 -41s22.834 -17 39.501 -17c16 0 28.5 5.66699 37.5 17s13.5 25 13.5 41h94zM400.999 380h317v-380h-105
l-13 67h-8c-51.333 -51.333 -121 -77 -209 -77c-100 0 -180.167 32.5 -240.5 97.5s-90.5 149.167 -90.5 252.5c0 107.333 33 195.833 99 265.5s151.333 104.5 256 104.5c86.667 0 156.667 -21 210 -63s85 -95.667 95 -161h-144c-10.667 32 -30 57 -58 75s-62.333 27 -103 27
c-66.667 0 -120 -23.167 -160 -69.5s-60 -105.833 -60 -178.5c0 -68.667 19 -124.5 57 -167.5s90 -64.5 156 -64.5c54.667 0 99.5 12 134.5 36s52.5 58.333 52.5 103v30h-186v103z" />
    <glyph glyph-name="gbreve" unicode="&#x11f;" horiz-adv-x="557" 
d="M280 567c-41.333 0 -76.334 12.833 -105.001 38.5s-43 57.167 -43 94.5h95c0 -16 4.83301 -29.667 14.5 -41s22.834 -17 39.501 -17c16 0 28.5 5.66699 37.5 17s13.5 25 13.5 41h94c0 -37.333 -14 -68.833 -42 -94.5s-62.667 -38.5 -104 -38.5zM539.999 486
c-19.333 -20 -46.335 -38.3389 -81.002 -55.0059c21.333 -27.333 32 -58.666 32 -93.999c0 -52 -19.667 -93 -59 -123s-89.666 -45 -150.999 -45c-30 0 -58 3.66699 -84 11c-16 -8 -24 -19 -24 -33c0 -25.333 22 -38 66 -38h98c58.667 0 103.667 -13.167 135 -39.5
s47 -62.5 47 -108.5c0 -53.333 -21 -95.166 -63 -125.499s-99.333 -45.5 -172 -45.5c-74.667 0 -132.5 15.833 -173.5 47.5s-64.167 71.834 -69.5 120.501l76 67c-38 20.667 -57 51.334 -57 92.001s22.333 73.334 67 98.001c-39.333 30.667 -59 71.334 -59 122.001
c0 50 18.833 91.333 56.5 124s87.834 49 150.501 49c44 0 82.667 -8.33301 116 -25c35.333 18 64 41.667 86 71zM280.997 261.994c26.667 0 48 7.16699 64 21.5s24 32.833 24 55.5c0 23.333 -7.83301 42.333 -23.5 57s-37.167 22 -64.5 22s-49.333 -7.33301 -66 -22
s-25 -33.667 -25 -57c0 -22.667 8.33301 -41.167 25 -55.5s38.667 -21.5 66 -21.5zM396.997 -46.0059c0 19.333 -7.33301 33.333 -22 42s-32.667 13 -54 13h-91l-66 -56c6 -19.333 19.167 -35.333 39.5 -48s47.5 -19 81.5 -19c32.667 0 59.5 5.83301 80.5 17.5
s31.5 28.5 31.5 50.5z" />
    <glyph glyph-name="Gdotaccent" unicode="&#x120;" horiz-adv-x="787" 
d="M393 764c-21.333 0 -39.833 7.66699 -55.5 23s-23.5 33.333 -23.5 54c0 22 7.83301 40.5 23.5 55.5s34.167 22.5 55.5 22.5s39.5 -7.5 54.5 -22.5s22.5 -33.5 22.5 -55.5c0 -20.667 -7.66699 -38.667 -23 -54s-33.333 -23 -54 -23zM401 380h317v-380h-105l-13 67h-8
c-51.333 -51.333 -121 -77 -209 -77c-100 0 -180.167 32.5 -240.5 97.5s-90.5 149.167 -90.5 252.5c0 107.333 33 195.833 99 265.5s151.333 104.5 256 104.5c86.667 0 156.667 -21 210 -63s85 -95.667 95 -161h-144c-10.667 32 -30 57 -58 75s-62.333 27 -103 27
c-66.667 0 -120 -23.167 -160 -69.5s-60 -105.833 -60 -178.5c0 -68.667 19 -124.5 57 -167.5s90 -64.5 156 -64.5c54.667 0 99.5 12 134.5 36s52.5 58.333 52.5 103v30h-186v103z" />
    <glyph glyph-name="gdotaccent" unicode="&#x121;" horiz-adv-x="557" 
d="M280 564c-21.333 0 -39.833 7.66699 -55.5 23s-23.5 33.333 -23.5 54c0 22 7.83301 40.5 23.5 55.5s34.167 22.5 55.5 22.5s39.5 -7.5 54.5 -22.5s22.5 -33.5 22.5 -55.5c0 -20.667 -7.66699 -38.667 -23 -54s-33.333 -23 -54 -23zM540 486
c-19.333 -20 -46.335 -38.3389 -81.002 -55.0059c21.333 -27.333 32 -58.666 32 -93.999c0 -52 -19.667 -93 -59 -123s-89.666 -45 -150.999 -45c-30 0 -58 3.66699 -84 11c-16 -8 -24 -19 -24 -33c0 -25.333 22 -38 66 -38h98c58.667 0 103.667 -13.167 135 -39.5
s47 -62.5 47 -108.5c0 -53.333 -21 -95.166 -63 -125.499s-99.333 -45.5 -172 -45.5c-74.667 0 -132.5 15.833 -173.5 47.5s-64.167 71.834 -69.5 120.501l76 67c-38 20.667 -57 51.334 -57 92.001s22.333 73.334 67 98.001c-39.333 30.667 -59 71.334 -59 122.001
c0 50 18.833 91.333 56.5 124s87.834 49 150.501 49c44 0 82.667 -8.33301 116 -25c35.333 18 64 41.667 86 71zM280.998 261.994c26.667 0 48 7.16699 64 21.5s24 32.833 24 55.5c0 23.333 -7.83301 42.333 -23.5 57s-37.167 22 -64.5 22s-49.333 -7.33301 -66 -22
s-25 -33.667 -25 -57c0 -22.667 8.33301 -41.167 25 -55.5s38.667 -21.5 66 -21.5zM396.998 -46.0059c0 19.333 -7.33301 33.333 -22 42s-32.667 13 -54 13h-91l-66 -56c6 -19.333 19.167 -35.333 39.5 -48s47.5 -19 81.5 -19c32.667 0 59.5 5.83301 80.5 17.5
s31.5 28.5 31.5 50.5z" />
    <glyph glyph-name="uni0122" unicode="&#x122;" horiz-adv-x="787" 
d="M401 380h317v-380h-105l-13 67h-8c-51.333 -51.333 -121 -77 -209 -77c-100 0 -180.167 32.5 -240.5 97.5s-90.5 149.167 -90.5 252.5c0 107.333 33 195.833 99 265.5s151.333 104.5 256 104.5c86.667 0 156.667 -21 210 -63s85 -95.667 95 -161h-144
c-10.667 32 -30 57 -58 75s-62.333 27 -103 27c-66.667 0 -120 -23.167 -160 -69.5s-60 -105.833 -60 -178.5c0 -68.667 19 -124.5 57 -167.5s90 -64.5 156 -64.5c54.667 0 99.5 12 134.5 36s52.5 58.333 52.5 103v30h-186v103zM390 -51c25.333 0 45.667 -9.16699 61 -27.5
s23 -41.833 23 -70.5c0 -41.333 -12.333 -77.5 -37 -108.5s-54 -55.5 -88 -73.5l-35 33c46 37.333 69.333 69.333 70 96c-21.333 -1.33301 -39 4.66699 -53 18s-21 32 -21 56s7.5 42.833 22.5 56.5s34.167 20.5 57.5 20.5z" />
    <glyph glyph-name="uni0123" unicode="&#x123;" horiz-adv-x="557" 
d="M282 551c-25.333 0 -45.667 9.16699 -61 27.5s-23 41.833 -23 70.5c0 41.333 12.333 77.5 37 108.5s54 55.5 88 73.5l35 -33c-46 -37.333 -69.333 -69.333 -70 -96c21.333 1.33301 39 -4.66699 53 -18s21 -32 21 -56s-7.5 -42.833 -22.5 -56.5s-34.167 -20.5 -57.5 -20.5
zM539.999 486c-19.333 -20 -46.335 -38.3389 -81.002 -55.0059c21.333 -27.333 32 -58.666 32 -93.999c0 -52 -19.667 -93 -59 -123s-89.666 -45 -150.999 -45c-30 0 -58 3.66699 -84 11c-16 -8 -24 -19 -24 -33c0 -25.333 22 -38 66 -38h98
c58.667 0 103.667 -13.167 135 -39.5s47 -62.5 47 -108.5c0 -53.333 -21 -95.166 -63 -125.499s-99.333 -45.5 -172 -45.5c-74.667 0 -132.5 15.833 -173.5 47.5s-64.167 71.834 -69.5 120.501l76 67c-38 20.667 -57 51.334 -57 92.001s22.333 73.334 67 98.001
c-39.333 30.667 -59 71.334 -59 122.001c0 50 18.833 91.333 56.5 124s87.834 49 150.501 49c44 0 82.667 -8.33301 116 -25c35.333 18 64 41.667 86 71zM280.997 261.994c26.667 0 48 7.16699 64 21.5s24 32.833 24 55.5c0 23.333 -7.83301 42.333 -23.5 57
s-37.167 22 -64.5 22s-49.333 -7.33301 -66 -22s-25 -33.667 -25 -57c0 -22.667 8.33301 -41.167 25 -55.5s38.667 -21.5 66 -21.5zM396.997 -46.0059c0 19.333 -7.33301 33.333 -22 42s-32.667 13 -54 13h-91l-66 -56c6 -19.333 19.167 -35.333 39.5 -48s47.5 -19 81.5 -19
c32.667 0 59.5 5.83301 80.5 17.5s31.5 28.5 31.5 50.5z" />
    <glyph glyph-name="Hcircumflex" unicode="&#x124;" horiz-adv-x="696" 
d="M290 752h-107l108 148h107l108 -148h-107l-51 77h-7zM495 700h132v-700h-132v295h-294v-295h-132v700h132v-286h294v286z" />
    <glyph glyph-name="hcircumflex" unicode="&#x125;" horiz-adv-x="588" 
d="M67 752h-107l108 148h107l108 -148h-107l-51 77h-7zM338 510c60 0 107.5 -18.332 142.5 -54.999s52.5 -87.334 52.5 -152.001v-303h-128v277c0 39.333 -10 69.5 -30 90.5s-45.667 31.5 -77 31.5c-32.667 0 -60 -10.833 -82 -32.5s-33 -53.5 -33 -95.5v-271h-128v710h128
v-269h8c35.333 46 84.333 69 147 69z" />
    <glyph glyph-name="Hbar" unicode="&#x126;" horiz-adv-x="696" 
d="M495 700h132v-700h-132v295h-294v-295h-132v700h132v-95h294v95zM201 414h294v94h-294v-94z" />
    <glyph glyph-name="hbar" unicode="&#x127;" horiz-adv-x="588" 
d="M338 510c60 0 107.5 -18.332 142.5 -54.999s52.5 -87.334 52.5 -152.001v-303h-128v277c0 39.333 -10 69.5 -30 90.5s-45.667 31.5 -77 31.5c-32.667 0 -60 -10.833 -82 -32.5s-33 -53.5 -33 -95.5v-271h-128v554h-102v92h102v64h128v-64h131v-92h-131v-113h8
c35.333 46 84.333 69 147 69z" />
    <glyph glyph-name="Itilde" unicode="&#x128;" horiz-adv-x="270" 
d="M327 878c-2.66699 -39.333 -13.835 -72.167 -33.502 -98.5s-46.834 -39.5 -81.501 -39.5c-22.667 0 -42.5 5.16699 -59.5 15.5s-31.667 20.666 -44 30.999s-24.166 15.5 -35.499 15.5c-25.333 0 -40 -17.333 -44 -52h-85c2.66699 40 13.834 73.167 33.501 99.5
s47.167 39.5 82.5 39.5c24.667 0 45.334 -5.16699 62.001 -15.5s30.667 -20.666 42 -30.999s23 -15.5 35 -15.5c26 0 40.333 17 43 51h85zM200.999 699.999v-700h-132v700h132z" />
    <glyph glyph-name="itilde" unicode="&#x129;" horiz-adv-x="238" 
d="M311 678c-2.66699 -39.333 -13.835 -72.167 -33.502 -98.5s-46.834 -39.5 -81.501 -39.5c-22.667 0 -42.5 5.16699 -59.5 15.5s-31.667 20.666 -44 30.999s-24.166 15.5 -35.499 15.5c-25.333 0 -40 -17.333 -44 -52h-85c2.66699 40 13.834 73.167 33.501 99.5
s47.167 39.5 82.5 39.5c24.667 0 45.334 -5.16699 62.001 -15.5s30.667 -20.666 42 -30.999s23 -15.5 35 -15.5c26 0 40.333 17 43 51h85zM54.999 -0.000976562v500h128v-500h-128z" />
    <glyph glyph-name="Imacron" unicode="&#x12a;" horiz-adv-x="270" 
d="M-30 856h331v-87h-331v87zM201 700v-700h-132v700h132z" />
    <glyph glyph-name="imacron" unicode="&#x12b;" horiz-adv-x="238" 
d="M-46 656h331v-87h-331v87zM55 0v500h128v-500h-128z" />
    <glyph glyph-name="Ibreve" unicode="&#x12c;" horiz-adv-x="270" 
d="M281 900c0 -37.333 -14.001 -68.833 -42.001 -94.5s-62.667 -38.5 -104 -38.5s-76.333 12.833 -105 38.5s-43 57.167 -43 94.5h95c0 -16 4.83301 -29.667 14.5 -41s22.834 -17 39.501 -17c16 0 28.5 5.66699 37.5 17s13.5 25 13.5 41h94zM200.999 700v-700h-132v700h132z
" />
    <glyph glyph-name="ibreve" unicode="&#x12d;" horiz-adv-x="238" 
d="M265 700c0 -37.333 -14.001 -68.833 -42.001 -94.5s-62.667 -38.5 -104 -38.5s-76.333 12.833 -105 38.5s-43 57.167 -43 94.5h95c0 -16 4.83301 -29.667 14.5 -41s22.834 -17 39.501 -17c16 0 28.5 5.66699 37.5 17s13.5 25 13.5 41h94zM54.999 0v500h128v-500h-128z
" />
    <glyph glyph-name="Iogonek" unicode="&#x12e;" horiz-adv-x="270" 
d="M191 -106c15.333 0 30.667 2 46 6v-70c-17.333 -5.33301 -37.333 -8 -60 -8c-37.333 0 -67 8 -89 24s-33 39 -33 69c0 34 18.667 62.333 56 85h-42v700h132v-700c-44.667 -13.333 -67 -35.333 -67 -66c0 -26.667 19 -40 57 -40z" />
    <glyph glyph-name="iogonek" unicode="&#x12f;" horiz-adv-x="238" 
d="M119 564c-21.333 0 -39.833 7.66699 -55.5 23s-23.5 33.333 -23.5 54c0 22 7.83301 40.5 23.5 55.5s34.167 22.5 55.5 22.5s39.5 -7.5 54.5 -22.5s22.5 -33.5 22.5 -55.5c0 -20.667 -7.66699 -38.667 -23 -54s-33.333 -23 -54 -23zM173 -106c15.333 0 30.667 2 46 6v-70
c-17.333 -5.33301 -37.333 -8 -60 -8c-37.333 0 -67 8 -89 24s-33 39 -33 69c0 34 18.667 62.333 56 85h-38v500h128v-500c-44.667 -13.333 -67 -35.333 -67 -66c0 -26.667 19 -40 57 -40z" />
    <glyph glyph-name="Idotaccent" unicode="&#x130;" horiz-adv-x="270" 
d="M136 764c-21.333 0 -39.833 7.66699 -55.5 23s-23.5 33.333 -23.5 54c0 22 7.83301 40.5 23.5 55.5s34.167 22.5 55.5 22.5s39.5 -7.5 54.5 -22.5s22.5 -33.5 22.5 -55.5c0 -20.667 -7.66699 -38.667 -23 -54s-33.333 -23 -54 -23zM201 700v-700h-132v700h132z" />
    <glyph glyph-name="dotlessi" unicode="&#x131;" horiz-adv-x="238" 
d="M55 0v500h128v-500h-128z" />
    <glyph glyph-name="IJ" unicode="&#x132;" horiz-adv-x="808" 
d="M201 700v-700h-132v700h132zM429 211c1.33301 -29.333 9.49902 -53.166 24.499 -71.499s36.5 -27.5 64.5 -27.5c28.667 0 50.834 9 66.501 27s23.5 44.667 23.5 80v481h131v-485c0 -72.667 -19.833 -128.334 -59.5 -167.001s-93.167 -58 -160.5 -58
c-71.333 0 -127 19.833 -167 59.5s-60.667 93.5 -62 161.5h139z" />
    <glyph glyph-name="ij" unicode="&#x133;" horiz-adv-x="485" 
d="M119 564c-21.333 0 -39.833 7.66699 -55.5 23s-23.5 33.333 -23.5 54c0 22 7.83301 40.5 23.5 55.5s34.167 22.5 55.5 22.5s39.5 -7.5 54.5 -22.5s22.5 -33.5 22.5 -55.5c0 -20.667 -7.66699 -38.667 -23 -54s-33.333 -23 -54 -23zM359 564
c-21.333 0 -39.833 7.66699 -55.5 23s-23.5 33.333 -23.5 54c0 22 7.66699 40.5 23 55.5s34 22.5 56 22.5c21.333 0 39.333 -7.5 54 -22.5s22 -33.5 22 -55.5c0 -20.667 -7.5 -38.667 -22.5 -54s-32.833 -23 -53.5 -23zM55 0v500h128v-500h-128zM265 -210
c-26.667 0 -55.999 3.66699 -87.999 11v95c15.333 -4 31.666 -6 48.999 -6c45.333 0 68 20.333 68 61v549h128v-564c0 -97.333 -52.333 -146 -157 -146z" />
    <glyph glyph-name="Jcircumflex" unicode="&#x134;" horiz-adv-x="549" 
d="M359 752h-107l108 148h107l108 -148h-107l-51 77h-7zM170 211c1.33301 -29.333 9.49902 -53.166 24.499 -71.499s36.5 -27.5 64.5 -27.5c28.667 0 50.834 9 66.501 27s23.5 44.667 23.5 80v481h131v-485c0 -72.667 -19.833 -128.334 -59.5 -167.001
s-93.167 -58 -160.5 -58c-71.333 0 -127 19.833 -167 59.5s-60.667 93.5 -62 161.5h139z" />
    <glyph glyph-name="jcircumflex" unicode="&#x135;" horiz-adv-x="238" 
d="M64 552h-107l108 148h107l108 -148h-107l-51 77h-7zM26 -210c-26.667 0 -55.999 3.66699 -87.999 11v95c15.333 -4 31.666 -6 48.999 -6c45.333 0 68 20.333 68 61v549h128v-564c0 -97.333 -52.333 -146 -157 -146z" />
    <glyph glyph-name="uni0136" unicode="&#x136;" horiz-adv-x="648" 
d="M477 0l-225 300h-51v-300h-132v700h132v-281h51l198 281h148l-237 -332v-7l266 -361h-150zM337 -51c25.333 0 45.667 -9.16699 61 -27.5s23 -41.833 23 -70.5c0 -41.333 -12.333 -77.5 -37 -108.5s-54 -55.5 -88 -73.5l-35 33c46 37.333 69.333 69.333 70 96
c-21.333 -1.33301 -39 4.66699 -53 18s-21 32 -21 56s7.5 42.833 22.5 56.5s34.167 20.5 57.5 20.5z" />
    <glyph glyph-name="uni0137" unicode="&#x137;" horiz-adv-x="541" 
d="M525 500l-204 -199l204 -301h-141l-149 217l-52 -50v-167h-128v710h128v-383h8l180 173h154zM281 -51c25.333 0 45.667 -9.16699 61 -27.5s23 -41.833 23 -70.5c0 -41.333 -12.333 -77.5 -37 -108.5s-54 -55.5 -88 -73.5l-35 33c46 37.333 69.333 69.333 70 96
c-21.333 -1.33301 -39 4.66699 -53 18s-21 32 -21 56s7.5 42.833 22.5 56.5s34.167 20.5 57.5 20.5z" />
    <glyph glyph-name="Lacute" unicode="&#x139;" horiz-adv-x="579" 
d="M155 900h108l-86 -145h-98zM198 118h349v-118h-478v700h129v-582z" />
    <glyph glyph-name="lacute" unicode="&#x13a;" horiz-adv-x="238" 
d="M146 900h108l-86 -145h-98zM55 0v710h128v-710h-128z" />
    <glyph glyph-name="uni013B" unicode="&#x13b;" horiz-adv-x="579" 
d="M198 118h349v-118h-478v700h129v-582zM300 -51c25.333 0 45.667 -9.16699 61 -27.5s23 -41.833 23 -70.5c0 -41.333 -12.333 -77.5 -37 -108.5s-54 -55.5 -88 -73.5l-35 33c46 37.333 69.333 69.333 70 96c-21.333 -1.33301 -39 4.66699 -53 18s-21 32 -21 56
s7.5 42.833 22.5 56.5s34.167 20.5 57.5 20.5z" />
    <glyph glyph-name="uni013C" unicode="&#x13c;" horiz-adv-x="238" 
d="M55 0v710h128v-710h-128zM117 -51c25.333 0 45.667 -9.16699 61 -27.5s23 -41.833 23 -70.5c0 -41.333 -12.333 -77.5 -37 -108.5s-54 -55.5 -88 -73.5l-35 33c46 37.333 69.333 69.333 70 96c-21.333 -1.33301 -39 4.66699 -53 18s-21 32 -21 56s7.5 42.833 22.5 56.5
s34.167 20.5 57.5 20.5z" />
    <glyph glyph-name="Lcaron" unicode="&#x13d;" horiz-adv-x="579" 
d="M356 707c23.333 0 41.668 -9.16797 55.001 -27.501s20 -42.166 20 -71.499c0 -43.333 -11.167 -80.833 -33.5 -112.5s-48.833 -56.834 -79.5 -75.501l-30 37c40 34 61 68.667 63 104c-16.667 -2 -32 3.5 -46 16.5s-21 31.167 -21 54.5c0 22.667 6.66699 40.834 20 54.501
s30.666 20.5 51.999 20.5zM198.002 117.999h349v-118h-478v700h129v-582z" />
    <glyph glyph-name="lcaron" unicode="&#x13e;" horiz-adv-x="238" 
d="M55 0v710h128v-710h-128zM342 707c23.333 0 41.668 -9.16797 55.001 -27.501s20 -42.166 20 -71.499c0 -43.333 -11.167 -80.833 -33.5 -112.5s-48.833 -56.834 -79.5 -75.501l-30 37c40 34 61 68.667 63 104c-16.667 -2 -32 3.5 -46 16.5s-21 31.167 -21 54.5
c0 22.667 6.66699 40.834 20 54.501s30.666 20.5 51.999 20.5z" />
    <glyph glyph-name="Ldot" unicode="&#x13f;" horiz-adv-x="579" 
d="M198 118h349v-118h-478v700h129v-582zM374 337c-21.333 0 -39.833 7.66699 -55.5 23s-23.5 33.333 -23.5 54c0 22 7.83301 40.5 23.5 55.5s34.167 22.5 55.5 22.5s39.5 -7.5 54.5 -22.5s22.5 -33.5 22.5 -55.5c0 -20.667 -7.66699 -38.667 -23 -54s-33.333 -23 -54 -23z
" />
    <glyph glyph-name="ldot" unicode="&#x140;" horiz-adv-x="238" 
d="M119 764c-21.333 0 -39.833 7.66699 -55.5 23s-23.5 33.333 -23.5 54c0 22 7.83301 40.5 23.5 55.5s34.167 22.5 55.5 22.5s39.5 -7.5 54.5 -22.5s22.5 -33.5 22.5 -55.5c0 -20.667 -7.66699 -38.667 -23 -54s-33.333 -23 -54 -23zM55 0v710h128v-710h-128z" />
    <glyph glyph-name="Lslash" unicode="&#x141;" horiz-adv-x="579" 
d="M198 118h349v-118h-478v252l-109 -52v114l109 52v334h129v-272l179 86v-114l-179 -86v-196z" />
    <glyph glyph-name="lslash" unicode="&#x142;" horiz-adv-x="238" 
d="M274 495v-113l-91 -49v-333h-128v263l-89 -48v112l89 49v334h128v-265z" />
    <glyph glyph-name="Nacute" unicode="&#x143;" horiz-adv-x="725" 
d="M389 900h108l-86 -145h-98zM527 700h129v-700h-135l-315 468h-8v-468h-129v700h135l315 -471h8v471z" />
    <glyph glyph-name="nacute" unicode="&#x144;" horiz-adv-x="588" 
d="M321 700h108l-86 -145h-98zM55 0v500.001h117l11 -59h8c35.333 46 84.333 69 147 69c60 0 107.5 -18.333 142.5 -55s52.5 -87.334 52.5 -152.001v-303h-128v277c0 39.333 -10 69.5 -30 90.5s-45.667 31.5 -77 31.5c-32.667 0 -60 -10.833 -82 -32.5s-33 -53.5 -33 -95.5
v-271h-128z" />
    <glyph glyph-name="uni0145" unicode="&#x145;" horiz-adv-x="725" 
d="M527 700h129v-700h-135l-315 468h-8v-468h-129v700h135l315 -471h8v471zM360 -51c25.333 0 45.667 -9.16699 61 -27.5s23 -41.833 23 -70.5c0 -41.333 -12.333 -77.5 -37 -108.5s-54 -55.5 -88 -73.5l-35 33c46 37.333 69.333 69.333 70 96
c-21.333 -1.33301 -39 4.66699 -53 18s-21 32 -21 56s7.5 42.833 22.5 56.5s34.167 20.5 57.5 20.5z" />
    <glyph glyph-name="uni0146" unicode="&#x146;" horiz-adv-x="588" 
d="M55 0v500.001h117l11 -59h8c35.333 46 84.333 69 147 69c60 0 107.5 -18.333 142.5 -55s52.5 -87.334 52.5 -152.001v-303h-128v277c0 39.333 -10 69.5 -30 90.5s-45.667 31.5 -77 31.5c-32.667 0 -60 -10.833 -82 -32.5s-33 -53.5 -33 -95.5v-271h-128zM291 -50.999
c25.333 0 45.667 -9.16699 61 -27.5s23 -41.833 23 -70.5c0 -41.333 -12.333 -77.5 -37 -108.5s-54 -55.5 -88 -73.5l-35 33c46 37.333 69.333 69.333 70 96c-21.333 -1.33301 -39 4.66699 -53 18s-21 32 -21 56s7.5 42.833 22.5 56.5s34.167 20.5 57.5 20.5z" />
    <glyph glyph-name="Ncaron" unicode="&#x147;" horiz-adv-x="725" 
d="M417 900h107l-108 -148h-107l-108 148h107l51 -77h8zM527 700h129v-700h-135l-315 468h-8v-468h-129v700h135l315 -471h8v471z" />
    <glyph glyph-name="ncaron" unicode="&#x148;" horiz-adv-x="588" 
d="M348 700h107l-108 -148h-107l-108 148h107l51 -77h8zM55 0v500.001h117l11 -59h8c35.333 46 84.333 69 147 69c60 0 107.5 -18.333 142.5 -55s52.5 -87.334 52.5 -152.001v-303h-128v277c0 39.333 -10 69.5 -30 90.5s-45.667 31.5 -77 31.5
c-32.667 0 -60 -10.833 -82 -32.5s-33 -53.5 -33 -95.5v-271h-128z" />
    <glyph glyph-name="Eng" unicode="&#x14a;" horiz-adv-x="725" 
d="M527 700h129v-755c0 -52 -14.333 -90.833 -43 -116.5s-67 -38.5 -115 -38.5c-28.667 0 -59 3.66699 -91 11v95c18 -4 35.333 -6 52 -6c46 0 69 21.333 69 64v37l-322 477h-8v-468h-129v700h135l315 -471h8v471z" />
    <glyph glyph-name="eng" unicode="&#x14b;" horiz-adv-x="588" 
d="M338 510c60 0 107.5 -18.332 142.5 -54.999s52.5 -87.334 52.5 -152.001v-358c0 -52 -14.5 -90.833 -43.5 -116.5s-67.5 -38.5 -115.5 -38.5c-28 0 -58 3.66699 -90 11v95c18 -4 35.333 -6 52 -6c46 0 69 21.333 69 64v323c0 39.333 -10 69.5 -30 90.5
s-45.667 31.5 -77 31.5c-32.667 0 -60 -10.833 -82 -32.5s-33 -53.5 -33 -95.5v-271h-128v500h117l11 -59h8c35.333 46 84.333 69 147 69z" />
    <glyph glyph-name="Omacron" unicode="&#x14c;" horiz-adv-x="820" 
d="M245 856h331v-87h-331v87zM410 -10c-102.667 0 -188 34.1689 -256 102.502s-102 154.166 -102 257.499c0 102.667 33.833 188.334 101.5 257.001s153.167 103 256.5 103c102.667 0 188 -34.333 256 -103s102 -154.334 102 -257.001s-33.833 -188.334 -101.5 -257.001
s-153.167 -103 -256.5 -103zM411 112.002c64 0 117 22.667 159 68s63 102 63 170s-21.167 124.667 -63.5 170s-95.5 68 -159.5 68s-117.167 -22.667 -159.5 -68s-63.5 -102 -63.5 -170s21.167 -124.667 63.5 -170s95.833 -68 160.5 -68z" />
    <glyph glyph-name="omacron" unicode="&#x14d;" horiz-adv-x="611" 
d="M141 656h331v-87h-331v87zM305 -10c-75.333 0 -138.167 24.501 -188.5 73.501s-75.5 111.5 -75.5 187.5s25 138.167 75 186.5s113 72.5 189 72.5s139 -24.167 189 -72.5s75 -110.5 75 -186.5c0 -76.667 -25 -139.334 -75 -188.001s-113 -73 -189 -73zM304.999 101.001
c40.667 0 73.667 14.333 99 43s38 64.334 38 107.001c0 42 -12.667 77.167 -38 105.5s-58.333 42.5 -99 42.5s-73.5 -14.167 -98.5 -42.5s-37.5 -63.5 -37.5 -105.5c0 -42.667 12.667 -78.334 38 -107.001s58 -43 98 -43z" />
    <glyph glyph-name="Obreve" unicode="&#x14e;" horiz-adv-x="820" 
d="M556 900c0 -37.333 -14.001 -68.833 -42.001 -94.5s-62.667 -38.5 -104 -38.5s-76.333 12.833 -105 38.5s-43 57.167 -43 94.5h95c0 -16 4.83301 -29.667 14.5 -41s22.834 -17 39.501 -17c16 0 28.5 5.66699 37.5 17s13.5 25 13.5 41h94zM409.999 -10
c-102.667 0 -188 34.1689 -256 102.502s-102 154.166 -102 257.499c0 102.667 33.833 188.334 101.5 257.001s153.167 103 256.5 103c102.667 0 188 -34.333 256 -103s102 -154.334 102 -257.001s-33.833 -188.334 -101.5 -257.001s-153.167 -103 -256.5 -103z
M410.999 112.002c64 0 117 22.667 159 68s63 102 63 170s-21.167 124.667 -63.5 170s-95.5 68 -159.5 68s-117.167 -22.667 -159.5 -68s-63.5 -102 -63.5 -170s21.167 -124.667 63.5 -170s95.833 -68 160.5 -68z" />
    <glyph glyph-name="obreve" unicode="&#x14f;" horiz-adv-x="611" 
d="M451 700c0 -37.333 -14.001 -68.833 -42.001 -94.5s-62.667 -38.5 -104 -38.5s-76.333 12.833 -105 38.5s-43 57.167 -43 94.5h95c0 -16 4.83301 -29.667 14.5 -41s22.834 -17 39.501 -17c16 0 28.5 5.66699 37.5 17s13.5 25 13.5 41h94zM304.999 -10
c-75.333 0 -138.167 24.501 -188.5 73.501s-75.5 111.5 -75.5 187.5s25 138.167 75 186.5s113 72.5 189 72.5s139 -24.167 189 -72.5s75 -110.5 75 -186.5c0 -76.667 -25 -139.334 -75 -188.001s-113 -73 -189 -73zM304.998 101.001c40.667 0 73.667 14.333 99 43
s38 64.334 38 107.001c0 42 -12.667 77.167 -38 105.5s-58.333 42.5 -99 42.5s-73.5 -14.167 -98.5 -42.5s-37.5 -63.5 -37.5 -105.5c0 -42.667 12.667 -78.334 38 -107.001s58 -43 98 -43z" />
    <glyph glyph-name="Ohungarumlaut" unicode="&#x150;" horiz-adv-x="820" 
d="M332 900h105l-66 -145h-99zM510 900h105l-66 -145h-99zM410 -10c-102.667 0 -188 34.1689 -256 102.502s-102 154.166 -102 257.499c0 102.667 33.833 188.334 101.5 257.001s153.167 103 256.5 103c102.667 0 188 -34.333 256 -103s102 -154.334 102 -257.001
s-33.833 -188.334 -101.5 -257.001s-153.167 -103 -256.5 -103zM411 112.002c64 0 117 22.667 159 68s63 102 63 170s-21.167 124.667 -63.5 170s-95.5 68 -159.5 68s-117.167 -22.667 -159.5 -68s-63.5 -102 -63.5 -170s21.167 -124.667 63.5 -170s95.833 -68 160.5 -68z
" />
    <glyph glyph-name="ohungarumlaut" unicode="&#x151;" horiz-adv-x="611" 
d="M227 700h105l-66 -145h-99zM405 700h105l-66 -145h-99zM305 -10c-75.333 0 -138.167 24.501 -188.5 73.501s-75.5 111.5 -75.5 187.5s25 138.167 75 186.5s113 72.5 189 72.5s139 -24.167 189 -72.5s75 -110.5 75 -186.5c0 -76.667 -25 -139.334 -75 -188.001
s-113 -73 -189 -73zM304.999 101.001c40.667 0 73.667 14.333 99 43s38 64.334 38 107.001c0 42 -12.667 77.167 -38 105.5s-58.333 42.5 -99 42.5s-73.5 -14.167 -98.5 -42.5s-37.5 -63.5 -37.5 -105.5c0 -42.667 12.667 -78.334 38 -107.001s58 -43 98 -43z" />
    <glyph glyph-name="OE" unicode="&#x152;" horiz-adv-x="1107" 
d="M734 115l334.999 0.000976562v-115h-463v78c-57.333 -58.667 -129 -88 -215 -88c-97.333 0 -178.166 34 -242.499 102s-96.5 154 -96.5 258c0 103.333 32 189.166 96 257.499s145 102.5 243 102.5c84 0 155.667 -29 215 -87v77h453v-115h-325v-174h278v-112h-278v-184z
M394.999 112.001c60 0 109.499 22 148.499 66s58.5 101.333 58.5 172c0 70 -19.667 127.167 -59 171.5s-88.666 66.5 -147.999 66.5c-60.667 0 -110.5 -22 -149.5 -66s-58.5 -101.333 -58.5 -172c0 -70 19.667 -127.167 59 -171.5s89 -66.5 149 -66.5z" />
    <glyph glyph-name="oe" unicode="&#x153;" horiz-adv-x="808" 
d="M649 158l116 -0.00195312c-5.33301 -55.333 -25.666 -97.166 -60.999 -125.499s-79.333 -42.5 -132 -42.5c-70.667 0 -123.334 21.333 -158.001 64c-38 -42.667 -87.667 -64 -149 -64c-65.333 0 -119 23.833 -161 71.5s-63 110.834 -63 189.501s21 141.5 63 188.5
s95.667 70.5 161 70.5c62.667 0 113 -22 151 -66c34 44 84.667 66 152 66c56 0 102.5 -20 139.5 -60s55.5 -105.333 55.5 -196c0 -17.333 -0.333008 -31.333 -1 -42h-277c1.33301 -83.333 29.333 -125 84 -125c48 0 74.667 23.667 80 71zM568 412.998
c-52.667 0 -80.334 -37.667 -83.001 -113h159c0.666992 75.333 -24.666 113 -75.999 113zM266 91.998c29.333 0 52.666 14.167 69.999 42.5s26 67.166 26 116.499s-8.66699 87.833 -26 115.5s-40.666 41.5 -69.999 41.5c-30 0 -53.667 -13.833 -71 -41.5
s-26 -66.167 -26 -115.5s8.66699 -88.166 26 -116.499s41 -42.5 71 -42.5z" />
    <glyph glyph-name="Racute" unicode="&#x154;" horiz-adv-x="629" 
d="M454 900l-86 -145h-98l76 145h108zM598 0h-140l-146 273h-114v-273h-129v700h277c69.333 0 124.333 -18.833 165 -56.5s61 -87.5 61 -149.5c0 -46.667 -12 -87.167 -36 -121.5s-57 -59.5 -99 -75.5zM198 588v-203h133c33.333 0 59.833 9.5 79.5 28.5s29.5 43.5 29.5 73.5
c0 31.333 -9.66699 56 -29 74s-46 27 -80 27h-133z" />
    <glyph glyph-name="racute" unicode="&#x155;" horiz-adv-x="392" 
d="M242 700h108l-86 -145h-98zM55 0l0.00195312 500.001h116l12 -71h8c17.333 28 36.666 48.5 57.999 61.5s51.666 19.5 90.999 19.5h36v-128c-16 2.66699 -34 4 -54 4c-50 0 -85.667 -14.833 -107 -44.5s-32 -65.834 -32 -108.501v-233h-128z" />
    <glyph glyph-name="uni0156" unicode="&#x156;" horiz-adv-x="629" 
d="M437 297l161 -297h-140l-146 273h-114v-273h-129v700h277c69.333 0 124.333 -18.833 165 -56.5s61 -87.5 61 -149.5c0 -46.667 -12 -87.167 -36 -121.5s-57 -59.5 -99 -75.5zM198 588v-203h133c33.333 0 59.833 9.5 79.5 28.5s29.5 43.5 29.5 73.5
c0 31.333 -9.66699 56 -29 74s-46 27 -80 27h-133zM325 -51c25.333 0 45.667 -9.16699 61 -27.5s23 -41.833 23 -70.5c0 -41.333 -12.333 -77.5 -37 -108.5s-54 -55.5 -88 -73.5l-35 33c46 37.333 69.333 69.333 70 96c-21.333 -1.33301 -39 4.66699 -53 18s-21 32 -21 56
s7.5 42.833 22.5 56.5s34.167 20.5 57.5 20.5z" />
    <glyph glyph-name="uni0157" unicode="&#x157;" horiz-adv-x="392" 
d="M55 0l0.00195312 500.001h116l12 -71h8c17.333 28 36.666 48.5 57.999 61.5s51.666 19.5 90.999 19.5h36v-128c-16 2.66699 -34 4 -54 4c-50 0 -85.667 -14.833 -107 -44.5s-32 -65.834 -32 -108.501v-233h-128zM116.002 -50.999c25.333 0 45.667 -9.16699 61 -27.5
s23 -41.833 23 -70.5c0 -41.333 -12.333 -77.5 -37 -108.5s-54 -55.5 -88 -73.5l-35 33c46 37.333 69.333 69.333 70 96c-21.333 -1.33301 -39 4.66699 -53 18s-21 32 -21 56s7.5 42.833 22.5 56.5s34.167 20.5 57.5 20.5z" />
    <glyph glyph-name="Rcaron" unicode="&#x158;" horiz-adv-x="629" 
d="M372 752h-107l-108 148h107l51 -77h8l50 77h107zM598 0h-140l-146 273h-114v-273h-129v700h277c69.333 0 124.333 -18.833 165 -56.5s61 -87.5 61 -149.5c0 -46.667 -12 -87.167 -36 -121.5s-57 -59.5 -99 -75.5zM198 588v-203h133c33.333 0 59.833 9.5 79.5 28.5
s29.5 43.5 29.5 73.5c0 31.333 -9.66699 56 -29 74s-46 27 -80 27h-133z" />
    <glyph glyph-name="rcaron" unicode="&#x159;" horiz-adv-x="392" 
d="M270 700h107l-108 -148h-107l-108 148h107l51 -77h8zM55 0l0.00195312 500.001h116l12 -71h8c17.333 28 36.666 48.5 57.999 61.5s51.666 19.5 90.999 19.5h36v-128c-16 2.66699 -34 4 -54 4c-50 0 -85.667 -14.833 -107 -44.5s-32 -65.834 -32 -108.501v-233h-128z" />
    <glyph glyph-name="Sacute" unicode="&#x15a;" horiz-adv-x="610" 
d="M338 900h108l-86 -145h-98zM556 192c0 -65.333 -23.168 -115.336 -69.501 -150.003s-104.166 -52 -173.499 -52c-81.333 0 -144.5 20.167 -189.5 60.5s-68.833 94.833 -71.5 163.5h130c3.33301 -35.333 16.166 -62.833 38.499 -82.5s53.166 -29.5 92.499 -29.5
c32 0 58.333 7.16699 79 21.5s31 35.833 31 64.5c0 16.667 -3.5 31.334 -10.5 44.001s-18 23.5 -33 32.5s-28.5 15.833 -40.5 20.5s-28.333 10 -49 16l-40 12c-117.333 35.333 -176 100.333 -176 195c0 61.333 22.333 110.333 67 147s101.334 55 170.001 55
c70.667 0 127.667 -19.167 171 -57.5s66 -87.833 68 -148.5h-130c-3.33301 28.667 -14 51.5 -32 68.5s-43.333 25.5 -76 25.5c-31.333 0 -56.666 -7.66699 -75.999 -23s-29 -35.666 -29 -60.999c0 -14 3.16699 -26.5 9.5 -37.5s16.166 -20.333 29.499 -28
s25.5 -13.5 36.5 -17.5s25.833 -9 44.5 -15l35 -11c17.333 -5.33301 32.833 -10.666 46.5 -15.999s30.334 -13.833 50.001 -25.5s36 -24.667 49 -39s24.333 -33 34 -56s14.5 -48.5 14.5 -76.5z" />
    <glyph glyph-name="sacute" unicode="&#x15b;" horiz-adv-x="499" 
d="M268 700h108l-86 -145h-98zM263 -10c-68.667 0 -122.002 15.168 -160.002 45.501s-58.667 71.833 -62 124.5h123c6.66699 -50 39.334 -75 98.001 -75c21.333 0 38.833 4.16699 52.5 12.5s20.5 21.166 20.5 38.499c0 18 -7.16699 31.833 -21.5 41.5s-36.5 18.5 -66.5 26.5
l-47 12c-20 4.66699 -37.167 9.83398 -51.5 15.501s-29.166 13.667 -44.499 24s-27 24 -35 41s-12 37.167 -12 60.5c0 48 18 85.5 54 112.5s80.333 40.5 133 40.5c64 0 113 -14.333 147 -43s53 -65.334 57 -110.001h-123c-5.33301 38.667 -32 58 -80 58
c-20 0 -36 -4.5 -48 -13.5s-18 -21.5 -18 -37.5s6.16699 -27.5 18.5 -34.5s33.5 -14.5 63.5 -22.5l47 -12c48 -12 84.833 -30 110.5 -54s38.5 -58 38.5 -102c0 -49.333 -18.167 -86.5 -54.5 -111.5s-82.833 -37.5 -139.5 -37.5z" />
    <glyph glyph-name="Scircumflex" unicode="&#x15c;" horiz-adv-x="610" 
d="M256 752h-107l108 148h107l108 -148h-107l-51 77h-7zM556 192c0 -65.333 -23.168 -115.336 -69.501 -150.003s-104.166 -52 -173.499 -52c-81.333 0 -144.5 20.167 -189.5 60.5s-68.833 94.833 -71.5 163.5h130c3.33301 -35.333 16.166 -62.833 38.499 -82.5
s53.166 -29.5 92.499 -29.5c32 0 58.333 7.16699 79 21.5s31 35.833 31 64.5c0 16.667 -3.5 31.334 -10.5 44.001s-18 23.5 -33 32.5s-28.5 15.833 -40.5 20.5s-28.333 10 -49 16l-40 12c-117.333 35.333 -176 100.333 -176 195c0 61.333 22.333 110.333 67 147
s101.334 55 170.001 55c70.667 0 127.667 -19.167 171 -57.5s66 -87.833 68 -148.5h-130c-3.33301 28.667 -14 51.5 -32 68.5s-43.333 25.5 -76 25.5c-31.333 0 -56.666 -7.66699 -75.999 -23s-29 -35.666 -29 -60.999c0 -14 3.16699 -26.5 9.5 -37.5
s16.166 -20.333 29.499 -28s25.5 -13.5 36.5 -17.5s25.833 -9 44.5 -15l35 -11c17.333 -5.33301 32.833 -10.666 46.5 -15.999s30.334 -13.833 50.001 -25.5s36 -24.667 49 -39s24.333 -33 34 -56s14.5 -48.5 14.5 -76.5z" />
    <glyph glyph-name="scircumflex" unicode="&#x15d;" horiz-adv-x="499" 
d="M186 552h-107l108 148h107l108 -148h-107l-51 77h-7zM263 -10c-68.667 0 -122.002 15.168 -160.002 45.501s-58.667 71.833 -62 124.5h123c6.66699 -50 39.334 -75 98.001 -75c21.333 0 38.833 4.16699 52.5 12.5s20.5 21.166 20.5 38.499
c0 18 -7.16699 31.833 -21.5 41.5s-36.5 18.5 -66.5 26.5l-47 12c-20 4.66699 -37.167 9.83398 -51.5 15.501s-29.166 13.667 -44.499 24s-27 24 -35 41s-12 37.167 -12 60.5c0 48 18 85.5 54 112.5s80.333 40.5 133 40.5c64 0 113 -14.333 147 -43s53 -65.334 57 -110.001
h-123c-5.33301 38.667 -32 58 -80 58c-20 0 -36 -4.5 -48 -13.5s-18 -21.5 -18 -37.5s6.16699 -27.5 18.5 -34.5s33.5 -14.5 63.5 -22.5l47 -12c48 -12 84.833 -30 110.5 -54s38.5 -58 38.5 -102c0 -49.333 -18.167 -86.5 -54.5 -111.5s-82.833 -37.5 -139.5 -37.5z" />
    <glyph glyph-name="Scedilla" unicode="&#x15e;" horiz-adv-x="610" 
d="M556 192c0 -60.667 -20.332 -108.167 -60.999 -142.5s-92.334 -53.833 -155.001 -58.5l-22 -34c26 1.33301 49 -5.33398 69 -20.001s30 -35.334 30 -62.001c0 -26 -9.33301 -46.667 -28 -62s-45 -23 -79 -23c-32 0 -59 8 -81 24l22 51c20.667 -12 39.667 -18 57 -18
c12.667 0 22.667 2.83301 30 8.5s11 13.167 11 22.5c0 20.667 -13.667 31 -41 31c-8.66699 0 -19 -2 -31 -6l-42 33l35 56c-68 7.33301 -120.667 30.666 -158 69.999s-57.333 90 -60 152h130c3.33301 -35.333 16.166 -62.833 38.499 -82.5s53.166 -29.5 92.499 -29.5
c32 0 58.333 7.16699 79 21.5s31 35.833 31 64.5c0 16.667 -3.5 31.334 -10.5 44.001s-18 23.5 -33 32.5s-28.5 15.833 -40.5 20.5s-28.333 10 -49 16l-40 12c-117.333 35.333 -176 100.333 -176 195c0 61.333 22.333 110.333 67 147s101.334 55 170.001 55
c70.667 0 127.667 -19.167 171 -57.5s66 -87.833 68 -148.5h-130c-3.33301 28.667 -14 51.5 -32 68.5s-43.333 25.5 -76 25.5c-31.333 0 -56.666 -7.66699 -75.999 -23s-29 -35.666 -29 -60.999c0 -14 3.16699 -26.5 9.5 -37.5s16.166 -20.333 29.499 -28
s25.5 -13.5 36.5 -17.5s25.833 -9 44.5 -15l35 -11c17.333 -5.33301 32.833 -10.666 46.5 -15.999s30.334 -13.833 50.001 -25.5s36 -24.667 49 -39s24.333 -33 34 -56s14.5 -48.5 14.5 -76.5z" />
    <glyph glyph-name="scedilla" unicode="&#x15f;" horiz-adv-x="499" 
d="M457 139c0 -44.667 -15.3369 -79.4971 -46.0039 -104.497s-71 -39.5 -121 -43.5l-22 -34c26 1.33301 49 -5.33398 69 -20.001s30 -35.334 30 -62.001c0 -26 -9.33301 -46.667 -28 -62s-45 -23 -79 -23c-32 0 -59 8 -81 24l22 51c20.667 -12 39.667 -18 57 -18
c12.667 0 22.667 2.83301 30 8.5s11 13.167 11 22.5c0 20.667 -13.667 31 -41 31c-8.66699 0 -19 -2 -31 -6l-42 33l35 56c-55.333 6.66699 -98.166 24.667 -128.499 54s-47.166 67.333 -50.499 114h123c6.66699 -50 39.334 -75 98.001 -75
c21.333 0 38.833 4.16699 52.5 12.5s20.5 21.166 20.5 38.499c0 18 -7.16699 31.833 -21.5 41.5s-36.5 18.5 -66.5 26.5l-47 12c-20 4.66699 -37.167 9.83398 -51.5 15.501s-29.166 13.667 -44.499 24s-27 24 -35 41s-12 37.167 -12 60.5c0 48 18 85.5 54 112.5
s80.333 40.5 133 40.5c64 0 113 -14.333 147 -43s53 -65.334 57 -110.001h-123c-5.33301 38.667 -32 58 -80 58c-20 0 -36 -4.5 -48 -13.5s-18 -21.5 -18 -37.5s6.16699 -27.5 18.5 -34.5s33.5 -14.5 63.5 -22.5l47 -12c48 -12 84.833 -30 110.5 -54s38.5 -58 38.5 -102z
" />
    <glyph glyph-name="Scaron" unicode="&#x160;" horiz-adv-x="610" 
d="M365 900h107l-108 -148h-107l-108 148h107l51 -77h8zM556 192c0 -65.333 -23.168 -115.336 -69.501 -150.003s-104.166 -52 -173.499 -52c-81.333 0 -144.5 20.167 -189.5 60.5s-68.833 94.833 -71.5 163.5h130c3.33301 -35.333 16.166 -62.833 38.499 -82.5
s53.166 -29.5 92.499 -29.5c32 0 58.333 7.16699 79 21.5s31 35.833 31 64.5c0 16.667 -3.5 31.334 -10.5 44.001s-18 23.5 -33 32.5s-28.5 15.833 -40.5 20.5s-28.333 10 -49 16l-40 12c-117.333 35.333 -176 100.333 -176 195c0 61.333 22.333 110.333 67 147
s101.334 55 170.001 55c70.667 0 127.667 -19.167 171 -57.5s66 -87.833 68 -148.5h-130c-3.33301 28.667 -14 51.5 -32 68.5s-43.333 25.5 -76 25.5c-31.333 0 -56.666 -7.66699 -75.999 -23s-29 -35.666 -29 -60.999c0 -14 3.16699 -26.5 9.5 -37.5
s16.166 -20.333 29.499 -28s25.5 -13.5 36.5 -17.5s25.833 -9 44.5 -15l35 -11c17.333 -5.33301 32.833 -10.666 46.5 -15.999s30.334 -13.833 50.001 -25.5s36 -24.667 49 -39s24.333 -33 34 -56s14.5 -48.5 14.5 -76.5z" />
    <glyph glyph-name="scaron" unicode="&#x161;" horiz-adv-x="499" 
d="M295 700h107l-108 -148h-107l-108 148h107l51 -77h8zM263 -10c-68.667 0 -122.002 15.168 -160.002 45.501s-58.667 71.833 -62 124.5h123c6.66699 -50 39.334 -75 98.001 -75c21.333 0 38.833 4.16699 52.5 12.5s20.5 21.166 20.5 38.499
c0 18 -7.16699 31.833 -21.5 41.5s-36.5 18.5 -66.5 26.5l-47 12c-20 4.66699 -37.167 9.83398 -51.5 15.501s-29.166 13.667 -44.499 24s-27 24 -35 41s-12 37.167 -12 60.5c0 48 18 85.5 54 112.5s80.333 40.5 133 40.5c64 0 113 -14.333 147 -43s53 -65.334 57 -110.001
h-123c-5.33301 38.667 -32 58 -80 58c-20 0 -36 -4.5 -48 -13.5s-18 -21.5 -18 -37.5s6.16699 -27.5 18.5 -34.5s33.5 -14.5 63.5 -22.5l47 -12c48 -12 84.833 -30 110.5 -54s38.5 -58 38.5 -102c0 -49.333 -18.167 -86.5 -54.5 -111.5s-82.833 -37.5 -139.5 -37.5z" />
    <glyph glyph-name="uni0162" unicode="&#x162;" horiz-adv-x="591" 
d="M361 0l-30 0.00195312l-28 -43c26 1.33301 49 -5.33398 69 -20.001s30 -35.334 30 -62.001c0 -26 -9.33301 -46.667 -28 -62s-45 -23 -79 -23c-32 0 -59 8 -81 24l22 51c20.667 -12 39.667 -18 57 -18c12.667 0 22.667 2.83301 30 8.5s11 13.167 11 22.5
c0 20.667 -13.667 31 -41 31c-8.66699 0 -19 -2 -31 -6l-42 33l40 64h-31v582h-198v118h528v-118h-198v-582z" />
    <glyph glyph-name="uni0163" unicode="&#x163;" horiz-adv-x="398" 
d="M382 399l-131 0.00195312v-246c0 -11.333 1.16699 -21 3.5 -29s8.83301 -15.5 19.5 -22.5s25.334 -10.5 44.001 -10.5c15.333 0 31.666 2.33301 48.999 7v-97c-32 -7.33301 -61.333 -11 -88 -11h-4l-22 -33c26 1.33301 49 -5.33398 69 -20.001s30 -35.334 30 -62.001
c0 -26 -9.33301 -46.667 -28 -62s-45 -23 -79 -23c-32 0 -59 8 -81 24l22 51c20.667 -12 39.667 -18 57 -18c12.667 0 22.667 2.83301 30 8.5s11 13.167 11 22.5c0 20.667 -13.667 31 -41 31c-8.66699 0 -19 -2 -31 -6l-42 33l40 64c-58 18.667 -87 64 -87 136v263h-107v101
h34c30.667 0 52.5 5.83301 65.5 17.5s19.5 31.167 19.5 58.5v60h116v-136h131v-101z" />
    <glyph glyph-name="Tcaron" unicode="&#x164;" horiz-adv-x="591" 
d="M349 752h-107l-108 148h107l51 -77h8l50 77h107zM559 700v-118h-198v-582h-132v582h-198v118h528z" />
    <glyph glyph-name="tcaron" unicode="&#x165;" horiz-adv-x="398" 
d="M399 793c22 0 39.333 -7.99902 52 -23.999s19 -36.667 19 -62c0 -68.667 -35.333 -123.667 -106 -165l-28 33c38.667 31.333 58.334 61.666 59.001 90.999c-15.333 -1.33301 -29.5 3.5 -42.5 14.5s-19.5 26.833 -19.5 47.5c0 20 6.16699 35.833 18.5 47.5
s28.166 17.5 47.499 17.5zM279 -9.99902c-104 0 -156 48.667 -156 146v263h-107v101h34c30.667 0 52.5 5.83301 65.5 17.5s19.5 31.167 19.5 58.5v60h116v-136h131v-101h-131v-246c0 -11.333 1.16699 -21 3.5 -29s8.83301 -15.5 19.5 -22.5s25.334 -10.5 44.001 -10.5
c15.333 0 31.666 2.33301 48.999 7v-97c-32 -7.33301 -61.333 -11 -88 -11z" />
    <glyph glyph-name="Tbar" unicode="&#x166;" horiz-adv-x="591" 
d="M559 582h-198v-200h144v-97h-144v-285h-132v285h-144v97h144v200h-198v118h528v-118z" />
    <glyph glyph-name="tbar" unicode="&#x167;" horiz-adv-x="398" 
d="M382 399h-131v-90h128v-92h-128v-64c0 -11.333 1.16699 -21 3.5 -29s8.83301 -15.5 19.5 -22.5s25.334 -10.5 44.001 -10.5c15.333 0 31.666 2.33301 48.999 7v-97c-32 -7.33301 -61.333 -11 -88 -11c-104 0 -156 48.667 -156 146v81h-105v92h105v90h-107v101h34
c30.667 0 52.5 5.83301 65.5 17.5s19.5 31.167 19.5 58.5v60h116v-136h131v-101z" />
    <glyph glyph-name="Utilde" unicode="&#x168;" horiz-adv-x="713" 
d="M548 878c-2.66699 -39.333 -13.835 -72.167 -33.502 -98.5s-46.834 -39.5 -81.501 -39.5c-22.667 0 -42.5 5.16699 -59.5 15.5s-31.667 20.666 -44 30.999s-24.166 15.5 -35.499 15.5c-25.333 0 -40 -17.333 -44 -52h-85c2.66699 40 13.834 73.167 33.501 99.5
s47.167 39.5 82.5 39.5c24.667 0 45.334 -5.16699 62.001 -15.5s30.667 -20.666 42 -30.999s23 -15.5 35 -15.5c26 0 40.333 17 43 51h85zM643.999 699.999v-429c0 -91.333 -26.333 -161 -79 -209s-121.667 -72 -207 -72c-86 0 -155.667 24 -209 72s-80 117.667 -80 209v429
h132v-425c0 -51.333 14.5 -91.333 43.5 -120s66.833 -43 113.5 -43s84 14.167 112 42.5s42 68.5 42 120.5v425h132z" />
    <glyph glyph-name="utilde" unicode="&#x169;" horiz-adv-x="588" 
d="M486 678c-2.66699 -39.333 -13.835 -72.167 -33.502 -98.5s-46.834 -39.5 -81.501 -39.5c-22.667 0 -42.5 5.16699 -59.5 15.5s-31.667 20.666 -44 30.999s-24.166 15.5 -35.499 15.5c-25.333 0 -40 -17.333 -44 -52h-85c2.66699 40 13.834 73.167 33.501 99.5
s47.167 39.5 82.5 39.5c24.667 0 45.334 -5.16699 62.001 -15.5s30.667 -20.666 42 -30.999s23 -15.5 35 -15.5c26 0 40.333 17 43 51h85zM532.999 499.999l-0.000976562 -500.001h-117l-11 59h-8c-35.333 -46 -84.333 -69 -147 -69c-60 0 -107.5 18.333 -142.5 55
s-52.5 87.334 -52.5 152.001v303h128v-277c0 -39.333 10 -69.5 30 -90.5s46 -31.5 78 -31.5c32.667 0 59.834 10.833 81.501 32.5s32.5 53.5 32.5 95.5v271h128z" />
    <glyph glyph-name="Umacron" unicode="&#x16a;" horiz-adv-x="713" 
d="M192 856h331v-87h-331v87zM644 700v-429c0 -91.333 -26.333 -161 -79 -209s-121.667 -72 -207 -72c-86 0 -155.667 24 -209 72s-80 117.667 -80 209v429h132v-425c0 -51.333 14.5 -91.333 43.5 -120s66.833 -43 113.5 -43s84 14.167 112 42.5s42 68.5 42 120.5v425h132z
" />
    <glyph glyph-name="umacron" unicode="&#x16b;" horiz-adv-x="588" 
d="M129 656h331v-87h-331v87zM533 500l-0.000976562 -500.001h-117l-11 59h-8c-35.333 -46 -84.333 -69 -147 -69c-60 0 -107.5 18.333 -142.5 55s-52.5 87.334 -52.5 152.001v303h128v-277c0 -39.333 10 -69.5 30 -90.5s46 -31.5 78 -31.5
c32.667 0 59.834 10.833 81.501 32.5s32.5 53.5 32.5 95.5v271h128z" />
    <glyph glyph-name="Ubreve" unicode="&#x16c;" horiz-adv-x="713" 
d="M502 900c0 -37.333 -14.001 -68.833 -42.001 -94.5s-62.667 -38.5 -104 -38.5s-76.333 12.833 -105 38.5s-43 57.167 -43 94.5h95c0 -16 4.83301 -29.667 14.5 -41s22.834 -17 39.501 -17c16 0 28.5 5.66699 37.5 17s13.5 25 13.5 41h94zM643.999 700v-429
c0 -91.333 -26.333 -161 -79 -209s-121.667 -72 -207 -72c-86 0 -155.667 24 -209 72s-80 117.667 -80 209v429h132v-425c0 -51.333 14.5 -91.333 43.5 -120s66.833 -43 113.5 -43s84 14.167 112 42.5s42 68.5 42 120.5v425h132z" />
    <glyph glyph-name="ubreve" unicode="&#x16d;" horiz-adv-x="588" 
d="M440 700c0 -37.333 -14.001 -68.833 -42.001 -94.5s-62.667 -38.5 -104 -38.5s-76.333 12.833 -105 38.5s-43 57.167 -43 94.5h95c0 -16 4.83301 -29.667 14.5 -41s22.834 -17 39.501 -17c16 0 28.5 5.66699 37.5 17s13.5 25 13.5 41h94zM532.999 500
l-0.000976562 -500.001h-117l-11 59h-8c-35.333 -46 -84.333 -69 -147 -69c-60 0 -107.5 18.333 -142.5 55s-52.5 87.334 -52.5 152.001v303h128v-277c0 -39.333 10 -69.5 30 -90.5s46 -31.5 78 -31.5c32.667 0 59.834 10.833 81.501 32.5s32.5 53.5 32.5 95.5v271h128z" />
    <glyph glyph-name="Uring" unicode="&#x16e;" horiz-adv-x="713" 
d="M355 734c-27.333 0 -51 9.66699 -71 29s-30 42.333 -30 69s10 49.834 30 69.501s43.667 29.5 71 29.5c28 0 52.167 -9.83301 72.5 -29.5s30.5 -42.834 30.5 -69.501s-10.167 -49.667 -30.5 -69s-44.5 -29 -72.5 -29zM357 801c8 0 15.167 3.16699 21.5 9.5
s9.5 13.5 9.5 21.5c0 8.66699 -3.16699 16 -9.5 22s-13.5 9 -21.5 9c-9.33301 0 -17.166 -3 -23.499 -9s-9.5 -13.333 -9.5 -22c0 -8 3.16699 -15.167 9.5 -21.5s14.166 -9.5 23.499 -9.5zM644 700v-429c0 -91.333 -26.333 -161 -79 -209s-121.667 -72 -207 -72
c-86 0 -155.667 24 -209 72s-80 117.667 -80 209v429h132v-425c0 -51.333 14.5 -91.333 43.5 -120s66.833 -43 113.5 -43s84 14.167 112 42.5s42 68.5 42 120.5v425h132z" />
    <glyph glyph-name="uring" unicode="&#x16f;" horiz-adv-x="588" 
d="M293 534c-27.333 0 -51 9.66699 -71 29s-30 42.333 -30 69s10 49.834 30 69.501s43.667 29.5 71 29.5c28 0 52.167 -9.83301 72.5 -29.5s30.5 -42.834 30.5 -69.501s-10.167 -49.667 -30.5 -69s-44.5 -29 -72.5 -29zM295 601c8 0 15.167 3.16699 21.5 9.5
s9.5 13.5 9.5 21.5c0 8.66699 -3.16699 16 -9.5 22s-13.5 9 -21.5 9c-9.33301 0 -17.166 -3 -23.499 -9s-9.5 -13.333 -9.5 -22c0 -8 3.16699 -15.167 9.5 -21.5s14.166 -9.5 23.499 -9.5zM533 500l-0.000976562 -500.001h-117l-11 59h-8c-35.333 -46 -84.333 -69 -147 -69
c-60 0 -107.5 18.333 -142.5 55s-52.5 87.334 -52.5 152.001v303h128v-277c0 -39.333 10 -69.5 30 -90.5s46 -31.5 78 -31.5c32.667 0 59.834 10.833 81.501 32.5s32.5 53.5 32.5 95.5v271h128z" />
    <glyph glyph-name="Uhungarumlaut" unicode="&#x170;" horiz-adv-x="713" 
d="M278 900h105l-66 -145h-99zM456 900h105l-66 -145h-99zM644 700v-429c0 -91.333 -26.333 -161 -79 -209s-121.667 -72 -207 -72c-86 0 -155.667 24 -209 72s-80 117.667 -80 209v429h132v-425c0 -51.333 14.5 -91.333 43.5 -120s66.833 -43 113.5 -43s84 14.167 112 42.5
s42 68.5 42 120.5v425h132z" />
    <glyph glyph-name="uhungarumlaut" unicode="&#x171;" horiz-adv-x="588" 
d="M216 700h105l-66 -145h-99zM394 700h105l-66 -145h-99zM533 500l-0.000976562 -500.001h-117l-11 59h-8c-35.333 -46 -84.333 -69 -147 -69c-60 0 -107.5 18.333 -142.5 55s-52.5 87.334 -52.5 152.001v303h128v-277c0 -39.333 10 -69.5 30 -90.5s46 -31.5 78 -31.5
c32.667 0 59.834 10.833 81.501 32.5s32.5 53.5 32.5 95.5v271h128z" />
    <glyph glyph-name="Uogonek" unicode="&#x172;" horiz-adv-x="713" 
d="M512 700h132.001v-429c0 -75.333 -18.167 -136 -54.5 -182s-85.833 -76 -148.5 -90c-42 -13.333 -63 -35 -63 -65c0 -26.667 19 -40 57 -40c15.333 0 30.666 2 45.999 6v-70c-17.333 -5.33301 -37.333 -8 -60 -8c-37.333 0 -67 8 -89 24s-33 39 -33 69
c0 30.667 13.667 55.667 41 75c-81.333 4 -146.833 29.833 -196.5 77.5s-74.5 115.5 -74.5 203.5v429h132v-425c0 -51.333 14.5 -91.333 43.5 -120s66.833 -43 113.5 -43s84 14.167 112 42.5s42 68.5 42 120.5v425z" />
    <glyph glyph-name="uogonek" unicode="&#x173;" horiz-adv-x="588" 
d="M523 -106c15.333 0 30.666 1.99902 45.999 5.99902v-70c-17.333 -5.33301 -37.333 -8 -60 -8c-37.333 0 -67 8 -89 24s-33 39 -33 69c0 34 18.667 62.333 56 85h-27l-11 59h-8c-35.333 -46 -84.333 -69 -147 -69c-60 0 -107.5 18.333 -142.5 55
s-52.5 87.334 -52.5 152.001v303h128v-277c0 -39.333 10 -69.5 30 -90.5s46 -31.5 78 -31.5c32.667 0 59.834 10.833 81.501 32.5s32.5 53.5 32.5 95.5v271h128v-500c-44.667 -13.333 -67 -35.333 -67 -66c0 -26.667 19 -40 57 -40z" />
    <glyph glyph-name="Wcircumflex" unicode="&#x174;" horiz-adv-x="921" 
d="M406 752h-107l108 148h107l108 -148h-107l-51 77h-7zM773 700h127l-152 -700h-146l-138 481h-8l-136 -481h-146l-153 700h128l103 -506h8l131 456h140l129 -456h8z" />
    <glyph glyph-name="wcircumflex" unicode="&#x175;" horiz-adv-x="775" 
d="M333 552h-107l108 148h107l108 -148h-107l-51 77h-7zM150 0l-133 500h118l85 -354h8l94 322h133l93 -323h8l84 355h119l-135 -500h-140l-92 326h-8l-94 -326h-140z" />
    <glyph glyph-name="Ycircumflex" unicode="&#x176;" horiz-adv-x="678" 
d="M284 752h-107l108 148h107l108 -148h-107l-51 77h-7zM500 700h157l-252 -391v-309h-132v309l-252 391h156l158 -247h8z" />
    <glyph glyph-name="ycircumflex" unicode="&#x177;" horiz-adv-x="569" 
d="M230 552h-107l108 148h107l108 -148h-107l-51 77h-7zM150 -210c-26 0 -52.999 3.66699 -80.999 11v95c19.333 -4 36.666 -6 51.999 -6c55.333 0 92 22.333 110 67l17 43h-40l-191 500h132l136 -369h8l127 369h132l-202 -562c-33.333 -98.667 -100 -148 -200 -148z" />
    <glyph glyph-name="Ydieresis" unicode="&#x178;" horiz-adv-x="678" 
d="M221 754c-21.333 0 -39.666 7.5 -54.999 22.5s-23 32.833 -23 53.5c0 21.333 7.66699 39.5 23 54.5s33.666 22.5 54.999 22.5c20 0 37.5 -7.5 52.5 -22.5s22.5 -33.167 22.5 -54.5c0 -20.667 -7.5 -38.5 -22.5 -53.5s-32.5 -22.5 -52.5 -22.5zM458 754
c-20 0 -37.5 7.5 -52.5 22.5s-22.5 32.833 -22.5 53.5c0 21.333 7.5 39.5 22.5 54.5s32.5 22.5 52.5 22.5c21.333 0 39.5 -7.5 54.5 -22.5s22.5 -33.167 22.5 -54.5c0 -20.667 -7.5 -38.5 -22.5 -53.5s-33.167 -22.5 -54.5 -22.5zM500 700h157l-252 -391v-309h-132v309
l-252 391h156l158 -247h8z" />
    <glyph glyph-name="Zacute" unicode="&#x179;" horiz-adv-x="626" 
d="M342 900h108l-86 -145h-98zM246 118h326v-118h-520v77l328 498v7h-311v118h493v-77l-316 -498v-7z" />
    <glyph glyph-name="zacute" unicode="&#x17a;" horiz-adv-x="501" 
d="M279 700h108l-86 -145h-98zM41 0v64l234 331v6h-222v99h397v-64l-231 -331v-6h239v-99h-417z" />
    <glyph glyph-name="Zdotaccent" unicode="&#x17b;" horiz-adv-x="626" 
d="M316 764c-21.333 0 -39.833 7.66699 -55.5 23s-23.5 33.333 -23.5 54c0 22 7.83301 40.5 23.5 55.5s34.167 22.5 55.5 22.5s39.5 -7.5 54.5 -22.5s22.5 -33.5 22.5 -55.5c0 -20.667 -7.66699 -38.667 -23 -54s-33.333 -23 -54 -23zM246 118h326v-118h-520v77l328 498v7
h-311v118h493v-77l-316 -498v-7z" />
    <glyph glyph-name="zdotaccent" unicode="&#x17c;" horiz-adv-x="501" 
d="M252 564c-21.333 0 -39.833 7.66699 -55.5 23s-23.5 33.333 -23.5 54c0 22 7.83301 40.5 23.5 55.5s34.167 22.5 55.5 22.5s39.5 -7.5 54.5 -22.5s22.5 -33.5 22.5 -55.5c0 -20.667 -7.66699 -38.667 -23 -54s-33.333 -23 -54 -23zM41 0v64l234 331v6h-222v99h397v-64
l-231 -331v-6h239v-99h-417z" />
    <glyph glyph-name="Zcaron" unicode="&#x17d;" horiz-adv-x="626" 
d="M370 900h107l-108 -148h-107l-108 148h107l51 -77h8zM246 118h326v-118h-520v77l328 498v7h-311v118h493v-77l-316 -498v-7z" />
    <glyph glyph-name="zcaron" unicode="&#x17e;" horiz-adv-x="501" 
d="M306 700h107l-108 -148h-107l-108 148h107l51 -77h8zM41 0v64l234 331v6h-222v99h397v-64l-231 -331v-6h239v-99h-417z" />
    <glyph glyph-name="florin" unicode="&#x192;" horiz-adv-x="557" 
d="M439 552c-38 0 -60.3311 -19.333 -66.998 -58l-20 -107h134v-91h-151l-31 -169c-8.66699 -44 -27.834 -77.833 -57.501 -101.5s-66.834 -35.5 -111.501 -35.5c-46.667 0 -84.667 11.667 -114 35l35 84c18.667 -14 39.667 -21 63 -21c38 0 60.333 19.333 67 58l28 150
h-124v91h141l23 126c8.66699 44.667 27.667 78.667 57 102s66.333 35 111 35s82.667 -11.667 114 -35l-34 -84c-21.333 14 -42.333 21 -63 21z" />
    <glyph glyph-name="uni01CD" unicode="&#x1cd;" horiz-adv-x="700" 
d="M404 752h-107l-108 148h107l51 -77h8l50 77h107zM538 0l-57 169h-262l-57 -169h-141l250 700h159l249 -700h-141zM255 278h190l-91 270h-8z" />
    <glyph glyph-name="uni01CE" unicode="&#x1ce;" horiz-adv-x="547" 
d="M317 552h-107l-108 148h107l51 -77h8l50 77h107zM518 96h11.999v-96h-54c-52.667 0 -86.334 20 -101.001 60c-36.667 -46.667 -91.667 -70 -165 -70c-53.333 0 -96.166 12.5 -128.499 37.5s-48.5 61.5 -48.5 109.5c0 45.333 15.167 80.833 45.5 106.5
s70.166 40.834 119.499 45.501l156 16v21c0 26.667 -7.66699 47 -23 61s-35.666 21 -60.999 21c-51.333 0 -81.333 -25 -90 -75h-128c5.33301 53.333 27.333 96.166 66 128.499s89.334 48.5 152.001 48.5s113.667 -16.167 153 -48.5s59 -80.5 59 -144.5v-183
c0 -25.333 12 -38 36 -38zM353.999 193v24l-112 -12c-54 -6 -81 -27 -81 -63s23.667 -54 71 -54c32 0 60.333 8.5 85 25.5s37 43.5 37 79.5z" />
    <glyph glyph-name="uni01CF" unicode="&#x1cf;" horiz-adv-x="270" 
d="M190 900h107l-108 -148h-107l-108 148h107l51 -77h8zM201 700v-700h-132v700h132z" />
    <glyph glyph-name="uni01D0" unicode="&#x1d0;" horiz-adv-x="238" 
d="M174 700h107l-108 -148h-107l-108 148h107l51 -77h8zM55 0v500h128v-500h-128z" />
    <glyph glyph-name="uni01D1" unicode="&#x1d1;" horiz-adv-x="820" 
d="M465 900h107l-108 -148h-107l-108 148h107l51 -77h8zM410 -10c-102.667 0 -188 34.1689 -256 102.502s-102 154.166 -102 257.499c0 102.667 33.833 188.334 101.5 257.001s153.167 103 256.5 103c102.667 0 188 -34.333 256 -103s102 -154.334 102 -257.001
s-33.833 -188.334 -101.5 -257.001s-153.167 -103 -256.5 -103zM411 112.002c64 0 117 22.667 159 68s63 102 63 170s-21.167 124.667 -63.5 170s-95.5 68 -159.5 68s-117.167 -22.667 -159.5 -68s-63.5 -102 -63.5 -170s21.167 -124.667 63.5 -170s95.833 -68 160.5 -68z
" />
    <glyph glyph-name="uni01D2" unicode="&#x1d2;" horiz-adv-x="611" 
d="M360 700h107l-108 -148h-107l-108 148h107l51 -77h8zM305 -10c-75.333 0 -138.167 24.501 -188.5 73.501s-75.5 111.5 -75.5 187.5s25 138.167 75 186.5s113 72.5 189 72.5s139 -24.167 189 -72.5s75 -110.5 75 -186.5c0 -76.667 -25 -139.334 -75 -188.001
s-113 -73 -189 -73zM304.999 101.001c40.667 0 73.667 14.333 99 43s38 64.334 38 107.001c0 42 -12.667 77.167 -38 105.5s-58.333 42.5 -99 42.5s-73.5 -14.167 -98.5 -42.5s-37.5 -63.5 -37.5 -105.5c0 -42.667 12.667 -78.334 38 -107.001s58 -43 98 -43z" />
    <glyph glyph-name="uni01D3" unicode="&#x1d3;" horiz-adv-x="713" 
d="M411 900h107l-108 -148h-107l-108 148h107l51 -77h8zM644 700v-429c0 -91.333 -26.333 -161 -79 -209s-121.667 -72 -207 -72c-86 0 -155.667 24 -209 72s-80 117.667 -80 209v429h132v-425c0 -51.333 14.5 -91.333 43.5 -120s66.833 -43 113.5 -43s84 14.167 112 42.5
s42 68.5 42 120.5v425h132z" />
    <glyph glyph-name="uni01D4" unicode="&#x1d4;" horiz-adv-x="588" 
d="M349 700h107l-108 -148h-107l-108 148h107l51 -77h8zM533 500l-0.000976562 -500.001h-117l-11 59h-8c-35.333 -46 -84.333 -69 -147 -69c-60 0 -107.5 18.333 -142.5 55s-52.5 87.334 -52.5 152.001v303h128v-277c0 -39.333 10 -69.5 30 -90.5s46 -31.5 78 -31.5
c32.667 0 59.834 10.833 81.501 32.5s32.5 53.5 32.5 95.5v271h128z" />
    <glyph glyph-name="uni01E2" unicode="&#x1e2;" horiz-adv-x="1046" 
d="M904 856v-87h-331v87h331zM674 115h335v-115h-463v168h-259l-110 -168h-156l455 700h523v-115h-325v-174h278v-112h-278v-184zM360 278h186v270h-9z" />
    <glyph glyph-name="uni01E3" unicode="&#x1e3;" horiz-adv-x="756" 
d="M534 656v-87h-331v87h331zM598 158h115c-5.33301 -55.333 -25.666 -97.166 -60.999 -125.499s-79.333 -42.5 -132 -42.5c-72.667 0 -124.667 24.333 -156 73c-29.333 -48.667 -84.333 -73 -165 -73c-51.333 0 -91.833 12.167 -121.5 36.5s-44.5 59.166 -44.5 104.499
c0 55.333 19.5 97.333 58.5 126s93.167 43 162.5 43h52v37c0 49.333 -23 74 -69 74c-48 0 -73 -23.667 -75 -71l-122 4c2.66699 52.667 21 93.5 55 122.5s79.333 43.5 136 43.5c64.667 0 113 -21.333 145 -64c32.667 42.667 80 64 142 64c55.333 0 101.333 -20 138 -60
s55 -105.333 55 -196c0 -17.333 -0.333008 -31.333 -1 -42h-277c1.33301 -83.333 29.666 -125 84.999 -125c47.333 0 74 23.667 80 71zM516 413c-24 0 -43.5 -9.16699 -58.5 -27.5s-23.167 -46.833 -24.5 -85.5h160c0 75.333 -25.667 113 -77 113zM219 87
c23.333 0 43.667 6.33398 61 19.001s26 33.667 26 63v43h-50c-68.667 0 -103 -22.667 -103 -68c0 -18.667 6 -32.834 18 -42.501s28 -14.5 48 -14.5z" />
    <glyph glyph-name="Gcaron" unicode="&#x1e6;" horiz-adv-x="787" 
d="M447 900h107l-108 -148h-107l-108 148h107l51 -77h8zM401 380h317v-380h-105l-13 67h-8c-51.333 -51.333 -121 -77 -209 -77c-100 0 -180.167 32.5 -240.5 97.5s-90.5 149.167 -90.5 252.5c0 107.333 33 195.833 99 265.5s151.333 104.5 256 104.5
c86.667 0 156.667 -21 210 -63s85 -95.667 95 -161h-144c-10.667 32 -30 57 -58 75s-62.333 27 -103 27c-66.667 0 -120 -23.167 -160 -69.5s-60 -105.833 -60 -178.5c0 -68.667 19 -124.5 57 -167.5s90 -64.5 156 -64.5c54.667 0 99.5 12 134.5 36s52.5 58.333 52.5 103v30
h-186v103z" />
    <glyph glyph-name="gcaron" unicode="&#x1e7;" horiz-adv-x="557" 
d="M333 552h-107l-108 148h107l51 -77h8l50 77h107zM540 486c-19.333 -20 -46.335 -38.3389 -81.002 -55.0059c21.333 -27.333 32 -58.666 32 -93.999c0 -52 -19.667 -93 -59 -123s-89.666 -45 -150.999 -45c-30 0 -58 3.66699 -84 11c-16 -8 -24 -19 -24 -33
c0 -25.333 22 -38 66 -38h98c58.667 0 103.667 -13.167 135 -39.5s47 -62.5 47 -108.5c0 -53.333 -21 -95.166 -63 -125.499s-99.333 -45.5 -172 -45.5c-74.667 0 -132.5 15.833 -173.5 47.5s-64.167 71.834 -69.5 120.501l76 67c-38 20.667 -57 51.334 -57 92.001
s22.333 73.334 67 98.001c-39.333 30.667 -59 71.334 -59 122.001c0 50 18.833 91.333 56.5 124s87.834 49 150.501 49c44 0 82.667 -8.33301 116 -25c35.333 18 64 41.667 86 71zM280.998 261.994c26.667 0 48 7.16699 64 21.5s24 32.833 24 55.5
c0 23.333 -7.83301 42.333 -23.5 57s-37.167 22 -64.5 22s-49.333 -7.33301 -66 -22s-25 -33.667 -25 -57c0 -22.667 8.33301 -41.167 25 -55.5s38.667 -21.5 66 -21.5zM396.998 -46.0059c0 19.333 -7.33301 33.333 -22 42s-32.667 13 -54 13h-91l-66 -56
c6 -19.333 19.167 -35.333 39.5 -48s47.5 -19 81.5 -19c32.667 0 59.5 5.83301 80.5 17.5s31.5 28.5 31.5 50.5z" />
    <glyph glyph-name="uni01EA" unicode="&#x1ea;" horiz-adv-x="820" 
d="M493 -1c-42 -14.667 -62.999 -36.335 -62.999 -65.002c0 -26.667 19 -40 57 -40c15.333 0 30.666 2 45.999 6v-70c-17.333 -5.33301 -37.333 -8 -60 -8c-37.333 0 -67 8 -89 24s-33 39 -33 69c0 30.667 13.667 55.667 41 75c-98.667 4.66699 -180 40.834 -244 108.501
s-96 151.5 -96 251.5c0 102.667 33.833 188.334 101.5 257.001s153.167 103 256.5 103c102.667 0 188 -34.333 256 -103s102 -154.334 102 -257.001c0 -88 -25.333 -164.167 -76 -228.5s-117 -105.166 -199 -122.499zM187.001 349.999c0 -68 21.167 -124.667 63.5 -170
s95.833 -68 160.5 -68c64 0 117 22.667 159 68s63 102 63 170s-21.167 124.667 -63.5 170s-95.5 68 -159.5 68s-117.167 -22.667 -159.5 -68s-63.5 -102 -63.5 -170z" />
    <glyph glyph-name="uni01EB" unicode="&#x1eb;" horiz-adv-x="611" 
d="M375 -2c-40.667 -13.333 -60.998 -34.667 -60.998 -64c0 -26.667 19 -40 57 -40c15.333 0 30.666 2 45.999 6v-70c-17.333 -5.33301 -37.333 -8 -60 -8c-37.333 0 -67 8 -89 24s-33 39 -33 69s14.333 55.333 43 76c-68.667 6 -125.334 33 -170.001 81
s-67 107.667 -67 179c0 76 25 138.167 75 186.5s113 72.5 189 72.5s139 -24.167 189 -72.5s75 -110.5 75 -186.5c0 -64 -17.667 -118.667 -53 -164s-82.333 -75 -141 -89zM169.002 250.999c0 -42.667 12.667 -78.334 38 -107.001s58 -43 98 -43
c40.667 0 73.667 14.333 99 43s38 64.334 38 107.001c0 42 -12.667 77.167 -38 105.5s-58.333 42.5 -99 42.5s-73.5 -14.167 -98.5 -42.5s-37.5 -63.5 -37.5 -105.5z" />
    <glyph glyph-name="uni01F4" unicode="&#x1f4;" horiz-adv-x="787" 
d="M420 900h108l-86 -145h-98zM401 380h317v-380h-105l-13 67h-8c-51.333 -51.333 -121 -77 -209 -77c-100 0 -180.167 32.5 -240.5 97.5s-90.5 149.167 -90.5 252.5c0 107.333 33 195.833 99 265.5s151.333 104.5 256 104.5c86.667 0 156.667 -21 210 -63
s85 -95.667 95 -161h-144c-10.667 32 -30 57 -58 75s-62.333 27 -103 27c-66.667 0 -120 -23.167 -160 -69.5s-60 -105.833 -60 -178.5c0 -68.667 19 -124.5 57 -167.5s90 -64.5 156 -64.5c54.667 0 99.5 12 134.5 36s52.5 58.333 52.5 103v30h-186v103z" />
    <glyph glyph-name="uni01F5" unicode="&#x1f5;" horiz-adv-x="557" 
d="M415 700l-86 -145h-98l76 145h108zM540 486c-19.333 -20 -46.335 -38.3389 -81.002 -55.0059c21.333 -27.333 32 -58.666 32 -93.999c0 -52 -19.667 -93 -59 -123s-89.666 -45 -150.999 -45c-30 0 -58 3.66699 -84 11c-16 -8 -24 -19 -24 -33c0 -25.333 22 -38 66 -38h98
c58.667 0 103.667 -13.167 135 -39.5s47 -62.5 47 -108.5c0 -53.333 -21 -95.166 -63 -125.499s-99.333 -45.5 -172 -45.5c-74.667 0 -132.5 15.833 -173.5 47.5s-64.167 71.834 -69.5 120.501l76 67c-38 20.667 -57 51.334 -57 92.001s22.333 73.334 67 98.001
c-39.333 30.667 -59 71.334 -59 122.001c0 50 18.833 91.333 56.5 124s87.834 49 150.501 49c44 0 82.667 -8.33301 116 -25c35.333 18 64 41.667 86 71zM280.998 261.994c26.667 0 48 7.16699 64 21.5s24 32.833 24 55.5c0 23.333 -7.83301 42.333 -23.5 57
s-37.167 22 -64.5 22s-49.333 -7.33301 -66 -22s-25 -33.667 -25 -57c0 -22.667 8.33301 -41.167 25 -55.5s38.667 -21.5 66 -21.5zM396.998 -46.0059c0 19.333 -7.33301 33.333 -22 42s-32.667 13 -54 13h-91l-66 -56c6 -19.333 19.167 -35.333 39.5 -48s47.5 -19 81.5 -19
c32.667 0 59.5 5.83301 80.5 17.5s31.5 28.5 31.5 50.5z" />
    <glyph glyph-name="uni01F8" unicode="&#x1f8;" horiz-adv-x="725" 
d="M335 900l76 -145h-97l-87 145h108zM527 700h129v-700h-135l-315 468h-8v-468h-129v700h135l315 -471h8v471z" />
    <glyph glyph-name="uni01F9" unicode="&#x1f9;" horiz-adv-x="588" 
d="M267 700l76 -145h-97l-87 145h108zM55 0v500.001h117l11 -59h8c35.333 46 84.333 69 147 69c60 0 107.5 -18.333 142.5 -55s52.5 -87.334 52.5 -152.001v-303h-128v277c0 39.333 -10 69.5 -30 90.5s-45.667 31.5 -77 31.5c-32.667 0 -60 -10.833 -82 -32.5
s-33 -53.5 -33 -95.5v-271h-128z" />
    <glyph glyph-name="AEacute" unicode="&#x1fc;" horiz-adv-x="1046" 
d="M873 900l-86 -145h-98l76 145h108zM674 115h335v-115h-463v168h-259l-110 -168h-156l455 700h523v-115h-325v-174h278v-112h-278v-184zM360 278h186v270h-9z" />
    <glyph glyph-name="aeacute" unicode="&#x1fd;" horiz-adv-x="756" 
d="M503 700l-86 -145h-98l76 145h108zM598 158h115c-5.33301 -55.333 -25.666 -97.166 -60.999 -125.499s-79.333 -42.5 -132 -42.5c-72.667 0 -124.667 24.333 -156 73c-29.333 -48.667 -84.333 -73 -165 -73c-51.333 0 -91.833 12.167 -121.5 36.5
s-44.5 59.166 -44.5 104.499c0 55.333 19.5 97.333 58.5 126s93.167 43 162.5 43h52v37c0 49.333 -23 74 -69 74c-48 0 -73 -23.667 -75 -71l-122 4c2.66699 52.667 21 93.5 55 122.5s79.333 43.5 136 43.5c64.667 0 113 -21.333 145 -64c32.667 42.667 80 64 142 64
c55.333 0 101.333 -20 138 -60s55 -105.333 55 -196c0 -17.333 -0.333008 -31.333 -1 -42h-277c1.33301 -83.333 29.666 -125 84.999 -125c47.333 0 74 23.667 80 71zM516 413c-24 0 -43.5 -9.16699 -58.5 -27.5s-23.167 -46.833 -24.5 -85.5h160
c0 75.333 -25.667 113 -77 113zM219 87c23.333 0 43.667 6.33398 61 19.001s26 33.667 26 63v43h-50c-68.667 0 -103 -22.667 -103 -68c0 -18.667 6 -32.834 18 -42.501s28 -14.5 48 -14.5z" />
    <glyph glyph-name="Oslashacute" unicode="&#x1fe;" horiz-adv-x="820" 
d="M545 900l-86 -145h-98l76 145h108zM666 608c68 -69.333 102 -155.333 102 -258s-33.833 -188.334 -101.5 -257.001s-153.167 -103 -256.5 -103c-65.333 0 -124 14.333 -176 43l-64 -86l-78 58l64 86c-69.333 68 -104 154.333 -104 259
c0 102.667 33.833 188.334 101.5 257.001s153.167 103 256.5 103c64.667 0 123 -14.333 175 -43l63 85l81 -60zM181 350c0 -60 16.667 -112.667 50 -158l282 379c-32 16 -66.333 24 -103 24c-66 0 -120.667 -23.333 -164 -70s-65 -105 -65 -175zM411 105
c66 0 120.5 23.333 163.5 70s64.5 105 64.5 175c0 60 -16.333 112 -49 156l-283 -377c33.333 -16 68 -24 104 -24z" />
    <glyph glyph-name="oslashacute" unicode="&#x1ff;" horiz-adv-x="611" 
d="M441 700l-86 -145h-98l76 145h108zM499 433c46.667 -48.667 70.001 -109.331 70.001 -181.998c0 -76.667 -25 -139.334 -75 -188.001s-113 -73 -189 -73c-42.667 0 -83.667 9 -123 27l-51 -67l-70 49l52 68c-48 49.333 -72 110.666 -72 183.999c0 76 25 138.167 75 186.5
s113 72.5 189 72.5c45.333 0 86.666 -9.33301 123.999 -28l51 67l70 -49zM162.001 251.003c0 -34 7.66699 -63.667 23 -89l177 232c-18 7.33301 -37 11 -57 11c-42.667 0 -77.167 -14.667 -103.5 -44s-39.5 -66 -39.5 -110zM305.001 95.0029c42 0 76.333 15 103 45
s40 67 40 111c0 32 -7.33301 60.667 -22 86l-176 -231c16.667 -7.33301 35 -11 55 -11z" />
    <glyph glyph-name="uni0218" unicode="&#x218;" horiz-adv-x="610" 
d="M556 192c0 -65.333 -23.168 -115.336 -69.501 -150.003s-104.166 -52 -173.499 -52c-81.333 0 -144.5 20.167 -189.5 60.5s-68.833 94.833 -71.5 163.5h130c3.33301 -35.333 16.166 -62.833 38.499 -82.5s53.166 -29.5 92.499 -29.5c32 0 58.333 7.16699 79 21.5
s31 35.833 31 64.5c0 16.667 -3.5 31.334 -10.5 44.001s-18 23.5 -33 32.5s-28.5 15.833 -40.5 20.5s-28.333 10 -49 16l-40 12c-117.333 35.333 -176 100.333 -176 195c0 61.333 22.333 110.333 67 147s101.334 55 170.001 55c70.667 0 127.667 -19.167 171 -57.5
s66 -87.833 68 -148.5h-130c-3.33301 28.667 -14 51.5 -32 68.5s-43.333 25.5 -76 25.5c-31.333 0 -56.666 -7.66699 -75.999 -23s-29 -35.666 -29 -60.999c0 -14 3.16699 -26.5 9.5 -37.5s16.166 -20.333 29.499 -28s25.5 -13.5 36.5 -17.5s25.833 -9 44.5 -15l35 -11
c17.333 -5.33301 32.833 -10.666 46.5 -15.999s30.334 -13.833 50.001 -25.5s36 -24.667 49 -39s24.333 -33 34 -56s14.5 -48.5 14.5 -76.5zM307.999 -51.0029c25.333 0 45.667 -9.16699 61 -27.5s23 -41.833 23 -70.5c0 -41.333 -12.333 -77.5 -37 -108.5
s-54 -55.5 -88 -73.5l-35 33c46 37.333 69.333 69.333 70 96c-21.333 -1.33301 -39 4.66699 -53 18s-21 32 -21 56s7.5 42.833 22.5 56.5s34.167 20.5 57.5 20.5z" />
    <glyph glyph-name="uni0219" unicode="&#x219;" horiz-adv-x="499" 
d="M263 -10c-68.667 0 -122.002 15.168 -160.002 45.501s-58.667 71.833 -62 124.5h123c6.66699 -50 39.334 -75 98.001 -75c21.333 0 38.833 4.16699 52.5 12.5s20.5 21.166 20.5 38.499c0 18 -7.16699 31.833 -21.5 41.5s-36.5 18.5 -66.5 26.5l-47 12
c-20 4.66699 -37.167 9.83398 -51.5 15.501s-29.166 13.667 -44.499 24s-27 24 -35 41s-12 37.167 -12 60.5c0 48 18 85.5 54 112.5s80.333 40.5 133 40.5c64 0 113 -14.333 147 -43s53 -65.334 57 -110.001h-123c-5.33301 38.667 -32 58 -80 58c-20 0 -36 -4.5 -48 -13.5
s-18 -21.5 -18 -37.5s6.16699 -27.5 18.5 -34.5s33.5 -14.5 63.5 -22.5l47 -12c48 -12 84.833 -30 110.5 -54s38.5 -58 38.5 -102c0 -49.333 -18.167 -86.5 -54.5 -111.5s-82.833 -37.5 -139.5 -37.5zM256.998 -50.999c25.333 0 45.667 -9.16699 61 -27.5
s23 -41.833 23 -70.5c0 -41.333 -12.333 -77.5 -37 -108.5s-54 -55.5 -88 -73.5l-35 33c46 37.333 69.333 69.333 70 96c-21.333 -1.33301 -39 4.66699 -53 18s-21 32 -21 56s7.5 42.833 22.5 56.5s34.167 20.5 57.5 20.5z" />
    <glyph glyph-name="uni021A" unicode="&#x21a;" horiz-adv-x="591" 
d="M31 700h528v-118h-198v-582h-132v582h-198v118zM293 -51c25.333 0 45.667 -9.16699 61 -27.5s23 -41.833 23 -70.5c0 -41.333 -12.333 -77.5 -37 -108.5s-54 -55.5 -88 -73.5l-35 33c46 37.333 69.333 69.333 70 96c-21.333 -1.33301 -39 4.66699 -53 18s-21 32 -21 56
s7.5 42.833 22.5 56.5s34.167 20.5 57.5 20.5z" />
    <glyph glyph-name="uni021B" unicode="&#x21b;" horiz-adv-x="398" 
d="M279 -10c-104 0 -156 48.667 -156 146v263h-107v101h34c30.667 0 52.5 5.83301 65.5 17.5s19.5 31.167 19.5 58.5v60h116v-136h131v-101h-131v-246c0 -11.333 1.16699 -21 3.5 -29s8.83301 -15.5 19.5 -22.5s25.334 -10.5 44.001 -10.5c15.333 0 31.666 2.33301 48.999 7
v-97c-32 -7.33301 -61.333 -11 -88 -11zM243 -51c25.333 0 45.667 -9.16699 61 -27.5s23 -41.833 23 -70.5c0 -41.333 -12.333 -77.5 -37 -108.5s-54 -55.5 -88 -73.5l-35 33c46 37.333 69.333 69.333 70 96c-21.333 -1.33301 -39 4.66699 -53 18s-21 32 -21 56
s7.5 42.833 22.5 56.5s34.167 20.5 57.5 20.5z" />
    <glyph glyph-name="uni021E" unicode="&#x21e;" horiz-adv-x="696" 
d="M399 900h107l-108 -148h-107l-108 148h107l51 -77h8zM495 700h132v-700h-132v295h-294v-295h-132v700h132v-286h294v286z" />
    <glyph glyph-name="uni0226" unicode="&#x226;" horiz-adv-x="700" 
d="M351 764c-21.333 0 -39.833 7.66699 -55.5 23s-23.5 33.333 -23.5 54c0 22 7.83301 40.5 23.5 55.5s34.167 22.5 55.5 22.5s39.5 -7.5 54.5 -22.5s22.5 -33.5 22.5 -55.5c0 -20.667 -7.66699 -38.667 -23 -54s-33.333 -23 -54 -23zM538 0l-57 169h-262l-57 -169h-141
l250 700h159l249 -700h-141zM255 278h190l-91 270h-8z" />
    <glyph glyph-name="uni0227" unicode="&#x227;" horiz-adv-x="547" 
d="M264 564c-21.333 0 -39.833 7.66699 -55.5 23s-23.5 33.333 -23.5 54c0 22 7.83301 40.5 23.5 55.5s34.167 22.5 55.5 22.5s39.5 -7.5 54.5 -22.5s22.5 -33.5 22.5 -55.5c0 -20.667 -7.66699 -38.667 -23 -54s-33.333 -23 -54 -23zM518 96h11.999v-96h-54
c-52.667 0 -86.334 20 -101.001 60c-36.667 -46.667 -91.667 -70 -165 -70c-53.333 0 -96.166 12.5 -128.499 37.5s-48.5 61.5 -48.5 109.5c0 45.333 15.167 80.833 45.5 106.5s70.166 40.834 119.499 45.501l156 16v21c0 26.667 -7.66699 47 -23 61s-35.666 21 -60.999 21
c-51.333 0 -81.333 -25 -90 -75h-128c5.33301 53.333 27.333 96.166 66 128.499s89.334 48.5 152.001 48.5s113.667 -16.167 153 -48.5s59 -80.5 59 -144.5v-183c0 -25.333 12 -38 36 -38zM353.999 193v24l-112 -12c-54 -6 -81 -27 -81 -63s23.667 -54 71 -54
c32 0 60.333 8.5 85 25.5s37 43.5 37 79.5z" />
    <glyph glyph-name="uni0228" unicode="&#x228;" horiz-adv-x="586" 
d="M548 0l-203 0.00195312l-28 -43c26 1.33301 49 -5.33398 69 -20.001s30 -35.334 30 -62.001c0 -26 -9.33301 -46.667 -28 -62s-45 -23 -79 -23c-32 0 -59 8 -81 24l22 51c20.667 -12 39.667 -18 57 -18c12.667 0 22.667 2.83301 30 8.5s11 13.167 11 22.5
c0 20.667 -13.667 31 -41 31c-8.66699 0 -19 -2 -31 -6l-42 33l40 64h-205v700h469v-115h-340v-174h293v-112h-293v-184h350v-115z" />
    <glyph glyph-name="uni0229" unicode="&#x229;" horiz-adv-x="575" 
d="M531 158c-9.33301 -48 -32.332 -86.8301 -68.999 -116.497s-83.334 -46.5 -140.001 -50.5l-22 -34c26 1.33301 49 -5.33398 69 -20.001s30 -35.334 30 -62.001c0 -26 -9.33301 -46.667 -28 -62s-45 -23 -79 -23c-32 0 -59 8 -81 24l22 51c20.667 -12 39.667 -18 57 -18
c12.667 0 22.667 2.83301 30 8.5s11 13.167 11 22.5c0 20.667 -13.667 31 -41 31c-8.66699 0 -19 -2 -31 -6l-42 33l36 57c-63.333 9.33301 -114.5 36.666 -153.5 81.999s-58.5 102 -58.5 170c0 80 24.167 144.167 72.5 192.5s108.166 72.5 179.499 72.5
c66.667 0 122.834 -21.667 168.501 -65s68.5 -107.333 68.5 -192c0 -6 -0.666992 -18.333 -2 -37h-360c2.66699 -36.667 15.5 -66.5 38.5 -89.5s53.5 -34.5 91.5 -34.5c59.333 0 96 22 110 66h123zM293.001 408.003c-33.333 0 -61.168 -10 -83.501 -30
s-35.833 -45.333 -40.5 -76h239c-1.33301 31.333 -12.666 56.833 -33.999 76.5s-48.333 29.5 -81 29.5z" />
    <glyph glyph-name="uni022E" unicode="&#x22e;" horiz-adv-x="820" 
d="M410 764c-21.333 0 -39.833 7.66699 -55.5 23s-23.5 33.333 -23.5 54c0 22 7.83301 40.5 23.5 55.5s34.167 22.5 55.5 22.5s39.5 -7.5 54.5 -22.5s22.5 -33.5 22.5 -55.5c0 -20.667 -7.66699 -38.667 -23 -54s-33.333 -23 -54 -23zM410 -10
c-102.667 0 -188 34.1689 -256 102.502s-102 154.166 -102 257.499c0 102.667 33.833 188.334 101.5 257.001s153.167 103 256.5 103c102.667 0 188 -34.333 256 -103s102 -154.334 102 -257.001s-33.833 -188.334 -101.5 -257.001s-153.167 -103 -256.5 -103zM411 112.002
c64 0 117 22.667 159 68s63 102 63 170s-21.167 124.667 -63.5 170s-95.5 68 -159.5 68s-117.167 -22.667 -159.5 -68s-63.5 -102 -63.5 -170s21.167 -124.667 63.5 -170s95.833 -68 160.5 -68z" />
    <glyph glyph-name="uni022F" unicode="&#x22f;" horiz-adv-x="611" 
d="M306 564c-21.333 0 -39.833 7.66699 -55.5 23s-23.5 33.333 -23.5 54c0 22 7.83301 40.5 23.5 55.5s34.167 22.5 55.5 22.5s39.5 -7.5 54.5 -22.5s22.5 -33.5 22.5 -55.5c0 -20.667 -7.66699 -38.667 -23 -54s-33.333 -23 -54 -23zM305 -10
c-75.333 0 -138.167 24.501 -188.5 73.501s-75.5 111.5 -75.5 187.5s25 138.167 75 186.5s113 72.5 189 72.5s139 -24.167 189 -72.5s75 -110.5 75 -186.5c0 -76.667 -25 -139.334 -75 -188.001s-113 -73 -189 -73zM304.999 101.001c40.667 0 73.667 14.333 99 43
s38 64.334 38 107.001c0 42 -12.667 77.167 -38 105.5s-58.333 42.5 -99 42.5s-73.5 -14.167 -98.5 -42.5s-37.5 -63.5 -37.5 -105.5c0 -42.667 12.667 -78.334 38 -107.001s58 -43 98 -43z" />
    <glyph glyph-name="uni0232" unicode="&#x232;" horiz-adv-x="678" 
d="M174 856h331v-87h-331v87zM500 700h157l-252 -391v-309h-132v309l-252 391h156l158 -247h8z" />
    <glyph glyph-name="uni0233" unicode="&#x233;" horiz-adv-x="569" 
d="M120 656h331v-87h-331v87zM150 -210c-26 0 -52.999 3.66699 -80.999 11v95c19.333 -4 36.666 -6 51.999 -6c55.333 0 92 22.333 110 67l17 43h-40l-191 500h132l136 -369h8l127 369h132l-202 -562c-33.333 -98.667 -100 -148 -200 -148z" />
    <glyph glyph-name="uni0237" unicode="&#x237;" horiz-adv-x="238" 
d="M26 -210c-26.667 0 -55.999 3.66699 -87.999 11v95c15.333 -4 31.666 -6 48.999 -6c45.333 0 68 20.333 68 61v549h128v-564c0 -97.333 -52.333 -146 -157 -146z" />
    <glyph glyph-name="circumflex" unicode="&#x2c6;" horiz-adv-x="461" 
d="M176 552h-107l108 148h107l108 -148h-107l-51 77h-8z" />
    <glyph glyph-name="caron" unicode="&#x2c7;" horiz-adv-x="461" 
d="M285 700h107l-107 -148h-107l-109 148h107l51 -77h8z" />
    <glyph glyph-name="breve" unicode="&#x2d8;" horiz-adv-x="432" 
d="M363 700c0 -37.333 -14 -68.833 -42 -94.5s-62.667 -38.5 -104 -38.5s-76.333 12.833 -105 38.5s-43 57.167 -43 94.5h95c0 -16 4.83301 -29.667 14.5 -41s22.5 -17 38.5 -17s28.667 5.5 38 16.5s14 24.833 14 41.5h94z" />
    <glyph glyph-name="dotaccent" unicode="&#x2d9;" horiz-adv-x="294" 
d="M148 564c-21.333 0 -39.833 7.66699 -55.5 23s-23.5 33.333 -23.5 54c0 22 7.83301 40.5 23.5 55.5s34.167 22.5 55.5 22.5s39.333 -7.5 54 -22.5s22 -33.5 22 -55.5c0 -20.667 -7.5 -38.667 -22.5 -54s-32.833 -23 -53.5 -23z" />
    <glyph glyph-name="ring" unicode="&#x2da;" horiz-adv-x="342" 
d="M170 534c-27.333 0 -51 9.66699 -71 29s-30 42.333 -30 69s10 49.834 30 69.501s43.667 29.5 71 29.5c28 0 52.167 -9.83301 72.5 -29.5s30.5 -42.834 30.5 -69.501s-10.167 -49.667 -30.5 -69s-44.5 -29 -72.5 -29zM172 601c8 0 15.167 3.16699 21.5 9.5
s9.5 13.5 9.5 21.5c0 8.66699 -3.16699 16 -9.5 22s-13.5 9 -21.5 9c-9.33301 0 -17.166 -3 -23.499 -9s-9.5 -13.333 -9.5 -22c0 -8 3.16699 -15.167 9.5 -21.5s14.166 -9.5 23.499 -9.5z" />
    <glyph glyph-name="ogonek" unicode="&#x2db;" horiz-adv-x="319" 
d="M181 26l34 -25.999c-44.667 -13.333 -67 -35.333 -67 -66c0 -26.667 18.667 -40 56 -40c16.667 0 32 2 46 6v-70c-17.333 -5.33301 -37 -8 -59 -8c-37.333 0 -67 8 -89 24s-33 39 -33 69c0 28 10 50.167 30 66.5s47.333 31.166 82 44.499z" />
    <glyph glyph-name="tilde" unicode="&#x2dc;" horiz-adv-x="521" 
d="M452 678c-2 -39.333 -13.0039 -72.167 -33.0039 -98.5s-47.333 -39.5 -82 -39.5c-22.667 0 -42.5 5.16699 -59.5 15.5s-31.667 20.666 -44 30.999s-24.166 15.5 -35.499 15.5c-25.333 0 -40 -17.333 -44 -52h-85c3.33301 40 14.833 73.167 34.5 99.5
s46.834 39.5 81.501 39.5c24.667 0 45.334 -5.16699 62.001 -15.5s30.834 -20.666 42.501 -30.999s23.167 -15.5 34.5 -15.5c26 0 40.333 17 43 51h85z" />
    <glyph glyph-name="hungarumlaut" unicode="&#x2dd;" horiz-adv-x="482" 
d="M129 700h106l-67 -145h-99zM307 700h106l-67 -145h-99z" />
    <glyph glyph-name="uni1E02" unicode="&#x1e02;" horiz-adv-x="623" 
d="M314 764c-21.333 0 -39.833 7.66699 -55.5 23s-23.5 33.333 -23.5 54c0 22 7.83301 40.5 23.5 55.5s34.167 22.5 55.5 22.5s39.5 -7.5 54.5 -22.5s22.5 -33.5 22.5 -55.5c0 -20.667 -7.66699 -38.667 -23 -54s-33.333 -23 -54 -23zM464 369
c31.333 -11.333 58.666 -31.167 81.999 -59.5s35 -66.833 35 -115.5c0 -61.333 -20 -109 -60 -143s-95.333 -51 -166 -51h-286v700h288c66.667 0 117.334 -15.833 152.001 -47.5s52 -74.167 52 -127.5c0 -69.333 -32.333 -119.333 -97 -150v-6zM198 593.999
l-0.000976562 -181h139c29.333 0 52 8.16699 68 24.5s24 38.5 24 66.5s-8.16699 50 -24.5 66s-38.166 24 -65.499 24h-141zM342.999 105.999c33.333 0 58.833 9 76.5 27s26.5 41.667 26.5 71c0 30 -9.16699 54.667 -27.5 74s-43.5 29 -75.5 29h-145v-201h145z" />
    <glyph glyph-name="uni1E03" unicode="&#x1e03;" horiz-adv-x="605" 
d="M118 765c-21.333 0 -39.833 7.66699 -55.5 23s-23.5 33.333 -23.5 54c0 22 7.83301 40.5 23.5 55.5s34.167 22.5 55.5 22.5s39.5 -7.5 54.5 -22.5s22.5 -33.5 22.5 -55.5c0 -20.667 -7.66699 -38.667 -23 -54s-33.333 -23 -54 -23zM328 510
c67.333 0 123.334 -23.333 168.001 -70s67 -109.667 67 -189c0 -78 -22.167 -141 -66.5 -189s-100.5 -72 -168.5 -72c-64.667 0 -114.334 23 -149.001 69h-9l-11 -59h-104v710h128v-257c34 38 82.333 57 145 57zM308.001 101c38 0 68.667 13.8311 92 41.498
s35 63.834 35 108.501c0 44 -11.667 79.667 -35 107s-54 41 -92 41s-68.333 -13.667 -91 -41s-34 -63 -34 -107c0 -45.333 11.333 -81.666 34 -108.999s53 -41 91 -41z" />
    <glyph glyph-name="uni1E0A" unicode="&#x1e0a;" horiz-adv-x="707" 
d="M345 764c-21.333 0 -39.833 7.66699 -55.5 23s-23.5 33.333 -23.5 54c0 22 7.83301 40.5 23.5 55.5s34.167 22.5 55.5 22.5s39.5 -7.5 54.5 -22.5s22.5 -33.5 22.5 -55.5c0 -20.667 -7.66699 -38.667 -23 -54s-33.333 -23 -54 -23zM314 700
c106.667 0 190.167 -31.167 250.5 -93.5s90.5 -147.833 90.5 -256.5c0 -108 -30.167 -193.333 -90.5 -256s-143.833 -94 -250.5 -94h-245v700h245zM309 118c70.667 0 123.5 21.499 158.5 64.499s52.5 100.167 52.5 171.5c0 70.667 -17.5 126.334 -52.5 167.001
s-87.833 61 -158.5 61h-108v-464h108z" />
    <glyph glyph-name="uni1E0B" unicode="&#x1e0b;" horiz-adv-x="605" 
d="M488 765c-21.333 0 -39.833 7.66699 -55.5 23s-23.5 33.333 -23.5 54c0 22 7.83301 40.5 23.5 55.5s34.167 22.5 55.5 22.5s39.5 -7.5 54.5 -22.5s22.5 -33.5 22.5 -55.5c0 -20.667 -7.66699 -38.667 -23 -54s-33.333 -23 -54 -23zM422 453l0.000976562 257h128v-710
h-104l-11 59h-9c-34.667 -46 -84.334 -69 -149.001 -69c-68 0 -124.167 24 -168.5 72s-66.5 111 -66.5 189c0 79.333 22.333 142.333 67 189s100.667 70 168 70c62.667 0 111 -19 145 -57zM297.001 101c38 0 68.333 13.6689 91 41.002s34 63.666 34 108.999
c0 44 -11.333 79.667 -34 107s-53 41 -91 41s-68.667 -13.667 -92 -41s-35 -63 -35 -107c0 -44.667 11.667 -80.834 35 -108.501s54 -41.5 92 -41.5z" />
    <glyph glyph-name="uni1E10" unicode="&#x1e10;" horiz-adv-x="707" 
d="M314 700c106.667 0 190.167 -31.167 250.5 -93.5s90.5 -147.833 90.5 -256.5c0 -108 -30.167 -193.333 -90.5 -256s-143.833 -94 -250.5 -94h-245v700h245zM309 118c70.667 0 123.5 21.499 158.5 64.499s52.5 100.167 52.5 171.5c0 70.667 -17.5 126.334 -52.5 167.001
s-87.833 61 -158.5 61h-108v-464h108zM342 -51.001c25.333 0 45.667 -9.16699 61 -27.5s23 -41.833 23 -70.5c0 -41.333 -12.333 -77.5 -37 -108.5s-54 -55.5 -88 -73.5l-35 33c46 37.333 69.333 69.333 70 96c-21.333 -1.33301 -39 4.66699 -53 18s-21 32 -21 56
s7.5 42.833 22.5 56.5s34.167 20.5 57.5 20.5z" />
    <glyph glyph-name="uni1E11" unicode="&#x1e11;" horiz-adv-x="605" 
d="M422 710h128.001v-710h-104l-11 59h-9c-34.667 -46 -84.334 -69 -149.001 -69c-68 0 -124.167 24 -168.5 72s-66.5 111 -66.5 189c0 79.333 22.333 142.333 67 189s100.667 70 168 70c62.667 0 111 -19 145 -57v257zM297.001 101c38 0 68.333 13.6689 91 41.002
s34 63.666 34 108.999c0 44 -11.333 79.667 -34 107s-53 41 -91 41s-68.667 -13.667 -92 -41s-35 -63 -35 -107c0 -44.667 11.667 -80.834 35 -108.501s54 -41.5 92 -41.5zM299.001 -50.998c25.333 0 45.667 -9.16699 61 -27.5s23 -41.833 23 -70.5
c0 -41.333 -12.333 -77.5 -37 -108.5s-54 -55.5 -88 -73.5l-35 33c46 37.333 69.333 69.333 70 96c-21.333 -1.33301 -39 4.66699 -53 18s-21 32 -21 56s7.5 42.833 22.5 56.5s34.167 20.5 57.5 20.5z" />
    <glyph glyph-name="uni1E1E" unicode="&#x1e1e;" horiz-adv-x="571" 
d="M305 764c-21.333 0 -39.833 7.66699 -55.5 23s-23.5 33.333 -23.5 54c0 22 7.83301 40.5 23.5 55.5s34.167 22.5 55.5 22.5s39.5 -7.5 54.5 -22.5s22.5 -33.5 22.5 -55.5c0 -20.667 -7.66699 -38.667 -23 -54s-33.333 -23 -54 -23zM540 579h-339v-186h294v-115h-294v-278
h-132v700h471v-121z" />
    <glyph glyph-name="uni1E1F" unicode="&#x1e1f;" horiz-adv-x="400" 
d="M253 764c-21.333 0 -39.833 7.66699 -55.5 23s-23.5 33.333 -23.5 54c0 22 7.83301 40.5 23.5 55.5s34.167 22.5 55.5 22.5s39.5 -7.5 54.5 -22.5s22.5 -33.5 22.5 -55.5c0 -20.667 -7.66699 -38.667 -23 -54s-33.333 -23 -54 -23zM249 547v-47.001h127v-101h-127v-399
h-128v399h-105v101h105v54c0 50.667 15.167 89.334 45.5 116.001s70.833 40 121.5 40c30 0 62 -5.66699 96 -17l-22 -93c-15.333 5.33301 -32.333 8 -51 8c-41.333 0 -62 -20.333 -62 -61z" />
    <glyph glyph-name="uni1E20" unicode="&#x1e20;" horiz-adv-x="787" 
d="M228 856h331v-87h-331v87zM401 380h317v-380h-105l-13 67h-8c-51.333 -51.333 -121 -77 -209 -77c-100 0 -180.167 32.5 -240.5 97.5s-90.5 149.167 -90.5 252.5c0 107.333 33 195.833 99 265.5s151.333 104.5 256 104.5c86.667 0 156.667 -21 210 -63
s85 -95.667 95 -161h-144c-10.667 32 -30 57 -58 75s-62.333 27 -103 27c-66.667 0 -120 -23.167 -160 -69.5s-60 -105.833 -60 -178.5c0 -68.667 19 -124.5 57 -167.5s90 -64.5 156 -64.5c54.667 0 99.5 12 134.5 36s52.5 58.333 52.5 103v30h-186v103z" />
    <glyph glyph-name="uni1E22" unicode="&#x1e22;" horiz-adv-x="696" 
d="M345 764c-21.333 0 -39.833 7.66699 -55.5 23s-23.5 33.333 -23.5 54c0 22 7.83301 40.5 23.5 55.5s34.167 22.5 55.5 22.5s39.5 -7.5 54.5 -22.5s22.5 -33.5 22.5 -55.5c0 -20.667 -7.66699 -38.667 -23 -54s-33.333 -23 -54 -23zM495 700h132v-700h-132v295h-294v-295
h-132v700h132v-286h294v286z" />
    <glyph glyph-name="uni1E23" unicode="&#x1e23;" horiz-adv-x="588" 
d="M122 764c-21.333 0 -39.833 7.66699 -55.5 23s-23.5 33.333 -23.5 54c0 22 7.83301 40.5 23.5 55.5s34.167 22.5 55.5 22.5s39.5 -7.5 54.5 -22.5s22.5 -33.5 22.5 -55.5c0 -20.667 -7.66699 -38.667 -23 -54s-33.333 -23 -54 -23zM338 510
c60 0 107.5 -18.332 142.5 -54.999s52.5 -87.334 52.5 -152.001v-303h-128v277c0 39.333 -10 69.5 -30 90.5s-45.667 31.5 -77 31.5c-32.667 0 -60 -10.833 -82 -32.5s-33 -53.5 -33 -95.5v-271h-128v710h128v-269h8c35.333 46 84.333 69 147 69z" />
    <glyph glyph-name="uni1E26" unicode="&#x1e26;" horiz-adv-x="696" 
d="M227 754c-21.333 0 -39.666 7.5 -54.999 22.5s-23 32.833 -23 53.5c0 21.333 7.66699 39.5 23 54.5s33.666 22.5 54.999 22.5c20 0 37.5 -7.5 52.5 -22.5s22.5 -33.167 22.5 -54.5c0 -20.667 -7.5 -38.5 -22.5 -53.5s-32.5 -22.5 -52.5 -22.5zM464 754
c-20 0 -37.5 7.5 -52.5 22.5s-22.5 32.833 -22.5 53.5c0 21.333 7.5 39.5 22.5 54.5s32.5 22.5 52.5 22.5c21.333 0 39.5 -7.5 54.5 -22.5s22.5 -33.167 22.5 -54.5c0 -20.667 -7.5 -38.5 -22.5 -53.5s-33.167 -22.5 -54.5 -22.5zM495 700h132v-700h-132v295h-294v-295h-132
v700h132v-286h294v286z" />
    <glyph glyph-name="uni1E27" unicode="&#x1e27;" horiz-adv-x="588" 
d="M23 745c-19.333 0 -35.8311 6.83301 -49.498 20.5s-20.5 30.167 -20.5 49.5s6.83301 35.5 20.5 48.5s30.167 19.5 49.5 19.5s35.666 -6.5 48.999 -19.5s20 -29.167 20 -48.5s-6.83301 -35.833 -20.5 -49.5s-29.834 -20.5 -48.501 -20.5zM222.002 745
c-18.667 0 -34.834 7 -48.501 21s-20.5 30.333 -20.5 49c0 19.333 6.83301 35.5 20.5 48.5s29.834 19.5 48.501 19.5c19.333 0 35.666 -6.5 48.999 -19.5s20 -29.167 20 -48.5s-6.66699 -35.833 -20 -49.5s-29.666 -20.5 -48.999 -20.5zM338.002 510
c60 0 107.5 -18.332 142.5 -54.999s52.5 -87.334 52.5 -152.001v-303h-128v277c0 39.333 -10 69.5 -30 90.5s-45.667 31.5 -77 31.5c-32.667 0 -60 -10.833 -82 -32.5s-33 -53.5 -33 -95.5v-271h-128v710h128v-269h8c35.333 46 84.333 69 147 69z" />
    <glyph glyph-name="uni1E28" unicode="&#x1e28;" horiz-adv-x="696" 
d="M495 700l132 0.00195312v-700h-132v295h-294v-295h-31l-28 -43c26 1.33301 49 -5.33398 69 -20.001s30 -35.334 30 -62.001c0 -26 -9.33301 -46.667 -28 -62s-45 -23 -79 -23c-32 0 -59 8 -81 24l22 51c20.667 -12 39.667 -18 57 -18c12.667 0 22.667 2.83301 30 8.5
s11 13.167 11 22.5c0 20.667 -13.667 31 -41 31c-8.66699 0 -19 -2 -31 -6l-42 33l40 64h-30v700h132v-286h294v286z" />
    <glyph glyph-name="uni1E29" unicode="&#x1e29;" horiz-adv-x="588" 
d="M338 510c60 0 107.5 -18.3301 142.5 -54.9971s52.5 -87.334 52.5 -152.001v-303h-128v277c0 39.333 -10 69.5 -30 90.5s-45.667 31.5 -77 31.5c-32.667 0 -60 -10.833 -82 -32.5s-33 -53.5 -33 -95.5v-271h-26l-28 -43c26 1.33301 49 -5.33398 69 -20.001
s30 -35.334 30 -62.001c0 -26 -9.33301 -46.667 -28 -62s-45 -23 -79 -23c-32 0 -59 8 -81 24l22 51c20.667 -12 39.667 -18 57 -18c12.667 0 22.667 2.83301 30 8.5s11 13.167 11 22.5c0 20.667 -13.667 31 -41 31c-8.66699 0 -19 -2 -31 -6l-42 33l40 64h-31v710h128v-269
h8c35.333 46 84.333 69 147 69z" />
    <glyph glyph-name="uni1E40" unicode="&#x1e40;" horiz-adv-x="894" 
d="M447 764c-21.333 0 -39.833 7.66699 -55.5 23s-23.5 33.333 -23.5 54c0 22 7.83301 40.5 23.5 55.5s34.167 22.5 55.5 22.5s39.5 -7.5 54.5 -22.5s22.5 -33.5 22.5 -55.5c0 -20.667 -7.66699 -38.667 -23 -54s-33.333 -23 -54 -23zM825 700v-700h-129v465h-8l-174 -385
h-133l-175 385h-8v-465h-129v700h162l213 -480h8l212 480h161z" />
    <glyph glyph-name="uni1E41" unicode="&#x1e41;" horiz-adv-x="847" 
d="M424 564c-21.333 0 -39.833 7.66699 -55.5 23s-23.5 33.333 -23.5 54c0 22 7.83301 40.5 23.5 55.5s34.167 22.5 55.5 22.5s39.5 -7.5 54.5 -22.5s22.5 -33.5 22.5 -55.5c0 -20.667 -7.66699 -38.667 -23 -54s-33.333 -23 -54 -23zM55 0l-0.000976562 499.999h117l11 -59
h8c33.333 46 79 69 137 69c62.667 0 106.334 -26.333 131.001 -79h8c36.667 52.667 88.667 79 156 79c52.667 0 94 -15.667 124 -47s45 -76.666 45 -135.999v-327h-128v303c0 30.667 -8 54.334 -24 71.001s-36.667 25 -62 25c-27.333 0 -49.333 -9.33301 -66 -28
s-25 -43.667 -25 -75v-296h-128v299c0 32 -7.83301 56.667 -23.5 74s-36.167 26 -61.5 26c-24.667 0 -46 -8.83301 -64 -26.5s-27 -42.834 -27 -75.501v-297h-128z" />
    <glyph glyph-name="uni1E44" unicode="&#x1e44;" horiz-adv-x="725" 
d="M363 764c-21.333 0 -39.833 7.66699 -55.5 23s-23.5 33.333 -23.5 54c0 22 7.83301 40.5 23.5 55.5s34.167 22.5 55.5 22.5s39.5 -7.5 54.5 -22.5s22.5 -33.5 22.5 -55.5c0 -20.667 -7.66699 -38.667 -23 -54s-33.333 -23 -54 -23zM527 700h129v-700h-135l-315 468h-8
v-468h-129v700h135l315 -471h8v471z" />
    <glyph glyph-name="uni1E45" unicode="&#x1e45;" horiz-adv-x="588" 
d="M294 564c-21.333 0 -39.833 7.66699 -55.5 23s-23.5 33.333 -23.5 54c0 22 7.83301 40.5 23.5 55.5s34.167 22.5 55.5 22.5s39.5 -7.5 54.5 -22.5s22.5 -33.5 22.5 -55.5c0 -20.667 -7.66699 -38.667 -23 -54s-33.333 -23 -54 -23zM55 0v500.001h117l11 -59h8
c35.333 46 84.333 69 147 69c60 0 107.5 -18.333 142.5 -55s52.5 -87.334 52.5 -152.001v-303h-128v277c0 39.333 -10 69.5 -30 90.5s-45.667 31.5 -77 31.5c-32.667 0 -60 -10.833 -82 -32.5s-33 -53.5 -33 -95.5v-271h-128z" />
    <glyph glyph-name="uni1E56" unicode="&#x1e56;" horiz-adv-x="636" 
d="M319 764c-21.333 0 -39.833 7.66699 -55.5 23s-23.5 33.333 -23.5 54c0 22 7.83301 40.5 23.5 55.5s34.167 22.5 55.5 22.5s39.5 -7.5 54.5 -22.5s22.5 -33.5 22.5 -55.5c0 -20.667 -7.66699 -38.667 -23 -54s-33.333 -23 -54 -23zM350 700
c71.333 0 128.167 -20.5 170.5 -61.5s63.5 -94.5 63.5 -160.5c0 -68 -21.5 -122.167 -64.5 -162.5s-100.833 -60.5 -173.5 -60.5h-149v-255h-128v700h281zM333.001 370c37.333 0 66 9.66797 86 29.001s30 45.666 30 78.999c0 32.667 -10 58.667 -30 78s-47.667 29 -83 29
h-139v-215h136z" />
    <glyph glyph-name="uni1E57" unicode="&#x1e57;" horiz-adv-x="605" 
d="M303 564c-21.333 0 -39.833 7.66699 -55.5 23s-23.5 33.333 -23.5 54c0 22 7.83301 40.5 23.5 55.5s34.167 22.5 55.5 22.5s39.5 -7.5 54.5 -22.5s22.5 -33.5 22.5 -55.5c0 -20.667 -7.66699 -38.667 -23 -54s-33.333 -23 -54 -23zM328 510c68 0 124.166 -24 168.499 -72
s66.5 -111 66.5 -189c0 -79.333 -22.333 -142.333 -67 -189s-100.667 -70 -168 -70c-62.667 0 -111 19 -145 57v-247h-128v700h104l11 -59h9c34.667 46 84.334 69 149.001 69zM307.999 101c38 0 68.667 13.665 92 40.998s35 63 35 107c0 44.667 -11.667 80.834 -35 108.501
s-54 41.5 -92 41.5s-68.333 -13.667 -91 -41s-34 -63.666 -34 -108.999c0 -44 11.333 -79.667 34 -107s53 -41 91 -41z" />
    <glyph glyph-name="uni1E58" unicode="&#x1e58;" horiz-adv-x="629" 
d="M319 764c-21.333 0 -39.833 7.66699 -55.5 23s-23.5 33.333 -23.5 54c0 22 7.83301 40.5 23.5 55.5s34.167 22.5 55.5 22.5s39.5 -7.5 54.5 -22.5s22.5 -33.5 22.5 -55.5c0 -20.667 -7.66699 -38.667 -23 -54s-33.333 -23 -54 -23zM598 0h-140l-146 273h-114v-273h-129
v700h277c69.333 0 124.333 -18.833 165 -56.5s61 -87.5 61 -149.5c0 -46.667 -12 -87.167 -36 -121.5s-57 -59.5 -99 -75.5zM198 588v-203h133c33.333 0 59.833 9.5 79.5 28.5s29.5 43.5 29.5 73.5c0 31.333 -9.66699 56 -29 74s-46 27 -80 27h-133z" />
    <glyph glyph-name="uni1E59" unicode="&#x1e59;" horiz-adv-x="392" 
d="M215 564c-21.333 0 -39.833 7.66699 -55.5 23s-23.5 33.333 -23.5 54c0 22 7.83301 40.5 23.5 55.5s34.167 22.5 55.5 22.5s39.5 -7.5 54.5 -22.5s22.5 -33.5 22.5 -55.5c0 -20.667 -7.66699 -38.667 -23 -54s-33.333 -23 -54 -23zM55 0l0.00195312 500.001h116l12 -71h8
c17.333 28 36.666 48.5 57.999 61.5s51.666 19.5 90.999 19.5h36v-128c-16 2.66699 -34 4 -54 4c-50 0 -85.667 -14.833 -107 -44.5s-32 -65.834 -32 -108.501v-233h-128z" />
    <glyph glyph-name="uni1E60" unicode="&#x1e60;" horiz-adv-x="610" 
d="M311 764c-21.333 0 -39.833 7.66699 -55.5 23s-23.5 33.333 -23.5 54c0 22 7.83301 40.5 23.5 55.5s34.167 22.5 55.5 22.5s39.5 -7.5 54.5 -22.5s22.5 -33.5 22.5 -55.5c0 -20.667 -7.66699 -38.667 -23 -54s-33.333 -23 -54 -23zM556 192
c0 -65.333 -23.168 -115.336 -69.501 -150.003s-104.166 -52 -173.499 -52c-81.333 0 -144.5 20.167 -189.5 60.5s-68.833 94.833 -71.5 163.5h130c3.33301 -35.333 16.166 -62.833 38.499 -82.5s53.166 -29.5 92.499 -29.5c32 0 58.333 7.16699 79 21.5s31 35.833 31 64.5
c0 16.667 -3.5 31.334 -10.5 44.001s-18 23.5 -33 32.5s-28.5 15.833 -40.5 20.5s-28.333 10 -49 16l-40 12c-117.333 35.333 -176 100.333 -176 195c0 61.333 22.333 110.333 67 147s101.334 55 170.001 55c70.667 0 127.667 -19.167 171 -57.5s66 -87.833 68 -148.5h-130
c-3.33301 28.667 -14 51.5 -32 68.5s-43.333 25.5 -76 25.5c-31.333 0 -56.666 -7.66699 -75.999 -23s-29 -35.666 -29 -60.999c0 -14 3.16699 -26.5 9.5 -37.5s16.166 -20.333 29.499 -28s25.5 -13.5 36.5 -17.5s25.833 -9 44.5 -15l35 -11
c17.333 -5.33301 32.833 -10.666 46.5 -15.999s30.334 -13.833 50.001 -25.5s36 -24.667 49 -39s24.333 -33 34 -56s14.5 -48.5 14.5 -76.5z" />
    <glyph glyph-name="uni1E61" unicode="&#x1e61;" horiz-adv-x="499" 
d="M241 564c-21.333 0 -39.833 7.66699 -55.5 23s-23.5 33.333 -23.5 54c0 22 7.83301 40.5 23.5 55.5s34.167 22.5 55.5 22.5s39.5 -7.5 54.5 -22.5s22.5 -33.5 22.5 -55.5c0 -20.667 -7.66699 -38.667 -23 -54s-33.333 -23 -54 -23zM263 -10
c-68.667 0 -122.002 15.168 -160.002 45.501s-58.667 71.833 -62 124.5h123c6.66699 -50 39.334 -75 98.001 -75c21.333 0 38.833 4.16699 52.5 12.5s20.5 21.166 20.5 38.499c0 18 -7.16699 31.833 -21.5 41.5s-36.5 18.5 -66.5 26.5l-47 12
c-20 4.66699 -37.167 9.83398 -51.5 15.501s-29.166 13.667 -44.499 24s-27 24 -35 41s-12 37.167 -12 60.5c0 48 18 85.5 54 112.5s80.333 40.5 133 40.5c64 0 113 -14.333 147 -43s53 -65.334 57 -110.001h-123c-5.33301 38.667 -32 58 -80 58c-20 0 -36 -4.5 -48 -13.5
s-18 -21.5 -18 -37.5s6.16699 -27.5 18.5 -34.5s33.5 -14.5 63.5 -22.5l47 -12c48 -12 84.833 -30 110.5 -54s38.5 -58 38.5 -102c0 -49.333 -18.167 -86.5 -54.5 -111.5s-82.833 -37.5 -139.5 -37.5z" />
    <glyph glyph-name="uni1E7C" unicode="&#x1e7c;" horiz-adv-x="679" 
d="M532 878c-2.66699 -39.333 -13.835 -72.167 -33.502 -98.5s-46.834 -39.5 -81.501 -39.5c-22.667 0 -42.5 5.16699 -59.5 15.5s-31.667 20.666 -44 30.999s-24.166 15.5 -35.499 15.5c-25.333 0 -40 -17.333 -44 -52h-85c2.66699 40 13.834 73.167 33.501 99.5
s47.167 39.5 82.5 39.5c24.667 0 45.334 -5.16699 62.001 -15.5s30.667 -20.666 42 -30.999s23 -15.5 35 -15.5c26 0 40.333 17 43 51h85zM516.999 699.999h141l-239 -700h-159l-239 700h142l174 -523h8z" />
    <glyph glyph-name="uni1E7D" unicode="&#x1e7d;" horiz-adv-x="569" 
d="M476 678c-2.66699 -39.333 -13.835 -72.167 -33.502 -98.5s-46.834 -39.5 -81.501 -39.5c-22.667 0 -42.5 5.16699 -59.5 15.5s-31.667 20.666 -44 30.999s-24.166 15.5 -35.499 15.5c-25.333 0 -40 -17.333 -44 -52h-85c2.66699 40 13.834 73.167 33.501 99.5
s47.167 39.5 82.5 39.5c24.667 0 45.334 -5.16699 62.001 -15.5s30.667 -20.666 42 -30.999s23 -15.5 35 -15.5c26 0 40.333 17 43 51h85zM207.999 -0.000976562l-191 500h132l133 -367h8l131 367h131l-191 -500h-153z" />
    <glyph glyph-name="Wgrave" unicode="&#x1e80;" horiz-adv-x="921" 
d="M434 900l76 -145h-97l-87 145h108zM773 700h127l-152 -700h-146l-138 481h-8l-136 -481h-146l-153 700h128l103 -506h8l131 456h140l129 -456h8z" />
    <glyph glyph-name="wgrave" unicode="&#x1e81;" horiz-adv-x="775" 
d="M361 700l76 -145h-97l-87 145h108zM150 0l-133 500h118l85 -354h8l94 322h133l93 -323h8l84 355h119l-135 -500h-140l-92 326h-8l-94 -326h-140z" />
    <glyph glyph-name="Wacute" unicode="&#x1e82;" horiz-adv-x="921" 
d="M488 900h108l-86 -145h-98zM773 700h127l-152 -700h-146l-138 481h-8l-136 -481h-146l-153 700h128l103 -506h8l131 456h140l129 -456h8z" />
    <glyph glyph-name="wacute" unicode="&#x1e83;" horiz-adv-x="775" 
d="M415 700h108l-86 -145h-98zM150 0l-133 500h118l85 -354h8l94 322h133l93 -323h8l84 355h119l-135 -500h-140l-92 326h-8l-94 -326h-140z" />
    <glyph glyph-name="Wdieresis" unicode="&#x1e84;" horiz-adv-x="921" 
d="M343 754c-21.333 0 -39.666 7.5 -54.999 22.5s-23 32.833 -23 53.5c0 21.333 7.66699 39.5 23 54.5s33.666 22.5 54.999 22.5c20 0 37.5 -7.5 52.5 -22.5s22.5 -33.167 22.5 -54.5c0 -20.667 -7.5 -38.5 -22.5 -53.5s-32.5 -22.5 -52.5 -22.5zM580 754
c-20 0 -37.5 7.5 -52.5 22.5s-22.5 32.833 -22.5 53.5c0 21.333 7.5 39.5 22.5 54.5s32.5 22.5 52.5 22.5c21.333 0 39.5 -7.5 54.5 -22.5s22.5 -33.167 22.5 -54.5c0 -20.667 -7.5 -38.5 -22.5 -53.5s-33.167 -22.5 -54.5 -22.5zM773 700h127l-152 -700h-146l-138 481h-8
l-136 -481h-146l-153 700h128l103 -506h8l131 456h140l129 -456h8z" />
    <glyph glyph-name="wdieresis" unicode="&#x1e85;" horiz-adv-x="775" 
d="M289 545c-19.333 0 -35.8311 6.83301 -49.498 20.5s-20.5 30.167 -20.5 49.5s6.83301 35.5 20.5 48.5s30.167 19.5 49.5 19.5s35.666 -6.5 48.999 -19.5s20 -29.167 20 -48.5s-6.83301 -35.833 -20.5 -49.5s-29.834 -20.5 -48.501 -20.5zM488.002 545
c-18.667 0 -34.834 7 -48.501 21s-20.5 30.333 -20.5 49c0 19.333 6.83301 35.5 20.5 48.5s29.834 19.5 48.501 19.5c19.333 0 35.666 -6.5 48.999 -19.5s20 -29.167 20 -48.5s-6.66699 -35.833 -20 -49.5s-29.666 -20.5 -48.999 -20.5zM150.002 0l-133 500h118l85 -354h8
l94 322h133l93 -323h8l84 355h119l-135 -500h-140l-92 326h-8l-94 -326h-140z" />
    <glyph glyph-name="uni1E8C" unicode="&#x1e8c;" horiz-adv-x="667" 
d="M216 754c-21.333 0 -39.666 7.5 -54.999 22.5s-23 32.833 -23 53.5c0 21.333 7.66699 39.5 23 54.5s33.666 22.5 54.999 22.5c20 0 37.5 -7.5 52.5 -22.5s22.5 -33.167 22.5 -54.5c0 -20.667 -7.5 -38.5 -22.5 -53.5s-32.5 -22.5 -52.5 -22.5zM453 754
c-20 0 -37.5 7.5 -52.5 22.5s-22.5 32.833 -22.5 53.5c0 21.333 7.5 39.5 22.5 54.5s32.5 22.5 52.5 22.5c21.333 0 39.5 -7.5 54.5 -22.5s22.5 -33.167 22.5 -54.5c0 -20.667 -7.5 -38.5 -22.5 -53.5s-33.167 -22.5 -54.5 -22.5zM493 0l-152 252h-9l-152 -252h-159l224 361
l-213 339h157l143 -232h9l143 232h150l-213 -339l225 -361h-153z" />
    <glyph glyph-name="uni1E8D" unicode="&#x1e8d;" horiz-adv-x="542" 
d="M172 545c-18.667 0 -34.998 6.83301 -48.998 20.5s-21 30.167 -21 49.5s6.83301 35.5 20.5 48.5s30.167 19.5 49.5 19.5s35.666 -6.5 48.999 -19.5s20 -29.167 20 -48.5s-6.83301 -35.833 -20.5 -49.5s-29.834 -20.5 -48.501 -20.5zM371.002 545
c-18.667 0 -34.834 7 -48.501 21s-20.5 30.333 -20.5 49c0 19.333 6.83301 35.5 20.5 48.5s29.834 19.5 48.501 19.5c19.333 0 35.666 -6.5 48.999 -19.5s20 -29.167 20 -48.5s-6.66699 -35.833 -20 -49.5s-29.666 -20.5 -48.999 -20.5zM17.002 0l173 257l-164 243h145
l96 -147h9l95 147h145l-163 -243l173 -257h-147l-103 162h-8l-106 -162h-145z" />
    <glyph glyph-name="uni1E90" unicode="&#x1e90;" horiz-adv-x="626" 
d="M260 752h-107l108 148h107l108 -148h-107l-51 77h-7zM246 118h326v-118h-520v77l328 498v7h-311v118h493v-77l-316 -498v-7z" />
    <glyph glyph-name="uni1E97" unicode="&#x1e97;" horiz-adv-x="398" 
d="M94 681c-18.667 0 -34.998 6.83301 -48.998 20.5s-21 30.167 -21 49.5s6.83301 35.5 20.5 48.5s30.167 19.5 49.5 19.5s35.666 -6.5 48.999 -19.5s20 -29.167 20 -48.5s-6.83301 -35.833 -20.5 -49.5s-29.834 -20.5 -48.501 -20.5zM293.002 681
c-18.667 0 -34.834 7 -48.501 21s-20.5 30.333 -20.5 49c0 19.333 6.83301 35.5 20.5 48.5s29.834 19.5 48.501 19.5c19.333 0 35.666 -6.5 48.999 -19.5s20 -29.167 20 -48.5s-6.66699 -35.833 -20 -49.5s-29.666 -20.5 -48.999 -20.5zM279.002 -10
c-104 0 -156 48.667 -156 146v263h-107v101h34c30.667 0 52.5 5.83301 65.5 17.5s19.5 31.167 19.5 58.5v60h116v-136h131v-101h-131v-246c0 -11.333 1.16699 -21 3.5 -29s8.83301 -15.5 19.5 -22.5s25.334 -10.5 44.001 -10.5c15.333 0 31.666 2.33301 48.999 7v-97
c-32 -7.33301 -61.333 -11 -88 -11z" />
    <glyph glyph-name="uni1E98" unicode="&#x1e98;" horiz-adv-x="775" 
d="M387 534c-27.333 0 -51 9.66699 -71 29s-30 42.333 -30 69s10 49.834 30 69.501s43.667 29.5 71 29.5c28 0 52.167 -9.83301 72.5 -29.5s30.5 -42.834 30.5 -69.501s-10.167 -49.667 -30.5 -69s-44.5 -29 -72.5 -29zM389 601c8 0 15.167 3.16699 21.5 9.5
s9.5 13.5 9.5 21.5c0 8.66699 -3.16699 16 -9.5 22s-13.5 9 -21.5 9c-9.33301 0 -17.166 -3 -23.499 -9s-9.5 -13.333 -9.5 -22c0 -8 3.16699 -15.167 9.5 -21.5s14.166 -9.5 23.499 -9.5zM150 0l-133 500h118l85 -354h8l94 322h133l93 -323h8l84 355h119l-135 -500h-140
l-92 326h-8l-94 -326h-140z" />
    <glyph glyph-name="uni1E99" unicode="&#x1e99;" horiz-adv-x="569" 
d="M283 534c-27.333 0 -51 9.66699 -71 29s-30 42.333 -30 69s10 49.834 30 69.501s43.667 29.5 71 29.5c28 0 52.167 -9.83301 72.5 -29.5s30.5 -42.834 30.5 -69.501s-10.167 -49.667 -30.5 -69s-44.5 -29 -72.5 -29zM285 601c8 0 15.167 3.16699 21.5 9.5
s9.5 13.5 9.5 21.5c0 8.66699 -3.16699 16 -9.5 22s-13.5 9 -21.5 9c-9.33301 0 -17.166 -3 -23.499 -9s-9.5 -13.333 -9.5 -22c0 -8 3.16699 -15.167 9.5 -21.5s14.166 -9.5 23.499 -9.5zM150 -210c-26 0 -52.999 3.66699 -80.999 11v95c19.333 -4 36.666 -6 51.999 -6
c55.333 0 92 22.333 110 67l17 43h-40l-191 500h132l136 -369h8l127 369h132l-202 -562c-33.333 -98.667 -100 -148 -200 -148z" />
    <glyph glyph-name="uni1E9E" unicode="&#x1e9e;" horiz-adv-x="1211" 
d="M556 192c0 -65.333 -23.168 -115.336 -69.501 -150.003s-104.166 -52 -173.499 -52c-81.333 0 -144.5 20.167 -189.5 60.5s-68.833 94.833 -71.5 163.5h130c3.33301 -35.333 16.166 -62.833 38.499 -82.5s53.166 -29.5 92.499 -29.5c32 0 58.333 7.16699 79 21.5
s31 35.833 31 64.5c0 16.667 -3.5 31.334 -10.5 44.001s-18 23.5 -33 32.5s-28.5 15.833 -40.5 20.5s-28.333 10 -49 16l-40 12c-117.333 35.333 -176 100.333 -176 195c0 61.333 22.333 110.333 67 147s101.334 55 170.001 55c70.667 0 127.667 -19.167 171 -57.5
s66 -87.833 68 -148.5h-130c-3.33301 28.667 -14 51.5 -32 68.5s-43.333 25.5 -76 25.5c-31.333 0 -56.666 -7.66699 -75.999 -23s-29 -35.666 -29 -60.999c0 -14 3.16699 -26.5 9.5 -37.5s16.166 -20.333 29.499 -28s25.5 -13.5 36.5 -17.5s25.833 -9 44.5 -15l35 -11
c17.333 -5.33301 32.833 -10.666 46.5 -15.999s30.334 -13.833 50.001 -25.5s36 -24.667 49 -39s24.333 -33 34 -56s14.5 -48.5 14.5 -76.5zM1157 191.997c0 -65.333 -23.168 -115.336 -69.501 -150.003s-104.166 -52 -173.499 -52c-81.333 0 -144.5 20.167 -189.5 60.5
s-68.833 94.833 -71.5 163.5h130c3.33301 -35.333 16.166 -62.833 38.499 -82.5s53.166 -29.5 92.499 -29.5c32 0 58.333 7.16699 79 21.5s31 35.833 31 64.5c0 16.667 -3.5 31.334 -10.5 44.001s-18 23.5 -33 32.5s-28.5 15.833 -40.5 20.5s-28.333 10 -49 16l-40 12
c-117.333 35.333 -176 100.333 -176 195c0 61.333 22.333 110.333 67 147s101.334 55 170.001 55c70.667 0 127.667 -19.167 171 -57.5s66 -87.833 68 -148.5h-130c-3.33301 28.667 -14 51.5 -32 68.5s-43.333 25.5 -76 25.5c-31.333 0 -56.666 -7.66699 -75.999 -23
s-29 -35.666 -29 -60.999c0 -14 3.16699 -26.5 9.5 -37.5s16.166 -20.333 29.499 -28s25.5 -13.5 36.5 -17.5s25.833 -9 44.5 -15l35 -11c17.333 -5.33301 32.833 -10.666 46.5 -15.999s30.334 -13.833 50.001 -25.5s36 -24.667 49 -39s24.333 -33 34 -56
s14.5 -48.5 14.5 -76.5z" />
    <glyph glyph-name="uni1EA0" unicode="&#x1ea0;" horiz-adv-x="700" 
d="M679 0h-141l-57 169h-262l-57 -169h-141l250 700h159zM255 278h190l-91 270h-8zM351 -64c21.333 0 39.5 -7.5 54.5 -22.5s22.5 -33.167 22.5 -54.5c0 -20.667 -7.66699 -38.834 -23 -54.501s-33.333 -23.5 -54 -23.5s-39 7.83301 -55 23.5s-24 33.834 -24 54.501
c0 21.333 7.83301 39.5 23.5 54.5s34.167 22.5 55.5 22.5z" />
    <glyph glyph-name="uni1EA1" unicode="&#x1ea1;" horiz-adv-x="547" 
d="M518 96h11.999v-96h-54c-52.667 0 -86.334 20 -101.001 60c-36.667 -46.667 -91.667 -70 -165 -70c-53.333 0 -96.166 12.5 -128.499 37.5s-48.5 61.5 -48.5 109.5c0 45.333 15.167 80.833 45.5 106.5s70.166 40.834 119.499 45.501l156 16v21
c0 26.667 -7.66699 47 -23 61s-35.666 21 -60.999 21c-51.333 0 -81.333 -25 -90 -75h-128c5.33301 53.333 27.333 96.166 66 128.499s89.334 48.5 152.001 48.5s113.667 -16.167 153 -48.5s59 -80.5 59 -144.5v-183c0 -25.333 12 -38 36 -38zM353.999 193v24l-112 -12
c-54 -6 -81 -27 -81 -63s23.667 -54 71 -54c32 0 60.333 8.5 85 25.5s37 43.5 37 79.5zM280.999 -64c21.333 0 39.5 -7.5 54.5 -22.5s22.5 -33.167 22.5 -54.5c0 -20.667 -7.66699 -38.834 -23 -54.501s-33.333 -23.5 -54 -23.5s-39 7.83301 -55 23.5s-24 33.834 -24 54.501
c0 21.333 7.83301 39.5 23.5 54.5s34.167 22.5 55.5 22.5z" />
    <glyph glyph-name="uni1EB8" unicode="&#x1eb8;" horiz-adv-x="586" 
d="M198 115h350v-115h-479v700h469v-115h-340v-174h293v-112h-293v-184zM310 -219c-20.667 0 -39 7.83301 -55 23.5s-24 33.834 -24 54.501c0 21.333 7.83301 39.5 23.5 54.5s34.167 22.5 55.5 22.5s39.5 -7.5 54.5 -22.5s22.5 -33.167 22.5 -54.5
c0 -20.667 -7.66699 -38.834 -23 -54.501s-33.333 -23.5 -54 -23.5z" />
    <glyph glyph-name="uni1EB9" unicode="&#x1eb9;" horiz-adv-x="575" 
d="M408 158h123c-10 -52 -35.5 -93 -76.5 -123s-93.167 -45 -156.5 -45c-75.333 0 -137 23.5 -185 70.5s-72 108.5 -72 184.5c0 80 24.167 144.167 72.5 192.5s108.166 72.5 179.499 72.5c66.667 0 122.834 -21.667 168.501 -65s68.5 -107.333 68.5 -192
c0 -6 -0.666992 -18.333 -2 -37h-360c2.66699 -36.667 15.5 -66.5 38.5 -89.5s53.5 -34.5 91.5 -34.5c59.333 0 96 22 110 66zM293 408c-33.333 0 -61.168 -10 -83.501 -30s-35.833 -45.333 -40.5 -76h239c-1.33301 31.333 -12.666 56.833 -33.999 76.5
s-48.333 29.5 -81 29.5zM293.998 -64c21.333 0 39.5 -7.5 54.5 -22.5s22.5 -33.167 22.5 -54.5c0 -20.667 -7.66699 -38.834 -23 -54.501s-33.333 -23.5 -54 -23.5s-39 7.83301 -55 23.5s-24 33.834 -24 54.501c0 21.333 7.83301 39.5 23.5 54.5s34.167 22.5 55.5 22.5z" />
    <glyph glyph-name="uni1EBC" unicode="&#x1ebc;" horiz-adv-x="586" 
d="M496 878c-2.66699 -39.333 -13.835 -72.167 -33.502 -98.5s-46.834 -39.5 -81.501 -39.5c-22.667 0 -42.5 5.16699 -59.5 15.5s-31.667 20.666 -44 30.999s-24.166 15.5 -35.499 15.5c-25.333 0 -40 -17.333 -44 -52h-85c2.66699 40 13.834 73.167 33.501 99.5
s47.167 39.5 82.5 39.5c24.667 0 45.334 -5.16699 62.001 -15.5s30.667 -20.666 42 -30.999s23 -15.5 35 -15.5c26 0 40.333 17 43 51h85zM197.999 114.999h350v-115h-479v700h469v-115h-340v-174h293v-112h-293v-184z" />
    <glyph glyph-name="uni1EBD" unicode="&#x1ebd;" horiz-adv-x="575" 
d="M230 602c-25.333 0 -40.001 -17.334 -44.001 -52.001h-85c2.66699 40 13.834 73.167 33.501 99.5s47.167 39.5 82.5 39.5c24.667 0 45.334 -5.16699 62.001 -15.5s30.667 -20.666 42 -30.999s23 -15.5 35 -15.5c26 0 40.333 17 43 51h85
c-2.66699 -39.333 -13.834 -72.166 -33.501 -98.499s-46.834 -39.5 -81.501 -39.5c-22.667 0 -42.5 5.16699 -59.5 15.5s-31.667 20.666 -44 30.999s-24.166 15.5 -35.499 15.5zM407.999 157.999h123c-10 -52 -35.5 -93 -76.5 -123s-93.167 -45 -156.5 -45
c-75.333 0 -137 23.5 -185 70.5s-72 108.5 -72 184.5c0 80 24.167 144.167 72.5 192.5s108.166 72.5 179.499 72.5c66.667 0 122.834 -21.667 168.501 -65s68.5 -107.333 68.5 -192c0 -6 -0.666992 -18.333 -2 -37h-360c2.66699 -36.667 15.5 -66.5 38.5 -89.5
s53.5 -34.5 91.5 -34.5c59.333 0 96 22 110 66zM292.999 407.999c-33.333 0 -61.168 -10 -83.501 -30s-35.833 -45.333 -40.5 -76h239c-1.33301 31.333 -12.666 56.833 -33.999 76.5s-48.333 29.5 -81 29.5z" />
    <glyph glyph-name="uni1ECA" unicode="&#x1eca;" horiz-adv-x="270" 
d="M201 700v-700h-132v700h132zM136 -219c-20.667 0 -39 7.83301 -55 23.5s-24 33.834 -24 54.501c0 21.333 7.83301 39.5 23.5 54.5s34.167 22.5 55.5 22.5s39.5 -7.5 54.5 -22.5s22.5 -33.167 22.5 -54.5c0 -20.667 -7.66699 -38.834 -23 -54.501s-33.333 -23.5 -54 -23.5
z" />
    <glyph glyph-name="uni1ECB" unicode="&#x1ecb;" horiz-adv-x="238" 
d="M119 564c-21.333 0 -39.833 7.66699 -55.5 23s-23.5 33.333 -23.5 54c0 22 7.83301 40.5 23.5 55.5s34.167 22.5 55.5 22.5s39.5 -7.5 54.5 -22.5s22.5 -33.5 22.5 -55.5c0 -20.667 -7.66699 -38.667 -23 -54s-33.333 -23 -54 -23zM55 0v500h128v-500h-128zM120 -219
c-20.667 0 -39 7.83301 -55 23.5s-24 33.834 -24 54.501c0 21.333 7.83301 39.5 23.5 54.5s34.167 22.5 55.5 22.5s39.5 -7.5 54.5 -22.5s22.5 -33.167 22.5 -54.5c0 -20.667 -7.66699 -38.834 -23 -54.501s-33.333 -23.5 -54 -23.5z" />
    <glyph glyph-name="uni1ECC" unicode="&#x1ecc;" horiz-adv-x="820" 
d="M410 -10c-102.667 0 -188 34.1689 -256 102.502s-102 154.166 -102 257.499c0 102.667 33.833 188.334 101.5 257.001s153.167 103 256.5 103c102.667 0 188 -34.333 256 -103s102 -154.334 102 -257.001s-33.833 -188.334 -101.5 -257.001s-153.167 -103 -256.5 -103z
M411 112.002c64 0 117 22.667 159 68s63 102 63 170s-21.167 124.667 -63.5 170s-95.5 68 -159.5 68s-117.167 -22.667 -159.5 -68s-63.5 -102 -63.5 -170s21.167 -124.667 63.5 -170s95.833 -68 160.5 -68zM411 -218.998c-20.667 0 -39 7.83301 -55 23.5
s-24 33.834 -24 54.501c0 21.333 7.83301 39.5 23.5 54.5s34.167 22.5 55.5 22.5s39.5 -7.5 54.5 -22.5s22.5 -33.167 22.5 -54.5c0 -20.667 -7.66699 -38.834 -23 -54.501s-33.333 -23.5 -54 -23.5z" />
    <glyph glyph-name="uni1ECD" unicode="&#x1ecd;" horiz-adv-x="611" 
d="M305 -10c-75.333 0 -138.167 24.501 -188.5 73.501s-75.5 111.5 -75.5 187.5s25 138.167 75 186.5s113 72.5 189 72.5s139 -24.167 189 -72.5s75 -110.5 75 -186.5c0 -76.667 -25 -139.334 -75 -188.001s-113 -73 -189 -73zM304.999 101.001
c40.667 0 73.667 14.333 99 43s38 64.334 38 107.001c0 42 -12.667 77.167 -38 105.5s-58.333 42.5 -99 42.5s-73.5 -14.167 -98.5 -42.5s-37.5 -63.5 -37.5 -105.5c0 -42.667 12.667 -78.334 38 -107.001s58 -43 98 -43zM305.999 -218.999c-20.667 0 -39 7.83301 -55 23.5
s-24 33.834 -24 54.501c0 21.333 7.83301 39.5 23.5 54.5s34.167 22.5 55.5 22.5s39.5 -7.5 54.5 -22.5s22.5 -33.167 22.5 -54.5c0 -20.667 -7.66699 -38.834 -23 -54.501s-33.333 -23.5 -54 -23.5z" />
    </font>
</defs>
</svg>
